<svg width="375" height="78" viewBox="0 0 375 78" fill="none" xmlns="http://www.w3.org/2000/svg">
<rect width="375" height="78" fill="#F7F7F7"/>
<path d="M66 30.7498V45.7498C66 46.0813 65.8683 46.3993 65.6339 46.6337C65.3995 46.8681 65.0815 46.9998 64.75 46.9998H56C55.6685 46.9998 55.3505 46.8681 55.1161 46.6337C54.8817 46.3993 54.75 46.0813 54.75 45.7498V37.6248C54.75 37.4591 54.6842 37.3001 54.5669 37.1829C54.4497 37.0657 54.2908 36.9998 54.125 36.9998H47.875C47.7092 36.9998 47.5503 37.0657 47.4331 37.1829C47.3158 37.3001 47.25 37.4591 47.25 37.6248V45.7498C47.25 46.0813 47.1183 46.3993 46.8839 46.6337C46.6495 46.8681 46.3315 46.9998 46 46.9998H37.25C36.9185 46.9998 36.6005 46.8681 36.3661 46.6337C36.1317 46.3993 36 46.0813 36 45.7498V30.7498C36.0003 30.0869 36.2639 29.4512 36.7328 28.9826L49.2328 16.4826C49.7016 16.0141 50.3372 15.751 51 15.751C51.6628 15.751 52.2984 16.0141 52.7672 16.4826L65.2672 28.9826C65.7361 29.4512 65.9997 30.0869 66 30.7498Z" fill="#A0A0A0"/>
<path d="M31.84 57H35.78V57.8H32.74V64H31.84V57ZM36.1063 63.47C36.1597 63.4767 36.2063 63.4833 36.2463 63.49C36.2863 63.4967 36.3263 63.5 36.3663 63.5C36.5663 63.5 36.7097 63.3567 36.7963 63.07C36.8897 62.7767 36.9463 62.3033 36.9663 61.65C36.9863 60.99 36.9963 60.1067 36.9963 59H40.8063V64H39.9063V59.8H37.8963C37.8963 60.7 37.8763 61.4367 37.8363 62.01C37.7963 62.5833 37.723 63.03 37.6163 63.35C37.5097 63.6633 37.353 63.8833 37.1463 64.01C36.9463 64.1367 36.6797 64.2 36.3463 64.2C36.2997 64.2 36.2397 64.1933 36.1663 64.18C36.093 64.1733 36.0197 64.1667 35.9463 64.16L36.1063 63.47ZM44.1748 64.2C43.7148 64.2 43.3181 64.0833 42.9848 63.85C42.6514 63.6167 42.3948 63.2933 42.2148 62.88C42.0348 62.4667 41.9448 61.9933 41.9448 61.46C41.9448 60.9533 42.0281 60.5 42.1948 60.1C42.3614 59.7 42.6014 59.3833 42.9148 59.15C43.2348 58.9167 43.6248 58.8 44.0848 58.8C44.7314 58.8 45.2248 59.0367 45.5648 59.51C45.9114 59.9767 46.0848 60.6467 46.0848 61.52C46.0848 62.3667 45.9214 63.0267 45.5948 63.5C45.2681 63.9667 44.7948 64.2 44.1748 64.2ZM44.3048 63.5C44.6181 63.5 44.8914 63.41 45.1248 63.23C45.3581 63.05 45.5381 62.8067 45.6648 62.5C45.7981 62.1933 45.8648 61.8467 45.8648 61.46C45.8648 61.0733 45.7981 60.7333 45.6648 60.44C45.5314 60.1467 45.3448 59.9167 45.1048 59.75C44.8648 59.5833 44.5881 59.5 44.2748 59.5C43.8281 59.5 43.4781 59.6733 43.2248 60.02C42.9714 60.36 42.8448 60.83 42.8448 61.43C42.8448 62.0567 42.9748 62.56 43.2348 62.94C43.5014 63.3133 43.8581 63.5 44.3048 63.5ZM45.8648 64V59H46.7648V64H45.8648ZM48.3918 59H50.4818C51.1218 59 51.5751 59.09 51.8418 59.27C52.1151 59.45 52.2518 59.75 52.2518 60.17C52.2518 60.5167 52.1585 60.7767 51.9718 60.95C51.7918 61.1233 51.4785 61.2567 51.0318 61.35C51.5518 61.3767 51.9351 61.4967 52.1818 61.71C52.4285 61.9233 52.5518 62.2367 52.5518 62.65C52.5518 62.95 52.4851 63.2 52.3518 63.4C52.2185 63.6 52.0118 63.75 51.7318 63.85C51.4518 63.95 51.0885 64 50.6418 64H48.3918V59ZM50.3118 61.16C50.6385 61.16 50.8918 61.0967 51.0718 60.97C51.2585 60.8433 51.3518 60.6533 51.3518 60.4C51.3518 60.1533 51.2618 59.9767 51.0818 59.87C50.9085 59.7567 50.6585 59.7 50.3318 59.7H49.2918V61.16H50.3118ZM50.5018 63.3C50.8885 63.3 51.1751 63.2333 51.3618 63.1C51.5551 62.9667 51.6518 62.77 51.6518 62.51C51.6518 62.2433 51.5551 62.0567 51.3618 61.95C51.1685 61.8367 50.8785 61.78 50.4918 61.78H49.2918V63.3H50.5018ZM53.7531 59H54.6531V61.05H57.1831V59H58.0831V64H57.1831V61.85H54.6531V64H53.7531V59ZM61.4209 64.2C60.9609 64.2 60.5642 64.0833 60.2309 63.85C59.8975 63.6167 59.6409 63.2933 59.4609 62.88C59.2809 62.4667 59.1909 61.9933 59.1909 61.46C59.1909 60.9533 59.2742 60.5 59.4409 60.1C59.6075 59.7 59.8475 59.3833 60.1609 59.15C60.4809 58.9167 60.8709 58.8 61.3309 58.8C61.9775 58.8 62.4709 59.0367 62.8109 59.51C63.1575 59.9767 63.3309 60.6467 63.3309 61.52C63.3309 62.3667 63.1675 63.0267 62.8409 63.5C62.5142 63.9667 62.0409 64.2 61.4209 64.2ZM61.5509 63.5C61.8642 63.5 62.1375 63.41 62.3709 63.23C62.6042 63.05 62.7842 62.8067 62.9109 62.5C63.0442 62.1933 63.1109 61.8467 63.1109 61.46C63.1109 61.0733 63.0442 60.7333 62.9109 60.44C62.7775 60.1467 62.5909 59.9167 62.3509 59.75C62.1109 59.5833 61.8342 59.5 61.5209 59.5C61.0742 59.5 60.7242 59.6733 60.4709 60.02C60.2175 60.36 60.0909 60.83 60.0909 61.43C60.0909 62.0567 60.2209 62.56 60.4809 62.94C60.7475 63.3133 61.1042 63.5 61.5509 63.5ZM63.1109 64V59H64.0109V64H63.1109ZM66.2079 61.94C65.9212 61.7733 65.6979 61.5667 65.5379 61.32C65.3779 61.0733 65.2979 60.7867 65.2979 60.46C65.2979 59.9933 65.4612 59.6333 65.7879 59.38C66.1146 59.1267 66.6012 59 67.2479 59H69.4379V64H68.5379V62.18H67.0279L66.2079 64H65.2079L66.2079 61.94ZM68.5379 59.7H67.4079C66.9879 59.7 66.6812 59.7667 66.4879 59.9C66.2946 60.0333 66.1979 60.2533 66.1979 60.56C66.1979 60.8667 66.2946 61.0967 66.4879 61.25C66.6879 61.4033 66.9946 61.48 67.4079 61.48H68.5379V59.7Z" fill="#A0A0A0"/>
<path fill-rule="evenodd" clip-rule="evenodd" d="M150.506 19.0276C152.253 19.0275 152.879 18.6868 153.749 20.4026L154.343 21.5676C154.84 22.5195 155.622 23.7597 155.988 24.7561L157.871 24.7541C158.262 24.7524 158.547 24.645 158.886 24.9045C159.364 25.2711 159.197 26.224 158.618 26.2912C158.076 26.3542 157.395 26.3211 156.832 26.3196C156.948 26.5674 157.196 26.9696 157.341 27.2365L158.517 29.4162C160.11 32.3723 159.902 32.6193 159.964 35.8069C159.997 37.5035 160.278 38.6883 158.537 39.4768C158.519 40.7898 158.787 42.2269 157.84 43.2307C156.924 44.2008 155.914 43.9639 154.748 43.9963C152.686 44.0536 152.16 42.7982 152.159 40.9035L152.16 39.5217H137.864L137.865 40.8733C137.866 43.1042 137.2 43.9435 134.999 43.9387L133.947 43.9436C131.958 43.9568 131.412 42.6074 131.411 40.7571V39.4768C129.638 38.5288 130.052 37.3465 130.022 35.5354C130.006 34.6066 130.007 33.645 130.137 32.7268C130.405 30.8765 132.274 28.0934 133.184 26.3196L132.181 26.3215C131.667 26.3261 130.726 26.4191 130.783 25.552C130.845 24.6253 131.775 24.7541 132.408 24.7541L134.006 24.7561C134.239 24.3384 134.423 23.9447 134.642 23.5266L135.77 21.3811C136.432 20.0991 136.608 19.1626 138.131 19.0285L150.506 19.0276ZM135.209 39.5207L132.884 39.5217C132.883 39.9814 132.833 41.3115 132.919 41.6604C133.18 42.7092 134.487 42.447 135.29 42.4377C135.624 42.4339 135.879 42.3906 136.151 42.1701C136.493 41.589 136.428 41.4126 136.427 40.7561L136.424 39.5217C136.038 39.5084 135.599 39.5205 135.209 39.5207ZM154.799 39.5217C154.432 39.5219 153.992 39.5371 153.633 39.5217L153.631 40.8801C153.628 42.6891 154.016 42.4327 155.413 42.4367C156.046 42.4386 156.287 42.5817 156.832 42.1701C157.167 41.5866 157.082 41.503 157.077 40.844L157.075 39.5217H154.799ZM134.992 31.3967C133.071 31.5287 132.99 34.0234 134.61 34.4016C134.856 34.4587 135.165 34.4209 135.423 34.4192L136.779 34.4172C138.607 34.5463 138.746 31.4056 136.74 31.3996C136.155 31.3978 135.574 31.3885 134.992 31.3967ZM153.73 31.3967C153.11 31.4326 152.728 31.4504 152.28 31.9426C151.734 32.5439 151.771 33.4927 152.381 34.0344C152.823 34.4265 153.353 34.4159 153.908 34.4172H154.774C155.366 34.4003 155.736 34.41 156.19 33.9465C156.754 33.3703 156.651 32.3231 156.07 31.7961C155.627 31.3951 155.123 31.401 154.561 31.3977L153.73 31.3967ZM142.459 32.6399C142.059 32.64 141.736 32.9646 141.738 33.3645C141.741 33.7666 142.063 34.0966 142.465 34.0969C142.975 34.097 143.491 34.0917 143.994 34.092H147.604C148.005 34.092 148.33 33.7664 148.33 33.3654C148.33 32.9647 148.005 32.6399 147.604 32.6399H142.459ZM137.864 20.5666C136.843 22.6091 135.727 24.5883 134.683 26.6174C134.586 26.8058 134.476 27.0501 134.353 27.219H152.224L154.485 27.2209C154.895 27.2229 155.27 27.2545 155.682 27.219C154.987 25.9873 154.323 24.7484 153.66 23.4983L152.543 21.343C152.441 21.1486 152.201 20.7449 152.16 20.5666H137.864Z" fill="#A0A0A0"/>
<path d="M130.04 64L128.39 60.91H126.15L126.08 59.94H128.33L130.03 57H131.33L129.25 60.33L131.37 64H130.04ZM125.81 64V57H126.96V64H125.81ZM134.169 64.2C133.723 64.2 133.336 64.0833 133.009 63.85C132.683 63.6167 132.429 63.2967 132.249 62.89C132.069 62.4767 131.979 62 131.979 61.46C131.979 60.96 132.059 60.51 132.219 60.11C132.386 59.7033 132.626 59.3833 132.939 59.15C133.253 58.9167 133.636 58.8 134.089 58.8C134.723 58.8 135.203 59.03 135.529 59.49C135.863 59.95 136.029 60.6167 136.029 61.49C136.029 62.35 135.869 63.0167 135.549 63.49C135.236 63.9633 134.776 64.2 134.169 64.2ZM134.419 63.33C134.699 63.33 134.939 63.25 135.139 63.09C135.339 62.93 135.496 62.71 135.609 62.43C135.723 62.1433 135.779 61.8233 135.779 61.47C135.779 61.11 135.723 60.7967 135.609 60.53C135.496 60.2567 135.333 60.0467 135.119 59.9C134.913 59.7467 134.673 59.67 134.399 59.67C134.006 59.67 133.696 59.8267 133.469 60.14C133.243 60.4533 133.129 60.8867 133.129 61.44C133.129 62.02 133.246 62.48 133.479 62.82C133.713 63.16 134.026 63.33 134.419 63.33ZM135.779 64V59H136.929V64H135.779ZM139.716 59.85H138.016V59H142.556V59.85H140.866V64H139.716V59.85ZM145.38 64.2C144.933 64.2 144.547 64.0833 144.22 63.85C143.893 63.6167 143.64 63.2967 143.46 62.89C143.28 62.4767 143.19 62 143.19 61.46C143.19 60.96 143.27 60.51 143.43 60.11C143.597 59.7033 143.837 59.3833 144.15 59.15C144.463 58.9167 144.847 58.8 145.3 58.8C145.933 58.8 146.413 59.03 146.74 59.49C147.073 59.95 147.24 60.6167 147.24 61.49C147.24 62.35 147.08 63.0167 146.76 63.49C146.447 63.9633 145.987 64.2 145.38 64.2ZM145.63 63.33C145.91 63.33 146.15 63.25 146.35 63.09C146.55 62.93 146.707 62.71 146.82 62.43C146.933 62.1433 146.99 61.8233 146.99 61.47C146.99 61.11 146.933 60.7967 146.82 60.53C146.707 60.2567 146.543 60.0467 146.33 59.9C146.123 59.7467 145.883 59.67 145.61 59.67C145.217 59.67 144.907 59.8267 144.68 60.14C144.453 60.4533 144.34 60.8867 144.34 61.44C144.34 62.02 144.457 62.48 144.69 62.82C144.923 63.16 145.237 63.33 145.63 63.33ZM146.99 64V59H148.14V64H146.99ZM149.207 63.3C149.254 63.3067 149.297 63.3167 149.337 63.33C149.377 63.3367 149.421 63.34 149.467 63.34C149.647 63.34 149.777 63.2033 149.857 62.93C149.937 62.65 149.987 62.1933 150.007 61.56C150.034 60.9267 150.047 60.0733 150.047 59H154.037V64H152.887V59.95H151.187C151.187 60.8167 151.164 61.5267 151.117 62.08C151.077 62.6333 151.001 63.0633 150.887 63.37C150.774 63.6767 150.611 63.89 150.397 64.01C150.191 64.1367 149.914 64.2 149.567 64.2C149.481 64.2 149.387 64.1933 149.287 64.18C149.194 64.1667 149.104 64.1533 149.017 64.14L149.207 63.3ZM157.616 64.2C157.096 64.2 156.652 64.0933 156.286 63.88C155.926 63.6667 155.649 63.3567 155.456 62.95C155.262 62.5367 155.166 62.0367 155.166 61.45C155.166 60.8967 155.262 60.4233 155.456 60.03C155.649 59.63 155.929 59.3267 156.296 59.12C156.662 58.9067 157.102 58.8 157.616 58.8C158.449 58.8 159.079 59.0333 159.506 59.5C159.939 59.9667 160.156 60.6167 160.156 61.45C160.156 62.33 159.939 63.01 159.506 63.49C159.079 63.9633 158.449 64.2 157.616 64.2ZM157.626 63.32C158.092 63.32 158.439 63.17 158.666 62.87C158.892 62.5633 159.006 62.0967 159.006 61.47C159.006 60.87 158.892 60.42 158.666 60.12C158.439 59.82 158.099 59.67 157.646 59.67C157.192 59.67 156.856 59.8167 156.636 60.11C156.422 60.4033 156.316 60.8533 156.316 61.46C156.316 62.08 156.422 62.5467 156.636 62.86C156.856 63.1667 157.186 63.32 157.626 63.32ZM161.287 59H164.497V59.86H162.437V64H161.287V59Z" fill="#C0C0C0"/>
<path d="M230.042 30.2594C232.442 34.3472 236.3 37.6911 241.025 39.7711L244.692 36.5861C245.15 36.1889 245.808 36.0733 246.383 36.2322C248.25 36.7667 250.258 37.0556 252.333 37.0556C253.258 37.0556 254 37.6983 254 38.5V43.5556C254 44.3572 253.258 45 252.333 45C236.683 45 224 34.0078 224 20.4444C224 19.6428 224.75 19 225.667 19H231.5C232.425 19 233.167 19.6428 233.167 20.4444C233.167 22.2428 233.5 23.9833 234.117 25.6011C234.3 26.0994 234.167 26.67 233.708 27.0672L230.042 30.2594Z" fill="#A0A0A0"/>
<path d="M213.87 57H218.93V64H218.03V57.8H214.77V64H213.87V57ZM222.627 64.2C222.12 64.2 221.69 64.0933 221.337 63.88C220.984 63.6667 220.714 63.3567 220.527 62.95C220.347 62.5367 220.257 62.0367 220.257 61.45C220.257 60.8967 220.347 60.4233 220.527 60.03C220.714 59.63 220.984 59.3267 221.337 59.12C221.697 58.9067 222.13 58.8 222.637 58.8C223.457 58.8 224.074 59.0333 224.487 59.5C224.907 59.9667 225.117 60.6167 225.117 61.45C225.117 62.33 224.907 63.01 224.487 63.49C224.067 63.9633 223.447 64.2 222.627 64.2ZM222.647 63.5C223.18 63.5 223.574 63.3333 223.827 63C224.087 62.6667 224.217 62.1567 224.217 61.47C224.217 60.8167 224.087 60.3267 223.827 60C223.574 59.6667 223.187 59.5 222.667 59.5C222.154 59.5 221.774 59.66 221.527 59.98C221.28 60.2933 221.157 60.7833 221.157 61.45C221.157 62.13 221.28 62.6433 221.527 62.99C221.774 63.33 222.147 63.5 222.647 63.5ZM228.008 64.2C227.528 64.2 227.121 64.11 226.788 63.93C226.455 63.75 226.175 63.5 225.948 63.18L226.478 62.65C226.645 62.9367 226.845 63.15 227.078 63.29C227.318 63.43 227.611 63.5 227.958 63.5C228.325 63.5 228.628 63.42 228.868 63.26C229.115 63.1 229.238 62.8533 229.238 62.52C229.238 62.3 229.175 62.12 229.048 61.98C228.921 61.84 228.725 61.74 228.458 61.68C228.191 61.62 227.848 61.6033 227.428 61.63V61.04C228.008 61.0067 228.408 60.93 228.628 60.81C228.855 60.6833 228.968 60.4833 228.968 60.21C228.968 60.0033 228.921 59.85 228.828 59.75C228.741 59.65 228.628 59.5833 228.488 59.55C228.355 59.5167 228.218 59.5 228.078 59.5C227.711 59.5 227.408 59.57 227.168 59.71C226.935 59.8433 226.731 60.0167 226.558 60.23L226.028 59.7C226.235 59.4333 226.515 59.2167 226.868 59.05C227.228 58.8833 227.655 58.8 228.148 58.8C228.581 58.8 228.921 58.8633 229.168 58.99C229.421 59.1167 229.598 59.28 229.698 59.48C229.805 59.6733 229.858 59.88 229.858 60.1C229.858 60.4733 229.741 60.7633 229.508 60.97C229.281 61.17 228.951 61.27 228.518 61.27C228.858 61.27 229.148 61.32 229.388 61.42C229.628 61.5133 229.811 61.6533 229.938 61.84C230.065 62.02 230.128 62.2433 230.128 62.51C230.128 62.8167 230.045 63.1 229.878 63.36C229.718 63.6133 229.481 63.8167 229.168 63.97C228.855 64.1233 228.468 64.2 228.008 64.2ZM231.329 59H233.419C234.059 59 234.513 59.09 234.779 59.27C235.053 59.45 235.189 59.75 235.189 60.17C235.189 60.5167 235.096 60.7767 234.909 60.95C234.729 61.1233 234.416 61.2567 233.969 61.35C234.489 61.3767 234.873 61.4967 235.119 61.71C235.366 61.9233 235.489 62.2367 235.489 62.65C235.489 62.95 235.423 63.2 235.289 63.4C235.156 63.6 234.949 63.75 234.669 63.85C234.389 63.95 234.026 64 233.579 64H231.329V59ZM233.249 61.16C233.576 61.16 233.829 61.0967 234.009 60.97C234.196 60.8433 234.289 60.6533 234.289 60.4C234.289 60.1533 234.199 59.9767 234.019 59.87C233.846 59.7567 233.596 59.7 233.269 59.7H232.229V61.16H233.249ZM233.439 63.3C233.826 63.3 234.113 63.2333 234.299 63.1C234.493 62.9667 234.589 62.77 234.589 62.51C234.589 62.2433 234.493 62.0567 234.299 61.95C234.106 61.8367 233.816 61.78 233.429 61.78H232.229V63.3H233.439ZM238.721 64.2C238.214 64.2 237.784 64.0933 237.431 63.88C237.077 63.6667 236.807 63.3567 236.621 62.95C236.441 62.5367 236.351 62.0367 236.351 61.45C236.351 60.8967 236.441 60.4233 236.621 60.03C236.807 59.63 237.077 59.3267 237.431 59.12C237.791 58.9067 238.224 58.8 238.731 58.8C239.551 58.8 240.167 59.0333 240.581 59.5C241.001 59.9667 241.211 60.6167 241.211 61.45C241.211 62.33 241.001 63.01 240.581 63.49C240.161 63.9633 239.541 64.2 238.721 64.2ZM238.741 63.5C239.274 63.5 239.667 63.3333 239.921 63C240.181 62.6667 240.311 62.1567 240.311 61.47C240.311 60.8167 240.181 60.3267 239.921 60C239.667 59.6667 239.281 59.5 238.761 59.5C238.247 59.5 237.867 59.66 237.621 59.98C237.374 60.2933 237.251 60.7833 237.251 61.45C237.251 62.13 237.374 62.6433 237.621 62.99C237.867 63.33 238.241 63.5 238.741 63.5ZM242.472 59H243.372V61.05H245.902V59H246.802V64H245.902V61.85H243.372V64H242.472V59ZM248.4 59H249.3V62.73L252.01 59H252.89V64H251.99V60.26L249.27 64H248.4V59ZM255.873 59.7H254.113V59H258.523V59.7H256.773V64H255.873V59.7ZM259.747 59H260.647V63.3H261.807C262.187 63.3 262.447 63.2133 262.587 63.04C262.734 62.8667 262.807 62.6267 262.807 62.32C262.807 62.02 262.747 61.7833 262.627 61.61C262.514 61.4367 262.294 61.35 261.967 61.35H259.997V60.65H261.917C262.511 60.65 262.957 60.7933 263.257 61.08C263.557 61.3667 263.707 61.7667 263.707 62.28C263.707 62.8067 263.561 63.2267 263.267 63.54C262.981 63.8467 262.557 64 261.997 64H259.747V59Z" fill="#A0A0A0"/>
<path d="M333.215 33.296C329.628 33.4267 326.623 30.3339 326.504 26.3877C326.384 22.4414 329.196 19.1358 332.783 19.0041C336.371 18.8723 339.377 21.9654 339.496 25.9123C339.616 29.8593 336.803 33.1652 333.215 33.296Z" fill="#A0A0A0"/>
<path d="M340.492 44.9454L321.867 44.946C320.579 44.9472 319.908 45.3636 320.01 43.8608C320.352 38.8475 323.391 35.2993 327.431 33.2998C327.505 33.3359 328.165 33.857 328.303 33.9536C330.845 35.7294 334.292 35.86 336.985 34.3989C337.57 34.0817 338.022 33.7444 338.553 33.3592C342.735 34.9045 345.793 39.5329 345.998 44.2729C346.033 45.07 345.564 44.9468 344.993 44.9462L340.492 44.9454Z" fill="#A0A0A0"/>
<path d="M311.87 57H316.93V64H316.03V57.8H312.77V64H311.87V57ZM318.567 59H319.467V66H318.567V59ZM321.107 64.2C320.707 64.2 320.367 64.0733 320.087 63.82C319.814 63.5667 319.604 63.23 319.457 62.81C319.317 62.39 319.247 61.9367 319.247 61.45C319.247 60.9567 319.32 60.51 319.467 60.11C319.62 59.71 319.84 59.3933 320.127 59.16C320.414 58.92 320.76 58.8 321.167 58.8C321.654 58.8 322.06 58.9133 322.387 59.14C322.714 59.3667 322.96 59.68 323.127 60.08C323.3 60.4733 323.387 60.93 323.387 61.45C323.387 61.97 323.294 62.4367 323.107 62.85C322.927 63.2633 322.667 63.5933 322.327 63.84C321.987 64.08 321.58 64.2 321.107 64.2ZM321.017 63.5C321.47 63.5 321.827 63.3133 322.087 62.94C322.354 62.5667 322.487 62.0667 322.487 61.44C322.487 60.8267 322.357 60.35 322.097 60.01C321.844 59.67 321.487 59.5 321.027 59.5C320.727 59.5 320.457 59.5833 320.217 59.75C319.984 59.9167 319.8 60.1467 319.667 60.44C319.534 60.7267 319.467 61.0567 319.467 61.43C319.467 61.8167 319.53 62.1667 319.657 62.48C319.79 62.7933 319.974 63.0433 320.207 63.23C320.44 63.41 320.71 63.5 321.017 63.5ZM326.594 64.2C326.087 64.2 325.657 64.0933 325.304 63.88C324.95 63.6667 324.68 63.3567 324.494 62.95C324.314 62.5367 324.224 62.0367 324.224 61.45C324.224 60.8967 324.314 60.4233 324.494 60.03C324.68 59.63 324.95 59.3267 325.304 59.12C325.664 58.9067 326.097 58.8 326.604 58.8C327.424 58.8 328.04 59.0333 328.454 59.5C328.874 59.9667 329.084 60.6167 329.084 61.45C329.084 62.33 328.874 63.01 328.454 63.49C328.034 63.9633 327.414 64.2 326.594 64.2ZM326.614 63.5C327.147 63.5 327.54 63.3333 327.794 63C328.054 62.6667 328.184 62.1567 328.184 61.47C328.184 60.8167 328.054 60.3267 327.794 60C327.54 59.6667 327.154 59.5 326.634 59.5C326.12 59.5 325.74 59.66 325.494 59.98C325.247 60.2933 325.124 60.7833 325.124 61.45C325.124 62.13 325.247 62.6433 325.494 62.99C325.74 63.33 326.114 63.5 326.614 63.5ZM333.115 56.5H334.015V66H333.115V56.5ZM333.525 64C333.358 64.0667 333.178 64.1167 332.985 64.15C332.792 64.1833 332.588 64.2 332.375 64.2C331.622 64.2 331.035 63.9633 330.615 63.49C330.202 63.01 329.995 62.33 329.995 61.45C329.995 60.6167 330.198 59.9667 330.605 59.5C331.018 59.0333 331.605 58.8 332.365 58.8C332.572 58.8 332.765 58.8167 332.945 58.85C333.132 58.8833 333.302 58.93 333.455 58.99L333.305 59.73C333.165 59.6567 333.018 59.6033 332.865 59.57C332.712 59.53 332.552 59.51 332.385 59.51C331.878 59.51 331.502 59.67 331.255 59.99C331.015 60.3033 330.895 60.79 330.895 61.45C330.895 62.13 331.015 62.64 331.255 62.98C331.502 63.32 331.872 63.49 332.365 63.49C332.578 63.49 332.788 63.4633 332.995 63.41C333.202 63.35 333.388 63.2633 333.555 63.15L333.525 64ZM333.625 63.17C333.792 63.2767 333.975 63.3567 334.175 63.41C334.375 63.4633 334.578 63.49 334.785 63.49C335.278 63.49 335.645 63.32 335.885 62.98C336.132 62.64 336.255 62.13 336.255 61.45C336.255 60.79 336.132 60.3033 335.885 59.99C335.645 59.67 335.272 59.51 334.765 59.51C334.345 59.51 333.965 59.6267 333.625 59.86L333.655 59C333.815 58.94 333.988 58.8933 334.175 58.86C334.368 58.82 334.572 58.8 334.785 58.8C335.545 58.8 336.128 59.0333 336.535 59.5C336.948 59.9667 337.155 60.6167 337.155 61.45C337.155 62.33 336.945 63.01 336.525 63.49C336.112 63.9633 335.528 64.2 334.775 64.2C334.368 64.2 333.992 64.1367 333.645 64.01L333.625 63.17ZM338.402 59H339.302V62.73L342.012 59H342.892V64H341.992V60.26L339.272 64H338.402V59ZM344.065 63.47C344.119 63.4767 344.165 63.4833 344.205 63.49C344.245 63.4967 344.285 63.5 344.325 63.5C344.525 63.5 344.669 63.3567 344.755 63.07C344.849 62.7767 344.905 62.3033 344.925 61.65C344.945 60.99 344.955 60.1067 344.955 59H348.765V64H347.865V59.8H345.855C345.855 60.7 345.835 61.4367 345.795 62.01C345.755 62.5833 345.682 63.03 345.575 63.35C345.469 63.6633 345.312 63.8833 345.105 64.01C344.905 64.1367 344.639 64.2 344.305 64.2C344.259 64.2 344.199 64.1933 344.125 64.18C344.052 64.1733 343.979 64.1667 343.905 64.16L344.065 63.47ZM350.394 59H351.294V63.3H352.454C352.834 63.3 353.094 63.2133 353.234 63.04C353.38 62.8667 353.454 62.6267 353.454 62.32C353.454 62.02 353.394 61.7833 353.274 61.61C353.16 61.4367 352.94 61.35 352.614 61.35H350.644V60.65H352.564C353.157 60.65 353.604 60.7933 353.904 61.08C354.204 61.3667 354.354 61.7667 354.354 62.28C354.354 62.8067 354.207 63.2267 353.914 63.54C353.627 63.8467 353.204 64 352.644 64H350.394V59Z" fill="#A0A0A0"/>
</svg>
