<svg width="24" height="24" viewBox="0 0 24 24" fill="none" xmlns="http://www.w3.org/2000/svg">
<rect width="24" height="24" rx="2" fill="#F3E4E2"/>
<path d="M15.5 9C15.5 8.86739 15.5527 8.74021 15.6464 8.64645C15.7402 8.55268 15.8674 8.5 16 8.5H17.5C17.6326 8.5 17.7598 8.55268 17.8536 8.64645C17.9473 8.74021 18 8.86739 18 9C18 9.13261 17.9473 9.25979 17.8536 9.35355C17.7598 9.44732 17.6326 9.5 17.5 9.5H16C15.8674 9.5 15.7402 9.44732 15.6464 9.35355C15.5527 9.25979 15.5 9.13261 15.5 9ZM6.5 9.5H12.5V10.5C12.5 10.6326 12.5527 10.7598 12.6464 10.8536C12.7402 10.9473 12.8674 11 13 11H14C14.1326 11 14.2598 10.9473 14.3536 10.8536C14.4473 10.7598 14.5 10.6326 14.5 10.5V7.5C14.5 7.36739 14.4473 7.24021 14.3536 7.14645C14.2598 7.05268 14.1326 7 14 7H13C12.8674 7 12.7402 7.05268 12.6464 7.14645C12.5527 7.24021 12.5 7.36739 12.5 7.5V8.5H6.5C6.36739 8.5 6.24021 8.55268 6.14645 8.64645C6.05268 8.74021 6 8.86739 6 9C6 9.13261 6.05268 9.25979 6.14645 9.35355C6.24021 9.44732 6.36739 9.5 6.5 9.5ZM17.5 14.5H12C11.8674 14.5 11.7402 14.5527 11.6464 14.6464C11.5527 14.7402 11.5 14.8674 11.5 15C11.5 15.1326 11.5527 15.2598 11.6464 15.3536C11.7402 15.4473 11.8674 15.5 12 15.5H17.5C17.6326 15.5 17.7598 15.4473 17.8536 15.3536C17.9473 15.2598 18 15.1326 18 15C18 14.8674 17.9473 14.7402 17.8536 14.6464C17.7598 14.5527 17.6326 14.5 17.5 14.5ZM10 13H9C8.86739 13 8.74021 13.0527 8.64645 13.1464C8.55268 13.2402 8.5 13.3674 8.5 13.5V14.5H6.5C6.36739 14.5 6.24021 14.5527 6.14645 14.6464C6.05268 14.7402 6 14.8674 6 15C6 15.1326 6.05268 15.2598 6.14645 15.3536C6.24021 15.4473 6.36739 15.5 6.5 15.5H8.5V16.5C8.5 16.6326 8.55268 16.7598 8.64645 16.8536C8.74021 16.9473 8.86739 17 9 17H10C10.1326 17 10.2598 16.9473 10.3536 16.8536C10.4473 16.7598 10.5 16.6326 10.5 16.5V13.5C10.5 13.3674 10.4473 13.2402 10.3536 13.1464C10.2598 13.0527 10.1326 13 10 13Z" fill="#DB4431"/>
</svg>
