<svg width="24" height="24" viewBox="0 0 24 24" fill="none" xmlns="http://www.w3.org/2000/svg">
<rect width="24" height="24" rx="2" fill="#F3E4E2"/>
<path d="M15.75 6.9375H9.375C8.92745 6.9375 8.49822 7.11529 8.18176 7.43176C7.86529 7.74822 7.6875 8.17745 7.6875 8.625V16.5C7.6875 16.6492 7.74676 16.7923 7.85225 16.8977C7.95774 17.0032 8.10082 17.0625 8.25 17.0625H15C15.1492 17.0625 15.2923 17.0032 15.3977 16.8977C15.5032 16.7923 15.5625 16.6492 15.5625 16.5C15.5625 16.3508 15.5032 16.2077 15.3977 16.1023C15.2923 15.9968 15.1492 15.9375 15 15.9375H8.8125V15.75C8.8125 15.6008 8.87176 15.4577 8.97725 15.3523C9.08274 15.2468 9.22582 15.1875 9.375 15.1875H15.75C15.8992 15.1875 16.0423 15.1282 16.1477 15.0227C16.2532 14.9173 16.3125 14.7742 16.3125 14.625V7.5C16.3125 7.35082 16.2532 7.20774 16.1477 7.10225C16.0423 6.99676 15.8992 6.9375 15.75 6.9375ZM15.1875 14.0625H9.375C9.18335 14.0621 8.99306 14.0948 8.8125 14.1591V8.625C8.8125 8.47582 8.87176 8.33274 8.97725 8.22725C9.08274 8.12176 9.22582 8.0625 9.375 8.0625H15.1875V14.0625Z" fill="#DB4431"/>
</svg>
