<svg width="24" height="24" viewBox="0 0 24 24" fill="none" xmlns="http://www.w3.org/2000/svg">
<rect width="24" height="24" rx="2" fill="#F3E4E2"/>
<path d="M12 6.51562C10.9153 6.51562 9.85495 6.83728 8.95305 7.43991C8.05115 8.04254 7.3482 8.89908 6.9331 9.90122C6.518 10.9034 6.40939 12.0061 6.62101 13.0699C6.83262 14.1338 7.35496 15.111 8.12196 15.878C8.88897 16.645 9.86619 17.1674 10.9301 17.379C11.9939 17.5906 13.0966 17.482 14.0988 17.0669C15.1009 16.6518 15.9575 15.9489 16.5601 15.047C17.1627 14.1451 17.4844 13.0847 17.4844 12C17.4828 10.5459 16.9044 9.15191 15.8763 8.12374C14.8481 7.09557 13.4541 6.51724 12 6.51562ZM12 16.2656C11.1563 16.2656 10.3316 16.0154 9.63015 15.5467C8.92867 15.078 8.38193 14.4118 8.05908 13.6324C7.73622 12.8529 7.65175 11.9953 7.81634 11.1678C7.98093 10.3404 8.38719 9.58031 8.98375 8.98375C9.58031 8.38719 10.3404 7.98093 11.1678 7.81634C11.9953 7.65175 12.8529 7.73622 13.6324 8.05908C14.4118 8.38193 15.078 8.92867 15.5467 9.63015C16.0155 10.3316 16.2656 11.1563 16.2656 12C16.2644 13.1309 15.8146 14.2152 15.0149 15.0149C14.2152 15.8146 13.1309 16.2644 12 16.2656ZM15.4531 12C15.4531 12.1616 15.3889 12.3166 15.2746 12.4309C15.1604 12.5452 15.0054 12.6094 14.8438 12.6094H13.4727L14.4639 13.6001C14.5784 13.7146 14.6427 13.8699 14.6427 14.0318C14.6427 14.1937 14.5784 14.3489 14.4639 14.4634C14.3494 14.5779 14.1942 14.6422 14.0323 14.6422C13.8704 14.6422 13.7151 14.5779 13.6006 14.4634L11.5694 12.4321C11.4837 12.347 11.4253 12.2383 11.4016 12.1199C11.3778 12.0016 11.3897 11.8788 11.4359 11.7672C11.482 11.6556 11.5603 11.5602 11.6607 11.4932C11.7611 11.4261 11.8792 11.3904 12 11.3906H14.8438C15.0054 11.3906 15.1604 11.4548 15.2746 11.5691C15.3889 11.6834 15.4531 11.8384 15.4531 12Z" fill="#DB4431"/>
</svg>
