<svg width="18" height="18" viewBox="0 0 18 18" fill="none" xmlns="http://www.w3.org/2000/svg">
<path d="M11.847 14.0281C12.0055 14.1866 12.0945 14.4016 12.0945 14.6257C12.0945 14.8499 12.0055 15.0649 11.847 15.2234C11.6885 15.3819 11.4735 15.4709 11.2493 15.4709C11.0252 15.4709 10.8102 15.3819 10.6517 15.2234L5.02667 9.59839C4.94801 9.52 4.8856 9.42686 4.84301 9.3243C4.80042 9.22174 4.7785 9.11178 4.7785 9.00073C4.7785 8.88968 4.80042 8.77972 4.84301 8.67717C4.8856 8.57461 4.94801 8.48146 5.02667 8.40307L10.6517 2.77807C10.8102 2.61957 11.0252 2.53052 11.2493 2.53052C11.4735 2.53052 11.6885 2.61957 11.847 2.77808C12.0055 2.93658 12.0945 3.15157 12.0945 3.37573C12.0945 3.5999 12.0055 3.81488 11.847 3.97339L6.82034 9.00003L11.847 14.0281Z" fill="#DB4431"/>
</svg>
