<svg width="12" height="12" viewBox="0 0 12 12" fill="none" xmlns="http://www.w3.org/2000/svg">
<path d="M8.44875 6.19857L4.69875 9.94857C4.64544 9.99825 4.57492 10.0253 4.50206 10.024C4.42919 10.0227 4.35968 9.99321 4.30815 9.94168C4.25662 9.89015 4.2271 9.82063 4.22581 9.74777C4.22453 9.6749 4.25157 9.60439 4.30125 9.55107L7.85203 5.99982L4.30125 2.44857C4.25157 2.39525 4.22453 2.32474 4.22581 2.25187C4.2271 2.17901 4.25662 2.10949 4.30815 2.05796C4.35968 2.00643 4.42919 1.97692 4.50206 1.97563C4.57492 1.97434 4.64544 2.00139 4.69875 2.05107L8.44875 5.80107C8.50142 5.85381 8.53101 5.92529 8.53101 5.99982C8.53101 6.07435 8.50142 6.14584 8.44875 6.19857Z" fill="black" fill-opacity="0.32"/>
</svg>
