<svg width="33" height="33" viewBox="0 0 33 33" fill="none" xmlns="http://www.w3.org/2000/svg">
<path d="M0 23.5C0 24.3284 0.671573 25 1.5 25H31.5C32.3284 25 33 24.3284 33 23.5C33 22.6716 32.3284 22 31.5 22H1.5C0.671573 22 0 22.6716 0 23.5ZM0 16.5C0 17.3284 0.671573 18 1.5 18H31.5C32.3284 18 33 17.3284 33 16.5C33 15.6716 32.3284 15 31.5 15H1.5C0.671573 15 0 15.6716 0 16.5ZM1.5 8C0.671573 8 0 8.67157 0 9.5C0 10.3284 0.671573 11 1.5 11H31.5C32.3284 11 33 10.3284 33 9.5C33 8.67157 32.3284 8 31.5 8H1.5Z" fill="#DB4431"/>
</svg>
