<svg width="8" height="8" viewBox="0 0 8 8" fill="none" xmlns="http://www.w3.org/2000/svg">
<path d="M4.87688 3.98425L7.79898 1.06214C7.91055 0.942414 7.97128 0.78406 7.96839 0.620438C7.96551 0.456816 7.89922 0.300702 7.78351 0.184986C7.66779 0.0692697 7.51168 0.00298532 7.34805 9.83965e-05C7.18443 -0.00278852 7.02608 0.0579474 6.90635 0.16951L3.98425 3.09161L1.06214 0.16951C0.942414 0.0579474 0.78406 -0.00278852 0.620438 9.83965e-05C0.456816 0.00298532 0.300702 0.0692697 0.184986 0.184986C0.0692697 0.300702 0.00298532 0.456816 9.83965e-05 0.620438C-0.00278852 0.78406 0.0579474 0.942414 0.16951 1.06214L3.09161 3.98425L0.16951 6.90635C0.0579474 7.02608 -0.00278852 7.18443 9.83965e-05 7.34805C0.00298532 7.51168 0.0692697 7.66779 0.184986 7.78351C0.300702 7.89922 0.456816 7.96551 0.620438 7.96839C0.78406 7.97128 0.942414 7.91055 1.06214 7.79898L3.98425 4.87688L6.90635 7.79898C6.96417 7.86104 7.0339 7.91081 7.11137 7.94533C7.18884 7.97985 7.27248 7.99841 7.35728 7.9999C7.44208 8.0014 7.52632 7.9858 7.60496 7.95403C7.6836 7.92227 7.75504 7.87499 7.81502 7.81502C7.87499 7.75504 7.92227 7.6836 7.95403 7.60496C7.9858 7.52632 8.0014 7.44208 7.9999 7.35728C7.99841 7.27248 7.97985 7.18884 7.94533 7.11137C7.91081 7.0339 7.86104 6.96417 7.79898 6.90635L4.87688 3.98425Z" fill="#807E7E"/>
</svg>
