<svg width="32" height="32" viewBox="0 0 32 32" fill="none" xmlns="http://www.w3.org/2000/svg">
<path d="M15.2929 22.7071L5.29292 12.7071C5.20001 12.6142 5.12631 12.5039 5.07603 12.3825C5.02574 12.2611 4.99986 12.131 4.99986 11.9996C4.99986 11.8682 5.02574 11.7381 5.07603 11.6167C5.12631 11.4953 5.20001 11.385 5.29292 11.2921C5.38583 11.1992 5.49613 11.1255 5.61752 11.0752C5.73892 11.0249 5.86902 10.999 6.00042 10.999C6.13181 10.999 6.26192 11.0249 6.38332 11.0752C6.50471 11.1255 6.61501 11.1992 6.70792 11.2921L16.0004 20.5858L25.2929 11.2921C25.4806 11.1044 25.7351 10.999 26.0004 10.999C26.2658 10.999 26.5203 11.1044 26.7079 11.2921C26.8956 11.4797 27.001 11.7342 27.001 11.9996C27.001 12.2649 26.8956 12.5194 26.7079 12.7071L16.7079 22.7071C16.615 22.8001 16.5048 22.8738 16.3834 22.9241C16.262 22.9745 16.1318 23.0004 16.0004 23.0004C15.869 23.0004 15.7389 22.9745 15.6175 22.9241C15.4961 22.8738 15.3858 22.8001 15.2929 22.7071Z" fill="#343330"/>
</svg>
