<svg width="16" height="16" viewBox="0 0 16 16" fill="none" xmlns="http://www.w3.org/2000/svg">
<path d="M14.3538 13.6464L11.2244 10.5176C12.1314 9.42871 12.5837 8.03201 12.4872 6.6181C12.3906 5.20419 11.7527 3.88193 10.7061 2.92637C9.65951 1.97082 8.2848 1.45555 6.86796 1.48775C5.45113 1.51995 4.10125 2.09714 3.09913 3.09926C2.09702 4.10137 1.51983 5.45125 1.48763 6.86808C1.45543 8.28492 1.9707 9.65963 2.92625 10.7062C3.88181 11.7528 5.20407 12.3908 6.61798 12.4873C8.03189 12.5838 9.42859 12.1315 10.5175 11.2245L13.6463 14.3539C13.6927 14.4003 13.7479 14.4372 13.8086 14.4623C13.8693 14.4875 13.9343 14.5004 14 14.5004C14.0657 14.5004 14.1308 14.4875 14.1915 14.4623C14.2522 14.4372 14.3073 14.4003 14.3538 14.3539C14.4002 14.3074 14.4371 14.2523 14.4622 14.1916C14.4874 14.1309 14.5003 14.0658 14.5003 14.0001C14.5003 13.9344 14.4874 13.8694 14.4622 13.8087C14.4371 13.748 14.4002 13.6928 14.3538 13.6464ZM2.50002 7.00014C2.50002 6.11013 2.76394 5.2401 3.25841 4.50008C3.75287 3.76006 4.45568 3.18328 5.27795 2.84268C6.10021 2.50209 7.00501 2.41298 7.87793 2.58661C8.75084 2.76024 9.55266 3.18883 10.182 3.81816C10.8113 4.4475 11.2399 5.24932 11.4136 6.12224C11.5872 6.99515 11.4981 7.89995 11.1575 8.72222C10.8169 9.54449 10.2401 10.2473 9.50009 10.7418C8.76007 11.2362 7.89004 11.5001 7.00002 11.5001C5.80695 11.4988 4.66313 11.0243 3.8195 10.1807C2.97587 9.33704 2.50134 8.19321 2.50002 7.00014Z" fill="#A0A0A0"/>
</svg>
