<svg width="12" height="12" viewBox="0 0 12 12" fill="none" xmlns="http://www.w3.org/2000/svg">
<path d="M5.29504 8.88661C5.34575 8.93727 5.38598 8.99742 5.41343 9.06363C5.44087 9.12985 5.455 9.20082 5.455 9.27249C5.455 9.34417 5.44087 9.41514 5.41343 9.48136C5.38598 9.54757 5.34575 9.60772 5.29504 9.65838L3.11333 11.84C3.06267 11.8907 3.00252 11.931 2.9363 11.9584C2.87009 11.9859 2.79912 12 2.72744 12C2.65576 12 2.58479 11.9859 2.51857 11.9584C2.45236 11.931 2.3922 11.8907 2.34155 11.84L0.159841 9.65838C0.109165 9.6077 0.0689668 9.54754 0.0415412 9.48133C0.0141157 9.41512 0 9.34416 0 9.27249C0 9.20083 0.0141157 9.12987 0.0415412 9.06366C0.0689668 8.99745 0.109165 8.93729 0.159841 8.88661C0.262185 8.78427 0.400994 8.72677 0.54573 8.72677C0.617396 8.72677 0.688361 8.74089 0.754572 8.76832C0.820783 8.79574 0.880944 8.83594 0.93162 8.88661L2.18201 10.1377V0.545845C2.18201 0.401191 2.23948 0.262463 2.34176 0.160178C2.44405 0.0578925 2.58278 0.000429123 2.72744 0.000429123C2.87209 0.000429123 3.01083 0.0578925 3.11311 0.160178C3.2154 0.262463 3.27286 0.401191 3.27286 0.545845V10.1377L4.52326 8.88661C4.57391 8.8359 4.63407 8.79567 4.70028 8.76822C4.76649 8.74078 4.83747 8.72665 4.90915 8.72665C4.98082 8.72665 5.0518 8.74078 5.11801 8.76822C5.18423 8.79567 5.24438 8.8359 5.29504 8.88661ZM11.8402 2.34163L9.65845 0.159963C9.6078 0.109252 9.54764 0.0690231 9.48143 0.0415755C9.41521 0.0141278 9.34424 0 9.27256 0C9.20088 0 9.12991 0.0141278 9.06369 0.0415755C8.99748 0.0690231 8.93733 0.109252 8.88667 0.159963L6.70496 2.34163C6.60262 2.44397 6.54512 2.58277 6.54512 2.72751C6.54512 2.87224 6.60262 3.01105 6.70496 3.11339C6.80731 3.21573 6.94612 3.27323 7.09085 3.27323C7.23559 3.27323 7.3744 3.21573 7.47674 3.11339L8.72713 1.86234V11.4542C8.72713 11.5988 8.7846 11.7375 8.88689 11.8398C8.98917 11.9421 9.1279 11.9996 9.27256 11.9996C9.41722 11.9996 9.55595 11.9421 9.65824 11.8398C9.76052 11.7375 9.81799 11.5988 9.81799 11.4542V1.86234L11.0684 3.11339C11.1707 3.21573 11.3095 3.27323 11.4543 3.27323C11.599 3.27323 11.7378 3.21573 11.8402 3.11339C11.9425 3.01105 12 2.87224 12 2.72751C12 2.58277 11.9425 2.44397 11.8402 2.34163Z" fill="#8B8B8B"/>
</svg>
