<svg width="26" height="26" viewBox="0 0 26 26" fill="none" xmlns="http://www.w3.org/2000/svg">
<path d="M13.2152 14.296C9.62767 14.4267 6.62296 11.3339 6.50366 7.38765C6.38436 3.44137 9.19564 0.135799 12.7832 0.00405821C16.3713 -0.127705 19.377 2.96539 19.4963 6.91234C19.6157 10.8593 16.8034 14.1652 13.2152 14.296Z" fill="#DB4431"/>
<path d="M20.4919 25.9454L1.8669 25.946C0.579307 25.9472 -0.0921889 26.3636 0.0102075 24.8608C0.351782 19.8475 3.3913 16.2993 7.4307 14.2998C7.50498 14.3359 8.16489 14.857 8.30313 14.9536C10.8447 16.7294 14.2921 16.86 16.9851 15.3989C17.5697 15.0817 18.0218 14.7444 18.5535 14.3592C22.7352 15.9045 25.793 20.5329 25.9982 25.2729C26.0327 26.07 25.5643 25.9468 24.9925 25.9462L20.4919 25.9454Z" fill="#DB4431"/>
</svg>
