<svg width="311" height="149" viewBox="0 0 311 149" fill="none" xmlns="http://www.w3.org/2000/svg">
<g clip-path="url(#clip0_526_2870)">
<path d="M0 0H311V76.1875V86.4973V149H0V104.023V100.101V0Z" fill="#F7F7F7"/>
<path d="M0 -133.278H311V26.3978C310.165 24.5135 309.831 20.2105 309.415 18.0459C308.583 13.8628 307.392 9.75894 305.861 5.78013C304.85 3.15749 303.661 0.176511 302.398 -2.31592C296.114 -14.4987 286.671 -24.7521 275.066 -31.9942C269.371 -35.5354 262.759 -38.7067 256.553 -41.2943C207.734 -61.6503 156.366 -92.4374 102.438 -70.3874C93.0519 -66.4488 84.2528 -61.227 76.2898 -54.8704C54.7245 -37.6552 35.9312 -10.2238 23.336 14.1936C18.7168 23.3363 14.4481 32.6531 10.539 42.1239C6.69434 51.3203 3.10226 61.1031 1.286 70.92C1.06289 72.1258 0.534444 75.788 0 76.516V-133.278Z" fill="#F7F7F7"/>
<path d="M311 179H0M60.3529 103.178C60.1545 104.803 61.1167 108.233 61.7691 109.794C66.4948 121.107 81.301 125.153 90.9384 117.417C94.5447 114.522 95.9041 111.844 97.6553 107.695" stroke="#010000" stroke-width="0.5"/>
<path d="M24.174 122.66L294.668 122.671C296.718 122.675 309.53 122.529 309.968 122.969C309.239 123.591 303.499 123.331 302.195 123.332L287.083 123.35L89.6437 123.357L27.4121 123.336L9.21741 123.344C8.11883 123.344 1.66127 123.558 1.24463 123.012C2.59032 122.465 21.1374 122.668 24.174 122.66Z" fill="#010000"/>
<path d="M46.4559 99.8912C43.8142 98.4832 42.1757 97.031 41.3056 93.9558C40.4339 90.8748 40.2571 87.6703 40.2259 84.4749C40.1818 80.0048 40.296 75.1712 42.2039 71.0253C43.6384 67.9083 48.1652 66.9559 51.0699 65.794C54.7083 64.4495 58.433 63.1775 61.9871 61.5865C64.6625 60.3609 67.7473 58.4744 70.2917 56.9603C81.5121 50.2835 89.0329 44.0568 101.854 40.275C105.347 39.2354 108.937 38.5587 112.568 38.2556C116.217 37.9503 120.299 38.0412 124.003 38.0412L141.27 38.058L154.779 38.0415C161.884 38.0568 165.555 37.7854 171.97 41.426C185.856 49.3055 199.397 57.6952 213.051 65.9624C224.038 66.2701 235.683 67.9824 246.452 70.033C253.236 71.3248 260.045 72.8038 265.71 76.9488C266.51 77.5319 267.869 77.9652 268.549 78.8585C273.583 85.459 269.604 93.7374 266.952 100.04C265.972 102.343 264.399 105.753 263.641 108.043C259.303 107.873 251.954 107.822 247.633 107.991C245.598 113.312 242.669 117.236 237.32 119.603C227.734 123.844 216.516 119.656 212.337 109.926C211.574 108.158 211.26 106.501 210.855 104.646C210.639 105.634 210.526 107.587 209.968 108.016C208.503 108.254 201.657 108.112 199.679 108.117L175.011 108.138L126.431 108.128C117.857 108.143 109.269 108.266 100.691 108.2C99.698 108.192 98.6113 107.974 97.6552 107.695C95.904 111.845 94.5446 114.522 90.9384 117.417C81.301 125.153 66.4948 121.107 61.769 109.794C61.1166 108.233 60.1545 104.803 60.3528 103.179C54.8301 101.912 52.2492 102.095 46.4559 99.8912Z" fill="#010000"/>
<path d="M60.3528 103.179C60.8652 102.679 60.8786 101.228 60.9824 100.465C61.1877 98.8449 61.5546 97.2494 62.0776 95.7026C64.5495 88.4388 71.9273 83.4451 79.5368 83.5039C90.7941 83.5905 99.5024 94.8887 97.1966 105.78C96.9771 106.816 97.1025 106.805 97.6553 107.695C95.9041 111.845 94.5446 114.522 90.9384 117.417C81.301 125.153 66.4948 121.108 61.769 109.794C61.1167 108.233 60.1545 104.803 60.3528 103.179Z" fill="#D9D9D9"/>
<path d="M77.8072 88.343C85.4759 87.5885 92.3031 93.2162 93.0593 100.916C93.8156 108.616 88.2148 115.475 80.547 116.239C72.8722 117.004 66.0345 111.374 65.2776 103.667C64.5208 95.9605 70.1315 89.0983 77.8072 88.343Z" fill="#F7F7F7"/>
<path d="M77.9896 95.6166C81.6478 94.9707 85.132 97.4332 85.7607 101.109C86.3896 104.784 83.9235 108.273 80.2604 108.89C76.6177 109.504 73.1667 107.044 72.5413 103.389C71.9157 99.7338 74.3517 96.2588 77.9896 95.6166Z" fill="#010000"/>
<path d="M78.002 96.2419C81.2894 95.5884 84.4832 97.7295 85.1426 101.029C85.8016 104.328 83.6772 107.54 80.3931 108.21C77.0976 108.882 73.8846 106.74 73.2231 103.429C72.5619 100.119 74.7031 96.8979 78.002 96.2419Z" fill="#F7F7F7"/>
<path d="M78.1974 66.1904L169.904 66.2243L193.64 66.3027C202.527 66.3112 211.175 66.2853 220.054 67.0587C220.031 72.0472 219.87 78.1122 220.118 83.0361C213.473 87.2216 210.027 90.7064 208.85 98.883C208.456 101.556 208.252 104.765 208.015 107.492L100.705 107.574C100.922 105.786 101.093 103.717 101.068 101.937C100.973 96.0432 98.5169 90.4359 94.2543 86.383C89.032 81.3521 83.4987 80.0447 76.5598 80.2082C76.5395 75.4764 75.7604 70.3306 78.1974 66.1904Z" fill="#F7F7F7"/>
<path d="M119.693 100.542C121.305 100.449 123.525 100.513 125.206 100.509L135.883 100.499L167.624 100.491L184.029 100.495C185.738 100.499 187.87 100.417 189.573 100.55C189.904 100.576 189.861 100.674 190.09 101.016C188.335 101.184 184.709 101.084 182.864 101.085L169.528 101.096L132.027 101.117C130.644 101.117 120.662 101.277 119.867 101.014L119.693 100.542Z" fill="#010000"/>
<path d="M139.381 71.582C140.034 72.2075 144.36 92.333 144.985 94.7909C145.166 95.5039 145.401 96.5484 144.966 97.2135C144.43 96.5722 143.983 93.7806 143.773 92.8496L141.655 83.5831L139.827 75.8972C139.563 74.7957 139.278 73.6307 139.027 72.5213C138.914 72.0242 139.089 71.9635 139.381 71.582Z" fill="#010000"/>
<path d="M99.8224 72.2646C101.41 72.1058 103.346 72.1927 104.967 72.1728C106.218 72.1573 108.907 71.8575 109.575 72.9981C109.568 73.5427 109.484 73.5644 109.155 73.9992C107.689 74.2402 101.965 74.1255 100.15 73.9813C99.8254 73.9553 99.659 73.6424 99.4953 73.3945C99.4537 72.8169 99.5317 72.7547 99.8224 72.2646Z" fill="#F7F7F7"/>
<path d="M154.412 72.1286C156.466 71.9295 159.691 72.0795 161.807 72.0588C162.485 72.0521 163.049 72.25 163.471 72.7864C163.543 73.3183 163.428 73.4207 163.161 73.8864C160.793 73.9889 158.282 73.9315 155.904 73.9492C155.119 73.955 154.438 73.8175 154.015 73.1334C154.058 72.4979 154.025 72.7147 154.412 72.1286Z" fill="#F7F7F7"/>
<path d="M220.684 67.0745C231.797 68.3117 255.281 70.4525 264.194 76.7347C260.651 76.3961 253.645 75.4444 250.322 77.2516C248.969 77.9871 249.796 80.2966 250.698 81.0306C254.573 84.8694 260.923 87.8766 266.33 88.4966C271.373 89.0748 267.693 80.2036 267.047 78.3113C269.1 79.9764 269.97 82.3053 270.234 84.8828C270.417 86.6891 270.307 88.5131 269.906 90.2837C269.253 93.2274 267.235 97.7042 266.019 100.558C265.159 102.579 264.018 105.41 263.079 107.352L247.804 107.33C248.499 103.966 248.641 98.1885 246.765 95.2743C249.964 103.285 247.228 112.453 240.169 117.377C233.109 122.301 223.598 121.676 217.238 115.871C210.878 110.065 209.355 100.618 213.566 93.0936C211.19 96.3484 210.959 101.034 210.258 104.872C210.11 105.681 210.189 107.074 209.495 107.506C208.923 107.5 208.978 107.6 208.647 107.305C208.611 105.651 208.875 104.057 209.005 102.396C209.455 96.7046 210.453 92.3126 214.49 88.066C226.131 75.8176 246.298 81.6527 249.864 98.1043C249.984 98.6551 250.143 100.541 250.667 100.733C251.057 100.139 250.751 99.0598 250.636 98.3709C248.785 87.2173 236.904 78.8822 225.857 81.2084C224.095 81.5795 222.497 82.1983 220.816 82.8838C220.516 77.9344 220.72 72.0996 220.684 67.0745Z" fill="#D9D9D9"/>
<path d="M220.684 67.0745C231.797 68.3117 255.281 70.4525 264.194 76.7347C260.651 76.3961 253.645 75.4444 250.322 77.2516C248.969 77.9871 249.796 80.2966 250.698 81.0306C254.573 84.8694 260.923 87.8766 266.33 88.4966C271.373 89.0748 267.693 80.2036 267.047 78.3113C269.1 79.9764 269.97 82.3053 270.234 84.8828C270.417 86.6891 270.307 88.5131 269.906 90.2837C269.253 93.2274 267.235 97.7042 266.019 100.558C265.159 102.579 264.018 105.41 263.079 107.352L247.804 107.33C248.499 103.966 248.641 98.1885 246.765 95.2743C244.123 88.6579 237.934 84.1509 230.849 83.6856C223.765 83.2202 217.043 86.8788 213.566 93.0936C211.19 96.3484 210.959 101.034 210.258 104.872C210.11 105.681 210.189 107.074 209.495 107.506C208.923 107.5 208.978 107.6 208.647 107.305C208.611 105.651 208.875 104.057 209.005 102.396C209.455 96.7046 210.453 92.3126 214.49 88.066C226.131 75.8176 246.298 81.6527 249.864 98.1043C249.984 98.6551 250.143 100.541 250.667 100.733C251.057 100.139 250.751 99.0598 250.636 98.3709C248.785 87.2173 236.904 78.8822 225.857 81.2084C224.095 81.5795 222.497 82.1983 220.816 82.8838C220.516 77.9344 220.72 72.0996 220.684 67.0745Z" fill="#F7F7F7"/>
<path d="M228.822 88.7669C236.317 88.2646 242.794 93.9655 243.28 101.492C243.766 109.017 238.077 115.511 230.581 115.985C223.105 116.458 216.658 110.764 216.173 103.257C215.688 95.7511 221.348 89.2679 228.822 88.7669Z" fill="#F7F7F7"/>
<path d="M228.71 95.4387C232.422 94.8831 235.882 97.4475 236.446 101.173C237.011 104.898 234.467 108.379 230.759 108.957C227.035 109.538 223.55 106.97 222.983 103.229C222.416 99.4885 224.983 95.9968 228.71 95.4387Z" fill="#010000"/>
<path d="M228.937 96.082C232.316 95.6355 235.411 98.0383 235.832 101.435C236.252 104.831 233.837 107.921 230.451 108.319C227.1 108.712 224.061 106.317 223.645 102.955C223.228 99.5933 225.592 96.5242 228.937 96.082Z" fill="#F7F7F7"/>
<path d="M119.392 41.2319C125.771 41.184 132.149 41.1819 138.527 41.2258L138.516 65.4972L98.4406 65.5136L78.6763 65.5234C80.593 62.3695 84.1649 58.0614 86.7128 55.3826C88.3659 53.6443 91.7632 50.4792 93.7097 49.1251C99.1765 45.322 106.424 42.4654 113.007 41.5356C114.96 41.2596 117.416 41.2633 119.392 41.2319Z" fill="#F7F7F7"/>
<path d="M139.193 41.2083C143.039 41.0939 147.225 41.2031 151.123 41.1778C153.955 41.4708 160.132 40.6639 162.697 41.6157C168.581 43.7986 176.579 49.0793 181.782 52.3326L193.533 59.5848L199.672 63.4074C200.602 63.9799 202.483 65.0378 203.232 65.7017L139.261 65.5714C139.081 57.9072 139.084 48.8411 139.193 41.2083Z" fill="#F7F7F7"/>
<path d="M56.4005 66.848L68.599 66.7983C71.3172 66.7922 74.3798 66.7123 77.0622 66.9639C75.2017 71.5197 75.8295 75.5485 75.9285 80.4251C72.8133 80.7621 68.7852 82.629 66.3661 84.5768C60.9358 88.9496 57.9582 95.1714 57.0862 101.965C55.0808 101.615 53.2513 101.282 51.268 100.829C48.6011 100.125 46.0564 99.4085 43.9939 97.4217C40.5434 94.0976 40.8076 85.7503 40.8644 81.0926C46.0518 80.2305 51.2447 76.8461 55.3405 73.6321C56.3263 72.8588 58.2619 71.3983 58.3023 70.0391C58.3132 69.6671 58.1368 69.3392 57.8728 69.0873C56.7673 68.0312 48.3679 68.1929 46.412 68.0858C50.3089 66.7129 52.3089 66.8934 56.4005 66.848Z" fill="#F7F7F7"/>
<path d="M113.9 38.7952C116.144 38.5924 119.515 38.6821 121.839 38.6839L134.927 38.6998L151.86 38.7129C155.2 38.7159 163.005 38.4015 165.901 39.4682C172.053 41.7341 178.69 46.0944 184.414 49.5304C193.428 54.9413 202.87 60.2601 211.67 65.9722C210.177 65.8844 205.596 66.0274 204.688 65.634C202.535 64.7024 199.423 62.4091 197.315 61.1039L183.067 52.3122C179.923 50.3428 176.754 48.413 173.562 46.5235C162.154 39.679 162.959 40.5222 149.616 40.5518L128.915 40.5512C122.506 40.549 114.989 40.1447 108.915 41.6588C104.244 42.8231 97.482 45.5684 93.5253 48.4106C87.8887 52.4592 81.0282 60.2598 77.4252 66.2098C68.9611 65.9055 60.1538 66.2803 51.6699 66.3019C56.2213 64.2389 60.8028 63.2206 65.5395 60.5409C81.8564 51.3098 94.232 40.0025 113.9 38.7952Z" fill="#F7F7F7"/>
<path d="M77.374 80.8589C84.7172 80.1379 91.6804 83.7127 96.1021 89.491C100.462 95.1892 100.916 100.657 100.103 107.517C99.1249 107.36 97.6492 107.342 97.836 106.103C98.441 102.091 98.2833 98.3748 96.5786 94.5762C94.322 89.5481 90.4901 86.0593 85.3808 84.0875C83.8176 83.5157 82.1833 83.1638 80.5241 83.0418C75.99 82.7091 70.4585 84.4857 67.1041 87.5375C62.5936 91.6407 60.4883 96.3855 60.0941 102.372C59.3418 102.29 58.5509 102.161 57.7983 102.053C58.1616 97.1891 60.3194 92.146 63.3778 88.384C66.8593 84.1045 71.8969 81.3962 77.374 80.8589Z" fill="#F7F7F7"/>
<path d="M254.47 76.9035C257.293 76.7279 263.487 76.9652 265.975 77.9474C267.323 80.0233 268.457 83.5239 268.381 86.0474C268.308 88.4926 266.022 87.7445 264.418 87.4454C262.264 86.959 260.167 86.2435 258.164 85.3116C255.019 83.8151 244.559 77.5513 254.47 76.9035Z" fill="#F7F7F7"/>
<path d="M45.878 68.6417C47.3932 68.5954 56.23 68.7439 57.0822 69.5002C57.4057 69.7878 57.3923 69.9219 57.4427 70.3291C56.8532 72.2119 51.1356 75.9022 49.2844 77.0278C46.0335 78.7844 44.5049 79.4714 40.9199 80.5199C41.1659 76.5947 41.4207 70.0531 45.878 68.6417Z" fill="#F7F7F7"/>
<ellipse cx="93.3002" cy="65.4444" rx="8.48182" ry="8.51667" fill="#DB4431"/>
<ellipse cx="209.218" cy="93.8333" rx="8.48182" ry="8.51667" fill="#DB4431"/>
<ellipse cx="163.982" cy="39.8944" rx="8.48182" ry="8.51667" fill="#DB4431"/>
</g>
<defs>
<clipPath id="clip0_526_2870">
<rect width="311" height="149" fill="white"/>
</clipPath>
</defs>
</svg>
