<svg width="1264" height="461" viewBox="0 0 1264 461" fill="none" xmlns="http://www.w3.org/2000/svg">
<g clip-path="url(#clip0_671_1505)">
<rect width="1264" height="461" fill="#F7F7F7"/>
<g clip-path="url(#clip1_671_1505)">
<path d="M533.045 -44H1066.04L1065.09 170.847V171.801L1066.04 488.82H533.045V173.168V171.749V-44Z" fill="#080717"/>
<path d="M1042.57 191.684C1049.48 191.938 1060.66 185.888 1063.61 179.392C1064.8 176.772 1063.86 174.3 1066.04 171.662V488.819H533.045V173.167C534.652 178.269 534.595 181.375 540.22 184.219C548.587 188.45 559.571 188.663 568.838 188.818C570.104 190.805 571.218 192.652 572.927 194.278C584.347 205.143 600.338 202.627 608.546 189.717C609.745 189.682 610.982 189.629 612.179 189.619C606.275 202.339 602.614 215.366 601.433 229.37C601.023 234.235 601.354 239.436 600.592 244.228C599.803 249.183 597.875 253.962 596.916 258.916C594.095 273.496 589.693 309.743 594.658 323.226C596.593 328.481 600.394 332.249 605.458 334.561C606.859 335.2 608.291 335.662 609.774 336.067C608.644 344.403 607.347 352.717 605.881 361.001C604.934 366.576 603.388 372.777 603.694 378.38C604.079 385.449 604.065 392.477 604.115 399.552C604.554 428.016 605.332 456.473 606.448 484.917L690.114 484.719C690.969 457.42 693.555 429.916 694.41 402.596C694.59 396.856 694.683 393.541 697.384 388.303C698.503 385.943 699.565 378.661 699.81 375.911C700.959 379.351 701.591 382.416 704.569 384.65C704.604 398.327 700.866 411.208 700.948 424.223C701.072 444.061 704.452 464.966 705.382 484.823L794.087 484.896L795.883 420.745C796.375 404.951 797.416 386.811 796.48 371.273C800.65 371.212 805.457 370.731 808.295 367.232C819.275 353.694 815.374 332.645 811.206 317.106C806.019 297.766 801.851 276.368 787.021 261.849C781.056 256.337 768.037 247.981 760.91 244.007C763.593 243.359 766.549 242.705 769.104 241.712C768.551 237.688 767.782 233.793 767.208 229.809C773.759 221.708 775.874 213.613 776.778 203.339C784.569 201.535 788.39 198.459 792.236 191.489C796.274 191.479 802.479 189.498 806.309 188.149C808.361 187.144 809.366 186.567 811.214 185.172C814.275 187.153 820.418 187.483 824.063 188.291C831.397 189.386 840.474 190.687 847.935 191.011C857.438 201.988 872.782 203.148 882.14 191.386C897.044 191.509 913.134 191.075 927.855 191.5L930.193 192.998C934.175 193.283 937.691 193.045 941.599 193.098C943.391 199.195 944.978 205.489 946.821 211.518C945.06 212.74 939.987 216.035 938.649 217.2C938.88 219.227 940.04 224.233 939.712 225.583C938.976 228.612 936.685 233.216 935.333 236.128C933.223 240.574 931.19 245.057 929.237 249.575C924.011 261.648 919.921 274.18 917.018 287.011C906.249 278.813 895.566 270.505 884.97 262.086C882.477 260.104 880.114 257.935 877.628 255.946C876.478 255.027 876.134 254.639 874.673 254.964C868.969 251.336 864.305 245.93 858.26 242.784C853.759 240.442 816.751 232.518 812.448 233.563C811.733 233.736 811.342 234.023 810.897 234.609C810.484 236.358 811.299 237.093 812.82 237.8C815.797 239.185 819.166 239.674 822.141 241.028C823.08 252.433 823.561 250.268 833.566 254.356C838.579 256.404 843.191 258.4 848.484 259.858C853.268 261.854 858.642 266.763 863.341 269.341C861.072 271.485 860.316 272.207 858.892 274.936C858.223 274.482 857.425 273.905 856.731 273.529C841.024 276.306 826.37 276.491 810.79 273.292C810.19 273.168 809.691 273.219 809.16 273.489C808.714 275.185 811.282 279.027 812.086 280.674C813.78 284.2 815.385 287.769 816.898 291.377C825.226 311.497 829.112 328.211 831.658 349.623L867.345 348.484C871.245 348.375 883.464 348.285 886.589 347.801C886.157 342.814 884.793 336.838 883.7 331.896C888.995 332.26 894.3 332.455 899.606 332.483C899.347 333.854 899.017 335.417 898.811 336.78C905.294 338.424 911.765 340.118 918.222 341.863C935.129 346.599 971.875 358.236 987.553 349.185C992.712 346.207 993.519 341.011 994.888 335.714C997.119 327.084 998.946 318.084 1000.13 309.254C1002.77 289.58 1005.16 246.59 995.099 229.418C992.69 225.309 988.802 222.751 984.238 221.582C982.044 221.02 974.503 220.915 973.917 220.328C974.32 219.771 974.62 219.692 975.333 219.626C998.091 217.534 1001.21 238.336 1002.79 255.963C1004.95 282.145 1002.85 308.503 996.597 334.018C995.577 338.1 994.664 343.866 991.934 347.131C988.049 351.776 981.015 353.35 975.258 353.741C958.87 354.855 941.933 349.618 926.238 345.411C923.995 344.81 913.693 341.281 912.48 341.694L911.915 341.478C910.95 340.969 909.976 340.474 908.996 339.993C908.674 350.179 909.437 362.273 909.806 372.647L910.879 399.128C911.044 403.419 911.058 408.482 911.314 412.664C913.256 413.07 915.205 413.441 917.16 413.778C917.95 432.499 920.671 464.995 921.938 484.771C922.048 484.891 922.158 485.005 922.268 485.125L923.077 485.208C923.781 484.922 924.859 484.932 925.64 484.927C941.365 484.88 957.2 484.844 972.915 484.865C975.66 484.87 990.302 484.719 992.019 485.13L993.183 484.875C994.174 483.382 996.91 419.971 996.935 413.365C1001.59 412.252 1009.38 410.48 1013.79 408.93L1012.77 339.192C1012.69 322.297 1012.4 305.403 1011.89 288.516C1011.53 273.346 1011.82 249.238 1007.06 235.259C1002.05 220.518 987.81 204.539 979.637 191.567C988.667 191.559 997.696 191.613 1006.72 191.73C1007.3 192.408 1007.9 193.062 1008.53 193.692C1015.23 200.446 1025.62 202.355 1034.17 198.161C1037.73 196.412 1039.81 194.473 1042.57 191.684Z" fill="#F7F7F7"/>
<path d="M811.214 185.172C814.275 187.153 820.418 187.483 824.063 188.291C821.023 189.058 817.649 187.238 814.527 187.232C815.397 187.572 816.035 187.671 816.587 188.307C815.734 188.3 814.819 188.145 814.188 188.522C815.035 188.607 816.23 188.518 816.819 188.932C814.339 189.583 809.002 188.458 806.561 188.176L806.309 188.149C808.361 187.143 809.366 186.567 811.214 185.172Z" fill="#F3E4E2"/>
<path d="M533.045 -44H1066.04V169.054L1065.13 170.795C1064.84 170.172 1064.92 160.82 1064.56 158.754C1063.75 154.121 1060.44 152.52 1059.8 149.734C1058.71 144.996 1058.76 138.283 1058.07 133.313C1051.31 132.272 1044.44 131.519 1037.77 130.059C1043.25 127.939 1046.32 127.916 1043.04 121.522C1043.88 121.156 1044.86 120.756 1045.66 120.344C1050.86 108.113 1039 99.4466 1028.75 95.0446C1022.47 92.3498 1013.17 92.0329 1006.47 90.9412C996.631 90.655 997.257 89.5769 989.053 85.2592C978.48 79.6958 967.38 73.5778 955.896 70.1498C937.426 66.5309 916.532 69.2616 898.451 73.9836C890.814 75.978 882.466 79.7848 874.926 80.9488C866.272 82.2845 855.57 81.0789 846.634 81.4306C842.29 81.6018 833.332 73.8811 829.098 71.9351C817.749 64.7415 806.516 62.9526 793.307 63.397C787.96 63.5765 781.216 63.0879 775.886 64.0947C762.971 66.534 747.281 72.0896 735.582 78.0219C729.645 77.3783 723.764 76.9251 717.871 76.4594C714.926 76.2263 707.052 76.6935 704.775 75.9005C698.916 73.8598 692.837 69.9276 686.676 67.8931C682.885 66.6105 678.976 65.7046 675.008 65.189C667.028 64.1421 656.561 64.2508 648.397 64.2019C644.302 64.1775 634.044 64.0515 630.412 64.7842C616.626 67.5653 602.085 74.2594 589.068 79.6178C586.993 80.4716 582.075 83.2101 580.373 83.2996C576.289 83.5156 571.456 82.4557 567.142 82.3558C563.665 91.4022 557.702 108.65 560.434 118.305C561.753 122.966 575.076 123.247 579.58 124.128C575.968 126.36 567.536 130.008 563.461 131.209C557.395 132.995 549.083 132.636 542.696 133.241C540.723 138.98 540.021 146.351 538.081 152.091C537.287 154.439 534.933 155.75 534.055 159.227C533.201 162.609 534.036 169.353 533.045 171.749V-44Z" fill="#F7F7F7"/>
<path d="M918.683 413.889C928.935 415.544 939.822 415.568 950.148 416.216C966.117 417.217 979.83 415.932 995.543 413.635C995.571 417.857 995.251 422.64 995.108 426.945C994.711 438.585 994.127 450.218 993.358 461.839L992.348 477.106C992.21 479.422 991.915 482.944 992.019 485.13C990.301 484.719 975.66 484.87 972.914 484.865C957.2 484.844 941.365 484.88 925.64 484.927C924.859 484.932 923.781 484.922 923.077 485.208C923.429 482.429 922.02 468.802 921.855 465.539C920.996 448.566 919.122 430.843 918.683 413.889Z" fill="#080717"/>
<path d="M911.915 341.479L912.48 341.694C913.445 342.8 915.279 343.161 916.708 343.592C915.677 351.221 915.33 360.02 914.898 367.776C914.792 367.41 914.697 367.041 914.614 366.669C913.604 362.205 913.523 356.697 912.776 352.097C912.502 350.412 911.278 342.504 911.915 341.479Z" fill="#EBAEA7"/>
<path d="M758.144 244.611C758.228 244.593 758.312 244.562 758.399 244.556C760.333 244.423 779.369 257.479 781.97 259.435C783.796 260.808 785.519 262.314 787.124 263.939C801.604 278.593 806.294 304.396 811.411 323.917C814.793 336.814 816.452 356.113 806.733 366.828C802.907 371.046 791.924 370.891 788.798 365.75C786.908 362.642 785.95 357.759 784.815 354.17C782.058 345.526 779.423 336.844 776.91 328.127C775.442 323.126 773.624 316.399 771.897 311.67C771.122 309.547 765.136 296.003 764.017 294.801H763.4L763.142 295.122C763.251 296.206 767.093 304.189 767.866 305.82C771.455 313.395 773.382 321.108 775.769 329.102C778.306 337.891 780.986 346.638 783.807 355.341C786.136 362.701 785.933 369.111 795.186 371.12C795.455 377.261 795.463 383.688 795.614 389.865C789.5 394.163 772.033 394.882 764.21 395.356C747.98 396.252 721.212 395.448 706.084 389.76C706.078 370.496 705.016 351.867 704.64 332.711C704.523 324.303 704.476 315.894 704.498 307.485C704.499 305.373 704.947 294.56 703.854 293.55L703.467 293.9C702.841 295.322 703.119 302.125 703.108 304.231C702.988 318.597 703.189 332.964 703.712 347.321L704.461 368.685C704.619 373.267 704.936 378.561 704.781 383.095C704.737 383.033 704.693 382.972 704.649 382.91L704.435 382.597C694.925 368.886 691.758 318.538 693.091 301.065C694.182 286.78 697.469 269.136 706.771 257.647C710.661 252.842 713.675 249.907 718.224 245.853C733.686 247.94 742.976 247.201 758.144 244.611Z" fill="#F5F5F5"/>
<path d="M675.915 328.952C672.865 330.505 666.456 331.995 662.949 332.652C647.16 335.611 609.88 342.186 598.636 327.624C597.073 325.587 595.949 323.248 595.336 320.754C592.594 310.01 594.346 284.419 595.939 273.392C600.184 244.024 606.408 224.874 630.814 206.381C637.691 215.389 644.298 217.753 654.658 221.633C664.001 225.134 672.708 222.81 668.693 210.892C671.562 212.336 676.368 214.802 678.457 217.481C687.983 229.698 693.961 247.487 697.188 262.525C697.562 264.265 698.505 268.117 698.46 269.448C694.004 280.572 691.75 293.853 691.494 305.847C686.758 306.423 682.631 307.272 678.254 309.297C676.965 309.894 674.97 311.669 673.833 311.815C672.533 311.982 672.175 310.895 669.929 310.969C661.663 311.24 652.512 312.183 644.259 310.996C637.298 310.26 629.584 308.685 623.732 304.682C621.649 295.148 626.26 278.031 627.287 268.144C627.49 266.189 629.02 260.002 628.244 258.636L627.797 258.57C627.716 258.667 627.628 258.76 627.553 258.863C626.458 260.387 622.528 289.187 622.293 292.574C622.001 296.8 621.856 301.12 622.464 305.319C632.458 314.511 658.533 312.79 671.47 312.284C673.728 318.249 674.703 322.769 675.915 328.952Z" fill="#F5F5F5"/>
<path d="M660.275 269.495C669.66 269.915 679.222 269.623 688.619 269.717C691.846 269.75 695.242 269.677 698.46 269.447C694.004 280.572 691.75 293.853 691.494 305.847C686.758 306.423 682.631 307.272 678.254 309.297C676.965 309.894 674.97 311.669 673.833 311.815C672.533 311.982 672.175 310.895 669.929 310.968C661.663 311.24 652.512 312.183 644.259 310.996C644.425 310.971 644.805 310.813 644.981 310.748C646.191 308.262 648.761 300.472 649.845 297.489C653.209 288.117 656.687 278.785 660.275 269.495Z" fill="#DB4431" fill-opacity="0.4"/>
<path d="M646.563 106.524C654.958 105.899 664.212 106.517 672.621 106.898C677.886 107.545 684.768 107.175 689.854 108.68C706.904 113.724 723.264 122.468 738.963 130.726C743.485 133.105 750.903 136.929 754.482 139.796C757.271 138.977 761.422 137.774 764.301 137.674C779.02 137.164 797.089 142.579 808.04 152.633C809.294 153.785 811.346 159.015 811.963 160.787C808.934 160.644 805.908 160.446 802.885 160.193C802.816 157.562 802.901 152.025 801.168 150.049C800.348 149.114 793.331 148.833 791.905 148.712C790.273 148.574 786.156 148.194 784.894 149.242C783.799 151.777 788.003 156.194 789.723 157.872C792.276 160.365 796.325 161.335 799.808 161.462C803.937 161.614 808.432 162.275 812.536 162.134C813.394 164.745 814.028 167.425 814.428 170.144C816.429 184.751 805.119 188.31 793.141 189.922C793.481 188.885 793.866 187.724 794.124 186.671C795.745 179.94 794.604 172.839 790.954 166.954C786.386 159.531 777.84 154.495 769.098 154.287C765.217 154.194 762.79 155.215 759.566 157.246C734.138 148.944 725.673 171.334 719.219 190.897C706.083 190.272 692.006 190.511 679.164 189.676C682.435 182.907 683.785 178.951 685.209 171.708L685.832 171.034C692.404 163.991 692.57 148.443 688.987 139.879C688.452 138.6 687.537 136.986 686.867 135.762C699.206 138.112 709.465 139.003 721.887 139.497C727.69 139.727 733.7 140.406 739.525 140.461C740.883 141.292 743.601 143.364 745.057 142.804L745.145 142.323C744.125 141.069 733.479 135.338 731.236 134.058C725.181 130.273 717.627 126.594 711.195 123.492C704.868 120.441 695.586 115.763 688.696 114.391C681.714 113.002 672.415 112.567 665.192 112.151C668.025 115.658 670.815 120.987 672.096 125.293C668.604 124.474 666.433 123.896 662.88 123.842C661.344 119.943 659.779 115.789 657.802 112.1C640.584 111.851 623.76 116.341 607.869 122.698C606.779 123.134 604.928 123.758 604.092 124.484C603.928 125.092 603.843 125.369 604.245 125.945C606.608 129.319 633.451 132.962 638.687 133.878C633.14 139.24 626.093 143.963 624.465 152.161C623.325 157.896 625.683 162.293 628.446 167.08C624.346 170.774 619.9 176.152 616.876 180.807C615.453 182.996 614.479 185.48 612.835 187.732C612.187 188.151 611.533 188.011 610.726 187.981C610.258 187.396 610.715 186.821 611.108 185.978C612.518 182.953 612.682 179.491 612.245 176.217C611.425 170.366 608.321 165.076 603.613 161.503C589.357 150.665 568.324 159.198 566.099 177.111C565.665 180.605 566.277 183.959 566.803 187.406C558.534 187.181 550.086 186.669 542.321 183.559C534.878 180.577 535.05 175.78 535.069 168.72C535.078 165.355 534.844 160.795 536.18 157.61C536.859 155.991 538.486 154.664 539.402 152.672L539.557 152.327C546.028 152.754 554.207 151.638 559.754 147.885C565.268 144.154 564.723 142.344 558.946 139.431C553.632 136.751 548.542 135.934 542.746 134.883C548.84 134.069 558.511 134.302 564.125 132.634C569.389 131.07 578.024 126.556 583.443 124.212C597.055 118.323 611.796 111.912 626.223 108.559C631.329 107.372 641.386 106.709 646.563 106.524Z" fill="#F5F5F5"/>
<path d="M604.307 140.548C606.434 140.51 613.14 140.058 614.514 141.228C614.751 142.2 614.739 141.686 614.228 142.813C611.955 142.862 605.54 143.371 604.03 142.071C603.863 141.082 603.832 141.581 604.307 140.548Z" fill="#080717"/>
<path d="M812.46 157.826C813.892 153.759 815.751 151.009 819.515 148.644C833.117 140.093 851.144 137.231 866.877 135.094C868.632 134.856 874.507 134.081 875.897 134.367C876.038 135.078 876.254 136.543 876.797 136.957C880.173 139.535 887.132 137.29 890.945 137.018C898.404 136.484 906.032 135.197 913.394 134.993C915.643 134.735 920.819 134.904 922.862 135.766C923.991 135.882 923.801 135.796 924.76 136.641C935.154 135.341 941.745 138.044 945.352 148.518C945.871 150.026 948.304 157.425 949.828 157.324C952.659 155.131 954.346 150.694 958.437 151.357C964.693 152.371 964.239 159.248 962.158 163.637C962.542 164.565 962.52 164.813 962.21 165.808C963.527 168.477 967.812 174.136 968.26 176.098C968.568 178.721 974.772 190.222 976.35 192.95L948.106 210.841C946.481 204.364 944.428 198.346 942.903 191.686C929.994 191.602 928.114 193.539 922.195 180.148C921.425 178.406 920.527 174.103 919.192 172.999C918.004 176.573 923.743 187.087 926.32 189.904L883.286 189.83C883.426 189.525 883.564 189.22 883.7 188.913C886.215 183.227 886.81 177.495 884.492 171.606C882.42 166.442 878.365 162.323 873.233 160.167C868.11 157.947 862.305 157.901 857.147 160.039C848.003 163.79 842.952 172.994 844.281 182.797C844.587 185.052 845.649 187.38 846.52 189.464C839.386 189.153 818.287 186.805 812.203 184.214C813.3 182.849 814.411 181.52 815.074 179.884C817.855 173.029 814.951 164.278 812.46 157.826Z" fill="#F5F5F5"/>
<path d="M922.862 135.767C923.99 135.883 923.801 135.796 924.76 136.641C911.128 144.864 920.584 151.628 921.299 162.492C921.383 163.765 918.318 166.998 917.866 168.609C919.334 170.052 922.118 169.048 922.261 170.792L921.751 171.236C919.96 171.608 917.032 171.034 916.275 169.112C916.402 167.071 918.722 164.681 920.003 162.484C918.447 151.74 910.146 144.639 922.862 135.767Z" fill="#080717"/>
<path d="M962.158 163.637C962.542 164.565 962.519 164.813 962.21 165.808C960.256 168.16 959.751 168.419 956.897 169.114C955.833 174.122 955.275 179.134 953.504 183.958C952.697 186.158 946.521 192.092 944.552 191.184C944.903 189.062 949.658 188.004 951.578 184.495C954.49 179.17 953.748 173.643 955.754 168.197C955.948 167.671 957.146 167.379 957.722 167.297C959.789 167.001 960.766 165.329 962.158 163.637Z" fill="#080717"/>
<path d="M849.178 145.512C850.955 145.392 852.975 144.867 854.048 146.508C854.106 148.737 850.596 150.718 849.017 151.966C841.027 158.277 830.129 158.951 820.34 159.97C818.919 160.182 816.423 160.48 815.338 159.515C813.655 157.852 814.924 154.711 816.234 153.272C820.186 148.929 826.033 148.672 831.5 147.704C837.292 146.677 843.253 145.898 849.178 145.512Z" fill="#080717"/>
<path d="M847.437 147.067C848.662 146.9 851.29 146.891 852.628 146.851C843.336 156.635 833.883 156.78 821.445 158.357L821.101 158.407C819.583 158.619 817.307 159.048 816.107 158.129C814.977 154.839 820.605 151.209 823.384 150.695C831.303 149.23 839.41 147.765 847.437 147.067Z" fill="#F5F5F5"/>
<path d="M832.476 169.705L832.705 169.683C835.907 169.41 838.687 169.404 841.242 171.619C843.951 173.879 845 179.173 842.191 181.75C839.441 184.272 833.203 183.409 829.638 183.311C825.399 183.268 817.973 183.564 817.464 177.416C816.845 169.942 827.363 170.013 832.476 169.705Z" fill="#080717"/>
<path d="M932.369 174.352C935.112 175.703 931.231 178.96 929.88 180.093C929.049 179.978 929.384 180.153 928.811 179.615C928.881 178.865 931.667 175.859 932.369 174.352Z" fill="#080717"/>
<path d="M929.071 158.717C931.611 159.056 931.435 161.943 930.48 163.656C929.732 163.515 929.785 163.519 929.164 163.068C928.36 161.571 928.779 160.388 929.071 158.717Z" fill="#080717"/>
<path d="M925.987 153.789C927.525 153.703 930.322 153.197 931.193 154.621L930.96 155.542C929.45 155.154 926.878 155.427 926.031 154.77L925.987 153.789Z" fill="#080717"/>
<path d="M950.287 108.994C967.793 108.273 992.473 110.219 1008.92 117.321C1013.18 119.16 1020.74 124.615 1025.43 126.669C1027.2 127.441 1028.94 128.873 1031.3 129.681C1037.18 131.693 1043.05 132.558 1049.17 133.467C1051.03 133.743 1054.88 134.19 1056.51 134.683L1056.8 135.148C1055.45 136.871 1039.94 140.128 1037.4 142.348C1036.25 143.353 1037.79 145.26 1038.69 145.855C1044.38 149.605 1051.63 150.617 1058.3 150.282C1059.43 153.116 1061.24 154.092 1062.35 156.63C1063.9 160.146 1062.96 165.784 1063.27 169.323C1064.22 180.448 1058.91 184.773 1049.29 188.73C1047.5 189.465 1045.86 189.807 1043.87 190.213C1046.78 184.31 1048.07 178.957 1045.87 172.501C1043.95 166.978 1039.9 162.453 1034.63 159.934C1029.25 157.33 1023.05 157.001 1017.42 159.023C1011.83 161.088 1007.3 165.298 1004.83 170.719C1001.48 177.934 1002.17 182.917 1005.16 189.98C995.948 189.937 985.415 189.672 976.307 190.014C974.217 185.724 971.752 180.939 969.875 176.599L968.26 176.098C967.812 174.135 963.527 168.477 962.21 165.808C962.519 164.813 962.542 164.565 962.158 163.637C964.239 159.248 964.693 152.371 958.437 151.357C954.345 150.693 952.659 155.13 949.828 157.324C948.304 157.425 945.871 150.025 945.352 148.517C941.744 138.044 935.154 135.341 924.76 136.64C923.801 135.795 923.99 135.882 922.862 135.766C920.818 134.904 915.643 134.734 913.394 134.993L914.093 134.678C913.921 133.754 911.565 131.561 910.975 130.414C905.994 120.735 923.347 118.645 929.184 117.393C932.529 116.676 937.212 116.577 940.432 114.413C941.713 114.003 945.008 114.285 946.919 113.78L947.156 113.186L947.456 113.831C948.047 113.984 947.865 113.989 948.452 113.955C949.039 111.878 949.352 110.956 950.287 108.994Z" fill="#F5F5F5"/>
<path d="M947.078 113.78L947.456 113.831C948.047 113.984 947.865 113.989 948.452 113.955C952.3 113.846 956.207 114.258 960.271 114.206L959.474 114.582C960.655 115.255 963.566 116.247 964.968 116.856C973.031 120.361 980.593 126.059 980.94 135.593C980.019 136.145 979.877 136.226 978.868 136.557C979.522 139.099 980.09 141.937 979.874 144.563C979.346 150.995 972.711 171.682 969.875 176.599L968.26 176.098C967.812 174.136 963.527 168.477 962.21 165.808C962.519 164.813 962.542 164.565 962.158 163.637C964.239 159.248 964.693 152.371 958.437 151.357C954.345 150.694 952.659 155.13 949.828 157.324C948.304 157.425 945.871 150.026 945.352 148.518C941.744 138.044 935.154 135.341 924.76 136.641C923.801 135.795 923.99 135.882 922.862 135.766C920.818 134.904 915.643 134.735 913.394 134.993L914.093 134.678C913.921 133.754 911.565 131.562 910.975 130.414C905.994 120.736 923.347 118.645 929.184 117.393C932.529 116.676 937.212 116.578 940.432 114.414C941.713 114.003 945.008 114.286 946.919 113.78L947.078 113.78Z" fill="#72362F"/>
<path d="M960.271 114.205C975.126 114.082 988.674 115.305 1002.26 121.994C1004.15 122.926 1009.06 124.614 1010.12 126.278C1009.74 129.635 985.203 133.686 980.94 135.593C980.592 126.059 973.031 120.361 964.968 116.856C963.566 116.247 960.655 115.255 959.474 114.581L960.271 114.205Z" fill="#080717"/>
<path d="M1001.15 142.224C1003.72 142.202 1010.81 141.747 1012.65 142.605C1013.3 143.464 1013.1 142.975 1013.1 144.181C1011.09 144.536 1003.32 144.742 1001.57 143.877C1001 143.099 1001.17 143.373 1001.15 142.224Z" fill="#080717"/>
<path d="M770.118 109.231C778.781 105.756 787.47 102.343 796.182 98.9934C803.187 96.2903 809.561 93.5169 816.875 91.6521C833.752 87.2704 851.136 87.0648 868.416 87.9364C879.929 88.2782 890.548 89.6472 901.26 94.1798C910.807 98.2192 918.351 104.663 927.181 109.806C924.172 110.393 921.924 110.832 919.009 111.756C918.852 111.633 918.694 111.511 918.536 111.39C906.966 102.546 893.247 95.8912 878.737 93.966C876.419 93.6585 868.063 91.8597 867.309 94.8032C866.324 98.6469 869.811 108.082 871.019 112.094C868.336 111.753 863.728 111.69 860.895 111.571C859.34 106.613 858.345 101.168 856.323 96.4501C854.486 92.1656 847.382 93.799 843.832 94.3542C830.562 96.4292 815.912 101.186 804.337 108.031C814.177 111.457 821.992 110.892 831.679 111.782C835.967 112.176 864.211 112.58 865.905 113.557L866.038 114.461L866.156 114.456L866.38 113.7C866.893 113.426 867.894 113.282 868.416 113.37C874.197 114.354 905.816 114.194 908.872 116.327L909.018 116.736C906.694 118.349 902.74 120.329 900.11 121.817C893.404 125.611 886.114 129.913 878.734 132.198C876.245 132.968 869.8 133.389 866.883 133.743L865.621 133.933C859.007 134.036 843.105 137.522 836.423 139.54C827.097 142.357 816.49 146.427 811.635 155.393C809.808 151.988 807.656 150.753 805.936 148.117C802.689 143.143 801.745 139.98 796.266 136.549C790.148 132.718 782.423 131.454 775.403 133.432C773.527 133.795 770.107 135.966 768.313 136.093C763.473 136.438 759.386 137.048 754.636 138.106C750.936 135.839 753.544 135.018 749.666 131.644C748.432 131.504 745.561 131.506 744.878 130.468C746.459 125.528 749.912 121.159 751.038 116.332C751.546 114.154 750.301 110.862 751.611 109.364C753.634 108.458 765.453 109.93 768.581 110.107C767.932 114.227 767.252 118.342 766.543 122.452C764.04 122.543 758.074 121.653 756.247 122.954L756.45 122.739L756.502 123.214C758.631 123.984 765.049 124.036 767.699 124.135C768.72 119.712 769.474 113.744 770.118 109.231Z" fill="#EBAEA7"/>
<path d="M866.156 114.455L866.38 113.699C866.893 113.426 867.894 113.281 868.416 113.37C874.197 114.353 905.816 114.193 908.872 116.326L909.018 116.735C906.694 118.349 902.74 120.329 900.11 121.817C893.404 125.61 886.114 129.913 878.734 132.198C876.245 132.968 869.8 133.388 866.883 133.742C866.965 130.227 866.993 126.711 866.965 123.195C869.037 123.221 872.619 123.535 874.226 122.384L874.213 121.968C872.463 120.819 869.155 121.129 866.997 121.175C866.774 118.922 866.595 116.677 866.156 114.455Z" fill="#EBAEA7"/>
<path d="M813.023 118.419C815.419 118.426 821.052 118.142 822.805 119.258C823.207 120.206 823.112 119.694 822.852 120.876C820.656 120.832 814.245 121.229 812.847 119.986C812.636 119.047 812.682 119.526 813.023 118.419Z" fill="#080717"/>
<path d="M785.474 64.8674C789.825 64.7545 794.179 64.7701 798.53 64.9142C803.083 65.0542 808.343 65.2696 812.748 66.4049C824.162 69.3459 833.864 76.9385 843.849 82.863C849.313 83.0155 855.291 82.9151 860.764 82.9463C864.687 82.9681 872.206 83.0597 875.841 82.3073C882.809 80.866 890.214 78.1166 897.033 75.9848C903.089 74.083 909.293 72.6911 915.581 71.8237C927.542 70.1768 944.698 68.4795 956.354 71.794C964.194 74.0236 974.119 79.2956 981.496 83.042C984.079 84.3543 986.812 85.8596 989.471 87.1813C992.271 88.5732 995.638 91.0697 998.644 91.8663C1000.2 92.28 1003.39 92.14 1005.17 92.3606C1013.02 93.3326 1026.65 94.1678 1032.92 98.9095C1026.58 98.1561 1020.07 97.4063 1013.69 97.0363C1012.69 96.9781 1012.12 96.963 1011.51 97.5567C1011.49 98.039 1011.55 98.3637 1011.73 98.8143C1013.12 102.373 1015.77 105.695 1019.38 107.137C1023.93 108.959 1038.78 109.617 1043.2 107.829C1046.03 111.501 1046.25 114.312 1044.8 118.66C1043.73 119.272 1043.25 119.656 1042.26 120.429C1038.9 117.007 1035.34 115.353 1030.51 115.254C1025.22 115.144 1021.92 117.618 1018.38 121.067C1015.4 119.539 1011.41 116.591 1008.46 115.4C994.638 109.83 978.874 108.42 964.25 107.355C965.544 105.318 967.019 102.98 967.524 100.598C967.757 99.5012 967.771 97.9589 966.961 97.0629C965.318 95.2449 947.736 95.8932 944.643 95.877C944.237 93.6599 944.032 92.4002 943.909 90.1669C952.076 90.3043 960.485 90.8095 968.685 91.0536C975.356 91.4365 982.037 91.2747 988.681 92.0625C989.304 92.1364 989.432 92.0766 989.923 91.7675L989.694 91.3267C987.972 90.0873 983.465 87.8483 981.314 86.7889C972.997 82.6929 963.819 77.6894 954.944 75.1403C951.241 74.0767 944.772 73.8649 940.891 73.8884L943.805 88.6835C941.522 88.4987 939.24 88.2911 936.961 88.0601C936.008 83.642 935.359 78.5094 934.392 73.8311C917.096 74.8499 908.765 76.5873 892.972 83.746C895.262 84.8512 897.606 85.0318 899.975 85.6858C911.901 88.9795 924.149 87.6636 936.259 89.3885C938.291 89.6778 940.373 89.9125 942.425 90.1617C942.538 92.0531 942.849 94.0309 943.111 95.9156C934.009 96.0285 924.398 97.2695 915.925 100.631C896.077 87.6964 880.597 85.9767 857.526 85.9268C844.409 85.8981 832.074 86.7608 819.148 89.3526C812.308 90.7237 805.901 94.162 799.194 95.9348C790.779 96.336 779.687 94.8952 770.911 94.6038C772.27 93.1947 774.407 91.1514 773.291 89.1549C771.346 88.0674 764.781 88.07 762.897 88.5627C762.611 89.2111 762.707 89.0904 762.287 89.6414C760.895 89.2361 758.376 87.635 756.962 86.9185C750.215 83.4989 745.56 79.7863 738.081 78.512C753.064 71.3975 768.785 65.4605 785.474 64.8674Z" fill="#F5F5F5"/>
<path d="M796.418 67.9424C800.78 68.0798 807.56 68.2431 811.853 68.8717C813.363 69.0798 814.836 69.4966 816.231 70.1101C818.984 71.3115 835.306 80.5474 836.582 82.2656L836.302 82.7843C834.478 82.9701 823.431 82.0709 820.892 81.9154C808.776 81.1749 796.562 80.1348 784.43 79.5395C779.228 79.1035 758.691 78.5207 755.122 77.1153C754.892 75.4034 758.873 74.7176 760.254 74.2124C770.436 70.4852 779.586 68.4575 790.408 67.9913C790.91 70.7288 791.201 75.5424 791.507 78.5212L799.417 79.0483C797.827 74.8779 797.103 72.297 796.418 67.9424Z" fill="#080717"/>
<path d="M794.349 84.6273C796.189 84.567 801.792 84.2881 802.91 85.6638C802.879 86.6514 803.015 86.1722 802.256 87.0677C800.228 87.0453 794.643 87.4288 793.606 85.7798C793.854 84.9145 793.644 85.3027 794.349 84.6273Z" fill="#080717"/>
<path d="M635.073 337.931C644.748 337.044 666.425 334.856 676.233 330.247C676.511 330.116 677.282 328.365 677.476 327.916C679.642 327.523 682.511 327.473 684.774 327.306C687.012 327.14 689.837 326.724 692.015 326.702C692.108 331.752 692.576 336.225 693.024 341.25C693.567 349.383 695.797 359.916 697.222 367.939C696.806 367.632 696.551 367.464 696.107 367.199L695.666 367.469C695.022 368.615 695.05 369.779 694.786 371.032C694.488 372.444 693.703 373.475 692.498 374.254C680.508 382.007 641.28 382.56 626.645 381.259C619.174 380.595 612.029 379.208 604.725 377.532C604.876 375.29 605.181 373.243 605.565 371.04C607.577 359.493 609.653 348.049 611.112 336.416C620.686 338.265 625.553 338.025 635.073 337.931Z" fill="#F5F5F5"/>
<path d="M635.073 337.931C644.748 337.044 666.426 334.856 676.233 330.247C676.511 330.116 677.282 328.365 677.476 327.916C679.642 327.523 682.511 327.473 684.774 327.306C687.012 327.14 689.837 326.724 692.015 326.702C692.108 331.752 692.576 336.225 693.024 341.25C692.23 342.558 692.135 344.483 691.944 346.033C685.985 346.454 679.651 346.322 673.669 346.654C659.758 347.424 645.425 347.625 631.557 348.566C632.795 344.994 633.992 341.552 635.073 337.931Z" fill="#DB4431" fill-opacity="0.4"/>
<path d="M700.65 77.6181C712.528 77.3684 730.087 77.8398 741.816 80.8562C743.788 81.363 751.511 85.5803 753.664 86.7593C758.506 89.3823 763.303 92.088 768.052 94.8749C769.3 95.6237 774.412 99.2265 775.38 99.1318L774.834 99.0969L775.4 98.9991C775.119 97.5458 773.826 96.9074 772.69 96.1763C779.562 96.3537 788.524 97.0541 795.404 97.5609C792.719 98.7717 788.704 100.191 785.848 101.318C779.793 103.711 773.759 106.157 767.747 108.654C763.482 107.859 754.829 107.517 750.551 108.009C747.588 108.349 748.82 114.978 749.556 117.079C747.638 120.379 744.128 127.636 743.008 131.225L732.093 125.386C719.133 118.615 698.858 108.056 684.425 106.33C669.717 104.571 652.675 104.647 637.929 105.57C640.059 98.8846 635.207 98.907 629.913 98.3377C628.207 98.1541 626.428 97.9595 624.718 97.7654C635.939 96.2746 640.558 95.0284 650.769 90.3111C659.249 86.3935 669.209 82.5165 678.145 79.9321C684.686 78.0407 693.783 77.8086 700.65 77.6181Z" fill="#F5F5F5"/>
<path d="M709.236 82.04C710.202 82.0385 710.163 81.8829 710.868 82.3179C712.554 86.4452 714.178 93.1465 715.091 97.5761C717.748 97.5953 720.877 97.7894 723.561 97.8987C722.106 92.8962 720.032 87.235 718.307 82.2679C723.584 82.59 733.262 83.5516 738.186 85.1162C747.111 87.9526 757.01 94.6123 765.085 99.3796C766.09 99.9732 769.456 101.589 769.781 102.181L769.393 102.57C763.18 101.73 757.99 101.315 751.723 100.94C737.527 100.234 723.336 99.4331 709.151 98.5382C705.013 98.303 669.067 97.1078 668.095 94.489C668.382 92.0049 672.67 89.7477 674.724 88.6919C685.331 83.2394 697.529 82.4084 709.236 82.04Z" fill="#080717"/>
<path d="M716.05 105.913C718.033 105.995 724.357 105.97 725.534 107.174C725.542 108 725.655 107.613 725.051 108.326C722.998 108.546 717.152 108.753 715.673 107.445C715.461 106.47 715.432 106.974 716.05 105.913Z" fill="#080717"/>
<path d="M810.974 274.773C831.191 277.828 837.196 277.743 857.293 274.957C861.037 277.864 874.453 298.852 876.374 303.469C872.56 302.174 859.404 296.755 856.574 299.936C856.678 302.834 867.588 308.212 870.297 309.626C868.01 316.097 871.27 325.349 876.857 329.363C878.799 330.548 879.981 331.041 882.129 331.601C883.378 336.513 884.251 341.59 885.135 346.582C868.263 347.486 849.671 347.74 832.693 348.192C831.908 330.68 824.638 306.58 818.042 290.307C816.839 287.34 811.295 276.341 810.974 274.773Z" fill="#F5F5F5"/>
<path d="M642.397 65.3918C655.606 65.2935 670.632 64.769 683.383 68.2734C688.209 69.5997 697.773 73.7483 702.145 76.3953C698.631 76.3542 695.213 76.4676 691.701 76.5743C683.123 71.653 671.373 69.7907 661.514 69.644C663.054 73.3997 665.778 77.6925 667.579 81.9545C661.641 84.2039 655.388 86.792 649.659 89.2761C641.806 92.6816 635.384 95.6184 626.704 96.1486C623.014 96.3739 618.621 97.1794 617.528 101.251C616.693 104.363 616.657 106.377 618.146 109.304C616.345 109.905 614.664 110.39 612.834 110.903L611.87 109.301C611.39 108.605 610.896 107.919 610.39 107.242C607.527 103.407 603.935 101.097 599.134 100.435C594.288 99.7758 589.38 101.084 585.506 104.067C579.374 108.844 578.087 115.031 577.145 122.213C573.578 122.044 569.465 121.331 565.969 120.572C559.793 119.232 561.099 113.511 561.477 108.824C561.822 104.543 562.744 101.016 563.981 96.9213C571.384 97.8891 589.526 95.9873 581.45 84.4151C583.91 83.1575 588.756 81.2557 591.585 80.0558C604.003 74.7906 617.399 69.1049 630.538 66.024C633.075 65.4293 639.667 65.4428 642.397 65.3918Z" fill="#DB4431"/>
<path d="M650.855 69.2853L655.814 69.1885C658.086 73.7799 659.633 78.6819 661.057 83.585C649.097 82.3175 637.113 81.293 625.111 80.513C620.255 80.1102 615.24 79.9448 610.362 79.7252C613.389 78.2698 616.465 77.328 619.547 76.1448C630.272 72.0274 639.407 69.8987 650.855 69.2853Z" fill="#080717"/>
<path d="M612.656 88.5181C614.833 88.4957 622.274 88.093 623.721 89.3085C623.883 90.1832 623.921 89.7643 623.573 90.6067L622.898 90.8299C620.711 90.7451 612.443 91.3867 611.5 89.7086C611.89 88.7377 611.59 89.1769 612.656 88.5181Z" fill="#080717"/>
<path d="M674.778 141.352C682.365 142.232 685.147 154.932 684.832 161.134C683.919 161.831 683.771 160.734 682.27 161.384L682.145 162.045C682.923 162.501 683.886 162.525 684.835 162.669C684.351 171.964 681.609 185.357 675.184 192.396C667.771 200.518 660.801 193.867 654.946 188.278L654.6 188.573C654.426 191.274 661.284 195.626 663.43 196.768C660.978 201.776 659.763 206.821 660.514 212.415C660.675 213.612 660.399 215.311 661.675 215.694L662.078 215.35C662.268 213.765 661.715 209.868 661.702 207.606C666.051 209.516 668.837 210.486 668.175 216.139C667.89 218.57 667.149 219.77 665.317 221.329C660.848 222.78 654.977 220.237 650.78 218.671C642.548 215.598 637.261 212.394 631.87 205.5C638.036 198.59 639.928 193.875 641.942 184.612C642.425 182.387 642.669 178.072 643.35 176.126C644.172 175.986 644.74 175.971 645.422 175.496C645.15 173.792 642.353 175.217 640.805 173.499C634.522 166.523 641.895 153.049 648.572 165.207C650.513 168.739 657.765 161.538 659.663 159.939C666.016 154.59 669.82 147.73 674.778 141.352Z" fill="#F5F5F5"/>
<path d="M665.298 182.417C667.183 183.007 671.844 183.537 672.618 185.07C672.616 185.961 672.343 186.204 671.84 186.944C667.674 188.974 664.666 187.196 665.298 182.417Z" fill="#080717"/>
<path d="M666.323 184.424C667.963 184.339 669.698 184.742 671.189 185.414L671.188 186.043C669.161 186.579 667.116 186.737 666.323 184.424Z" fill="#F5F5F5"/>
<path d="M676.343 168.638C676.947 168.71 677.197 168.776 677.79 168.93C678.095 170.64 678.395 174.167 678.113 175.936C677.902 177.267 676.972 177.812 675.935 178.459C675.248 178.468 675.29 178.494 674.718 178.123L674.8 177.639C675.75 176.717 675.988 176.707 677.272 176.226C676.877 173.643 676.473 171.257 676.343 168.638Z" fill="#080717"/>
<path d="M667.969 166.673C668.864 166.429 669.792 166.938 670.068 167.823C670.344 168.709 669.87 169.654 668.995 169.962C668.399 170.172 667.738 170.039 667.269 169.617C666.8 169.195 666.599 168.551 666.744 167.937C666.891 167.324 667.36 166.839 667.969 166.673Z" fill="#080717"/>
<path d="M681.571 168.172C682.9 168.327 683.121 168.247 683.553 169.551C683.367 170.517 683.295 170.509 682.707 171.262L681.356 171.241C680.567 170.708 680.823 171.057 680.534 170.178C680.759 169.093 680.839 169.053 681.571 168.172Z" fill="#080717"/>
<path d="M666.241 157.373C667.496 157.377 671.142 157.178 671.342 158.677L670.925 159.162C669.534 158.844 667.002 158.951 666.156 158.4L666.241 157.373Z" fill="#080717"/>
<path d="M678.019 191.402C690.518 191.214 706.071 191.802 718.596 192.398C714.016 206.312 708.761 229.101 708.15 243.847C710.886 244.706 713.745 245.187 716.563 245.703C711.183 250.363 707.554 254.005 703.478 259.911C701.854 262.318 700.887 264.062 699.534 266.591C697.928 260.06 697.02 254.26 694.68 247.563C690.948 236.885 685.19 220.618 676.146 213.467C673.187 211.127 665.596 207.802 661.948 205.935C662.483 202.635 663.164 200.471 664.694 197.544C671.54 198.25 673.657 196.028 678.019 191.402Z" fill="#F7F7F7"/>
<path d="M875.864 299.557C877.65 300.037 880.819 301.477 882.754 302.131C889.667 304.468 898.154 307.479 904.434 311.323C902.697 317.788 901.168 324.307 899.849 330.87C891.213 331.026 881.664 332.155 875.266 326.193C872.736 323.34 871.556 318.895 871.1 315.179C870.769 312.48 871.158 311.314 872.413 308.996C868.145 306.985 861.075 303.434 857.841 300.233C866.022 299.651 873.357 305.178 881.488 306.33C882.434 306.464 883.723 306.648 884.514 306.061C884.577 304.103 878.568 305.273 877.984 302.981C877.852 302.463 876.265 300.145 875.864 299.557Z" fill="#F5F5F5"/>
<path d="M812.314 234.723C818.386 234.551 829.204 237.356 835.336 238.535C840.846 239.594 851.867 241.297 856.868 243.76C861.288 245.937 869.603 252.932 873.682 256.304C871.419 258.637 866.742 265.429 864.176 268.533C860.701 265.287 853.1 261.305 849.103 258.392C844.086 254.737 839.763 250.695 835.194 246.524C834.586 245.88 834.315 245.412 833.447 245.57C833.214 247.733 843.241 255.688 845.421 257.574C840.907 256.006 835.716 254.079 831.581 251.718C830.864 249.821 830.686 248.683 830.375 246.705C830.873 245.333 831.523 244.12 832.182 242.823C838.151 244.431 844.107 246.432 850.033 248.191C852.189 248.831 854.014 250.7 855.227 250.462C855.731 249.757 855.632 250.135 855.575 249.303C853.025 246.726 843.092 245.143 839.782 243.243C839.529 243.097 836.132 240.041 835.386 239.444C833.663 240.133 832.558 240.561 831.205 241.837C830.631 241.499 828.034 240.106 827.644 239.788C826.301 238.231 822.857 239.681 822.446 239.507C820.429 238.655 811.769 237.299 812.314 234.723Z" fill="#F5F5F5"/>
<path d="M943.57 219.439L943.874 219.762C943.56 220.559 943.029 221.378 942.584 222.126C943.331 221.45 943.738 221.222 944.575 220.327C945.941 222.873 946.836 224.436 948.716 226.618C937.127 249.089 925.762 277.793 920.506 302.446L919.915 305.422C918.256 305.049 916.601 304.589 914.956 304.152C915.701 300.288 916.164 296.359 916.985 292.465C919.868 279.157 923.917 266.128 929.086 253.53C931.376 247.964 933.771 242.443 936.271 236.968C938.27 232.514 940.596 227.791 941.783 223.067C942.224 221.314 942.516 220.976 943.57 219.439Z" fill="#EBAEA7"/>
<path d="M943.29 97.3794C949.819 96.9298 958.825 97.1588 965.329 97.9944C968.482 98.3993 963.336 106.257 962.53 107.593C961.383 107.612 960.267 107.514 959.123 107.437C957.595 105.135 955.428 102.746 952.287 103.731C950.396 104.324 949.789 105.92 948.986 107.569C947.352 107.63 945.897 107.736 944.269 107.878C940.072 108.036 933.148 108.888 929.023 109.605C925.053 106.846 921.307 104.5 917.39 101.594C925.677 98.3644 934.505 97.8305 943.29 97.3794Z" fill="#080717"/>
<path d="M774.75 184.363C775.107 184.761 775.165 185.126 775.196 185.683C776.014 200.541 776.271 215.72 766.918 228.166C766.479 225.646 766.271 223.447 766.026 220.912C765.666 216.166 765.186 211.571 765.592 206.797C765.776 204.632 766.62 204.689 767.126 202.888C766.708 202.26 765.712 202.055 764.926 201.93C761.034 201.312 762.33 196.402 763.102 193.717C764.076 190.321 767.322 189.17 770.312 187.815C770.921 188.476 770.401 189.222 771.173 190.57L771.573 190.666C772.862 190.081 773.809 186.214 774.75 184.363Z" fill="#F5F5F5"/>
<path d="M940.432 114.413C936.596 114.459 930.759 114.644 927.036 115.545C916.859 118.004 907.122 123.803 898.296 129.276C895.486 131.132 892.886 133.372 889.986 135.072C887.966 136.255 879.121 137.872 877.958 135.545C878.424 134.196 880.812 133.075 882.106 132.606C889.697 129.855 896.064 125.834 902.979 121.795C907.89 118.927 913.482 116.085 918.619 113.622C927.423 110.377 939.251 109.629 948.57 109.081C947.907 110.636 947.628 111.572 947.156 113.186L946.919 113.78C945.008 114.285 941.713 114.003 940.432 114.413Z" fill="#F5F5F5"/>
<path d="M976.858 191.182C977.186 191.211 977.566 191.283 977.896 191.336C979.194 192.863 980.436 194.73 981.598 196.39C970.231 203.937 958.019 214.323 949.541 224.979C947.422 222.379 946.651 221.114 945.216 218.077L944.845 217.471C943.882 217.636 941.665 221.275 940.77 222.425C940.372 220.555 940.253 219.904 940.176 217.995C943.462 214.655 951.627 209.887 955.643 207.308C962.939 202.621 970.879 198.105 977.987 193.16C977.269 192.298 977.146 192.229 976.858 191.182Z" fill="#EBAEA7"/>
<path d="M691.25 307.314C691.448 307.778 691.666 322.871 691.804 325.104C688.757 325.699 680.362 326.627 677.043 326.327C676.773 326.302 676.665 325.505 676.56 325.112C675.911 321.575 674.552 317.108 673.56 313.57C675.128 313.092 675.624 312.684 676.94 311.826C681.122 309.1 686.33 307.825 691.25 307.314Z" fill="#F5F5F5"/>
<path d="M543.337 136.295C550.266 137.826 556.916 138.84 562.479 143.536C560.638 145.69 559.074 146.763 556.616 148.028C551.008 150.459 546.046 151.148 539.998 150.822C541.076 146.019 542.127 141.053 543.337 136.295Z" fill="#F5F5F5"/>
<path d="M1013.15 98.5742C1019.66 98.9744 1026.16 99.5269 1032.64 100.232C1035.83 100.591 1042.55 103.013 1042.04 107.018C1036.35 107.584 1026.97 107.498 1021.34 106.188C1017 105.178 1015.19 102.197 1013.15 98.5742Z" fill="#F5F5F5"/>
<path d="M567.921 83.7314C571.357 84.052 575.117 84.2658 578.51 84.8756C579.714 85.1868 581.262 85.9996 581.763 87.2041C583.454 91.2627 580.574 92.7993 577.613 94.2271C573.723 95.4738 568.576 96.0352 564.535 95.4103C565.759 91.5453 566.888 87.6511 567.921 83.7314Z" fill="#DB4431"/>
<path d="M1056.13 137.351L1056.72 137.371C1057.31 138.39 1057.77 146.685 1058.04 148.728C1052.38 148.949 1047.93 148.565 1042.65 146.452C1040.73 145.459 1039.78 144.793 1038.26 143.324C1040.66 142.099 1052.83 138.447 1056.13 137.351Z" fill="#F5F5F5"/>
<path d="M621.447 98.5171C622.688 98.4084 632.539 99.9746 634.411 100.352C635.279 100.528 636.242 100.966 636.962 101.57C637.528 103.112 636.767 104.24 636.112 105.771L632.14 106.185C628.457 106.468 625.248 107.638 621.856 108.036C616.397 108.677 618.374 100.939 621.447 98.5171Z" fill="#F5F5F5"/>
<path d="M786.692 149.91C790.918 150.02 795.873 150.447 800.086 150.919C800.257 151.415 800.412 151.917 800.55 152.423C800.975 154.022 801.824 158.728 801.061 160.083C797.048 159.888 794.203 159.626 790.805 156.945C789.39 155.828 786.373 152.093 786.22 150.355L786.692 149.91Z" fill="#F5F5F5"/>
<path d="M959.778 281.606C960.453 281.72 960.464 281.673 961.014 282.056C961.269 283.788 961.395 285.7 961.515 287.454C962.21 297.523 963.53 307.784 963.895 317.856C959.144 316.707 954.358 315.292 949.59 314.09C940.143 311.744 930.678 309.468 921.197 307.262C920.518 307.105 920.721 307.221 920.242 306.747L920.298 306.224C921.805 305.395 957.755 315.009 962.491 316.255C962.056 306.621 961.017 297.099 960.137 287.502C959.956 285.53 959.782 283.588 959.778 281.606Z" fill="#F5F5F5"/>
<path d="M824.458 240.055C826.05 240.325 829.429 241.693 830.241 243.128C830.208 244.038 830.331 243.735 829.939 244.475L829.347 243.436L828.936 243.641C828.514 245.434 829.229 247.962 829.593 249.849C829.851 250.662 829.852 250.367 829.79 251.166C824.973 252.242 821.831 243.142 824.458 240.055Z" fill="#F5F5F5"/>
<path d="M697.342 369.094C698.168 369.976 698.667 372.515 698.99 373.776C698.338 375.611 697.9 379.261 697.55 381.317C697.039 384.318 696.577 386.192 695.643 389.123L695.253 389.711C694.917 388.438 695.316 375.701 695.67 373.586C695.817 372.706 696.924 370.076 697.342 369.094Z" fill="#F5F5F5"/>
<path d="M763.99 89.8116C766.668 89.6691 769.353 89.7143 772.025 89.9474C771.422 91.1156 770.749 92.3139 770.12 93.4748L770.024 93.6673L769.497 93.7266C768.085 93.0507 764.614 91.4127 763.699 90.2206L763.99 89.8116Z" fill="#F5F5F5"/>
<path d="M952.218 105.064C953.927 105.029 956.057 105.274 957.081 106.866L956.985 107.269L956.283 107.389L950.457 107.45C951.047 106.46 951.479 105.964 952.218 105.064Z" fill="#DB4431"/>
<path d="M745.327 132.894C748.538 132.766 749.716 132.448 750.968 135.815C749.921 135.391 746.729 133.573 745.327 132.894Z" fill="#F5F5F5"/>
<path d="M833.929 241.185C835.195 241.086 835.201 241.022 836.276 241.585C836.74 242.164 836.862 242.169 836.894 242.88C835.513 242.533 834.957 242.462 833.702 241.75L833.929 241.185Z" fill="#F7F7F7"/>
</g>
</g>
<defs>
<clipPath id="clip0_671_1505">
<rect width="1264" height="461" fill="white"/>
</clipPath>
<clipPath id="clip1_671_1505">
<rect width="583" height="529" fill="white" transform="translate(484 -44)"/>
</clipPath>
</defs>
</svg>
