<svg width="335" height="385" viewBox="0 0 335 385" fill="none" xmlns="http://www.w3.org/2000/svg">
<rect width="335" height="385" rx="12" fill="#F7F7F7"/>
<g clip-path="url(#clip0_464_1669)">
<path d="M27.5 108H306.5L306 220.5V221L306.5 387H27.5V221.715V220.973V108Z" fill="#080717"/>
<path d="M294.213 231.411C297.83 231.544 303.683 228.376 305.225 224.975C305.846 223.603 305.356 222.308 306.5 220.927V387H27.5V221.715C28.341 224.387 28.3115 226.013 31.256 227.502C35.6354 229.718 41.3852 229.829 46.2358 229.911C46.8987 230.951 47.4817 231.918 48.3765 232.77C54.3543 238.459 62.7246 237.141 67.021 230.381C67.649 230.363 68.2964 230.335 68.9228 230.33C65.8323 236.99 63.916 243.812 63.2978 251.145C63.0831 253.692 63.2567 256.416 62.8575 258.925C62.4447 261.52 61.4353 264.022 60.9334 266.616C59.4567 274.25 57.1527 293.23 59.7515 300.291C60.7642 303.042 62.7543 305.016 65.405 306.226C66.138 306.56 66.8878 306.803 67.664 307.014C67.0728 311.38 66.3935 315.733 65.6263 320.071C65.1304 322.99 64.3215 326.237 64.4814 329.171C64.683 332.872 64.6759 336.553 64.7021 340.257C64.9318 355.162 65.3388 370.063 65.923 384.957L109.718 384.853C110.166 370.558 111.52 356.157 111.967 341.851C112.061 338.845 112.11 337.11 113.524 334.367C114.109 333.131 114.665 329.318 114.794 327.878C115.395 329.679 115.726 331.284 117.285 332.454C117.303 339.616 115.347 346.361 115.389 353.176C115.454 363.563 117.224 374.51 117.71 384.908L164.143 384.946L165.083 351.355C165.341 343.084 165.886 333.585 165.396 325.45C167.579 325.418 170.095 325.165 171.58 323.333C177.328 316.244 175.286 305.223 173.104 297.086C170.389 286.959 168.207 275.755 160.445 268.152C157.322 265.265 150.507 260.89 146.776 258.809C148.181 258.47 149.728 258.127 151.066 257.608C150.776 255.5 150.374 253.461 150.073 251.375C153.502 247.133 154.609 242.894 155.083 237.514C159.161 236.57 161.161 234.959 163.174 231.309C165.288 231.304 168.536 230.267 170.541 229.56C171.615 229.034 172.141 228.732 173.108 228.001C174.711 229.039 177.926 229.212 179.834 229.635C183.673 230.208 188.425 230.889 192.33 231.059C197.304 236.807 205.336 237.414 210.235 231.255C218.036 231.32 226.459 231.092 234.164 231.315L235.388 232.099C237.472 232.249 239.313 232.124 241.358 232.152C242.296 235.344 243.127 238.64 244.092 241.797C243.17 242.437 240.515 244.162 239.815 244.772C239.935 245.834 240.543 248.455 240.371 249.162C239.985 250.748 238.786 253.159 238.079 254.684C236.974 257.012 235.91 259.359 234.887 261.725C232.152 268.046 230.011 274.609 228.492 281.327C222.855 277.035 217.263 272.684 211.716 268.276C210.411 267.238 209.174 266.102 207.873 265.061C207.271 264.579 207.091 264.376 206.326 264.547C203.34 262.647 200.899 259.816 197.734 258.169C195.379 256.942 176.006 252.793 173.754 253.34C173.38 253.431 173.175 253.581 172.942 253.888C172.726 254.804 173.153 255.189 173.949 255.559C175.507 256.284 177.271 256.54 178.828 257.249C179.319 263.221 179.571 262.088 184.808 264.228C187.432 265.301 189.847 266.346 192.617 267.109C195.122 268.154 197.934 270.725 200.394 272.075C199.207 273.197 198.811 273.575 198.065 275.005C197.715 274.767 197.297 274.465 196.934 274.268C188.712 275.722 181.042 275.819 172.886 274.144C172.572 274.079 172.311 274.106 172.033 274.247C171.799 275.135 173.144 277.147 173.565 278.009C174.452 279.855 175.292 281.724 176.084 283.613C180.443 294.149 182.477 302.901 183.809 314.113L202.49 313.516C204.532 313.459 210.928 313.412 212.563 313.159C212.337 310.548 211.623 307.418 211.051 304.83C213.823 305.021 216.6 305.123 219.377 305.138C219.242 305.856 219.069 306.674 218.961 307.388C222.355 308.249 225.742 309.136 229.122 310.049C237.972 312.529 257.206 318.623 265.413 313.884C268.114 312.324 268.536 309.603 269.253 306.83C270.42 302.311 271.377 297.598 271.997 292.975C273.38 282.673 274.631 260.162 269.363 251.17C268.102 249.018 266.067 247.679 263.678 247.067C262.529 246.773 258.582 246.718 258.276 246.41C258.486 246.119 258.644 246.077 259.017 246.043C270.93 244.947 272.564 255.84 273.389 265.07C274.518 278.779 273.423 292.581 270.147 305.941C269.614 308.079 269.136 311.098 267.706 312.808C265.673 315.24 261.991 316.064 258.977 316.269C250.399 316.853 241.533 314.11 233.318 311.907C232.144 311.593 226.751 309.745 226.116 309.961L225.82 309.848C225.315 309.581 224.806 309.322 224.292 309.07C224.124 314.404 224.523 320.737 224.716 326.169L225.278 340.035C225.364 342.282 225.372 344.933 225.506 347.123C226.522 347.335 227.542 347.53 228.566 347.706C228.98 357.509 230.404 374.525 231.067 384.88C231.124 384.943 231.182 385.003 231.24 385.066L231.663 385.109C232.032 384.959 232.596 384.965 233.005 384.962C241.236 384.938 249.525 384.918 257.751 384.929C259.188 384.932 266.852 384.853 267.751 385.068L268.36 384.935C268.879 384.153 270.311 350.949 270.325 347.49C272.764 346.907 276.836 345.979 279.146 345.168L278.615 308.651C278.572 299.804 278.418 290.958 278.153 282.115C277.963 274.172 278.117 261.548 275.626 254.229C272.999 246.51 265.548 238.142 261.27 231.35C265.996 231.346 270.723 231.374 275.449 231.435C275.75 231.79 276.066 232.133 276.394 232.463C279.898 236 285.34 236.999 289.813 234.803C291.678 233.887 292.768 232.872 294.213 231.411Z" fill="#F7F7F7"/>
<path d="M173.108 228.001C174.711 229.038 177.926 229.211 179.834 229.634C178.243 230.036 176.476 229.083 174.843 229.08C175.298 229.258 175.632 229.31 175.921 229.643C175.474 229.639 174.995 229.558 174.665 229.756C175.108 229.8 175.734 229.753 176.042 229.97C174.744 230.311 171.95 229.722 170.673 229.574L170.541 229.56C171.615 229.034 172.141 228.732 173.108 228.001Z" fill="#F3E4E2"/>
<path d="M27.5 108H306.5V219.562L306.02 220.473C305.871 220.147 305.909 215.25 305.721 214.168C305.301 211.742 303.568 210.904 303.23 209.445C302.658 206.964 302.688 203.449 302.323 200.846C298.788 200.301 295.19 199.907 291.7 199.142C294.565 198.033 296.176 198.02 294.459 194.672C294.896 194.48 295.413 194.271 295.829 194.055C298.55 187.651 292.345 183.113 286.976 180.808C283.689 179.397 278.821 179.231 275.315 178.659C270.165 178.509 270.493 177.945 266.198 175.684C260.664 172.771 254.854 169.567 248.843 167.772C239.174 165.877 228.237 167.307 218.772 169.78C214.775 170.824 210.405 172.817 206.458 173.427C201.929 174.126 196.327 173.495 191.649 173.679C189.375 173.769 184.686 169.726 182.47 168.707C176.529 164.94 170.649 164.004 163.735 164.236C160.936 164.33 157.406 164.074 154.616 164.602C147.856 165.879 139.642 168.788 133.518 171.894C130.411 171.557 127.332 171.32 124.248 171.076C122.706 170.954 118.584 171.199 117.392 170.783C114.325 169.715 111.143 167.656 107.918 166.591C105.934 165.919 103.888 165.445 101.811 165.175C97.6339 164.626 92.1547 164.683 87.8812 164.658C85.7377 164.645 80.3683 164.579 78.4671 164.963C71.251 166.419 63.6395 169.924 56.8252 172.73C55.7392 173.177 53.165 174.611 52.2741 174.658C50.1363 174.771 47.6066 174.216 45.3482 174.164C43.5284 178.901 40.4071 187.932 41.8371 192.988C42.5272 195.428 49.5013 195.575 51.859 196.037C49.9682 197.205 45.5544 199.116 43.4212 199.744C40.2461 200.68 35.8952 200.492 32.5522 200.809C31.5194 203.814 31.1518 207.673 30.1362 210.679C29.7208 211.908 28.4886 212.595 28.0289 214.416C27.5818 216.187 28.0187 219.718 27.5 220.973V108Z" fill="#F7F7F7"/>
<path d="M229.363 347.764C234.729 348.631 240.428 348.644 245.834 348.983C254.193 349.507 261.371 348.834 269.596 347.631C269.61 349.842 269.443 352.347 269.368 354.601C269.16 360.696 268.855 366.787 268.452 372.872L267.923 380.867C267.851 382.079 267.697 383.924 267.751 385.068C266.852 384.853 259.188 384.932 257.751 384.929C249.525 384.918 241.236 384.938 233.005 384.962C232.596 384.965 232.032 384.959 231.663 385.109C231.847 383.654 231.11 376.518 231.023 374.81C230.574 365.922 229.593 356.642 229.363 347.764Z" fill="#080717"/>
<path d="M225.82 309.848L226.116 309.961C226.621 310.539 227.581 310.729 228.329 310.954C227.79 314.949 227.608 319.556 227.382 323.618C227.326 323.426 227.277 323.233 227.233 323.038C226.704 320.701 226.662 317.816 226.271 315.408C226.128 314.525 225.487 310.384 225.82 309.848Z" fill="#EBAEA7"/>
<path d="M145.329 259.125C145.373 259.116 145.417 259.099 145.462 259.096C146.475 259.027 156.439 265.863 157.8 266.887C158.756 267.606 159.658 268.395 160.498 269.246C168.078 276.919 170.533 290.43 173.212 300.652C174.982 307.405 175.85 317.511 170.763 323.122C168.76 325.33 163.011 325.249 161.375 322.557C160.385 320.93 159.884 318.373 159.29 316.493C157.847 311.967 156.467 307.421 155.152 302.856C154.383 300.238 153.431 296.716 152.528 294.239C152.122 293.127 148.988 286.036 148.403 285.406H148.08L147.945 285.574C148.002 286.142 150.013 290.322 150.418 291.176C152.296 295.143 153.305 299.182 154.554 303.367C155.883 307.969 157.285 312.55 158.762 317.107C159.981 320.96 159.875 324.317 164.718 325.369C164.859 328.585 164.863 331.95 164.942 335.184C161.742 337.435 152.599 337.812 148.504 338.06C140.008 338.529 125.997 338.108 118.078 335.13C118.075 325.042 117.519 315.288 117.322 305.257C117.261 300.854 117.236 296.451 117.247 292.048C117.248 290.942 117.482 285.28 116.91 284.751L116.708 284.935C116.38 285.679 116.526 289.241 116.52 290.344C116.457 297.866 116.562 305.389 116.836 312.907L117.228 324.094C117.311 326.493 117.477 329.266 117.396 331.64C117.373 331.607 117.35 331.575 117.327 331.542L117.214 331.379C112.237 324.199 110.579 297.836 111.277 288.686C111.847 281.206 113.568 271.967 118.437 265.951C120.474 263.435 122.051 261.898 124.432 259.776C132.526 260.869 137.389 260.481 145.329 259.125Z" fill="#F5F5F5"/>
<path d="M102.286 303.289C100.689 304.102 97.3344 304.882 95.4988 305.226C87.234 306.776 67.7196 310.219 61.8339 302.593C61.0157 301.527 60.4274 300.302 60.1062 298.996C58.6711 293.37 59.588 279.97 60.4222 274.196C62.6439 258.818 65.902 248.791 78.6777 239.107C82.2771 243.824 85.7358 245.062 91.1586 247.094C96.0495 248.926 100.607 247.71 98.5055 241.469C100.007 242.225 102.523 243.516 103.616 244.919C108.603 251.316 111.732 260.631 113.421 268.505C113.617 269.417 114.111 271.434 114.087 272.131C111.754 277.956 110.574 284.91 110.441 291.19C107.961 291.492 105.801 291.937 103.51 292.997C102.835 293.309 101.791 294.239 101.196 294.315C100.515 294.403 100.328 293.834 99.1526 293.872C94.8253 294.014 90.0352 294.508 85.7153 293.887C82.0717 293.501 78.0336 292.676 74.9706 290.58C73.8802 285.588 76.2936 276.625 76.8312 271.448C76.9374 270.424 77.7382 267.184 77.3322 266.469L77.0982 266.434C77.0557 266.486 77.0097 266.534 76.9707 266.588C76.3974 267.386 74.3401 282.467 74.2172 284.24C74.0641 286.453 73.9886 288.715 74.3068 290.914C79.5381 295.727 93.187 294.826 99.9588 294.561C101.141 297.684 101.651 300.051 102.286 303.289Z" fill="#F5F5F5"/>
<path d="M94.099 272.155C99.0117 272.375 104.017 272.222 108.936 272.272C110.625 272.289 112.402 272.251 114.087 272.13C111.754 277.956 110.574 284.91 110.441 291.19C107.961 291.492 105.801 291.936 103.51 292.997C102.835 293.309 101.791 294.239 101.196 294.315C100.515 294.403 100.328 293.834 99.1526 293.872C94.8253 294.014 90.0352 294.508 85.7153 293.886C85.8022 293.873 86.0009 293.791 86.0932 293.756C86.7267 292.455 88.0721 288.376 88.6391 286.814C90.4003 281.906 92.2206 277.02 94.099 272.155Z" fill="#DB4431" fill-opacity="0.4"/>
<path d="M86.9215 186.819C91.3155 186.492 96.1598 186.815 100.561 187.014C103.318 187.354 106.92 187.16 109.582 187.948C118.507 190.589 127.071 195.168 135.288 199.492C137.656 200.738 141.538 202.74 143.412 204.241C144.871 203.812 147.045 203.182 148.552 203.13C156.256 202.863 165.714 205.699 171.447 210.963C172.103 211.566 173.177 214.305 173.501 215.233C171.915 215.158 170.331 215.054 168.749 214.922C168.712 213.544 168.757 210.645 167.85 209.61C167.421 209.12 163.748 208.973 163.001 208.91C162.147 208.837 159.991 208.638 159.331 209.187C158.758 210.515 160.958 212.827 161.859 213.706C163.195 215.011 165.315 215.519 167.138 215.586C169.299 215.665 171.652 216.012 173.8 215.938C174.25 217.305 174.581 218.708 174.79 220.132C175.838 227.781 169.918 229.644 163.648 230.488C163.826 229.946 164.028 229.337 164.162 228.786C165.011 225.261 164.413 221.543 162.503 218.462C160.112 214.575 155.638 211.938 151.063 211.829C149.031 211.78 147.76 212.315 146.073 213.378C132.763 209.031 128.332 220.755 124.953 230.999C118.077 230.672 110.709 230.797 103.987 230.36C105.698 226.815 106.405 224.744 107.151 220.951L107.477 220.598C110.917 216.91 111.004 208.769 109.128 204.285C108.848 203.615 108.369 202.77 108.019 202.129C114.477 203.359 119.848 203.826 126.35 204.084C129.388 204.205 132.534 204.561 135.582 204.589C136.293 205.024 137.716 206.109 138.478 205.816L138.524 205.564C137.99 204.908 132.418 201.907 131.244 201.237C128.074 199.255 124.12 197.328 120.753 195.704C117.441 194.106 112.583 191.656 108.976 190.938C105.321 190.211 100.454 189.983 96.6729 189.766C98.1559 191.602 99.616 194.392 100.287 196.647C98.4586 196.218 97.3222 195.916 95.4626 195.887C94.6586 193.846 93.8396 191.67 92.8045 189.739C83.7917 189.608 74.985 191.959 66.6668 195.288C66.0962 195.516 65.1276 195.843 64.6901 196.223C64.604 196.542 64.5593 196.687 64.7702 196.988C66.0066 198.755 80.0577 200.663 82.7986 201.142C79.895 203.95 76.2064 206.423 75.3539 210.716C74.7575 213.719 75.9917 216.021 77.4382 218.528C75.2921 220.462 72.9644 223.278 71.3817 225.715C70.6368 226.862 70.1267 228.162 69.2666 229.342C68.9274 229.561 68.5846 229.488 68.1623 229.472C67.9176 229.166 68.1566 228.865 68.3623 228.423C69.1007 226.839 69.1865 225.026 68.9576 223.312C68.5282 220.248 66.9035 217.478 64.4388 215.608C56.977 209.933 45.9668 214.401 44.8024 223.78C44.5753 225.61 44.8952 227.366 45.1709 229.171C40.8426 229.053 36.4202 228.785 32.3557 227.156C28.4597 225.595 28.5495 223.083 28.5596 219.386C28.5644 217.624 28.442 215.237 29.1412 213.569C29.4966 212.721 30.3484 212.026 30.8277 210.983L30.9091 210.803C34.2964 211.026 38.5773 210.442 41.4808 208.477C44.3671 206.523 44.0821 205.575 41.0582 204.05C38.2765 202.647 35.612 202.219 32.5779 201.668C35.7681 201.242 40.8303 201.364 43.7692 200.491C46.5243 199.672 51.0443 197.308 53.8808 196.081C61.0064 192.997 68.7227 189.64 76.2743 187.884C78.9471 187.263 84.2116 186.916 86.9215 186.819Z" fill="#F5F5F5"/>
<path d="M64.8021 204.634C65.9159 204.614 69.4257 204.378 70.1453 204.991C70.269 205.499 70.2627 205.23 69.9957 205.82C68.8059 205.846 65.4478 206.113 64.6571 205.432C64.5697 204.914 64.5539 205.175 64.8021 204.634Z" fill="#080717"/>
<path d="M173.76 213.682C174.51 211.552 175.483 210.112 177.453 208.874C184.573 204.396 194.01 202.898 202.245 201.779C203.164 201.654 206.239 201.248 206.967 201.398C207.041 201.77 207.153 202.537 207.438 202.755C209.205 204.104 212.848 202.929 214.844 202.786C218.748 202.507 222.741 201.833 226.595 201.726C227.772 201.591 230.481 201.679 231.551 202.131C232.141 202.192 232.042 202.146 232.544 202.589C237.985 201.908 241.435 203.324 243.323 208.808C243.595 209.597 244.869 213.472 245.666 213.419C247.148 212.271 248.031 209.947 250.172 210.295C253.447 210.826 253.209 214.427 252.12 216.725C252.321 217.211 252.309 217.341 252.148 217.861C252.837 219.259 255.08 222.222 255.314 223.25C255.475 224.623 258.723 230.646 259.549 232.074L244.765 241.442C243.914 238.051 242.839 234.899 242.041 231.412C235.284 231.368 234.3 232.382 231.202 225.37C230.799 224.458 230.328 222.205 229.63 221.627C229.008 223.498 232.012 229.004 233.361 230.479L210.834 230.44C210.908 230.28 210.98 230.121 211.051 229.96C212.368 226.983 212.679 223.981 211.466 220.898C210.381 218.194 208.259 216.036 205.572 214.908C202.891 213.745 199.852 213.721 197.152 214.841C192.366 216.805 189.721 221.624 190.417 226.758C190.577 227.938 191.134 229.157 191.589 230.249C187.855 230.086 176.811 228.856 173.626 227.5C174.2 226.785 174.782 226.089 175.129 225.232C176.585 221.643 175.065 217.06 173.76 213.682Z" fill="#F5F5F5"/>
<path d="M231.551 202.131C232.141 202.192 232.042 202.146 232.544 202.589C225.408 206.894 230.358 210.437 230.733 216.125C230.777 216.792 229.172 218.485 228.935 219.328C229.704 220.084 231.161 219.558 231.236 220.471L230.969 220.704C230.031 220.899 228.499 220.598 228.103 219.592C228.169 218.523 229.384 217.271 230.054 216.121C229.24 210.495 224.894 206.777 231.551 202.131Z" fill="#080717"/>
<path d="M252.12 216.725C252.321 217.211 252.309 217.341 252.148 217.861C251.124 219.093 250.86 219.229 249.367 219.593C248.809 222.215 248.517 224.84 247.59 227.366C247.168 228.517 243.935 231.624 242.905 231.149C243.088 230.038 245.577 229.484 246.582 227.647C248.107 224.858 247.718 221.964 248.768 219.113C248.87 218.837 249.496 218.684 249.798 218.641C250.88 218.486 251.391 217.611 252.12 216.725Z" fill="#080717"/>
<path d="M192.98 207.234C193.911 207.171 194.968 206.897 195.53 207.756C195.56 208.923 193.723 209.96 192.897 210.614C188.714 213.918 183.009 214.271 177.885 214.805C177.141 214.916 175.835 215.072 175.267 214.567C174.386 213.696 175.05 212.051 175.736 211.297C177.805 209.023 180.865 208.889 183.727 208.382C186.759 207.844 189.879 207.436 192.98 207.234Z" fill="#080717"/>
<path d="M192.069 208.048C192.711 207.961 194.086 207.956 194.786 207.935C189.922 213.058 184.974 213.134 178.464 213.96L178.284 213.986C177.489 214.098 176.297 214.322 175.67 213.841C175.078 212.118 178.024 210.217 179.478 209.948C183.624 209.181 187.868 208.414 192.069 208.048Z" fill="#F5F5F5"/>
<path d="M184.238 219.902L184.358 219.891C186.034 219.748 187.489 219.745 188.827 220.904C190.245 222.088 190.794 224.86 189.323 226.21C187.884 227.53 184.618 227.078 182.752 227.027C180.533 227.004 176.647 227.159 176.38 223.94C176.056 220.026 181.561 220.064 184.238 219.902Z" fill="#080717"/>
<path d="M236.527 222.335C237.963 223.043 235.931 224.748 235.224 225.342C234.789 225.281 234.965 225.373 234.665 225.091C234.701 224.699 236.16 223.125 236.527 222.335Z" fill="#080717"/>
<path d="M234.801 214.148C236.13 214.326 236.038 215.838 235.538 216.735C235.147 216.661 235.174 216.663 234.85 216.427C234.429 215.643 234.648 215.023 234.801 214.148Z" fill="#080717"/>
<path d="M233.187 211.568C233.992 211.523 235.456 211.258 235.911 212.004L235.79 212.486C234.999 212.282 233.653 212.426 233.209 212.082L233.187 211.568Z" fill="#080717"/>
<path d="M245.906 188.112C255.07 187.735 267.989 188.754 276.597 192.472C278.826 193.435 282.784 196.292 285.242 197.367C286.166 197.771 287.078 198.522 288.314 198.945C291.393 199.998 294.465 200.451 297.668 200.927C298.639 201.071 300.656 201.306 301.511 201.564L301.661 201.807C300.955 202.71 292.834 204.415 291.504 205.577C290.902 206.103 291.708 207.102 292.181 207.414C295.161 209.377 298.954 209.907 302.449 209.732C303.037 211.216 303.985 211.727 304.568 213.056C305.377 214.897 304.887 217.849 305.045 219.702C305.544 225.528 302.765 227.792 297.729 229.864C296.793 230.249 295.935 230.428 294.892 230.641C296.413 227.55 297.089 224.747 295.94 221.366C294.936 218.474 292.817 216.105 290.055 214.786C287.239 213.422 283.993 213.25 281.048 214.309C278.122 215.39 275.75 217.595 274.457 220.433C272.703 224.211 273.065 226.82 274.63 230.519C269.807 230.496 264.294 230.358 259.526 230.537C258.432 228.29 257.142 225.785 256.16 223.512L255.314 223.25C255.08 222.222 252.837 219.259 252.148 217.861C252.309 217.341 252.321 217.211 252.12 216.725C253.209 214.426 253.447 210.826 250.172 210.295C248.031 209.947 247.148 212.27 245.666 213.419C244.869 213.472 243.595 209.597 243.323 208.808C241.435 203.324 237.985 201.908 232.544 202.589C232.042 202.146 232.141 202.192 231.551 202.131C230.481 201.679 227.772 201.591 226.595 201.726L226.961 201.561C226.87 201.077 225.637 199.929 225.328 199.328C222.721 194.26 231.804 193.166 234.86 192.51C236.611 192.135 239.062 192.083 240.748 190.95C241.418 190.735 243.143 190.883 244.144 190.618L244.268 190.307L244.424 190.645C244.734 190.725 244.638 190.728 244.946 190.71C245.253 189.622 245.417 189.139 245.906 188.112Z" fill="#F5F5F5"/>
<path d="M244.227 190.618L244.424 190.645C244.734 190.725 244.638 190.728 244.946 190.71C246.96 190.653 249.005 190.869 251.133 190.841L250.715 191.038C251.334 191.391 252.857 191.91 253.591 192.229C257.812 194.064 261.77 197.048 261.952 202.04C261.47 202.329 261.395 202.372 260.867 202.545C261.209 203.876 261.507 205.362 261.394 206.737C261.117 210.105 257.644 220.938 256.16 223.512L255.314 223.25C255.08 222.222 252.837 219.259 252.148 217.861C252.309 217.341 252.321 217.211 252.12 216.725C253.209 214.427 253.447 210.826 250.172 210.295C248.031 209.947 247.148 212.271 245.666 213.419C244.869 213.472 243.595 209.597 243.323 208.808C241.435 203.324 237.985 201.908 232.544 202.589C232.042 202.146 232.141 202.192 231.551 202.131C230.481 201.68 227.772 201.591 226.595 201.726L226.961 201.561C226.87 201.077 225.637 199.929 225.328 199.328C222.721 194.26 231.804 193.166 234.86 192.51C236.611 192.135 239.062 192.083 240.748 190.95C241.418 190.735 243.143 190.883 244.144 190.618L244.227 190.618Z" fill="#72362F"/>
<path d="M251.133 190.841C258.908 190.777 266 191.417 273.11 194.919C274.101 195.407 276.672 196.291 277.227 197.163C277.027 198.921 264.183 201.042 261.951 202.04C261.77 197.048 257.812 194.064 253.591 192.229C252.857 191.91 251.333 191.391 250.715 191.038L251.133 190.841Z" fill="#080717"/>
<path d="M272.532 205.513C273.874 205.501 277.588 205.263 278.55 205.712C278.891 206.162 278.787 205.906 278.787 206.537C277.733 206.723 273.665 206.831 272.75 206.378C272.451 205.971 272.542 206.114 272.532 205.513Z" fill="#080717"/>
<path d="M151.596 188.237C156.131 186.417 160.679 184.629 165.24 182.876C168.906 181.46 172.243 180.008 176.072 179.031C184.906 176.737 194.006 176.629 203.051 177.086C209.077 177.265 214.636 177.982 220.243 180.355C225.241 182.47 229.189 185.844 233.812 188.537C232.236 188.845 231.06 189.075 229.534 189.559C229.452 189.494 229.369 189.43 229.286 189.367C223.23 184.736 216.048 181.251 208.453 180.243C207.24 180.082 202.866 179.14 202.471 180.681C201.956 182.694 203.781 187.635 204.413 189.735C203.009 189.557 200.597 189.524 199.114 189.462C198.3 186.865 197.779 184.014 196.721 181.544C195.759 179.3 192.041 180.156 190.182 180.446C183.236 181.533 175.568 184.024 169.508 187.608C174.659 189.402 178.75 189.106 183.821 189.572C186.065 189.778 200.85 189.99 201.737 190.502L201.806 190.975L201.868 190.972L201.985 190.576C202.254 190.433 202.778 190.357 203.051 190.404C206.077 190.919 222.628 190.835 224.228 191.952L224.304 192.166C223.087 193.011 221.018 194.048 219.641 194.827C216.131 196.813 212.315 199.066 208.452 200.263C207.149 200.666 203.775 200.886 202.249 201.071L201.588 201.171C198.125 201.225 189.801 203.051 186.304 204.107C181.422 205.582 175.87 207.713 173.328 212.408C172.372 210.625 171.246 209.979 170.345 208.598C168.646 205.993 168.152 204.338 165.284 202.541C162.081 200.535 158.038 199.873 154.363 200.908C153.381 201.099 151.591 202.235 150.652 202.302C148.118 202.482 145.979 202.802 143.493 203.356C141.555 202.169 142.921 201.739 140.891 199.972C140.245 199.899 138.742 199.9 138.385 199.356C139.212 196.77 141.02 194.482 141.609 191.955C141.875 190.814 141.223 189.09 141.909 188.306C142.968 187.832 149.154 188.602 150.792 188.695C150.452 190.852 150.097 193.007 149.725 195.159C148.415 195.207 145.292 194.741 144.336 195.422L144.442 195.309L144.469 195.558C145.583 195.961 148.943 195.989 150.33 196.041C150.865 193.724 151.259 190.599 151.596 188.237Z" fill="#4CB542"/>
<path d="M201.868 190.972L201.985 190.576C202.254 190.433 202.778 190.357 203.051 190.404C206.077 190.919 222.628 190.835 224.228 191.952L224.304 192.166C223.087 193.011 221.018 194.048 219.641 194.827C216.131 196.813 212.315 199.066 208.452 200.263C207.149 200.666 203.775 200.886 202.249 201.071C202.291 199.231 202.306 197.39 202.291 195.549C203.376 195.562 205.251 195.727 206.092 195.124L206.085 194.906C205.169 194.304 203.438 194.467 202.308 194.491C202.191 193.311 202.097 192.135 201.868 190.972Z" fill="#4CB542"/>
<path d="M174.055 193.048C175.309 193.051 178.258 192.902 179.176 193.487C179.386 193.983 179.336 193.715 179.2 194.334C178.051 194.311 174.695 194.519 173.963 193.868C173.852 193.376 173.877 193.627 174.055 193.048Z" fill="#080717"/>
<path d="M159.635 165.006C161.912 164.947 164.191 164.955 166.469 165.031C168.852 165.104 171.606 165.217 173.911 165.811C179.886 167.351 184.964 171.327 190.191 174.429C193.051 174.509 196.18 174.456 199.045 174.473C201.099 174.484 205.034 174.532 206.938 174.138C210.585 173.383 214.461 171.944 218.031 170.827C221.2 169.832 224.448 169.103 227.739 168.649C234 167.786 242.981 166.897 249.082 168.633C253.186 169.8 258.381 172.561 262.243 174.523C263.595 175.21 265.025 175.998 266.417 176.69C267.883 177.419 269.646 178.726 271.219 179.143C272.036 179.36 273.705 179.287 274.637 179.402C278.742 179.911 285.881 180.349 289.162 182.831C285.841 182.437 282.433 182.044 279.093 181.851C278.57 181.82 278.274 181.812 277.953 182.123C277.944 182.376 277.976 182.546 278.068 182.782C278.798 184.645 280.185 186.384 282.071 187.14C284.454 188.094 292.23 188.438 294.542 187.502C296.026 189.424 296.136 190.897 295.382 193.173C294.817 193.494 294.569 193.695 294.051 194.1C292.291 192.308 290.428 191.442 287.897 191.39C285.129 191.333 283.405 192.628 281.55 194.434C279.987 193.634 277.904 192.09 276.357 191.467C269.122 188.55 260.87 187.811 253.215 187.254C253.893 186.187 254.665 184.963 254.929 183.715C255.051 183.141 255.058 182.334 254.635 181.865C253.774 180.913 244.571 181.252 242.952 181.244C242.739 180.083 242.632 179.423 242.568 178.254C246.843 178.326 251.244 178.59 255.537 178.718C259.029 178.918 262.526 178.834 266.004 179.246C266.33 179.285 266.397 179.254 266.654 179.092L266.534 178.861C265.632 178.212 263.273 177.04 262.147 176.485C257.794 174.34 252.989 171.72 248.344 170.385C246.406 169.828 243.02 169.717 240.988 169.73L242.513 177.477C241.318 177.38 240.124 177.271 238.931 177.15C238.432 174.837 238.092 172.149 237.586 169.7C228.532 170.233 224.172 171.143 215.905 174.891C217.104 175.47 218.331 175.565 219.57 175.907C225.813 177.632 232.224 176.943 238.563 177.846C239.627 177.997 240.717 178.12 241.791 178.251C241.85 179.241 242.013 180.277 242.15 181.264C237.386 181.323 232.355 181.973 227.919 183.733C217.53 176.96 209.427 176.059 197.35 176.033C190.484 176.018 184.028 176.47 177.261 177.827C173.681 178.545 170.327 180.346 166.816 181.274C162.411 181.484 156.606 180.729 152.011 180.577C152.723 179.839 153.842 178.769 153.257 177.724C152.239 177.154 148.803 177.156 147.817 177.414C147.667 177.753 147.717 177.69 147.497 177.978C146.769 177.766 145.45 176.928 144.71 176.553C141.178 174.762 138.742 172.818 134.826 172.151C142.669 168.425 150.899 165.317 159.635 165.006Z" fill="#F5F5F5"/>
<path d="M165.363 166.616C167.647 166.688 171.196 166.774 173.443 167.103C174.233 167.212 175.004 167.43 175.734 167.752C177.176 168.381 185.719 173.217 186.387 174.116L186.241 174.388C185.286 174.485 179.504 174.015 178.174 173.933C171.832 173.545 165.439 173.001 159.088 172.689C156.365 172.461 145.615 172.156 143.747 171.42C143.626 170.523 145.71 170.164 146.433 169.9C151.763 167.948 156.553 166.886 162.217 166.642C162.48 168.075 162.632 170.596 162.793 172.156L166.933 172.432C166.101 170.248 165.722 168.897 165.363 166.616Z" fill="#080717"/>
<path d="M164.28 175.353C165.243 175.322 168.176 175.176 168.761 175.896C168.745 176.413 168.816 176.162 168.419 176.631C167.358 176.619 164.434 176.82 163.891 175.957C164.021 175.504 163.911 175.707 164.28 175.353Z" fill="#080717"/>
<path d="M80.9067 307.99C85.9715 307.526 97.3184 306.38 102.452 303.966C102.598 303.898 103.001 302.981 103.103 302.746C104.236 302.54 105.738 302.514 106.923 302.426C108.094 302.34 109.573 302.122 110.713 302.11C110.762 304.755 111.007 307.097 111.241 309.728C111.526 313.987 112.693 319.502 113.439 323.703C113.221 323.543 113.088 323.454 112.855 323.316L112.624 323.457C112.287 324.057 112.302 324.667 112.164 325.323C112.008 326.062 111.597 326.602 110.966 327.01C104.69 331.069 84.156 331.359 76.4953 330.678C72.5846 330.33 68.8443 329.604 65.0211 328.726C65.1004 327.552 65.2601 326.48 65.4609 325.327C66.5142 319.281 67.6005 313.288 68.3645 307.197C73.3759 308.165 75.9236 308.039 80.9067 307.99Z" fill="#F5F5F5"/>
<path d="M80.9067 307.99C85.9715 307.526 97.3184 306.38 102.452 303.966C102.598 303.898 103.001 302.981 103.103 302.746C104.236 302.54 105.739 302.514 106.923 302.426C108.094 302.34 109.573 302.122 110.713 302.11C110.762 304.755 111.007 307.097 111.241 309.728C110.826 310.413 110.776 311.421 110.676 312.233C107.557 312.453 104.241 312.384 101.11 312.558C93.8282 312.961 86.3257 313.066 79.0665 313.559C79.7144 311.688 80.3411 309.886 80.9067 307.99Z" fill="#DB4431" fill-opacity="0.4"/>
<path d="M115.233 171.683C121.451 171.552 130.642 171.799 136.782 173.378C137.814 173.643 141.856 175.852 142.984 176.469C145.518 177.843 148.029 179.259 150.515 180.719C151.168 181.111 153.844 182.997 154.351 182.948L154.065 182.929L154.361 182.878C154.214 182.117 153.538 181.783 152.943 181.4C156.54 181.493 161.231 181.86 164.832 182.125C163.427 182.759 161.325 183.502 159.83 184.093C156.661 185.346 153.503 186.626 150.355 187.934C148.123 187.518 143.593 187.338 141.354 187.596C139.803 187.774 140.448 191.245 140.833 192.345C139.829 194.073 137.992 197.873 137.406 199.753L131.692 196.695C124.908 193.15 114.295 187.621 106.74 186.717C99.0411 185.796 90.1208 185.836 82.4019 186.319C83.5168 182.818 80.977 182.83 78.206 182.532C77.3129 182.436 76.3816 182.334 75.4863 182.232C81.3603 181.452 83.7779 180.799 89.1227 178.329C93.5619 176.278 98.7752 174.247 103.453 172.894C106.877 171.904 111.639 171.782 115.233 171.683Z" fill="#F5F5F5"/>
<path d="M119.728 173.998C120.233 173.998 120.213 173.916 120.582 174.144C121.465 176.305 122.314 179.814 122.792 182.134C124.183 182.144 125.821 182.245 127.226 182.303C126.465 179.683 125.379 176.719 124.476 174.118C127.238 174.286 132.304 174.79 134.881 175.609C139.554 177.094 144.735 180.582 148.962 183.078C149.488 183.389 151.25 184.235 151.42 184.545L151.217 184.749C147.964 184.309 145.248 184.092 141.967 183.895C134.537 183.525 127.108 183.106 119.683 182.637C117.517 182.514 98.7011 181.888 98.1921 180.517C98.3425 179.216 100.587 178.034 101.662 177.482C107.215 174.626 113.6 174.191 119.728 173.998Z" fill="#080717"/>
<path d="M123.294 186.499C124.332 186.542 127.643 186.529 128.259 187.159C128.263 187.591 128.322 187.389 128.006 187.762C126.932 187.878 123.871 187.986 123.097 187.301C122.986 186.791 122.971 187.054 123.294 186.499Z" fill="#080717"/>
<path d="M172.983 274.919C183.565 276.519 186.709 276.474 197.228 275.015C199.188 276.538 206.211 287.528 207.216 289.945C205.22 289.267 198.333 286.429 196.852 288.095C196.906 289.612 202.617 292.429 204.036 293.169C202.838 296.557 204.545 301.402 207.469 303.504C208.486 304.125 209.104 304.382 210.229 304.676C210.882 307.248 211.34 309.906 211.802 312.52C202.971 312.993 193.238 313.126 184.351 313.363C183.94 304.193 180.135 291.574 176.682 283.053C176.053 281.5 173.151 275.74 172.983 274.919Z" fill="#F5F5F5"/>
<path d="M84.7405 165.28C91.655 165.229 99.5204 164.954 106.195 166.789C108.721 167.484 113.728 169.656 116.016 171.042C114.177 171.021 112.387 171.08 110.549 171.136C106.059 168.559 99.9081 167.584 94.7477 167.507C95.5534 169.474 96.9797 171.721 97.9224 173.953C94.8142 175.131 91.5406 176.486 88.5419 177.787C84.4312 179.57 81.0699 181.108 76.5261 181.386C74.5946 181.504 72.295 181.925 71.7231 184.057C71.2861 185.687 71.267 186.742 72.0465 188.274C71.1035 188.589 70.2238 188.843 69.2658 189.111L68.7615 188.273C68.5097 187.908 68.2514 187.549 67.9863 187.194C66.4878 185.186 64.6075 183.977 62.0946 183.63C59.558 183.285 56.989 183.97 54.9608 185.532C51.7512 188.033 51.0776 191.273 50.5845 195.034C48.7174 194.945 46.564 194.572 44.734 194.175C41.5012 193.473 42.1853 190.477 42.3829 188.023C42.5634 185.781 43.0463 183.934 43.6935 181.79C47.5687 182.297 57.065 181.301 52.8377 175.242C54.1255 174.583 56.6623 173.587 58.1431 172.959C64.6432 170.202 71.6553 167.225 78.533 165.611C79.8613 165.3 83.3114 165.307 84.7405 165.28Z" fill="#DB4431"/>
<path d="M89.1677 167.32L91.764 167.269C92.9533 169.673 93.7631 172.24 94.508 174.807C88.2476 174.144 81.9745 173.607 75.6921 173.199C73.1503 172.988 70.5254 172.901 67.9719 172.786C69.5563 172.024 71.1665 171.531 72.7798 170.912C78.3936 168.756 83.1752 167.641 89.1677 167.32Z" fill="#080717"/>
<path d="M69.1727 177.39C70.3121 177.379 74.2072 177.168 74.9644 177.804C75.0496 178.262 75.0695 178.043 74.887 178.484L74.5339 178.601C73.389 178.557 69.0612 178.892 68.5673 178.014C68.7719 177.505 68.6144 177.735 69.1727 177.39Z" fill="#080717"/>
<path d="M101.691 205.056C105.662 205.517 107.119 212.167 106.953 215.414C106.476 215.779 106.398 215.205 105.612 215.545L105.547 215.891C105.954 216.13 106.458 216.143 106.955 216.218C106.701 221.085 105.266 228.098 101.903 231.784C98.0227 236.037 94.3744 232.554 91.3095 229.628L91.1283 229.782C91.037 231.196 94.627 233.475 95.7506 234.074C94.4668 236.696 93.8309 239.337 94.2243 242.266C94.3085 242.893 94.1641 243.783 94.8316 243.984L95.0425 243.803C95.1419 242.974 94.8526 240.933 94.846 239.748C97.1222 240.749 98.5807 241.256 98.2341 244.217C98.0851 245.49 97.6971 246.118 96.738 246.934C94.3987 247.694 91.3256 246.362 89.129 245.542C84.8195 243.933 82.0521 242.256 79.2302 238.645C82.4578 235.027 83.4485 232.558 84.5023 227.708C84.7555 226.543 84.883 224.284 85.2393 223.264C85.6696 223.191 85.9674 223.183 86.3243 222.935C86.1815 222.042 84.7176 222.789 83.9073 221.889C80.6187 218.236 84.4778 211.181 87.9732 217.547C88.989 219.396 92.7849 215.626 93.7788 214.789C97.1042 211.988 99.0951 208.395 101.691 205.056Z" fill="#F5F5F5"/>
<path d="M96.7282 226.558C97.7151 226.867 100.155 227.145 100.56 227.948C100.559 228.414 100.416 228.542 100.153 228.929C97.9717 229.992 96.3972 229.061 96.7282 226.558Z" fill="#080717"/>
<path d="M97.265 227.609C98.123 227.565 99.0317 227.776 99.812 228.128L99.8114 228.457C98.7505 228.737 97.6797 228.82 97.265 227.609Z" fill="#F5F5F5"/>
<path d="M102.51 219.344C102.826 219.381 102.957 219.416 103.267 219.497C103.427 220.392 103.584 222.239 103.436 223.165C103.326 223.862 102.839 224.148 102.296 224.486C101.937 224.491 101.959 224.505 101.659 224.31L101.702 224.057C102.199 223.574 102.324 223.569 102.996 223.317C102.789 221.965 102.578 220.715 102.51 219.344Z" fill="#080717"/>
<path d="M98.1262 218.315C98.5948 218.187 99.0806 218.453 99.225 218.917C99.3697 219.381 99.1212 219.876 98.6632 220.037C98.3515 220.146 98.0052 220.077 97.7598 219.856C97.5143 219.635 97.4091 219.298 97.4854 218.977C97.562 218.655 97.8077 218.402 98.1262 218.315Z" fill="#080717"/>
<path d="M105.246 219.1C105.942 219.181 106.058 219.139 106.284 219.822C106.186 220.328 106.149 220.324 105.841 220.717L105.134 220.707C104.721 220.428 104.855 220.61 104.703 220.15C104.821 219.582 104.863 219.561 105.246 219.1Z" fill="#080717"/>
<path d="M97.2216 213.445C97.8788 213.447 99.7871 213.342 99.892 214.127L99.6735 214.381C98.9455 214.215 97.62 214.271 97.1775 213.983L97.2216 213.445Z" fill="#080717"/>
<path d="M103.387 231.264C109.93 231.165 118.071 231.473 124.627 231.785C122.23 239.071 119.479 251.004 119.159 258.725C120.592 259.175 122.088 259.427 123.563 259.697C120.747 262.138 118.847 264.044 116.714 267.137C115.864 268.397 115.358 269.31 114.649 270.635C113.809 267.215 113.333 264.178 112.108 260.671C110.155 255.08 107.141 246.562 102.407 242.818C100.858 241.592 96.8841 239.851 94.9747 238.874C95.2545 237.146 95.6109 236.013 96.4122 234.48C99.9954 234.849 101.104 233.686 103.387 231.264Z" fill="#F7F7F7"/>
<path d="M206.949 287.896C207.884 288.148 209.543 288.902 210.556 289.244C214.175 290.468 218.617 292.044 221.904 294.058C220.995 297.443 220.195 300.856 219.505 304.293C214.984 304.374 209.985 304.966 206.636 301.844C205.312 300.35 204.694 298.023 204.456 296.076C204.282 294.663 204.486 294.053 205.143 292.839C202.909 291.786 199.208 289.926 197.515 288.25C201.798 287.946 205.637 290.84 209.893 291.443C210.389 291.513 211.063 291.609 211.477 291.302C211.51 290.277 208.365 290.889 208.059 289.689C207.99 289.418 207.159 288.204 206.949 287.896Z" fill="#F5F5F5"/>
<path d="M173.684 253.948C176.863 253.858 182.525 255.327 185.735 255.944C188.619 256.499 194.388 257.39 197.006 258.68C199.32 259.82 203.672 263.483 205.807 265.248C204.623 266.47 202.175 270.026 200.831 271.652C199.013 269.952 195.034 267.867 192.941 266.342C190.315 264.428 188.052 262.311 185.661 260.127C185.343 259.79 185.2 259.545 184.746 259.628C184.624 260.76 189.873 264.926 191.014 265.913C188.651 265.092 185.934 264.083 183.769 262.847C183.394 261.854 183.301 261.258 183.138 260.222C183.399 259.504 183.739 258.868 184.084 258.189C187.209 259.031 190.326 260.079 193.428 261C194.557 261.335 195.512 262.314 196.147 262.189C196.411 261.82 196.359 262.018 196.329 261.582C194.995 260.233 189.795 259.404 188.062 258.409C187.93 258.333 186.152 256.732 185.761 256.42C184.859 256.781 184.281 257.005 183.572 257.673C183.272 257.496 181.913 256.766 181.709 256.6C181.006 255.785 179.203 256.544 178.988 256.453C177.932 256.007 173.399 255.297 173.684 253.948Z" fill="#F5F5F5"/>
<path d="M242.39 245.945L242.55 246.114C242.385 246.531 242.107 246.96 241.874 247.351C242.265 246.997 242.478 246.878 242.917 246.409C243.632 247.742 244.1 248.561 245.084 249.703C239.018 261.47 233.068 276.5 230.317 289.409L230.008 290.968C229.14 290.772 228.273 290.531 227.412 290.303C227.802 288.279 228.045 286.222 228.475 284.183C229.984 277.214 232.103 270.392 234.808 263.795C236.007 260.881 237.261 257.99 238.569 255.123C239.616 252.791 240.833 250.318 241.455 247.844C241.686 246.926 241.838 246.749 242.39 245.945Z" fill="#EBAEA7"/>
<path d="M242.244 182.03C245.661 181.795 250.375 181.915 253.78 182.353C255.43 182.565 252.737 186.679 252.315 187.379C251.715 187.389 251.13 187.337 250.531 187.297C249.732 186.092 248.597 184.84 246.953 185.356C245.963 185.667 245.646 186.503 245.225 187.366C244.37 187.398 243.608 187.454 242.756 187.528C240.559 187.611 236.935 188.057 234.775 188.432C232.698 186.988 230.737 185.759 228.687 184.237C233.024 182.546 237.645 182.267 242.244 182.03Z" fill="#080717"/>
<path d="M154.021 227.578C154.208 227.786 154.239 227.977 154.255 228.269C154.683 236.049 154.817 243.997 149.921 250.514C149.691 249.195 149.583 248.044 149.455 246.716C149.266 244.231 149.015 241.825 149.227 239.325C149.324 238.191 149.766 238.221 150.03 237.278C149.811 236.949 149.29 236.842 148.879 236.776C146.841 236.452 147.52 233.882 147.924 232.476C148.434 230.697 150.133 230.095 151.698 229.385C152.017 229.731 151.744 230.122 152.148 230.828L152.358 230.878C153.033 230.572 153.528 228.547 154.021 227.578Z" fill="#F5F5F5"/>
<path d="M240.748 190.95C238.739 190.974 235.684 191.071 233.735 191.542C228.408 192.83 223.312 195.867 218.692 198.732C217.221 199.704 215.86 200.877 214.341 201.767C213.284 202.387 208.654 203.234 208.045 202.015C208.29 201.309 209.54 200.721 210.217 200.476C214.191 199.035 217.523 196.93 221.143 194.815C223.714 193.313 226.641 191.825 229.33 190.535C233.938 188.836 240.129 188.445 245.008 188.158C244.66 188.972 244.515 189.462 244.267 190.307L244.143 190.618C243.143 190.883 241.418 190.735 240.748 190.95Z" fill="#F5F5F5"/>
<path d="M259.815 231.148C259.987 231.163 260.185 231.201 260.358 231.229C261.038 232.029 261.688 233.006 262.296 233.875C256.346 237.827 249.954 243.265 245.516 248.845C244.406 247.484 244.003 246.822 243.252 245.231L243.058 244.914C242.554 245 241.393 246.905 240.924 247.508C240.716 246.529 240.654 246.188 240.614 245.188C242.334 243.439 246.608 240.942 248.71 239.592C252.529 237.138 256.685 234.773 260.406 232.184C260.03 231.733 259.966 231.696 259.815 231.148Z" fill="#EBAEA7"/>
<path d="M110.313 291.958C110.416 292.201 110.531 300.105 110.603 301.274C109.008 301.585 104.613 302.071 102.876 301.914C102.735 301.901 102.678 301.484 102.623 301.278C102.283 299.426 101.572 297.087 101.053 295.234C101.874 294.984 102.133 294.77 102.822 294.321C105.011 292.894 107.737 292.226 110.313 291.958Z" fill="#F5F5F5"/>
<path d="M32.8874 202.408C36.5147 203.21 39.9954 203.741 42.9077 206.2C41.9437 207.327 41.125 207.889 39.8386 208.551C36.9028 209.825 34.3058 210.185 31.1395 210.014C31.7039 207.5 32.254 204.899 32.8874 202.408Z" fill="#F5F5F5"/>
<path d="M278.81 182.656C282.219 182.866 285.622 183.155 289.016 183.524C290.684 183.712 294.201 184.98 293.937 187.078C290.959 187.374 286.048 187.329 283.099 186.643C280.826 186.114 279.878 184.553 278.81 182.656Z" fill="#F5F5F5"/>
<path d="M45.7563 174.884C47.5547 175.052 49.5227 175.164 51.299 175.483C51.9294 175.646 52.7393 176.072 53.0019 176.702C53.8868 178.828 52.3791 179.632 50.8295 180.38C48.7932 181.033 46.0991 181.327 43.9838 180.999C44.6241 178.976 45.2151 176.936 45.7563 174.884Z" fill="#DB4431"/>
<path d="M301.31 202.96L301.618 202.971C301.925 203.505 302.171 207.848 302.312 208.918C299.35 209.034 297.016 208.833 294.254 207.726C293.247 207.206 292.752 206.857 291.954 206.088C293.211 205.447 299.583 203.535 301.31 202.96Z" fill="#F5F5F5"/>
<path d="M73.7742 182.626C74.424 182.569 79.5803 183.389 80.5604 183.587C81.0148 183.679 81.5186 183.908 81.8954 184.224C82.1919 185.032 81.7938 185.622 81.4508 186.424L79.3716 186.641C77.4437 186.789 75.764 187.402 73.9886 187.61C71.1311 187.946 72.1659 183.894 73.7742 182.626Z" fill="#F5F5F5"/>
<path d="M160.272 209.537C162.484 209.595 165.078 209.818 167.283 210.065C167.373 210.325 167.454 210.588 167.526 210.853C167.748 211.69 168.193 214.154 167.793 214.864C165.693 214.762 164.204 214.625 162.425 213.221C161.684 212.636 160.105 210.68 160.025 209.77L160.272 209.537Z" fill="#F5F5F5"/>
<path d="M250.874 278.497C251.228 278.557 251.234 278.532 251.521 278.733C251.655 279.64 251.721 280.641 251.784 281.56C252.147 286.832 252.838 292.205 253.029 297.479C250.543 296.877 248.037 296.136 245.542 295.507C240.596 294.278 235.642 293.086 230.679 291.932C230.324 291.849 230.43 291.91 230.179 291.662L230.209 291.388C230.997 290.954 249.815 295.988 252.294 296.64C252.067 291.596 251.523 286.61 251.062 281.584C250.968 280.552 250.876 279.535 250.874 278.497Z" fill="#F5F5F5"/>
<path d="M180.041 256.74C180.874 256.881 182.643 257.597 183.068 258.349C183.051 258.825 183.115 258.667 182.91 259.054L182.6 258.51L182.385 258.617C182.164 259.556 182.538 260.88 182.729 261.868C182.864 262.294 182.864 262.139 182.832 262.558C180.311 263.121 178.666 258.356 180.041 256.74Z" fill="#F5F5F5"/>
<path d="M113.501 324.308C113.934 324.77 114.195 326.1 114.364 326.76C114.023 327.721 113.794 329.632 113.61 330.709C113.343 332.28 113.101 333.261 112.612 334.796L112.408 335.104C112.233 334.437 112.441 327.768 112.627 326.661C112.704 326.2 113.283 324.822 113.501 324.308Z" fill="#F5F5F5"/>
<path d="M148.389 178.068C149.791 177.993 151.196 178.017 152.595 178.139C152.279 178.75 151.927 179.378 151.598 179.986L151.547 180.087L151.271 180.118C150.532 179.764 148.715 178.906 148.236 178.282L148.389 178.068Z" fill="#F5F5F5"/>
<path d="M246.917 186.054C247.812 186.036 248.927 186.164 249.463 186.998L249.413 187.209L249.045 187.272L245.995 187.304C246.304 186.785 246.53 186.526 246.917 186.054Z" fill="#DB4431"/>
<path d="M138.62 200.627C140.3 200.56 140.917 200.394 141.572 202.157C141.024 201.935 139.354 200.983 138.62 200.627Z" fill="#F5F5F5"/>
<path d="M184.998 257.331C185.661 257.279 185.664 257.246 186.227 257.541C186.47 257.844 186.534 257.847 186.55 258.219C185.828 258.037 185.537 258 184.88 257.627L184.998 257.331Z" fill="#F7F7F7"/>
</g>
<defs>
<clipPath id="clip0_464_1669">
<rect width="335" height="385" fill="white"/>
</clipPath>
</defs>
</svg>
