<svg width="1264" height="461" viewBox="0 0 1264 461" fill="none" xmlns="http://www.w3.org/2000/svg">
<g clip-path="url(#clip0_670_6890)">
<rect width="1264" height="461" fill="#F7F7F7"/>
<rect x="632" y="127" width="45" height="45" rx="22.5" fill="#4CB542" fill-opacity="0.16"/>
<path d="M648.967 139H655.817C657.278 139 658.544 139.29 659.617 139.87C660.707 140.45 661.539 141.28 662.113 142.36C662.704 143.44 663 144.72 663 146.2C663 147.62 662.713 148.85 662.14 149.89C661.586 150.93 660.781 151.73 659.728 152.29C658.674 152.83 657.417 153.1 655.956 153.1H646V150.22H655.762C657.13 150.22 658.147 149.88 658.812 149.2C659.478 148.5 659.811 147.45 659.811 146.05C659.811 144.61 659.459 143.55 658.757 142.87C658.073 142.19 657.038 141.85 655.651 141.85H652.157V160H648.967V139ZM646 155.59H661.281V157.09H646V155.59Z" fill="#4CB542"/>
<rect x="773" y="194" width="28" height="28" rx="14" fill="#4CB542" fill-opacity="0.16"/>
<path d="M783.746 201.5H787.775C788.634 201.5 789.379 201.68 790.01 202.039C790.651 202.398 791.141 202.911 791.478 203.58C791.826 204.249 792 205.041 792 205.957C792 206.836 791.831 207.598 791.494 208.241C791.168 208.885 790.695 209.38 790.075 209.727C789.455 210.061 788.716 210.229 787.856 210.229H782V208.446H787.742C788.547 208.446 789.145 208.235 789.537 207.814C789.928 207.381 790.124 206.731 790.124 205.864C790.124 204.973 789.917 204.317 789.504 203.896C789.102 203.475 788.493 203.264 787.677 203.264H785.622V214.5H783.746V201.5ZM782 211.77H790.989V212.699H782V211.77Z" fill="#4CB542"/>
<rect x="747" y="25" width="90" height="90" rx="45" fill="#4CB542" fill-opacity="0.16"/>
<path d="M778.982 48.5H795.1C798.536 48.5 801.516 49.0938 804.039 50.2814C806.606 51.469 808.563 53.1686 809.912 55.38C811.304 57.5914 812 60.2124 812 63.2429C812 66.1505 811.326 68.669 809.977 70.7986C808.672 72.9281 806.78 74.5662 804.3 75.7129C801.821 76.8186 798.862 77.3714 795.426 77.3714H772V71.4743H794.969C798.188 71.4743 800.581 70.7781 802.147 69.3857C803.713 67.9524 804.496 65.8024 804.496 62.9357C804.496 59.9871 803.669 57.8167 802.016 56.4243C800.407 55.0319 797.971 54.3357 794.708 54.3357H786.486V91.5H778.982V48.5ZM772 82.47H807.954V85.5414H772V82.47Z" fill="#4CB542"/>
<path d="M1015.91 161.851C1017.72 161.565 1019.83 161.659 1021.59 162.17C1024.29 162.956 1026.21 164.789 1027.5 167.229C1028.37 168.872 1033.45 188.125 1033.83 190.646C1033.99 191.641 1034.08 192.852 1033.74 193.817C1033.16 195.465 1031.56 197.135 1030.53 198.561L1021.74 210.59L978.455 269.618C955.509 301.329 932.39 332.915 909.099 364.375L889.711 390.817C883.213 399.725 877.689 409.584 867.18 414.008C866.292 414.382 865.403 414.81 864.519 415.203C870.791 415.135 877.064 415.101 883.336 415.102C885.898 415.09 888.664 414.97 891.22 415.056C891.791 415.076 891.77 415.18 892.028 415.509L891.901 415.838C890.511 416.31 871.697 416.041 868.918 416.072L778.437 417.182L754.87 417.408C751.249 417.453 747.586 417.644 743.976 417.488C742.199 417.411 740.613 416.326 739.982 414.651C738.222 409.98 736.593 405.294 734.664 400.685C733.788 398.593 732.793 396.275 732.487 394.025C732.173 391.322 734.203 387.643 735.548 385.357C738.209 381.592 740.99 377.969 743.692 374.275C749.666 366.004 755.74 357.805 761.911 349.68L802.894 295.226L856.761 223.317L870.248 205.267C873.836 200.425 877.731 195.059 881.516 190.384C887.304 183.307 894.975 178.009 903.645 175.104C908.501 173.494 913.908 173.111 919 172.511L938.853 170.274L1015.91 161.851Z" fill="#080717"/>
<path d="M1012.37 166.518C1013.25 166.469 1014.88 166.667 1015.53 167.3C1017.2 168.928 1015.37 171.791 1014.35 173.219C1012.04 176.477 1009.65 179.628 1007.28 182.825L995.152 199.429L932.099 285.847L900.735 328.64L890.654 342.361C888.522 345.289 886.237 348.449 883.98 351.258C882.891 352.613 880.565 354.081 878.858 354.322C874.936 354.876 870.494 355.036 866.504 355.282C858.094 355.83 849.679 356.308 841.262 356.719L766.382 360.895C761.832 360.594 761.674 357.056 763.974 353.914C767.684 348.844 771.502 343.881 775.306 338.882L788.377 321.409L838.646 254.415L873.504 207.754C876.34 203.915 879.154 200.06 881.946 196.189C883.495 194.059 885.218 191.59 886.907 189.602C891.203 184.609 896.829 180.94 903.129 179.022C907.457 177.708 914.909 177.136 919.579 176.628L942.377 174.111L989.971 168.854C997.308 168.064 1005.05 167.115 1012.37 166.518Z" fill="#FEFEFE"/>
<path d="M1015.36 192.762C1016.46 194.806 1019.73 208.231 1020 210.934L930.845 332.856L897.299 378.433C892.151 385.458 886.929 393.003 881.707 399.89C881.232 399.024 879.927 394.957 879.481 393.674C878.289 390.24 876.595 386.471 875.521 383.079C876.515 381.525 879.163 378.375 880.452 376.644C884.325 371.354 888.227 366.086 892.157 360.838L925.418 315.901L1015.36 192.762Z" fill="#FEFEFE"/>
<path d="M1012.05 204.261C1016.22 204.298 1015.97 208.627 1014.5 211.247C1011.04 217.44 1005.79 223.21 1001.73 229.078C1000.89 230.301 999.532 231.223 998.23 231.721C997.086 231.831 995.474 231.679 995.108 230.41C993.994 226.379 997.366 222.24 999.645 219.242C1001.84 216.351 1003.98 213.511 1006.11 210.582C1007.62 208.511 1009.67 205.206 1012.05 204.261Z" fill="#080717"/>
<path d="M1012.11 206.046C1018.12 206.443 1007.62 219.048 1006.28 220.718C1004.19 223.324 1001.07 228.761 998.157 230.073C995.025 229.882 996.966 225.446 997.993 223.963C1000.93 219.728 1004.13 215.663 1007.15 211.482C1008.53 209.562 1010.04 207.2 1012.11 206.046Z" fill="#FEFEFE"/>
<path d="M986.284 239.737C986.959 239.682 987.693 239.596 988.344 239.833C988.955 240.055 989.439 240.482 989.698 241.082C990.34 242.566 989.806 244.668 989.184 246.084C988.17 248.396 978.935 260.945 977.012 262.932C976.148 263.825 975.365 264.409 974.195 264.87C973.483 264.991 972.862 264.983 972.173 264.74C971.649 264.555 971.226 264.197 971.004 263.682C970.392 262.263 970.848 260.407 971.389 259.031C972.58 256.001 981.836 243.303 984.309 240.948C984.914 240.373 985.528 240.061 986.284 239.737Z" fill="#080717"/>
<path d="M986.25 241.199C986.505 241.194 986.76 241.206 987.013 241.235C987.437 241.289 987.909 241.509 988.098 241.906C989.306 244.124 986.793 248.109 985.23 249.819C982.584 252.712 977.577 261.474 974.47 263.056C971.672 263.356 972.34 260.275 973.094 258.697C974.663 255.414 977.544 251.99 979.682 249.067C981.397 246.723 983.869 242.586 986.25 241.199Z" fill="#FEFEFE"/>
<path d="M864.275 365.169C867.546 364.958 871.196 364.715 871.387 369.167C871.424 370.031 871.249 371.017 870.983 371.856C868.096 380.938 859.545 388.738 850.302 390.969C844.974 392.189 838.512 392.105 833.045 392.235L814.856 392.714L745.01 394.825C741.905 394.878 738.176 393.981 738.176 390.136C738.177 382.799 744.029 372.952 751.757 371.677C755.668 371.032 760.147 370.926 764.139 370.723C771.065 370.394 777.989 370.026 784.912 369.618C811.357 367.968 837.812 366.485 864.275 365.169Z" fill="#FEFEFE"/>
<path d="M823.96 372.15C827.203 371.855 830.465 372.921 831.285 376.441C832.132 380.074 829.369 383.562 826.685 385.644C823.599 388.038 820.381 387.98 816.672 388.153C814.064 388.276 811.436 388.371 808.818 388.468L782.64 389.394C780.66 389.455 777.926 389.521 776.39 388.081C771.359 383.691 778.368 375.394 783.136 374.426C786.456 373.753 791.478 373.873 795.029 373.69L823.96 372.15Z" fill="#080717"/>
<path d="M821.837 373.841C824.075 373.663 826.606 373.351 828.445 374.913C829.291 375.619 829.791 376.656 829.817 377.758C829.931 381.266 825.45 385.77 822.223 386.146C816.16 386.853 809.352 386.927 803.234 387.18C796.828 387.445 790.45 387.737 784.09 387.915C780.839 388.117 776.421 388.543 776.417 383.715C776.415 380.584 780.226 376.557 783.268 376.012C786.94 375.353 791.309 375.454 795.151 375.253L821.837 373.841Z" fill="#FEFEFE"/>
<path d="M761.678 375.634C771.587 374.945 767.543 387.964 756.611 389.275C745.795 389.53 750.845 376.827 761.678 375.634Z" fill="#080717"/>
<path d="M760.617 377.118C769.463 376.089 765.486 386.271 757.351 387.719C748.128 388.279 752.784 378.547 760.617 377.118Z" fill="#FEFEFE"/>
<path d="M848.184 371.955C853.378 371.557 856.849 374.163 853.862 379.527C852.093 382.704 848.95 384.399 845.481 385.256C834.558 386.912 837.663 374.065 848.184 371.955Z" fill="#080717"/>
<path d="M848.403 373.28C855.97 372.51 854.101 381.727 845.557 383.721C836.763 384.692 840.239 374.847 848.403 373.28Z" fill="#FEFEFE"/>
<path d="M853.25 397.619C853.82 397.869 853.758 398.157 854.059 398.894C856.143 403.997 857.939 410.066 860.208 415.016C855.919 415.427 848.483 415.326 843.908 415.366L817.469 415.683C801.316 415.999 785.16 416.179 769.005 416.224C761.262 416.298 753.512 416.439 745.77 416.447C743.776 416.449 741.93 416.419 741.077 414.396C740.361 412.697 739.78 411.017 739.15 409.289L735.777 400.285C737.223 400.805 738.572 401.107 740.112 401.083C760.174 400.773 780.282 399.674 800.329 399.255L833.501 398.533C838.319 398.434 849.005 398.449 853.25 397.619Z" fill="#DB4431"/>
<path d="M791.235 405.796L800.163 405.667C802.139 405.642 805.696 405.253 807.181 406.563C808.073 407.347 808.617 408.454 808.692 409.641C808.863 412.646 803.894 411.905 801.871 411.894C798.775 411.899 789.108 412.64 786.82 411.468C785.951 411.022 785.158 410.298 784.891 409.33C784.678 408.564 784.783 407.173 785.308 406.544C786.227 405.443 789.828 405.801 791.235 405.796Z" fill="#080717"/>
<path d="M867.062 391.327C870.092 389.193 873.182 385.935 875.52 383.079C876.595 386.471 878.289 390.24 879.481 393.674C879.926 394.957 881.231 399.025 881.707 399.891C879.566 403.172 876.4 406.572 873.38 409.01C869.757 412.114 864.88 414.141 860.208 415.017C857.939 410.067 856.143 403.998 854.059 398.895C853.758 398.158 853.82 397.87 853.25 397.62C853.792 397.394 856.738 396.704 857.632 396.407C861.612 395.086 863.712 393.633 867.062 391.327Z" fill="#F3E4E2"/>
<path d="M867.062 391.327C870.092 389.193 873.182 385.935 875.52 383.079C876.595 386.471 878.289 390.24 879.481 393.674C879.926 394.957 881.231 399.025 881.707 399.891C879.566 403.172 876.4 406.572 873.381 409.01C872.968 408.516 868.253 393.779 867.062 391.327Z" fill="#DB4431"/>
<path d="M1027.14 169.565C1027.54 169.975 1027.59 170.524 1027.73 171.099C1026.61 176.378 1020.23 183.797 1016.9 188.375C1011.34 196.178 1005.71 203.931 1000.01 211.636L952.092 277.383L903.166 343.869C897.156 352.094 891.092 360.28 884.975 368.426C881.245 373.427 877.19 378.866 873.385 383.671C868.085 390.364 858.941 396.155 850.311 396.711C844.344 397.095 838.186 397.101 832.15 397.314L787.356 398.555C775.861 398.948 764.364 399.282 752.866 399.555C748.466 399.657 744.021 399.985 739.627 399.902C737.989 399.871 736.467 399.592 735.163 398.529C734.899 398.032 734.726 397.908 734.733 397.42C735.483 397.79 736.264 398.095 737.066 398.332C739.671 399.095 742.425 398.867 745.1 398.784C750.563 398.614 756.024 398.395 761.486 398.235L806.099 396.968L833.403 396.216C838.231 396.121 846.238 396.219 850.744 395.721C854.679 395.252 858.481 394.002 861.927 392.045C869.916 387.553 872.494 382.934 877.807 376.086C884.884 366.834 891.878 357.52 898.791 348.145C916.689 324.052 934.453 299.86 952.08 275.568L996.721 214.327L1015.29 188.879C1019.72 182.753 1025.08 176.951 1027.14 169.565Z" fill="#FEFEFE"/>
<path d="M1015.36 192.762C1019.31 186.678 1025.58 179.999 1028.09 173.455C1029.93 179.146 1031.34 185.856 1032.82 191.724C1033.28 193.578 1030.92 195.853 1029.98 197.319C1026.6 201.603 1023.58 206.861 1020 210.934C1019.73 208.231 1016.46 194.807 1015.36 192.762Z" fill="#DB4431"/>
<path d="M717.934 414.173C723.353 413.893 734.107 414.096 740.011 414.151C740.207 414.266 740.402 414.38 740.598 414.496L740.605 415.465C736.821 415.626 721.78 415.78 718.407 415.487C717.643 414.869 717.914 415.251 717.934 414.173Z" fill="#080717"/>
<rect x="632" y="239" width="295" height="45" rx="12" fill="#DB4431"/>
<path d="M891.92 266.517C891.087 266.517 890.355 266.339 889.724 265.982C889.105 265.613 888.617 265.071 888.26 264.357C887.915 263.631 887.742 262.738 887.742 261.679C887.742 260.108 888.105 258.917 888.831 258.108C889.557 257.287 890.563 256.876 891.848 256.876C892.729 256.876 893.479 257.072 894.098 257.465C894.717 257.846 895.175 258.411 895.473 259.161C895.782 259.911 895.901 260.834 895.83 261.929H889.349C889.349 262.893 889.557 263.69 889.974 264.321C890.402 264.952 891.057 265.267 891.938 265.267C892.45 265.267 892.92 265.154 893.348 264.928C893.777 264.702 894.146 264.381 894.455 263.964L895.401 264.91C895.044 265.386 894.568 265.773 893.973 266.071C893.39 266.368 892.705 266.517 891.92 266.517ZM889.42 260.875H894.169C894.086 259.959 893.842 259.274 893.437 258.822C893.033 258.358 892.503 258.126 891.848 258.126C891.194 258.126 890.646 258.358 890.206 258.822C889.765 259.274 889.504 259.959 889.42 260.875Z" fill="white"/>
<path d="M877.273 257.233H878.88V263.893L883.718 257.233H885.289V266.16H883.682V259.483L878.826 266.16H877.273V257.233Z" fill="white"/>
<path d="M866.511 257.233H868.118V260.894H872.635V257.233H874.242V266.16H872.635V262.322H868.118V266.16H866.511V257.233Z" fill="white"/>
<path d="M860.105 266.517C859.271 266.517 858.539 266.339 857.908 265.982C857.29 265.613 856.802 265.071 856.444 264.357C856.099 263.631 855.927 262.738 855.927 261.679C855.927 260.108 856.29 258.917 857.016 258.108C857.742 257.287 858.748 256.876 860.033 256.876C860.914 256.876 861.664 257.072 862.283 257.465C862.902 257.846 863.36 258.411 863.658 259.161C863.967 259.911 864.086 260.834 864.015 261.929H857.534C857.534 262.893 857.742 263.69 858.158 264.321C858.587 264.952 859.242 265.267 860.122 265.267C860.634 265.267 861.104 265.154 861.533 264.928C861.961 264.702 862.33 264.381 862.64 263.964L863.586 264.91C863.229 265.386 862.753 265.773 862.158 266.071C861.575 266.368 860.89 266.517 860.105 266.517ZM857.605 260.875H862.354C862.271 259.959 862.027 259.274 861.622 258.822C861.217 258.358 860.688 258.126 860.033 258.126C859.378 258.126 858.831 258.358 858.391 258.822C857.95 259.274 857.688 259.959 857.605 260.875Z" fill="white"/>
<path d="M845.038 265.214C845.134 265.226 845.217 265.238 845.288 265.25C845.36 265.262 845.431 265.268 845.503 265.268C845.86 265.268 846.116 265.012 846.27 264.5C846.437 263.976 846.538 263.131 846.574 261.965C846.61 260.786 846.627 259.209 846.627 257.233H853.43V266.16H851.823V258.662H848.234C848.234 260.269 848.199 261.584 848.127 262.608C848.056 263.631 847.925 264.429 847.734 265C847.544 265.559 847.264 265.952 846.895 266.178C846.538 266.405 846.062 266.518 845.467 266.518C845.384 266.518 845.276 266.506 845.145 266.482C845.015 266.47 844.884 266.458 844.753 266.446L845.038 265.214Z" fill="white"/>
<path d="M836.055 257.233H839.787C840.93 257.233 841.739 257.394 842.215 257.715C842.703 258.037 842.947 258.572 842.947 259.322C842.947 259.941 842.78 260.405 842.447 260.715C842.126 261.024 841.566 261.262 840.769 261.429C841.697 261.477 842.382 261.691 842.822 262.072C843.263 262.453 843.483 263.012 843.483 263.75C843.483 264.286 843.364 264.732 843.126 265.089C842.888 265.446 842.519 265.714 842.019 265.893C841.519 266.071 840.87 266.16 840.073 266.16H836.055V257.233ZM839.483 261.09C840.067 261.09 840.519 260.977 840.84 260.751C841.174 260.525 841.34 260.185 841.34 259.733C841.34 259.293 841.18 258.977 840.858 258.787C840.549 258.584 840.102 258.483 839.519 258.483H837.662V261.09H839.483ZM839.823 264.911C840.513 264.911 841.025 264.792 841.358 264.554C841.703 264.316 841.876 263.964 841.876 263.5C841.876 263.024 841.703 262.691 841.358 262.5C841.013 262.298 840.495 262.197 839.805 262.197H837.662V264.911H839.823Z" fill="white"/>
<path d="M827.253 262.483C826.741 262.185 826.342 261.816 826.056 261.376C825.771 260.935 825.628 260.423 825.628 259.84C825.628 259.007 825.919 258.364 826.503 257.912C827.086 257.46 827.955 257.233 829.109 257.233H833.019V266.16H831.413V262.911H828.717L827.253 266.16H825.467L827.253 262.483ZM831.413 258.483H829.395C828.645 258.483 828.098 258.602 827.753 258.84C827.407 259.078 827.235 259.471 827.235 260.019C827.235 260.566 827.407 260.977 827.753 261.251C828.11 261.524 828.657 261.661 829.395 261.661H831.413V258.483Z" fill="white"/>
<path d="M814.468 257.233H817.878V257.287L817.288 258.483H814.468V257.233ZM816.842 257.233H818.449V264.911H820.431C821.085 264.911 821.562 264.756 821.859 264.446C822.157 264.137 822.306 263.709 822.306 263.161C822.306 262.625 822.175 262.203 821.913 261.893C821.663 261.584 821.252 261.429 820.681 261.429H817.288V260.179H820.627C821.651 260.179 822.454 260.435 823.038 260.947C823.621 261.459 823.912 262.173 823.912 263.09C823.912 264.03 823.633 264.78 823.073 265.339C822.514 265.887 821.746 266.16 820.77 266.16H816.842V257.233Z" fill="white"/>
<path d="M808.968 266.517C807.492 266.517 806.391 266.023 805.665 265.035C804.951 264.047 804.594 262.458 804.594 260.268C804.594 258.971 804.731 257.9 805.004 257.055C805.29 256.209 805.766 255.555 806.433 255.091C807.099 254.626 808.01 254.317 809.164 254.162C809.64 254.103 810.182 253.984 810.789 253.805C811.408 253.615 811.95 253.311 812.414 252.895V254.359C812.14 254.597 811.729 254.817 811.182 255.019C810.634 255.21 810.009 255.341 809.307 255.412C808.391 255.507 807.665 255.727 807.129 256.073C806.605 256.406 806.23 256.894 806.004 257.537C805.778 258.179 805.665 259.013 805.665 260.036C805.939 259.334 806.409 258.757 807.075 258.304C807.754 257.84 808.557 257.608 809.486 257.608C810.616 257.608 811.515 257.983 812.182 258.733C812.86 259.471 813.199 260.56 813.199 262C813.199 263.44 812.836 264.553 812.11 265.339C811.396 266.124 810.349 266.517 808.968 266.517ZM808.95 265.267C809.819 265.267 810.474 264.964 810.914 264.357C811.366 263.75 811.592 262.94 811.592 261.929C811.592 260.929 811.372 260.167 810.932 259.643C810.503 259.12 809.855 258.858 808.986 258.858C808.105 258.858 807.426 259.12 806.95 259.643C806.474 260.167 806.236 260.941 806.236 261.964C806.236 262.964 806.468 263.768 806.933 264.375C807.409 264.97 808.081 265.267 808.95 265.267Z" fill="white"/>
<path d="M798.253 266.517C797.349 266.517 796.581 266.327 795.95 265.946C795.319 265.565 794.837 265.012 794.504 264.285C794.182 263.547 794.022 262.655 794.022 261.607C794.022 260.619 794.182 259.774 794.504 259.072C794.837 258.358 795.319 257.816 795.95 257.447C796.593 257.066 797.366 256.876 798.271 256.876C799.735 256.876 800.836 257.293 801.574 258.126C802.324 258.959 802.699 260.119 802.699 261.607C802.699 263.179 802.324 264.393 801.574 265.25C800.824 266.095 799.717 266.517 798.253 266.517ZM798.289 265.267C799.241 265.267 799.943 264.97 800.396 264.375C800.86 263.78 801.092 262.869 801.092 261.643C801.092 260.477 800.86 259.602 800.396 259.018C799.943 258.423 799.253 258.126 798.325 258.126C797.408 258.126 796.73 258.411 796.289 258.983C795.849 259.542 795.629 260.417 795.629 261.607C795.629 262.821 795.849 263.738 796.289 264.357C796.73 264.964 797.396 265.267 798.289 265.267Z" fill="white"/>
<path d="M781.317 257.233H782.924V264.911H784.995C785.673 264.911 786.138 264.756 786.387 264.446C786.649 264.137 786.78 263.709 786.78 263.161C786.78 262.625 786.673 262.203 786.459 261.893C786.257 261.584 785.864 261.429 785.281 261.429H781.763V260.179H785.191C786.251 260.179 787.048 260.435 787.584 260.947C788.119 261.459 788.387 262.173 788.387 263.09C788.387 264.03 788.125 264.78 787.602 265.339C787.09 265.887 786.334 266.16 785.334 266.16H781.317V257.233Z" fill="white"/>
<path d="M774.222 258.483H771.079V257.233H778.953V258.483H775.829V266.16H774.222V258.483Z" fill="white"/>
<path d="M764.05 266.517C763.229 266.517 762.521 266.309 761.926 265.892C761.331 265.476 760.872 264.898 760.551 264.16C760.23 263.423 760.069 262.577 760.069 261.625C760.069 260.721 760.218 259.911 760.515 259.197C760.813 258.483 761.241 257.917 761.801 257.501C762.372 257.084 763.068 256.876 763.89 256.876C765.044 256.876 765.925 257.299 766.532 258.144C767.151 258.977 767.46 260.173 767.46 261.732C767.46 263.244 767.169 264.422 766.586 265.267C766.002 266.101 765.157 266.517 764.05 266.517ZM764.282 265.267C764.842 265.267 765.33 265.107 765.746 264.785C766.163 264.464 766.484 264.03 766.711 263.482C766.949 262.935 767.068 262.316 767.068 261.625C767.068 260.935 766.949 260.328 766.711 259.804C766.473 259.28 766.139 258.87 765.711 258.572C765.282 258.275 764.788 258.126 764.229 258.126C763.431 258.126 762.806 258.435 762.354 259.054C761.902 259.661 761.676 260.5 761.676 261.572C761.676 262.69 761.908 263.589 762.372 264.268C762.848 264.934 763.485 265.267 764.282 265.267ZM767.068 266.16V257.233H768.675V266.16H767.068Z" fill="white"/>
<path d="M751.193 257.233H754.924C756.067 257.233 756.876 257.394 757.353 257.715C757.841 258.037 758.085 258.572 758.085 259.322C758.085 259.941 757.918 260.405 757.585 260.715C757.263 261.024 756.704 261.262 755.906 261.429C756.835 261.477 757.519 261.691 757.96 262.072C758.4 262.453 758.62 263.012 758.62 263.75C758.62 264.286 758.501 264.732 758.263 265.089C758.025 265.446 757.656 265.714 757.156 265.893C756.656 266.071 756.008 266.16 755.21 266.16H751.193V257.233ZM754.621 261.09C755.204 261.09 755.656 260.977 755.978 260.751C756.311 260.525 756.478 260.185 756.478 259.733C756.478 259.293 756.317 258.977 755.996 258.787C755.686 258.584 755.24 258.483 754.657 258.483H752.8V261.09H754.621ZM754.96 264.911C755.65 264.911 756.162 264.792 756.496 264.554C756.841 264.316 757.013 263.964 757.013 263.5C757.013 263.024 756.841 262.691 756.496 262.5C756.15 262.298 755.633 262.197 754.942 262.197H752.8V264.911H754.96Z" fill="white"/>
<path d="M744.317 266.517C743.412 266.517 742.644 266.327 742.014 265.946C741.383 265.565 740.901 265.012 740.567 264.285C740.246 263.547 740.085 262.655 740.085 261.607C740.085 260.619 740.246 259.774 740.567 259.072C740.901 258.358 741.383 257.816 742.014 257.447C742.656 257.066 743.43 256.876 744.335 256.876C745.799 256.876 746.9 257.293 747.638 258.126C748.388 258.959 748.762 260.119 748.762 261.607C748.762 263.179 748.388 264.393 747.638 265.25C746.888 266.095 745.781 266.517 744.317 266.517ZM744.352 265.267C745.305 265.267 746.007 264.97 746.459 264.375C746.923 263.78 747.156 262.869 747.156 261.643C747.156 260.477 746.923 259.602 746.459 259.018C746.007 258.423 745.317 258.126 744.388 258.126C743.472 258.126 742.793 258.411 742.353 258.983C741.912 259.542 741.692 260.417 741.692 261.607C741.692 262.821 741.912 263.738 742.353 264.357C742.793 264.964 743.46 265.267 744.352 265.267Z" fill="white"/>
<path d="M730.749 257.233H732.356V266.16H730.749V257.233ZM730.874 260.822H735.48L737.141 257.233H738.837L736.587 261.465L739.087 266.16H737.266L735.409 261.983H730.999L730.874 260.822Z" fill="white"/>
<path d="M719.726 257.233H721.333V263.893L726.172 257.233H727.743V266.16H726.136V259.483L721.28 266.16H719.726V257.233Z" fill="white"/>
<path d="M708.249 265.214C708.344 265.226 708.427 265.238 708.499 265.25C708.57 265.262 708.642 265.268 708.713 265.268C709.07 265.268 709.326 265.012 709.481 264.5C709.647 263.976 709.749 263.131 709.784 261.965C709.82 260.786 709.838 259.209 709.838 257.233H716.64V266.16H715.033V258.662H711.445C711.445 260.269 711.409 261.584 711.338 262.608C711.266 263.631 711.135 264.429 710.945 265C710.754 265.559 710.475 265.952 710.106 266.178C709.749 266.405 709.272 266.518 708.677 266.518C708.594 266.518 708.487 266.506 708.356 266.482C708.225 266.47 708.094 266.458 707.963 266.446L708.249 265.214Z" fill="white"/>
<path d="M702.285 266.517C700.809 266.517 699.708 266.023 698.982 265.035C698.268 264.047 697.911 262.458 697.911 260.268C697.911 258.971 698.048 257.9 698.321 257.055C698.607 256.209 699.083 255.555 699.75 255.091C700.416 254.626 701.327 254.317 702.481 254.162C702.957 254.103 703.499 253.984 704.106 253.805C704.725 253.615 705.267 253.311 705.731 252.895V254.359C705.457 254.597 705.046 254.817 704.499 255.019C703.951 255.21 703.326 255.341 702.624 255.412C701.708 255.507 700.982 255.727 700.446 256.073C699.922 256.406 699.547 256.894 699.321 257.537C699.095 258.179 698.982 259.013 698.982 260.036C699.256 259.334 699.726 258.757 700.392 258.304C701.071 257.84 701.874 257.608 702.803 257.608C703.933 257.608 704.832 257.983 705.499 258.733C706.177 259.471 706.516 260.56 706.516 262C706.516 263.44 706.153 264.553 705.427 265.339C704.713 266.124 703.666 266.517 702.285 266.517ZM702.267 265.267C703.136 265.267 703.791 264.964 704.231 264.357C704.683 263.75 704.909 262.94 704.909 261.929C704.909 260.929 704.689 260.167 704.249 259.643C703.82 259.12 703.172 258.858 702.303 258.858C701.422 258.858 700.744 259.12 700.267 259.643C699.791 260.167 699.553 260.941 699.553 261.964C699.553 262.964 699.785 263.768 700.25 264.375C700.726 264.97 701.398 265.267 702.267 265.267Z" fill="white"/>
<path d="M688.656 268.589C688.882 268.672 689.12 268.737 689.37 268.785C689.632 268.833 689.84 268.856 689.995 268.856C690.257 268.856 690.477 268.791 690.655 268.66C690.846 268.529 691.006 268.339 691.137 268.089C691.28 267.851 691.411 267.553 691.53 267.196L694.78 257.233H696.476L692.923 267.553C692.732 268.101 692.524 268.565 692.298 268.946C692.072 269.327 691.798 269.612 691.477 269.803C691.155 270.005 690.75 270.106 690.262 270.106C689.929 270.106 689.661 270.088 689.459 270.053C689.257 270.017 689.066 269.969 688.888 269.91C688.721 269.85 688.513 269.779 688.263 269.696L688.656 268.589ZM687.799 257.233H689.495L692.387 266.16H690.87L687.799 257.233Z" fill="white"/>
<path d="M677.833 257.233H685.653V266.16H684.046V258.662H679.44V266.16H677.833V257.233Z" fill="white"/>
<path d="M669.113 266.517C667.959 266.517 666.929 266.267 666.024 265.767C665.132 265.255 664.429 264.511 663.918 263.535C663.406 262.547 663.15 261.339 663.15 259.911C663.15 258.506 663.4 257.316 663.9 256.34C664.4 255.352 665.096 254.602 665.989 254.09C666.893 253.567 667.941 253.305 669.131 253.305C670.369 253.305 671.434 253.578 672.327 254.126C673.22 254.662 673.904 255.423 674.38 256.411C674.856 257.399 675.094 258.566 675.094 259.911C675.094 261.351 674.838 262.565 674.327 263.553C673.815 264.529 673.107 265.267 672.202 265.767C671.309 266.267 670.28 266.517 669.113 266.517ZM669.167 265.088C670.059 265.088 670.821 264.88 671.452 264.464C672.083 264.047 672.565 263.452 672.898 262.678C673.243 261.904 673.416 260.982 673.416 259.911C673.416 258.185 673.053 256.893 672.327 256.036C671.601 255.167 670.512 254.733 669.06 254.733C667.715 254.733 666.673 255.191 665.935 256.108C665.197 257.024 664.828 258.292 664.828 259.911C664.828 261.625 665.203 262.916 665.953 263.785C666.703 264.654 667.774 265.088 669.167 265.088Z" fill="white"/>
<path d="M717.966 273.853C717.947 272.321 716.283 271.378 714.959 272.15L689.825 286.793C688.237 287.718 688.633 290.116 690.434 290.481L704.911 293.419C705.378 293.513 705.796 293.772 706.089 294.147L714.766 305.246C715.945 306.755 718.366 305.904 718.342 303.99L717.966 273.853Z" fill="#1E1E1E"/>
</g>
<defs>
<clipPath id="clip0_670_6890">
<rect width="1264" height="461" fill="white"/>
</clipPath>
</defs>
</svg>
