<svg width="335" height="385" viewBox="0 0 335 385" fill="none" xmlns="http://www.w3.org/2000/svg">
<rect width="335" height="385" rx="12" fill="#F7F7F7"/>
<path d="M273.545 197.7C274.658 197.524 275.959 197.582 277.041 197.897C278.703 198.38 279.887 199.509 280.68 201.012C281.215 202.024 284.343 213.88 284.581 215.433C284.675 216.046 284.735 216.792 284.524 217.386C284.165 218.401 283.178 219.429 282.549 220.307L277.135 227.715L250.477 264.067C236.346 283.596 222.108 303.048 207.765 322.421L195.825 338.705C191.823 344.191 188.421 350.263 181.95 352.987C181.403 353.218 180.855 353.481 180.311 353.723C184.174 353.681 188.036 353.661 191.899 353.661C193.477 353.654 195.18 353.58 196.755 353.633C197.106 353.645 197.093 353.709 197.252 353.911L197.174 354.115C196.318 354.405 184.731 354.239 183.02 354.259L127.298 354.942L112.785 355.081C110.555 355.109 108.3 355.226 106.076 355.13C104.982 355.083 104.005 354.415 103.617 353.383C102.533 350.507 101.53 347.621 100.341 344.782C99.802 343.494 99.1894 342.067 99.0006 340.681C98.8072 339.017 100.057 336.751 100.886 335.343C102.525 333.024 104.237 330.793 105.901 328.518C109.58 323.425 113.321 318.376 117.121 313.372L142.36 279.837L175.533 235.553L183.839 224.437C186.049 221.455 188.447 218.151 190.778 215.272C194.343 210.913 199.067 207.651 204.406 205.862C207.396 204.87 210.726 204.634 213.862 204.265L226.088 202.887L273.545 197.7Z" fill="#080717"/>
<path d="M271.363 200.574C271.907 200.544 272.909 200.666 273.309 201.056C274.338 202.058 273.21 203.822 272.585 204.701C271.159 206.707 269.685 208.648 268.23 210.617L260.759 220.842L221.929 274.061L202.614 300.415L196.406 308.864C195.093 310.668 193.686 312.614 192.296 314.343C191.625 315.178 190.192 316.082 189.141 316.23C186.726 316.572 183.99 316.671 181.533 316.822C176.354 317.159 171.172 317.454 165.988 317.707L119.875 320.278C117.072 320.093 116.975 317.914 118.391 315.979C120.677 312.857 123.028 309.8 125.37 306.722L133.42 295.962L164.377 254.704L185.844 225.969C187.591 223.605 189.324 221.231 191.043 218.847C191.997 217.535 193.058 216.014 194.098 214.79C196.743 211.715 200.208 209.456 204.088 208.274C206.753 207.466 211.343 207.113 214.219 206.8L228.258 205.25L257.569 202.013C262.087 201.526 266.854 200.942 271.363 200.574Z" fill="#FEFEFE"/>
<path d="M273.202 216.736C273.882 217.995 275.897 226.262 276.062 227.927L221.157 303.011L200.498 331.079C197.328 335.405 194.112 340.051 190.896 344.293C190.603 343.76 189.799 341.255 189.525 340.465C188.791 338.35 187.747 336.029 187.086 333.94C187.698 332.983 189.329 331.043 190.123 329.977C192.508 326.72 194.911 323.475 197.331 320.243L217.815 292.57L273.202 216.736Z" fill="#FEFEFE"/>
<path d="M271.166 223.818C273.733 223.841 273.578 226.507 272.676 228.12C270.541 231.934 267.311 235.487 264.812 239.101C264.292 239.854 263.457 240.422 262.655 240.729C261.95 240.797 260.957 240.703 260.732 239.921C260.046 237.439 262.123 234.89 263.526 233.044C264.879 231.263 266.197 229.514 267.51 227.711C268.439 226.435 269.7 224.4 271.166 223.818Z" fill="#080717"/>
<path d="M271.203 224.917C274.901 225.161 268.436 232.924 267.611 233.952C266.324 235.557 264.402 238.906 262.61 239.714C260.681 239.596 261.876 236.864 262.509 235.951C264.315 233.342 266.289 230.84 268.145 228.264C268.997 227.082 269.93 225.628 271.203 224.917Z" fill="#FEFEFE"/>
<path d="M255.298 245.665C255.713 245.631 256.166 245.579 256.567 245.724C256.943 245.861 257.241 246.124 257.401 246.493C257.796 247.407 257.467 248.702 257.084 249.574C256.46 250.998 250.772 258.726 249.588 259.949C249.056 260.499 248.573 260.859 247.853 261.143C247.415 261.217 247.032 261.213 246.608 261.063C246.285 260.949 246.025 260.728 245.888 260.411C245.511 259.538 245.792 258.395 246.125 257.547C246.859 255.681 252.559 247.861 254.082 246.411C254.454 246.057 254.832 245.865 255.298 245.665Z" fill="#080717"/>
<path d="M255.277 246.565C255.434 246.562 255.591 246.569 255.747 246.588C256.008 246.62 256.299 246.756 256.415 247.001C257.159 248.366 255.612 250.821 254.649 251.874C253.02 253.655 249.936 259.051 248.023 260.025C246.3 260.21 246.711 258.313 247.175 257.341C248.142 255.319 249.916 253.211 251.232 251.411C252.288 249.967 253.811 247.42 255.277 246.565Z" fill="#FEFEFE"/>
<path d="M180.161 322.911C182.175 322.781 184.423 322.631 184.54 325.373C184.563 325.905 184.456 326.512 184.292 327.029C182.514 332.622 177.248 337.426 171.556 338.799C168.274 339.55 164.295 339.499 160.928 339.579L149.727 339.874L106.713 341.174C104.8 341.207 102.504 340.654 102.504 338.286C102.505 333.768 106.109 327.704 110.868 326.919C113.276 326.521 116.035 326.456 118.493 326.331C122.759 326.129 127.023 325.902 131.286 325.65C147.571 324.634 163.863 323.721 180.161 322.911Z" fill="#FEFEFE"/>
<path d="M155.333 327.21C157.331 327.028 159.339 327.685 159.844 329.853C160.365 332.09 158.664 334.238 157.011 335.52C155.111 336.994 153.129 336.958 150.845 337.065C149.239 337.141 147.62 337.199 146.008 337.259L129.887 337.83C128.668 337.867 126.984 337.908 126.038 337.021C122.94 334.318 127.256 329.208 130.193 328.612C132.237 328.197 135.33 328.271 137.516 328.158L155.333 327.21Z" fill="#080717"/>
<path d="M154.025 328.251C155.404 328.142 156.963 327.95 158.095 328.911C158.616 329.346 158.924 329.985 158.94 330.664C159.01 332.824 156.251 335.597 154.263 335.829C150.529 336.264 146.337 336.31 142.569 336.466C138.624 336.629 134.697 336.809 130.78 336.918C128.778 337.043 126.057 337.305 126.055 334.332C126.053 332.404 128.4 329.924 130.273 329.588C132.535 329.182 135.226 329.244 137.591 329.12L154.025 328.251Z" fill="#FEFEFE"/>
<path d="M116.977 329.355C123.08 328.931 120.589 336.948 113.857 337.756C107.196 337.913 110.306 330.09 116.977 329.355Z" fill="#080717"/>
<path d="M116.324 330.269C121.772 329.635 119.323 335.905 114.313 336.797C108.633 337.142 111.5 331.149 116.324 330.269Z" fill="#FEFEFE"/>
<path d="M170.251 327.09C173.45 326.845 175.587 328.45 173.748 331.753C172.658 333.709 170.723 334.753 168.586 335.281C161.859 336.301 163.772 328.389 170.251 327.09Z" fill="#080717"/>
<path d="M170.386 327.906C175.046 327.431 173.895 333.108 168.633 334.336C163.217 334.934 165.358 328.871 170.386 327.906Z" fill="#FEFEFE"/>
<path d="M173.371 342.895C173.722 343.048 173.684 343.226 173.869 343.68C175.153 346.822 176.259 350.56 177.656 353.609C175.015 353.861 170.435 353.799 167.618 353.824L151.336 354.019C141.388 354.214 131.439 354.325 121.49 354.352C116.721 354.398 111.949 354.485 107.181 354.49C105.953 354.491 104.816 354.473 104.291 353.226C103.85 352.18 103.492 351.145 103.104 350.081L101.027 344.536C101.918 344.857 102.748 345.042 103.697 345.028C116.051 344.837 128.434 344.16 140.781 343.902L161.209 343.457C164.176 343.396 170.757 343.406 173.371 342.895Z" fill="#DB4431"/>
<path d="M135.18 347.93L140.678 347.851C141.895 347.835 144.086 347.596 145 348.402C145.55 348.885 145.884 349.567 145.931 350.298C146.036 352.149 142.976 351.692 141.73 351.686C139.823 351.689 133.87 352.145 132.461 351.423C131.926 351.149 131.438 350.702 131.273 350.107C131.142 349.635 131.206 348.778 131.53 348.391C132.096 347.713 134.313 347.933 135.18 347.93Z" fill="#080717"/>
<path d="M181.877 339.019C183.743 337.705 185.646 335.699 187.086 333.94C187.747 336.029 188.791 338.35 189.525 340.465C189.799 341.255 190.603 343.76 190.896 344.293C189.577 346.314 187.627 348.408 185.768 349.909C183.536 351.821 180.533 353.069 177.656 353.609C176.259 350.56 175.153 346.822 173.869 343.68C173.684 343.226 173.722 343.048 173.371 342.895C173.705 342.756 175.519 342.331 176.07 342.148C178.521 341.334 179.814 340.44 181.877 339.019Z" fill="#F3E4E2"/>
<path d="M181.877 339.019C183.743 337.705 185.646 335.699 187.086 333.94C187.747 336.029 188.791 338.35 189.525 340.465C189.799 341.255 190.603 343.76 190.896 344.293C189.577 346.314 187.627 348.408 185.768 349.909C185.514 349.605 182.61 340.529 181.877 339.019Z" fill="#DB4431"/>
<path d="M280.459 202.451C280.702 202.703 280.737 203.041 280.825 203.395C280.129 206.646 276.205 211.215 274.155 214.035C270.728 218.84 267.259 223.614 263.748 228.359L234.241 268.849L204.111 309.793C200.41 314.858 196.676 319.9 192.908 324.916C190.611 327.996 188.114 331.346 185.771 334.305C182.507 338.427 176.876 341.993 171.561 342.335C167.886 342.572 164.094 342.575 160.377 342.706L132.791 343.471C125.712 343.713 118.632 343.918 111.551 344.087C108.841 344.149 106.104 344.352 103.398 344.3C102.389 344.281 101.452 344.11 100.649 343.455C100.486 343.149 100.38 343.072 100.384 342.772C100.846 343 101.327 343.188 101.821 343.334C103.425 343.803 105.121 343.663 106.768 343.612C110.132 343.507 113.495 343.372 116.86 343.274L144.334 342.494L161.148 342.03C164.121 341.972 169.053 342.032 171.828 341.725C174.251 341.437 176.592 340.667 178.715 339.462C183.635 336.695 185.222 333.851 188.494 329.634C192.852 323.936 197.16 318.2 201.417 312.426C212.439 297.589 223.378 282.691 234.234 267.731L261.725 230.016L273.159 214.345C275.891 210.572 279.193 206.999 280.459 202.451Z" fill="#FEFEFE"/>
<path d="M273.202 216.736C275.639 212.989 279.495 208.876 281.046 204.846C282.177 208.351 283.043 212.483 283.955 216.097C284.243 217.238 282.785 218.639 282.206 219.542C280.127 222.181 278.265 225.419 276.062 227.927C275.897 226.262 273.882 217.995 273.202 216.736Z" fill="#DB4431"/>
<path d="M90.0387 353.089C93.376 352.916 99.9983 353.042 103.634 353.075C103.755 353.146 103.875 353.217 103.996 353.288L104 353.885C101.67 353.984 92.4071 354.079 90.3301 353.898C89.8595 353.518 90.0263 353.753 90.0387 353.089Z" fill="#080717"/>
<rect x="37" y="245" width="182" height="28" rx="12" fill="#DB4431"/>
<path d="M203.559 262.372C202.999 262.372 202.507 262.252 202.083 262.012C201.667 261.764 201.339 261.4 201.099 260.92C200.867 260.432 200.751 259.832 200.751 259.12C200.751 258.064 200.995 257.264 201.483 256.72C201.971 256.168 202.647 255.892 203.511 255.892C204.103 255.892 204.607 256.024 205.023 256.288C205.439 256.544 205.747 256.924 205.947 257.428C206.155 257.932 206.235 258.552 206.187 259.288H201.831C201.831 259.936 201.971 260.472 202.251 260.896C202.539 261.32 202.979 261.532 203.571 261.532C203.915 261.532 204.231 261.456 204.519 261.304C204.807 261.152 205.055 260.936 205.263 260.656L205.899 261.292C205.659 261.612 205.339 261.872 204.939 262.072C204.547 262.272 204.087 262.372 203.559 262.372ZM201.879 258.58H205.071C205.015 257.964 204.851 257.504 204.579 257.2C204.307 256.888 203.951 256.732 203.511 256.732C203.071 256.732 202.703 256.888 202.407 257.2C202.111 257.504 201.935 257.964 201.879 258.58Z" fill="white"/>
<path d="M193.714 256.132H194.794V260.608L198.046 256.132H199.102V262.132H198.022V257.644L194.758 262.132H193.714V256.132Z" fill="white"/>
<path d="M186.481 256.132H187.561V258.592H190.597V256.132H191.677V262.132H190.597V259.552H187.561V262.132H186.481V256.132Z" fill="white"/>
<path d="M182.175 262.372C181.615 262.372 181.123 262.252 180.699 262.012C180.283 261.764 179.955 261.4 179.715 260.92C179.483 260.432 179.367 259.832 179.367 259.12C179.367 258.064 179.611 257.264 180.099 256.72C180.587 256.168 181.263 255.892 182.127 255.892C182.719 255.892 183.223 256.024 183.639 256.288C184.055 256.544 184.363 256.924 184.563 257.428C184.771 257.932 184.851 258.552 184.803 259.288H180.447C180.447 259.936 180.587 260.472 180.867 260.896C181.155 261.32 181.595 261.532 182.187 261.532C182.531 261.532 182.847 261.456 183.135 261.304C183.423 261.152 183.671 260.936 183.879 260.656L184.515 261.292C184.275 261.612 183.955 261.872 183.555 262.072C183.163 262.272 182.703 262.372 182.175 262.372ZM180.495 258.58H183.687C183.631 257.964 183.467 257.504 183.195 257.2C182.923 256.888 182.567 256.732 182.127 256.732C181.687 256.732 181.319 256.888 181.023 257.2C180.727 257.504 180.551 257.964 180.495 258.58Z" fill="white"/>
<path d="M172.049 261.496C172.113 261.504 172.169 261.512 172.217 261.52C172.265 261.528 172.313 261.532 172.361 261.532C172.601 261.532 172.773 261.36 172.877 261.016C172.989 260.664 173.057 260.096 173.081 259.312C173.105 258.52 173.117 257.46 173.117 256.132H177.689V262.132H176.609V257.092H174.197C174.197 258.172 174.173 259.056 174.125 259.744C174.077 260.432 173.989 260.968 173.861 261.352C173.733 261.728 173.545 261.992 173.297 262.144C173.057 262.296 172.737 262.372 172.337 262.372C172.281 262.372 172.209 262.364 172.121 262.348C172.033 262.34 171.945 262.332 171.857 262.324L172.049 261.496Z" fill="white"/>
<path d="M166.012 256.132H168.52C169.288 256.132 169.832 256.24 170.152 256.456C170.48 256.672 170.644 257.032 170.644 257.536C170.644 257.952 170.532 258.264 170.308 258.472C170.092 258.68 169.716 258.84 169.18 258.952C169.804 258.984 170.264 259.128 170.56 259.384C170.856 259.64 171.004 260.016 171.004 260.512C171.004 260.872 170.924 261.172 170.764 261.412C170.604 261.652 170.356 261.832 170.02 261.952C169.684 262.072 169.248 262.132 168.712 262.132H166.012V256.132ZM168.316 258.724C168.708 258.724 169.012 258.648 169.228 258.496C169.452 258.344 169.564 258.116 169.564 257.812C169.564 257.516 169.456 257.304 169.24 257.176C169.032 257.04 168.732 256.972 168.34 256.972H167.092V258.724H168.316ZM168.544 261.292C169.008 261.292 169.352 261.212 169.576 261.052C169.808 260.892 169.924 260.656 169.924 260.344C169.924 260.024 169.808 259.8 169.576 259.672C169.344 259.536 168.996 259.468 168.532 259.468H167.092V261.292H168.544Z" fill="white"/>
<path d="M160.095 259.66C159.751 259.46 159.483 259.212 159.291 258.916C159.099 258.62 159.003 258.276 159.003 257.884C159.003 257.324 159.199 256.892 159.591 256.588C159.983 256.284 160.567 256.132 161.343 256.132H163.971V262.132H162.891V259.948H161.079L160.095 262.132H158.895L160.095 259.66ZM162.891 256.972H161.535C161.031 256.972 160.663 257.052 160.431 257.212C160.199 257.372 160.083 257.636 160.083 258.004C160.083 258.372 160.199 258.648 160.431 258.832C160.671 259.016 161.039 259.108 161.535 259.108H162.891V256.972Z" fill="white"/>
<path d="M151.502 256.132H153.794V256.168L153.398 256.972H151.502V256.132ZM153.098 256.132H154.178V261.292H155.51C155.95 261.292 156.27 261.188 156.47 260.98C156.67 260.772 156.77 260.484 156.77 260.116C156.77 259.756 156.682 259.472 156.506 259.264C156.338 259.056 156.062 258.952 155.678 258.952H153.398V258.112H155.642C156.33 258.112 156.87 258.284 157.262 258.628C157.654 258.972 157.85 259.452 157.85 260.068C157.85 260.7 157.662 261.204 157.286 261.58C156.91 261.948 156.394 262.132 155.738 262.132H153.098V256.132Z" fill="white"/>
<path d="M147.806 262.372C146.814 262.372 146.074 262.04 145.586 261.376C145.106 260.712 144.866 259.644 144.866 258.172C144.866 257.3 144.958 256.58 145.142 256.012C145.334 255.444 145.654 255.004 146.102 254.692C146.55 254.38 147.162 254.172 147.938 254.068C148.258 254.028 148.622 253.948 149.03 253.828C149.446 253.7 149.81 253.496 150.122 253.216V254.2C149.938 254.36 149.662 254.508 149.294 254.644C148.926 254.772 148.506 254.86 148.034 254.908C147.418 254.972 146.93 255.12 146.57 255.352C146.218 255.576 145.966 255.904 145.814 256.336C145.662 256.768 145.586 257.328 145.586 258.016C145.77 257.544 146.086 257.156 146.534 256.852C146.99 256.54 147.53 256.384 148.154 256.384C148.914 256.384 149.518 256.636 149.966 257.14C150.422 257.636 150.65 258.368 150.65 259.336C150.65 260.304 150.406 261.052 149.918 261.58C149.438 262.108 148.734 262.372 147.806 262.372ZM147.794 261.532C148.378 261.532 148.818 261.328 149.114 260.92C149.418 260.512 149.57 259.968 149.57 259.288C149.57 258.616 149.422 258.104 149.126 257.752C148.838 257.4 148.402 257.224 147.818 257.224C147.226 257.224 146.77 257.4 146.45 257.752C146.13 258.104 145.97 258.624 145.97 259.312C145.97 259.984 146.126 260.524 146.438 260.932C146.758 261.332 147.21 261.532 147.794 261.532Z" fill="white"/>
<path d="M140.604 262.372C139.996 262.372 139.48 262.244 139.056 261.988C138.632 261.732 138.308 261.36 138.084 260.872C137.868 260.376 137.76 259.776 137.76 259.072C137.76 258.408 137.868 257.84 138.084 257.368C138.308 256.888 138.632 256.524 139.056 256.276C139.488 256.02 140.008 255.892 140.616 255.892C141.6 255.892 142.34 256.172 142.836 256.732C143.34 257.292 143.592 258.072 143.592 259.072C143.592 260.128 143.34 260.944 142.836 261.52C142.332 262.088 141.588 262.372 140.604 262.372ZM140.628 261.532C141.268 261.532 141.74 261.332 142.044 260.932C142.356 260.532 142.512 259.92 142.512 259.096C142.512 258.312 142.356 257.724 142.044 257.332C141.74 256.932 141.276 256.732 140.652 256.732C140.036 256.732 139.58 256.924 139.284 257.308C138.988 257.684 138.84 258.272 138.84 259.072C138.84 259.888 138.988 260.504 139.284 260.92C139.58 261.328 140.028 261.532 140.628 261.532Z" fill="white"/>
<path d="M129.221 256.132H130.301V261.292H131.693C132.149 261.292 132.461 261.188 132.629 260.98C132.805 260.772 132.893 260.484 132.893 260.116C132.893 259.756 132.821 259.472 132.677 259.264C132.541 259.056 132.277 258.952 131.885 258.952H129.521V258.112H131.825C132.537 258.112 133.073 258.284 133.433 258.628C133.793 258.972 133.973 259.452 133.973 260.068C133.973 260.7 133.797 261.204 133.445 261.58C133.101 261.948 132.593 262.132 131.921 262.132H129.221V256.132Z" fill="white"/>
<path d="M124.452 256.972H122.34V256.132H127.632V256.972H125.533V262.132H124.452V256.972Z" fill="white"/>
<path d="M117.616 262.372C117.064 262.372 116.588 262.232 116.188 261.952C115.788 261.672 115.48 261.284 115.264 260.788C115.048 260.292 114.94 259.724 114.94 259.084C114.94 258.476 115.04 257.932 115.24 257.452C115.44 256.972 115.728 256.592 116.104 256.312C116.488 256.032 116.956 255.892 117.508 255.892C118.284 255.892 118.876 256.176 119.284 256.744C119.7 257.304 119.908 258.108 119.908 259.156C119.908 260.172 119.712 260.964 119.32 261.532C118.928 262.092 118.36 262.372 117.616 262.372ZM117.772 261.532C118.148 261.532 118.476 261.424 118.756 261.208C119.036 260.992 119.252 260.7 119.404 260.332C119.564 259.964 119.644 259.548 119.644 259.084C119.644 258.62 119.564 258.212 119.404 257.86C119.244 257.508 119.02 257.232 118.732 257.032C118.444 256.832 118.112 256.732 117.736 256.732C117.2 256.732 116.78 256.94 116.476 257.356C116.172 257.764 116.02 258.328 116.02 259.048C116.02 259.8 116.176 260.404 116.488 260.86C116.808 261.308 117.236 261.532 117.772 261.532ZM119.644 262.132V256.132H120.724V262.132H119.644Z" fill="white"/>
<path d="M108.974 256.132H111.482C112.25 256.132 112.794 256.24 113.114 256.456C113.442 256.672 113.606 257.032 113.606 257.536C113.606 257.952 113.494 258.264 113.27 258.472C113.054 258.68 112.678 258.84 112.142 258.952C112.766 258.984 113.226 259.128 113.522 259.384C113.818 259.64 113.966 260.016 113.966 260.512C113.966 260.872 113.886 261.172 113.726 261.412C113.566 261.652 113.318 261.832 112.982 261.952C112.646 262.072 112.21 262.132 111.674 262.132H108.974V256.132ZM111.278 258.724C111.67 258.724 111.974 258.648 112.19 258.496C112.414 258.344 112.526 258.116 112.526 257.812C112.526 257.516 112.418 257.304 112.202 257.176C111.994 257.04 111.694 256.972 111.302 256.972H110.054V258.724H111.278ZM111.506 261.292C111.97 261.292 112.314 261.212 112.538 261.052C112.77 260.892 112.886 260.656 112.886 260.344C112.886 260.024 112.77 259.8 112.538 259.672C112.306 259.536 111.958 259.468 111.494 259.468H110.054V261.292H111.506Z" fill="white"/>
<path d="M104.353 262.372C103.745 262.372 103.229 262.244 102.805 261.988C102.381 261.732 102.057 261.36 101.833 260.872C101.617 260.376 101.509 259.776 101.509 259.072C101.509 258.408 101.617 257.84 101.833 257.368C102.057 256.888 102.381 256.524 102.805 256.276C103.237 256.02 103.757 255.892 104.365 255.892C105.349 255.892 106.089 256.172 106.585 256.732C107.089 257.292 107.341 258.072 107.341 259.072C107.341 260.128 107.089 260.944 106.585 261.52C106.081 262.088 105.337 262.372 104.353 262.372ZM104.377 261.532C105.017 261.532 105.489 261.332 105.793 260.932C106.105 260.532 106.261 259.92 106.261 259.096C106.261 258.312 106.105 257.724 105.793 257.332C105.489 256.932 105.025 256.732 104.401 256.732C103.785 256.732 103.329 256.924 103.033 257.308C102.737 257.684 102.589 258.272 102.589 259.072C102.589 259.888 102.737 260.504 103.033 260.92C103.329 261.328 103.777 261.532 104.377 261.532Z" fill="white"/>
<path d="M95.2339 256.132H96.3139V262.132H95.2339V256.132ZM95.3179 258.544H98.4139L99.5299 256.132H100.67L99.1579 258.976L100.838 262.132H99.6139L98.3659 259.324H95.4019L95.3179 258.544Z" fill="white"/>
<path d="M87.8254 256.132H88.9054V260.608L92.1574 256.132H93.2134V262.132H92.1334V257.644L88.8694 262.132H87.8254V256.132Z" fill="white"/>
<path d="M80.1113 261.496C80.1753 261.504 80.2313 261.512 80.2793 261.52C80.3273 261.528 80.3753 261.532 80.4233 261.532C80.6633 261.532 80.8353 261.36 80.9393 261.016C81.0513 260.664 81.1193 260.096 81.1433 259.312C81.1673 258.52 81.1793 257.46 81.1793 256.132H85.7513V262.132H84.6713V257.092H82.2593C82.2593 258.172 82.2353 259.056 82.1873 259.744C82.1393 260.432 82.0513 260.968 81.9233 261.352C81.7953 261.728 81.6073 261.992 81.3593 262.144C81.1193 262.296 80.7993 262.372 80.3993 262.372C80.3433 262.372 80.2713 262.364 80.1833 262.348C80.0953 262.34 80.0073 262.332 79.9193 262.324L80.1113 261.496Z" fill="white"/>
<path d="M76.1029 262.372C75.1109 262.372 74.3709 262.04 73.8829 261.376C73.4029 260.712 73.1629 259.644 73.1629 258.172C73.1629 257.3 73.2549 256.58 73.4389 256.012C73.6309 255.444 73.9509 255.004 74.3989 254.692C74.8469 254.38 75.4589 254.172 76.2349 254.068C76.5549 254.028 76.9189 253.948 77.3269 253.828C77.7429 253.7 78.1069 253.496 78.4189 253.216V254.2C78.2349 254.36 77.9589 254.508 77.5909 254.644C77.2229 254.772 76.8029 254.86 76.3309 254.908C75.7149 254.972 75.2269 255.12 74.8669 255.352C74.5149 255.576 74.2629 255.904 74.1109 256.336C73.9589 256.768 73.8829 257.328 73.8829 258.016C74.0669 257.544 74.3829 257.156 74.8309 256.852C75.2869 256.54 75.8269 256.384 76.4509 256.384C77.2109 256.384 77.8149 256.636 78.2629 257.14C78.7189 257.636 78.9469 258.368 78.9469 259.336C78.9469 260.304 78.7029 261.052 78.2149 261.58C77.7349 262.108 77.0309 262.372 76.1029 262.372ZM76.0909 261.532C76.6749 261.532 77.1149 261.328 77.4109 260.92C77.7149 260.512 77.8669 259.968 77.8669 259.288C77.8669 258.616 77.7189 258.104 77.4229 257.752C77.1349 257.4 76.6989 257.224 76.1149 257.224C75.5229 257.224 75.0669 257.4 74.7469 257.752C74.4269 258.104 74.2669 258.624 74.2669 259.312C74.2669 259.984 74.4229 260.524 74.7349 260.932C75.0549 261.332 75.5069 261.532 76.0909 261.532Z" fill="white"/>
<path d="M66.9425 263.764C67.0945 263.82 67.2545 263.864 67.4225 263.896C67.5985 263.928 67.7385 263.944 67.8425 263.944C68.0185 263.944 68.1665 263.9 68.2865 263.812C68.4145 263.724 68.5225 263.596 68.6105 263.428C68.7065 263.268 68.7945 263.068 68.8745 262.828L71.0585 256.132H72.1985L69.8105 263.068C69.6825 263.436 69.5425 263.748 69.3905 264.004C69.2385 264.26 69.0545 264.452 68.8385 264.58C68.6225 264.716 68.3505 264.784 68.0225 264.784C67.7985 264.784 67.6185 264.772 67.4825 264.748C67.3465 264.724 67.2185 264.692 67.0985 264.652C66.9865 264.612 66.8465 264.564 66.6785 264.508L66.9425 263.764ZM66.3665 256.132H67.5065L69.4505 262.132H68.4305L66.3665 256.132Z" fill="white"/>
<path d="M59.6685 256.132H64.9245V262.132H63.8445V257.092H60.7485V262.132H59.6685V256.132Z" fill="white"/>
<path d="M53.8079 262.372C53.0319 262.372 52.3399 262.204 51.7319 261.868C51.1319 261.524 50.6599 261.024 50.3159 260.368C49.9719 259.704 49.7999 258.892 49.7999 257.932C49.7999 256.988 49.9679 256.188 50.3039 255.532C50.6399 254.868 51.1079 254.364 51.7079 254.02C52.3159 253.668 53.0199 253.492 53.8199 253.492C54.6519 253.492 55.3679 253.676 55.9679 254.044C56.5679 254.404 57.0279 254.916 57.3479 255.58C57.6679 256.244 57.8279 257.028 57.8279 257.932C57.8279 258.9 57.6559 259.716 57.3119 260.38C56.9679 261.036 56.4919 261.532 55.8839 261.868C55.2839 262.204 54.5919 262.372 53.8079 262.372ZM53.8439 261.412C54.4439 261.412 54.9559 261.272 55.3799 260.992C55.8039 260.712 56.1279 260.312 56.3519 259.792C56.5839 259.272 56.6999 258.652 56.6999 257.932C56.6999 256.772 56.4559 255.904 55.9679 255.328C55.4799 254.744 54.7479 254.452 53.7719 254.452C52.8679 254.452 52.1679 254.76 51.6719 255.376C51.1759 255.992 50.9279 256.844 50.9279 257.932C50.9279 259.084 51.1799 259.952 51.6839 260.536C52.1879 261.12 52.9079 261.412 53.8439 261.412Z" fill="white"/>
<path d="M89.1338 270.678C89.4991 269.19 88.1245 267.861 86.6497 268.276L69.3215 273.153C67.5523 273.651 67.335 276.071 68.9873 276.876L76.7881 280.677C77.2164 280.885 77.5561 281.24 77.7461 281.677L80.9359 289.01C81.6995 290.766 84.2558 290.548 84.7122 288.689L89.1338 270.678Z" fill="#1E1E1E"/>
<rect x="108" y="203" width="20" height="20" rx="10" fill="#4CB542" fill-opacity="0.16"/>
<path d="M115.606 208.8H118.57C119.202 208.8 119.75 208.916 120.214 209.148C120.686 209.38 121.046 209.712 121.294 210.144C121.55 210.576 121.678 211.088 121.678 211.68C121.678 212.248 121.554 212.74 121.306 213.156C121.066 213.572 120.718 213.892 120.262 214.116C119.806 214.332 119.262 214.44 118.63 214.44H114.322V213.288H118.546C119.138 213.288 119.578 213.152 119.866 212.88C120.154 212.6 120.298 212.18 120.298 211.62C120.298 211.044 120.146 210.62 119.842 210.348C119.546 210.076 119.098 209.94 118.498 209.94H116.986V217.2H115.606V208.8ZM114.322 215.436H120.934V216.036H114.322V215.436Z" fill="#4CB542"/>
<rect x="141" y="229" width="10" height="10" rx="5" fill="#4CB542" fill-opacity="0.16"/>
<path d="M144.698 231.5H146.31C146.654 231.5 146.952 231.569 147.204 231.707C147.461 231.845 147.656 232.043 147.791 232.3C147.93 232.557 148 232.862 148 233.214C148 233.552 147.933 233.845 147.798 234.093C147.667 234.34 147.478 234.531 147.23 234.664C146.982 234.793 146.686 234.857 146.343 234.857H144V234.171H146.297C146.619 234.171 146.858 234.09 147.015 233.929C147.171 233.762 147.25 233.512 147.25 233.179C147.25 232.836 147.167 232.583 147.002 232.421C146.841 232.26 146.597 232.179 146.271 232.179H145.449V236.5H144.698V231.5ZM144 235.45H147.595V235.807H144V235.45Z" fill="#4CB542"/>
<rect x="139" y="157" width="40" height="40" rx="20" fill="#4CB542" fill-opacity="0.16"/>
<path d="M153.793 168.5H160.24C161.614 168.5 162.806 168.735 163.816 169.204C164.842 169.674 165.625 170.346 166.165 171.22C166.722 172.094 167 173.13 167 174.329C167 175.478 166.73 176.474 166.191 177.316C165.669 178.158 164.912 178.805 163.92 179.259C162.928 179.696 161.745 179.914 160.37 179.914H151V177.583H160.188C161.475 177.583 162.432 177.308 163.059 176.757C163.685 176.19 163.998 175.34 163.998 174.207C163.998 173.041 163.668 172.183 163.007 171.633C162.363 171.082 161.388 170.807 160.083 170.807H156.794V185.5H153.793V168.5ZM151 181.93H165.382V183.144H151V181.93Z" fill="#4CB542"/>
</svg>
