<svg width="1264" height="461" viewBox="0 0 1264 461" fill="none" xmlns="http://www.w3.org/2000/svg">
<g clip-path="url(#clip0_892_3186)">
<rect width="1264" height="461" fill="#F7F7F7"/>
<g clip-path="url(#clip1_892_3186)">
<path d="M809.822 -52L1077.96 244.821L781.136 512.958L513 216.136L809.822 -52Z" fill="#F7F7F7"/>
<path d="M903.768 125.832C904.362 126.357 905.267 127.326 905.818 127.918C917.736 140.496 924.04 157.372 923.288 174.683C922.725 191.291 915.626 207.005 903.535 218.404C891.913 229.183 874.808 236.439 858.873 235.856C858.033 240.725 857.524 249.606 857.099 254.808C861.878 257.19 867.132 258.673 871.003 262.524C878.062 269.546 879.639 279.637 875.655 288.647C872.445 295.904 869.161 303.148 865.918 310.403L844.033 359.388C839.419 370.058 834.696 380.681 829.864 391.254C825.574 400.607 823.136 409.095 812.598 413.172C807.555 415.123 803.004 415.627 797.651 414.565C793.533 413.748 790.047 411.653 786.264 409.958L757.064 396.687L745.737 391.582C742.013 389.922 737.655 388.179 734.379 385.819C730.638 383.172 727.737 379.505 726.025 375.254C723.38 368.544 723.74 360.864 726.652 354.304C729.938 347.067 733.275 339.854 736.665 332.665L763.61 274.857L772.2 256.563C773.843 253.002 776.322 247.114 778.426 244.093C781.655 239.516 786.166 235.997 791.391 233.98C797.798 231.538 804.898 231.642 811.232 234.269C814.159 235.471 817.662 237.413 820.772 238.8C822.747 234.889 824.882 231.06 827.17 227.323L822.999 224.633C815.279 219.578 808.149 211.664 804.084 203.311C793.433 210.984 779.617 215.267 766.465 213.998C763.987 213.759 761.48 213.395 759.008 213.068C755.228 219.848 751.734 227.03 748.241 233.972C744.246 241.747 740.336 249.565 736.512 257.425C734.913 256.899 732.53 255.787 730.949 255.091C728.402 259.794 725.614 266.017 722.989 270.335C718.566 270.295 718.344 272.753 720.368 275.972C719.555 277.761 718.343 279.938 717.441 281.741C715.355 285.94 713.244 290.126 711.107 294.299C706.671 303.111 702.125 311.865 697.469 320.563C692.739 321.931 687.728 324.243 683 325.716C680.603 326.463 677.914 324.469 675.68 323.165C673.989 319.381 672.62 312.849 670.845 308.342C672.583 304.353 675.635 299.275 677.62 295.229C683.4 283.441 689.732 271.872 695.559 260.103C696.92 259.55 699.35 259.231 701.141 258.656C700.635 257.696 700.417 257.273 700.049 256.231C702.375 252.076 704.516 247.819 706.462 243.473C704.851 242.709 703.247 241.927 701.651 241.13C706.903 230.093 712.867 219.073 718.202 208.051C720.342 203.629 723.065 198.853 724.976 194.404C710.859 181.041 705.704 159.461 710.042 140.788C713.695 124.904 723.596 111.163 737.506 102.669C765.284 85.3654 802.299 94.2755 819.483 121.976C830.317 113.084 843.804 108.054 857.815 107.682C875.28 107.255 891.159 113.894 903.768 125.832Z" fill="black"/>
<path d="M857.954 256.725C862.262 258.641 866.227 260.116 869.733 263.411C875.823 269.136 878.09 278.404 875.056 286.234C873.457 290.361 871.403 294.683 869.556 298.804L859.429 321.571L836.527 372.857C833.503 379.779 830.531 386.589 827.294 393.404C824.314 399.677 823.008 404.926 816.933 409.183C809.692 414.259 800.961 415.133 792.904 411.522L756.086 394.774L744.566 389.562C736.728 386.013 730.461 383.113 727.186 374.364C725.508 369.885 725.157 364.738 726.338 360.087C726.408 357.236 734.835 340.069 736.567 336.302C743.723 320.675 750.976 305.092 758.323 289.554L771.829 260.641C777.069 249.503 780.445 238.53 793.674 234.69C804.059 231.676 811.163 235.36 820.094 240.163C816.836 247.766 814.235 255.633 812.317 263.679C811.962 265.174 811.181 264.935 810.593 265.875C809.175 268.145 812.201 271.795 813.829 272.881C820.478 277.313 829.056 275.585 833.536 268.997C837.867 262.629 835.834 254.065 830.966 248.635C829.976 247.536 828.653 246.665 827.422 245.851C827.769 244.963 828.19 244.04 828.573 243.162C830.721 243.951 833.325 245.26 835.382 246.302C842.757 250.039 850.538 253.133 857.954 256.725Z" fill="#DB4431"/>
<path d="M857.954 256.724C862.262 258.641 866.227 260.115 869.733 263.41C875.823 269.135 878.09 278.403 875.056 286.234C873.457 290.361 871.403 294.682 869.556 298.804L859.429 321.57L836.527 372.856C833.503 379.778 830.531 386.588 827.294 393.404C824.314 399.677 823.008 404.925 816.933 409.183C809.692 414.258 800.961 415.133 792.904 411.522L756.086 394.773L744.566 389.561C736.728 386.012 730.461 383.112 727.186 374.363C725.508 369.884 725.157 364.737 726.338 360.086C726.662 360.853 726.78 362.243 726.959 363.116C727.572 366.104 728.441 369.226 730.355 371.67C731.422 372.924 732.791 374.73 734.196 375.581C738.55 378.219 743.674 380.294 748.307 382.375L770.529 392.411L785.199 398.997C787.66 400.108 792.009 402.2 794.443 402.952C799.18 404.416 806.178 403.876 810.585 401.437C813.113 400.098 816.295 397.542 817.689 394.949C820.959 388.87 823.659 382.062 826.41 375.731L839.374 346.607C847.156 328.94 855.232 311.643 862.544 293.638C867.408 281.662 872.34 272.156 861.757 260.791C861.015 259.994 858.187 257.533 857.954 256.724Z" fill="#FEFEFE"/>
<path d="M837.691 291.577C841.951 295.287 844.019 302.198 841.984 307.492C840.856 310.428 839.642 313.295 838.415 316.19L829.862 335.856L817.663 363.99C815.814 368.253 813.65 374.218 811.187 377.95C808.025 382.744 800.187 385.123 794.802 383.472C790.83 382.254 786.626 379.949 782.73 378.401C775.709 375.384 768.738 372.296 761.848 369.009C760.767 368.493 759.793 367.805 758.855 367.07C755.462 364.039 753.507 360.6 752.876 356.07C752.086 350.402 754.553 346.424 756.826 341.472L763.632 326.658L776.417 298.574C778.817 293.207 781.089 287.78 783.711 282.51C786.123 277.664 790.569 274.955 795.856 274.35C801.065 273.754 804.751 275.749 809.355 277.809C813.129 279.501 816.888 281.223 820.634 282.975C825.797 285.359 833.442 288.165 837.691 291.577Z" fill="black"/>
<path d="M825.873 341.024L825.919 341.13C825.914 341.273 812.143 373.027 810.603 375.97C809.205 378.641 805.512 381.407 802.333 382.028C800.31 382.423 797.876 382.731 795.768 382.099C791.574 380.84 787.222 378.543 783.162 376.785L770.034 371.108C761.534 367.402 756.626 366.045 754.412 356.252C754.267 354.947 754.187 351.664 754.672 350.448C758.604 340.595 763.426 331.04 767.677 321.307C768.469 319.494 769.329 317.604 770.264 315.865C774.219 318.048 780.876 320.778 785.164 322.751L825.873 341.024Z" fill="#DB4431"/>
<path d="M796.555 347.45C799.28 349.896 800.788 353.154 802.308 356.4C808.688 360.732 812.29 366.264 801.003 365.78C799.38 365.71 797.903 363.025 797.053 361.756C791.941 359.713 785.746 356.86 780.763 354.51C775.12 352.023 776.297 354.176 771.783 353.21C768.172 347.786 762.735 341.275 774.248 344.107C776.761 342.916 778.988 341.924 781.811 341.756C787.305 341.43 792.494 343.941 796.555 347.45Z" fill="black"/>
<path d="M794.804 348.107C797.279 350.203 799.337 354.263 800.882 357.092C795.762 355.145 788.931 351.738 783.924 349.292C781.004 348.002 778.689 347.045 775.982 345.304C782.606 341.688 789.131 343.574 794.804 348.107Z" fill="#F7F7F7"/>
<path d="M804.219 360C805.163 360.981 805.962 362.4 806.588 363.603C804.853 363.985 802.802 364.056 801.009 364.174C800.007 363.168 799.193 361.935 798.429 360.747L801.3 358.178C802.66 358.847 803.052 359.078 804.219 360Z" fill="#F7F7F7"/>
<path d="M774.798 346.894C775.902 347.968 777.831 349.464 777.014 351.14C776.027 352.06 773.775 352.186 772.744 351.435C771.763 350.01 770.525 348.436 770.439 346.739C770.747 345.996 770.5 346.267 771.188 345.883C772.4 345.786 773.743 346.337 774.798 346.894Z" fill="#F7F7F7"/>
<path d="M836.742 292.856C838.25 294.161 839.258 295.792 840.09 297.573C843.138 304.098 839.187 310.151 836.726 316.149C833.484 324.05 829.873 331.774 826.688 339.704C821.833 337.409 816.513 335.151 811.576 332.938L780.337 318.908C777.468 317.622 773.607 315.989 770.952 314.455C772.908 309.358 775.996 302.668 778.437 297.792C782.933 288.808 784.457 276.96 796.295 275.817C798.16 275.624 800.045 275.796 801.845 276.322C806.068 277.577 813.372 281.247 817.474 283.217C822.716 285.733 832.523 289.375 836.742 292.856Z" fill="#DB4431"/>
<path d="M825.143 314.677C826.751 315.992 829.51 319.121 826.82 321.073C825.64 321.929 824.043 321.285 822.735 320.911C819.611 323.228 817.567 322.045 816.258 318.727C810.902 316.117 803.258 312.558 797.794 310.203C795.373 312.031 793.107 312.499 791.579 309.358C791.4 308.449 791.401 308.073 791.375 307.133L790.859 306.809C789.56 305.983 787.444 304.4 788.908 302.813C791.235 300.29 800.195 299.837 803.232 300.266C808.941 301.071 815.165 305.633 819.352 309.318C821.28 311.015 822.766 312.882 824.856 314.462L825.143 314.677Z" fill="black"/>
<path d="M819.532 312.006L819.823 312.375C818.553 312.664 799.284 303.904 796.512 302.522L796.285 302.358L796.425 302.175C797.675 301.999 799.238 301.763 800.485 301.756C807.449 301.719 814.811 307.332 819.532 312.006Z" fill="#F7F7F7"/>
<path d="M795.519 307.221C795.971 307.46 796.26 307.924 796.274 308.436C796.289 308.948 796.028 309.428 795.59 309.693C795.152 309.958 794.606 309.968 794.159 309.718C793.479 309.338 793.232 308.481 793.605 307.797C793.977 307.113 794.831 306.856 795.519 307.221Z" fill="#FEFEFE"/>
<path d="M820.688 317.66C821.139 317.868 821.439 318.308 821.468 318.804C821.498 319.3 821.251 319.772 820.827 320.032C820.403 320.292 819.871 320.297 819.442 320.046C818.822 319.682 818.596 318.896 818.929 318.259C819.261 317.622 820.035 317.358 820.688 317.66Z" fill="#FEFEFE"/>
<path d="M809.567 111.877C812.523 114.454 816.89 120.235 818.803 123.47C826.835 137.046 829.69 153.542 825.801 168.89C821.973 183.973 812.329 196.927 798.976 204.919C786.719 212.185 772.268 214.757 758.372 211.206C754.642 217.638 750.662 225.962 747.359 232.608L735.729 255.753C734.028 254.92 731.946 253.878 730.152 253.345L722.362 268.777C719.191 269.047 718.044 270.516 717.563 273.572C717.887 274.465 718.328 275.342 718.735 276.204C715.629 281.987 712.971 287.886 709.928 293.594C708.979 293.117 707.235 291.955 706.414 292.976C706.661 294.104 708.202 294.549 709.185 294.996C708.116 297.462 706.697 300.003 705.406 302.363C704.05 301.658 703.041 300.912 701.554 301.113L701.454 301.357C702.177 302.618 703.42 303.073 704.701 303.703C702.071 308.984 699.333 314.212 696.49 319.383C693.428 320.426 690.376 321.501 687.336 322.607C685.454 323.289 683.099 324.275 681.185 324.656C680.006 323.802 678.242 323.019 676.888 322.374C675.457 318.285 674.071 313.517 672.756 309.342C672.565 308.853 672.489 308.4 672.722 307.916C675.112 302.935 677.803 297.649 680.451 292.824C681.611 293.443 682.556 294.166 683.822 293.925L684.041 293.596C683.632 292.383 682.329 291.947 681.171 291.35C682.331 288.902 683.556 286.485 684.844 284.102C686.243 284.65 686.824 285.254 688.356 285.077L688.559 284.82C688.033 283.665 686.737 283.303 685.57 282.794C687.915 277.643 690.954 272.588 693.417 267.469C694.388 265.454 695.545 263.216 696.664 261.286C698.311 261.001 701.576 260.775 702.274 259.038C702.597 258.236 701.906 257.366 701.49 256.687C703.914 252.164 706.242 247.589 708.471 242.966C707.145 242.215 705.016 241.335 703.52 240.588C704.676 237.62 708.165 231.425 709.665 228.272C715.105 216.834 721.384 205.519 726.702 194.029C716.164 183.756 710.555 171.385 709.986 156.548C709.385 140.825 715.067 125.509 725.778 113.983C736.403 102.625 751.062 95.8913 766.6 95.2294C783.17 94.6629 797.561 100.622 809.567 111.877Z" fill="#FEFEFE"/>
<path d="M792.253 120.671C799.253 127.019 799.792 137.837 793.456 144.848C787.121 151.86 776.305 152.418 769.281 146.096C762.239 139.757 761.68 128.907 768.031 121.876C774.383 114.846 785.235 114.306 792.253 120.671Z" fill="black"/>
<path d="M792.102 122.481C798.098 128.742 797.904 138.672 791.669 144.695C785.434 150.718 775.503 150.568 769.453 144.359C763.365 138.112 763.517 128.106 769.79 122.046C776.064 115.986 786.069 116.181 792.102 122.481Z" fill="#F7F7F7"/>
<path d="M728.741 224.292C729.484 225.385 729.116 225.742 728.572 226.82C725.452 232.989 722.363 239.179 719.225 245.339L692.253 298.663C688.582 305.853 684.995 313.162 681.249 320.315C680.918 320.948 680.696 321.263 680.125 321.687C679.752 321.141 679.709 321.169 679.645 320.526C680.026 319.285 683.337 313.021 684.179 311.372L693.475 292.959L718.842 242.98C721.765 237.267 724.54 231.433 727.463 225.717C727.843 224.974 728.037 224.743 728.741 224.292Z" fill="black"/>
<path d="M822.796 127.901C825.155 126.031 827.558 124.229 830.125 122.648C842.801 114.925 858.004 112.491 872.457 115.87C887.345 119.388 900.211 128.707 908.196 141.756C915.704 154.118 918.698 170.259 915.261 184.377C912.152 198.883 903.376 211.545 890.884 219.548C881.645 225.548 869.638 229.167 858.59 229.054C858.108 220.968 858.324 216.036 849.65 212.546C840.9 209.025 836.361 215.71 831.21 221.73C820.77 215.711 815.107 209.358 809.287 198.986C822.085 186.331 828.453 173.727 828.915 155.304C829.136 146.483 827.244 140.272 824.613 132.115C824.053 130.734 823.391 129.278 822.796 127.901Z" fill="#F7F7F7"/>
<path d="M822.796 127.901C825.155 126.031 827.558 124.229 830.125 122.648C842.801 114.925 858.004 112.491 872.457 115.87C887.345 119.388 900.211 128.707 908.196 141.756C915.704 154.118 918.698 170.259 915.261 184.377C914.592 184.173 914.314 184.051 913.908 183.426C910.169 177.674 906.499 172.737 901.955 167.566C896.287 161.147 889.906 155.395 882.935 150.422C866.638 138.975 846.824 131.886 826.933 132.034C826.568 132.036 824.73 132.151 824.613 132.115C824.053 130.734 823.391 129.278 822.796 127.901Z" fill="#F7F7F7"/>
<path d="M904.231 128.093C909.44 133.4 914.13 140.679 916.983 147.526C923.508 163.125 923.574 180.676 917.168 196.324C910.835 211.384 898.79 223.32 883.673 229.517C868.474 235.759 851.672 236.398 836.386 230.041C837.218 228.79 837.882 227.846 838.806 226.665C850.35 231.318 864.054 231.415 875.921 227.943C891.1 223.546 903.875 213.232 911.371 199.32C914.392 193.425 916.428 187.076 917.4 180.524C919.735 164.94 915.709 149.072 906.227 136.486C896.998 124.112 883.251 115.89 867.984 113.612C855.006 111.735 841.776 114.306 830.448 120.908C827.439 122.664 824.882 124.625 822.105 126.709C821.552 125.583 820.792 124.288 820.172 123.174C831.117 114.104 844.871 109.117 859.085 109.064C876.504 108.942 891.939 116.04 904.231 128.093Z" fill="#FEFEFE"/>
<path d="M850.036 214.234L850.061 214.39C849.841 214.851 847.889 215.771 847.254 216.291C829.931 230.464 821.722 252.095 818.512 273.393C815.955 272.759 814.924 272.071 812.995 270.43C812.249 266.838 817.178 251.399 818.648 247.447C822.164 237.991 832.764 217.622 841.966 213.59C844.802 212.348 847.327 213.174 850.036 214.234Z" fill="#FEFEFE"/>
<path d="M828.637 248.312C838.118 256.592 835.943 272.972 821.954 273.874C821.182 273.901 820.493 273.787 819.729 273.693C820.052 272.287 820.324 270.714 820.576 269.293C821.645 263.268 823.107 257.352 825.227 251.605C825.692 250.345 826.21 248.379 827.031 247.321C827.599 247.406 828.13 247.926 828.637 248.312Z" fill="#F7F7F7"/>
<path d="M848.63 235.118C848.693 236.206 848.366 239.439 848.261 240.587L847.333 250.405C842.994 248.384 838.671 246.331 834.363 244.245L829.253 241.792C830.84 238.639 833.54 234.166 835.475 231.235C840.105 233.28 843.76 234.07 848.63 235.118Z" fill="#F7F7F7"/>
<path d="M830.069 222.766L830.185 222.992C829.901 223.753 828.618 225.417 828.084 226.155C818.381 220.492 810.729 213.349 805.573 203.271C805.307 202.728 805.365 203.009 805.413 202.393C806.191 201.396 807.281 200.649 808.29 199.861C813.991 210.641 819.732 216.254 830.069 222.766Z" fill="#FEFEFE"/>
<path d="M857.278 235.869C857.385 236.741 857.202 237.818 857.09 238.699C856.444 243.772 856.243 248.899 855.652 253.975C853.856 253.319 852.074 252.456 850.357 251.614L848.814 250.869C849.051 246.012 849.675 240.281 850.086 235.372C852.459 235.63 854.892 235.733 857.278 235.869Z" fill="#FEFEFE"/>
<path d="M853.524 216.405C857.185 220.116 856.819 223.757 857.155 228.852C855.407 228.79 853.581 228.585 851.833 228.418L850.466 228.205C850.077 222.698 852.074 222.564 847.301 218.047C848.816 216.902 850.072 216.128 851.792 215.357C852.396 215.642 852.962 216.039 853.524 216.405Z" fill="#FEFEFE"/>
<path d="M847.14 219.833C849.749 222.267 849.456 224.481 848.952 227.922C847.233 227.717 846.089 227.441 844.397 227.028C842.701 226.516 841.479 226.108 839.837 225.45C841.05 223.875 843.962 220.675 845.711 219.585C846.189 219.287 846.634 219.612 847.14 219.833Z" fill="#F7F7F7"/>
</g>
</g>
<defs>
<clipPath id="clip0_892_3186">
<rect width="1264" height="461" fill="white"/>
</clipPath>
<clipPath id="clip1_892_3186">
<rect width="400" height="400" fill="white" transform="translate(809.822 -52) rotate(47.9067)"/>
</clipPath>
</defs>
</svg>
