<svg width="335" height="385" viewBox="0 0 335 385" fill="none" xmlns="http://www.w3.org/2000/svg">
<rect width="335" height="385" rx="12" fill="#F7F7F7"/>
<g clip-path="url(#clip0_891_3263)">
<path d="M256.902 153.263C257.324 153.636 257.967 154.324 258.359 154.745C266.828 163.684 271.308 175.677 270.774 187.98C270.374 199.782 265.329 210.949 256.736 219.05C248.477 226.71 236.32 231.867 224.996 231.453C224.4 234.913 224.038 241.225 223.735 244.921C227.132 246.614 230.866 247.668 233.617 250.405C238.633 255.395 239.754 262.567 236.923 268.969C234.642 274.127 232.308 279.275 230.003 284.431L214.45 319.243C211.171 326.826 207.814 334.375 204.381 341.889C201.332 348.536 199.599 354.568 192.11 357.466C188.527 358.852 185.292 359.21 181.488 358.455C178.562 357.874 176.084 356.386 173.396 355.181L152.644 345.75L144.594 342.122C141.948 340.942 138.851 339.704 136.523 338.026C133.864 336.146 131.803 333.539 130.586 330.518C128.706 325.75 128.962 320.292 131.031 315.63C133.366 310.487 135.738 305.361 138.147 300.252L157.296 259.17L163.401 246.168C164.568 243.638 166.33 239.454 167.825 237.306C170.12 234.054 173.326 231.553 177.039 230.12C181.593 228.385 186.638 228.458 191.139 230.325C193.22 231.179 195.709 232.559 197.919 233.545C199.323 230.765 200.84 228.045 202.466 225.389L199.502 223.477C194.016 219.884 188.948 214.26 186.059 208.324C178.491 213.777 168.672 216.821 159.325 215.919C157.564 215.749 155.782 215.491 154.026 215.258C151.339 220.076 148.856 225.181 146.374 230.114C143.535 235.639 140.756 241.195 138.039 246.781C136.902 246.407 135.208 245.617 134.085 245.123C132.275 248.465 130.294 252.888 128.428 255.956C125.285 255.927 125.127 257.674 126.566 259.962C125.988 261.233 125.126 262.781 124.485 264.062C123.003 267.046 121.503 270.021 119.984 272.987C116.832 279.248 113.601 285.47 110.292 291.651C106.93 292.624 103.369 294.267 100.009 295.313C98.3059 295.844 96.3952 294.427 94.8074 293.5C93.6052 290.812 92.6328 286.169 91.3714 282.966C92.6062 280.132 94.7755 276.523 96.1858 273.647C100.294 265.27 104.794 257.049 108.934 248.685C109.902 248.291 111.628 248.065 112.902 247.656C112.542 246.974 112.387 246.673 112.125 245.933C113.779 242.98 115.3 239.955 116.683 236.866C115.538 236.323 114.398 235.768 113.264 235.201C116.996 227.358 121.235 219.526 125.026 211.693C126.547 208.55 128.482 205.156 129.84 201.995C119.808 192.498 116.144 177.161 119.227 163.891C121.823 152.603 128.859 142.838 138.745 136.801C158.486 124.504 184.791 130.836 197.003 150.522C204.702 144.203 214.287 140.629 224.244 140.364C236.656 140.06 247.941 144.778 256.902 153.263Z" fill="black"/>
<path d="M224.343 246.284C227.405 247.646 230.223 248.694 232.714 251.036C237.042 255.104 238.653 261.691 236.497 267.256C235.361 270.189 233.901 273.26 232.588 276.189L225.391 292.368L209.115 328.815C206.967 333.735 204.855 338.574 202.554 343.418C200.437 347.875 199.508 351.605 195.191 354.631C190.045 358.238 183.84 358.86 178.114 356.293L151.949 344.391L143.762 340.687C138.192 338.165 133.739 336.104 131.41 329.886C130.218 326.703 129.969 323.045 130.809 319.74C130.858 317.714 136.847 305.514 138.078 302.837C143.163 291.731 148.317 280.657 153.539 269.614L163.137 249.067C166.861 241.152 169.26 233.354 178.662 230.625C186.042 228.482 191.09 231.101 197.437 234.514C195.122 239.917 193.273 245.508 191.911 251.226C191.658 252.289 191.103 252.118 190.685 252.787C189.678 254.4 191.828 256.994 192.985 257.766C197.71 260.916 203.806 259.687 206.99 255.005C210.068 250.48 208.623 244.393 205.164 240.535C204.46 239.754 203.52 239.135 202.645 238.557C202.892 237.926 203.191 237.27 203.463 236.646C204.989 237.206 206.84 238.137 208.302 238.877C213.543 241.533 219.073 243.731 224.343 246.284Z" fill="#DB4431"/>
<path d="M224.343 246.283C227.405 247.645 230.223 248.693 232.714 251.035C237.042 255.103 238.653 261.69 236.497 267.255C235.361 270.188 233.901 273.259 232.588 276.188L225.391 292.367L209.115 328.814C206.967 333.734 204.855 338.573 202.554 343.417C200.436 347.875 199.508 351.605 195.191 354.63C190.045 358.237 183.84 358.859 178.114 356.293L151.949 344.39L143.762 340.686C138.192 338.164 133.739 336.103 131.41 329.885C130.218 326.702 129.969 323.045 130.808 319.739C131.038 320.284 131.122 321.272 131.25 321.893C131.685 324.016 132.303 326.234 133.663 327.971C134.421 328.863 135.394 330.146 136.393 330.751C139.487 332.625 143.129 334.1 146.421 335.579L162.213 342.711L172.639 347.392C174.387 348.181 177.479 349.668 179.208 350.203C182.574 351.243 187.547 350.859 190.679 349.126C192.476 348.175 194.737 346.358 195.728 344.515C198.052 340.195 199.971 335.357 201.926 330.857L211.139 310.16C216.669 297.605 222.409 285.312 227.605 272.516C231.062 264.006 234.567 257.25 227.046 249.173C226.519 248.607 224.509 246.858 224.343 246.283Z" fill="#FEFEFE"/>
<path d="M209.943 271.052C212.97 273.689 214.44 278.6 212.994 282.363C212.192 284.449 211.33 286.487 210.457 288.544L204.379 302.52L195.71 322.514C194.396 325.543 192.858 329.782 191.108 332.435C188.86 335.842 183.29 337.532 179.463 336.359C176.641 335.493 173.653 333.855 170.884 332.755C165.894 330.611 160.94 328.417 156.044 326.081C155.276 325.714 154.583 325.225 153.917 324.702C151.506 322.549 150.116 320.104 149.668 316.885C149.107 312.857 150.86 310.03 152.475 306.511L157.312 295.983L166.398 276.025C168.103 272.21 169.718 268.354 171.581 264.608C173.295 261.164 176.455 259.239 180.212 258.809C183.914 258.386 186.533 259.804 189.805 261.268C192.487 262.47 195.159 263.694 197.821 264.939C201.491 266.634 206.923 268.627 209.943 271.052Z" fill="black"/>
<path d="M201.544 306.193L201.577 306.268C201.574 306.37 191.787 328.937 190.692 331.028C189.699 332.926 187.074 334.892 184.815 335.333C183.378 335.614 181.648 335.833 180.15 335.383C177.169 334.489 174.077 332.856 171.191 331.607L161.862 327.573C155.82 324.939 152.333 323.975 150.759 317.015C150.657 316.087 150.599 313.754 150.944 312.89C153.738 305.888 157.166 299.097 160.186 292.181C160.749 290.892 161.36 289.549 162.025 288.313C164.835 289.865 169.566 291.805 172.613 293.207L201.544 306.193Z" fill="#DB4431"/>
<path d="M180.709 310.759C182.646 312.497 183.717 314.813 184.798 317.119C189.331 320.198 191.891 324.13 183.87 323.785C182.717 323.736 181.667 321.828 181.063 320.926C177.43 319.474 173.028 317.447 169.486 315.776C165.476 314.009 166.313 315.539 163.104 314.852C160.538 310.998 156.674 306.371 164.856 308.384C166.642 307.537 168.225 306.832 170.231 306.713C174.136 306.481 177.823 308.265 180.709 310.759Z" fill="black"/>
<path d="M179.465 311.226C181.224 312.715 182.686 315.601 183.784 317.611C180.146 316.228 175.291 313.806 171.732 312.068C169.657 311.151 168.012 310.471 166.089 309.234C170.796 306.664 175.433 308.004 179.465 311.226Z" fill="#F7F7F7"/>
<path d="M186.156 319.678C186.826 320.375 187.394 321.384 187.839 322.239C186.606 322.51 185.149 322.56 183.874 322.644C183.162 321.929 182.584 321.053 182.041 320.209L184.081 318.383C185.048 318.859 185.326 319.022 186.156 319.678Z" fill="#F7F7F7"/>
<path d="M165.247 310.364C166.032 311.127 167.402 312.191 166.822 313.381C166.121 314.036 164.52 314.125 163.788 313.591C163.09 312.578 162.21 311.46 162.149 310.254C162.368 309.726 162.193 309.918 162.681 309.646C163.543 309.577 164.498 309.969 165.247 310.364Z" fill="#F7F7F7"/>
<path d="M209.269 271.961C210.34 272.888 211.056 274.047 211.648 275.313C213.814 279.95 211.006 284.252 209.257 288.514C206.953 294.129 204.387 299.618 202.124 305.254C198.673 303.623 194.892 302.018 191.384 300.445L169.184 290.475C167.144 289.561 164.401 288.4 162.514 287.311C163.904 283.688 166.099 278.934 167.833 275.469C171.028 269.084 172.111 260.664 180.524 259.851C181.85 259.715 183.189 259.836 184.468 260.21C187.47 261.102 192.66 263.71 195.575 265.11C199.3 266.899 206.271 269.486 209.269 271.961Z" fill="#DB4431"/>
<path d="M201.025 287.468C202.168 288.403 204.129 290.627 202.217 292.014C201.379 292.622 200.244 292.164 199.314 291.898C197.094 293.545 195.641 292.704 194.712 290.347C190.905 288.492 185.473 285.962 181.589 284.288C179.869 285.588 178.259 285.92 177.173 283.688C177.045 283.042 177.046 282.775 177.028 282.107L176.661 281.877C175.738 281.29 174.234 280.164 175.274 279.037C176.928 277.244 183.296 276.922 185.454 277.226C189.511 277.799 193.935 281.041 196.91 283.66C198.28 284.865 199.336 286.192 200.821 287.315L201.025 287.468Z" fill="black"/>
<path d="M197.038 285.57L197.245 285.832C196.342 286.038 182.649 279.812 180.679 278.83L180.517 278.714L180.617 278.584C181.505 278.459 182.615 278.291 183.502 278.286C188.451 278.26 193.683 282.249 197.038 285.57Z" fill="#F7F7F7"/>
<path d="M179.973 282.169C180.294 282.339 180.499 282.669 180.51 283.033C180.52 283.396 180.334 283.738 180.023 283.926C179.712 284.115 179.324 284.121 179.006 283.944C178.523 283.674 178.348 283.065 178.612 282.579C178.877 282.093 179.484 281.91 179.973 282.169Z" fill="#FEFEFE"/>
<path d="M197.859 289.588C198.18 289.736 198.393 290.049 198.414 290.401C198.435 290.754 198.26 291.089 197.959 291.274C197.657 291.458 197.279 291.462 196.974 291.283C196.533 291.025 196.373 290.467 196.609 290.014C196.846 289.561 197.396 289.374 197.859 289.588Z" fill="#FEFEFE"/>
<path d="M189.956 143.345C192.057 145.176 195.16 149.285 196.52 151.584C202.228 161.232 204.257 172.955 201.493 183.862C198.773 194.581 191.919 203.788 182.43 209.467C173.719 214.631 163.449 216.458 153.573 213.935C150.923 218.506 148.095 224.421 145.747 229.145L137.482 245.593C136.273 245.001 134.794 244.261 133.519 243.882L127.982 254.848C125.729 255.04 124.914 256.084 124.572 258.256C124.803 258.891 125.116 259.514 125.405 260.127C123.198 264.236 121.308 268.429 119.146 272.485C118.471 272.146 117.232 271.32 116.649 272.046C116.825 272.848 117.92 273.164 118.618 273.481C117.858 275.234 116.85 277.04 115.933 278.717C114.969 278.216 114.252 277.686 113.195 277.829L113.124 278.002C113.638 278.898 114.521 279.222 115.432 279.669C113.562 283.423 111.617 287.138 109.596 290.812C107.42 291.554 105.251 292.318 103.091 293.104C101.753 293.588 100.079 294.289 98.7197 294.56C97.8813 293.953 96.6281 293.396 95.6657 292.938C94.6488 290.033 93.6634 286.644 92.7293 283.677C92.5935 283.329 92.5398 283.008 92.7049 282.664C94.4034 279.124 96.3159 275.367 98.1976 271.938C99.022 272.378 99.6935 272.891 100.594 272.72L100.749 272.486C100.459 271.625 99.5328 271.315 98.7097 270.891C99.5341 269.151 100.404 267.433 101.32 265.739C102.314 266.129 102.727 266.558 103.815 266.432L103.96 266.25C103.586 265.429 102.665 265.172 101.836 264.81C103.502 261.15 105.662 257.557 107.413 253.919C108.102 252.487 108.925 250.896 109.72 249.525C110.891 249.323 113.211 249.162 113.707 247.927C113.936 247.357 113.445 246.739 113.15 246.257C114.873 243.042 116.527 239.791 118.111 236.505C117.168 235.972 115.655 235.347 114.592 234.816C115.414 232.707 117.894 228.304 118.959 226.063C122.825 217.934 127.287 209.893 131.067 201.728C123.578 194.427 119.592 185.636 119.187 175.092C118.76 163.918 122.798 153.033 130.41 144.842C137.961 136.77 148.378 131.985 159.421 131.514C171.196 131.112 181.424 135.347 189.956 143.345Z" fill="#FEFEFE"/>
<path d="M177.652 149.595C182.627 154.106 183.009 161.794 178.507 166.777C174.005 171.76 166.318 172.157 161.326 167.664C156.322 163.159 155.924 155.448 160.438 150.452C164.952 145.455 172.664 145.072 177.652 149.595Z" fill="black"/>
<path d="M177.544 150.881C181.805 155.33 181.668 162.387 177.237 166.667C172.806 170.948 165.748 170.841 161.449 166.429C157.122 161.989 157.23 154.879 161.688 150.572C166.147 146.265 173.257 146.403 177.544 150.881Z" fill="#F7F7F7"/>
<path d="M132.516 223.235C133.044 224.012 132.783 224.266 132.396 225.031C130.178 229.416 127.983 233.814 125.753 238.192L106.585 276.088C103.976 281.197 101.427 286.392 98.7647 291.475C98.5296 291.925 98.3722 292.149 97.9665 292.451C97.7012 292.062 97.6707 292.082 97.6249 291.625C97.896 290.743 100.249 286.291 100.847 285.119L107.454 272.034L125.481 236.516C127.559 232.456 129.531 228.309 131.608 224.247C131.878 223.72 132.016 223.555 132.516 223.235Z" fill="black"/>
<path d="M199.357 154.733C201.034 153.404 202.742 152.123 204.566 151C213.574 145.511 224.379 143.781 234.65 146.183C245.23 148.683 254.374 155.306 260.049 164.579C265.384 173.364 267.512 184.835 265.069 194.868C262.859 205.177 256.623 214.176 247.746 219.864C241.18 224.127 232.646 226.699 224.795 226.619C224.453 220.872 224.606 217.367 218.442 214.887C212.223 212.385 208.997 217.136 205.337 221.414C197.917 217.137 193.893 212.622 189.757 205.251C198.853 196.258 203.378 187.3 203.706 174.208C203.863 167.938 202.519 163.525 200.649 157.728C200.251 156.747 199.78 155.712 199.357 154.733Z" fill="#F7F7F7"/>
<path d="M199.357 154.733C201.034 153.404 202.742 152.123 204.566 151C213.574 145.511 224.379 143.781 234.65 146.183C245.23 148.683 254.374 155.306 260.049 164.579C265.384 173.364 267.512 184.835 265.069 194.868C264.594 194.723 264.396 194.637 264.108 194.193C261.451 190.105 258.842 186.596 255.613 182.921C251.585 178.36 247.05 174.272 242.096 170.738C230.515 162.603 216.433 157.565 202.298 157.67C202.038 157.672 200.732 157.753 200.649 157.728C200.251 156.747 199.78 155.712 199.357 154.733Z" fill="#F7F7F7"/>
<path d="M257.231 154.87C260.933 158.642 264.265 163.815 266.293 168.68C270.93 179.766 270.977 192.239 266.425 203.359C261.924 214.062 253.364 222.545 242.621 226.948C231.82 231.385 219.879 231.839 209.016 227.321C209.607 226.432 210.079 225.761 210.735 224.922C218.939 228.229 228.678 228.298 237.112 225.83C247.899 222.706 256.977 215.376 262.305 205.489C264.452 201.3 265.899 196.788 266.589 192.131C268.249 181.056 265.388 169.779 258.649 160.835C252.091 152.041 242.321 146.198 231.471 144.579C222.248 143.245 212.846 145.072 204.795 149.764C202.657 151.012 200.84 152.406 198.866 153.886C198.473 153.086 197.933 152.166 197.493 151.374C205.271 144.929 215.045 141.384 225.147 141.347C237.526 141.261 248.495 146.304 257.231 154.87Z" fill="#FEFEFE"/>
<path d="M218.716 216.087L218.734 216.198C218.577 216.525 217.19 217.179 216.739 217.548C204.428 227.621 198.594 242.993 196.313 258.129C194.496 257.679 193.763 257.189 192.392 256.023C191.862 253.471 195.365 242.499 196.409 239.69C198.908 232.97 206.442 218.494 212.981 215.629C214.997 214.746 216.791 215.333 218.716 216.087Z" fill="#FEFEFE"/>
<path d="M203.508 240.305C210.246 246.189 208.701 257.83 198.759 258.471C198.211 258.49 197.721 258.409 197.178 258.342C197.408 257.343 197.601 256.225 197.78 255.215C198.54 250.934 199.579 246.729 201.085 242.645C201.415 241.75 201.784 240.352 202.367 239.6C202.771 239.661 203.148 240.03 203.508 240.305Z" fill="#F7F7F7"/>
<path d="M217.717 230.928C217.762 231.701 217.53 233.999 217.454 234.815L216.795 241.792C213.712 240.356 210.639 238.897 207.578 237.415L203.946 235.671C205.074 233.431 206.993 230.252 208.368 228.169C211.659 229.622 214.256 230.184 217.717 230.928Z" fill="#F7F7F7"/>
<path d="M204.526 222.15L204.608 222.311C204.407 222.852 203.495 224.034 203.116 224.558C196.22 220.534 190.782 215.458 187.118 208.296C186.929 207.91 186.97 208.109 187.004 207.672C187.557 206.963 188.332 206.432 189.049 205.872C193.1 213.533 197.18 217.523 204.526 222.15Z" fill="#FEFEFE"/>
<path d="M223.863 231.461C223.939 232.082 223.809 232.847 223.729 233.473C223.27 237.078 223.128 240.722 222.707 244.329C221.431 243.863 220.165 243.249 218.945 242.651L217.848 242.121C218.016 238.67 218.459 234.597 218.752 231.108C220.438 231.292 222.167 231.365 223.863 231.461Z" fill="#FEFEFE"/>
<path d="M221.195 217.631C223.797 220.268 223.537 222.856 223.775 226.477C222.533 226.432 221.235 226.286 219.993 226.168L219.022 226.017C218.746 222.103 220.164 222.007 216.773 218.798C217.849 217.984 218.742 217.434 219.964 216.886C220.393 217.089 220.796 217.371 221.195 217.631Z" fill="#FEFEFE"/>
<path d="M216.658 220.066C218.512 221.795 218.304 223.369 217.945 225.814C216.724 225.669 215.911 225.473 214.709 225.179C213.503 224.815 212.635 224.525 211.468 224.057C212.33 222.938 214.399 220.664 215.642 219.889C215.982 219.678 216.299 219.909 216.658 220.066Z" fill="#F7F7F7"/>
</g>
<defs>
<clipPath id="clip0_891_3263">
<rect width="210" height="222.173" fill="white" transform="translate(193.864 80) rotate(47.9067)"/>
</clipPath>
</defs>
</svg>
