<svg width="1264" height="461" viewBox="0 0 1264 461" fill="none" xmlns="http://www.w3.org/2000/svg">
<g clip-path="url(#clip0_909_3875)">
<rect width="1264" height="461" fill="#F7F7F7"/>
<g clip-path="url(#clip1_909_3875)">
<path d="M651 91H1003V443H651V91Z" fill="#F7F7F7"/>
<path d="M698.878 322.079C698.277 317.413 698.716 314.941 697.578 309.596C694.585 295.548 685.315 281.977 673.503 273.839C667.425 270.18 662.634 266.52 659.378 260.059C653.507 248.408 654.301 235.941 658.268 223.758C667.259 196.15 687.196 175.394 710.635 159.169C718.585 153.566 726.941 148.563 735.634 144.201C775.387 124.242 827.281 108.118 871.141 123.725C895.315 132.327 920.774 151.411 935.004 173.366C935.533 174.182 936.218 174.725 936.662 175.613C947.729 176.723 958.806 177.714 969.894 178.586C973.116 178.855 976.337 179.145 979.555 179.457C982.081 179.684 984.991 179.802 987.431 180.519C992.784 182.091 995.52 188.08 994.791 193.332C994.475 195.618 993.928 197.909 993.504 200.165L991.297 212.34L981.499 264.378L971.265 319.143C970.274 324.395 969.483 329.653 968.495 334.9C967.982 337.623 967.487 340.765 966.645 343.372C965.62 345.473 965.104 346.168 963.189 347.607L963.228 347.731L964.132 347.812C964.446 347.945 964.819 348.08 965.1 348.257C965.677 354.349 963.646 359.884 957.726 362.14C954.975 363.187 952.18 364.177 949.416 365.179L932.471 371.404C917.23 377.179 901.953 382.856 886.638 388.433L872.523 393.624C869.726 394.646 866.283 396.005 863.459 396.701C858.492 397.924 853.023 397.953 848.075 396.603C842.727 395.144 837.373 393.475 832.041 391.895L804.141 383.657L731.629 362.599L685.229 349.192C681.235 348.026 677.234 346.888 673.225 345.777C671.326 345.24 669.415 344.596 667.514 344.1C663.05 342.935 658.587 336.471 659.841 331.814C661.489 330.313 672.333 328.178 675.007 327.557L698.878 322.079Z" fill="#1E1E1E"/>
<path d="M698.878 322.079C698.277 317.413 698.716 314.941 697.578 309.596C694.585 295.548 685.315 281.977 673.503 273.839C667.425 270.18 662.634 266.52 659.378 260.059C653.507 248.408 654.301 235.941 658.268 223.758C667.259 196.15 687.196 175.394 710.635 159.169C718.585 153.566 726.941 148.563 735.634 144.201C775.387 124.242 827.281 108.118 871.141 123.725C895.315 132.327 920.774 151.411 935.004 173.366C935.533 174.182 936.218 174.725 936.662 175.613L845.789 167.76L819.593 165.545C815.924 165.25 811.908 164.66 808.275 164.736C804.074 164.823 800.107 168.669 799.14 172.613C798.462 175.289 798.048 178.152 797.582 180.868C796.911 184.848 796.198 188.821 795.443 192.786C792.17 209.916 789.013 227.068 785.971 244.241L778.446 284.088L776.25 295.506C775.69 298.508 774.908 301.36 775.405 304.412C773.02 304.836 770.592 305.43 768.238 306.012C760.323 307.967 752.382 309.773 744.444 311.629L709.74 319.635C706.151 320.463 702.44 321.213 698.878 322.079Z" fill="#F7F7F7"/>
<path d="M808.058 166.143C810.136 165.982 814.599 166.471 816.844 166.666L830.433 167.808L886.212 172.627C909.991 174.578 933.759 176.665 957.515 178.888L976.547 180.548C981.74 181.005 988.928 180.601 991.912 185.472C992.913 187.105 993.958 190.168 993.644 192.055C992.669 197.922 991.519 203.785 990.46 209.646C987.741 224.63 984.932 239.599 982.033 254.55L970.228 317.265C968.699 325.238 967.502 333.295 965.822 341.228C965.162 344.342 964.025 345.379 961.473 346.943L960.635 347.5C953.979 345.925 947.306 344.419 940.619 342.98L910.746 336.175L808.04 312.204C798.172 309.862 787.889 308.017 778.075 305.536C776.512 303.855 776.205 302.798 776.639 300.524C777.966 293.571 779.344 286.628 780.687 279.678L788.215 239.731L796.266 196.198C797.11 191.409 797.979 186.625 798.873 181.846C800.107 174.964 799.859 168.085 808.058 166.143Z" fill="#F7F7F7"/>
<path d="M808.672 168.705C808.814 168.691 808.957 168.68 809.099 168.672C811.294 168.554 815.572 169.074 817.939 169.281L832.347 170.488L877.1 174.399L941.663 180.03C951 180.764 960.329 181.58 969.651 182.481C973.784 182.861 977.97 183.162 982.087 183.612C984.238 183.909 986.618 184.4 988.235 185.953C991.617 189.199 990.126 194.005 989.466 197.979C988.682 202.883 987.803 207.77 986.828 212.64L980.87 244.729L968.363 311.092L964.905 329.619C964.203 333.541 963.536 337.533 962.74 341.436C962.439 342.909 961.873 343.739 960.807 344.771C958.883 344.566 952.789 343.014 950.526 342.499L928.208 337.391L847.889 318.699L798.774 307.373L785.626 304.365C783.728 303.924 781.454 303.607 779.656 302.883C779.44 302.796 779.168 302.658 779.089 302.425C778.706 301.283 782.033 286.598 782.484 284.134L795.742 213.812L800.476 187.862C800.788 186.125 801.032 184.298 801.417 182.582C802.748 176.648 801.943 171.23 808.672 168.705Z" fill="#1E1E1E"/>
<path d="M775.716 305.697C776.662 305.68 777.363 306.937 778.469 307.158C780.874 307.64 783.338 308.143 785.725 308.671C795.991 310.895 806.229 313.24 816.439 315.706C865.384 327.458 914.456 338.67 963.647 349.34L963.48 349.421C959.685 351.219 955.564 352.214 951.613 353.607C949.9 354.21 948.188 354.808 946.469 355.396C936.306 358.902 926.161 362.46 916.035 366.071L877.242 380.036L867.051 383.728C860.29 386.183 858.021 386.971 850.521 385.886C848.164 385.513 844.83 384.501 842.453 383.814C837.272 382.317 832.107 380.702 826.925 379.188L783.176 366.632L661.646 332.202C665.654 330.98 671.611 329.756 675.805 328.776L703.439 322.456L775.716 305.697Z" fill="#F8F7FE"/>
<path d="M777.249 310.513C777.4 310.513 780.597 311.375 781.07 311.485C787.056 312.835 793.026 314.251 798.98 315.733L903.01 340.49L930.125 346.729L937.189 348.299C938.499 348.583 941.779 348.916 942.246 350.194C941.984 350.642 941.844 350.63 941.222 350.843C934.744 353.069 928.16 354.949 921.64 357.004L882.381 369.454C882.105 369.553 881.614 369.657 881.326 369.572C878.768 368.806 876.216 368.057 873.639 367.359L853.67 361.961L755.273 335.734L728.38 328.694C726.361 328.153 718.911 326.238 717.401 325.495C717.296 324.564 718.616 324.213 719.367 324.03C725.306 322.578 731.278 321.283 737.228 319.868L777.249 310.513Z" fill="#1E1E1E"/>
<path d="M777.223 311.893C777.817 311.92 779.755 312.491 780.475 312.66C784.263 313.55 788.025 314.576 791.812 315.476C807.324 319.034 822.806 322.719 838.258 326.529L907.472 342.979L928.261 347.713C931.503 348.45 935.635 349.249 938.713 350.173C934.602 351.229 928.565 353.316 924.405 354.618L899.352 362.558C893.588 364.411 887.668 366.408 881.867 368.085C881.257 368.225 852.614 360.262 849.85 359.521L720.299 325.166C728.915 323.39 737.526 321.202 746.087 319.164C756.305 316.732 767.075 314.555 777.223 311.893Z" fill="#F8F7FE"/>
<path d="M776.952 315.341C777.447 315.264 777.939 315.221 778.436 315.338C787.09 317.356 795.736 319.436 804.392 321.441C808.146 322.311 811.84 323.313 815.579 324.212L874.063 338.087L908.745 346.295C912.632 347.255 920.653 349.042 924.216 350.431C922.223 351.59 915.478 353.594 913.003 354.396C906.243 356.584 899.485 358.801 892.729 361.019C889.487 362.082 885.715 362.998 882.361 364.034C882.035 364.175 881.356 364.463 881.026 364.38C877.032 363.373 873.078 362.113 869.09 361.065L831.376 350.974L780.503 337.336C775.255 335.95 769.817 334.812 764.607 333.398C754.86 330.751 745.05 328.173 735.334 325.441C748.508 321.805 763.543 318.49 776.952 315.341Z" fill="#DB4431"/>
<path d="M864.111 395.114C854.546 397.623 848.681 395.391 839.736 392.683L826.417 388.689L786.619 377.058L702.522 352.71L683.637 347.254C678.645 345.853 673.615 344.417 668.646 342.943C666.811 342.399 665.137 341.425 663.876 339.98C662.456 338.352 661.036 336.067 661.149 333.848C661.579 333.454 663.127 334.154 663.818 334.351L782.14 367.792L830.098 381.604C840.062 384.405 853.683 390.134 863.721 386.51L863.995 387.553C863.841 389.893 864.149 392.659 864.111 395.114Z" fill="#F8F7FE"/>
<path d="M863.721 386.51C865.779 385.61 868.284 384.832 870.428 384.066L882.297 379.789C894.21 375.416 906.147 371.111 918.11 366.876C931.923 361.999 945.737 357.134 959.613 352.438C960.945 351.987 962.188 351.48 963.556 351.123C963.834 351.425 963.706 351.756 963.694 352.318C961.551 360.789 956.426 361.112 949.097 363.802L930.337 370.703L889.625 385.808C881.783 388.728 871.976 392.612 864.11 395.115C864.148 392.659 863.84 389.894 863.994 387.554L863.721 386.51Z" fill="#DB4431"/>
<path d="M863.721 386.51C865.779 385.61 868.284 384.832 870.428 384.066L882.297 379.789C894.21 375.416 906.147 371.111 918.11 366.876C931.923 361.999 945.737 357.134 959.613 352.438C960.945 351.987 962.188 351.48 963.556 351.123C963.834 351.425 963.706 351.756 963.694 352.318C962.364 352.538 957.741 354.278 956.245 354.795C951.092 356.527 945.955 358.307 940.834 360.135C921.915 366.64 903.068 373.355 884.298 380.278L870.521 385.233C869.607 385.566 864.671 387.428 863.994 387.554L863.721 386.51Z" fill="#F7F7F7"/>
<path d="M993.745 181.49L993.285 181.037C993.788 180.847 995.053 181.499 995.585 181.722C1000.95 183.966 1001.76 189.677 1001 194.813C1000.26 199.841 998.985 204.815 998.078 209.852L987.575 265.155L977.383 322.341L975.307 334.791C974.399 340.152 974.569 344.109 968.78 346.514C967.758 347.133 966.262 347.978 965.101 348.257C964.82 348.08 964.446 347.945 964.132 347.812L963.228 347.73L963.189 347.607C965.104 346.167 965.62 345.473 966.646 343.372C966.933 343.39 967.169 343.469 967.355 343.269C968.231 342.333 969.025 339.091 969.267 337.915C970 334.359 970.41 330.653 971.054 327.093L975.887 301.38C977.145 294.473 979.018 287.058 980.256 280.247C980.234 279.261 981.006 274.764 981.104 273.291C981.555 271.235 981.349 268.535 981.817 266.562C982.916 261.941 983.636 257.218 984.534 252.552C984.889 250.71 985.729 248.888 986.043 247.043C986.441 244.704 986.614 242.4 987.095 240.078C987.377 237.32 988.486 234.408 988.863 231.719C989.24 228.271 989.479 224.979 990.223 221.565C991.631 215.108 992.379 208.513 994.093 202.116C994.829 199.369 994.474 194.97 995.933 192.596C997.253 190.451 996.314 190.045 996.27 187.735C996.27 187.745 996.479 187.14 996.483 187.127L996.603 186.805C995.885 185.254 995.228 183.635 994.165 182.305C993.977 182.728 994.576 184.333 994.12 185.177L993.987 184.935C994.042 183.708 993.889 182.707 993.745 181.49Z" fill="#DB4431"/>
<path d="M993.745 181.49L993.285 181.037C993.788 180.847 995.053 181.499 995.586 181.722C1000.95 183.966 1001.76 189.677 1001 194.813C1000.26 199.841 998.985 204.815 998.078 209.852L987.575 265.155L977.383 322.341L975.307 334.791C974.399 340.152 974.569 344.109 968.78 346.514C969.384 345.203 970.839 343.734 971.258 342.24C972.995 336.063 973.651 329.577 974.85 323.27C978.463 304.703 981.893 286.099 985.138 267.463L993.925 220.723L996.878 204.405C997.951 198.497 1000.07 191.859 997.528 186.214C997.143 185.359 996.82 184.528 995.898 184.172C995.19 183.397 994.816 182.285 993.745 181.49Z" fill="#DB4431"/>
<path d="M995.898 184.172C996.819 184.528 997.142 185.359 997.527 186.214C1000.07 191.859 997.95 198.497 996.877 204.405L993.924 220.723L985.137 267.464C981.892 286.099 978.462 304.703 974.849 323.27C973.65 329.577 972.994 336.063 971.258 342.24C970.838 343.734 969.383 345.203 968.78 346.514C967.757 347.133 966.262 347.978 965.1 348.257C964.819 348.08 964.445 347.945 964.132 347.812C965.796 346.604 967.953 346.015 969.217 343.885C970.032 342.51 970.493 340.598 970.791 339.033C972.593 329.588 974.21 320.067 975.92 310.611L984.64 263.651C988.947 240.54 993.544 217.487 997.465 194.298C997.768 192.501 997.73 190.552 997.321 188.779C997.139 187.11 996.523 185.715 995.898 184.172Z" fill="#881A0C"/>
<path d="M993.745 181.49C994.815 182.284 995.19 183.397 995.898 184.172C996.524 185.714 997.139 187.11 997.321 188.779C997.067 194.245 995.609 199.047 994.56 204.404L989.747 229.691C989.092 233.092 989.145 237.42 988.275 240.855C987.295 243.604 986.79 246.43 986.147 249.227C985.81 250.69 985.832 254.187 985.504 255.07C982.962 261.902 982.836 269.02 981.148 276.041C980.802 277.481 980.759 278.797 980.255 280.247C980.234 279.261 981.006 274.764 981.104 273.291C981.555 271.235 981.348 268.535 981.817 266.562C982.915 261.941 983.636 257.218 984.534 252.552C984.888 250.71 985.729 248.888 986.043 247.043C986.441 244.704 986.613 242.4 987.095 240.078C987.376 237.32 988.485 234.408 988.862 231.719C989.24 228.271 989.479 224.979 990.223 221.565C991.631 215.107 992.379 208.513 994.093 202.116C994.829 199.369 994.474 194.97 995.932 192.596C997.252 190.451 996.314 190.045 996.269 187.735C996.269 187.745 996.479 187.14 996.482 187.127L996.603 186.804C995.884 185.254 995.228 183.635 994.165 182.304C993.977 182.728 994.575 184.333 994.12 185.177L993.987 184.935C994.041 183.708 993.889 182.707 993.745 181.49Z" fill="#F7F7F7"/>
<path d="M874.99 234.605C879.235 235.136 883.764 235.804 887.909 236.823C896.447 238.923 897.939 249.58 891.512 255.894C888.958 258.403 886.522 259.232 883.315 259.882C878.01 260.82 868.518 258.541 862.707 257.92C864.346 253.769 866.429 249.463 868.187 245.339C869.749 241.676 871.293 237.888 873.025 234.329L874.99 234.605ZM886.998 245.036C886.138 242.002 881.373 241.853 878.797 241.532C877.117 245.417 875.461 249.314 873.828 253.221C876.552 253.742 879.484 254.445 882.23 253.671C885.355 252.396 888.061 248.786 886.998 245.036Z" fill="#DB4431"/>
<path d="M859.959 232.279C862.548 232.553 865.98 233.117 868.536 233.633C866.936 237.735 865.166 241.512 863.387 245.514C861.64 249.441 859.948 253.308 858.152 257.216C856.739 256.953 850.837 256.153 850.106 255.903C848.036 251.708 846.382 247.163 844.253 242.992C842.525 246.632 840.85 250.568 839.207 254.268C836.335 253.797 833.08 253.189 830.218 252.879C833.626 245.246 837.015 236.793 840.673 229.369C843.479 229.819 846.292 230.229 849.111 230.599L849.292 230.656C849.853 231.494 850.842 233.902 851.312 234.97L855.008 243.447C856.666 240.111 858.302 235.814 859.959 232.279Z" fill="#DB4431"/>
<path d="M931.532 243.252C934.818 243.79 938.186 244.318 941.478 244.796C944.85 245.286 946.807 245.873 949.465 247.536C950.18 247.984 950.756 248.631 951.086 249.408C952.54 252.832 952.301 255.491 950.591 258.967C949.971 260.228 949.029 261.313 947.859 262.091C944.75 264.159 942.407 264.538 938.384 264.327C937.693 264.37 933.086 263.609 932.086 263.473L929.979 268.285C927.188 267.844 924.394 267.421 921.598 267.014C925.013 259.147 928.325 251.225 931.532 243.252ZM944.036 255.906C945.622 250.844 939.208 250.798 936.578 250.467L933.352 258.217C935.836 258.652 938.659 259.374 941.132 258.673C942.196 258.151 943.599 257.303 944.036 255.906Z" fill="#DB4431"/>
<path d="M905.209 239.231L927.444 242.621C926.538 244.618 925.602 246.67 924.897 248.753L911.411 246.812L910.225 249.395C914.336 250.059 918.45 250.697 922.569 251.31C921.757 253.387 921.026 255.297 920.065 257.306C916.478 256.708 912.882 256.165 909.278 255.676C908.698 255.575 908.192 255.407 907.654 255.627C907.086 256.089 906.81 257.18 906.514 257.965L920.36 260.099C919.595 262.027 918.443 264.475 917.585 266.395C911.065 265.022 901.918 263.885 895.206 262.885C898.384 255.18 901.86 246.802 905.209 239.231Z" fill="#DB4431"/>
<path d="M826.407 227.018L836.058 228.53C832.466 236.228 829.08 244.384 825.557 252.183C822.432 251.638 819.143 251.06 816.003 250.691C819.519 242.927 822.953 234.837 826.407 227.018Z" fill="#DB4431"/>
</g>
<g filter="url(#filter0_d_909_3875)">
<rect x="1008.8" y="295.362" width="117.989" height="111.314" rx="4" transform="rotate(-23.4617 1008.8 295.362)" fill="white"/>
<rect x="1009.46" y="295.622" width="116.989" height="110.314" rx="3.5" transform="rotate(-23.4617 1009.46 295.622)" stroke="#1E1E1E"/>
</g>
<g clip-path="url(#clip2_909_3875)">
<path d="M1048.62 300.805C1049.34 300.503 1051.48 300.521 1052.3 300.705C1055.32 298.518 1058.56 296.639 1061.97 295.097C1068.03 292.31 1074.07 290.596 1080.76 290.121C1084.07 289.885 1087.29 290.062 1090.58 290.271C1092.08 290.358 1093.57 290.485 1095.06 290.653C1096.06 290.758 1097.61 290.978 1098.57 290.964C1098.92 290.959 1100.63 290.155 1101.07 289.979C1102.16 289.537 1103.37 288.964 1104.49 288.553C1107.79 287.334 1111.36 286.566 1114.84 286.137C1116.53 285.929 1119.01 285.501 1120.59 286.11C1122.77 286.95 1123.86 288.803 1124.7 290.844C1125.3 292.28 1126.13 293.989 1126.61 295.485C1126.66 295.772 1126.62 296.173 1126.49 296.437C1125.4 298.554 1122.36 299.499 1120.29 300.391C1120.53 303.056 1118.9 305.914 1116.73 307.487C1120.21 305.81 1123.91 304.4 1127.42 302.785C1128.36 302.351 1129.41 301.88 1130.37 301.498C1130.51 301.587 1130.45 301.548 1130.53 301.745C1130.42 301.908 1129.84 302.116 1129.63 302.212C1128.51 302.702 1127.4 303.19 1126.28 303.678L1109.6 310.888L1077.89 324.655C1074.2 326.26 1044.21 339.438 1043.81 339.43C1043.72 339.329 1043.75 339.369 1043.72 339.23C1043.94 338.962 1044.54 338.77 1044.87 338.623C1048.36 337.047 1052.03 335.644 1055.48 334.009C1051.63 334.562 1048.72 332.958 1046.68 329.849C1046.43 330.11 1046.28 330.155 1045.94 330.248C1043.59 330.886 1041.23 331.406 1038.8 331.403C1036.26 331.4 1035.01 330.164 1034 328.013C1033.47 326.873 1033.04 325.899 1033.26 324.594C1033.38 323.88 1033.71 323.252 1033.78 322.533C1033.89 321.403 1033.84 320.27 1033.88 319.138C1033.91 318.308 1034.36 317.979 1034.99 317.516C1036.3 316.55 1037.82 315.67 1039.01 314.558C1040.23 313.424 1041.39 312.001 1042.48 310.74C1043.82 309.171 1045.2 307.628 1046.61 306.112C1047.73 304.9 1048.88 303.677 1050.14 302.599C1049.51 301.987 1048.72 301.666 1048.62 300.805Z" fill="white"/>
<path d="M1061.48 295.687C1061.58 295.634 1061.69 295.583 1061.79 295.532C1069.08 292.043 1077.07 290.276 1085.12 290.376C1088.62 290.391 1092.14 290.766 1095.62 291.072C1096.49 291.148 1097.81 291.382 1098.65 291.314C1099.16 291.273 1100.66 290.55 1101.19 290.323C1102.23 289.862 1103.28 289.423 1104.34 289.007C1108.3 287.472 1112.15 286.743 1116.37 286.333C1117.36 286.238 1118.89 286.023 1119.8 286.329C1117.9 287.111 1115.44 287.894 1114.14 289.428C1114.83 289.615 1115.51 289.732 1116.22 289.951C1117.15 290.24 1118.72 290.985 1119.69 290.726C1120.94 290.397 1122.3 289.731 1123.5 289.22C1124.3 290.516 1124.87 292.175 1125.46 293.578C1125.77 294.31 1126.53 295.57 1126.13 296.324C1125.22 298.065 1122.63 298.995 1120.89 299.744C1120.02 296.079 1117.95 293.417 1114.1 292.509C1109.53 291.433 1104.72 294.411 1103.68 298.936C1103.03 301.727 1103.89 304.225 1105.43 306.523C1099.07 309.16 1092.66 312.07 1086.33 314.824L1063.13 324.908C1062.02 322.063 1061.12 319.834 1058.15 318.362C1053.78 316.189 1048.52 317.929 1046.29 322.308C1044.96 324.924 1045.26 327.162 1046.13 329.802C1045.43 330.025 1044.37 330.309 1043.64 330.442C1041.19 330.888 1038.29 331.612 1036.08 330.258C1036.92 329.89 1037.77 329.691 1038.5 329.112C1038.97 328.738 1039.59 327.114 1039.13 326.677C1038.71 326.647 1035.3 328.13 1034.62 328.397C1034.21 327.718 1033.79 326.761 1033.65 325.976C1033.55 325.3 1033.59 324.681 1033.73 324.012C1034.74 323.538 1040.73 321.092 1041.04 320.716C1041.12 320.411 1040.98 320.209 1040.84 319.933C1042.97 318.969 1045.11 318.022 1047.26 317.09C1048.89 316.377 1050.42 315.658 1052.11 315.107C1053.83 314.546 1054.34 314.542 1056.02 315.088C1058.9 315.997 1061.73 318.012 1063.25 320.599C1063.86 321.637 1063.97 322.357 1065.39 321.766C1067.05 321.076 1068.7 320.363 1070.35 319.653L1081.79 314.67C1086.5 312.655 1091.19 310.615 1095.87 308.551L1100.2 306.662C1100.59 306.49 1102.39 305.798 1102.52 305.523C1102.39 304.932 1101.13 302.161 1100.8 301.411C1099.59 298.54 1098.35 295.678 1097.08 292.826C1095.94 292.587 1094.58 292.44 1093.41 292.249C1088.24 291.406 1082.9 291.187 1077.63 291.83C1068.32 293.011 1059.17 296.754 1051.9 302.726C1050.29 304.047 1048.87 305.641 1047.49 307.176C1046.06 308.759 1044.66 310.32 1043.32 311.974C1044.04 312.234 1046.04 312.86 1046.75 312.998C1047.58 312.647 1048.42 312.311 1049.26 311.992C1049.77 312.233 1050.44 312.614 1050.95 312.883C1051.88 313.364 1052.81 313.839 1053.75 314.306C1051.83 314.616 1049.48 315.782 1047.63 316.578C1045.29 317.585 1042.95 318.606 1040.62 319.643C1039.97 319.046 1039.56 318.249 1038.95 317.786C1038.28 317.594 1035.04 319.193 1034.21 319.566C1034.22 318.872 1034.17 318.599 1034.77 318.133C1036.2 317.007 1037.99 316.059 1039.29 314.784C1041.17 312.943 1042.84 310.841 1044.58 308.876C1046.78 306.393 1049.4 303.512 1051.96 301.418C1054.5 299.344 1058.52 297.075 1061.48 295.687Z" fill="#DB4431"/>
<path d="M1121.72 291.659C1122.28 291.397 1123.11 291.001 1123.69 290.814C1124.24 291.818 1124.99 293.777 1124.92 294.913C1124.87 295.726 1124.56 296.107 1124 296.627C1123.67 296.911 1122.83 297.613 1122.42 297.688L1122.34 297.632C1122.25 297.35 1122.28 296.756 1122.25 296.399C1122.2 295.889 1122.13 295.383 1122.03 294.882C1121.92 294.374 1121.79 293.873 1121.63 293.38C1121.52 293.031 1121.21 292.321 1121.2 292.003C1121.35 291.826 1121.51 291.768 1121.72 291.659Z" fill="white"/>
<path d="M1121.59 292.1C1122.21 291.824 1122.83 291.554 1123.45 291.29C1124.08 292.661 1125.14 294.613 1124.08 296.022C1123.63 296.457 1123.21 296.774 1122.7 297.123C1122.45 294.948 1122.29 294.173 1121.59 292.1Z" fill="#DB4431"/>
<path d="M1072.4 302.374L1087.61 296.377C1089.04 295.809 1090.47 295.229 1091.9 294.639C1093.5 293.981 1095.1 293.185 1096.86 293.21C1098.66 297.192 1100.35 301.386 1102.13 305.411C1099.92 306.405 1097.59 307.37 1095.37 308.336L1079.42 315.251C1078.04 312.848 1076.67 310.194 1075.33 307.749L1073.46 304.324C1073.13 303.719 1072.68 302.98 1072.4 302.374Z" fill="#DB4431"/>
<path d="M1076.02 303.228C1076.8 302.869 1079.11 301.5 1079.42 302.685C1079.52 303.084 1079.37 303.263 1079.09 303.501C1078.32 303.841 1077.4 304.303 1076.62 304.536C1075.76 304.791 1075.22 303.928 1076.02 303.228Z" fill="white"/>
<path d="M1049.68 311.789C1051.69 310.889 1053.8 310.061 1055.84 309.199C1061.22 306.895 1066.63 304.662 1072.08 302.501C1072.73 303.908 1073.63 305.442 1074.38 306.822L1079.08 315.409C1076.05 316.766 1072.88 318.078 1069.82 319.415L1066.7 320.78C1066.06 321.059 1065.42 321.364 1064.76 321.569C1064.23 321.731 1063.97 321.21 1063.79 320.825C1063.1 319.369 1061.96 318.165 1060.7 317.17C1059.28 316.035 1057.64 315.181 1055.88 314.653C1055.65 314.583 1054.41 314.337 1054.29 314.259C1052.85 313.263 1051.19 312.661 1049.68 311.789Z" fill="#DB4431"/>
<path d="M1055.27 311.668C1055.9 311.371 1058.15 310.138 1058.59 310.849C1058.63 311.24 1058.52 311.473 1058.17 311.669C1057.35 312.03 1056.11 312.663 1055.22 312.816C1055.11 312.835 1054.85 312.736 1054.8 312.628C1054.52 312.072 1054.83 311.919 1055.27 311.668Z" fill="white"/>
<path d="M1062.17 325.27C1062.39 325.271 1062.61 325.401 1062.82 325.495C1064.37 324.919 1066.51 323.905 1068.08 323.223L1077.77 319.013L1106.31 306.616C1108.45 308.629 1110.67 309.181 1113.59 308.783C1111.85 309.622 1109.63 310.509 1107.83 311.281L1074.7 325.672L1063.82 330.415C1062.17 331.138 1060.36 331.882 1058.75 332.647C1061.34 330.461 1062.15 328.526 1062.17 325.27Z" fill="white"/>
<path d="M1050.94 320.544C1054.12 318.804 1058.08 319.9 1059.79 322.991C1061.5 326.081 1060.3 329.995 1057.12 331.728C1053.95 333.458 1050 332.36 1048.29 329.274C1046.59 326.188 1047.77 322.281 1050.94 320.544Z" fill="#DB4431"/>
<path d="M1056.2 321.156C1056.65 321.214 1057.62 322.058 1057.94 322.38C1057.32 323.144 1056.5 323.925 1055.74 324.541C1055.48 324.737 1055.3 324.924 1054.98 324.912C1054.69 324.739 1054.76 324.432 1054.85 324.146C1055.17 323.136 1055.65 322.07 1056.2 321.156Z" fill="white"/>
<path d="M1052.66 321.004C1053.47 320.812 1054.02 320.757 1054.85 320.839C1054.71 321.81 1054.7 322.59 1054.48 323.572L1054.22 324.64L1053.72 324.703C1053.03 323.339 1052.95 322.477 1052.66 321.004Z" fill="white"/>
<path d="M1058.33 323.464C1058.47 323.382 1058.51 323.371 1058.66 323.316L1058.75 323.367C1058.93 323.687 1059.4 324.88 1059.32 325.232C1058.99 325.568 1057.22 325.729 1056.74 325.76C1056.35 325.784 1055.82 325.85 1055.53 325.622C1055.29 324.958 1057.76 323.76 1058.33 323.464Z" fill="white"/>
<path d="M1048.77 327.394C1049.59 327.065 1050.54 326.875 1051.41 326.741C1051.83 326.676 1052.64 326.483 1052.67 327.061C1052.59 327.29 1052.42 327.398 1052.22 327.561C1051.3 328.283 1050.61 328.721 1049.59 329.307C1049.24 328.706 1048.96 328.063 1048.77 327.394Z" fill="white"/>
<path d="M1051.37 321.542L1051.51 321.466L1051.61 321.505C1052.01 322.149 1053.27 324.234 1053.15 324.962C1053.03 325.121 1053.11 325.067 1052.9 325.117C1052.63 325.076 1052.45 324.907 1052.22 324.75C1051.42 324.213 1050.58 323.465 1049.91 322.771C1050.32 322.305 1050.85 321.881 1051.37 321.542Z" fill="white"/>
<path d="M1049.19 324.09C1049.81 324.182 1052.29 325.212 1052.56 325.728C1052.55 326.128 1052.07 326.109 1051.74 326.146C1050.75 326.23 1049.68 326.213 1048.68 326.229C1048.68 325.413 1048.79 324.805 1049.19 324.09Z" fill="white"/>
<path d="M1052.98 327.573C1053.11 327.503 1053.1 327.507 1053.25 327.526C1053.73 327.905 1052.64 330.617 1052.41 331.177C1052.14 331.114 1051.96 331.042 1051.71 330.949C1051.15 330.689 1050.84 330.525 1050.36 330.138C1050.71 329.67 1052.49 327.916 1052.98 327.573Z" fill="white"/>
<path d="M1055.77 326.332C1056.36 326.032 1058.72 326.302 1059.39 326.417C1059.36 326.895 1059.24 327.313 1059.11 327.771C1059.07 327.906 1058.95 328.213 1058.9 328.357C1058.14 328.139 1056.05 327.313 1055.58 326.787C1055.56 326.613 1055.67 326.493 1055.77 326.332Z" fill="white"/>
<path d="M1055.15 327.354C1056.03 327.355 1057.64 328.852 1058.25 329.441C1058.08 329.645 1057.88 329.854 1057.7 330.054C1057.41 330.35 1057.11 330.646 1056.81 330.939C1056.22 330.127 1055.54 329.011 1055.15 328.082C1055.03 327.788 1055.02 327.634 1055.15 327.354Z" fill="white"/>
<path d="M1054.04 327.902C1054.24 327.8 1054.27 327.78 1054.44 327.829C1054.88 328.304 1055.55 330.546 1055.77 331.269C1055.31 331.366 1054.98 331.395 1054.5 331.438C1054.25 331.446 1053.79 331.49 1053.6 331.349C1053.49 330.584 1053.83 328.644 1054.04 327.902Z" fill="white"/>
<path d="M1109.26 295.281C1112.47 293.67 1116.35 294.895 1117.94 298.02C1119.52 301.144 1118.21 304.987 1115.01 306.609C1111.79 308.235 1107.89 307.012 1106.3 303.88C1104.72 300.748 1106.04 296.895 1109.26 295.281Z" fill="#DB4431"/>
<path d="M1114.2 296.105L1114.32 296.086C1114.93 296.292 1115.46 296.678 1115.91 297.128C1115.38 297.945 1114.62 298.668 1113.87 299.281C1113.67 299.427 1113.42 299.588 1113.21 299.728C1113.12 299.685 1112.88 299.54 1112.78 299.481C1113.12 297.98 1113.31 297.371 1114.2 296.105Z" fill="white"/>
<path d="M1107.01 299.153C1108.09 299.399 1109.07 299.519 1110.04 300.104C1110.35 300.291 1110.85 300.431 1110.68 300.855C1110.54 300.98 1110.45 300.969 1110.26 300.989C1108.83 301.179 1108.18 301.275 1106.76 301.056C1106.71 300.327 1106.73 299.844 1107.01 299.153Z" fill="white"/>
<path d="M1109.06 296.616C1109.22 296.524 1109.23 296.52 1109.41 296.463C1109.81 296.646 1111.62 299.472 1111.06 299.855C1110.84 299.867 1110.67 299.749 1110.48 299.649C1109.88 299.367 1108.06 298.355 1108.01 297.68C1108.15 297.25 1108.69 296.858 1109.06 296.616Z" fill="white"/>
<path d="M1106.83 302.398C1107.55 302.04 1110.24 301.058 1110.85 301.584L1110.86 301.734C1110.75 301.965 1110.59 302.061 1110.38 302.225C1109.45 303.012 1108.72 303.619 1107.55 304.018C1107.24 303.456 1107.03 303.009 1106.83 302.398Z" fill="white"/>
<path d="M1116.42 298.193L1116.83 298.015C1117.03 298.432 1117.27 298.876 1117.39 299.324C1117.61 300.16 1116.67 300.18 1116.09 300.289C1115.64 300.375 1115.18 300.43 1114.72 300.479C1114.35 300.514 1113.69 300.693 1113.63 300.232C1113.89 299.576 1115.79 298.509 1116.42 298.193Z" fill="white"/>
<path d="M1111.24 302.168C1111.6 302.322 1111.46 302.833 1111.37 303.14C1111.12 304.079 1110.83 305.168 1110.24 305.97C1109.99 305.889 1109.76 305.761 1109.52 305.644C1109.14 305.431 1108.85 305.268 1108.49 305.023C1109.51 303.656 1109.99 303.276 1111.24 302.168Z" fill="white"/>
<path d="M1110.54 295.909C1111.24 295.721 1111.83 295.591 1112.54 295.675C1112.62 296.68 1112.7 297.508 1112.38 298.475C1112.26 298.826 1112.25 299.127 1112.11 299.493C1111.96 299.539 1112.04 299.536 1111.88 299.459C1111.38 298.648 1110.6 296.845 1110.54 295.909Z" fill="white"/>
<path d="M1113.72 301.174C1114.89 300.933 1116.37 301.001 1117.54 301.079C1117.55 301.497 1117.46 301.775 1117.34 302.166C1117.25 302.458 1117.21 302.613 1117.07 302.887C1116.53 303.295 1114.45 302.145 1114.03 301.719C1113.77 301.455 1113.77 301.528 1113.72 301.174Z" fill="white"/>
<path d="M1112.98 302.121L1113.21 302.069C1113.92 302.208 1115.71 303.69 1116.15 304.341C1116.15 304.494 1116.03 304.598 1115.93 304.727C1115.51 305.138 1115.17 305.337 1114.66 305.628C1113.81 304.61 1113.41 303.347 1112.98 302.121Z" fill="white"/>
<path d="M1112.11 302.586C1112.23 302.538 1112.27 302.53 1112.4 302.501C1112.84 302.734 1113.64 305.423 1113.44 306.029C1113.24 306.24 1112.78 306.249 1112.48 306.281C1112.23 306.287 1111.93 306.26 1111.67 306.244C1111.49 304.993 1111.75 303.802 1112.11 302.586Z" fill="white"/>
<path d="M1063.25 296.829C1063.95 296.513 1064.59 296.232 1065.31 295.954C1065.71 296.606 1066.09 297.328 1066.49 297.997L1069.51 303.186C1066.04 304.611 1062.55 305.964 1059.09 307.43L1056.51 308.509C1056.1 307.963 1055.52 306.888 1055.18 306.279L1053.27 302.858C1056.9 300.089 1059.09 298.796 1063.25 296.829Z" fill="#DB4431"/>
<path d="M1069.25 294.556C1073.47 293.339 1077.39 292.611 1081.8 292.544C1084.4 292.505 1086.76 292.661 1089.34 292.825C1088.87 293.153 1088.01 293.619 1087.48 293.92C1087.4 293.986 1087.22 294.13 1087.19 294.214C1087.02 294.639 1087.55 295.582 1087.74 296.011C1082.95 297.854 1078.16 299.721 1073.39 301.611C1072.26 299.864 1071.27 297.986 1070.17 296.219C1069.86 295.716 1069.49 295.091 1069.25 294.556Z" fill="#DB4431"/>
<path d="M1034.82 319.674C1035.42 319.39 1038.13 318.185 1038.65 318.084C1038.97 318.222 1040.68 320.186 1040.63 320.52C1040.3 320.764 1039.15 321.236 1038.72 321.426L1033.96 323.504C1034.21 322.314 1034.21 321.16 1034.23 319.956L1034.82 319.674Z" fill="#DB4431"/>
<path d="M1117.82 287.545C1118.52 287.222 1119.77 286.672 1120.5 286.485C1121.21 286.737 1123.13 288.073 1123.18 288.826C1123.02 289.152 1120.68 290.038 1120.22 290.224C1118.91 290.708 1117.78 290.039 1116.51 289.672C1115.87 289.487 1115.43 289.37 1114.78 289.235C1115.67 288.409 1116.72 288.033 1117.82 287.545Z" fill="#DB4431"/>
<path d="M1034.84 328.713C1036.22 328.156 1037.59 327.541 1038.97 327.027C1038.9 327.495 1038.86 327.674 1038.71 328.119C1038.11 329.308 1037.04 329.485 1035.78 329.97C1035.4 329.534 1035.14 329.208 1034.84 328.713Z" fill="#DB4431"/>
<path d="M1049.03 301.059C1049.64 300.92 1051.33 300.877 1051.93 300.964L1051.51 301.322C1051.14 301.619 1050.8 301.939 1050.47 302.28C1050.02 301.98 1049.34 301.482 1049.03 301.059Z" fill="#DB4431"/>
</g>
<rect x="1043.61" y="350.587" width="88.1388" height="5.81318" rx="2.90659" transform="rotate(-22.7604 1043.61 350.587)" fill="#D9D9D9" fill-opacity="0.32"/>
<rect x="1048.49" y="362.041" width="64.1193" height="5.81318" rx="2.90659" transform="rotate(-22.7604 1048.49 362.041)" fill="#D9D9D9" fill-opacity="0.32"/>
<rect x="1054.81" y="371.484" width="54.5353" height="5.81318" rx="2.90659" transform="rotate(-22.7604 1054.81 371.484)" fill="#D9D9D9" fill-opacity="0.32"/>
<g filter="url(#filter1_d_909_3875)">
<rect x="526" y="234.395" width="198.638" height="45" rx="8" transform="rotate(-5.02393 526 234.395)" fill="white" shape-rendering="crispEdges"/>
<rect x="526.542" y="234.849" width="197.638" height="44" rx="7.5" transform="rotate(-5.02393 526.542 234.849)" stroke="black" shape-rendering="crispEdges"/>
<path d="M558.075 252.405C558.181 253.612 557.927 254.823 557.345 255.885C556.762 256.948 555.878 257.814 554.804 258.373C553.73 258.933 552.514 259.162 551.309 259.031C550.105 258.899 548.967 258.414 548.038 257.635C547.11 256.857 546.433 255.821 546.094 254.658C545.754 253.495 545.767 252.258 546.131 251.102C546.495 249.947 547.193 248.925 548.138 248.166C549.082 247.408 550.23 246.946 551.437 246.84C553.055 246.698 554.664 247.204 555.909 248.248C557.153 249.292 557.933 250.787 558.075 252.405ZM565.92 264.634C565.846 264.722 565.756 264.795 565.654 264.848C565.552 264.902 565.44 264.934 565.326 264.944C565.211 264.954 565.096 264.942 564.986 264.907C564.877 264.872 564.775 264.817 564.687 264.743L558.753 259.767C556.995 261.512 554.632 262.511 552.155 262.558C549.679 262.605 547.28 261.696 545.457 260.019C543.634 258.342 542.528 256.027 542.368 253.555C542.208 251.084 543.008 248.645 544.6 246.748C546.192 244.851 548.454 243.64 550.916 243.368C553.378 243.096 555.85 243.784 557.818 245.288C559.786 246.792 561.098 248.997 561.482 251.444C561.865 253.891 561.291 256.392 559.878 258.426L565.812 263.401C565.9 263.475 565.973 263.565 566.026 263.667C566.079 263.769 566.111 263.881 566.122 263.995C566.132 264.11 566.119 264.225 566.084 264.335C566.05 264.444 565.994 264.546 565.92 264.634ZM552.663 260.786C554.215 260.65 555.691 260.057 556.905 259.081C558.119 258.106 559.017 256.792 559.485 255.307C559.953 253.821 559.969 252.23 559.533 250.735C559.097 249.24 558.226 247.908 557.033 246.907C555.839 245.906 554.376 245.282 552.828 245.113C551.279 244.944 549.716 245.238 548.334 245.958C546.953 246.678 545.816 247.791 545.068 249.157C544.319 250.523 543.992 252.08 544.129 253.631C544.314 255.711 545.316 257.632 546.916 258.974C548.516 260.315 550.583 260.967 552.663 260.786Z" fill="#DB4431"/>
</g>
<g filter="url(#filter2_d_909_3875)">
<rect x="961.051" y="71.3672" width="209.643" height="44" rx="12" transform="rotate(19.7386 961.051 71.3672)" fill="#DB4431" shape-rendering="crispEdges"/>
<rect x="961.353" y="72.0067" width="208.643" height="43" rx="11.5" transform="rotate(19.7386 961.353 72.0067)" stroke="black" shape-rendering="crispEdges"/>
<path d="M1009.6 118.535L1008.77 112.833L1005.16 111.536L1005.46 110.267L1009.03 111.548L1013.28 107.955L1014.89 108.533L1009.96 112.424L1011.17 119.097L1009.6 118.535ZM1003.11 116.206L1006.89 105.664L1008.25 106.15L1004.46 116.692L1003.11 116.206ZM1012.16 121.766C1012.33 121.905 1012.51 122.032 1012.7 122.148C1012.91 122.267 1013.08 122.35 1013.21 122.397C1013.43 122.476 1013.64 122.488 1013.83 122.431C1014.03 122.379 1014.22 122.267 1014.41 122.095C1014.6 121.938 1014.8 121.726 1015.01 121.461L1020.76 114.041L1022.19 114.555L1016.07 122.184C1015.75 122.588 1015.43 122.917 1015.13 123.169C1014.82 123.422 1014.5 123.58 1014.17 123.644C1013.84 123.717 1013.47 123.68 1013.06 123.532C1012.78 123.431 1012.56 123.335 1012.4 123.244C1012.24 123.153 1012.09 123.055 1011.96 122.951C1011.83 122.85 1011.68 122.727 1011.49 122.581L1012.16 121.766ZM1014.87 111.928L1016.31 112.442L1016.04 120.847L1014.76 120.388L1014.87 111.928ZM1023.86 115.151L1030.45 117.518L1027.75 125.048L1026.4 124.561L1028.66 118.236L1024.78 116.842L1022.51 123.167L1021.15 122.681L1023.86 115.151ZM1033.01 118.437L1034.37 118.924L1032.35 124.541L1038.45 120.388L1039.78 120.864L1037.08 128.394L1035.72 127.907L1037.74 122.275L1031.62 126.437L1030.31 125.967L1033.01 118.437ZM1043.89 123.53L1041.24 122.579L1041.62 121.525L1048.26 123.908L1047.88 124.962L1045.25 124.016L1042.92 130.492L1041.57 130.006L1043.89 123.53ZM1050.1 124.569L1051.46 125.056L1049.14 131.531L1050.88 132.158C1051.46 132.364 1051.89 132.373 1052.2 132.188C1052.51 132.006 1052.75 131.685 1052.92 131.223C1053.08 130.771 1053.12 130.382 1053.03 130.056C1052.95 129.734 1052.67 129.484 1052.18 129.308L1049.21 128.243L1049.59 127.189L1052.48 128.227C1053.37 128.547 1053.97 129.005 1054.27 129.598C1054.56 130.192 1054.57 130.876 1054.3 131.649C1054.01 132.442 1053.56 132.995 1052.95 133.309C1052.35 133.615 1051.63 133.618 1050.79 133.315L1047.4 132.099L1050.1 124.569ZM1061.28 137.418C1060.52 137.144 1059.93 136.751 1059.51 136.239C1059.09 135.727 1058.85 135.114 1058.79 134.401C1058.74 133.681 1058.88 132.88 1059.2 131.996C1059.49 131.163 1059.89 130.499 1060.37 130.003C1060.87 129.502 1061.44 129.191 1062.08 129.071C1062.74 128.944 1063.45 129.017 1064.21 129.291C1065.45 129.734 1066.25 130.419 1066.62 131.345C1067 132.275 1066.97 133.367 1066.51 134.622C1066.04 135.947 1065.36 136.858 1064.46 137.354C1063.58 137.84 1062.51 137.861 1061.28 137.418ZM1061.69 136.375C1062.49 136.663 1063.17 136.625 1063.73 136.259C1064.31 135.898 1064.78 135.2 1065.15 134.166C1065.5 133.182 1065.57 132.374 1065.36 131.741C1065.15 131.103 1064.66 130.643 1063.88 130.362C1063.11 130.084 1062.45 130.12 1061.9 130.468C1061.36 130.807 1060.91 131.478 1060.55 132.482C1060.18 133.506 1060.09 134.346 1060.28 135.002C1060.46 135.647 1060.93 136.105 1061.69 136.375ZM1071.44 133.414L1068.79 132.463L1069.17 131.409L1075.81 133.792L1075.43 134.846L1072.79 133.9L1070.47 140.376L1069.11 139.89L1071.44 133.414ZM1081.23 139.869C1080.84 140.248 1080.37 140.472 1079.83 140.541C1079.31 140.613 1078.78 140.554 1078.25 140.363C1077.48 140.085 1076.94 139.662 1076.65 139.091C1076.37 138.515 1076.39 137.765 1076.73 136.841L1077.59 134.432L1078.95 134.918L1078.08 137.327C1077.88 137.88 1077.86 138.324 1078.01 138.662C1078.16 138.999 1078.48 139.255 1078.96 139.427C1079.33 139.561 1079.7 139.61 1080.08 139.574C1080.47 139.533 1080.82 139.402 1081.12 139.183C1081.44 138.958 1081.67 138.644 1081.82 138.242L1082.54 136.209L1083.9 136.696L1081.2 144.226L1079.84 143.739L1081.23 139.869ZM1086.53 146.479C1085.83 146.226 1085.26 145.854 1084.84 145.362C1084.43 144.864 1084.18 144.259 1084.1 143.549C1084.03 142.832 1084.15 142.026 1084.47 141.133C1084.95 139.808 1085.61 138.913 1086.47 138.451C1087.33 137.978 1088.3 137.936 1089.39 138.325C1090.13 138.591 1090.7 138.984 1091.11 139.502C1091.51 140.011 1091.73 140.627 1091.75 141.349C1091.79 142.075 1091.61 142.89 1091.22 143.792L1085.75 141.83C1085.46 142.643 1085.39 143.379 1085.55 144.037C1085.72 144.699 1086.18 145.163 1086.92 145.43C1087.36 145.585 1087.79 145.632 1088.22 145.571C1088.65 145.509 1089.05 145.35 1089.44 145.092L1089.95 146.177C1089.51 146.47 1088.99 146.653 1088.4 146.723C1087.81 146.798 1087.19 146.716 1086.53 146.479ZM1086.13 140.963L1090.14 142.401C1090.34 141.602 1090.34 140.951 1090.14 140.447C1089.94 139.933 1089.56 139.577 1089.01 139.379C1088.46 139.181 1087.93 139.211 1087.41 139.469C1086.9 139.717 1086.48 140.215 1086.13 140.963ZM1087.71 135.599C1087.78 135.428 1087.89 135.289 1088.07 135.182C1088.25 135.078 1088.46 135.07 1088.71 135.156C1088.94 135.239 1089.09 135.377 1089.15 135.571C1089.23 135.759 1089.24 135.943 1089.17 136.123C1089.11 136.294 1088.99 136.431 1088.81 136.535C1088.63 136.642 1088.43 136.655 1088.2 136.572C1088.04 136.514 1087.91 136.43 1087.83 136.32C1087.74 136.211 1087.69 136.09 1087.67 135.957C1087.66 135.829 1087.67 135.71 1087.71 135.599ZM1090.76 136.691C1090.82 136.52 1090.94 136.383 1091.12 136.279C1091.31 136.175 1091.52 136.165 1091.75 136.248C1091.99 136.334 1092.14 136.474 1092.21 136.668C1092.28 136.852 1092.28 137.034 1092.22 137.215C1092.16 137.386 1092.04 137.525 1091.86 137.632C1091.69 137.739 1091.48 137.75 1091.24 137.663C1091.09 137.609 1090.97 137.527 1090.89 137.417C1090.8 137.307 1090.75 137.186 1090.73 137.054C1090.71 136.922 1090.72 136.801 1090.76 136.691ZM1096.29 142.332L1093.64 141.381L1094.02 140.327L1100.66 142.71L1100.28 143.764L1097.65 142.818L1095.32 149.294L1093.97 148.808L1096.29 142.332Z" fill="white"/>
</g>
</g>
<defs>
<filter id="filter0_d_909_3875" x="1010.06" y="249.647" width="154.03" height="151.565" filterUnits="userSpaceOnUse" color-interpolation-filters="sRGB">
<feFlood flood-opacity="0" result="BackgroundImageFix"/>
<feColorMatrix in="SourceAlpha" type="matrix" values="0 0 0 0 0 0 0 0 0 0 0 0 0 0 0 0 0 0 127 0" result="hardAlpha"/>
<feOffset dx="4" dy="5"/>
<feComposite in2="hardAlpha" operator="out"/>
<feColorMatrix type="matrix" values="0 0 0 0 0.117647 0 0 0 0 0.117647 0 0 0 0 0.117647 0 0 0 1 0"/>
<feBlend mode="normal" in2="BackgroundImageFix" result="effect1_dropShadow_909_3875"/>
<feBlend mode="normal" in="SourceGraphic" in2="effect1_dropShadow_909_3875" result="shape"/>
</filter>
<filter id="filter1_d_909_3875" x="526" y="217" width="206.815" height="65.2222" filterUnits="userSpaceOnUse" color-interpolation-filters="sRGB">
<feFlood flood-opacity="0" result="BackgroundImageFix"/>
<feColorMatrix in="SourceAlpha" type="matrix" values="0 0 0 0 0 0 0 0 0 0 0 0 0 0 0 0 0 0 127 0" result="hardAlpha"/>
<feOffset dx="5" dy="3"/>
<feComposite in2="hardAlpha" operator="out"/>
<feColorMatrix type="matrix" values="0 0 0 0 0.117647 0 0 0 0 0.117647 0 0 0 0 0.117647 0 0 0 1 0"/>
<feBlend mode="normal" in2="BackgroundImageFix" result="effect1_dropShadow_909_3875"/>
<feBlend mode="normal" in="SourceGraphic" in2="effect1_dropShadow_909_3875" result="shape"/>
</filter>
<filter id="filter2_d_909_3875" x="946.19" y="71.3672" width="216.186" height="117.217" filterUnits="userSpaceOnUse" color-interpolation-filters="sRGB">
<feFlood flood-opacity="0" result="BackgroundImageFix"/>
<feColorMatrix in="SourceAlpha" type="matrix" values="0 0 0 0 0 0 0 0 0 0 0 0 0 0 0 0 0 0 127 0" result="hardAlpha"/>
<feOffset dx="4" dy="5"/>
<feComposite in2="hardAlpha" operator="out"/>
<feColorMatrix type="matrix" values="0 0 0 0 0.117647 0 0 0 0 0.117647 0 0 0 0 0.117647 0 0 0 1 0"/>
<feBlend mode="normal" in2="BackgroundImageFix" result="effect1_dropShadow_909_3875"/>
<feBlend mode="normal" in="SourceGraphic" in2="effect1_dropShadow_909_3875" result="shape"/>
</filter>
<clipPath id="clip0_909_3875">
<rect width="1264" height="461" fill="white"/>
</clipPath>
<clipPath id="clip1_909_3875">
<rect width="352" height="352" fill="white" transform="translate(651 91)"/>
</clipPath>
<clipPath id="clip2_909_3875">
<rect width="111.871" height="43.6996" fill="white" transform="translate(1017.92 307.6) rotate(-23.4617)"/>
</clipPath>
</defs>
</svg>
