<svg width="219" height="370" viewBox="0 0 219 370" fill="none" xmlns="http://www.w3.org/2000/svg">
<g clip-path="url(#clip0_482_4808)">
<rect width="219" height="390" rx="8" fill="#F7F7F7"/>
<path d="M166.327 266.553C168.149 262.673 169.101 258.906 172.53 256.984C172.917 255.252 170.408 251.312 170.34 249.509C169.782 234.601 178.823 216.897 195.548 216.889C192.72 222.872 176.758 248.301 193.366 245.1C197.961 244.215 202.503 224.847 206.343 223.6C207.937 224.264 208.989 225.721 209.447 227.37C213.701 242.658 204.126 259.684 189.676 264.379C189.483 268.264 187.269 271.918 185.496 275.419C182.038 274.922 179.574 274.204 176.28 273.59C175.826 273.303 174.566 272.734 174.022 272.467C171.429 270.532 168.865 268.56 166.327 266.553Z" fill="#E1E1E1" fill-opacity="0.7"/>
<path d="M178.038 275.83C180.681 276.354 194.457 278.961 193.344 283.326C192.955 284.851 190.965 288.982 190.176 290.651C186.901 289.145 177.48 285.034 174.867 283.396C174.225 283.278 173.024 283.098 172.446 282.929C173.453 280.497 174.871 277.645 176.001 275.222C176.456 275.304 177.542 275.676 178.038 275.83Z" fill="#9C9C9C" fill-opacity="0.45"/>
<path d="M175.527 285.649L189.949 292.398C189.979 292.701 190.002 293.006 190.02 293.311C191.543 318.64 188.374 342.737 174.666 364.443C171.35 369.694 169.085 374.038 164.791 378.85C159.119 382.928 155.401 379.76 154.961 373.404C170.325 340.604 176.633 322.612 175.527 285.649Z" fill="#E1E1E1" fill-opacity="0.7"/>
<path d="M149.545 273.471C154.354 275.691 159.214 278.069 164.006 280.35C143.067 296.288 130.934 309.492 117.928 332.607C115.288 337.298 110.274 348.957 107.012 352.296C101.716 354.993 97.674 351.915 98.4688 346.151C99.175 341.026 101.939 335.503 103.675 330.598C112.576 305.45 129.164 289.434 149.545 273.471Z" fill="#E1E1E1" fill-opacity="0.7"/>
<path d="M156.218 263.763C163.455 266.962 164.994 268.176 171.195 272.837C170.369 274.742 168.904 278.724 167.365 279.783L166.179 279.556C161.101 277.216 156.059 274.798 151.056 272.302C152.217 269.85 154.041 265.118 156.218 263.763Z" fill="#9C9C9C" fill-opacity="0.45"/>
<path d="M10.252 -61C17.2419 -60.4553 15.0494 -55.7019 20.4808 -52.9055C24.5165 -50.8278 26.8998 -55.8901 31.1178 -58.285C36.9939 -56.8854 33.7325 -50.248 39.805 -47.1793C42.0845 -46.8718 42.3973 -47.1456 44.4341 -48.0623L48.6424 -49.9533C53.4089 -48.6716 49.5457 -41.4264 53.2714 -37.7961C57.3029 -33.8667 58.6902 -38.3295 63.026 -38.1681C64.5607 -36.1999 63.639 -32.9542 63.8747 -29.8798C64.5999 -20.3927 71.2545 -25.6206 74.8077 -22.3721C75.502 -17.7577 71.6613 -15.3824 71.9321 -12.0596C72.5815 -4.07598 78.4871 -8.16537 83.0348 -4.47469C84.4951 1.19399 80.3373 2.50379 76.0463 5.22302C76.9426 8.49535 77.5178 11.8294 79.521 14.4588C81.712 15.4808 83.983 16.1027 85 18.1074C83.4051 21.697 77.4841 22.3413 76.195 26.901C74.4107 33.2168 79.8225 32.3703 81.8214 36.8022C79.3301 41.5374 65.3027 39.6394 75.4137 54.6211C61.6808 56.6103 59.9442 56.8798 64.0416 70.7455C60.6905 69.9228 57.0476 68.7422 53.7091 67.7455L48.5062 72.8709C48.9874 75.8105 50.4631 79.9224 47.8175 81.6757C44.1606 81.3374 41.7268 78.6435 37.6672 77.0585C32.4701 79.7328 31.8866 83.4221 29.6338 89.0318C25.4872 90.2419 24.7761 84.7024 20.464 82.9434C13.16 84.0524 12.9173 90.8863 7.41289 91C5.37189 89.7969 5.19937 88.4928 4.34369 86.2326C-1.49453 77.7998 -6.43503 88.6037 -10.9897 88.9911C-14.78 85.5152 -12.0768 79.7876 -19.1635 78.2532C-23.9524 78.9088 -23.592 83.9205 -28.8761 82.2218C-31.6746 78.2939 -27.3976 75.4778 -32.2525 71.067C-35.8505 70.0267 -39.0909 71.088 -42.9218 71.7829L-43.9121 71.001C-45.2138 67.8396 -43.5305 66.8892 -43.5039 63.8625C-43.4379 56.4587 -50.3325 57.8218 -54.869 57.6576C-55.0766 54.5761 -52.438 52.7835 -51.9302 50.3253C-50.3353 42.5944 -59.3479 44.7928 -62.6654 41.4615C-62.9614 34.6193 -49.394 30.9075 -67.7489 25.9548C-58.5006 17.6947 -58.8373 15.9862 -68 8.55429C-56.5242 2.11772 -57.457 1.12241 -64.6096 -9.51864C-59.7799 -10.9183 -54.6403 -11.2819 -52.9976 -16.3876C-53.2922 -19.768 -54.9657 -21.9299 -56.7037 -24.9201C-52.0186 -25.3946 -47.3769 -25.0872 -44.894 -29.3731C-44.5181 -32.3955 -45.8395 -34.5715 -47.0487 -37.476C-42.3719 -37.1868 -39.6071 -35.7521 -36.1858 -39.2434C-35.1674 -42.1844 -35.7958 -43.4914 -36.4747 -46.6879C-32.9482 -44.4965 -30.5608 -42.1774 -26.6794 -44.4544C-24.7324 -47.4712 -24.4435 -51.6758 -23.8333 -55.3622C-11.8637 -43.4633 -14.0042 -51.1858 -8.55454 -57.9424C1.24222 -59.3112 1.31233 -44.4867 10.252 -61Z" fill="#EFEFEF" fill-opacity="0.45"/>
<path d="M10.5303 -60.4697C12.04 -60.317 13.0374 -59.9552 13.7607 -59.4805C14.5339 -58.973 15.0394 -58.3123 15.5273 -57.5322C16.5041 -55.9706 17.3869 -53.936 20.252 -52.4609C21.3643 -51.8883 22.3957 -51.7971 23.377 -52.0488C24.3366 -52.2952 25.2114 -52.8606 26.0439 -53.5283C26.869 -54.19 27.72 -55.0103 28.5752 -55.7676C29.3968 -56.4951 30.2527 -57.1915 31.1934 -57.749C32.434 -57.4154 33.1766 -56.8281 33.6924 -56.1016C34.2534 -55.3113 34.5661 -54.3337 34.9092 -53.2119C35.5862 -50.998 36.3368 -48.3721 39.5791 -46.7334L39.6543 -46.6953L39.7383 -46.6836C40.8944 -46.5277 41.6158 -46.5091 42.3242 -46.6748C43.0034 -46.8338 43.657 -47.1642 44.6396 -47.6064L44.6387 -47.6074L48.6777 -49.4219C49.5994 -49.1297 50.0937 -48.5756 50.3887 -47.8379C50.7184 -47.0132 50.7994 -45.9578 50.8477 -44.7354C50.8946 -43.5451 50.9107 -42.2088 51.1562 -40.9512C51.4044 -39.6804 51.8946 -38.4394 52.9229 -37.4375V-37.4385C53.9712 -36.4167 54.9001 -35.8872 55.7988 -35.7266C56.7027 -35.5651 57.4968 -35.7907 58.2334 -36.1104C59.686 -36.7407 60.8895 -37.6626 62.7666 -37.6699C63.3081 -36.8492 63.4458 -35.7654 63.4375 -34.4424C63.433 -33.7319 63.3883 -32.9964 63.3584 -32.2139C63.3289 -31.4417 63.3148 -30.6395 63.376 -29.8418C63.5611 -27.42 64.13 -25.8428 65.0127 -24.832C65.9069 -23.8082 67.057 -23.4414 68.2168 -23.291C68.7932 -23.2163 69.3874 -23.1928 69.9619 -23.1738C70.5442 -23.1546 71.1057 -23.1393 71.6523 -23.084C72.6784 -22.98 73.5859 -22.7395 74.334 -22.1211C74.592 -20.0669 73.8929 -18.4884 73.0869 -16.9658C72.6791 -16.1955 72.2259 -15.4056 71.9023 -14.6133C71.5736 -13.808 71.3574 -12.9541 71.4336 -12.0186C71.6006 -9.96594 72.112 -8.60152 72.9297 -7.69141C73.7506 -6.77772 74.8161 -6.39505 75.9209 -6.16797C76.4714 -6.05482 77.0515 -5.97658 77.625 -5.89648C78.205 -5.81549 78.7858 -5.73127 79.3672 -5.60547C80.4761 -5.36553 81.5693 -4.97687 82.5879 -4.19043C82.8977 -2.9093 82.8945 -1.90332 82.6787 -1.07715C82.4548 -0.220332 81.9936 0.484179 81.3457 1.12402C80.6915 1.77007 79.8555 2.34244 78.8926 2.93164C77.9562 3.50457 76.8452 4.12472 75.7783 4.80078L75.4668 4.99902L75.5645 5.35547C76.4413 8.5566 77.0438 12.0323 79.123 14.7617L79.1982 14.8594L79.3096 14.9121C80.4635 15.4503 81.5039 15.8263 82.459 16.3525C83.305 16.8187 83.9859 17.3574 84.4365 18.1201C84.0747 18.8191 83.5166 19.4094 82.8213 19.9629C82.048 20.5785 81.1513 21.1183 80.2129 21.7197C78.4337 22.86 76.5372 24.1991 75.7832 26.5361L75.7139 26.7646C75.2517 28.4007 75.2365 29.6403 75.5654 30.6445C75.8955 31.652 76.549 32.3508 77.2725 32.9443C77.6316 33.2389 78.0199 33.5177 78.3984 33.792C78.7818 34.0698 79.1609 34.3473 79.5254 34.6553C80.1937 35.2199 80.8022 35.8799 81.2539 36.7803C80.6717 37.6872 79.5459 38.3486 78.1309 39.0264C76.6684 39.7269 74.9171 40.436 73.584 41.4746C72.2108 42.5445 71.2244 44.0017 71.2988 46.1992C71.3672 48.2166 72.3299 50.8016 74.5615 54.2393C71.5041 54.6835 69.0455 55.0569 67.1426 55.5459C65.0884 56.0738 63.5755 56.7601 62.6504 57.917C61.7124 59.09 61.4569 60.644 61.6611 62.7051C61.8483 64.5935 62.431 66.9862 63.3164 70.0439C60.2212 69.2429 56.9259 68.1842 53.8525 67.2666L53.5684 67.1816L53.3584 67.3896L48.1553 72.5146L47.9707 72.6963L48.0127 72.9521C48.1348 73.6978 48.3224 74.5301 48.4834 75.3379C48.6471 76.1594 48.7879 76.977 48.835 77.749C48.9255 79.2362 48.6601 80.4204 47.6816 81.1562C46.0465 80.9658 44.65 80.277 43.1445 79.4023C41.5999 78.5049 39.9255 77.4036 37.8486 76.5928L37.6387 76.5107L37.4385 76.6143C32.1111 79.3556 31.403 83.2141 29.2617 88.6084C28.4577 88.7952 27.8372 88.6823 27.291 88.3955C26.6659 88.0672 26.1059 87.4996 25.4922 86.7773C24.303 85.3779 22.9525 83.4185 20.6533 82.4805L20.5254 82.4287L20.3887 82.4492C16.5537 83.0316 14.5662 85.135 12.8906 87.0117C11.2319 88.8697 9.95311 90.3871 7.54688 90.4941C6.68132 89.9612 6.2195 89.4225 5.875 88.7773C5.48975 88.0558 5.25952 87.239 4.81152 86.0557L4.79004 85.998L4.75488 85.9482L4.47266 85.5547C3.06292 83.6528 1.64185 82.735 0.186523 82.5557C-1.34969 82.3664 -2.78354 83.0201 -4.08203 83.8887C-5.36614 84.7477 -6.65347 85.9183 -7.80176 86.8174C-8.91312 87.6875 -9.90274 88.3111 -10.8174 88.4639C-11.587 87.7019 -12.0514 86.8271 -12.4004 85.8887C-12.5881 85.3838 -12.7407 84.8651 -12.8916 84.334C-13.0409 83.8084 -13.1908 83.2642 -13.3662 82.7363C-13.7186 81.6756 -14.1942 80.6235 -15.0752 79.7373C-15.9602 78.8472 -17.2141 78.1638 -19.0576 77.7646L-19.1436 77.7461L-19.2314 77.7578C-21.8226 78.1126 -23.0569 79.6806 -24.1807 80.7598C-24.7508 81.3072 -25.2816 81.7269 -25.9502 81.9326C-26.5818 82.1268 -27.3952 82.1442 -28.5615 81.793C-29.7235 80.0661 -29.4077 78.6225 -29.2939 76.8574C-29.2361 75.9603 -29.2404 74.9943 -29.5977 73.9561C-29.956 72.9148 -30.6543 71.8437 -31.916 70.6973L-32.002 70.6191L-32.1133 70.5869L-32.4639 70.4912C-35.9989 69.5913 -39.2529 70.5888 -42.793 71.248L-43.4971 70.6924C-44.0473 69.2966 -43.9542 68.4064 -43.7217 67.5068C-43.4782 66.5652 -43.018 65.462 -43.0039 63.8672C-42.9867 61.9398 -43.4232 60.5166 -44.2188 59.4873C-45.0143 58.4581 -46.1222 57.8824 -47.332 57.5615C-48.5359 57.2423 -49.8727 57.1664 -51.166 57.1553C-52.3116 57.1455 -53.3777 57.1812 -54.377 57.166C-54.3385 55.9944 -53.8486 55.0123 -53.2412 54.0186C-52.5803 52.9372 -51.7173 51.7668 -51.4404 50.4268C-51.0238 48.4072 -51.2826 46.9379 -52.0625 45.8555C-52.8283 44.7929 -54.0329 44.1958 -55.2959 43.7695C-55.9322 43.5548 -56.6034 43.3768 -57.2656 43.207C-57.9337 43.0357 -58.5902 42.8736 -59.2217 42.6855C-60.4134 42.3306 -61.4387 41.9052 -62.1689 41.2441C-62.1704 39.7794 -61.4807 38.44 -60.5898 37.1299C-60.121 36.4404 -59.6312 35.8053 -59.1582 35.1455C-58.6975 34.5029 -58.2648 33.852 -57.9775 33.2012C-57.6887 32.5467 -57.5295 31.8555 -57.6602 31.1436C-57.792 30.426 -58.2048 29.7582 -58.9229 29.1289C-60.2387 27.9758 -62.6781 26.8669 -66.7373 25.7158C-64.7601 23.9256 -63.2439 22.4326 -62.2041 21.1045C-61.0487 19.6288 -60.4287 18.294 -60.4707 16.9287C-60.5127 15.5635 -61.2135 14.2854 -62.4199 12.916C-63.5248 11.662 -65.1019 10.2786 -67.1172 8.62891C-64.571 7.18667 -62.6489 6.00341 -61.3057 4.89746C-59.8493 3.69831 -59.0005 2.53345 -58.8232 1.1582C-58.6487 -0.196479 -59.1434 -1.63799 -60.0684 -3.34863C-60.9285 -4.93941 -62.2078 -6.84418 -63.8076 -9.22266C-62.8275 -9.4887 -61.8464 -9.72282 -60.8623 -9.98047C-59.6699 -10.2927 -58.4931 -10.6369 -57.4102 -11.1045C-55.2249 -12.048 -53.399 -13.5069 -52.5215 -16.2344L-52.4912 -16.3301L-52.5 -16.4307C-52.7829 -19.6776 -54.301 -21.8793 -55.8691 -24.4951C-53.8247 -24.6707 -51.7144 -24.7628 -49.8506 -25.2324C-47.701 -25.7741 -45.7872 -26.8327 -44.4609 -29.1221L-44.4102 -29.21L-44.3975 -29.3115C-44.0365 -32.2143 -45.1709 -34.4172 -46.2627 -36.9141C-45.4327 -36.8384 -44.6615 -36.7346 -43.9209 -36.6426C-42.9519 -36.5221 -42.0269 -36.4206 -41.1338 -36.4424C-39.3016 -36.4872 -37.6314 -37.0544 -35.8291 -38.8936L-35.75 -38.9736L-35.7129 -39.0801C-35.1823 -40.6126 -35.0733 -41.7482 -35.1963 -42.9219C-35.2827 -43.7461 -35.4897 -44.6051 -35.7227 -45.6123C-35.6398 -45.5582 -35.5568 -45.505 -35.4746 -45.4512C-35.066 -45.1836 -34.6636 -44.919 -34.2686 -44.6709C-33.4797 -44.1755 -32.6944 -43.7293 -31.8848 -43.4268C-31.0699 -43.1223 -30.2231 -42.9604 -29.3105 -43.0361C-28.3983 -43.112 -27.4495 -43.4235 -26.4268 -44.0234L-26.3242 -44.083L-26.2598 -44.1836C-25.2374 -45.7677 -24.6625 -47.6425 -24.2656 -49.5557C-23.94 -51.1253 -23.7231 -52.779 -23.4893 -54.3252C-20.8522 -51.7545 -18.9071 -50.1669 -17.3994 -49.3555C-16.5765 -48.9126 -15.8483 -48.6796 -15.1846 -48.668C-14.5048 -48.656 -13.933 -48.8765 -13.4404 -49.2627C-12.9611 -49.6385 -12.5643 -50.1649 -12.2012 -50.7578C-11.8373 -51.352 -11.4849 -52.0515 -11.1113 -52.79C-10.3817 -54.2327 -9.54508 -55.8765 -8.29004 -57.4707C-6.0808 -57.7321 -4.41266 -57.1188 -3.00293 -56.25C-2.26975 -55.7981 -1.60747 -55.2782 -0.967773 -54.7666C-0.338153 -54.2631 0.284838 -53.755 0.905273 -53.3682C1.53 -52.9787 2.19567 -52.6832 2.9248 -52.6377C3.66594 -52.5914 4.41605 -52.8058 5.19922 -53.333C6.69081 -54.3371 8.37194 -56.526 10.5303 -60.4697Z" stroke="#9C9C9C" stroke-opacity="0.45"/>
<path d="M5.0983 -22.7063C26.0974 -25.0436 44.9895 -9.84291 47.2171 11.1837C49.446 32.2103 34.1604 51.0385 13.1389 53.1611C-7.72971 55.2682 -26.3792 40.1055 -28.5913 19.2305C-30.8035 -1.64453 -15.7479 -20.3843 5.0983 -22.7063Z" fill="#EFEFEF"/>
<path d="M5.15393 -22.2091C25.877 -24.5156 44.5219 -9.51494 46.7203 11.2362C48.9201 31.9876 33.834 50.5692 13.0885 52.6639C-7.5059 54.7433 -25.911 39.7792 -28.0941 19.1776C-30.2772 -1.42409 -15.4184 -19.9177 5.15393 -22.2091Z" stroke="#9C9C9C" stroke-opacity="0.45"/>
<path d="M6.52917 -5.94298C18.2659 -7.44929 28.9885 0.885263 30.4362 12.6396C31.8824 24.3924 23.501 35.0827 11.7488 36.471C0.0807668 37.851 -10.5085 29.5347 -11.9449 17.8632C-13.3828 6.19317 -5.12623 -4.44649 6.52917 -5.94298Z" fill="#F7F7F7"/>
<path d="M6.59265 -5.44702C18.0541 -6.918 28.5264 1.2209 29.9403 12.7004C31.3527 24.1786 23.1669 34.6189 11.6903 35.9749C0.296005 37.3224 -10.0455 29.2007 -11.4484 17.802C-12.8525 6.40481 -4.78943 -3.98552 6.59265 -5.44702Z" stroke="#9C9C9C" stroke-opacity="0.45"/>
</g>
<defs>
<clipPath id="clip0_482_4808">
<rect width="219" height="370" rx="8" fill="white"/>
</clipPath>
</defs>
</svg>
