<svg width="219" height="370" viewBox="0 0 219 370" fill="none" xmlns="http://www.w3.org/2000/svg">
<g clip-path="url(#clip0_482_4829)">
<rect width="219" height="390" rx="8" fill="#F7F7F7"/>
<path d="M29.2531 24.3393C39.8756 30.2508 55.7286 36.987 51.8601 51.4161C56.7494 54.4729 62.8927 58.4952 67.9094 61.081C83.045 68.8819 74.8923 78.3042 67.9372 89.3934L29.5279 65.8967L-28.1622 30.6384C-22.2931 21.0941 -17.2858 7.59486 -4.43857 16.7669C0.628513 20.3839 7.64839 24.2877 13.0835 27.6045C18.8719 23.6955 22.2663 22.2675 29.2531 24.3393ZM40.9424 37.856C38.6298 36.533 36.2608 35.2236 34.0214 33.7887C30.4899 31.5257 22.706 25.741 18.9737 30.4614C19.7248 32.9204 25.3347 35.3056 27.9229 36.927C31.5202 39.171 43.1462 47.0269 46.4687 47.3408L47.2163 46.8741C47.8796 43.3401 43.6172 39.5609 40.9424 37.856Z" fill="#E8E8E8"/>
<path d="M-29.1204 32.8506L67.2191 91.7455L41.9443 133.09C39.6398 136.859 34.7157 138.047 30.9461 135.743L-51.7422 85.193C-55.5119 82.8885 -56.6996 77.9644 -54.3951 74.1947L-29.1204 32.8506Z" fill="#E8E8E8"/>
<path d="M169.23 385.345C168.929 385.175 168.547 384.898 168.255 384.696C166.592 383.55 164.879 382.495 163.18 381.405L157.429 377.693C155.896 376.699 154.348 375.704 152.898 374.594C146.482 369.684 142.989 361.946 142.053 353.954C139.757 332.925 148.88 311.122 161.313 294.663C168.898 284.622 178.858 275.723 190.044 270.109C200.444 264.888 213.263 262.358 223.946 268.232C227.885 270.398 231.698 273.701 235.455 276.217C236.393 276.845 237.429 277.528 238.308 278.22C238.676 278.488 240.314 279.642 240.53 279.864C242.145 280.95 243.601 281.92 245.057 283.204C249.714 287.311 252.576 293.34 253.719 299.421C257.203 317.956 249.331 339.063 239.279 354.252C236.486 358.533 233.378 362.596 229.981 366.407C220.582 376.944 206.973 387.393 192.964 390.184C185.558 391.659 177.781 391.185 171.342 386.844C170.626 386.362 169.922 385.862 169.23 385.345Z" fill="white"/>
<path d="M169.23 385.345C168.929 385.175 168.547 384.898 168.255 384.696C166.592 383.55 164.879 382.495 163.18 381.405L157.429 377.693C155.896 376.699 154.348 375.704 152.898 374.594C146.482 369.684 142.989 361.946 142.053 353.954C139.757 332.925 148.88 311.122 161.313 294.663C168.898 284.622 178.858 275.723 190.044 270.109C200.444 264.888 213.263 262.358 223.946 268.232C227.885 270.398 231.698 273.701 235.455 276.217C236.393 276.845 237.429 277.528 238.308 278.22C238.676 278.488 240.314 279.642 240.53 279.864C240.061 279.81 239.788 279.684 239.378 279.445L238.056 278.756C235.68 277.761 233.169 277.135 230.607 276.899C229.859 276.834 228.325 276.877 227.693 276.744C227.464 276.776 227.301 276.826 227.085 276.781C225.215 276.816 223.413 277.081 221.575 277.417C220.727 277.572 219.308 278.035 218.54 278.095C218.21 278.349 216.531 278.851 216.015 279.044C211.405 280.771 206.718 283.115 202.671 285.974C182.028 300.559 166.19 324.04 160.99 348.961C160.101 353.218 159.715 357.368 159.692 361.705C159.685 362.921 160.15 366.64 160.034 367.305C161.385 374.001 162.497 378.158 167.231 383.518C167.495 383.717 169.105 385.133 169.23 385.345Z" fill="#E8E8E8"/>
<path d="M169.23 385.345C168.929 385.175 168.547 384.898 168.255 384.696C166.592 383.55 164.879 382.495 163.18 381.405L157.429 377.693C155.896 376.699 154.348 375.704 152.898 374.594C146.482 369.684 142.989 361.946 142.053 353.954C139.757 332.925 148.88 311.122 161.313 294.663C168.898 284.622 178.858 275.723 190.044 270.109C200.444 264.888 213.263 262.358 223.946 268.232C227.885 270.398 231.698 273.701 235.455 276.217C236.393 276.845 237.429 277.528 238.308 278.22C238.676 278.488 240.314 279.642 240.53 279.864C240.061 279.81 239.788 279.684 239.378 279.445L238.056 278.756L238.19 278.605L238.084 278.555C237.298 278.171 236.547 277.66 235.778 277.23C234.199 276.345 232.571 275.554 230.9 274.862C222.126 271.305 211.883 271.625 203.013 274.674C197.289 276.624 191.856 279.352 186.864 282.783C174.845 291.003 164.422 304.106 158.076 317.235C150.972 331.935 146.769 351.286 152.16 367.217C153.529 371.264 155.707 375.275 158.94 378.097C160.109 379.153 165.796 382.897 167.231 383.518C167.495 383.717 169.105 385.133 169.23 385.345Z" fill="white"/>
<path d="M158.735 378.17C158.288 378.076 154.354 375.37 153.735 374.934C147.256 370.379 143.576 362.903 142.418 355.165C141.67 350.168 141.64 345.017 142.28 340.005C143.993 325.093 150.748 309.742 159.411 297.554C169.944 282.736 186.505 268.409 204.88 265.439C211.244 264.41 218.14 265.298 223.856 268.416C225.646 269.393 227.388 270.703 229.05 271.883C231.434 273.574 233.809 275.277 236.175 276.994L236.008 277.147C226.309 271.643 216.002 270.731 205.307 273.757C201.667 274.807 198.135 276.207 194.76 277.936C179.824 285.425 168.151 298.361 160.105 312.937C151.796 327.988 146.609 348.151 151.323 365.17C152.72 370.21 154.819 374.609 158.735 378.17Z" fill="#E8E8E8"/>
<path d="M146.027 330.114C146.055 330.138 146.084 330.161 146.111 330.187C146.412 330.482 148.482 338.151 148.449 338.793C148.117 338.27 146.242 331.035 146.027 330.114Z" fill="white"/>
<path d="M143.4 347.84C143.942 348.384 146.796 354.081 147.407 355.163C147.446 355.233 147.444 355.389 147.445 355.472C147.1 355.071 143.471 348.289 143.4 347.84Z" fill="white"/>
<path d="M161.311 297.783C161.496 298.113 161.726 305.516 161.661 306.163C161.386 305.747 161.191 298.707 161.311 297.783Z" fill="white"/>
<path d="M152.096 313.905C152.334 314.238 153.475 320.697 153.6 321.596C153.319 321.283 152.02 314.407 152.096 313.905Z" fill="white"/>
<path d="M173.738 283.703C173.815 283.901 173.112 291.12 172.97 291.599L172.881 291.44C172.912 290.505 173.515 284.311 173.738 283.703Z" fill="white"/>
<path d="M187.585 273.297C187.715 273.599 187.404 274.667 187.299 275.031C186.761 276.894 186.411 278.821 185.925 280.69C185.915 280.672 185.904 280.654 185.894 280.635C185.682 280.229 187.326 274.095 187.585 273.297Z" fill="white"/>
<path d="M203.356 266.932C203.371 266.985 203.385 267.037 203.4 267.09C202.767 268.551 201.475 271.484 200.902 272.816C200.738 272.325 202.945 267.625 203.356 266.932Z" fill="white"/>
<path d="M217.57 267.173C217.718 267.567 216.298 270.047 216.024 270.57C215.873 270.165 217.283 267.718 217.57 267.173Z" fill="white"/>
<path d="M160.034 367.305C159.566 366.592 158.987 364.834 158.711 363.966C156.896 358.261 156.35 352.223 157.111 346.281C158.748 332.624 165.134 317.953 173.283 306.931C177.751 300.899 182.986 295.486 188.854 290.832C196.003 285.202 206.07 279.638 215.199 278.26C216.09 278.126 217.688 277.989 218.54 278.095C218.21 278.349 216.531 278.851 216.015 279.044C211.405 280.771 206.718 283.115 202.671 285.974C182.028 300.559 166.19 324.04 160.99 348.961C160.101 353.218 159.715 357.368 159.692 361.705C159.685 362.921 160.15 366.64 160.034 367.305Z" fill="white"/>
<path d="M198.485 283.44L198.487 283.504L198.387 283.606C197.76 283.723 196.021 283.693 195.292 283.693L189.774 283.682L189.76 283.592C190.018 283.409 197.555 283.45 198.485 283.44Z" fill="white"/>
<path d="M184.508 293.247L184.527 293.342C184.062 293.591 177.175 294.769 176.199 294.949C176.181 294.852 176.179 294.909 176.25 294.787C178.008 294.312 179.983 294.097 181.77 293.713C182.639 293.527 183.627 293.362 184.508 293.247Z" fill="white"/>
<path d="M212.871 277.675C212.953 277.728 212.905 277.69 212.997 277.807C212.629 277.919 205.544 276.548 204.729 276.385L204.602 276.329L204.688 276.25C205.399 276.277 207.52 276.709 208.304 276.861C209.824 277.145 211.346 277.417 212.871 277.675Z" fill="white"/>
<path d="M171.943 307.149L171.97 307.214C171.828 307.353 166.055 308.92 165.454 309.033L165.429 308.912C165.6 308.785 171.494 307.177 171.943 307.149Z" fill="white"/>
<path d="M163.808 321.64L163.82 321.7C163.686 322.049 158.296 324.352 157.579 324.686L157.568 324.613C157.588 324.567 157.608 324.522 157.629 324.476C159.326 323.704 162.237 322.338 163.808 321.64Z" fill="white"/>
<path d="M158.263 336.96L158.274 337.058C158.144 337.249 153.554 340.23 153.01 340.579C153.008 340.567 153.001 340.554 153.003 340.541C153.087 340.088 157.515 337.395 158.263 336.96Z" fill="white"/>
<path d="M155.97 353.632L155.987 353.749C155.768 354.091 152.988 356.83 152.48 357.341L152.446 357.209C152.75 356.707 155.43 354.063 155.97 353.632Z" fill="white"/>
<path d="M158.97 367.905C158.985 367.955 158.985 368.05 158.988 368.107C158.587 368.821 156.882 371.146 156.304 371.76C156.255 371.719 156.286 371.752 156.262 371.629C156.77 370.861 158.406 368.528 158.97 367.905Z" fill="white"/>
<path d="M240.718 280.628C258.632 291.226 255.366 317.584 249.071 334.138C248.138 336.59 247.137 338.984 246.001 341.348C239.096 356.052 228.76 368.85 215.877 378.645C204.461 387.21 187.902 394.621 173.964 387.793C173.575 387.59 173.191 387.379 172.811 387.16C166.749 383.633 163.1 378.146 161.384 371.414C157.147 354.795 164.534 333.999 172.755 319.792C176.176 313.87 180.121 308.273 184.543 303.068C196.481 289.09 219.279 270.645 238.999 279.69C239.573 279.953 240.172 280.306 240.718 280.628Z" fill="#E8E8E8"/>
<path d="M228.428 301.701C231.335 303.255 234.451 307.27 235.548 310.355C243.185 331.821 226.381 358.261 206.853 366.706C200.862 369.296 193.786 370.311 187.854 367.875C187.57 367.742 187.288 367.603 187.01 367.458C183.135 365.405 180.405 361.359 179.225 357.189C176.416 347.267 179.904 335.568 184.619 326.828C190.679 315.595 201.157 304.195 213.639 300.476C218.702 298.967 223.743 299.117 228.428 301.701Z" fill="white"/>
<path d="M228.142 302.086C228.521 302.258 229.317 302.808 229.637 303.071C239.782 311.422 237.903 327.793 233.226 338.472C227.89 350.71 218.173 361.611 205.7 366.623C200.387 368.759 193.404 369.754 188.046 367.4C183.799 365.453 180.873 361.338 179.663 356.872C176.992 347.016 180.362 335.742 185.063 327.022C191.078 315.862 201.139 304.965 213.433 301.041C218.421 299.505 223.48 299.541 228.142 302.086Z" fill="#E8E8E8"/>
<path d="M228.444 307.636C231.147 309.083 233.656 313.163 234.355 316.076C236.611 325.479 233.248 335.97 228.456 344.001C222.801 353.473 214.079 362.213 203.204 365.08C198.758 366.252 194.728 365.974 190.756 363.609C187.763 361.573 185.738 358.346 184.848 354.845C182.553 345.813 185.89 335.595 190.388 327.776C195.785 318.395 204.564 309.277 215.204 306.304C219.81 305.017 224.269 305.2 228.444 307.636Z" fill="white"/>
<path d="M221.385 318.415L221.465 318.461C228.478 322.604 224.745 334.54 221.357 340.124C217.683 346.178 212.229 352.037 205.195 353.941C202.814 354.586 200.314 354.552 198.187 353.258C191.371 348.908 194.913 337.849 197.941 332.007C201.573 325 212.92 313.714 221.385 318.415Z" fill="#E8E8E8"/>
<path d="M216.171 326.29C219.568 328.644 217.993 334.139 216.393 337.152C214.349 341 210.663 345.142 206.159 345.877C205.047 346.059 204.098 345.784 203.12 345.253C196.479 339.645 208.271 321.975 216.171 326.29Z" fill="white"/>
<path d="M214.595 326.259C217.018 327.594 216.475 330.77 215.999 333.053C215.077 337.474 208.566 345.732 203.391 344.276C201.172 343.227 201.517 339.588 202.041 337.623C203.284 332.966 206.792 328.448 211.255 326.554C212.395 326.07 213.396 325.941 214.595 326.259Z" fill="#E8E8E8"/>
<path d="M220.669 335.034C221.69 336.312 219.995 338.553 218.736 338.346C217.643 337.279 219.118 334.995 220.669 335.034Z" fill="white"/>
<path d="M218.678 321.161C219.972 322.086 218.422 324.162 216.975 324.302C215.699 323.365 217.223 321.351 218.678 321.161Z" fill="white"/>
<path d="M199.508 336.43C200.642 337.429 199.243 339.545 197.795 339.51C196.654 338.393 198.016 336.371 199.508 336.43Z" fill="white"/>
<path d="M208.005 348.204C209.105 349.283 207.613 351.206 206.178 351.222C205.069 350.245 206.639 348.031 208.005 348.204Z" fill="white"/>
<path d="M211.991 308.173C214.672 310.377 212.684 315.895 211.024 318.187C210.329 318.828 209.261 319.34 208.461 319.843C206.221 321.253 204.419 322.977 202.531 324.834C201.084 324.816 200.426 324.777 199.067 324.329C197.396 323.715 196.049 322.913 196.431 320.869C196.539 320.284 196.759 319.726 197.078 319.226C197.493 318.581 198.292 317.796 198.84 317.231C200.94 315.07 203.308 312.994 205.802 311.311C206.762 310.664 211.025 307.98 211.991 308.173Z" fill="#E8E8E8"/>
<path d="M228.321 308.131C230.199 309.467 232.308 311.612 232.996 313.87C232.521 316.529 230.813 318.058 228.361 319.002C227.439 319.358 226.569 319.788 225.606 320.06C224.274 320.436 223.578 319.453 222.658 318.695C222.276 318.375 221.921 318.148 221.519 317.895C220.588 317.41 219.874 317.215 218.876 316.927C217.946 315.208 217.975 310.154 219.04 308.306C219.59 307.352 220.555 306.135 221.701 306.092C223.919 306.009 226.474 307.047 228.321 308.131Z" fill="#E8E8E8"/>
<path d="M193.584 329.302C194.845 330.076 196.247 332.3 196.529 333.754C195.385 336.485 194.345 339.246 194.025 342.229C193.912 343.275 193.694 343.862 193.066 344.702C191.513 346.778 188.901 348.783 186.295 349.165C184.907 349.156 184.447 348.645 184.553 347.25C184.958 341.896 186.519 336.705 188.795 331.867C189.252 330.894 189.624 330.12 190.617 329.578C191.621 329.028 192.516 329.012 193.584 329.302Z" fill="#E8E8E8"/>
<path d="M200.771 354.731C201.302 356.64 201.725 358.11 201.51 360.113C201.231 362.699 200.243 363.647 198.38 365.188C198.214 365.192 198.049 365.193 197.883 365.19C194.193 365.14 191.361 363.89 188.804 361.252C188.199 360.553 186.704 358.712 186.64 357.826C186.364 354.003 192.999 351.875 195.623 351.59C197.235 353.549 198.258 354.254 200.771 354.731Z" fill="#E8E8E8"/>
<path d="M221.379 347.22C222.209 347.684 222.645 348.014 223.011 348.979C223.201 349.421 223.196 350.605 222.881 351.005C219.423 355.392 214.903 359.157 210.045 361.879C209.232 362.334 208.437 362.776 207.637 363.006C207.373 362.952 207.215 362.743 206.986 362.539C205.028 360.743 206.958 356.859 208.033 355.076C208.459 354.369 208.973 353.665 209.354 352.936L209.389 352.869C211.328 351.72 212.901 350.636 214.625 349.152C215.273 348.595 216.509 347.212 217.097 346.808C218.678 346.673 219.885 346.716 221.379 347.22Z" fill="#E8E8E8"/>
</g>
<defs>
<clipPath id="clip0_482_4829">
<rect width="219" height="370" rx="8" fill="white"/>
</clipPath>
</defs>
</svg>
