<svg width="219" height="370" viewBox="0 0 219 370" fill="none" xmlns="http://www.w3.org/2000/svg">
<g clip-path="url(#clip0_482_4887)">
<rect width="219" height="390" rx="8" fill="#F7F7F7"/>
<path d="M201.297 1.55503C203.461 -3.17804 206.708 -6.71574 211.308 -9.17707C216.422 -11.9137 222.856 -12.4379 228.387 -10.7279C234.2 -8.972 239.068 -4.96252 241.906 0.405991C244.672 5.72368 245.248 11.913 243.51 17.6498C241.766 23.1871 237.87 27.7912 232.698 30.4275C236.269 33.5756 237.742 38.0372 236.594 42.6389C235.597 46.6373 234.586 50.664 233.581 54.6595L228.553 75.1136L223.49 95.5225C223.23 96.5291 222.966 97.5257 222.743 98.5413C222.53 99.5135 222.4 100.546 222.1 101.49C221.686 102.77 221.01 103.948 220.115 104.952C218.456 106.826 215.909 108.185 213.389 108.31C211.041 108.426 208.616 107.627 206.339 107.081L198.886 105.37L190.742 103.525C189.27 103.185 187.915 102.998 186.49 102.459C185.112 101.938 184.142 101.212 183.048 100.227C182.657 99.8754 182.206 99.4301 181.779 99.1453C178.337 96.6417 176.482 93.1994 176.832 88.8155C176.959 87.2329 177.632 85.1203 178.02 83.5316L180.139 74.704L187.341 45.333C183.057 46.4338 179.88 46.7478 175.763 44.4552C174.428 43.7117 171.931 41.5902 171.341 40.1969C170.567 39.3509 170.282 38.9846 169.684 38.0263C168.129 38.4184 165.515 39.4171 163.948 39.9755L154.156 43.4493C152.726 43.9497 151.095 44.6004 149.635 44.9555C147.605 45.2854 146.548 41.7071 144.535 42.2682C142.371 42.8708 143.14 46.634 140.65 47.2184C139.23 47.552 138.455 46.9438 137.29 46.3291C133.564 47.916 129.816 49.4493 126.046 50.9284C125.284 51.2307 122.235 52.5199 121.502 52.5665C120.594 52.6243 117.426 51.2291 116.376 50.916C115.635 50.6949 115.179 49.9859 114.869 49.3308C114.577 48.7134 114.867 47.7306 114.822 47.4737C112.566 46.5275 109.365 46.0524 110.943 42.5624C111.354 41.6518 111.827 40.7542 112.265 39.8555C112.704 38.9559 113.151 37.9222 113.737 37.116C114.052 36.6902 114.431 36.3166 114.862 36.0092C116.061 35.1391 119.401 34.1742 120.951 33.657L126.408 31.797L150.043 23.8188C152.882 22.8786 155.714 21.9196 158.54 20.9416C160.055 20.4284 161.678 19.9254 163.168 19.3668C162.809 18.3887 162.461 17.4106 162.251 16.3871C161.699 13.6963 162.241 10.8964 163.758 8.60617C164.601 7.30704 165.74 6.22591 167.081 5.45081C167.999 4.93122 169.166 4.55616 170.167 4.19152C171.84 3.5822 173.533 3.02331 175.214 2.43499L181.671 0.20542C185.021 -0.967089 187.415 -1.94015 191.05 -1.80927C195.034 -1.66578 198.004 -0.648752 201.297 1.55503Z" fill="#E8E8E8"/>
<path d="M201.297 1.55503C203.461 -3.17804 206.708 -6.71574 211.308 -9.17707C216.422 -11.9137 222.856 -12.4379 228.387 -10.7279C234.2 -8.972 239.068 -4.96252 241.906 0.405991C244.672 5.72368 245.248 11.913 243.51 17.6498C241.766 23.1871 237.87 27.7912 232.698 30.4275L232.561 30.4954L232.46 30.5055C232.225 30.3646 232.331 30.4531 232.171 30.1813C231.969 29.5949 231.252 28.5549 230.822 28.1206C230.64 27.9986 230.524 27.8169 230.416 27.6329C229.768 26.7273 227.815 25.4928 226.753 25.1423C224.925 24.5389 222.86 24.1594 220.975 23.7248C219.045 23.2774 217.113 22.8424 215.178 22.4197C214.324 22.2284 213.223 21.934 212.386 21.7831C211.992 21.6886 210.975 21.4332 210.597 21.4095C208.984 21.1908 207.371 20.7306 205.744 20.5425C205.486 20.5126 205.065 20.4536 204.829 20.3868C204.64 20.3733 204.517 20.3487 204.337 20.4066C204.27 20.4148 204.027 20.4501 203.975 20.4489C203.373 20.4632 202.294 20.5715 201.742 20.7825C201.529 20.8174 201.437 20.8349 201.216 20.8354C201.033 20.9493 199.686 21.4111 199.365 21.54C198.98 21.6946 197.938 22.1968 197.624 22.2911C197.569 22.4488 195.497 23.8535 195.128 24.1857C193.891 25.2958 192.862 26.6183 192.09 28.0909C190.676 30.7872 190.287 34.6048 189.409 37.5703C189.297 37.9509 188.923 39.3348 188.78 39.5947C188.302 41.482 187.779 43.44 187.342 45.333C183.057 46.4338 179.88 46.7478 175.763 44.4551C174.428 43.7117 171.931 41.5902 171.341 40.1969C170.567 39.3509 170.282 38.9845 169.684 38.0263C168.129 38.4184 165.515 39.4171 163.948 39.9754L154.156 43.4493C152.726 43.9496 151.095 44.6004 149.635 44.9555C147.605 45.2854 146.548 41.7071 144.535 42.2682C142.371 42.8708 143.14 46.634 140.65 47.2184C139.23 47.552 138.455 46.9438 137.29 46.3291C133.564 47.916 129.816 49.4493 126.046 50.9284C125.284 51.2307 122.235 52.5199 121.502 52.5665C120.594 52.6243 117.426 51.2291 116.376 50.916C115.635 50.6949 115.179 49.9859 114.869 49.3307C114.577 48.7134 114.867 47.7306 114.822 47.4737C112.566 46.5275 109.365 46.0524 110.943 42.5624C111.354 41.6518 111.827 40.7541 112.265 39.8555C112.704 38.9559 113.151 37.9222 113.737 37.116C114.052 36.6902 114.431 36.3166 114.862 36.0092C116.061 35.139 119.401 34.1742 120.951 33.657L126.408 31.797L150.043 23.8188C152.882 22.8786 155.714 21.9196 158.54 20.9416C160.055 20.4284 161.678 19.9254 163.168 19.3668C162.809 18.3887 162.461 17.4106 162.251 16.3871C161.699 13.6963 162.241 10.8964 163.758 8.60616C164.601 7.30703 165.74 6.2259 167.081 5.4508C167.999 4.93121 169.166 4.55615 170.168 4.19151C171.84 3.5822 173.533 3.02331 175.214 2.43499L181.671 0.205414C185.021 -0.967096 187.415 -1.94015 191.05 -1.80927C195.034 -1.66578 198.004 -0.648757 201.297 1.55503Z" fill="#E8E8E8"/>
<path d="M204.263 4.09755C204.848 2.79428 205.315 1.75127 206.079 0.522084C208.232 -2.88368 211.438 -5.49313 215.21 -6.90924C219.894 -8.65388 225.079 -8.46591 229.625 -6.38656C234.334 -4.27087 237.991 -0.344213 239.767 4.50402C241.441 9.15998 241.227 14.2864 239.169 18.786C237.27 22.8519 234.302 25.5484 230.416 27.633C229.768 26.7274 227.815 25.4929 226.753 25.1424C224.925 24.539 222.86 24.1595 220.975 23.7249C219.045 23.2775 217.113 22.8425 215.178 22.4198C214.325 22.2285 213.223 21.9341 212.386 21.7832C211.992 21.6887 210.975 21.4333 210.597 21.4096C210.845 16.0886 209.807 12.6079 207.267 7.99424C206.081 6.37662 205.721 5.65656 204.263 4.09755Z" fill="#F8F7FE"/>
<path d="M207.267 7.9942C211.38 10.7568 212.967 17.0967 212.386 21.7831C211.992 21.6887 210.975 21.4332 210.597 21.4096C210.845 16.0886 209.807 12.6078 207.267 7.9942Z" fill="#F6F6F6"/>
<path d="M168.078 33.8038C168.382 34.9953 169.123 36.9623 169.684 38.0264C168.129 38.4185 165.515 39.4172 163.948 39.9755L154.156 43.4494C152.726 43.9497 151.095 44.6005 149.635 44.9556C147.605 45.2855 146.548 41.7072 144.535 42.2683C142.371 42.8709 143.14 46.6341 140.65 47.2185C139.23 47.5521 138.455 46.9439 137.29 46.3292C133.565 47.9161 129.816 49.4494 126.046 50.9285C125.284 51.2308 122.235 52.52 121.502 52.5666C120.594 52.6244 117.426 51.2292 116.376 50.9161C115.635 50.695 115.179 49.986 114.869 49.3308C114.577 48.7135 114.868 47.7307 114.822 47.4738C116.235 47.9636 117.246 48.5949 118.798 48.1126C119.633 47.853 120.452 47.5756 121.281 47.2925L125.638 45.7961C127.08 45.3011 129.538 44.6059 130.83 43.964C131.411 43.675 131.808 43.1823 132.313 42.7949C132.5 42.6512 132.689 42.5839 132.929 42.6098C133.309 42.6512 133.705 42.8658 134.063 42.9987C134.638 43.2125 135.229 43.3846 135.838 43.4651C139.638 43.9658 139.164 40.1598 140.708 39.06C141.082 38.7931 141.425 38.8177 141.857 38.8949C142.948 39.6855 144.387 41.7394 145.947 41.3811C148.046 40.8991 150.201 40.0169 152.251 39.2991L161.39 36.1166C163.58 35.3453 165.869 34.4874 168.078 33.8038Z" fill="#F6F6F6"/>
<path d="M201.773 1.92494C203.7 -2.99767 208.125 -7.21808 212.934 -9.32465C218.294 -11.6394 224.35 -11.7537 229.794 -9.64287C235.325 -7.48486 239.765 -3.20418 242.122 2.2456C244.329 7.31071 244.586 13.7439 242.475 18.856C240.317 24.0816 237.016 27.4641 232.171 30.1816C231.969 29.5952 231.252 28.5553 230.822 28.1209C232.011 27.3709 233.293 26.6254 234.392 25.7553C237.77 23.0349 240.116 19.2399 241.039 15.0012C242.141 10.1622 241.047 4.65657 238.411 0.476342C235.579 -3.93956 231.117 -7.05874 225.997 -8.203C220.952 -9.30501 215.675 -8.36648 211.32 -5.59215C207.745 -3.28365 205.462 -0.210318 203.89 3.69509C203.15 3.03978 202.551 2.53786 201.773 1.92494Z" fill="#F8F7FE"/>
<path d="M188.78 39.5947C188.302 41.4821 187.779 43.44 187.342 45.3331C183.057 46.4338 179.88 46.7479 175.763 44.4552C174.428 43.7117 171.931 41.5903 171.341 40.1969C172.058 40.6384 172.471 41.1304 173.423 41.6052C177.079 43.428 179.629 42.5836 183.218 41.4129C185.015 40.8266 187.013 40.1351 188.78 39.5947Z" fill="#F6F6F6"/>
<path d="M199.872 13.8845C200.198 16.3257 200.5 18.4875 201.216 20.8356C201.033 20.9495 199.686 21.4113 199.365 21.5402C198.98 21.6948 197.938 22.197 197.624 22.2913C197.311 21.2882 196.739 19.6216 196.541 18.6316C196.871 16.2228 197.895 15.1641 199.872 13.8845Z" fill="#F8F7FE"/>
<path d="M196.541 18.6314C196.065 17.6913 195.001 14.0857 195.137 13.0592C195.259 12.1662 195.728 11.3568 196.441 10.8056C197.385 10.0884 198.543 10.08 199.656 10.2512C199.711 11.4631 199.783 12.6743 199.872 13.8843C197.895 15.1639 196.871 16.2226 196.541 18.6314Z" fill="#F6F6F6"/>
<path d="M201.742 20.7826C201.249 18.9637 199.948 12.2969 200.315 10.5182C201.055 10.485 202.345 12.3629 202.719 12.9285C202.806 15.0476 203.328 18.4328 203.975 20.4489C203.373 20.4633 202.294 20.5716 201.742 20.7826Z" fill="#F8F7FE"/>
<path d="M203.383 14.076C204.328 15.9735 204.769 18.2802 204.829 20.3869C204.64 20.3734 204.517 20.3488 204.337 20.4067C204.295 19.7656 204.036 18.5692 203.917 17.8987C203.689 16.6319 203.511 15.3568 203.383 14.076Z" fill="#E8E8E8"/>
<path d="M163.33 19.9259C164.919 24.339 166.321 28.875 167.938 33.2481C167.26 33.5516 165.923 33.9717 165.18 34.235L158.662 36.5049L150.913 39.2136C149.465 39.7191 147.984 40.245 146.569 40.6901C144.251 41.4189 143.776 39.4753 142.169 38.4739C141.794 38.2404 141.279 38.2218 140.839 38.3701C139.562 38.7393 139.318 40.4195 138.81 41.4011C137.415 44.0971 134.911 42.5514 132.826 42.0729C131.9 42.0608 131.443 43.2246 130.543 43.5287C126.686 44.8308 122.829 46.2308 118.967 47.4928C116.708 48.1951 115.102 46.7931 113.072 46.1801C110.045 45.2664 111.142 43.3423 112.195 41.2726C112.672 40.2608 113.204 39.2644 113.696 38.2626C114.77 36.0789 116.735 35.6521 118.896 34.9252L122.712 33.6412C127.022 32.1449 131.341 30.6766 135.67 29.2364L153.812 23.1194L159.459 21.2092C160.716 20.7809 162.06 20.2907 163.33 19.9259Z" fill="#F8F7FE"/>
<path d="M150.469 30.0656C150.649 30.2746 150.618 30.3322 150.541 30.5661C149.225 31.9184 140.812 34.5909 138.564 35.3191C135.483 36.3308 132.39 37.307 129.286 38.2476C126.827 39.0215 124.346 39.7281 121.848 40.3665C121.067 40.5591 119.937 40.8602 119.158 40.9594C119.125 40.9365 119.017 40.8272 118.983 40.7951C118.943 40.2839 119.881 40.0665 120.294 39.8714C124.695 37.7898 129.423 36.5212 134.016 34.9475C138.284 33.4848 142.563 32.0722 146.894 30.8028C147.732 30.5578 149.63 30.1167 150.469 30.0656Z" fill="#E8E8E8"/>
<path d="M178.967 16.2168C180.231 16.9278 180.867 18.1715 181.262 19.5061C181.664 20.8642 182.335 22.2393 182.585 23.6208C182.596 23.6827 182.424 23.782 182.378 23.8159C182.26 23.8268 182.163 23.867 182.082 23.6906C181.907 23.3077 181.738 22.8006 181.604 22.4069L180.835 20.1228C180.292 18.5135 179.976 17.5204 178.404 16.5996C177.119 15.8737 175.811 15.9818 174.451 16.4098C173.715 16.6412 173.009 16.8557 172.279 17.0843C171.111 17.4502 170.14 17.75 169.529 18.9267C168.934 20.0721 169.033 21.0235 169.425 22.2111C170.297 24.848 171.271 27.4552 172.171 30.0842L173.16 33.0126C173.306 33.4491 173.583 34.3468 173.792 34.7128C174.29 35.5651 175.024 36.2557 175.904 36.7017C177.902 37.7213 179.409 37.2284 181.364 36.5957L184.923 35.4923C185.513 35.3034 187.509 34.4922 187.994 34.8328L188.005 34.9499C187.966 35.0203 187.892 35.1622 187.82 35.19C186.706 35.6191 185.227 36.1005 184.113 36.4474L181.572 37.2194C179.272 37.9304 177.788 38.359 175.513 37.1994C173.22 36.0308 172.819 33.9363 172.049 31.7062L170.5 27.2241C169.91 25.5037 169.256 23.7993 168.716 22.0682C168.323 20.8075 168.398 19.68 169.056 18.5229C169.886 17.0224 171.099 16.7139 172.611 16.3049C175.161 15.615 176.503 14.8339 178.967 16.2168Z" fill="#F8F7FE"/>
<path d="M232.698 30.4275C236.269 33.5756 237.742 38.0372 236.594 42.6389C235.597 46.6373 234.586 50.664 233.581 54.6595L228.553 75.1136L223.49 95.5226C223.23 96.5291 222.966 97.5257 222.743 98.5413C222.53 99.5135 222.4 100.546 222.1 101.49C221.686 102.77 221.01 103.948 220.115 104.952C218.456 106.826 215.909 108.185 213.389 108.31C211.041 108.426 208.616 107.627 206.339 107.081L198.886 105.37L190.742 103.525C189.27 103.185 187.915 102.998 186.49 102.459C185.112 101.938 184.142 101.212 183.048 100.227C182.657 99.8754 182.206 99.4301 181.779 99.1453C182.68 99.6781 183.643 100.1 184.645 100.4C185.5 100.649 186.699 100.872 187.604 101.08L193.565 102.452L202.477 104.506C204.227 104.907 206.684 105.669 208.418 105.627C211.631 105.549 214.338 104.267 216.488 101.841C217.531 100.652 218.314 99.2576 218.788 97.748C219.116 96.7264 219.417 95.3353 219.678 94.267L221.178 88.166L226.565 66.0813L230.989 48.242L232.477 42.2884C233.303 38.9062 234.2 35.5989 233.118 32.1572C232.98 31.7158 232.557 30.9115 232.561 30.4955L232.698 30.4275Z" fill="#F6F6F6"/>
<path d="M194.195 54.603C195.423 49.8047 196.425 44.9216 197.679 40.1288C198.051 38.7069 199.062 37.7302 200.335 37.0666C202.339 36.0222 204.259 36.7487 206.319 37.231L212.62 38.746C214.505 39.2011 216.541 39.5871 218.361 40.1267C219.727 40.6149 220.822 41.7293 221.43 43.0179C222.254 44.7662 221.867 46.4738 221.399 48.2545C221.136 49.2553 220.887 50.2916 220.649 51.3066L219.288 57.1596C219.059 58.1091 218.761 59.4262 218.45 60.3367C218.391 60.5322 218.346 60.6359 218.347 60.8428C218.293 61.3833 217.829 63.071 217.664 63.736L216.269 69.3258C215.484 72.3722 214.828 75.6036 214.004 78.6212C213.935 78.806 213.873 78.9295 213.869 79.1276C213.125 82.4471 212.326 85.7543 211.473 89.0476C211.112 90.4902 210.878 92.0034 210.277 93.4052C209.409 95.3687 207.322 96.5011 205.233 96.5745C204.464 96.6015 203.367 96.3173 202.619 96.1479C198.983 95.3244 195.365 94.4658 191.721 93.6764C189.844 93.27 188.331 92.6494 187.314 90.9147C186.123 88.8737 186.64 87.3579 187.12 85.2667C187.368 84.18 187.625 83.0951 187.889 82.0122C188.355 80.1695 188.694 78.2027 189.176 76.3553C189.35 75.6863 189.579 74.4474 189.846 73.8412L189.959 73.7807C189.843 73.5848 189.894 73.4331 189.923 73.1996C190.101 72.1551 190.573 70.3443 190.816 69.2649L193.205 58.8249C193.324 58.3179 193.949 55.4825 194.143 55.1553C194.211 54.9765 194.194 54.7974 194.195 54.603Z" fill="#F8F7FE"/>
<path d="M194.195 54.603C195.423 49.8047 196.425 44.9216 197.679 40.1288C198.051 38.7069 199.062 37.7302 200.335 37.0666C202.339 36.0222 204.259 36.7487 206.319 37.231L212.62 38.746C214.505 39.2011 216.541 39.5871 218.361 40.1267C219.727 40.6149 220.822 41.7293 221.43 43.0179C222.254 44.7662 221.867 46.4738 221.399 48.2545C221.136 49.2553 220.887 50.2916 220.649 51.3066L219.288 57.1596C219.059 58.1091 218.761 59.4262 218.45 60.3367C218.391 60.5322 218.346 60.6359 218.347 60.8428C210.329 58.9596 202.156 56.9321 194.143 55.1553C194.211 54.9765 194.194 54.7974 194.195 54.603Z" fill="#F8F7FE"/>
<path d="M218.45 60.337C218.391 60.5325 218.346 60.6362 218.347 60.8431C210.329 58.9599 202.156 56.9324 194.142 55.1556C194.211 54.9768 194.194 54.7977 194.195 54.6033C194.788 54.6858 196.091 55.0273 196.741 55.1757C198.942 55.6886 201.139 56.2144 203.334 56.7528L212.925 59.0168C214.777 59.4521 216.611 59.8473 218.45 60.337Z" fill="#E8E8E8"/>
<path d="M214.915 43.4217C216.117 44.2717 216.792 45.556 217.585 46.7559C218.056 47.4735 218.511 48.1209 218.407 49.0253C218.33 49.6987 218.253 51.7782 217.675 52.1787C217.258 52.2863 216.922 52.1572 216.518 52.0358C216.48 50.9051 216.234 50.051 215.137 49.5042C214.526 49.1982 213.815 49.158 213.174 49.393C212.335 49.7064 212.037 50.225 211.692 50.9689C210.623 50.8432 209.146 50.5039 208.078 50.2878C207.011 50.0717 205.455 49.7867 204.446 49.4619C204.554 48.7894 204.582 48.6052 204.397 47.9339C203.687 46.1396 201.773 45.7028 200.386 47.1139C200.126 47.3786 200.011 48.1072 199.695 48.2539C199.334 48.2232 198.981 48.2089 198.883 47.8331C198.696 47.1164 199.067 44.9442 199.441 44.3803C199.746 43.9189 202.96 44.6656 203.45 44.7179C204.228 44.1123 206.302 42.4158 207.135 42.1152C208.197 41.7321 210.606 42.5283 211.824 42.7012C212.497 42.7966 214.318 43.1754 214.915 43.4217Z" fill="#F6F6F6"/>
<path d="M214.542 44.1989C215.361 44.8848 216.362 46.4625 217.005 47.4005C214.234 47.0233 210.239 46.093 207.386 45.5349C206.45 45.3243 205.454 45.1475 204.508 44.9708C205.156 44.4105 207.183 42.7774 208.002 42.8743C209.595 43.0625 211.304 43.5292 212.9 43.8043C213.395 43.8896 214.066 44.0321 214.542 44.1989Z" fill="#F8F7FE"/>
<path d="M214.661 50.0947C215.575 50.431 216.049 51.4399 215.725 52.3587C215.4 53.2773 214.398 53.7644 213.475 53.4516C212.867 53.2457 212.417 52.7289 212.297 52.0988C212.177 51.4685 212.406 50.8226 212.895 50.4076C213.384 49.9929 214.059 49.8732 214.661 50.0947Z" fill="#F6F6F6"/>
<path d="M202.997 47.2932C203.836 47.7857 204.124 48.8609 203.643 49.7065C203.162 50.5522 202.091 50.8546 201.239 50.3854C200.677 50.076 200.326 49.4883 200.318 48.8471C200.311 48.2059 200.65 47.6104 201.205 47.2887C201.759 46.9669 202.444 46.9686 202.997 47.2932Z" fill="#F6F6F6"/>
<path d="M213.869 79.1279C213.125 82.4474 212.326 85.7546 211.473 89.0479C211.112 90.4905 210.878 92.0037 210.277 93.4055C209.409 95.369 207.322 96.5014 205.233 96.5748C204.464 96.6018 203.367 96.3176 202.619 96.1482C198.983 95.3247 195.365 94.4661 191.721 93.6767C189.844 93.2703 188.331 92.6497 187.314 90.915C186.123 88.874 186.64 87.3582 187.12 85.267C187.368 84.1803 187.625 83.0954 187.889 82.0125C188.355 80.1698 188.694 78.203 189.176 76.3556C189.35 75.6867 189.579 74.4477 189.846 73.8415L189.959 73.781C197.91 75.6486 205.88 77.4309 213.869 79.1279Z" fill="#F8F7FE"/>
<path d="M204.321 84.0257C205.354 84.6739 206.661 85.973 206.914 87.1855C207.618 90.2822 203.859 91.8352 201.941 89.5098C200.726 88.0365 199.301 87.1694 197.345 87.9075C196.52 88.2188 196.018 88.6633 195.093 88.8177C192.952 88.9123 191.023 86.8784 192.253 84.8001C192.973 83.5834 194.409 82.8547 195.752 82.5491C198.782 81.8601 201.684 82.4182 204.321 84.0257Z" fill="#F6F6F6"/>
<path d="M203.189 84.8306C204.25 85.3991 206.04 87.008 205.651 88.3632C205.543 88.7493 205.274 89.07 204.912 89.243C203.488 89.9195 202.788 88.2961 201.949 87.5909C200.304 86.2095 198.148 86.0301 196.277 86.9619C195.234 87.4842 193.859 87.8334 193.276 86.3431C192.823 85.1859 194.902 84.275 195.816 84.0178C198.284 83.3048 200.935 83.597 203.189 84.8306Z" fill="#F8F7FE"/>
<path d="M214.004 78.6215C213.935 78.8064 213.873 78.9299 213.869 79.1279C205.88 77.431 197.91 75.6487 189.959 73.781C189.843 73.5852 189.894 73.4335 189.923 73.1999C191.41 73.6761 194.276 74.2106 195.908 74.5937L205.585 76.7888C208.419 77.4021 211.167 77.9502 214.004 78.6215Z" fill="#E8E8E8"/>
<path d="M206.937 63.5218C208.095 64.2034 208.886 65.514 209.901 66.3232C210.72 66.9152 211.776 66.9011 212.429 67.7479C213.35 68.9422 213.237 70.1496 212.135 71.1469C211.967 71.299 211.915 71.7349 211.557 71.9655C210.186 72.8481 208.163 72.3375 207.681 70.7007C207.531 70.1832 207.61 69.8758 207.75 69.3752C205.565 68.961 202.916 68.2253 200.665 67.7414C199.663 71.2385 195.428 70.2968 195.455 67.3999C194.496 66.4804 194.437 66.0909 194.824 64.811C195.258 63.3813 196.298 62.2687 197.764 61.8933C200.05 61.3075 202.489 62.2601 204.727 62.7071C205.514 62.8655 206.237 63.1205 206.937 63.5218Z" fill="#E8E8E8"/>
<path d="M206.65 64.1337C207.741 64.9267 208.614 66.2336 209.645 66.8832C211.129 67.8183 213.199 67.9228 212.081 70.39C211.792 68.418 209.695 67.6256 208.123 68.7763C205.656 68.219 203.204 67.541 200.725 67.0704C200.623 67.0107 200.493 66.5563 200.435 66.402C199.738 64.5334 197.27 64.2212 196.023 65.708C195.834 65.9334 195.669 66.408 195.448 66.5098C195.373 66.4495 195.275 66.3713 195.281 66.2644C195.489 62.5278 198.652 61.9351 201.682 62.7138C203.478 63.1753 205.169 63.215 206.65 64.1337Z" fill="#F8F7FE"/>
<path d="M198.811 65.591C199.78 66.0088 200.233 67.1279 199.828 68.1022C199.422 69.0765 198.309 69.5439 197.33 69.1509C196.685 68.8922 196.229 68.3067 196.137 67.6181C196.044 66.9297 196.329 66.2446 196.883 65.8249C197.437 65.4053 198.173 65.3159 198.811 65.591Z" fill="#F8F7FE"/>
<path d="M210.487 69.044C212.391 70.1799 211.528 72.2855 209.247 71.5646C207.417 70.623 208.084 68.3341 210.487 69.044Z" fill="#F8F7FE"/>
<path d="M208.514 25.6075C208.585 25.4299 208.603 25.3504 208.731 25.2047C209.067 25.2178 209.738 25.4312 210.109 25.5395C211.76 26.0215 212.715 25.9916 214.031 27.1501C214.81 28.1044 215.167 28.7773 215.205 30.0471C215.175 30.2693 215.185 30.3419 215.038 30.5117L214.975 30.5364C214.957 31.2512 214.262 32.0013 214 32.5737C213.877 32.9333 213.605 33.0357 213.247 32.9644C212.686 33.2257 212.411 33.3239 211.773 33.3948C209.68 33.5539 207.535 31.7096 207.449 29.5911C207.052 29.1135 206.261 28.4205 205.773 27.9645C204.474 26.7511 203.714 25.9127 202.772 24.4153C202.99 24.3192 203.248 24.2359 203.474 24.1562C203.729 24.0816 203.938 24.1377 204.188 24.0935C204.628 24.0158 205.062 23.8774 205.505 23.8175C206.143 23.7312 206.261 23.6936 206.763 24.0531C207.254 24.5697 207.886 25.3325 208.514 25.6075Z" fill="#F8F7FE"/>
<path d="M203.474 24.1562C203.663 24.256 203.805 24.3223 203.98 24.4463C203.71 24.5129 203.66 24.4716 203.53 24.6432C203.67 24.9104 204.356 25.6871 204.591 25.9758C206.775 28.658 210.468 31.4657 213.791 32.5092C213.86 32.5311 213.93 32.5526 214 32.5737C213.877 32.9333 213.605 33.0357 213.247 32.9644C212.686 33.2257 212.411 33.3239 211.773 33.3948C209.68 33.5539 207.535 31.7096 207.449 29.5911C207.052 29.1135 206.261 28.4204 205.773 27.9645C204.474 26.7511 203.714 25.9127 202.772 24.4153C202.99 24.3192 203.248 24.2359 203.474 24.1562Z" fill="#E8E8E8"/>
<path d="M207.449 29.591C209.025 30.8162 210.191 31.6705 212.065 32.4519C211.981 32.699 211.809 33.1547 211.773 33.3946C209.68 33.5538 207.535 31.7095 207.449 29.591Z" fill="#F6F6F6"/>
<path d="M213.247 32.9645C212.686 33.2258 212.411 33.324 211.773 33.3948C211.809 33.1549 211.981 32.6992 212.065 32.4521L213.247 32.9645Z" fill="#F8F7FE"/>
<path d="M208.514 25.6073C208.585 25.4296 208.603 25.3501 208.731 25.2045C209.067 25.2176 209.738 25.431 210.109 25.5393C211.76 26.0213 212.715 25.9913 214.031 27.1498C214.81 28.1042 215.167 28.777 215.205 30.0469C214.194 29.6418 213.35 29.303 212.372 28.8305C211.691 28.5202 208.643 26.2959 208.514 25.6073Z" fill="#F6F6F6"/>
<path d="M212.365 26.9853C213.01 26.888 213.478 26.7713 214.031 27.1499C214.81 28.1043 215.167 28.7771 215.205 30.047C214.194 29.6419 213.35 29.3032 212.372 28.8307C212.057 28.5113 212.283 27.4054 212.365 26.9853Z" fill="#F8F7FE"/>
<path d="M212.372 28.8308C213.35 29.3033 214.194 29.642 215.205 30.0471C215.175 30.2693 215.185 30.3419 215.038 30.5117L214.975 30.5364C212.198 29.6422 210.055 28.0822 207.963 26.0777C207.363 25.5024 206.788 24.5884 206.078 24.2757C205.928 24.1754 205.833 24.1921 205.65 24.1846L205.577 24.1821L205.532 24.1046C205.9 23.7253 206.334 24.0181 206.763 24.0531C207.254 24.5697 207.886 25.3325 208.514 25.6075C208.643 26.2962 211.69 28.5205 212.372 28.8308Z" fill="#E8E8E8"/>
<path d="M203.474 24.1562C203.729 24.0817 203.938 24.1378 204.188 24.0936C204.628 24.0159 205.062 23.8775 205.505 23.8176C206.143 23.7312 206.261 23.6937 206.763 24.0532C206.334 24.0182 205.9 23.7254 205.532 24.1047L205.577 24.1822L205.65 24.1847C205.833 24.1922 205.928 24.1754 206.078 24.2757C205.926 24.33 204.294 24.4133 203.98 24.4464C203.805 24.3224 203.663 24.2561 203.474 24.1562Z" fill="#E8E8E8"/>
<path d="M226.951 47.1476C227.151 47.4829 227.137 47.5912 227.04 47.9731C226.504 50.0913 225.97 52.2097 225.449 54.3317L221.092 72.0091L217.579 86.5439C216.722 90.0162 215.998 93.8643 214.371 97.055C214.233 97.3248 214.145 97.3095 213.879 97.3856L213.725 97.125C213.725 96.8992 214.411 95.4515 214.556 95.1043C215.046 93.9276 215.309 92.8864 215.612 91.6596C218.243 80.6212 220.936 69.5975 223.689 58.589L225.491 51.289C225.776 50.1233 226.144 48.5048 226.535 47.3356C226.59 47.1726 226.812 47.1679 226.951 47.1476Z" fill="#F8F7FE"/>
<path d="M44.87 250.505C52.427 256.771 59.6456 263.394 67.012 269.87L100.126 299.072L114.996 312.291C117.383 314.414 119.844 316.791 122.287 318.814C121.512 319.983 120.153 321.373 119.18 322.436C117.945 323.782 116.727 325.144 115.526 326.521L98.9307 345.313L58.2474 391.594C51.0303 399.886 43.7225 408.099 36.3254 416.23C36.2731 416.283 36.0982 416.413 36.0333 416.464C35.4849 416.373 29.2211 410.663 28.408 409.946L16.6636 399.617L-12.6401 373.786L-32.5435 356.24C-35.3015 353.803 -38.2721 351.328 -40.9552 348.834C-23.1911 327.796 -5.13671 307.004 13.2027 286.465L34.2059 262.769C37.6928 258.799 41.5278 254.564 44.87 250.505Z" fill="#FEFEFF"/>
<path d="M45.4266 267.6C46.3869 268.143 48.7639 270.483 49.7534 271.367C52.7624 274.077 55.792 276.764 58.8422 279.427L95.1527 311.77L103.311 319.008C104.008 319.632 107.061 322.186 107.168 322.795C107.025 323.081 106.856 323.129 106.57 323.281C105.907 323.068 104.348 321.45 103.752 320.917L98.3558 316.125L80.4791 300.227L55.744 278.243L48.9698 272.2C47.7497 271.119 46.5168 270.033 45.3022 268.946C44.9993 268.675 44.9023 268.588 44.8809 268.255C45.065 267.889 45.1059 267.874 45.4266 267.6Z" fill="#E8E8E8"/>
<path d="M26.7974 288.267C28.2413 289.144 31.0767 292.026 32.4655 293.249C36.9053 297.136 41.3142 301.059 45.6912 305.018L79.3091 334.948C82.3799 337.645 85.4328 340.467 88.4995 343.178C88.7303 343.382 88.8239 343.564 88.8603 343.858C88.7248 344.133 88.5295 344.205 88.2613 344.365C87.2122 343.606 86.0248 342.451 85.0433 341.58L79.7641 336.903C73.6073 331.446 67.4783 325.959 61.3769 320.441L36.6508 298.46C33.4455 295.613 30.2246 292.769 27.0219 289.918C26.6301 289.57 26.2817 289.295 26.207 288.798C26.3306 288.51 26.5256 288.436 26.7974 288.267Z" fill="#E8E8E8"/>
<path d="M48.844 263.985C50.8536 266.041 53.5648 268.266 55.7668 270.218C59.3721 273.478 62.9978 276.715 66.6437 279.93L97.9062 307.721C101.609 311.022 105.365 314.287 109.062 317.596C109.523 318.009 110.253 318.543 110.254 319.202C110.03 319.549 110.115 319.437 109.705 319.645C108.883 319.136 107.379 317.683 106.567 316.949L102.042 312.909L84.7948 297.511L57.7952 273.598L51.5037 267.992C50.6875 267.269 48.0691 265.365 48.1944 264.364C48.3991 264.086 48.5132 264.086 48.844 263.985Z" fill="#E8E8E8"/>
<path d="M33.1281 281.051C34.2939 281.647 37.566 284.821 38.7723 285.906L49.0722 295.081L85.5343 327.5C88.5753 330.186 91.5918 332.937 94.6518 335.606C94.9061 335.827 95.1006 336.096 95.176 336.427C95.1232 336.732 95.0137 336.792 94.7884 337.009C94.7422 336.995 94.695 336.985 94.6497 336.969C93.7869 336.666 88.3337 331.481 87.2598 330.531L62.4904 308.506C54.7656 301.749 47.1017 294.923 39.4995 288.029C38.4748 287.102 33.1308 282.644 32.7652 281.841C32.7618 281.506 32.9339 281.335 33.1281 281.051Z" fill="#E8E8E8"/>
<path d="M-2.16717 320.322C-1.20048 321.02 0.224121 322.348 1.14707 323.165L7.46133 328.815L29.481 348.481L51.2237 367.887C52.8409 369.354 54.4688 370.81 56.1071 372.254C56.9104 372.951 59.8788 375.2 59.8455 376.144C59.7083 376.442 59.5862 376.468 59.2946 376.622C58.1759 375.831 56.567 374.126 55.4708 373.159L44.7475 363.62L9.06214 331.736C5.2645 328.373 1.48803 324.918 -2.3483 321.592C-2.60781 321.367 -2.66796 321.193 -2.71496 320.875C-2.58522 320.554 -2.45744 320.512 -2.16717 320.322Z" fill="#E8E8E8"/>
<path d="M42.1762 271.196C43.1749 271.94 44.4824 273.206 45.4643 274.072C47.49 275.822 49.5045 277.586 51.5068 279.363C57.4676 284.748 63.4672 290.09 69.5055 295.388L92.0913 315.494L100.443 322.967C101.239 323.687 103.899 325.576 103.885 326.476C103.702 326.772 103.656 326.759 103.344 326.907C103.103 326.741 102.827 326.536 102.608 326.344C98.883 323.082 95.1623 319.764 91.4755 316.461L73.3025 300.243L51.378 280.768C48.4491 278.165 45.482 275.597 42.5511 272.997C42.1539 272.644 41.6791 272.227 41.6309 271.713C41.7622 271.429 41.914 271.369 42.1762 271.196Z" fill="#E8E8E8"/>
<path d="M25.5201 331.848C26.2258 332.24 28.0279 333.922 28.7069 334.53L35.0836 340.286L65.5594 367.582C65.8984 367.891 66.3215 368.286 66.342 368.756C66.2039 369.072 66.1354 369.075 65.8464 369.266C64.8434 368.682 63.0297 366.958 62.0882 366.098C60.1952 364.367 58.3488 362.654 56.4179 360.955C46.1908 351.954 36.2023 342.674 25.9579 333.702C25.5469 333.342 25.0606 332.92 25.0205 332.36C25.1998 331.994 25.143 332.108 25.5201 331.848Z" fill="#E8E8E8"/>
<path d="M31.7448 324.478C32.4829 324.849 38.0138 329.977 39.2071 331.036L64.4705 353.594L69.9798 358.496C70.6906 359.129 72.808 360.588 72.7551 361.485C72.6064 361.799 72.5115 361.827 72.2215 362.014C70.6622 360.812 67.9668 358.236 66.4026 356.833L54.2148 345.882C47.3412 339.75 40.3282 333.736 33.5636 327.473C32.8625 326.823 31.2576 325.877 31.2288 324.938C31.3935 324.63 31.4387 324.641 31.7448 324.478Z" fill="#E8E8E8"/>
<path d="M38.1842 317.055C40.8472 319.77 45.1914 323.299 48.1113 325.915L70.4547 345.969C72.3161 347.655 74.1911 349.325 76.0796 350.981C77.034 351.826 78.0542 352.696 78.9631 353.59C79.2522 353.875 79.2441 353.981 79.2281 354.328C79.045 354.619 78.973 354.613 78.6589 354.758C77.9068 354.236 76.7323 353.111 76.0157 352.456C74.6165 351.17 73.2068 349.895 71.7866 348.632C65.4588 343.049 59.1704 337.423 52.9217 331.752L41.3382 321.446C40.2658 320.477 39.211 319.507 38.0924 318.591C37.7177 318.284 37.4549 317.971 37.4991 317.48C37.7267 317.169 37.8192 317.171 38.1842 317.055Z" fill="#E8E8E8"/>
<path d="M10.3079 349.274C11.0067 349.728 13.5578 352.105 14.3081 352.778L22.7788 360.364L47.7269 382.83C48.391 383.421 49.8001 384.219 49.8315 385.095C49.6732 385.388 49.571 385.405 49.2732 385.553C48.5199 385.093 45.6163 382.398 44.8278 381.69L34.8927 372.719L17.8422 357.496C15.9624 355.846 14.0993 354.177 12.2536 352.488C11.5377 351.846 9.74547 350.746 9.72471 349.81C9.93987 349.419 9.87788 349.538 10.3079 349.274Z" fill="#E8E8E8"/>
<path d="M6.10207 354.06C6.80218 354.474 10.7933 358.163 11.7309 359.004L25.4943 371.358L40.3526 384.557C42.0185 386.06 43.7861 387.674 45.4562 389.184C45.6902 389.396 45.7293 389.658 45.7049 389.956C45.5093 390.255 45.4605 390.242 45.1368 390.389C44.6393 390.087 42.8998 388.429 42.3898 387.962C40.545 386.259 38.685 384.574 36.8103 382.905L18.8077 366.858L10.1236 359.111C8.83812 357.961 7.52884 356.814 6.23403 355.673C5.90812 355.386 5.56265 354.998 5.55753 354.548C5.76655 354.186 5.69917 354.299 6.10207 354.06Z" fill="#E8E8E8"/>
<path d="M-2.49459 363.536C-1.65154 363.928 -0.0366096 365.516 0.73415 366.205L6.37667 371.211L30.3476 392.596C32.549 394.565 34.7652 396.556 37.0051 398.486C37.2603 398.705 37.4329 398.979 37.5151 399.305C37.4044 399.698 37.4299 399.583 37.0981 399.907C36.2821 399.578 32.5449 396.029 31.6589 395.238C28.1001 392.104 24.5597 388.95 21.0381 385.774L0.953177 367.872C0.173633 367.163 -2.54181 364.999 -2.92971 364.278C-2.88424 363.97 -2.69153 363.788 -2.49459 363.536Z" fill="#E8E8E8"/>
<path d="M2.04546 358.828C3.43353 359.922 5.31543 361.727 6.65981 362.936C9.29355 365.265 11.909 367.615 14.5058 369.985C19.5734 374.601 24.7878 379.103 29.8834 383.705L38.179 391.127C39.1167 391.97 40.0179 392.83 40.9981 393.626C41.3706 393.928 41.6698 394.256 41.6329 394.749C41.3405 395.067 41.5135 394.939 41.0559 395.088C39.9934 394.364 37.423 391.924 36.3655 390.972L28.2137 383.725L6.72125 364.496C5.09739 363.017 3.15146 361.365 1.55495 359.83C1.36535 359.648 1.38199 359.43 1.41687 359.192C1.64347 358.914 1.70187 358.932 2.04546 358.828Z" fill="#E8E8E8"/>
<path d="M10.8304 305.645C11.6834 306.237 13.4352 307.878 14.2987 308.649C16.3286 310.452 18.3465 312.27 20.3518 314.1C20.7951 314.512 21.3746 314.917 21.3955 315.479C21.2666 315.755 21.0576 315.832 20.7897 315.992C19.8415 315.288 18.0584 313.552 17.0962 312.71C14.9281 310.812 12.7769 308.79 10.6256 306.867C10.2835 306.561 10.2592 306.515 10.2507 306.146C10.4239 305.841 10.5266 305.816 10.8304 305.645Z" fill="#E8E8E8"/>
<path d="M17.4437 298.665C18.5505 299.389 20.85 301.648 21.9243 302.561C22.857 303.353 27.6766 307.4 27.8505 308.095C27.7127 308.458 27.7267 308.359 27.3378 308.626C26.3297 308.277 22.9358 304.843 21.8613 303.999C20.3621 302.821 18.6536 301.133 17.1677 299.865C16.9758 299.701 16.9231 299.536 16.8957 299.297C16.9937 298.964 17.1668 298.881 17.4437 298.665Z" fill="#E8E8E8"/>
<path d="M36.5263 243.281C37.2089 243.943 38.2837 244.796 39.0439 245.455C40.7244 246.939 42.4164 248.409 44.12 249.866L-21.7907 324.828C-28.427 332.52 -34.9974 339.978 -41.4429 347.867C-41.5897 348.064 -41.5723 348.061 -41.7998 348.148C-42.4523 347.719 -43.3543 346.907 -43.9867 346.381C-45.6507 344.999 -47.2476 343.522 -48.9036 342.127C-45.7696 337.989 -42.3745 334.073 -39.1253 330.023C-36.1923 326.368 -33.0383 322.845 -29.979 319.297L-16.522 303.58C1.01582 283.353 18.6991 263.253 36.5263 243.281Z" fill="#D9D9D9"/>
<path d="M48.6357 247.84C49.4343 248.482 50.6057 249.654 51.4377 250.391L58.3341 256.432L84.4858 279.707L107.909 300.335L115.412 306.997C116.819 308.253 118.429 309.629 119.767 310.938C119.14 311.801 118.442 312.506 117.715 313.284L66.9578 268.421C60.0597 262.327 53.3649 256.311 46.3502 250.33C47.0762 249.614 47.8997 248.616 48.6357 247.84Z" fill="#FEFEFF"/>
</g>
<defs>
<clipPath id="clip0_482_4887">
<rect width="219" height="370" rx="8" fill="white"/>
</clipPath>
</defs>
</svg>
