<svg width="60" height="60" viewBox="0 0 60 60" fill="none" xmlns="http://www.w3.org/2000/svg">
<path d="M24.108 6.92854C24.1091 6.78023 24.0887 6.826 24.1621 6.71478C24.2515 6.6798 24.2067 6.68092 24.3011 6.71842C24.3386 6.75932 24.3645 6.7926 24.3874 6.84381C24.8158 7.79701 29.0616 19.1053 29.05 19.2901C29.0474 19.3315 29.0187 19.3657 28.988 19.392C28.9681 19.4091 28.9262 19.4322 28.9025 19.4459C28.9573 19.6494 29.1029 19.9946 29.1852 20.2091L29.6757 21.5073L30.2911 23.1468C30.3844 23.3981 30.5126 23.782 30.6175 24.0194C30.7343 24.2009 31.0411 24.9674 31.04 25.1659C31.0848 25.4269 31.6131 26.7879 31.7487 27.0516C31.8081 27.0996 31.8062 27.1187 31.8369 27.1914C31.8084 27.3132 31.7438 27.3381 31.6126 27.3363C29.5023 27.3083 27.3839 27.3659 25.2775 27.3169C25.1436 27.3138 25.0081 26.9065 24.9483 26.7951C24.7389 26.9303 24.9827 27.6039 25.0996 27.7846C25.8894 29.0047 27.3975 29.8791 28.7745 30.2365C30.6578 30.7335 32.662 30.4502 34.3336 29.4504C35.0659 29.0183 35.9156 28.2926 35.9643 27.3741C35.9725 27.2208 35.9868 27.0618 35.9058 26.926C35.8835 26.9164 35.8613 26.9068 35.839 26.8972C35.6848 27.0171 35.5234 27.1224 35.3536 27.2179C35.2017 27.3082 35.0444 27.3302 34.8692 27.3356C34.4282 27.349 33.9863 27.3262 33.5446 27.3483C33.4268 27.3542 33.2058 27.2822 33.2251 27.1319C33.4026 26.9921 34.4552 27.0502 34.7624 27.0481C34.4603 26.0151 33.9362 24.6756 33.5727 23.6203C32.1963 19.6886 30.7767 15.7723 29.3141 11.8719L28.0752 8.52691C27.908 8.07111 27.7336 7.6149 27.5687 7.15857C27.5156 7.0118 27.504 6.92244 27.5446 6.77602L27.5941 6.75311C27.8341 6.8683 27.9846 7.46988 28.0738 7.71838L28.5901 9.13441L30.3471 13.8649C31.1139 11.7682 32.0118 9.70201 32.7554 7.59475C32.8194 7.41328 32.9761 6.86701 33.177 6.83777C33.3528 7.03377 33.1158 7.43051 33.0355 7.63465C32.8948 7.99641 32.7578 8.35963 32.6247 8.72426C31.9317 10.5858 31.1894 12.4376 30.4851 14.2986C30.9784 15.5411 31.4282 16.9608 31.9477 18.1714C33.0968 15.4419 34.1095 12.6001 35.1994 9.8417C35.5645 8.91762 35.896 7.94139 36.2676 7.0142C36.3205 6.8823 36.3373 6.8315 36.4592 6.77848C36.5642 6.81744 36.5153 6.78844 36.5962 6.89045C36.8164 6.94951 39.1902 6.94605 39.5651 6.94436C39.6213 6.80736 39.6734 6.68883 39.8417 6.73805C39.9055 6.80701 39.8971 6.83326 39.9084 6.92842C39.9239 6.93187 39.9395 6.93533 39.955 6.93879C40.681 6.97512 41.4167 6.9385 42.1443 6.94559C42.3932 6.94799 42.7377 6.916 42.9658 7.00236C43.0518 7.12992 42.5257 8.16375 42.4219 8.33332C42.5387 8.40246 42.534 8.37627 42.5903 8.47834C42.5871 8.63086 42.0438 9.99269 41.9452 10.2503L40.26 14.6582C40.0651 15.1706 39.8249 15.729 39.6458 16.2375C39.7268 16.3437 40.9657 17.1002 41.2016 17.2796C41.9373 17.8387 43.4136 19.0912 43.8932 19.8521C44.2647 19.6878 44.739 19.4854 45.093 19.2869C45.2096 19.0494 45.6861 17.8084 45.8087 17.7542C45.9635 17.8425 46.4047 19.04 46.5246 19.3072C46.7837 19.4379 48.0196 19.9526 48.0988 20.0995C48.0668 20.193 48.0183 20.2226 47.9163 20.2658C47.4476 20.4645 46.9915 20.648 46.5379 20.8836C46.2931 21.3603 46.075 21.9098 45.8825 22.4123C46.1259 22.7146 46.4403 23.462 46.593 23.8423C47.6285 26.4957 48.0052 29.3607 47.691 32.1916C47.3581 35.1544 46.2646 37.9808 44.5169 40.3961C44.301 40.6949 43.8027 41.4564 43.5001 41.5806C43.521 41.8526 43.5377 42.125 43.5502 42.3976C43.376 42.6746 43.1615 42.738 42.8696 42.8583C43.0205 43.0058 43.4802 43.287 43.5117 43.4404C43.5932 43.8373 43.4635 44.6846 43.3087 45.0585C43.1516 45.1362 42.8003 45.2431 42.6082 45.3159C42.7329 45.4852 43.125 45.7624 43.1 45.9485C43.0478 46.3366 42.8952 46.8229 42.6963 47.1624C42.6821 47.1866 42.4072 47.3451 42.3402 47.4091C42.4429 47.738 42.4444 48.081 42.2066 48.3654C42.0219 48.5862 41.8433 48.5737 41.5772 48.59C42.0067 49.0195 41.7443 49.1832 41.4724 49.635C41.3309 49.87 41.1519 50.1095 40.9276 50.2674C40.6653 50.2663 40.4358 50.2359 40.1763 50.2059C40.8138 50.6507 40.8277 50.5955 40.2476 51.2359C39.9835 51.5274 39.7592 51.7599 39.4129 51.9492C39.2156 52.3837 39.1916 52.1542 38.9091 52.3286L38.8891 52.3695C38.7108 52.7239 38.0528 53.1251 37.6777 53.2767C37.4192 53.7724 36.8602 53.7037 36.8647 53.6993C36.4192 54.13 35.9135 54.1753 35.3715 54.4506C35.1916 54.5421 35.0657 54.4638 34.8827 54.5176C34.0319 54.8601 32.7727 55.1391 31.852 55.1198C30.8541 55.0989 29.6956 55.0986 28.7104 54.9513C25.5189 54.4995 22.6436 52.7822 20.7324 50.1868C19.8629 49.0058 19.2935 47.8717 18.8956 46.4643C18.8448 46.2844 18.7076 45.9066 18.7319 45.7462C18.8071 45.6704 18.762 45.6949 18.8767 45.6806C19.0388 45.7606 19.1138 46.2518 19.1708 46.4448C20.2495 50.1005 23.1842 53.0974 26.827 54.2256C27.8354 54.5379 28.9381 54.7765 29.9831 54.7715C30.0367 54.7362 30.2016 54.6253 30.2594 54.6235C30.5429 54.6151 30.8303 54.6254 31.1159 54.6108C31.7485 54.5776 32.377 54.4905 32.9948 54.3506C35.9453 53.6984 38.7551 51.7717 40.3767 49.2165C42.0307 46.6651 42.5896 43.556 41.9278 40.5882C40.4988 34.2074 34.1908 30.1788 27.7947 31.6274C22.8719 32.7444 19.2103 36.8776 18.6951 41.8992C18.6232 42.5749 18.6424 43.2698 18.6908 43.9461C18.7017 44.0977 18.7633 44.4199 18.5656 44.4577C18.362 44.2935 18.3728 43.4004 18.3702 43.1023C18.3493 41.0934 18.8468 39.1131 19.8145 37.3526C21.3714 34.4552 23.9894 32.4347 27.1215 31.4919C25.8627 30.8538 24.857 30.3521 23.9447 29.2034C22.9227 27.9164 22.8401 25.7321 24.2454 24.6745C23.8275 23.6751 23.3891 22.3068 23.0105 21.2597L20.8982 15.5047L19.8877 12.7481C19.798 12.4997 19.5133 11.7561 19.4779 11.5399C19.5143 11.439 19.5211 11.4632 19.6414 11.3917C19.1447 9.93076 18.516 8.39103 17.9711 6.9368C18.3416 6.92139 20.7544 6.95795 20.8487 6.90211C20.8688 6.79529 20.861 6.78129 20.9387 6.70494C21.0986 6.68045 21.1545 6.81686 21.2092 6.94553L23.0674 6.94811C23.346 6.94828 23.846 6.96094 24.108 6.92854Z" fill="#1B1A1B"/>
<path d="M39.6458 16.2375C39.7268 16.3437 40.9656 17.1002 41.2016 17.2796C41.9373 17.8387 43.4136 19.0912 43.8932 19.8521C44.2647 19.6878 44.739 19.4853 45.093 19.2869C45.2096 19.0494 45.6861 17.8084 45.8087 17.7542C45.9635 17.8425 46.4047 19.04 46.5246 19.3072C46.7837 19.4379 48.0196 19.9526 48.0988 20.0995C48.0667 20.193 48.0183 20.2226 47.9163 20.2658C47.4476 20.4645 46.9915 20.648 46.5379 20.8836C46.2931 21.3603 46.075 21.9098 45.8825 22.4123C46.1259 22.7146 46.4402 23.462 46.593 23.8423C47.6285 26.4957 48.0052 29.3607 47.691 32.1916C47.3581 35.1544 46.2646 37.9807 44.5168 40.3961C44.301 40.6949 43.8026 41.4564 43.5001 41.5806C43.431 40.9911 43.4283 40.985 42.8732 40.7793C43.0431 40.61 43.1374 40.5398 43.2639 40.3314C43.2465 40.1695 43.1962 39.9297 43.145 39.7768C43.0117 39.3793 43.0573 39.4715 42.7863 39.3218C42.7773 39.2805 42.7754 39.261 42.8055 39.2091C42.9616 38.9197 42.663 38.5144 42.5726 38.2472C42.3619 37.6241 42.0216 37.815 41.5097 37.6139C41.6837 37.4432 41.8363 37.3255 41.8729 37.0856C41.8037 36.8027 41.4056 36.2338 41.2144 35.9907C41.1112 35.8593 40.6065 35.8687 40.4137 35.8585C40.5429 35.739 40.7792 35.5284 40.6928 35.3385C40.5509 35.0265 40.0031 34.4218 39.727 34.2508C39.5937 34.2513 39.5102 34.2538 39.3775 34.235C39.3845 34.187 39.4124 33.9546 39.3802 33.9146C39.0899 33.5539 38.4793 33.0905 38.0806 32.8461C37.9835 32.7866 37.8207 32.8835 37.7409 32.9225C37.3739 32.3311 36.6427 31.9742 35.9938 31.7407C35.8507 31.6892 35.828 31.7653 35.6847 31.8532C35.5842 31.7865 35.5704 31.5942 35.465 31.535C35.179 31.3742 34.7623 31.2982 34.4472 31.2197C34.1885 31.4002 34.2005 31.3704 33.882 31.3196C36.0016 30.6367 38.5635 28.4172 37.4259 25.9357C37.205 25.4539 36.7579 25.0429 36.3647 24.6968C36.6848 23.7181 37.2673 22.3488 37.6544 21.3687L39.6458 16.2375Z" fill="#F3E4E2"/>
<path d="M45.093 19.2869C45.2096 19.0494 45.6861 17.8084 45.8087 17.7542C45.9635 17.8425 46.4047 19.0401 46.5246 19.3072C46.7837 19.438 48.0196 19.9526 48.0988 20.0995C48.0668 20.1931 48.0183 20.2226 47.9163 20.2658C47.4476 20.4645 46.9915 20.648 46.5379 20.8836C46.2931 21.3603 46.075 21.9099 45.8825 22.4123C45.8574 22.4123 45.7923 22.3976 45.7822 22.3782C45.5314 21.8952 45.3574 21.3919 45.0979 20.9094C44.7053 20.6707 43.7358 20.3644 43.4564 20.1366L43.4721 20.0837C43.5895 19.9817 43.7496 19.9195 43.8932 19.8522C44.2647 19.6878 44.739 19.4854 45.093 19.2869Z" fill="#1B1A1B"/>
<path d="M45.8049 18.0978C45.8937 18.1962 46.2726 19.1506 46.4153 19.4144C46.8433 19.6566 47.3888 19.8863 47.8407 20.1064C47.3399 20.3236 46.8863 20.4991 46.4125 20.779C46.2133 21.1444 45.9998 21.6558 45.8212 22.0455C45.4347 21.4124 45.5298 20.8116 44.6945 20.5273C44.4417 20.4413 44.0184 20.2361 43.7707 20.1128C44.1878 19.9148 44.8198 19.6372 45.2035 19.4119C45.4214 18.9951 45.5963 18.5299 45.8049 18.0978Z" fill="#F7F7F7"/>
<path d="M24.108 6.92854C24.1091 6.78023 24.0887 6.826 24.1621 6.71478C24.2515 6.6798 24.2066 6.68092 24.301 6.71842C24.3385 6.75932 24.3644 6.7926 24.3874 6.84381C24.8157 7.79701 29.0616 19.1053 29.0499 19.2901C29.0474 19.3315 29.0187 19.3657 28.988 19.392C28.968 19.4091 28.9261 19.4322 28.9025 19.4459C28.9573 19.6494 29.1029 19.9946 29.1851 20.2091L29.6757 21.5073L30.2911 23.1468C30.3844 23.3981 30.5126 23.782 30.6175 24.0194C30.7342 24.2009 31.041 24.9674 31.04 25.1659C31.0847 25.4269 31.6131 26.7879 31.7487 27.0516C30.6969 27.0458 29.6451 27.0483 28.5933 27.0591C28.3328 26.1898 27.8781 25.06 27.5585 24.1958L25.8859 19.6344C24.3568 15.3939 22.7978 11.1641 21.2092 6.94553L23.0674 6.94811C23.346 6.94828 23.8459 6.96094 24.108 6.92854Z" fill="#4CB542"/>
<path d="M24.108 6.92854C24.1091 6.78023 24.0887 6.826 24.1621 6.71478C24.2515 6.6798 24.2067 6.68092 24.3011 6.71842C24.3386 6.75932 24.3645 6.7926 24.3874 6.84381C24.8157 7.79701 29.0616 19.1053 29.05 19.2901C29.0474 19.3315 29.0187 19.3657 28.988 19.392C28.9681 19.4091 28.9262 19.4322 28.9025 19.4459C28.752 19.375 28.3573 18.153 28.2636 17.8975L27.3689 15.4935C26.5671 13.3112 25.7465 11.1357 24.907 8.96754C24.8038 8.69754 24.2 7.02762 24.108 6.92854Z" fill="#1B1A1B"/>
<path d="M30.6175 24.0194C30.7342 24.2009 31.041 24.9675 31.04 25.1659C30.929 25.2044 30.9294 25.2061 30.8135 25.2129C30.7395 25.1254 30.4578 24.2957 30.4228 24.1603C30.4709 24.0704 30.5227 24.0612 30.6175 24.0194Z" fill="#1B1A1B"/>
<path d="M20.8487 6.9021C21.0526 7.10466 27.6744 25.3045 28.2912 27.0663C27.3377 27.0724 26.3134 27.096 25.3654 27.0731C24.8794 25.537 24.2783 23.9437 23.7286 22.4262L21.2182 15.5175L20.3418 13.1385C20.2208 12.8071 19.8175 11.6362 19.6414 11.3917C19.1447 9.93075 18.516 8.39103 17.9711 6.93679C18.3416 6.92138 20.7544 6.95794 20.8487 6.9021Z" fill="#DB4431"/>
<path d="M33.7161 23.1344C33.8245 22.6632 34.2724 21.6194 34.4617 21.1196L36.485 15.8795L39.046 9.13364L39.5932 7.69827C39.6585 7.52577 39.8178 7.06751 39.9084 6.92841C39.9239 6.93186 39.9395 6.93532 39.955 6.93878C40.681 6.9751 41.4166 6.93848 42.1443 6.94557C42.3932 6.94798 42.7376 6.91598 42.9658 7.00235C43.0518 7.12991 42.5257 8.16374 42.4219 8.33331C42.2044 8.61432 41.3986 10.9159 41.2052 11.4184L36.8501 22.6642L36.0249 24.7967C35.7964 25.3991 35.4335 26.5471 35.0517 27.0149C34.8409 26.5032 34.5992 25.7304 34.4062 25.1839C34.1982 24.595 33.8548 23.7084 33.7161 23.1344Z" fill="#DB4431"/>
<path d="M36.5962 6.89044C36.8164 6.9495 39.1902 6.94605 39.5651 6.94435C39.3842 7.49085 39.1309 8.10351 38.925 8.64825L37.5887 12.1614L33.5597 22.6955C33.4376 22.3827 33.3389 22.0463 33.2172 21.7312C32.8121 20.6826 32.4484 19.6338 32.0878 18.5693C32.6209 17.3939 33.1834 15.8284 33.6513 14.6119L36.5962 6.89044Z" fill="#4CB542"/>
<path d="M24.3123 24.9594C24.3889 25.0575 24.7732 26.2045 24.8339 26.3812C24.3761 27.0725 24.6302 27.8696 25.1203 28.4594C26.378 29.973 28.2359 30.5382 30.1006 30.7602C29.9521 30.8674 29.883 30.9315 29.7506 31.056L29.3029 31.1057C28.6508 31.1737 28.2127 31.2493 27.5685 31.3816C27.4276 31.2965 27.2629 31.2188 27.114 31.1466C26.2793 30.7416 25.5037 30.3316 24.8061 29.7058C23.3464 28.3964 22.9066 26.4847 24.3123 24.9594Z" fill="#F7F7F7"/>
<path d="M36.2518 24.9974C36.9913 25.3741 37.5113 26.5718 37.4097 27.3923C37.1421 29.5536 34.6542 31.1283 32.6273 31.278C32.4701 31.2896 31.8016 31.1541 31.5838 31.1335L31.0883 31.0719C30.9833 30.8943 30.9413 30.8746 30.7603 30.7636C32.461 30.6458 34.3365 30.1116 35.5414 28.8474C36.2213 28.1341 36.5897 27.0868 35.7446 26.3207C35.904 25.8759 36.0731 25.4347 36.2518 24.9974Z" fill="#F7F7F7"/>
<path d="M42.4515 43.0538C42.7136 43.1689 42.9959 43.4056 43.2336 43.5804C43.2127 43.9305 43.2457 44.6016 42.9521 44.8043C42.7501 44.881 42.5038 44.9493 42.2938 45.013C42.3867 44.3638 42.4394 43.7094 42.4515 43.0538Z" fill="#F7F7F7"/>
<path d="M42.2618 40.8963L43.1476 41.2274C43.1818 41.5871 43.2128 41.9148 43.2259 42.2762L43.0045 42.4204C42.7806 42.5295 42.6936 42.5622 42.4544 42.6345C42.4487 42.1168 42.3359 41.4163 42.2618 40.8963Z" fill="#F7F7F7"/>
<path d="M41.3072 37.9551C41.5918 37.9871 41.8726 38.0424 42.1533 38.0973C42.3007 38.4308 42.4308 38.7253 42.5552 39.0683C42.4932 39.1504 42.4301 39.2317 42.366 39.3123C42.2439 39.4301 42.1055 39.5101 41.9331 39.4743C41.839 39.2994 41.7209 38.9424 41.6439 38.7408C41.5367 38.4602 41.4332 38.2289 41.3072 37.9551Z" fill="#F7F7F7"/>
<path d="M42.1951 45.5118C42.3684 45.6076 42.6478 45.8662 42.7872 46.0088C42.6949 46.3107 42.5971 46.6109 42.494 46.9092L42.2835 47.0373C42.0464 47.1714 42.011 47.1202 41.7798 46.9973C41.8839 46.5332 42.0765 46.0523 42.1951 45.5118Z" fill="#F7F7F7"/>
<path d="M40.2113 36.1764C40.4899 36.1778 40.7375 36.1965 41.0143 36.2169C41.1994 36.4584 41.4156 36.8045 41.5702 37.0629L41.3625 37.2564C41.2704 37.363 41.1799 37.4418 41.0766 37.5366C40.9425 37.3539 40.7917 37.0509 40.6684 36.8474C40.5156 36.5954 40.3848 36.4127 40.2113 36.1764Z" fill="#F7F7F7"/>
<path d="M41.0892 48.5582C41.295 48.714 41.3631 48.7938 41.4978 49.0072C41.3796 49.235 41 49.893 40.7579 49.9269L40.2605 49.8875C40.5479 49.4515 40.8243 49.0083 41.0892 48.5582Z" fill="#F7F7F7"/>
<path d="M39.5288 34.5497C39.7066 34.5338 40.2775 35.2357 40.3892 35.4049C40.2428 35.603 40.1563 35.6659 39.9537 35.788C39.6502 35.4041 39.2984 35.0515 39.0116 34.6791C39.2253 34.6058 39.3053 34.5874 39.5288 34.5497Z" fill="#F7F7F7"/>
<path d="M38.056 33.1921C38.2845 33.3199 38.8696 33.8212 39.0939 34.0062C38.9619 34.1736 38.8798 34.2391 38.7165 34.3616C38.3774 34.1048 38.0112 33.7919 37.6727 33.5222C37.7911 33.4057 37.9276 33.2984 38.056 33.1921Z" fill="#F7F7F7"/>
<path d="M39.9098 50.3249C40.0356 50.4544 40.1865 50.5698 40.3271 50.6845C40.1133 50.9975 39.7249 51.3571 39.432 51.5951C39.2884 51.5299 39.1631 51.4316 39.0336 51.3397C39.3369 51.0094 39.6211 50.6677 39.9098 50.3249Z" fill="#F7F7F7"/>
<path d="M42.6374 39.5779L42.6711 39.5781C42.7556 39.6202 42.8314 39.7858 42.8714 39.8747C43.0661 40.3086 42.5259 40.414 42.2824 40.4833L42.2176 40.5068C42.1154 40.4175 42.0421 39.9434 42.0081 39.777C42.2381 39.719 42.4129 39.6576 42.6374 39.5779Z" fill="#F7F7F7"/>
<path d="M35.9808 32.0086C36.373 32.1408 36.8767 32.4502 37.227 32.6769L36.965 32.9629L36.9619 32.9658C36.8907 32.9754 36.5538 32.7441 36.4617 32.6905C36.2621 32.574 35.9109 32.5109 35.8412 32.2751C35.8511 32.1704 35.9186 32.0967 35.9808 32.0086Z" fill="#F7F7F7"/>
<path d="M38.5485 51.7912C38.6474 52.3911 38.2138 52.676 37.765 52.9409C37.6232 52.913 37.4745 52.8881 37.3318 52.8622L37.221 52.836C37.2611 52.7851 37.5207 52.6181 37.5903 52.5667C37.9224 52.3217 38.2205 52.0412 38.5485 51.7912Z" fill="#F7F7F7"/>
<path d="M41.6642 47.3621C42.2068 47.5431 42.2193 48.1158 41.7818 48.2561C41.5989 48.2438 41.4913 48.1943 41.3308 48.114C41.4376 47.8542 41.5334 47.6118 41.6642 47.3621Z" fill="#F7F7F7"/>
<path d="M36.4075 53.3462C36.4809 53.3476 36.481 53.3489 36.552 53.3699C36.5826 53.4682 36.5283 53.5463 36.4852 53.663C36.3225 53.7339 35.7683 53.9948 35.6453 53.9703C35.4935 53.8861 35.4531 53.9277 35.3767 53.8727L35.3776 53.839C35.5519 53.7239 36.1735 53.455 36.4075 53.3462Z" fill="#F7F7F7"/>
<path d="M32.7141 54.5898C32.8448 54.5693 33.0479 54.6744 33.1771 54.7284C32.6119 54.8969 32.1069 54.8873 31.528 54.8748C31.3646 54.8637 31.1433 54.831 30.9762 54.8115C31.6011 54.7496 32.0909 54.6917 32.7141 54.5898Z" fill="#F7F7F7"/>
<path d="M34.4484 31.4763C34.7443 31.56 35.0811 31.6328 35.3547 31.757L35.1792 31.9934C35.1304 32.0158 34.4801 31.7883 34.3639 31.7523L34.4484 31.4763Z" fill="#F7F7F7"/>
<path d="M34.679 54.1127C34.752 54.1151 34.7242 54.1097 34.7915 54.1456L34.7554 54.2244C34.4464 54.4344 33.8261 54.5817 33.4395 54.5885C33.3754 54.5564 33.3926 54.5792 33.3598 54.5287C33.4519 54.4736 34.4666 54.1894 34.679 54.1127Z" fill="#F7F7F7"/>
<path d="M36.8371 53.0397C37.042 53.1424 37.1406 53.1127 37.3159 53.2039L37.3215 53.247L37.2186 53.3224C37.0884 53.3829 36.9732 53.4118 36.8361 53.452C36.8481 53.2842 36.8541 53.2116 36.8371 53.0397Z" fill="#F7F7F7"/>
<path d="M38.8035 51.5508C38.9108 51.5916 39.0485 51.6756 39.11 51.7763C39.1186 51.8865 39.1173 51.8501 39.0328 51.9651C38.9221 52.0082 38.9371 52.0236 38.8454 51.9989C38.8033 51.9049 38.8197 51.6772 38.8035 51.5508Z" fill="#F7F7F7"/>
<path d="M37.3659 32.9743C37.455 33.0152 37.4992 33.0275 37.5672 33.0996C37.5692 33.2065 37.5604 33.1799 37.4704 33.2885C37.4406 33.2995 37.4212 33.2955 37.3867 33.2961L37.3382 33.2449C37.3164 33.1207 37.3303 33.1004 37.3659 32.9743Z" fill="#F7F7F7"/>
<path d="M30.3931 30.9078C30.4906 30.9297 30.6022 30.9614 30.6779 31.0257L30.6519 31.0566L30.5054 31.064L30.0193 31.0485C30.1446 31.0072 30.2699 30.9558 30.3931 30.9078Z" fill="#F7F7F7"/>
<path d="M29.8898 33.2219C35.2955 32.9049 39.9329 37.0335 40.2434 42.4395C40.5539 47.8455 36.4197 52.478 31.0133 52.782C25.6162 53.0854 20.9933 48.9598 20.6834 43.563C20.3734 38.1662 24.4935 33.5384 29.8898 33.2219Z" fill="#1B1A1B"/>
<path d="M29.7765 33.5115C35.021 33.1328 39.5784 37.0795 39.9528 42.3243C40.3272 47.569 36.3766 52.1232 31.1315 52.4932C25.8927 52.8628 21.3451 48.9179 20.9711 43.6793C20.5972 38.4408 24.5383 33.8899 29.7765 33.5115Z" fill="#F7F7F7"/>
<path d="M30.1012 35.335C34.3234 35.1551 37.8898 38.4368 38.061 42.6594C38.2322 46.8819 34.9432 50.4416 30.7203 50.604C26.5096 50.766 22.9627 47.4887 22.792 43.2784C22.6213 39.0682 25.8913 35.5144 30.1012 35.335Z" fill="#1B1A1B"/>
<path d="M29.2468 39.1302C30.0594 38.9318 30.5562 38.918 31.3791 39.0407L31.7229 39.132C31.8895 39.1969 32.0603 39.2605 32.2233 39.3335L32.5134 39.4799C33.0815 39.7896 33.2653 39.961 33.7142 40.4235L33.8951 40.6336C34.2808 41.2253 34.562 41.7121 34.68 42.43C34.9115 42.2794 35.2897 41.9676 35.5216 41.7896L37.3433 40.3838L37.4477 40.6657C37.5131 40.8989 37.5838 41.1383 37.6385 41.3737C37.6651 41.5108 37.6951 41.6534 37.7193 41.7903C38.0276 43.7054 37.5734 45.6651 36.454 47.2493C36.1739 47.6386 35.6844 48.2103 35.2994 48.5043L35.0477 48.739L34.9364 48.8072C34.8412 48.8715 34.7394 48.9376 34.6471 49.0051L34.3894 49.1687C34.3148 49.2093 34.1654 49.2972 34.0945 49.3286C33.0642 49.9095 31.9066 50.2276 30.7241 50.2548C30.5427 50.2825 30.1898 50.2697 30.003 50.2499C28.8682 50.2469 27.4912 49.7352 26.5192 49.1679L26.2238 48.9747C26.1688 48.9436 26.0306 48.8408 25.9721 48.7999L25.7024 48.5919C23.5219 46.7937 22.6092 44.1713 23.1653 41.4101L23.2871 40.9506C23.3197 40.8381 23.3869 40.6806 23.431 40.5678L23.5499 40.2637C23.9003 40.5116 24.4378 40.8255 24.8111 41.0657C25.0692 41.2319 26.1389 41.9772 26.3405 42.0501C26.3924 41.8327 26.5331 41.5118 26.6255 41.3099C26.6593 41.2632 26.8076 40.9893 26.8433 40.9258C27.2327 40.3373 27.5909 40.0238 28.1557 39.6157C28.2381 39.5595 28.3363 39.5045 28.4228 39.4529C28.5928 39.3716 28.7823 39.2922 28.9559 39.2154C29.044 39.1824 29.1541 39.1555 29.2468 39.1302Z" fill="#1B1A1B"/>
<path d="M23.5499 40.2636C23.9003 40.5116 24.4378 40.8254 24.8111 41.0657C25.0692 41.2318 26.1389 41.9772 26.3405 42.0501C26.3115 42.1635 26.2832 42.2772 26.2557 42.391C26.1382 43.0874 26.1672 43.503 26.2644 44.1896C26.3398 44.4762 26.4081 44.6983 26.5016 44.9778L26.6009 45.1685C26.6803 45.3102 26.7614 45.451 26.8443 45.5908C27.0717 45.9251 27.2225 46.1103 27.5076 46.3962L27.7508 46.6143C27.4964 47.0239 26.856 48.1244 26.7122 48.565C26.6145 48.7015 26.4703 48.8534 26.3155 48.9228L26.2238 48.9746C26.1688 48.9435 26.0306 48.8407 25.9721 48.7998L25.7024 48.5919C23.5219 46.7936 22.6092 44.1712 23.1653 41.4101L23.2871 40.9506C23.3197 40.838 23.3869 40.6806 23.431 40.5677L23.5499 40.2636Z" fill="#F7F7F7"/>
<path d="M23.5499 40.2636C23.9003 40.5116 24.4377 40.8254 24.811 41.0657C25.0691 41.2318 26.1388 41.9772 26.3405 42.0501C26.3115 42.1635 26.2832 42.2772 26.2557 42.391C26.1382 43.0874 26.1671 43.503 26.2644 44.1896L26.2422 44.2227C26.1098 44.1891 23.5233 41.2951 23.2871 40.9506C23.3197 40.838 23.3869 40.6806 23.431 40.5677L23.5499 40.2636Z" fill="#F7F7F7"/>
<path d="M23.5499 40.2636C23.9003 40.5116 24.4378 40.8254 24.8111 41.0657C25.0692 41.2318 26.1389 41.9772 26.3405 42.0501C26.3115 42.1635 26.2832 42.2772 26.2557 42.391C26.0769 42.3284 25.6682 42.0115 25.4973 41.9011C25.0115 41.5874 23.9094 40.7632 23.431 40.5677L23.5499 40.2636Z" fill="#F3E4E2"/>
<path d="M26.8442 45.5908C27.0716 45.9252 27.2225 46.1103 27.5076 46.3962L27.7508 46.6143C27.4963 47.024 26.856 48.1245 26.7122 48.565C26.6144 48.7015 26.4702 48.8534 26.3155 48.9229L26.2237 48.9747C26.1688 48.9436 26.0306 48.8408 25.9721 48.7999C26.1688 47.87 26.4583 46.9675 26.7042 46.05C26.7451 45.8973 26.7847 45.7369 26.8442 45.5908Z" fill="#F7F7F7"/>
<path d="M27.5076 46.3962L27.7508 46.6143C27.4964 47.024 26.856 48.1245 26.7122 48.565C26.6145 48.7015 26.4703 48.8534 26.3155 48.9229C26.355 48.8227 26.4376 48.686 26.4912 48.5893C26.8832 47.8831 27.1505 47.1196 27.5076 46.3962Z" fill="#F3E4E2"/>
<path d="M23.2871 40.9506C23.5234 41.2951 26.1099 44.1891 26.2422 44.2227L26.2644 44.1896C26.3398 44.4762 26.4082 44.6983 26.5016 44.9778C26.2229 44.7583 25.5259 43.9285 25.2626 43.6373C24.8492 43.1802 24.4153 42.6928 23.9931 42.2375C23.7496 41.975 23.4504 41.6121 23.1653 41.4101L23.2871 40.9506Z" fill="#F3E4E2"/>
<path d="M26.6009 45.1685C26.6803 45.3103 26.7614 45.451 26.8443 45.5908C26.7847 45.7369 26.7451 45.8973 26.7042 46.0499C26.4584 46.9675 26.1689 47.87 25.9721 48.7999L25.7025 48.5919C25.7796 48.4359 26.006 47.5755 26.0582 47.3554C26.2228 46.6623 26.4751 45.8593 26.6009 45.1685Z" fill="#F3E4E2"/>
<path d="M37.3433 40.3838L37.4477 40.6656C37.5131 40.8988 37.5838 41.1382 37.6384 41.3736C37.6651 41.5107 37.6951 41.6534 37.7193 41.7903C38.0276 43.7054 37.5734 45.665 36.454 47.2492C36.1738 47.6385 35.6844 48.2102 35.2994 48.5042L35.0477 48.7389L34.9364 48.8072C34.8412 48.8714 34.7393 48.9375 34.6471 49.005C34.1748 48.3895 33.6301 47.2527 33.139 46.6838L33.4423 46.4182C33.7383 46.1138 33.9315 45.8592 34.1736 45.5161C34.2427 45.3984 34.3051 45.2722 34.3677 45.1506L34.4773 44.9229C34.5554 44.7218 34.6119 44.5139 34.6722 44.3068C34.7734 43.657 34.7998 43.3857 34.7326 42.7362L34.68 42.4299C34.9115 42.2794 35.2897 41.9676 35.5216 41.7895L37.3433 40.3838Z" fill="#F7F7F7"/>
<path d="M37.3433 40.3838L37.4477 40.6656C37.5131 40.8988 37.5838 41.1382 37.6385 41.3736C37.5947 41.4897 34.818 44.3083 34.7068 44.353L34.6722 44.3068C34.7735 43.657 34.7998 43.3857 34.7326 42.7362L34.68 42.4299C34.9115 42.2794 35.2897 41.9676 35.5216 41.7895L37.3433 40.3838Z" fill="#F7F7F7"/>
<path d="M37.3433 40.3838L37.4477 40.6656C36.6732 41.2718 35.5246 42.2226 34.7326 42.7362L34.68 42.4299C34.9115 42.2794 35.2897 41.9676 35.5216 41.7895L37.3433 40.3838Z" fill="#F3E4E2"/>
<path d="M34.1736 45.5161C34.267 45.7534 34.3458 46.1834 34.4238 46.4489C34.6445 47.2009 34.8275 47.9891 35.0477 48.7389L34.9364 48.8072C34.8412 48.8715 34.7393 48.9376 34.6471 49.0051C34.1748 48.3896 33.6301 47.2528 33.139 46.6838L33.4423 46.4183C33.7383 46.1138 33.9315 45.8592 34.1736 45.5161Z" fill="#F7F7F7"/>
<path d="M33.4423 46.4183C33.5667 46.8288 34.6333 48.5133 34.9364 48.8072C34.8412 48.8715 34.7393 48.9376 34.6471 49.0051C34.1748 48.3895 33.6301 47.2528 33.139 46.6838L33.4423 46.4183Z" fill="#F3E4E2"/>
<path d="M37.6385 41.3737C37.6651 41.5108 37.6951 41.6534 37.7193 41.7903C37.3765 42.0775 36.9388 42.5427 36.6238 42.8676C36.2298 43.2724 35.8323 43.6739 35.4314 44.0718C35.2417 44.261 34.6832 44.8159 34.4773 44.923C34.5554 44.7218 34.6119 44.514 34.6722 44.3068L34.7068 44.3531C34.818 44.3083 37.5947 41.4898 37.6385 41.3737Z" fill="#F3E4E2"/>
<path d="M34.3678 45.1506C34.4836 45.3519 34.5476 45.726 34.6161 45.9565C34.8286 46.6724 35.0177 47.8524 35.2994 48.5042L35.0477 48.7389C34.8275 47.989 34.6446 47.2009 34.4238 46.4488C34.3459 46.1834 34.267 45.7534 34.1736 45.5161C34.2427 45.3984 34.3051 45.2722 34.3678 45.1506Z" fill="#F3E4E2"/>
<path d="M27.7508 46.6143C27.9502 46.7653 28.1238 46.8988 28.3369 47.0317C28.5831 47.1578 28.7677 47.2531 29.0281 47.3521C29.8978 47.5958 30.5367 47.6943 31.4392 47.5003L31.8482 47.3909L31.9386 47.3476C31.9665 47.3421 32.2225 47.234 32.2664 47.2161C32.5941 47.0513 32.8403 46.894 33.139 46.6838C33.6301 47.2528 34.1748 48.3895 34.6471 49.0051L34.3894 49.1687C34.3148 49.2093 34.1654 49.2971 34.0945 49.3286C33.0642 49.9095 31.9066 50.2276 30.7241 50.2548C30.5427 50.2825 30.1898 50.2697 30.003 50.2499C28.8682 50.2469 27.4912 49.7351 26.5192 49.1679L26.2238 48.9746L26.3155 48.9229C26.4703 48.8534 26.6145 48.7015 26.7122 48.565C26.856 48.1245 27.4964 47.0239 27.7508 46.6143Z" fill="#F3E4E2"/>
<path d="M33.139 46.6838C33.63 47.2528 34.1748 48.3896 34.6471 49.0051L34.3894 49.1687C34.3148 49.2093 34.1654 49.2972 34.0945 49.3286C33.0641 49.9095 31.9066 50.2276 30.7241 50.2548L30.705 50.2088C30.7373 50.0399 30.9407 49.593 31.0144 49.4107C31.283 48.7336 31.5609 48.0603 31.8482 47.3909L31.9386 47.3476C31.9665 47.3421 32.2225 47.234 32.2663 47.2161C32.5941 47.0513 32.8403 46.894 33.139 46.6838Z" fill="#F7F7F7"/>
<path d="M33.139 46.6838C33.6301 47.2528 34.1748 48.3896 34.6471 49.0051L34.3894 49.1687C34.1012 48.9785 33.7075 48.5921 33.449 48.346L32.2664 47.2161C32.5941 47.0513 32.8403 46.894 33.139 46.6838Z" fill="#F7F7F7"/>
<path d="M31.9386 47.3476C31.9665 47.3421 32.2225 47.234 32.2663 47.2161L33.449 48.3459C33.7075 48.592 34.1011 48.9784 34.3894 49.1687C34.3148 49.2093 34.1654 49.2971 34.0945 49.3286C33.5219 48.8212 32.9767 48.2742 32.4163 47.753C32.2636 47.6109 32.1124 47.4636 31.9386 47.3476Z" fill="#F3E4E2"/>
<path d="M28.6129 47.2499C29.1007 48.1608 29.567 49.2989 30.003 50.2499C28.8681 50.2469 27.4912 49.7351 26.5192 49.1679C26.6591 48.982 27.2452 48.4656 27.4456 48.2878C27.7877 47.9843 28.2554 47.5089 28.6129 47.2499Z" fill="#F7F7F7"/>
<path d="M29.028 47.3521C29.8978 47.5957 30.5367 47.6943 31.4392 47.5003C31.4716 47.5899 31.1312 48.3406 31.0707 48.466C30.7953 49.0367 30.6221 49.7805 30.3212 50.3251C30.1527 49.9908 29.9319 49.3707 29.7688 48.9933C29.6249 48.66 29.0972 47.6412 29.028 47.3521Z" fill="#F7F7F7"/>
<path d="M30.0882 39.261C32.3048 39.0464 34.2755 40.6699 34.4892 42.8866C34.7029 45.1033 33.0786 47.0733 30.8619 47.2861C28.6464 47.4988 26.6777 45.8756 26.4641 43.6602C26.2505 41.4447 27.8729 39.4754 30.0882 39.261Z" fill="#F7F7F7"/>
<path d="M30.1361 40.5657C31.6349 40.3678 33.0093 41.4252 33.2023 42.9247C33.3952 44.4242 32.3333 45.7951 30.8332 45.9832C29.34 46.1702 27.9768 45.1143 27.7848 43.6218C27.5927 42.1293 28.6442 40.7626 30.1361 40.5657Z" fill="#1B1A1B"/>
<path d="M30.2997 40.8367C31.6406 40.7304 32.8154 41.7275 32.9284 43.0678C33.0415 44.4081 32.0503 45.5879 30.7106 45.7078C29.3612 45.8285 28.1712 44.8286 28.0573 43.4787C27.9434 42.1288 28.9492 40.9437 30.2997 40.8367Z" fill="#F7F7F7"/>
<path d="M30.6336 35.6541C30.7354 35.6597 30.8574 35.663 30.9568 35.6746C32.1379 35.8198 32.9067 35.9855 33.991 36.5499L34.3178 36.7275C34.0313 37.0731 33.6191 37.7502 33.3624 38.135C33.1701 38.4232 32.6225 39.2132 32.5134 39.4799L32.2233 39.3335C32.0603 39.2604 31.8895 39.1969 31.7229 39.1319L31.3791 39.0407C30.5562 38.918 30.0594 38.9318 29.2468 39.1302C29.1542 39.1555 29.0441 39.1824 28.9559 39.2154C28.7823 39.2921 28.5928 39.3715 28.4228 39.4529C28.3332 39.3253 28.2506 39.1801 28.1763 39.0425C27.7341 38.2245 27.1991 37.4536 26.7477 36.6427C27.9367 36.0141 28.5584 35.8502 29.8732 35.6754L30.1911 35.6542L30.6336 35.6541Z" fill="#F7F7F7"/>
<path d="M30.6336 35.6541C30.7354 35.6597 30.8573 35.663 30.9568 35.6746C32.1379 35.8198 32.9067 35.9855 33.9909 36.5499L34.3178 36.7275C34.0313 37.0731 33.6191 37.7502 33.3623 38.135C33.1701 38.4232 32.6225 39.2132 32.5134 39.4799L32.2233 39.3335C32.0603 39.2604 31.8895 39.1969 31.7229 39.1319L31.3791 39.0407C31.4137 38.9306 30.7213 36.0052 30.6336 35.6541Z" fill="#F7F7F7"/>
<path d="M30.6336 35.6541C30.7354 35.6597 30.8573 35.663 30.9568 35.6746C31.1198 36.3217 31.2606 36.9878 31.4013 37.6413C31.5057 38.1264 31.6365 38.6494 31.7229 39.1319L31.3791 39.0407C31.4137 38.9306 30.7213 36.0052 30.6336 35.6541Z" fill="#F3E4E2"/>
<path d="M33.9909 36.5499L34.3178 36.7275C34.0312 37.0731 33.6191 37.7503 33.3623 38.135C33.1701 38.4232 32.6225 39.2132 32.5134 39.4799L32.2233 39.3335C32.6802 38.5859 33.2041 37.8814 33.6624 37.1347C33.7792 36.9445 33.9016 36.7549 33.9909 36.5499Z" fill="#F3E4E2"/>
<path d="M30.1911 35.6542L30.6336 35.6541C30.7213 36.0052 31.4137 38.9306 31.3791 39.0407C30.5562 38.918 30.0594 38.9318 29.2468 39.1302C29.3169 38.7779 29.4786 38.2621 29.5765 37.9031L30.1911 35.6542Z" fill="#F7F7F7"/>
<path d="M29.8732 35.6754L30.1911 35.6542L29.5766 37.9031C29.4786 38.2621 29.3169 38.7779 29.2469 39.1302C29.1542 39.1555 29.0441 39.1824 28.9559 39.2154C29.0163 38.8556 29.161 38.3905 29.2524 38.0327C29.4524 37.2505 29.6859 36.4603 29.8732 35.6754Z" fill="#F3E4E2"/>
<path d="M34.3178 36.7275C34.583 36.8914 34.7736 37.0144 35.0267 37.2025C35.0795 37.2447 35.2431 37.3691 35.283 37.4092C36.2103 38.2106 36.9191 39.234 37.3432 40.3838L35.5216 41.7895C35.2897 41.9676 34.9115 42.2794 34.68 42.43C34.562 41.7121 34.2808 41.2253 33.8951 40.6336L33.7142 40.4235C33.2653 39.9609 33.0814 39.7896 32.5134 39.4799C32.6225 39.2132 33.1701 38.4232 33.3623 38.135C33.6191 37.7503 34.0312 37.0731 34.3178 36.7275Z" fill="#F7F7F7"/>
<path d="M34.3178 36.7275C34.583 36.8914 34.7736 37.0144 35.0267 37.2025C34.7437 37.8933 34.4642 38.5856 34.1883 39.2793C34.1115 39.4729 33.8045 40.3081 33.7142 40.4235C33.2653 39.9609 33.0814 39.7896 32.5134 39.4799C32.6225 39.2132 33.1701 38.4232 33.3623 38.135C33.6191 37.7503 34.0312 37.0731 34.3178 36.7275Z" fill="#F7F7F7"/>
<path d="M35.0267 37.2025C35.0795 37.2447 35.2431 37.369 35.2831 37.4092L34.5363 39.1919C34.4073 39.5074 34.072 40.4072 33.8951 40.6336L33.7142 40.4235C33.8046 40.3081 34.1115 39.4728 34.1883 39.2793C34.4642 38.5856 34.7437 37.8933 35.0267 37.2025Z" fill="#F3E4E2"/>
<path d="M26.7476 36.6427C27.199 37.4536 27.7341 38.2245 28.1763 39.0425C28.2506 39.18 28.3332 39.3253 28.4228 39.4529C28.3363 39.5044 28.2381 39.5594 28.1557 39.6157C27.5908 40.0237 27.2327 40.3372 26.8433 40.9258C26.8076 40.9892 26.6593 41.2632 26.6255 41.3099C26.5331 41.5117 26.3924 41.8327 26.3405 42.0501C26.1388 41.9772 25.0691 41.2318 24.811 41.0657C24.4377 40.8254 23.9003 40.5116 23.5499 40.2636C23.9541 39.2317 24.6018 38.3129 25.4378 37.5855L25.6716 37.3807C25.9121 37.1841 26.1444 37.0281 26.3998 36.8531L26.7476 36.6427Z" fill="#F7F7F7"/>
<path d="M26.7476 36.6427C27.1991 37.4536 27.7341 38.2245 28.1763 39.0425C28.2506 39.18 28.3332 39.3253 28.4228 39.4529C28.3363 39.5044 28.2382 39.5594 28.1557 39.6157C27.5909 40.0237 27.2327 40.3372 26.8433 40.9258C26.6981 40.6796 26.4554 39.8547 26.355 39.5378L25.6716 37.3807C25.9122 37.1841 26.1444 37.0281 26.3998 36.8531L26.7476 36.6427Z" fill="#F7F7F7"/>
<path d="M26.7477 36.6427C27.1991 37.4536 27.7341 38.2245 28.1763 39.0425C28.2506 39.18 28.3332 39.3253 28.4228 39.4529C28.3363 39.5044 28.2382 39.5594 28.1557 39.6157C27.8224 39.0917 26.7833 37.114 26.3998 36.8531L26.7477 36.6427Z" fill="#F3E4E2"/>
<path d="M25.4378 37.5855L25.6716 37.3808L26.3549 39.5378C26.4554 39.8547 26.6981 40.6796 26.8433 40.9258C26.8076 40.9893 26.6593 41.2632 26.6255 41.3099C26.5274 41.1561 25.5268 37.9448 25.4378 37.5855Z" fill="#F3E4E2"/>
<path d="M13.0575 26.8778C13.1105 26.8974 13.1792 26.922 13.2043 26.9747C13.4519 27.4943 13.6456 28.0796 13.8897 28.599C14.3371 28.8477 15.0093 29.0249 15.4312 29.3035C15.4817 29.3368 15.4697 29.3846 15.4674 29.4312C15.3355 29.62 14.1726 30.0509 13.8701 30.1755C13.7106 30.5371 13.3215 31.6873 13.0978 31.8819C12.9042 31.7639 12.4316 30.5145 12.2747 30.1794C11.9985 30.0437 10.6713 29.6014 10.7233 29.3417C10.8971 29.1595 11.9587 28.7571 12.2923 28.584C12.4098 28.2928 12.9092 27.0444 13.0575 26.8778Z" fill="#1B1A1B"/>
<path d="M13.071 27.3827C13.2691 27.7079 13.4704 28.3661 13.6804 28.7585C13.9761 28.9559 14.7204 29.245 15.0688 29.3747C14.6716 29.5763 14.0804 29.7686 13.7155 30.001C13.5429 30.2646 13.2373 31.0564 13.1036 31.3841C12.8745 30.9824 12.7315 30.4176 12.4453 29.9785C12.1483 29.8037 11.4177 29.5101 11.0856 29.3739C11.4883 29.2162 12.1239 28.9858 12.4813 28.7639C12.6651 28.4146 12.9217 27.7615 13.071 27.3827Z" fill="#F7F7F7"/>
<path d="M14.201 5.43461C14.8297 5.34694 15.4102 5.78602 15.4969 6.41478C15.5837 7.04361 15.1438 7.62345 14.5149 7.70935C13.8873 7.79501 13.3088 7.35621 13.2222 6.72867C13.1356 6.10119 13.5736 5.52209 14.201 5.43461Z" fill="#E5877B"/>
<path d="M14.1644 5.74246C14.6217 5.63568 15.0785 5.92106 15.1832 6.3788C15.2878 6.83653 15.0003 7.2921 14.542 7.39458C14.0869 7.49635 13.635 7.21112 13.531 6.75643C13.4271 6.30174 13.7102 5.84853 14.1644 5.74246Z" fill="#F7F7F7"/>
<path d="M45.8426 48.2874C45.8773 48.2961 45.9399 48.3084 45.9499 48.3492C46.063 48.8105 46.1417 49.1221 46.4306 49.5054C46.648 49.7939 47.545 49.9742 47.6131 50.1134C47.4869 50.1935 47.0155 50.3238 46.8435 50.3956C46.069 50.7191 46.1498 51.3853 45.9262 51.9099C45.8955 51.8881 45.865 51.8663 45.8343 51.8444C45.7069 51.3872 45.6288 51.0245 45.3234 50.645C45.0607 50.3185 44.252 50.2804 44.1238 50.0598C44.2301 49.9218 44.796 49.879 45.0933 49.6761C45.6257 49.3129 45.6988 48.8647 45.8426 48.2874Z" fill="#F3E4E2"/>
<path d="M45.854 48.626C45.9426 48.7822 46.0293 49.0602 46.1386 49.254C46.453 49.8119 46.8293 49.9146 47.3945 50.0794C47.3648 50.0885 47.3353 50.098 47.3059 50.1078C46.1907 50.4781 46.3607 50.5802 45.9063 51.468L45.8815 51.5155C45.5011 50.5286 45.3852 50.3302 44.3259 50.0861C45.2465 49.8148 45.5825 49.6041 45.854 48.626Z" fill="#F7F7F7"/>
</svg>
