<svg width="60" height="60" viewBox="0 0 60 60" fill="none" xmlns="http://www.w3.org/2000/svg">
<g clip-path="url(#clip0_476_3696)">
<path d="M0 30C0 13.4315 13.4315 0 30 0C46.5685 0 60 13.4315 60 30C60 46.5685 46.5685 60 30 60C13.4315 60 0 46.5685 0 30Z" fill="#F7F7F7"/>
<path d="M8.50903 14.7832C9.47296 13.4559 10.6948 12.1781 11.8984 11.0617C19.8922 3.78759 31.5259 2.15313 41.2147 6.94294C42.7028 7.68749 44.1283 8.5511 45.4773 9.52523C45.698 9.6846 46.0941 10.0215 46.3692 10.0474C46.4488 10.0549 46.3981 10.028 46.4873 10.0704C46.8581 10.098 47.0328 10.0907 47.3935 10.047C51.8068 9.51251 56.0304 12.7435 57.194 16.9355C57.5375 18.1729 57.6614 19.3931 57.5622 20.668C57.3827 22.9337 56.3923 25.0587 54.7727 26.6532C54.9082 27.2514 54.9344 28.9111 54.9247 29.5679C54.8557 34.5903 53.4192 39.4991 50.7697 43.7664C49.7706 45.366 48.5758 46.8347 47.213 48.1383C47.118 48.2525 47.0891 48.2805 46.9731 48.3735C46.7373 46.7736 46.4931 45.175 46.2408 43.5777L46.0053 42.0543C45.9663 41.7937 45.9282 41.4479 45.8739 41.2002C45.0953 41.2312 44.317 41.2667 43.5389 41.3069C43.3305 41.3187 43.1147 41.3294 42.9067 41.3438C42.1757 41.3945 41.2803 41.5113 41.569 40.4295L26.6621 42.8762L20.654 43.8767C19.98 43.9872 19.3055 44.0995 18.6323 44.216C18.5037 44.2383 18.4025 44.2633 18.3006 44.2052C18.194 43.9987 17.9184 41.8904 17.8608 41.5273C17.6181 40.0414 17.3577 38.5584 17.0795 37.0788C16.9795 36.5444 16.7294 35.4443 16.6762 34.9444C16.9612 34.8619 17.4064 34.8107 17.7091 34.764C18.2369 34.682 18.7642 34.5967 19.2909 34.5079L25.8879 33.4428L35.8436 31.8398C36.83 31.6749 37.8176 31.517 38.8062 31.3659C39.2869 31.2886 39.9578 31.1573 40.43 31.115C40.6036 31.5408 40.8516 32.6007 40.9794 33.093L41.9214 36.733C42.059 37.258 42.1936 37.8645 42.3562 38.3749C42.8048 37.2095 43.2432 36.0402 43.6713 34.8671C43.8598 34.3607 44.2171 33.5068 44.3583 33.0206C44.0068 31.5958 43.5848 30.1785 43.2125 28.7582C43.1312 28.448 43.0376 28.1374 42.9426 27.8312C42.5972 27.5902 42.25 27.3271 41.9215 27.0638C39.9107 25.4524 38.5926 23.0144 38.1474 20.498C37.81 18.6579 38.0323 16.7589 38.7855 15.0465C38.9863 14.5963 39.232 14.1836 39.479 13.7582C38.8347 12.8586 37.7598 11.5273 36.5977 11.2395C36.375 11.1844 34.5612 11.4714 34.2006 11.5209L28.2334 12.3567L16.8845 13.9312C15.0158 14.1891 13.1085 14.4787 11.2414 14.7187C9.52803 14.9294 7.81217 15.1201 6.09432 15.2906C6.48596 15.4846 6.83465 15.6882 7.14631 15.9994C8.60208 17.4525 9.52862 19.9245 10.1644 21.8343C11.3446 25.3793 12.1291 29.2729 12.8044 32.9436C13.5207 36.7876 14.1486 40.6475 14.6879 44.5204C14.899 46.02 15.094 47.5219 15.273 49.0257L15.5307 51.1553C15.5903 51.64 15.6421 52.1159 15.7437 52.5946C15.8157 52.9339 15.9394 53.1862 16.0323 53.4933C15.7045 52.942 15.5427 52.5254 15.3968 51.8991C15.0985 51.7465 14.4784 51.2474 14.2006 51.0307C12.6452 49.8174 10.706 47.9876 9.59512 46.3645L5.98897 46.9443C5.40666 47.1339 4.56 47.2865 4.04389 46.8627C2.48242 46.1138 2.73732 45.2645 2.7198 43.7637L2.66126 39.9564C2.50158 32.9719 2.03465 25.6905 3.44545 18.7933C3.64172 17.8338 4.23514 15.5951 5.23123 15.233C6.08612 14.9222 7.53508 14.9449 8.50903 14.7832Z" fill="#1E1E1E"/>
<path d="M8.50903 14.7832C9.47296 13.4559 10.6948 12.1781 11.8984 11.0617C19.8922 3.78759 31.5259 2.15313 41.2147 6.94294C42.7028 7.68749 44.1283 8.5511 45.4774 9.52523C45.698 9.6846 46.0941 10.0215 46.3692 10.0474C46.4488 10.0549 46.3982 10.028 46.4873 10.0704C44.1053 10.1384 42.041 10.908 40.3771 12.6717C40.1144 12.9463 39.8679 13.236 39.6391 13.5394C38.9483 12.6056 37.8296 11.2199 36.5906 10.9652C36.3964 10.9253 34.837 11.1777 34.53 11.2191C32.2655 11.5228 30.0025 11.8389 27.7413 12.1672C21.3384 13.096 14.9274 13.9681 8.50903 14.7832Z" fill="#F3E4E2"/>
<path d="M43.2674 28.0243C44.5795 28.6822 45.6063 29.0423 47.1044 29.1373C48.0118 29.1949 48.6729 29.0783 49.5505 28.9188C49.9652 28.8435 50.3685 28.8317 50.8105 28.7277C52.4143 28.3499 53.5506 27.7308 54.7727 26.6532C54.9082 27.2514 54.9345 28.9111 54.9247 29.5679C54.8557 34.5903 53.4192 39.4991 50.7697 43.7664C49.7707 45.366 48.5759 46.8347 47.213 48.1383C47.0485 47.3399 46.9323 46.4498 46.806 45.6374L46.1286 41.1922C46.8958 41.151 47.6633 41.115 48.4311 41.0844C48.8855 41.0662 49.448 41.0743 49.89 40.9786C50.336 40.882 50.6998 40.2408 50.5081 39.8024C50.2352 39.1783 49.8844 38.5685 49.5726 37.956L47.541 33.9844C47.2658 33.4478 46.8926 32.6679 46.5546 32.1659C46.3802 31.9016 45.9677 32.1599 45.8751 32.0954C45.0349 31.5104 44.9464 31.3697 44.5044 32.6412L43.2674 28.0243Z" fill="#F3E4E2"/>
<path d="M6.61793 39.8077L6.66791 39.8027C7.10133 39.7571 7.69945 39.6316 8.14148 39.5637L11.814 38.98C12.2282 38.9128 13.2494 38.7025 13.5799 38.7308C13.7107 39.394 13.7871 40.175 13.8841 40.8533L14.5806 45.5852C13.5219 45.7665 12.4611 45.9354 11.3984 46.0919C10.8285 46.179 10.1612 46.3008 9.59514 46.3645L5.98898 46.9443C6.0218 46.8959 6.23432 46.7388 6.3082 46.6769C6.6893 46.358 6.90504 45.939 7.04016 45.4561C7.43947 44.0291 7.11264 42.3751 6.87545 40.9404C6.83021 40.6668 6.72937 40.0182 6.61793 39.8077Z" fill="#1E1E1E"/>
<path d="M5.86542 37.2029C8.26155 36.844 10.7212 36.3955 13.1079 36.0902C13.2329 36.9101 13.3775 37.7269 13.5418 38.5399L8.72198 39.3324C8.05214 39.4432 7.33331 39.5246 6.67431 39.6527C6.59983 39.7228 6.62778 39.6783 6.61794 39.8077C6.72938 40.0182 6.83022 40.6668 6.87546 40.9404C7.11265 42.3751 7.43948 44.0291 7.04017 45.4562C6.90505 45.939 6.68931 46.358 6.30821 46.677C6.23433 46.7388 6.02181 46.8959 5.98899 46.9443C5.40668 47.1339 4.56003 47.2865 4.04391 46.8628C4.42453 46.8888 4.68456 46.9897 5.09276 46.923C7.49491 46.5204 6.96036 43.3795 6.70272 41.6595C6.47866 40.1633 6.09997 38.6866 5.86542 37.2029Z" fill="#DB4431"/>
<path d="M9.59512 46.3645C10.1612 46.3008 10.8285 46.179 11.3983 46.092C12.4611 45.9354 13.5219 45.7665 14.5806 45.5852L15.0521 49.2386C15.1523 50.0602 15.2495 51.1044 15.3968 51.8991C15.0985 51.7466 14.4784 51.2475 14.2006 51.0307C12.6452 49.8174 10.706 47.9877 9.59512 46.3645Z" fill="#F3E4E2"/>
<path d="M46.2044 10.3255C48.4147 10.3284 50.5503 11.1261 52.2213 12.573C54.2607 14.3079 55.5148 16.7916 55.7001 19.4627C55.9814 23.2037 54.0718 26.8773 50.5272 28.3428C49.6748 28.6953 48.7443 28.8477 47.8288 28.9135C45.3972 28.9348 43.4109 28.1074 41.6066 26.4724C39.6522 24.6685 38.3616 21.908 38.2361 19.2493C38.0108 14.48 41.3741 10.5232 46.2044 10.3255Z" fill="#DB4431"/>
<path d="M45.9514 10.8545C47.9984 10.667 50.2392 11.5187 51.8006 12.8241C53.7543 14.4556 54.9673 16.8062 55.165 19.3439C55.3574 21.5688 54.719 23.9158 53.2659 25.6333C51.9608 27.1948 50.0827 28.1661 48.0542 28.3286C46.0085 28.4841 43.8584 27.754 42.2934 26.4361C40.2542 24.7207 38.9869 22.2599 38.7751 19.6034C38.4224 15.1314 41.3673 11.1982 45.9514 10.8545Z" fill="#1E1E1E"/>
<path d="M46.2763 11.0575C48.6263 10.8932 51.1877 12.3348 52.7054 14.0565C57.048 18.9827 54.9728 27.6335 47.7215 28.1198C45.6993 28.1413 43.7413 27.41 42.2282 26.0681C40.3168 24.3688 39.1555 21.9821 38.998 19.4293C38.738 15.3636 41.3365 11.727 45.4233 11.1418C45.714 11.1002 45.9835 11.0751 46.2763 11.0575Z" fill="#DB4431"/>
<path d="M46.0949 13.6922C46.6611 13.6757 47.2539 13.6977 47.8177 13.6891C48.8371 13.6735 49.2708 14.3978 49.0238 15.3357C48.973 15.5287 48.9207 15.8091 48.8771 16.0114L48.5351 17.6078C48.3072 18.6496 48.0588 20.0112 47.795 20.9974C47.6025 21.4185 47.1346 21.5415 46.7667 21.3167C46.4547 21.1261 46.3297 20.1179 46.2584 19.7844C46.0755 18.9462 45.9014 18.1062 45.7359 17.2645C45.5828 16.4956 45.3865 15.7347 45.2322 14.9656C45.0978 14.2957 45.4113 13.8012 46.0949 13.6922Z" fill="#1E1E1E"/>
<path d="M46.0582 13.9542C46.7619 13.9281 47.5303 13.9164 48.2291 13.9796C48.5382 14.0076 48.8964 14.5168 48.8613 14.8254C48.7934 15.4205 48.6249 16.0138 48.5067 16.6028C48.2399 17.9319 47.907 19.2535 47.6438 20.5826C47.5611 20.9705 47.4124 21.3421 46.9488 21.1343C46.7031 21.0242 46.549 19.9651 46.489 19.6841L45.9549 17.0949C45.846 16.5974 45.7344 16.1005 45.6198 15.6043C45.4794 14.9859 45.162 14.1525 46.0582 13.9542Z" fill="#FEFEFE"/>
<path d="M46.8767 22.1253C48.8174 22.0218 49.2438 24.9008 47.2335 25.3394C45.1617 25.4374 44.9597 22.4992 46.8767 22.1253Z" fill="#1E1E1E"/>
<path d="M46.8657 22.3905C47.5073 22.3321 48.0367 22.6848 48.2389 23.2965C48.365 23.6684 48.3302 24.0762 48.1427 24.4213C47.9355 24.8006 47.6631 24.9616 47.2699 25.0802C46.5598 25.1719 45.9965 24.7556 45.8357 24.0601C45.747 23.6917 45.8088 23.3032 46.0072 22.9803C46.2124 22.6539 46.4962 22.4746 46.8657 22.3905Z" fill="#FEFEFE"/>
<path d="M40.0674 31.4169C40.1606 31.4004 40.1591 31.3972 40.2515 31.4101C40.3663 31.5354 40.6375 32.7615 40.7101 33.0351L41.8596 37.449C41.9418 37.7618 42.1192 38.5286 42.2246 38.7864C42.03 39.2456 41.8599 39.7075 41.6583 40.1711L19.1255 43.8814C18.9236 43.9216 18.7022 43.9557 18.4979 43.9914C18.2656 42.7332 18.1116 41.4303 17.8903 40.1631C17.5964 38.4802 17.2606 36.8041 16.9689 35.1224C18.3587 34.8807 19.7896 34.6727 21.1848 34.4482L29.1395 33.1569L35.4856 32.1424C36.9816 31.9002 38.5735 31.6184 40.0674 31.4169Z" fill="#FEFEFE"/>
<path d="M46.1356 32.2468C46.2148 32.266 46.2906 32.2837 46.3556 32.3361C46.5102 32.4607 49.845 38.9704 50.1559 39.6313C50.2213 39.7704 50.2984 39.9129 50.3025 40.0699C50.3074 40.2599 50.237 40.4256 50.1057 40.5608C50.0302 40.6386 49.9336 40.7063 49.829 40.7379C49.3785 40.8741 47.5411 40.882 46.9526 40.9059C46.577 40.9403 46.058 40.9466 45.6716 40.9631C44.7572 41.0036 43.8425 41.0393 42.9277 41.0703C43.1252 40.4219 43.4662 39.5994 43.713 38.9467L44.9865 35.5258C45.2448 34.8249 45.4932 34.1205 45.7318 33.4126C45.8358 33.1056 46.0117 32.5177 46.1356 32.2468Z" fill="#FEFEFE"/>
<path d="M46.4681 34.6922C46.6191 34.6725 46.6651 34.6679 46.7976 34.7303C46.8774 34.818 46.9599 34.9543 47.0116 35.0679C47.6383 36.4454 48.3577 37.7934 48.9461 39.1846C48.9876 39.2883 48.9067 39.5973 48.8244 39.6561C48.4651 39.9133 47.5208 39.8579 47.0803 39.8712C46.4247 39.8727 45.7637 39.9613 45.114 39.9223C44.7833 39.9025 44.6078 39.5471 44.6939 39.2684C44.829 38.8307 45.0092 38.3786 45.1594 37.944L45.886 35.8558C45.994 35.5476 46.1085 35.1955 46.2383 34.8971C46.2758 34.8111 46.3894 34.7423 46.4681 34.6922Z" fill="#1E1E1E"/>
<path d="M46.5325 34.9004C46.6653 34.9342 46.7013 35.0188 46.7585 35.1381C47.4067 36.4912 48.0777 37.8372 48.6967 39.203C48.8209 39.4772 48.4216 39.5783 48.2281 39.579C47.8152 39.5807 47.3976 39.5971 46.9848 39.6131C46.6503 39.6278 45.2354 39.7641 45.0191 39.6293C44.9634 39.5947 44.9343 39.5165 44.9256 39.4544C44.9049 39.3071 46.3635 35.1497 46.5325 34.9004Z" fill="#FEFEFE"/>
<path d="M48.1202 10.2552C49.2479 10.2083 50.4406 10.4393 51.4867 10.8713C53.8309 11.8614 55.6872 13.7402 56.6489 16.0962C58.3115 20.1562 56.9584 25.488 52.9647 27.6527C52.6446 27.8262 52.3259 27.961 51.9899 28.0969C51.5952 28.2482 51.2695 28.36 50.8624 28.4655C50.9849 28.3881 51.1549 28.3135 51.2873 28.2463C54.0602 26.8402 55.7808 23.8816 55.9639 20.7997C56.1833 17.1054 54.3107 13.3786 51.1085 11.466C50.1313 10.8823 49.2186 10.5446 48.1202 10.2552Z" fill="#FEFEFE"/>
<path d="M45.0872 31.9213C45.4041 31.9697 45.5862 32.2052 45.8097 32.4297C45.0647 34.6117 44.2784 36.7793 43.4511 38.9315L42.8954 40.3976C42.8164 40.6058 42.7344 40.8434 42.6425 41.0452C42.6044 41.129 42.5897 41.116 42.5171 41.1345C42.2269 41.1387 41.855 41.1809 41.7372 40.8537C41.7534 40.715 41.7855 40.5786 41.8328 40.4473C41.9611 40.0826 42.1362 39.6823 42.2763 39.3162L43.2744 36.6459C43.6617 35.5671 44.0621 34.493 44.4754 33.4239C44.5958 33.1035 44.9205 32.1555 45.0872 31.9213Z" fill="#FEFEFE"/>
<path d="M17.4279 54.0659C17.7817 54.0024 18.1924 53.9612 18.5566 53.9022L21.487 53.4075L36.5718 50.9478C39.581 50.477 42.7641 50.0138 45.7537 49.4802C45.5991 49.6242 45.4991 49.6935 45.3246 49.8154C43.8393 51.0728 42.8021 51.8066 41.0488 52.7113C36.8519 54.8622 32.1361 55.794 27.4366 55.4007C25.2848 55.2125 23.1616 54.7783 21.1087 54.1067C20.9375 54.049 20.4486 53.9118 20.3215 53.8455C20.1492 53.8559 19.8165 53.9153 19.6358 53.9454C18.7772 54.0882 18.2998 54.1969 17.4279 54.0659Z" fill="#F3E4E2"/>
<path d="M17.4279 54.0659C17.7817 54.0024 18.1924 53.9612 18.5566 53.9022L21.487 53.4075L36.5718 50.9478C39.581 50.477 42.7641 50.0138 45.7537 49.4802C45.5991 49.6242 45.4991 49.6935 45.3246 49.8154C44.982 49.8332 44.2301 49.9747 43.8588 50.0369C43.0716 50.1691 42.2835 50.2963 41.4947 50.4184L32.8302 51.7966L24.2654 53.1967L21.5494 53.636C21.2358 53.6879 20.5864 53.7753 20.3215 53.8455C20.1492 53.8559 19.8165 53.9153 19.6358 53.9454C18.7772 54.0882 18.2998 54.1969 17.4279 54.0659Z" fill="#1E1E1E"/>
<path d="M18.8704 22.3512C20.8372 22.0017 22.716 23.3095 23.071 25.2753C23.4261 27.2412 22.1235 29.1236 20.1587 29.4842C18.1861 29.8463 16.2945 28.5374 15.938 26.5637C15.5815 24.59 16.8957 22.7021 18.8704 22.3512Z" fill="#1E1E1E"/>
<path d="M19.1558 22.5123C20.0275 22.491 20.8759 22.7953 21.5354 23.3658C22.299 24.0118 22.7711 24.9373 22.846 25.9347C22.9762 27.7375 21.7248 29.2156 19.9113 29.3273C18.9981 29.324 18.2227 29.1078 17.5102 28.5096C16.7289 27.8589 16.242 26.9213 16.1594 25.9078C16.0877 25.043 16.3706 24.1862 16.943 23.5341C17.5087 22.8888 18.3103 22.5621 19.1558 22.5123Z" fill="#FEFEFE"/>
<path d="M37.4865 16.4468L37.5717 16.4386C37.6891 16.5442 37.8272 17.335 37.8735 17.5511C36.0018 17.8625 34.0278 18.1148 32.1458 18.3884L20.2262 20.1023C18.2523 20.3867 16.0966 20.6397 14.1495 20.9895L14.1219 20.9782C14.0472 20.8889 13.82 20.0382 13.7741 19.866C16.8785 19.3802 20.0269 18.9489 23.139 18.5065L27.7902 17.8238C31.0256 17.3883 34.2578 16.9293 37.4865 16.4468Z" fill="#DB4431"/>
<path d="M43.145 46.3293C43.2288 46.3156 43.2239 46.3118 43.3 46.3474C43.3545 46.4297 43.3473 46.3869 43.3296 46.4784C43.2578 46.5598 43.2113 46.571 43.1041 46.5883C35.2192 47.8188 27.3452 49.119 19.4832 50.4887C19.3433 50.494 19.3093 50.5171 19.2519 50.3872L19.2795 50.3226C19.462 50.1964 20.0606 50.1379 20.3142 50.0939L22.3593 49.7452L27.8549 48.8247C32.9453 47.9551 38.0422 47.1233 43.145 46.3293Z" fill="#1E1E1E"/>
<path d="M42.6722 43.1943C42.7553 43.196 42.7828 43.2285 42.8232 43.2891L42.7957 43.3474C42.6006 43.4862 39.737 43.8977 39.3168 43.9634L25.5662 46.2087L21.1246 46.9618C20.4023 47.0831 19.58 47.24 18.8604 47.3309C18.7811 47.3152 18.7522 47.2995 18.7193 47.2351L18.7498 47.1733C18.9672 47.0181 22.093 46.5613 22.5367 46.4891L27.9071 45.5833C32.823 44.7513 37.7448 43.955 42.6722 43.1943Z" fill="#1E1E1E"/>
<path d="M38.1075 22.4218C38.2265 22.4063 38.2386 22.4008 38.3528 22.4267C38.4398 22.5002 38.4225 22.4571 38.4303 22.5492C38.3216 22.6819 37.3628 22.7844 37.1344 22.8205C36.1322 22.9776 35.1292 23.1291 34.1254 23.2753L27.3225 24.3136C27.1569 24.3508 27.1278 24.3769 26.9948 24.2661C26.9884 24.2237 26.9708 24.187 27.0047 24.1673C27.2443 24.0273 27.9979 23.9571 28.2579 23.9175L30.5137 23.5741L38.1075 22.4218Z" fill="#1E1E1E"/>
<path d="M38.9845 25.4997C39.0831 25.4868 39.1236 25.4902 39.1854 25.5624L39.1789 25.6253C39.1277 25.689 39.0692 25.7418 38.9855 25.7531C38.5825 25.8075 38.1754 25.8721 37.7743 25.9342L35.0153 26.3578L27.9065 27.4525C27.7756 27.4571 27.7396 27.476 27.6551 27.3721L27.6659 27.316C27.8096 27.1722 28.8839 27.0489 29.1714 27.0035L32.2456 26.5355C34.4684 26.1982 36.7643 25.8046 38.9845 25.4997Z" fill="#1E1E1E"/>
<path d="M39.6921 28.5749C39.8247 28.5529 39.8486 28.5407 39.9409 28.6303L39.9413 28.6966C39.8273 28.851 39.0616 28.9144 38.8269 28.9531C37.9082 29.1058 36.9883 29.2509 36.0672 29.3881L28.5714 30.575C28.4504 30.5996 28.4222 30.6108 28.3336 30.5323C28.3269 30.4611 28.3134 30.4754 28.3473 30.4266C28.3791 30.3807 28.443 30.3454 28.499 30.3373C28.8565 30.2861 29.2232 30.2303 29.579 30.1751L31.984 29.7965L39.6921 28.5749Z" fill="#1E1E1E"/>
<path d="M57.8431 7.28659C57.9418 7.30013 57.9607 7.32884 57.9864 7.41391C57.9298 7.55987 55.6561 9.40118 55.3192 9.6812C55.2135 9.65636 55.2041 9.6393 55.1598 9.55147C55.2104 9.34182 57.3035 7.77028 57.5596 7.49776C57.5947 7.46038 57.7892 7.32339 57.8431 7.28659Z" fill="#1E1E1E"/>
<path d="M53.3543 5.60431C53.3646 5.60647 53.3751 5.60807 53.3852 5.6108C53.4334 5.62368 53.5037 5.65457 53.5234 5.70412C53.578 5.84245 52.9693 8.68664 52.856 9.01371C52.7329 9.00381 52.7838 9.02549 52.692 8.9618C52.6292 8.78719 53.2484 5.89705 53.3543 5.60431Z" fill="#1E1E1E"/>
</g>
<defs>
<clipPath id="clip0_476_3696">
<rect width="60" height="60" fill="white"/>
</clipPath>
</defs>
</svg>
