<svg width="60" height="60" viewBox="0 0 60 60" fill="none" xmlns="http://www.w3.org/2000/svg">
<g clip-path="url(#clip0_476_3729)">
<path d="M29.2083 6.89548L34.8304 5.74927C34.9582 6.37927 35.0927 7.14105 35.2503 7.75716C36.3089 7.58449 37.3647 7.3947 38.4172 7.18787C38.5501 7.89744 38.6764 8.6083 38.7959 9.32027C39.7264 9.2431 41.1475 9.13265 42.0661 9.11097C42.1504 9.62267 42.2473 10.1593 42.3173 10.6711L45.6228 10.6658L45.6336 11.0056C45.7627 11.0767 46.8178 11.8156 46.9096 11.8995C47.0071 11.9498 47.1161 12.0027 47.2081 12.0606C48.4981 12.7848 49.8303 13.4386 51.0966 14.1649C50.9581 14.4095 50.1783 15.9138 50.0406 15.9564C49.9871 15.9729 49.9145 15.972 49.8581 15.9766C49.9205 16.3062 51.5966 17.9403 51.9559 18.3256C53.3703 19.8421 54.5021 21.5303 55.4758 23.3579C55.6232 23.6346 55.675 23.8659 55.7957 24.1185C56.3814 24.309 56.8535 24.4457 57.1713 25.0516C57.4977 25.6741 57.2311 26.3067 57.0382 26.9343C57.1838 27.1051 57.4349 27.8447 57.5133 28.101C59.4029 34.2848 59.1264 42.6787 53.9331 47.2533C53.1262 47.964 51.2862 49.0171 50.1984 49.0491C49.9766 49.7109 49.5084 51.5699 49.1949 52.0593C49.0416 52.2986 48.8292 52.4944 48.5782 52.6277C48.3337 52.757 48.0606 52.8225 47.7841 52.8182C47.3301 52.8082 46.1457 52.3858 45.6431 52.2302L45.6449 53.9561L26.8541 53.9667H19.7737L17.6046 53.9677C17.2976 53.9681 16.4722 53.9542 16.2032 53.9988C15.3625 54.1379 14.4628 54.3669 13.6201 54.5368C13.6261 54.356 13.6357 54.1732 13.644 53.9923L12.5963 53.9922C12.59 53.3667 12.5885 52.7412 12.5917 52.1156C11.8882 52.0477 11.0876 52.0128 10.3768 51.9731C10.4486 50.8952 10.5262 49.8177 10.6094 48.7406C10.4433 48.7772 10.3329 48.8 10.163 48.8204C10.069 48.7296 9.15508 44.1612 9.07534 43.7399C9.1313 43.6614 9.12432 43.6622 9.21409 43.6305C9.26014 43.5287 9.3751 43.4907 9.47735 43.44C9.21409 43.1219 9.10798 42.8899 8.97643 42.5048L8.92235 42.4813C8.831 42.3817 8.81319 42.2857 8.77048 42.1559C8.75231 41.9377 8.65329 41.5403 8.60911 41.3154C8.48389 40.6779 8.31977 40.0376 8.19403 39.4012L6.69221 31.9392C6.52042 31.8697 6.34581 31.6738 6.21907 31.5361C4.48353 29.6426 3.29086 27.0716 3.13615 24.4932C3.04602 22.9912 3.31805 21.2469 3.84232 19.8359C3.92115 19.6237 4.05778 19.3152 4.04995 19.0964C3.60026 16.8538 3.06851 14.5976 2.62643 12.3616C3.6798 12.178 4.78672 11.9269 5.83924 11.7076L9.98266 10.8502C10.1952 10.5303 12.2085 9.60632 12.6673 9.41203C17.2521 7.52261 22.1757 6.59378 27.1338 6.68308C27.5479 6.69105 28.9475 6.70611 29.2381 6.82388L29.2083 6.89548Z" fill="#1E1E1E"/>
<path d="M50.1984 49.0491C50.3695 48.2824 50.8074 47.0076 51.044 46.2309L52.7547 40.689L57.0382 26.9343C57.1838 27.1051 57.4349 27.8447 57.5133 28.101C59.4029 34.2849 59.1264 42.6787 53.9331 47.2533C53.1262 47.964 51.2862 49.0171 50.1984 49.0491Z" fill="#F3E4E2"/>
<path d="M45.6336 11.0056C45.7627 11.0767 46.8178 11.8156 46.9096 11.8995C47.0071 11.9499 47.1161 12.0027 47.2082 12.0607C48.4982 12.7848 49.8303 13.4387 51.0966 14.1649C50.9581 14.4095 50.1783 15.9138 50.0406 15.9564C49.9871 15.973 49.9145 15.972 49.8581 15.9767C49.9205 16.3062 51.5966 17.9404 51.956 18.3256C53.3703 19.8421 54.5021 21.5303 55.4758 23.3579C55.6232 23.6346 55.675 23.8659 55.7957 24.1185C54.8281 23.8371 53.8987 23.5393 52.9383 23.2498L45.6299 21.0176C45.6204 20.5774 45.6223 20.1233 45.627 19.682C45.6581 16.7974 45.5727 13.8871 45.6336 11.0056Z" fill="#F3E4E2"/>
<path d="M46.9096 11.8995C47.0071 11.9499 47.1161 12.0027 47.2082 12.0607C48.4982 12.7848 49.8303 13.4387 51.0966 14.1649C50.9581 14.4095 50.1783 15.9139 50.0407 15.9564C49.9871 15.973 49.9146 15.972 49.8581 15.9767C49.2257 16.0674 48.1177 16.2164 47.515 16.3599C47.4795 16.3701 47.4244 16.381 47.3891 16.389L47.3535 16.3515C47.2418 15.4438 47.1699 14.4993 47.0537 13.5856C47.0082 13.2274 46.8907 12.1886 46.9096 11.8995Z" fill="#F7F7F7"/>
<path d="M51.0966 14.1649C50.9581 14.4095 50.1783 15.9138 50.0406 15.9564C49.9871 15.9729 49.9145 15.972 49.8581 15.9766C49.2257 16.0674 48.1176 16.2163 47.515 16.3598L47.5127 16.2586C48.1163 15.693 48.9893 15.0104 49.5143 14.4647C49.7927 14.4932 50.785 14.2476 51.0966 14.1649Z" fill="#DB4431"/>
<path d="M46.9096 11.8995C47.0071 11.9499 47.1161 12.0027 47.2082 12.0607C48.4982 12.7848 49.8303 13.4387 51.0966 14.1649C50.785 14.2476 49.7927 14.4932 49.5144 14.4648L47.8358 12.8833C47.6213 12.685 47.2952 12.3674 47.0723 12.2028C47.1546 13.1023 47.2485 14.0006 47.354 14.8977C47.3997 15.3001 47.448 15.8717 47.5127 16.2586L47.515 16.3599C47.4795 16.3701 47.4244 16.381 47.3891 16.389L47.3535 16.3515C47.2418 15.4438 47.1699 14.4993 47.0537 13.5856C47.0082 13.2274 46.8907 12.1886 46.9096 11.8995Z" fill="#1E1E1E"/>
<path d="M9.98267 10.8501C10.1952 10.5303 12.2085 9.60631 12.6673 9.41201C17.2521 7.5226 22.1757 6.59377 27.1338 6.68306C27.5479 6.69103 28.9475 6.70609 29.2381 6.82386L29.2083 6.89547L17.5318 9.28322C15.0964 9.79914 12.4222 10.4247 9.98267 10.8501Z" fill="#F3E4E2"/>
<path d="M4.04995 19.0964C4.31479 20.5173 4.6475 21.9784 4.94748 23.3941L6.26067 29.8838C6.39661 30.5673 6.56472 31.2584 6.69222 31.9392C6.52042 31.8698 6.34581 31.6739 6.21907 31.5362C4.48354 29.6427 3.29086 27.0716 3.13615 24.4932C3.04603 22.9913 3.31805 21.2469 3.84232 19.8359C3.92115 19.6237 4.05778 19.3153 4.04995 19.0964Z" fill="#F3E4E2"/>
<path d="M8.97644 42.5048C8.95575 42.3668 8.9319 42.3674 8.98142 42.2656C9.32612 42.1656 10.2519 42.0039 10.6293 41.9456C10.7655 42.5278 10.9552 43.419 11.023 44.0126C10.4648 44.1124 9.90872 44.2231 9.35489 44.3447C9.30638 44.107 9.25944 43.8689 9.21409 43.6305C9.26015 43.5287 9.37511 43.4907 9.47735 43.44C9.21409 43.1219 9.10798 42.8899 8.97644 42.5048Z" fill="#F7F7F7"/>
<path d="M12.8956 10.8475C14.3813 10.8088 16.0125 10.8398 17.5046 10.8399L25.9276 10.8385L45.4711 10.8378C45.508 12.7954 45.4731 14.8834 45.4724 16.852L45.4781 32.6149L45.4853 39.5029C45.4553 44.2704 45.4558 49.038 45.487 53.8055L12.7489 53.8168L12.8956 10.8475Z" fill="#F7F7F7"/>
<path d="M17.7158 37.7011C19.2711 37.5592 20.6473 38.7042 20.7907 40.2594C20.934 41.8146 19.7903 43.1919 18.2353 43.3367C16.6781 43.4817 15.2987 42.3361 15.1551 40.7788C15.0116 39.2216 16.1584 37.8432 17.7158 37.7011Z" fill="#1E1E1E"/>
<path d="M17.6025 37.8801C19.0707 37.6752 20.4243 38.7066 20.6163 40.1765C20.8083 41.6464 19.765 42.991 18.2934 43.17C16.8401 43.3468 15.5159 42.3192 15.3263 40.8675C15.1367 39.4158 16.1525 38.0826 17.6025 37.8801Z" fill="#F7F7F7"/>
<path d="M17.6404 45.7709C19.1803 45.5883 20.5763 46.6898 20.757 48.2299C20.9377 49.7701 19.8345 51.1647 18.2941 51.3436C16.7564 51.522 15.3647 50.4212 15.1843 48.8837C15.0039 47.3462 16.103 45.9531 17.6404 45.7709Z" fill="#1E1E1E"/>
<path d="M17.8421 45.9203C19.2957 45.8486 20.5333 46.9664 20.6096 48.4197C20.6859 49.8731 19.5721 51.1143 18.1191 51.1953C16.6593 51.2767 15.4112 50.1567 15.3346 48.6967C15.2579 47.2367 16.3819 45.9922 17.8421 45.9203Z" fill="#F7F7F7"/>
<path d="M26.9527 26.9539L28.7533 26.9522C29.2881 26.952 29.739 26.9383 30.2725 27.0226C31.5326 27.2216 31.8582 28.7655 31.0351 29.6273C30.367 30.1431 29.3705 30.0617 28.5563 30.0612C28.0214 30.0623 27.4863 30.0594 26.9514 30.0528C26.9367 29.0316 26.9514 27.9776 26.9527 26.9539Z" fill="#F7F7F7"/>
<path d="M35.8338 27.0557C35.9521 27.1682 37.5524 30.1947 37.7104 30.5554L35.9326 30.5623C35.3014 30.5668 34.6703 30.564 34.0392 30.5537C34.1955 30.1674 34.5561 29.5233 34.7616 29.1321L35.8338 27.0557Z" fill="#F7F7F7"/>
<path d="M15.3823 23.6238C16.2745 23.6624 17.3554 23.6368 18.2588 23.6369L23.3635 23.637L39.3874 23.6333C40.2835 23.6341 42.0133 23.6125 42.9861 23.6485C43.015 23.6496 43.0242 23.745 43.0338 23.7891C41.8266 23.8068 40.5697 23.7846 39.3579 23.7854L31.1944 23.7877L15.9118 23.7932C15.806 23.7926 15.4512 23.8062 15.3879 23.7624L15.3823 23.6238Z" fill="#1E1E1E"/>
<path d="M15.3316 34.9285C15.513 34.9008 15.924 34.9094 16.1233 34.9099L17.41 34.9135L22.0119 34.9139L38.7649 34.9131C39.1662 34.9131 43.2411 34.8887 43.3364 34.9387L43.3675 35.0588C42.7526 35.1015 41.6749 35.0647 41.0187 35.0641L36.3401 35.0603L21.459 35.0622C19.9883 35.0614 16.9932 35.0726 15.4065 35.053C15.3765 35.0526 15.3511 34.971 15.3316 34.9285Z" fill="#1E1E1E"/>
<path d="M22.5818 40.6994C23.797 40.6629 25.2713 40.7062 26.5098 40.7079L34.0376 40.7047L40.1773 40.7045C41.1177 40.7045 42.3923 40.664 43.3024 40.7103L43.378 40.8L43.299 40.8512C42.7987 40.8854 42.034 40.8629 41.5198 40.8628L38.1315 40.8617L27.9692 40.8675C27.5525 40.8674 22.7376 40.8904 22.6191 40.8415L22.5818 40.6994Z" fill="#1E1E1E"/>
<path d="M35.6573 42.5537L40.6948 42.5579C41.4441 42.5584 42.5862 42.5187 43.2915 42.5632C43.3644 42.6152 43.3434 42.5814 43.3606 42.6655L43.3246 42.7024C42.8639 42.7378 42.2138 42.716 41.7413 42.7149L39.0298 42.7122L30.3369 42.7105L25.3025 42.7133C24.9226 42.7134 22.8788 42.7584 22.6467 42.6583L22.6518 42.62C22.9065 42.516 23.9486 42.5592 24.2813 42.5592L27.0941 42.5583L35.6573 42.5537Z" fill="#1E1E1E"/>
<path d="M22.5847 38.8539L38.9163 38.8601C40.0871 38.8593 42.0333 38.8512 43.2855 38.8724C43.3228 38.873 43.339 38.9379 43.3622 38.9869C43.1791 39.0468 42.3058 39.0172 42.0586 39.0168L39.0838 39.0125L26.2591 39.0124C25.863 39.0121 22.6967 39.0402 22.6015 38.9883L22.5847 38.8539Z" fill="#1E1E1E"/>
<path d="M22.5881 47.3519C24.2583 47.3519 43.2274 47.2914 43.3486 47.3629L43.3807 47.4896L22.6488 47.5047C22.5956 47.4585 22.6076 47.4378 22.5881 47.3519Z" fill="#1E1E1E"/>
<path d="M22.609 49.1987L36.7611 49.1995L41.2612 49.2002C41.7735 49.2004 42.8668 49.1612 43.3353 49.2027L43.3672 49.2477L43.3487 49.3533L28.2748 49.3487C26.5339 49.3502 24.7932 49.3474 23.0525 49.3636C22.9462 49.3646 22.7002 49.3793 22.6229 49.3204L22.609 49.1987Z" fill="#1E1E1E"/>
<path d="M19.8409 16.3894C20.9518 16.3661 31.9191 16.3538 32.0662 16.4121C32.1042 16.4272 32.1178 16.501 32.1319 16.5384C31.96 16.567 31.3231 16.5533 31.1147 16.5523L29.2193 16.5472L22.0834 16.5484C21.7948 16.5488 19.9608 16.5723 19.8638 16.523L19.8409 16.3894Z" fill="#1E1E1E"/>
<path d="M26.9478 14.1876C28.0734 14.1843 38.951 14.1655 39.0765 14.2284L39.1066 14.349C36.6576 14.3774 34.1483 14.3507 31.6962 14.3505L28.3309 14.3475C27.9868 14.3476 27.3415 14.4011 26.988 14.324C26.9545 14.3167 26.9539 14.2283 26.9478 14.1876Z" fill="#1E1E1E"/>
<path d="M15.381 14.1852C17.9857 14.2151 22.8817 14.1752 25.7347 14.1912C25.749 14.2023 25.7634 14.2135 25.7777 14.2247L25.7879 14.3437C23.9775 14.3973 21.9473 14.3503 20.1243 14.3499L16.6617 14.3457C16.4361 14.3446 15.5391 14.3979 15.399 14.304L15.381 14.1852Z" fill="#1E1E1E"/>
<path d="M37.0586 16.3914C38.4536 16.3819 41.4608 16.371 42.9935 16.4002C43.0068 16.4112 43.0202 16.4223 43.0335 16.4333L42.9847 16.4962C42.9053 16.535 42.8824 16.5525 42.7924 16.5499L42.5244 16.5421L38.6528 16.5437C38.3504 16.5438 36.7192 16.5885 36.5928 16.4833L36.6182 16.4376C36.7628 16.3689 36.895 16.3884 37.0586 16.3914Z" fill="#1E1E1E"/>
<path d="M24.3196 18.6038C24.62 18.5841 25.0566 18.5986 25.3731 18.5986L27.3927 18.5988L29.626 18.604C29.8202 18.6049 30.4524 18.5507 30.5544 18.6597L30.5446 18.7664C30.0256 18.7447 29.4335 18.7694 28.9072 18.7618C27.4168 18.7403 25.8924 18.7936 24.4054 18.7666C24.3279 18.7156 24.3517 18.7231 24.3196 18.6038Z" fill="#1E1E1E"/>
<path d="M32.1716 18.6014L36.3931 18.6021L37.6865 18.6072C37.8555 18.6074 38.2401 18.5508 38.3446 18.66L38.3375 18.7697C37.5978 18.7667 32.311 18.8106 32.1841 18.741L32.1716 18.6014Z" fill="#1E1E1E"/>
<path d="M29.7073 20.8708C30.2071 20.8688 34.0834 20.8321 34.2364 20.9063L34.2671 21.0349C33.727 21.026 29.8408 21.0756 29.7204 20.9981L29.7073 20.8708Z" fill="#1E1E1E"/>
<path d="M23.9936 20.8691C25.2914 20.8693 26.7357 20.836 28.0225 20.8703C28.0903 20.9206 28.0695 20.9229 28.089 21.0357C27.6358 21.0356 24.0812 21.0633 24.0037 21.0061L23.9936 20.8691Z" fill="#1E1E1E"/>
<path d="M39.9825 18.6071C40.3694 18.581 42.8573 18.5481 42.9933 18.6397L42.9989 18.7626C42.1173 18.7779 40.9434 18.7919 40.0665 18.7646C39.9973 18.719 40.0144 18.7089 39.9825 18.6071Z" fill="#1E1E1E"/>
<path d="M19.812 18.6081C20.0748 18.5918 22.507 18.5807 22.6067 18.6324L22.6381 18.764C21.9092 18.8044 20.6263 18.7798 19.877 18.7681C19.8136 18.7191 19.8321 18.7121 19.812 18.6081Z" fill="#1E1E1E"/>
<path d="M15.3582 18.6077C15.4921 18.5956 15.6711 18.6002 15.8075 18.6017C16.5451 18.6103 17.2938 18.5758 18.03 18.6025C18.0953 18.6489 18.0763 18.6575 18.0977 18.7641C17.3426 18.7861 16.1762 18.7915 15.4313 18.7628C15.3633 18.7168 15.3833 18.7147 15.3582 18.6077Z" fill="#1E1E1E"/>
<path d="M39.989 14.2168C40.2355 14.1879 42.9074 14.185 42.9982 14.2265L43.0301 14.3391C42.5004 14.4049 40.7034 14.3249 40.0664 14.3501C40.0139 14.3522 40.0091 14.2809 39.989 14.2168Z" fill="#1E1E1E"/>
<path d="M16.449 16.3918C16.8597 16.3878 17.6882 16.3588 18.0482 16.4138L18.0762 16.4956L18.0647 16.4186L18.0584 16.5071C17.8691 16.5852 17.1899 16.5511 16.9482 16.5498C16.4555 16.5522 15.9342 16.5676 15.4433 16.5392C15.3892 16.5361 15.4089 16.5388 15.3677 16.4886L15.4037 16.4406C15.5621 16.3568 16.2316 16.3912 16.449 16.3918Z" fill="#1E1E1E"/>
<path d="M33.7063 16.4112C33.9021 16.3815 34.652 16.3648 34.8625 16.4215C34.9015 16.432 34.9042 16.4892 34.9221 16.546C34.6316 16.5641 34.0853 16.5817 33.7903 16.5335C33.7369 16.5248 33.74 16.4859 33.7063 16.4112Z" fill="#1E1E1E"/>
<path d="M34.6188 5.95561C34.641 5.95074 34.6683 5.95842 34.6938 5.96228C34.7552 6.0991 34.8945 6.85807 34.9376 7.05295C35.1357 7.94803 35.3014 8.86977 35.5242 9.75934C36.9991 9.61994 38.4757 9.49895 39.9536 9.39629C40.5895 9.3551 41.3078 9.29563 41.9382 9.28361L42.1612 10.6719L12.7289 10.6837C12.7491 12.2437 12.759 13.9337 12.7194 15.4909C12.3496 15.5945 11.779 15.7033 11.3953 15.7851L9.07653 16.2768C9.26473 17.4136 9.54698 18.6862 9.78662 19.8107L10.299 22.3246C11.107 22.1639 11.9136 21.9963 12.7188 21.8219C12.7263 24.0548 12.4628 26.4388 12.2793 28.6805C12.0504 31.7617 11.7928 34.8408 11.5065 37.9173C11.3987 39.1818 11.3003 40.4472 11.2114 41.7131C11.1879 42.009 11.1333 42.9756 11.0586 43.2116C10.9995 43.0681 11.0181 42.9737 10.9874 42.8253L10.5728 40.8896L9.15844 33.9411L4.63046 12.1192L34.6188 5.95561Z" fill="#F7F7F7"/>
<path d="M45.6213 21.1574L53.6944 23.6304C54.2323 23.8019 54.7713 23.9695 55.3115 24.1334C55.9688 24.3327 56.6577 24.4317 57.0175 25.0903C57.3828 25.759 57.0033 26.5596 56.7949 27.2437L55.9305 30.0168L53.0267 39.3226C52.0958 42.2461 51.1935 45.1787 50.3199 48.1199L49.6301 50.4545C49.411 51.195 49.2564 52.1216 48.5093 52.4942C48.2662 52.6138 47.9968 52.6696 47.7262 52.6565C47.2849 52.6347 46.1151 52.2243 45.631 52.0712C45.6242 51.5023 45.6216 50.9333 45.623 50.3644C45.9344 50.4587 46.2448 50.5563 46.554 50.6572C46.806 50.7417 47.0754 50.862 47.3381 50.9029C47.4414 50.919 47.556 50.9259 47.6518 50.8772C47.8117 50.796 48.0036 50.034 48.0346 49.8472C48.0536 49.7327 48.0703 49.5541 47.9827 49.4606C47.7934 49.2588 45.9987 48.7667 45.6183 48.6128C45.6148 47.9191 45.615 47.2253 45.6191 46.5316C45.7101 46.6115 45.7949 46.6719 45.9064 46.7204C46.2097 46.8522 48.302 47.5557 48.4866 47.5493C48.5625 47.5466 48.6333 47.523 48.6883 47.4683C48.8146 47.3425 49.0544 46.4478 49.0328 46.2633C49.02 46.1544 48.9681 46.1002 48.8791 46.0401C48.5894 45.8442 46.4311 45.1472 46.11 45.1432C45.8128 45.2515 45.7243 45.9198 45.6331 46.213C45.586 45.2182 45.6122 43.9003 45.6199 42.8865C46.1775 43.0512 46.1637 42.8894 46.3284 42.3612C46.6091 41.4607 46.4437 41.4418 45.6252 41.2237C45.6265 40.8857 45.6489 40.1684 45.6212 39.8491C45.6249 39.7399 45.6216 39.7078 45.6558 39.6013C45.7556 39.5873 50.8927 41.2346 51.5453 41.3978C51.6382 41.0136 51.7836 40.5898 51.8945 40.202C52.2655 38.8968 52.66 37.5984 53.0779 36.3075C51.2144 35.8045 49.3345 35.1197 47.4738 34.5883C47.1257 34.4888 45.9131 34.0724 45.6312 34.049C45.618 33.4257 45.6013 32.7767 45.6576 32.1564C45.6813 31.8951 45.8341 31.5814 45.8492 31.3084C45.8654 31.0164 45.8654 30.9644 45.6155 30.8203L45.6229 28.9158C45.9025 29.0249 46.1835 29.1726 46.4743 29.0721C46.7003 28.8526 46.9722 27.8793 46.8406 27.5861C46.6488 27.4244 45.9059 27.2509 45.6225 27.1683V25.1787C46.0388 25.3119 47.1679 25.7437 47.5083 25.6204C47.6819 25.465 48.0411 24.3915 47.9009 24.1478C47.7192 24.0018 45.9516 23.4792 45.619 23.3707C45.6156 22.6329 45.6164 21.8952 45.6213 21.1574Z" fill="#4CB542"/>
<path d="M47.5782 27.8C47.8533 27.7928 49.8252 28.4578 50.2224 28.5565C50.3088 28.5781 50.47 28.6707 50.5472 28.7302C50.7102 29.0173 50.325 30.0181 50.1181 30.2551C49.7426 30.2947 48.0829 29.5991 47.5919 29.5228C47.5047 29.5092 47.2321 29.3859 47.1546 29.3368C46.984 29.0317 47.2901 27.9945 47.5782 27.8Z" fill="#1E1E1E"/>
<path d="M47.6282 27.9169C47.8376 27.9575 48.5543 28.1881 48.7941 28.2674C49.165 28.3899 50.0681 28.6141 50.3638 28.7674C50.5615 28.9908 50.2315 29.9487 50.0596 30.1099C49.7329 30.0528 47.4496 29.3641 47.2501 29.2267C47.1581 28.997 47.4464 28.0917 47.6282 27.9169Z" fill="#F7F7F7"/>
<path d="M48.6295 24.3437C49.0522 24.3132 51.0309 25.0472 51.5403 25.2261C51.7505 25.3 51.4183 26.1555 51.3859 26.3077C51.3419 26.5141 51.2754 26.6245 51.1018 26.7531C50.6944 26.8169 48.9813 26.1232 48.4627 26.0099C48.1939 25.9609 48.0515 25.6942 48.1574 25.4458C48.3171 25.0711 48.274 24.5723 48.6295 24.3437Z" fill="#1E1E1E"/>
<path d="M48.6646 24.4579C48.9212 24.4973 51.2246 25.2022 51.4319 25.346C51.5348 25.571 51.2241 26.4495 51.0415 26.6244C50.8818 26.6447 48.5251 25.9126 48.3048 25.79C48.2027 25.5679 48.4918 24.633 48.6646 24.4579Z" fill="#F7F7F7"/>
<path d="M46.5837 31.1719C46.8845 31.1874 49.2335 31.9167 49.4915 32.0973C49.6194 32.2996 49.4085 32.7711 49.3513 32.9954C49.2861 33.2512 49.2427 33.4574 49.0253 33.6249C48.8188 33.6267 46.2802 32.786 46.1252 32.6609C45.9801 32.3193 46.2644 31.8252 46.3193 31.4502C46.3397 31.3106 46.4632 31.2308 46.5837 31.1719Z" fill="#1E1E1E"/>
<path d="M46.562 31.3126C46.7995 31.2982 49.23 32.0471 49.3736 32.2202C49.4351 32.2943 49.1527 33.2391 49.0354 33.4443C48.8103 33.4656 46.4592 32.7175 46.254 32.5967C46.1333 32.396 46.4193 31.4983 46.562 31.3126Z" fill="#F7F7F7"/>
<path d="M51.2929 28.8889C51.4171 28.904 51.7257 28.9886 51.8386 29.038C52.34 29.2571 53.7459 29.5019 54.1141 29.8196C54.2546 30.1051 54.1498 30.2779 54.0514 30.5581C53.9497 30.8478 53.9676 31.1291 53.6958 31.3217C53.6855 31.3217 53.6753 31.3218 53.665 31.3216C53.3728 31.3161 50.9151 30.5855 50.8075 30.4235C50.7556 30.3453 50.7682 30.1997 50.783 30.113C50.8446 29.7522 50.9938 29.1041 51.2929 28.8889Z" fill="#1E1E1E"/>
<path d="M51.3018 29.0227C51.5489 29.0606 53.7931 29.7816 53.9954 29.9007C54.1154 30.0728 53.7798 31.0306 53.6336 31.1783C53.4681 31.1842 53.2741 31.1194 53.1122 31.0669C52.4218 30.8426 51.7147 30.6629 51.0338 30.4144C50.7066 30.2951 51.1776 29.1924 51.3018 29.0227Z" fill="#F7F7F7"/>
<path d="M50.2406 32.2832C50.5411 32.3211 52.8151 33.0237 53.0422 33.1896C53.1685 33.446 53.0345 33.6704 52.956 33.9206C52.854 34.2457 52.8715 34.4819 52.5755 34.6943C52.3362 34.7298 49.9394 33.98 49.7636 33.805C49.6295 33.4668 49.908 33.0355 49.9609 32.677C49.9894 32.4832 50.0795 32.3806 50.2406 32.2832Z" fill="#1E1E1E"/>
<path d="M50.2235 32.4223C50.5184 32.4496 52.8174 33.1541 52.9269 33.3181C52.9474 33.5462 52.7045 34.378 52.5634 34.5475C52.3749 34.563 49.9606 33.8871 49.8706 33.6695C49.8281 33.5667 50.1077 32.5915 50.2235 32.4223Z" fill="#F7F7F7"/>
<path d="M52.364 25.4625C52.8715 25.5687 53.4203 25.7864 53.9311 25.9248C54.1354 25.9801 54.9883 26.207 55.0856 26.3834C55.2313 26.6474 54.9264 27.2829 54.8801 27.5715C54.8539 27.7285 54.7074 27.8426 54.5718 27.9104C54.038 27.7344 53.5023 27.564 52.9647 27.3993C52.7737 27.3403 51.7999 27.1005 51.7807 26.8903C51.7472 26.5247 51.9705 25.9896 52.0907 25.6352C52.125 25.5343 52.2717 25.4874 52.364 25.4625Z" fill="#1E1E1E"/>
<path d="M52.2876 25.5945C52.5828 25.6285 54.7092 26.2887 54.9401 26.4346C55.0525 26.6553 54.7662 27.5665 54.606 27.752C54.2153 27.7083 53.5623 27.42 53.1545 27.3213C52.9297 27.2669 52.0235 26.9956 51.9323 26.8608C51.8982 26.5578 52.1279 25.8298 52.2876 25.5945Z" fill="#F7F7F7"/>
<path d="M47.165 41.7723C47.1764 41.7722 47.1878 41.7714 47.1991 41.772C47.4789 41.7837 49.8865 42.52 50.0106 42.6814C50.0946 42.7906 50.0917 42.9367 50.0698 43.0664C50.0228 43.3442 49.8703 43.9316 49.6501 44.0944C49.1107 44.1413 47.6357 43.5304 47.0457 43.3934C46.52 43.2714 46.7337 42.7854 46.8405 42.4311C46.9176 42.1754 46.9321 41.9524 47.165 41.7723Z" fill="#1E1E1E"/>
<path d="M47.1771 41.916C47.4352 41.9027 49.6654 42.5999 49.8836 42.7602C50.0064 42.9532 49.7421 43.7862 49.5935 43.9379C49.4563 43.9713 49.299 43.94 49.1715 43.8934C48.7726 43.7477 46.9875 43.3381 46.8388 43.0767C46.8287 42.8419 47.069 42.1389 47.1771 41.916Z" fill="#F7F7F7"/>
<path d="M12.6599 15.6823L12.6898 15.6858C12.7436 15.7868 12.7233 17.9908 12.7232 18.2914C12.3716 18.3559 12.0127 18.4389 11.6626 18.515C11.6084 18.2688 11.5349 17.7251 11.4346 17.5283L11.3824 17.5171C11.2466 17.6375 11.359 17.8595 11.3957 18.0397L11.7085 19.5606C11.7533 19.7831 11.753 20.0911 11.9011 20.252L11.9469 20.2537C12.0185 20.0986 11.7479 18.9579 11.6931 18.6757C12.032 18.6015 12.3763 18.5202 12.7188 18.4683L12.721 20.9692L12.7192 21.6634C11.954 21.8268 11.1877 21.9852 10.4204 22.1386L9.83533 19.2473C9.63998 18.3004 9.42763 17.35 9.26404 16.3977C9.574 16.3082 10.0808 16.2209 10.4129 16.1512L12.6599 15.6823Z" fill="#F7F7F7"/>
<path d="M38.2201 7.39386L38.2701 7.40265C38.3315 7.5479 38.5976 9.1038 38.6324 9.33618C37.7693 9.37474 36.6135 9.48566 35.7492 9.57419L35.6659 9.56529C35.5655 9.41364 35.3342 8.17808 35.2849 7.91476C36.2572 7.74413 37.2477 7.54919 38.2201 7.39386Z" fill="#F7F7F7"/>
<path d="M4.42641 12.1671L4.44791 12.1721C4.53564 12.2832 4.93546 14.3466 4.99882 14.661C4.56626 14.7708 3.84345 14.9215 3.41215 14.9895L3.35456 14.9773C3.29667 14.8105 3.18426 14.2415 3.14297 14.0391C3.0416 13.542 2.905 12.9929 2.82596 12.4969C3.35247 12.4002 3.90066 12.277 4.42641 12.1671Z" fill="#F7F7F7"/>
<path d="M46.1354 45.2557C46.3727 45.2838 48.7071 46.0576 48.8498 46.1716C48.9309 46.3875 48.7044 47.2584 48.5228 47.4066C48.3679 47.4041 48.0884 47.31 47.935 47.2506C47.2434 46.9823 46.482 46.8256 45.8183 46.5051C45.6484 46.4231 45.9841 45.4034 46.1354 45.2557Z" fill="#F7F7F7"/>
<path d="M9.71308 37.7715C9.74085 37.7727 9.72023 37.7703 9.76921 37.7985C9.91499 38.4192 10.0396 39.086 10.1676 39.7134C9.68279 39.8321 9.06457 39.9388 8.56611 40.0406L8.53816 40.038C8.45748 39.9525 8.1546 38.3201 8.10632 38.0873L9.71308 37.7715Z" fill="#F7F7F7"/>
<path d="M8.86747 33.6439L8.89853 33.6427C8.96486 33.7086 9.27441 35.3726 9.31349 35.5789C8.82493 35.6526 8.26847 35.7697 7.77031 35.8548C7.73521 35.8617 7.71997 35.857 7.68312 35.8544C7.57777 35.6823 7.31978 34.2021 7.27765 33.9251C7.80646 33.8251 8.33644 33.7313 8.86747 33.6439Z" fill="#F7F7F7"/>
<path d="M4.96296 14.8323L5.00857 14.8303C5.0853 14.9117 5.39207 16.5368 5.43934 16.7684C4.91759 16.886 4.39367 16.9937 3.86786 17.0915C3.86271 17.0903 3.85697 17.0906 3.85241 17.0879C3.72758 17.0147 3.43732 15.4257 3.38165 15.1631C3.88324 15.0784 4.44918 14.9343 4.96296 14.8323Z" fill="#F7F7F7"/>
<path d="M8.42647 31.5314L8.4812 31.5475C8.60793 31.948 8.78266 32.9837 8.89733 33.4699C8.41059 33.5395 7.79571 33.6753 7.30288 33.7692L7.27668 33.7706C7.16946 33.6791 6.89448 32.0997 6.84192 31.8276L8.42647 31.5314Z" fill="#F7F7F7"/>
<path d="M5.75087 19.0531C5.82818 19.0396 5.80869 19.0429 5.88884 19.0491C5.97474 19.1946 6.25916 20.6919 6.31324 20.9503C5.81356 21.0478 5.31309 21.1412 4.81189 21.2306L4.70008 21.2413C4.58476 21.1577 4.30545 19.5415 4.25925 19.3193C4.74724 19.2573 5.25029 19.127 5.75087 19.0531Z" fill="#F7F7F7"/>
<path d="M7.96788 29.4524C8.01827 29.4476 7.99243 29.4433 8.04364 29.4731C8.13804 29.7354 8.38389 31.0179 8.4596 31.3598C7.96665 31.4732 7.39548 31.5664 6.89333 31.6571L6.83983 31.6543C6.75171 31.5517 6.45575 30.022 6.39938 29.7511C6.90159 29.642 7.45911 29.5485 7.96788 29.4524Z" fill="#F7F7F7"/>
<path d="M7.49853 27.3736C7.58777 27.3531 7.54605 27.3464 7.62697 27.3758C7.76162 27.8488 7.91771 28.7705 8.01902 29.2843C7.51289 29.367 7.01209 29.4688 6.50443 29.5487C6.41613 29.5707 6.45797 29.5763 6.37617 29.5488C6.25757 29.1596 6.06673 28.077 5.98892 27.6408C6.48673 27.5629 7.00125 27.4632 7.49853 27.3736Z" fill="#F7F7F7"/>
<path d="M10.1612 39.8835L10.1747 39.8915C10.239 39.9926 10.5485 41.5532 10.5971 41.7842C10.085 41.8663 9.49125 41.9978 8.97351 42.0987C8.86998 41.9639 8.60291 40.5101 8.5459 40.2216C9.03574 40.0903 9.65607 39.9829 10.1612 39.8835Z" fill="#F7F7F7"/>
<path d="M5.42029 16.9419L5.46784 16.9621C5.58105 17.2913 5.78767 18.4469 5.87738 18.8577L4.28016 19.1677L4.25908 19.1598C4.18485 19.0708 3.88489 17.4937 3.83563 17.269C4.3528 17.154 4.89914 17.0501 5.42029 16.9419Z" fill="#F7F7F7"/>
<path d="M6.32392 21.1074C6.42623 21.3139 6.67039 22.7352 6.7315 23.0394C6.19484 23.1254 5.65743 23.235 5.11302 23.3217C4.96657 22.8155 4.7959 21.9494 4.69168 21.42C5.20952 21.3069 5.80168 21.2054 6.32392 21.1074Z" fill="#F7F7F7"/>
<path d="M7.174 25.2667C7.23206 25.328 7.55544 26.9809 7.59863 27.1899C7.06232 27.29 6.52478 27.3835 5.98619 27.4704C5.89742 27.4045 5.60486 25.8065 5.56161 25.5893C5.97581 25.4789 6.74087 25.3456 7.174 25.2667Z" fill="#F7F7F7"/>
<path d="M6.65508 23.2129L6.7326 23.2078C6.82588 23.2935 7.11083 24.8808 7.1519 25.0938C6.66874 25.215 6.15235 25.304 5.66082 25.3968L5.56613 25.4055C5.47916 25.3468 5.44075 25.0318 5.41873 24.9161C5.32784 24.4387 5.2375 23.9624 5.13721 23.4868C5.6262 23.4154 6.16811 23.3044 6.65508 23.2129Z" fill="#F7F7F7"/>
<path d="M9.23878 35.7511L9.29884 35.7455C9.39751 35.8553 9.678 37.3559 9.72464 37.6098L8.18058 37.9143L8.10997 37.9219C8.02917 37.828 7.7461 36.2862 7.68845 36.0311C8.20671 35.9462 8.72356 35.8528 9.23878 35.7511Z" fill="#F7F7F7"/>
<path d="M45.6259 48.7615C46.053 48.9158 47.4961 49.3273 47.875 49.5798C47.9866 49.6541 47.7181 50.4336 47.6518 50.6465C47.6207 50.6947 47.6144 50.7188 47.5617 50.7462C47.3563 50.8526 45.9471 50.3176 45.6299 50.2193L45.6259 48.7615Z" fill="#F7F7F7"/>
<path d="M45.6268 23.5252C46.0864 23.6729 46.5468 23.8179 47.008 23.9604C47.2609 24.0383 47.5969 24.1196 47.8261 24.2357C47.77 24.5751 47.6422 24.9558 47.5348 25.2851C47.4978 25.3907 47.4956 25.4176 47.4154 25.4985C47.2174 25.5717 45.9121 25.1425 45.6314 25.0595C45.6246 24.5511 45.6281 24.0344 45.6268 23.5252Z" fill="#F7F7F7"/>
<path d="M10.8898 44.1882L10.9657 44.1938C11.0252 44.3659 10.8481 45.8852 10.8126 46.1602C10.6255 46.199 9.91413 46.3974 9.77755 46.3265L9.74703 46.2236C9.63699 45.6494 9.51775 45.077 9.38925 44.5066C9.88706 44.3897 10.3874 44.2835 10.8898 44.1882Z" fill="#F7F7F7"/>
<path d="M10.7806 46.3293C10.8295 46.4311 10.6347 48.3373 10.6127 48.5885L10.2424 48.644L10.1854 48.3911C10.0679 47.7695 9.94313 47.1492 9.81088 46.5306L10.7806 46.3293Z" fill="#F7F7F7"/>
<path d="M45.6252 27.2996C46.8482 27.7005 46.9282 27.3951 46.5206 28.7602C46.3498 29.1743 45.9312 28.9032 45.6327 28.7694C45.6232 28.2796 45.6207 27.7896 45.6252 27.2996Z" fill="#F7F7F7"/>
<path d="M45.6275 41.358C46.5847 41.6593 46.3328 41.7521 46.0845 42.6288C46.0444 42.7239 46.0465 42.7434 45.9641 42.8054C45.8508 42.8427 45.7413 42.8011 45.622 42.7736C45.6175 42.3058 45.6252 41.8267 45.6275 41.358Z" fill="#F7F7F7"/>
<path d="M15.25 53.9821C15.2762 53.9793 15.2579 53.9798 15.3038 53.9934C15.0227 54.095 14.1926 54.2567 13.8585 54.3295L13.8233 54.3137C13.7765 54.2308 13.7835 54.0924 13.7794 53.9919C14.2696 53.9913 14.7598 53.988 15.25 53.9821Z" fill="#F7F7F7"/>
<path d="M45.617 30.9785L45.6848 31.0314C45.7796 31.2397 45.7021 31.4548 45.6554 31.6862L45.6506 31.6945L45.6283 31.6959C45.6047 31.4992 45.6158 31.1853 45.617 30.9785Z" fill="#F3F3F3"/>
<path d="M5.76928 38.8818C6.15263 39.027 6.53935 39.1684 6.91505 39.332C6.97845 39.2959 7.00118 39.2833 7.04636 39.2262C7.28483 39.2641 8.43767 41.8104 8.77048 42.1559C8.81319 42.2857 8.83101 42.3817 8.92235 42.4814L8.97644 42.5049C9.10798 42.8899 9.21409 43.1219 9.47735 43.44C9.37511 43.4908 9.26015 43.5287 9.21409 43.6306C9.12433 43.6623 9.1313 43.6614 9.07534 43.7399C8.81706 43.8502 8.34872 44.2491 8.08517 44.4273C7.10032 45.0931 6.15978 45.8907 5.17527 46.5477C5.11176 46.4296 4.83475 45.8967 4.77096 45.8244C4.60224 45.9147 4.27041 46.1576 4.08276 46.2784C3.63248 45.3699 3.17422 44.4655 2.70802 43.5652C2.4405 43.0442 2.15127 42.4566 1.86334 41.9511C2.67266 41.2948 3.48766 40.6457 4.30825 40.0037C4.76697 39.6432 5.29422 39.2119 5.76928 38.8818Z" fill="#DB4431"/>
<path d="M5.76928 38.8818C6.15263 39.027 6.53935 39.1684 6.91505 39.332C6.87122 39.3532 6.7923 39.3945 6.74976 39.4092C6.10528 39.9246 5.36788 40.4393 4.70449 40.9429C4.2885 41.2587 3.45966 41.968 3.04206 42.2088C3.18479 42.4149 3.65056 43.4606 3.7897 43.7442L4.452 45.0728C4.53132 45.2312 4.7454 45.6408 4.79246 45.7916L4.77096 45.8244C4.60224 45.9147 4.27041 46.1576 4.08276 46.2784C3.63248 45.3699 3.17422 44.4655 2.70802 43.5652C2.4405 43.0442 2.15127 42.4566 1.86334 41.9511C2.67266 41.2948 3.48766 40.6457 4.30825 40.0037C4.76697 39.6432 5.29422 39.2119 5.76928 38.8818Z" fill="#1E1E1E"/>
<path d="M5.80006 39.058C6.12675 39.187 6.41626 39.2983 6.74978 39.4091C6.10531 39.9246 5.3679 40.4393 4.70452 40.9428C4.28852 41.2586 3.45969 41.9679 3.04208 42.2087C2.75168 42.1238 2.39225 42.0698 2.08994 42.0158C2.33409 41.7212 3.38261 40.9272 3.71565 40.671C4.40757 40.1296 5.10239 39.5919 5.80006 39.058Z" fill="#F7F7F7"/>
</g>
<defs>
<clipPath id="clip0_476_3729">
<rect width="60" height="60" fill="white"/>
</clipPath>
</defs>
</svg>
