<svg width="60" height="60" viewBox="0 0 60 60" fill="none" xmlns="http://www.w3.org/2000/svg">
<g clip-path="url(#clip0_476_3813)">
<path d="M0 30C0 13.4315 13.4315 0 30 0C46.5686 0 60 13.4315 60 30C60 46.5686 46.5686 60 30 60C13.4315 60 0 46.5686 0 30Z" fill="#F7F7F7"/>
<path d="M25.519 16.7877L32.3246 16.7942L34.3316 16.7963C34.6475 16.7958 35.1458 16.7793 35.4507 16.8041C35.6929 17.7886 35.8298 19.1946 36.0203 20.2345C36.6266 20.2145 38.0048 20.125 38.5041 20.5247C38.569 20.6466 38.7085 20.7083 38.8387 20.7372C39.3194 21.0793 39.8196 21.5659 40.034 22.1287C41.1293 22.641 42.1345 24.0091 42.5198 25.1326C42.7644 25.8456 42.9887 26.5885 43.2122 27.3099L44.211 30.5042C44.5058 31.4526 44.8557 32.4043 45.0651 33.3725C45.1568 33.7966 44.6832 34.4617 44.268 34.5336C43.4902 34.6681 42.5729 34.5943 41.7761 34.5992C41.8227 34.819 41.8471 35.2404 41.8884 35.3933C42.0305 35.4045 42.1516 35.4105 42.2945 35.406C42.8005 35.3901 42.8249 35.9751 42.2171 35.9787L27.5948 35.9767L21.4298 35.9758C20.5446 35.9754 19.6589 35.9714 18.7739 35.9857C18.629 35.9881 18.4704 35.9554 18.3734 35.8416C18.3216 35.5768 18.6717 35.544 18.8608 35.5869C18.9082 35.4033 19.1414 34.827 19.2181 34.6257C18.62 34.6152 17.127 34.7247 16.6521 34.5043C16.3582 34.3679 16.1738 34.113 16.0736 33.8101C16.0027 33.5956 15.9806 33.3706 16.0213 33.1482C16.1182 32.6189 16.3179 32.0795 16.4723 31.5623C16.7492 30.6185 17.0318 29.6765 17.32 28.7363L18.1022 26.1416C18.4005 25.1661 18.6225 24.3272 19.2673 23.5118C19.6338 23.0483 19.8521 22.7298 20.4458 22.5488C20.3673 22.1016 21.0251 21.2725 21.3289 20.9724C22.3277 19.9858 23.7791 20.1754 25.0896 20.2146C25.1742 19.4842 25.2626 18.7542 25.355 18.0248C25.4005 17.6595 25.4507 17.1384 25.519 16.7877Z" fill="#DB4431"/>
<path d="M25.519 16.7877L32.3246 16.7942L34.3316 16.7963C34.6474 16.7958 35.1458 16.7793 35.4507 16.8041C35.6929 17.7886 35.8298 19.1946 36.0202 20.2345C36.0582 20.5488 36.1338 20.8391 36.1669 21.1733C35.6018 21.1863 34.9661 21.1704 34.3956 21.1698L30.5996 21.1649C28.7559 21.1624 26.8078 21.2048 24.9796 21.168C24.9908 20.9004 25.0549 20.4904 25.0896 20.2146C25.1742 19.4842 25.2626 18.7542 25.355 18.0248C25.4005 17.6595 25.4507 17.1384 25.519 16.7877Z" fill="black"/>
<path d="M25.6423 16.9589C26.725 16.9411 27.8541 16.9569 28.9418 16.9574L35.3266 16.9635C35.5865 18.2648 35.7369 19.6848 35.9861 21.007L35.5418 21.0085L25.1527 21.0054C25.3057 19.7141 25.5426 18.2397 25.6423 16.9589Z" fill="#4CB542"/>
<path d="M30.3008 17.9374C30.8943 17.8 31.4873 18.1682 31.6274 18.7611C31.7674 19.354 31.4019 19.9486 30.8097 20.0912C30.2137 20.2349 29.6145 19.8665 29.4736 19.2699C29.3326 18.6733 29.7036 18.0758 30.3008 17.9374Z" fill="black"/>
<path d="M30.4022 18.0832C30.916 18.0027 31.3976 18.3547 31.477 18.8687C31.5562 19.3827 31.2031 19.8634 30.6889 19.9415C30.1764 20.0194 29.6976 19.6677 29.6185 19.1554C29.5395 18.643 29.8901 18.1634 30.4022 18.0832Z" fill="#F3E4E2"/>
<path d="M40.034 22.1287C41.1293 22.641 42.1344 24.0091 42.5198 25.1326C42.7644 25.8456 42.9887 26.5885 43.2122 27.3099L44.211 30.5042C44.5058 31.4526 44.8557 32.4043 45.0651 33.3725C45.1568 33.7966 44.6832 34.4617 44.268 34.5336C43.4902 34.6681 42.5729 34.5943 41.7761 34.5992C41.7649 34.5739 41.7496 34.4863 41.743 34.4541C41.5603 33.9189 41.4018 32.6203 41.3161 32.0424C41.0738 30.4099 40.9365 28.7682 40.7702 27.1294L40.559 25.2031C40.5008 24.6293 40.4357 24.0575 40.3753 23.4843C40.3329 23.0817 40.1703 22.6934 40.1203 22.334C40.0493 22.2693 40.052 22.2242 40.034 22.1287Z" fill="#F7F7F7"/>
<path d="M40.034 22.1287C41.1293 22.641 42.1344 24.0091 42.5198 25.1326C42.7644 25.8456 42.9887 26.5885 43.2122 27.3099L44.211 30.5042C44.5058 31.4526 44.8557 32.4043 45.0651 33.3725C45.1568 33.7966 44.6832 34.4617 44.268 34.5336C43.4902 34.6681 42.5729 34.5943 41.7761 34.5992C41.7649 34.5739 41.7496 34.4863 41.743 34.4541C42.2128 34.451 42.686 34.4626 43.1533 34.4586C43.4646 34.4366 43.8773 34.5059 44.1751 34.3996C45.1398 34.0553 44.9358 33.3303 44.7222 32.6318C44.2292 31.0197 43.6987 29.4153 43.2035 27.8197L42.6267 25.9577C42.4905 25.5269 42.3178 24.9624 42.1176 24.5646C41.728 23.7907 40.8934 22.7504 40.1203 22.334C40.0493 22.2693 40.052 22.2242 40.034 22.1287Z" fill="black"/>
<path d="M20.4458 22.5488C20.4351 22.6746 20.4564 22.649 20.3885 22.7283L20.365 22.7359C20.412 22.8728 20.3686 23.523 20.3682 23.719C20.3652 25.0697 20.2984 26.5474 20.1984 27.8949C20.0525 29.8626 19.8342 32.5787 19.2742 34.4544C19.0956 34.4539 18.8269 34.4454 18.6564 34.4605C18.8244 34.4652 19.07 34.4492 19.2109 34.4922C19.2538 34.5649 19.2423 34.5238 19.2181 34.6257C18.62 34.6152 17.127 34.7247 16.6521 34.5043C16.3582 34.3679 16.1738 34.113 16.0736 33.8101C16.0027 33.5956 15.9806 33.3706 16.0213 33.1482C16.1182 32.6189 16.3179 32.0795 16.4723 31.5623C16.7492 30.6185 17.0318 29.6765 17.32 28.7363L18.1022 26.1416C18.4005 25.1661 18.6225 24.3271 19.2673 23.5118C19.6338 23.0483 19.8521 22.7298 20.4458 22.5488Z" fill="#F7F7F7"/>
<path d="M20.4458 22.5488C20.4351 22.6746 20.4564 22.649 20.3885 22.7283L20.365 22.7359C19.0435 23.2979 18.4606 25.5003 18.0807 26.753L17.1076 29.9823L16.4874 32.0608C16.3752 32.4374 16.2436 32.8551 16.1658 33.2216C16.0786 33.6323 16.3667 34.2876 16.7902 34.4016C17.3128 34.5422 18.1051 34.4604 18.6564 34.4605C18.8244 34.4652 19.07 34.4492 19.2109 34.4922C19.2538 34.5649 19.2423 34.5238 19.2181 34.6257C18.62 34.6152 17.127 34.7247 16.6521 34.5043C16.3582 34.3679 16.1738 34.113 16.0736 33.8101C16.0027 33.5956 15.9806 33.3706 16.0213 33.1482C16.1182 32.6189 16.3179 32.0795 16.4723 31.5623C16.7492 30.6185 17.0318 29.6765 17.32 28.7363L18.1022 26.1416C18.4005 25.1661 18.6225 24.3271 19.2673 23.5118C19.6338 23.0483 19.8521 22.7298 20.4458 22.5488Z" fill="black"/>
<path d="M41.8884 35.3933C42.0305 35.4046 42.1516 35.4105 42.2945 35.406C42.8005 35.3901 42.8249 35.9751 42.2171 35.9787L27.5948 35.9767L21.4298 35.9758C20.5446 35.9754 19.6589 35.9715 18.7739 35.9858C18.629 35.9881 18.4704 35.9554 18.3734 35.8416C18.3216 35.5768 18.6717 35.544 18.8608 35.587C18.7592 35.7163 18.5853 35.7211 18.4066 35.7795C18.8529 35.8441 19.6905 35.8229 20.1659 35.8237L23.215 35.8268L33.7827 35.8273L40.078 35.8232L41.5956 35.8276C41.7729 35.8284 42.2776 35.8398 42.4285 35.8093C42.5058 35.7498 42.5067 35.722 42.495 35.6401C42.392 35.5505 42.4511 35.5799 42.3061 35.5605C42.1339 35.5397 42.0329 35.5884 41.9027 35.4922L41.8884 35.3933Z" fill="black"/>
<path d="M42.3061 35.5604C42.4511 35.5798 42.392 35.5505 42.495 35.6401C42.5067 35.722 42.5058 35.7498 42.4285 35.8093C42.2472 35.8188 42.0432 35.8585 41.9415 35.6702L41.9658 35.6103C42.0576 35.5388 42.1836 35.5593 42.3061 35.5604Z" fill="#F7F7F7"/>
<path d="M35.9337 28.2811C36.0355 28.2763 36.1164 28.2875 36.1976 28.2407C36.2812 28.0299 36.1516 28.0791 36.2461 27.9665C36.3346 27.9406 36.3542 27.9273 36.4461 27.9371C36.4989 28.0205 36.4815 28.1786 36.4808 28.2851C36.5929 28.2829 36.8872 28.2673 36.9775 28.2932L37.0144 28.494C37.1303 28.564 37.1426 28.5457 37.1933 28.6465C37.1102 28.6579 36.9916 28.6083 36.9059 28.5805C36.8749 28.6898 36.9621 28.8602 37.0805 28.8904C37.2017 28.8053 37.1894 28.625 37.3104 28.5128L37.3405 28.5251C37.5756 28.3495 37.8091 28.2252 38.1191 28.2694C38.3197 28.2979 38.4985 28.4109 38.6103 28.5799C39.0554 29.241 38.4628 30.0004 37.5593 29.7019L37.5136 29.7124C37.1526 29.5144 37.2614 29.317 37.0771 29.1819C36.9652 29.1984 36.8683 29.3604 36.7815 29.4663L36.7855 29.5058C36.8457 29.4662 36.8483 29.4595 36.9167 29.4408C37.0183 29.4789 36.9764 29.4479 37.0403 29.5454C37.0592 29.925 36.5588 29.8772 36.3564 29.7609C36.0002 29.5561 36.2255 28.9286 36.1271 28.5489C36.0268 28.5321 36.03 28.5369 35.9443 28.4849C35.8899 28.3744 35.907 28.4077 35.9183 28.2672L35.9337 28.2811Z" fill="white"/>
<path d="M35.9337 28.2811C36.0355 28.2763 36.1164 28.2875 36.1976 28.2407C36.2812 28.0299 36.1516 28.0791 36.2461 27.9665C36.3346 27.9406 36.3542 27.9273 36.4461 27.9371C36.4989 28.0205 36.4815 28.1786 36.4808 28.2851C36.5929 28.2829 36.8872 28.2673 36.9775 28.2932L37.0144 28.494C37.1303 28.564 37.1426 28.5457 37.1933 28.6465C37.1102 28.6579 36.9916 28.6083 36.9059 28.5805C36.8749 28.6898 36.9621 28.8602 37.0805 28.8904C37.2017 28.8053 37.1894 28.625 37.3104 28.5128L37.3405 28.5251C37.2236 28.7619 37.1248 28.9921 37.2161 29.2628C37.3037 29.5226 37.4356 29.5607 37.5593 29.7019L37.5136 29.7124C37.1526 29.5144 37.2614 29.317 37.0771 29.1819C36.9652 29.1984 36.8683 29.3604 36.7815 29.4663L36.7855 29.5058C36.8457 29.4662 36.8483 29.4595 36.9167 29.4408C37.0183 29.4789 36.9764 29.4479 37.0403 29.5454C37.0592 29.925 36.5588 29.8772 36.3564 29.7609C36.0002 29.5561 36.2255 28.9286 36.1271 28.5489C36.0268 28.5321 36.03 28.5369 35.9443 28.4849C35.8899 28.3744 35.907 28.4077 35.9183 28.2672L35.9337 28.2811Z" fill="#DB4431"/>
<path d="M35.9337 28.2811C36.0355 28.2763 36.1164 28.2875 36.1976 28.2407C36.2812 28.0299 36.1516 28.0791 36.2461 27.9665C36.3346 27.9406 36.3542 27.9273 36.4461 27.9371C36.4989 28.0205 36.4815 28.1786 36.4808 28.2851C36.5929 28.2829 36.8872 28.2673 36.9775 28.2932C36.9625 28.3866 36.9714 28.378 36.9325 28.4617C36.8199 28.5111 36.6106 28.4765 36.4743 28.475C36.4751 28.7263 36.4368 29.2393 36.507 29.4544C36.7004 29.6566 36.7693 29.4703 36.9785 29.5488C37.0197 29.6368 37.0098 29.59 36.9963 29.6958C35.9506 30.2929 36.2984 28.744 36.1769 28.4968C35.9578 28.46 35.9749 28.4807 35.9337 28.2811Z" fill="white"/>
<path d="M37.8956 28.4773C38.611 28.501 38.7248 29.3259 38.0742 29.5641C37.7918 29.5654 37.579 29.5219 37.4713 29.2227C37.4209 29.0786 37.4307 28.9202 37.4986 28.7834C37.5936 28.595 37.7064 28.5359 37.8956 28.4773Z" fill="#DB4431"/>
<path d="M26.2701 28.344L26.2367 28.3386L26.2426 28.3077C26.3968 28.2469 26.5007 28.1833 26.6541 28.2437C26.7924 28.4637 26.5693 28.608 26.7958 28.7196L26.8549 28.7012L26.8666 28.6682C27.1296 27.9437 28.4472 28.1193 28.3974 29.0443C28.2821 29.2194 28.0345 29.1119 27.8562 29.2215L27.8399 29.2771L27.8922 29.3696C28.0286 29.4022 28.2305 29.4161 28.2952 29.4963L28.2718 29.5427L28.2517 29.4999C28.0086 29.8406 27.5806 29.8044 27.2214 29.6912L27.1822 29.7118C26.6348 29.3482 26.9779 29.2725 26.7733 28.9829C26.6422 28.8966 26.4323 28.9595 26.2002 28.9327C26.0748 29.1096 26.2068 29.6424 26.1129 29.7597C26.0151 29.7701 25.9382 29.7907 25.8512 29.7514C25.8101 29.3943 25.8489 28.7466 25.8495 28.3633C25.8496 28.2908 25.8928 28.2826 25.9532 28.2426L26.0018 28.2607C26.0401 28.3322 26.0651 28.3722 26.1087 28.4387C26.1906 28.4435 26.1847 28.4194 26.2701 28.344Z" fill="white"/>
<path d="M26.2701 28.344L26.2367 28.3386L26.2426 28.3077C26.3968 28.2469 26.5007 28.1833 26.6541 28.2437C26.7924 28.4637 26.5693 28.608 26.7958 28.7196L26.8549 28.7012L26.8666 28.6682C27.1296 27.9437 28.4472 28.1193 28.3974 29.0443C28.2821 29.2194 28.0345 29.1119 27.8562 29.2215L27.8399 29.2771L27.8922 29.3696C28.0286 29.4022 28.2305 29.4161 28.2952 29.4963L28.2718 29.5427L28.2517 29.4999C27.7607 29.3374 27.5158 29.817 27.1118 29.1829L27.0703 29.1191C27.2893 29.116 28.2331 29.1512 28.3402 29.0784C28.3672 28.9478 28.3125 28.7202 28.2355 28.6121C27.6517 27.793 26.4271 28.5689 26.9618 29.4301C27.0194 29.523 27.1842 29.6322 27.2214 29.6912L27.1822 29.7118C26.6348 29.3482 26.9779 29.2725 26.7733 28.9829C26.6422 28.8966 26.4323 28.9595 26.2002 28.9327C26.0748 29.1096 26.2068 29.6424 26.1129 29.7597C26.0151 29.7701 25.9382 29.7907 25.8512 29.7514C25.8101 29.3943 25.8489 28.7466 25.8495 28.3633C25.8496 28.2908 25.8928 28.2826 25.9532 28.2426L26.0018 28.2607C26.0401 28.3322 26.0651 28.3722 26.1087 28.4387C26.1906 28.4435 26.1847 28.4194 26.2701 28.344Z" fill="#DB4431"/>
<path d="M26.2701 28.344C26.3973 28.2966 26.5392 28.2415 26.6738 28.2997C26.7772 28.5379 26.2645 28.5168 26.1793 28.7103C26.0606 28.9795 26.0712 29.4661 26.1129 29.7597C26.0151 29.7701 25.9382 29.7907 25.8512 29.7514C25.8101 29.3943 25.8489 28.7466 25.8495 28.3633C25.8496 28.2908 25.8928 28.2826 25.9532 28.2426L26.0018 28.2607C26.0401 28.3321 26.0651 28.3722 26.1087 28.4387C26.1906 28.4435 26.1847 28.4194 26.2701 28.344Z" fill="white"/>
<path d="M27.5211 28.4822C27.7356 28.4867 28.1553 28.6164 28.0551 28.8882C27.9771 28.9493 27.8574 28.9324 27.7515 28.9318C27.5723 28.9348 27.171 28.9942 27.0768 28.8358C27.1233 28.6516 27.3488 28.5272 27.5211 28.4822Z" fill="#DB4431"/>
<path d="M23.1569 27.8535C23.2709 27.8497 23.2998 27.8498 23.4126 27.8629C23.5111 27.9664 24.2203 29.4981 24.2922 29.7148C24.0239 29.8438 23.9152 29.4924 23.832 29.3121L23.4648 29.3076L22.7599 29.3098C22.7153 29.4131 22.6128 29.6794 22.5461 29.7495C22.4442 29.7763 22.4442 29.7833 22.3395 29.7528C22.2952 29.6182 23.0561 28.0643 23.1569 27.8535Z" fill="white"/>
<path d="M23.2964 28.114C23.4366 28.3325 23.6347 28.8399 23.7361 29.0923L23.2903 29.0921L22.8584 29.09C22.9984 28.762 23.1444 28.4366 23.2964 28.114Z" fill="#DB4431"/>
<path d="M32.8365 27.8318C32.8945 27.8306 33.1044 27.8222 33.1296 27.8737C33.2595 28.1386 33.9852 29.5532 33.963 29.7445C33.8672 29.7675 33.8742 29.766 33.7799 29.7354C33.6698 29.6408 33.597 29.4315 33.5275 29.285L33.1003 29.2845C32.8884 29.2854 32.6626 29.2768 32.4496 29.2722C32.3885 29.4349 32.3334 29.6406 32.219 29.7566C32.1346 29.7804 32.1203 29.7722 32.0342 29.7617L32.0102 29.7215C32.1171 29.3775 32.6631 28.2295 32.8365 27.8318Z" fill="white"/>
<path d="M32.9757 28.1108C33.0719 28.1894 33.3786 28.9132 33.4497 29.0717L33.0437 29.0727L32.5461 29.0732C32.6802 28.7478 32.8288 28.4305 32.9757 28.1108Z" fill="#DB4431"/>
<path d="M35.3028 28.861C35.3004 28.7324 35.2723 28.3401 35.3286 28.2458C35.4235 28.1898 35.4784 28.2007 35.5889 28.2003C35.7092 28.3458 35.7051 29.6666 35.6227 29.7917L35.5701 29.7908C35.4972 29.7792 35.4424 29.7764 35.3774 29.7412L35.3499 29.6098C35.2323 29.5976 35.133 29.837 34.7613 29.7818C34.1452 29.6903 34.1898 28.7954 34.2849 28.3058C34.3404 28.2602 34.4509 28.2672 34.5369 28.2601L34.5803 28.2746C34.5682 28.4976 34.5317 28.7711 34.6119 28.9759C34.7577 29.0955 35.1122 28.9197 35.3028 28.861Z" fill="white"/>
<path d="M35.3028 28.861C35.3004 28.7324 35.2724 28.3401 35.3286 28.2458C35.4235 28.1898 35.4784 28.2007 35.5889 28.2003C35.7092 28.3458 35.7051 29.6666 35.6227 29.7917L35.5701 29.7908C35.6474 29.6927 35.6423 28.3473 35.596 28.2848C35.0299 28.0041 35.7081 29.4297 35.0563 29.561C34.3704 29.6993 34.4761 28.841 34.5369 28.2601L34.5803 28.2746C34.5682 28.4976 34.5317 28.7711 34.6119 28.9759C34.7577 29.0955 35.1122 28.9197 35.3028 28.861Z" fill="#DB4431"/>
<path d="M29.5013 28.2848C29.6704 28.2643 29.7354 28.317 29.8965 28.3934L29.912 28.3013L29.9532 28.2861C29.9678 28.4224 29.9437 28.3994 30.0198 28.4783L30.161 28.5011C30.2448 28.6377 30.195 29.2669 30.2298 29.5216L30.218 29.5335C30.0662 29.3582 30.3162 28.8886 30.0605 28.7602C29.9358 28.7696 29.9309 28.7723 29.8162 28.8265C29.6571 29.0275 29.8771 29.0503 29.8489 29.4599L29.834 29.4216C29.6186 29.887 28.8199 29.8627 28.6077 29.5634L28.6194 29.5004C28.8063 29.3829 28.9804 29.5442 29.1958 29.565C29.3585 29.5807 29.5719 29.4956 29.5921 29.3188C29.4286 29.0613 28.5672 29.1871 28.5919 28.6947C28.6151 28.2322 29.1649 28.2622 29.5013 28.2848Z" fill="white"/>
<path d="M29.5013 28.2848C29.6704 28.2643 29.7354 28.317 29.8966 28.3933L29.912 28.3013L29.9532 28.2861C29.9679 28.4224 29.9437 28.3993 30.0198 28.4782L30.1611 28.5011C30.2448 28.6377 30.195 29.2668 30.2298 29.5215L30.2181 29.5335C30.0663 29.3581 30.3162 28.8886 30.0605 28.7602C29.9358 28.7696 29.931 28.7722 29.8162 28.8264C29.6571 29.0274 29.8772 29.0503 29.8489 29.4599L29.834 29.4216L29.8254 29.3636C29.7422 28.7829 29.0302 29.0258 28.8425 28.763C28.8387 28.6627 28.8309 28.6593 28.8863 28.5725C29.0978 28.4163 29.3741 28.5218 29.616 28.5446C29.7151 28.554 29.7485 28.4827 29.8292 28.4005L29.5013 28.2848Z" fill="#DB4431"/>
<path d="M29.9532 28.2861C30.0196 28.2869 30.0859 28.287 30.1523 28.2862C30.2199 28.1615 30.1666 28.0786 30.2471 27.9392C30.3319 27.88 30.3752 27.9247 30.4502 27.9824C30.4743 28.1098 30.4656 28.1658 30.4588 28.2975C30.6099 28.2906 30.7527 28.265 30.8809 28.3321L30.9186 28.3834C30.8498 28.515 30.7491 28.4955 30.6156 28.4968L30.4633 28.4997C30.4616 28.807 30.3347 29.7259 30.8045 29.547C30.8636 29.5245 30.9089 29.5332 30.9652 29.5602L31.0278 29.6312L31.0236 29.685C30.7139 29.8975 30.4509 29.7653 30.2298 29.5215C30.195 29.2668 30.2448 28.6377 30.161 28.5011L30.0198 28.4782C29.9437 28.3994 29.9679 28.4224 29.9532 28.2861Z" fill="white"/>
<path d="M24.6404 28.2753L24.8223 28.2782C24.9383 28.3889 24.8407 28.3663 24.923 28.4884C25.0387 28.3979 25.3305 28.2093 25.4732 28.3147C25.4224 28.6696 25.1388 28.3882 24.9184 28.852L24.9031 28.8849C24.8796 29.0935 24.9303 29.6223 24.8461 29.7396C24.731 29.7501 24.7603 29.7699 24.6885 29.7262C24.5985 29.5149 24.6375 28.565 24.6404 28.2753Z" fill="white"/>
<path d="M11.3752 24.6691C11.3742 25.0508 11.4172 26.4587 11.3117 26.7204C11.0934 26.8954 9.23632 26.7732 8.84714 26.807C8.7235 26.8178 8.41788 26.7874 8.32782 26.6954C8.28587 26.4589 8.31206 25.3767 8.31341 25.0533L8.3185 23.3262C8.31733 22.8769 8.28979 22.1304 8.38354 21.7157C8.57233 20.8811 8.89091 19.9789 9.17163 19.1673C9.2055 19.0692 9.43395 18.491 9.42868 18.4236C9.42059 18.3283 9.37079 18.2415 9.29268 18.1863C8.81678 17.8533 7.60712 18.4664 7.36735 17.5011C7.12413 16.5216 8.56167 16.0532 9.28225 16.3991C9.48563 16.4968 9.61442 17.0491 9.86169 17.0842C9.96604 17.0457 9.98339 17.0285 10.0357 16.9065C10.161 16.6142 10.2716 16.313 10.3931 16.0185C10.6211 15.472 10.8534 14.9272 11.09 14.3843C11.4536 13.5472 11.6732 12.8084 12.7589 12.7851C13.3427 12.7726 13.929 12.7767 14.5133 12.7773L17.6322 12.7805L20.1307 12.7808C20.6462 12.7809 21.1749 12.7731 21.685 12.8037C22.0038 12.8228 22.5513 13.0855 22.693 13.3802C23.2865 14.6148 23.7423 15.9343 24.2383 17.212C24.2735 17.3028 24.3048 17.4225 24.3065 17.5176L24.2622 17.5642C24.0177 17.4344 22.9077 13.5926 22.3167 13.1988C21.7805 12.8414 21.0277 12.9339 20.3911 12.9321L18.2186 12.9289L14.3781 12.9337C11.8941 12.9384 12.0115 12.6197 11.0303 14.9103C10.7043 15.6701 10.3879 16.434 10.0812 17.2018C9.94225 17.2255 9.86661 17.2355 9.73284 17.2822C9.66223 17.264 9.60364 17.253 9.56298 17.1752C9.42341 16.908 9.37975 16.5251 9.02122 16.4495C8.67206 16.3827 8.21626 16.4705 7.91134 16.6614C7.60214 16.8549 7.33155 17.2605 7.59727 17.6944C7.92757 18.2337 9.54065 17.564 9.59198 18.4286C9.59784 18.5275 9.26046 19.3698 9.21774 19.4909C8.99884 20.1213 8.79751 20.7578 8.61405 21.3995C9.05878 21.0455 9.54856 20.9249 10.1117 20.9875C10.5197 21.0328 10.9232 21.2059 11.1761 21.5406C11.3237 21.736 11.4171 22.0109 11.3753 22.2569C11.3544 22.3803 11.2897 22.4853 11.1839 22.5537C10.8862 22.7458 8.98723 22.6418 8.46979 22.6643L8.46938 24.5147L17.4103 24.5192C17.656 23.572 17.7675 23.2521 18.2637 22.3986C16.9982 22.3863 15.7327 22.3816 14.4672 22.3846C14.0742 22.3842 12.9441 22.4357 12.6479 22.3202L12.6354 22.2832C12.8609 22.2038 14.4818 22.2349 14.823 22.2352L18.3841 22.2412C18.7654 21.7491 19.6359 20.9832 20.2522 20.894L20.3065 20.9195L20.3091 20.9866C20.1557 21.113 19.8254 21.2265 19.6391 21.3292C18.9627 21.7021 18.3798 22.3759 18.0642 23.0827C17.6466 24.0183 17.3965 25.1599 17.1177 26.155L15.5365 31.7357C15.3649 32.3565 15.1982 32.9788 15.0365 33.6023C14.9712 33.8556 14.8846 34.272 14.8074 34.5094C14.6903 34.869 14.358 35.3316 14.1826 35.6991C13.437 37.2607 12.3143 38.988 12.116 40.7214C12.0939 40.9147 12.0888 41.1962 12.0833 41.3904C12.9072 40.5985 13.7964 40.9021 14.8285 40.852C16.5327 40.7763 18.1136 41.9623 18.3021 43.6917C18.2976 43.9021 18.224 44.0731 18.0719 44.2178C17.7985 44.4778 17.4758 44.4499 17.1298 44.4534C15.5227 44.47 13.9047 44.4326 12.2986 44.4642L12.29 48.0784L35.4947 48.055L44.7122 48.0692C46.0403 48.0689 47.4187 48.0869 48.7434 48.0634L48.7456 44.5267C47.6071 44.5347 46.4685 44.536 45.3299 44.5308C44.7071 44.5309 44.0524 44.5624 43.4392 44.4952C43.0486 44.4525 42.5122 44.1014 42.5552 43.6545C42.622 42.9602 43.2179 42.2414 43.6964 41.7636C44.8649 40.6767 45.9646 40.7981 47.4322 40.8144C48.0504 40.8213 48.494 41.054 48.9577 41.4335C48.9612 39.8616 47.6628 37.2751 46.932 35.862C46.6928 35.3992 46.3345 34.8846 46.1505 34.4057C46.037 34.1104 45.9501 33.6466 45.8732 33.3287C45.7628 32.8856 45.6445 32.4445 45.5182 32.0057L43.7371 25.9318C43.348 24.6153 43.1107 23.1251 42.0953 22.1214C41.133 21.1701 40.1711 20.8109 38.8387 20.7372C38.7085 20.7083 38.569 20.6466 38.5041 20.5247C38.8632 20.6196 39.335 20.6061 39.7196 20.6747C41.0049 20.9155 42.1296 21.6857 42.8188 22.7971C43.2786 23.5421 43.4394 24.3397 43.683 25.1702C43.8886 25.8542 44.0897 26.5394 44.2863 27.226C44.7058 28.6803 45.1665 30.172 45.5646 31.6269C45.7387 30.8534 45.9559 30.1145 46.6654 29.6641C47.2016 29.3238 47.8757 29.2979 48.4805 29.4366C49.4287 29.6541 50.3603 30.2649 50.8735 31.0999C51.0722 31.4232 51.2409 31.8196 51.151 32.2045C51.082 32.5003 50.8924 32.7102 50.6351 32.8618C49.9094 33.289 47.0341 33.4789 46.0938 33.5486C46.3631 34.7958 46.6689 35.0246 47.2561 36.1547C47.6344 36.8725 47.9775 37.6083 48.2843 38.3594C48.7506 39.4761 49.0966 40.4269 49.1432 41.6318C49.1473 41.7363 49.3478 42.0202 49.3772 42.1464C49.4536 42.4668 49.4592 43.4009 49.4097 43.6995C49.3847 43.8495 49.3305 43.9933 49.2503 44.1226C49.1545 44.2783 49.0444 44.3557 48.8976 44.4597L48.8922 52.1861L42.8939 52.1824L42.8978 48.2055L26.6635 48.2202C23.8542 48.2262 20.9629 48.1832 18.1631 48.2235L18.1353 52.1775L12.1466 52.177C12.0969 49.6407 12.1439 47.0025 12.1373 44.4604C12.0265 44.4295 11.933 44.4067 11.8272 44.3608C11.4844 43.9863 11.4847 43.4855 11.4999 43.0119C11.5064 42.8073 11.5871 42.1264 11.683 41.9673C11.9823 41.4705 11.9245 41.3109 11.9698 40.7306C11.9986 40.319 12.0805 39.9128 12.2134 39.5222C12.6217 38.306 13.3891 36.9582 13.9651 35.803C14.1894 35.353 14.4986 34.8633 14.6799 34.401C14.759 34.1992 14.8509 33.7552 14.9032 33.5292C14.0417 33.4332 13.1811 33.33 12.3214 33.2197C11.395 33.1031 9.6855 33.0744 9.8522 31.6968C9.93317 31.0277 10.4692 30.4467 11.0075 30.0388C12.0472 29.2512 13.9364 28.8891 14.8292 30.0916C15.0814 30.4314 15.2455 31.2552 15.3883 31.6972L17.3818 24.6708L11.3752 24.6691Z" fill="black"/>
<path d="M43.0548 48.2165C44.9217 48.1951 46.8797 48.1947 48.7463 48.2145C48.7449 48.6289 48.7677 51.9364 48.7133 52.0407L43.0433 52.0462C43.0395 50.7696 43.0433 49.4931 43.0548 48.2165Z" fill="#F7F7F7"/>
<path d="M12.2841 48.2227L18.003 48.2218L17.9896 52.0308L12.2935 52.0272L12.2841 48.2227Z" fill="#F7F7F7"/>
<path d="M45.8092 40.9686C45.8454 40.9647 45.8816 40.9615 45.9179 40.9589C46.191 40.9393 46.5163 40.9545 46.793 40.9498C47.5138 40.9374 48.1395 40.9377 48.7161 41.4301C49.0298 41.7076 49.2781 42.1117 49.2832 42.5365C49.3034 44.194 49.3756 44.3864 47.6574 44.3842L46.2452 44.3814L44.5586 44.3871C44.2336 44.3883 43.8727 44.411 43.5545 44.3622C42.0968 44.1387 42.8589 42.9623 43.4349 42.2641C44.0641 41.5013 44.8221 41.0618 45.8092 40.9686Z" fill="#F7F7F7"/>
<path d="M13.2503 40.9969C13.2712 40.9959 13.2922 40.9951 13.3132 40.9944C14.6746 40.9475 16.2243 40.8784 17.2383 41.8863C17.7043 42.3255 18.1024 43.0284 18.1393 43.6811C18.1835 44.4632 17.0394 44.3185 16.5674 44.3161L13.7011 44.3238C13.2144 44.325 12.7301 44.3313 12.2443 44.3135C11.5715 44.3019 11.6169 43.3564 11.6473 42.8763C11.7098 41.8886 12.209 41.1159 13.2503 40.9969Z" fill="#F7F7F7"/>
<path d="M47.6169 29.5132C48.3757 29.4634 49.1168 29.7488 49.7451 30.1651C50.3533 30.5681 51.4264 31.6742 50.8673 32.4512C50.4801 32.9892 49.5103 33.0254 48.8895 33.119C47.9509 33.2451 47.0087 33.3434 46.0643 33.4136C45.9678 33.0979 45.7321 32.3063 45.7056 32.0079C45.6582 31.4735 45.9671 30.5818 46.324 30.1701C46.6984 29.7381 47.0626 29.5694 47.6169 29.5132Z" fill="#F7F7F7"/>
<path d="M12.8114 29.483C14.7685 29.2638 14.8298 30.5574 15.3128 31.9622C15.1877 32.4328 15.065 32.9042 14.9447 33.3761C14.2462 33.3294 13.4219 33.2094 12.7219 33.1221C11.7221 32.968 9.4824 33.0287 10.0855 31.3896C10.4695 30.346 11.7578 29.6121 12.8114 29.483Z" fill="#F7F7F7"/>
<path d="M8.46679 24.6679C9.359 24.6489 10.3237 24.6687 11.2218 24.6698C11.2266 25.3292 11.2259 25.9888 11.2195 26.6482C10.3801 26.6893 9.32338 26.6624 8.46896 26.6567C8.46117 25.9984 8.46726 25.3271 8.46679 24.6679Z" fill="#F7F7F7"/>
<path d="M9.60992 21.1318C10.0395 21.0744 10.5424 21.1665 10.8804 21.4481C11.1203 21.6349 11.3916 22.1127 11.1317 22.3824C10.9421 22.579 10.3702 22.5121 10.0928 22.5086L8.47665 22.5138C8.48919 21.5969 8.6508 21.2907 9.60992 21.1318Z" fill="#F7F7F7"/>
<path d="M12.5385 13.3954C13.0395 13.377 13.6518 13.3923 14.1598 13.3921L17.3496 13.3936L19.9544 13.3937C20.4483 13.3932 20.95 13.3759 21.4429 13.3998C21.5835 13.4067 21.7835 13.3995 21.8932 13.4944C22.0471 13.6275 22.1639 13.8412 22.2545 14.0213C22.4644 14.4387 23.802 17.6931 23.802 18.0217C23.802 18.059 23.8089 18.0603 23.7832 18.0808C23.6001 18.2265 22.0033 18.152 21.6859 18.1493L13.371 18.14L11.4834 18.1388C11.1575 18.1385 10.8107 18.1471 10.488 18.1097C10.2897 18.0868 10.339 17.6874 10.3892 17.5654C10.8781 16.3767 11.354 15.1692 11.9007 14.006C12.0299 13.7311 12.2416 13.4826 12.5385 13.3954Z" fill="black"/>
<path d="M12.598 13.5446C13.8652 13.4815 15.1579 13.5417 16.4283 13.5444C18.0382 13.5479 19.6613 13.5047 21.2693 13.5525C21.4139 13.5567 21.6751 13.5662 21.8009 13.6319C22.1865 13.8332 23.4556 17.4041 23.6386 17.9973C23.0014 18.0239 22.2256 18.0032 21.5772 18.0005L13.9903 17.9957C13.5239 17.996 10.8356 18.0511 10.5303 17.9491C10.5144 17.9248 10.5028 17.911 10.4966 17.88C10.4393 17.5939 11.9089 14.2777 12.1878 13.836C12.304 13.6519 12.384 13.5923 12.598 13.5446Z" fill="#F7F7F7"/>
<path d="M39.9463 11.5237L44.8474 11.5205L46.5193 11.5192C46.8498 11.5191 47.1937 11.5106 47.5221 11.533C47.6957 11.5448 47.8401 11.5661 47.9765 11.6782C48.0588 11.7458 48.1884 11.8943 48.2256 11.9862C48.464 12.5748 49.6054 15.0984 49.6544 15.5368C49.4831 15.7082 47.8561 15.641 47.5342 15.6396L40.8985 15.6455C40.4924 15.646 38.0496 15.6786 37.8157 15.6017C37.8129 15.5921 37.8088 15.5827 37.8072 15.5727C37.7849 15.4282 39.1882 12.1276 39.3859 11.8385C39.5271 11.6322 39.7084 11.5663 39.9463 11.5237Z" fill="black"/>
<path d="M39.947 11.6724C42.4088 11.6377 44.8907 11.6881 47.3536 11.6721C47.6842 11.6699 47.9485 11.759 48.0913 12.0743C48.4683 12.9063 48.8086 13.7606 49.1641 14.6026C49.2809 14.8805 49.4137 15.1949 49.4831 15.4868C48.8692 15.5167 48.1554 15.4998 47.5342 15.4996L37.9754 15.4919C38.2294 14.8455 38.5088 14.2091 38.7861 13.5677C39.0215 13.0233 39.2276 12.396 39.5422 11.8911C39.6323 11.7464 39.7863 11.6977 39.947 11.6724Z" fill="#F7F7F7"/>
<path d="M39.6058 11.049C40.1705 11.0216 40.8225 11.0352 41.3926 11.0346L44.5598 11.0393L46.6409 11.04C47.0158 11.0402 47.4447 11.0264 47.8165 11.0544C48.8712 11.1337 49.0284 12.5234 49.3963 13.2753C49.5386 13.5662 49.8931 14.6791 50.0826 14.805C50.3082 14.7531 50.3643 14.2505 50.8871 14.1194C51.2115 14.0382 51.6718 14.0634 51.9535 14.2485C52.1315 14.3655 52.2629 14.5517 52.2971 14.7638C52.3311 14.9752 52.3047 15.234 52.1742 15.4106C51.8315 15.8745 51.1932 15.6185 50.7262 15.7041C50.6732 15.7139 50.5998 15.7401 50.5735 15.7898C50.4351 16.051 51.0435 17.7194 51.1467 18.0799C51.2117 18.3005 51.2517 18.5277 51.266 18.7572C51.2767 18.9217 51.2904 19.6542 51.2732 19.8092C51.2137 20.3459 51.3746 22.9289 51.2148 23.2153C51.0453 23.3104 49.4305 23.2482 49.1171 23.2653C48.9924 23.2721 48.7107 23.2617 48.6115 23.1614C48.5394 22.9121 48.5771 21.683 48.5802 21.3543C46.918 21.297 45.2009 21.3697 43.5346 21.3531C43.3731 21.3514 42.8642 21.3961 42.7611 21.2992L42.7968 21.2479C42.8509 21.219 42.8866 21.1974 42.9506 21.1979C43.7711 21.2048 44.5998 21.2019 45.4199 21.202L51.1217 21.2116L51.1225 20.266L51.1204 19.5116C50.7619 19.4979 48.7013 19.5505 48.5534 19.4468C48.4813 19.3437 48.4843 19.2618 48.4722 19.1364C48.3986 18.3668 49.2716 18.0333 49.9029 18.0122C50.3948 17.9959 50.7495 18.1636 51.0943 18.4956C50.8969 17.723 50.626 16.9694 50.4304 16.1953C50.2632 15.5341 50.5763 15.5278 51.1145 15.5475C51.615 15.5481 52.2335 15.5464 52.1471 14.8589C52.0592 14.1608 51.1984 14.1024 50.6943 14.3826C50.4746 14.5048 50.3321 14.9523 50.0676 15.0025C49.8422 14.9573 49.7018 14.4503 49.6216 14.2484L48.9941 12.6657C48.7766 12.1159 48.5462 11.2483 47.8238 11.2013C47.3557 11.1708 46.8567 11.1836 46.3858 11.1821L43.5467 11.1743L40.9648 11.1682C39.4664 11.1658 39.0835 10.987 38.5603 12.5563C38.472 12.8212 38.2887 13.2202 38.1764 13.4889C37.868 14.2238 37.5471 14.9534 37.2137 15.6774C37.1349 15.8523 36.8275 16.6575 36.659 16.6749L36.6266 16.63C36.6429 16.487 37.2038 15.3151 37.3111 15.0758C37.634 14.3599 37.9444 13.6387 38.2423 12.9121C38.3767 12.5868 38.5148 12.2554 38.6491 11.9305C38.86 11.4205 39.0514 11.1874 39.6058 11.049Z" fill="black"/>
<path d="M48.8559 21.3716C49.5967 21.3831 50.3739 21.3585 51.1248 21.363C51.1279 21.8976 51.1359 22.4585 51.1228 22.9934C51.1206 23.088 51.115 23.0763 51.0635 23.1167L48.7274 23.1136C48.726 22.8907 48.6856 21.5023 48.7683 21.3824L48.8559 21.3716Z" fill="#F7F7F7"/>
<path d="M49.7405 18.1728C50.5679 18.1137 51.1782 18.4611 51.0966 19.3596L50.0537 19.3525C49.5826 19.3539 49.1114 19.3493 48.6403 19.339C48.5749 18.5417 49.0158 18.2965 49.7405 18.1728Z" fill="#F7F7F7"/>
<path d="M20.3446 44.6267L33.8469 44.6187L38.6118 44.6184C39.2816 44.6195 39.9554 44.6167 40.6255 44.6117C40.7064 44.6111 40.7497 44.6187 40.802 44.6768L40.7742 44.745L24.8154 44.7624C24.3012 44.7627 20.5209 44.805 20.3728 44.7492L20.3446 44.6267Z" fill="black"/>
<path d="M21.8731 40.2015C22.8318 40.1817 23.8574 40.197 24.8189 40.1961L30.5879 40.1941L36.2955 40.196C36.6696 40.1963 38.9739 40.1597 39.0811 40.2394L39.0821 40.3339C38.509 40.3484 37.869 40.3324 37.2886 40.3322L33.6439 40.3318H25.7107C25.3607 40.3324 22.0259 40.3646 21.8936 40.3106L21.8731 40.2015Z" fill="black"/>
<path d="M40.2595 19.3431C40.8242 19.3069 47.4824 19.3377 47.5425 19.3673L47.5751 19.4804C46.97 19.495 40.3888 19.513 40.2757 19.4549L40.2595 19.3431Z" fill="black"/>
<path d="M36.7537 17.9964C37.3465 17.9466 38.0723 17.9207 38.5654 18.3125C38.7488 18.4582 38.8686 18.6534 38.8913 18.8887C38.9035 19.0147 38.8983 19.1673 38.8034 19.2643C38.5959 19.4764 37.2503 19.3792 36.8775 19.3827C36.7654 19.3815 36.7379 19.3682 36.6951 19.2704C36.9353 19.1123 38.4456 19.3785 38.7055 19.1126C38.9425 18.0704 37.4216 18.1368 36.8288 18.1156C36.7842 18.114 36.7724 18.0415 36.7537 17.9964Z" fill="black"/>
</g>
<defs>
<clipPath id="clip0_476_3813">
<rect width="60" height="60" fill="white"/>
</clipPath>
</defs>
</svg>
