<svg width="60" height="60" viewBox="0 0 60 60" fill="none" xmlns="http://www.w3.org/2000/svg">
<g clip-path="url(#clip0_475_1859)">
<path d="M9.86813 46.4276C9.06657 46.2374 7.27524 42.5679 6.9177 41.7464C4.84909 36.9447 4.34885 31.6172 5.48768 26.5169C6.77039 20.5085 10.2539 14.935 15.2807 11.3014C17.7797 9.49506 20.6237 8.24306 23.6093 7.49748C28.7226 6.25937 33.5696 6.71475 38.5141 8.67727C45.1055 11.2935 50.1491 17.1275 52.6494 23.6778C52.7969 24.0642 53.3686 25.4365 53.2322 25.7721C54.0051 27.5599 54.5639 29.432 54.8971 31.3499C54.9244 31.5009 55.0304 31.9165 54.9888 32.0311C54.9072 32.0826 54.919 32.0657 54.8081 32.072C54.7457 32.0392 54.7306 32.0242 54.7186 31.9432C54.4978 30.4499 54.1211 28.9908 53.6257 27.5657C49.8148 16.6022 38.4448 9.14187 26.8187 12.5734C21.979 14.0018 17.9402 16.9808 14.8427 20.9385C14.1595 21.8194 13.1605 23.3846 12.607 24.3823C9.87393 29.3087 8.71073 34.9672 9.16084 40.569C9.31981 42.5472 9.5335 44.1139 10.083 46.0437C10.6727 48.1625 11.4989 50.209 12.5463 52.1448L12.2983 52.3022C11.4026 50.7405 10.3437 48.1454 9.86813 46.4276Z" fill="#393939" fill-opacity="0.13"/>
<path d="M9.86811 46.4276C9.60426 45.3787 9.35981 44.4 9.17917 43.3256C8.31954 38.3495 8.75407 33.2372 10.4414 28.4756C12.7356 22.0908 17.2248 16.4594 23.4558 13.5294C28.52 11.0878 34.359 10.7816 39.6528 12.6801C45.0194 14.5986 49.3681 18.6587 52.1351 23.5667C52.536 24.2778 52.8818 25.0345 53.2322 25.7721C54.0051 27.5599 54.5639 29.432 54.8971 31.3499C54.9244 31.5009 55.0304 31.9165 54.9888 32.0311C54.9071 32.0826 54.919 32.0657 54.8081 32.072C54.7456 32.0392 54.7305 32.0242 54.7186 31.9432C54.4978 30.4499 54.1211 28.9908 53.6257 27.5657C49.8148 16.6023 38.4447 9.14188 26.8186 12.5734C21.979 14.0018 17.9402 16.9808 14.8427 20.9385C14.1595 21.8194 13.1605 23.3846 12.607 24.3823C9.87391 29.3087 8.71071 34.9672 9.16083 40.569C9.31979 42.5472 9.53348 44.1139 10.083 46.0437C10.6727 48.1625 11.4989 50.209 12.5463 52.1448L12.2983 52.3022C11.4026 50.7405 10.3437 48.1454 9.86811 46.4276Z" fill="#1E1E1E"/>
<path d="M14.9992 50.6669C12.4282 46.2498 11.2796 41.154 11.7084 36.0668C12.143 31.108 14.032 26.3858 17.1407 22.4872C21.3951 17.1794 27.4386 14.1664 34.3176 14.7955C43.001 15.5898 49.8039 22.5708 51.8133 30.7918C51.9265 31.2549 52.1985 32.4098 52.1586 32.8347C52.0913 32.905 52.0187 32.9144 51.9178 32.9506C51.8339 32.378 51.7317 31.808 51.6115 31.2417C51.5289 30.8841 51.4356 30.5289 51.3318 30.1767C50.3467 30.4998 49.3969 30.8641 48.3868 31.1902C48.2458 31.2175 48.2591 31.2379 48.1464 31.1948C47.9368 30.937 47.976 30.6633 47.8771 30.3701C47.743 29.9727 47.6117 29.5649 47.4665 29.1719C47.3034 28.7301 47.1146 28.2982 46.9011 27.8781C44.9709 24.0559 42.0699 21.0959 38.0171 19.5353C36.7142 19.0336 35.6082 18.7422 34.2073 18.5961C30.0029 18.1927 25.8096 19.4657 22.5467 22.1358C21.6564 22.8637 20.8381 23.6745 20.1028 24.5574C17.365 27.7664 15.6722 31.7284 15.249 35.9175C14.8032 40.3142 16.0584 45.158 18.5635 48.8047C18.5107 48.8372 18.4009 48.9088 18.3502 48.9333C17.3046 49.4938 16.2747 50.0065 15.2336 50.5535C15.1774 50.587 15.0629 50.637 14.9992 50.6669Z" fill="#1E1E1E"/>
<path d="M46.8144 27.0306C47.5704 26.4796 48.5468 25.7418 49.3311 25.2623C49.4914 25.5197 49.6567 25.8847 49.7998 26.1579C50.4979 27.4912 50.8838 28.7573 51.3318 30.1768C50.3467 30.4999 49.3969 30.8641 48.3868 31.1902C48.1747 29.8683 47.441 28.1969 46.8144 27.0306Z" fill="#DB4431"/>
<path d="M14.698 49.4056C15.6267 48.8143 16.5596 48.2299 17.4969 47.6522C17.7041 48.0199 18.0726 48.6382 18.3502 48.9333C17.3046 49.4938 16.2746 50.0065 15.2336 50.5536C15.151 50.2837 14.8302 49.6686 14.698 49.4056Z" fill="#DB4431"/>
<path d="M44.8612 19.8045C45.9592 20.6997 47.45 22.379 48.2394 23.5652C47.5271 24.0727 46.8399 24.6241 46.1273 25.1133L45.8013 25.3642C44.9136 24.1739 44.1257 23.2081 42.9999 22.2273C43.4302 21.7036 43.8388 21.0917 44.262 20.5569C44.46 20.3068 44.637 20.0323 44.8612 19.8045Z" fill="#E98B7F"/>
<path d="M15.3884 42.4679L15.4266 42.4759C15.4986 42.6533 15.5418 42.8772 15.5917 43.0668C15.863 44.0974 16.1992 44.9886 16.6442 45.9552C16.2715 46.1189 13.8865 47.5489 13.8071 47.5535C13.1751 46.0062 12.8108 44.7497 12.4284 43.1533C13.1921 43.0366 14.6176 42.669 15.3884 42.4679Z" fill="#DB4431"/>
<path d="M11.9648 36.3047C12.6015 36.3358 13.2581 36.4583 13.8946 36.5185C14.2254 36.5498 14.5689 36.5884 14.8975 36.6372C14.8297 37.9194 14.8861 39.2052 15.0662 40.4766L14.478 40.5708C13.7353 40.6919 12.7854 40.8752 12.0652 41.0499C11.8702 39.4754 11.8852 37.8856 11.9648 36.3047Z" fill="#DB4431"/>
<path d="M39.4263 16.3628C40.9639 16.9717 41.9444 17.5797 43.3021 18.4831C42.9013 18.9735 42.2647 20.0078 41.8603 20.5848L41.5445 21.0301C40.4582 20.359 39.6576 19.9059 38.4987 19.3932C38.7077 18.4561 39.1796 17.3439 39.4263 16.3628Z" fill="#E98B7F"/>
<path d="M13.4649 29.6245C13.8223 29.8381 14.3108 30.0476 14.6885 30.2235C15.1594 30.4428 15.6383 30.668 16.1157 30.8711C15.756 31.8649 15.4517 32.822 15.2725 33.8641C15.2352 34.0813 15.1827 34.3895 15.1125 34.5901C15.025 34.6208 14.9962 34.5965 14.8895 34.5764C14.5951 34.4735 12.5679 34.1812 12.2505 34.1652C12.5027 32.6152 12.9096 31.0942 13.4649 29.6245Z" fill="#DB4431"/>
<path d="M33.4276 15.0455C34.5707 15.0478 36.381 15.3574 37.4611 15.7129C37.3152 16.4373 37.0508 17.5054 36.8586 18.2101C36.8116 18.3973 36.7528 18.5694 36.6923 18.7524C35.5563 18.4773 34.6025 18.3041 33.4283 18.2428L33.4276 15.0455Z" fill="#E98B7F"/>
<path d="M16.3954 23.9554C16.5116 24.025 16.9358 24.3961 17.0699 24.5053C17.6205 24.9535 18.1597 25.4385 18.7416 25.8469C18.0976 26.6372 17.6201 27.48 17.1746 28.3929C17.1135 28.518 16.9523 28.9117 16.8483 28.9548L16.7472 28.913C15.9471 28.4871 15.0722 28.0433 14.2909 27.595C15.0029 26.1957 15.4826 25.2752 16.3954 23.9554Z" fill="#DB4431"/>
<path d="M31.1879 15.0592C31.2804 15.045 31.2844 15.0475 31.3788 15.0566C31.4293 15.1339 31.4819 17.9193 31.4958 18.278C30.3884 18.3812 29.3834 18.5105 28.3153 18.8232L28.244 18.4724C28.0362 17.5606 27.7611 16.6153 27.5364 15.7002C28.8575 15.3379 29.8396 15.1524 31.1879 15.0592Z" fill="#DB4431"/>
<path d="M25.5745 16.3611C25.7334 16.6063 26.4022 19.0489 26.5073 19.4182C25.4416 19.8223 24.7103 20.2941 23.766 20.8995L23.4985 20.4717C23.0744 19.7529 22.5507 18.9819 22.0956 18.2764C23.1349 17.5166 24.4102 16.9023 25.5745 16.3611Z" fill="#DB4431"/>
<path d="M20.4346 19.5097C21.0105 20.3254 21.5958 21.2487 22.1624 22.085C21.2324 22.8836 20.7376 23.3557 19.9415 24.296L19.7238 24.0666C19.2143 23.5268 18.3243 22.7636 17.7473 22.2289C18.3811 21.4108 19.6457 20.1709 20.4346 19.5097Z" fill="#DB4431"/>
<path d="M15.0159 40.7816L15.0809 40.7831C15.123 40.8431 15.3377 41.9742 15.3894 42.1728C14.4121 42.3922 13.4375 42.6232 12.4658 42.866C12.441 42.8696 12.4191 42.8599 12.3914 42.8529C12.2958 42.6638 12.1532 41.6115 12.1106 41.3341C13.084 41.1304 14.0309 40.9285 15.0159 40.7816Z" fill="#F7F7F7"/>
<path d="M16.7357 46.2294C16.8489 46.3257 17.2512 47.1937 17.3479 47.3949C16.4307 47.9961 15.4972 48.5322 14.5727 49.1447C14.4334 48.9776 14.0236 48.029 13.9414 47.8026C14.8791 47.2784 15.7914 46.7462 16.7357 46.2294Z" fill="#F7F7F7"/>
<path d="M14.1636 27.9197C14.8859 28.2556 16.1289 28.8578 16.7832 29.2641C16.5714 29.6998 16.401 30.1316 16.2168 30.579C15.4847 30.2893 14.2545 29.725 13.5436 29.3683C13.7212 28.9115 13.9586 28.3607 14.1636 27.9197Z" fill="#F7F7F7"/>
<path d="M17.5258 22.4845C17.696 22.5786 18.1309 23.0043 18.297 23.1538C18.7966 23.6031 19.2958 24.0533 19.7737 24.5254C19.4554 24.8678 19.1669 25.236 18.876 25.6014C18.1539 25.0379 17.2896 24.3101 16.6087 23.6954C16.8812 23.3038 17.2251 22.8587 17.5258 22.4845Z" fill="#F7F7F7"/>
<path d="M27.1805 15.8086L27.2282 15.8061C27.2416 15.815 27.2549 15.824 27.2684 15.833C27.4451 16.7219 27.8713 18.0659 28.0695 18.8972C27.6274 19.0173 27.221 19.1577 26.7873 19.3041C26.732 19.2415 25.9784 16.5838 25.8939 16.2561C26.3345 16.0923 26.7324 15.9482 27.1805 15.8086Z" fill="#F7F7F7"/>
<path d="M12.2278 34.4032C13.1799 34.5477 14.145 34.7416 15.1005 34.8955C15.0306 35.3788 14.997 35.8605 14.9345 36.344L12.0327 35.9904C12.0544 35.5883 12.1563 34.792 12.2278 34.4032Z" fill="#F7F7F7"/>
<path d="M21.834 18.4551C21.8863 18.4727 23.3341 20.7736 23.5106 21.076C23.0759 21.3687 22.7988 21.5735 22.4016 21.9019C22.1885 21.6812 20.8522 19.6098 20.6895 19.3055C21.0261 19.0166 21.4715 18.7096 21.834 18.4551Z" fill="#F7F7F7"/>
<path d="M32.4198 15.0023C32.6511 14.9987 32.9003 15.0093 33.133 15.0148L33.1317 18.1996L32.4182 18.1988L31.8022 18.2347C31.7379 17.2377 31.7286 16.0385 31.7186 15.0358C31.9231 15.0123 32.2086 15.01 32.4198 15.0023Z" fill="#F7F7F7"/>
<path d="M37.7496 15.7872C38.1618 15.8708 38.795 16.0985 39.1652 16.2683L38.2632 19.093C38.2347 19.1722 38.2369 19.1713 38.1871 19.2383C38.0496 19.2434 37.1668 18.8985 36.9905 18.8331C37.2671 17.8631 37.5097 16.776 37.7496 15.7872Z" fill="#F7F7F7"/>
<path d="M48.3807 23.8475L48.4074 23.8504C48.5603 23.9521 49.0447 24.7958 49.1515 24.9941C48.4479 25.5584 47.4669 26.1743 46.7135 26.7356L46.6885 26.7411C46.5589 26.665 46.0575 25.806 45.9691 25.6306C46.6515 25.0827 47.6715 24.3281 48.3807 23.8475Z" fill="#F7F7F7"/>
<path d="M43.5372 18.6887C43.801 18.8575 44.3714 19.3619 44.6353 19.5864C44.0361 20.3627 43.4401 21.2179 42.8264 21.9667L42.7906 21.9893C42.7142 21.9656 41.9626 21.3329 41.7982 21.2128L42.8101 19.7133C43.0115 19.4124 43.3054 18.9466 43.5372 18.6887Z" fill="#F7F7F7"/>
<path d="M36.3701 35.3218L45.232 32.4143C46.4992 31.9872 47.7723 31.5774 49.051 31.1853C49.3203 31.1012 50.6323 30.6366 50.7963 30.6989C50.8847 30.7849 50.9103 30.9434 50.9471 31.0674C50.5281 31.3083 49.9705 31.5459 49.5238 31.7601C48.3132 32.3405 47.0649 32.8551 45.8393 33.4046L40.3352 35.8674C39.2983 36.332 38.1725 36.8588 37.128 37.2972C37.0844 38.3816 36.3962 39.6879 35.6017 40.4243C34.9354 41.0419 33.9678 41.4867 33.0435 41.4633C31.7185 41.4297 30.6413 40.5091 30.208 39.2813C30.0261 38.7878 30.0016 38.2428 30.0068 37.7232C30.0552 37.1991 30.1078 36.9332 30.3019 36.4279C31.1103 34.3232 33.7705 33.0071 35.6915 34.5712C35.8987 34.7399 36.1058 34.995 36.2771 35.2061L36.3701 35.3218Z" fill="#1E1E1E"/>
<path d="M49.1984 31.4781C47.9478 31.8501 46.6145 32.3466 45.3719 32.7761L38.1591 35.2711C37.3639 35.5426 36.5778 35.8372 35.7707 36.0813C35.5583 36.1455 35.0668 36.3346 34.868 36.3568C34.8312 36.2778 34.8372 36.2595 34.8338 36.173C36.0444 35.7423 37.3511 35.3332 38.5755 34.9267L44.8288 32.8208L48.7677 31.501C49.306 31.3223 50.1005 31.003 50.6279 30.9078L50.6585 30.9766C50.6776 30.9573 50.6967 30.938 50.7158 30.9187L50.702 30.9523C50.5718 31.0655 50.4102 31.1181 50.2495 31.1825C49.8417 31.3872 49.1179 31.6681 48.6808 31.8449L48.6603 31.7826C48.875 31.6778 49.026 31.6091 49.2488 31.5249L49.1984 31.4781Z" fill="#F7F7F7"/>
<path d="M50.2091 31.1387L50.2495 31.1824C49.8417 31.3872 49.1179 31.6681 48.6808 31.8449L48.6603 31.7825C48.875 31.6778 49.026 31.609 49.2488 31.5249C49.5072 31.4317 49.9698 31.2593 50.2091 31.1387Z" fill="#F2F2FC"/>
<path d="M50.2092 31.1387C49.9699 31.2593 49.5072 31.4317 49.2488 31.5249L49.1984 31.478C49.5299 31.3699 49.8749 31.2224 50.2092 31.1387Z" fill="#605E5C"/>
<path d="M48.6603 31.7825L48.6808 31.8449C47.6705 32.3261 46.6224 32.7523 45.5932 33.1933L42.1743 34.6985C40.2185 35.5724 38.2596 36.4766 36.2876 37.3105C35.9741 37.4431 35.453 37.7109 35.1404 37.7606L35.1052 37.7266L35.1053 37.6352C35.2228 37.4696 35.9846 37.1947 36.223 37.093C39.5906 35.6565 42.9257 34.1419 46.3109 32.747C47.0936 32.4245 47.878 32.1064 48.6603 31.7825Z" fill="#F7F7F7"/>
<path d="M30.7248 39.6019C30.2431 38.5632 30.1848 37.7192 30.5768 36.6324C31.1839 34.9498 33.064 33.7386 34.8363 34.4041C35.2388 34.5553 35.859 35.0304 36.0289 35.4238C35.8622 35.3716 35.5969 35.0245 35.4392 34.9232C32.538 33.0581 29.4757 36.7821 30.8034 39.5964L30.7248 39.6019Z" fill="#F7F7F7"/>
<path d="M31.5021 40.4713C33.0143 41.5239 34.8763 40.888 35.8648 39.4516C36.0506 39.183 36.2098 38.8969 36.34 38.5976C36.4458 38.3525 36.6552 37.5482 36.7611 37.4666L36.8146 37.492C36.8153 37.6488 36.7569 37.7987 36.7225 37.9508C36.2153 40.199 33.6382 42.2046 31.4629 40.5093L31.5021 40.4713Z" fill="#F7F7F7"/>
<path d="M30.7249 39.6019L30.8034 39.5964C31.0134 39.9829 31.1618 40.1836 31.502 40.4714L31.4629 40.5093C31.1073 40.2064 30.9619 40.0006 30.7249 39.6019Z" fill="#F2F2FC"/>
<path d="M24.0559 41.2609C24.0046 41.0752 23.9555 40.8889 23.9088 40.702C23.471 38.9084 23.4157 37.3934 23.8036 35.5852C23.9347 34.9122 24.1015 34.2015 24.3763 33.5713C25.3125 31.4252 26.8213 29.4251 28.9548 28.3519C29.8565 27.8983 30.5641 27.6772 31.5395 27.4457C31.5612 27.8858 31.5485 28.3518 31.5392 28.7922C31.1095 28.9553 30.6097 29.0275 30.1731 29.207C27.7609 30.1994 26.0419 32.3325 25.2159 34.7645C24.7103 36.2531 24.702 37.9062 24.8844 39.4709C25.3471 39.2789 25.9983 39.0997 26.4901 38.9307C27.319 38.6458 28.1559 38.3519 28.9929 38.096C29.2877 38.0058 29.7477 37.7774 30.0068 37.7232C30.0016 38.2428 30.0261 38.7878 30.208 39.2813C29.704 39.3919 28.9955 39.6774 28.4813 39.8377C27.0179 40.294 25.5397 40.8904 24.0559 41.2609Z" fill="#4CB542"/>
<path d="M32.41 26.5209C33.7468 26.4662 35.1069 26.682 36.3218 27.2476C36.582 27.3687 37.4196 27.7376 37.509 27.9731C37.4923 28.0801 37.5168 28.0394 37.4464 28.1064C37.2536 28.1156 36.7546 27.7903 36.5614 27.6941C31.2823 25.0655 25.6537 28.552 23.7691 33.6727C23.414 34.6377 23.2249 35.4618 23.0946 36.4826C22.9218 37.8272 22.9911 39.1917 23.2994 40.5121C23.4117 40.9722 23.5735 41.3775 23.6765 41.7941L23.6446 41.8432C23.5487 41.8915 23.5317 41.9066 23.4219 41.9113C23.3452 41.7819 23.2735 41.4929 23.2289 41.3396C22.9535 40.4235 22.7854 39.4788 22.7282 38.5243C22.3795 32.8887 26.426 26.8528 32.41 26.5209Z" fill="#1E1E1E"/>
<path d="M51.6115 31.2418C51.7317 31.808 51.8339 32.378 51.9178 32.9507C51.2076 33.2656 50.4428 33.5295 49.7217 33.8237C49.4416 33.9381 49.0318 34.0537 48.7744 34.1779C48.6894 34.2231 48.5523 34.2601 48.4571 34.2898C48.4378 33.8895 48.321 32.8527 48.3366 32.5398C48.3951 32.4565 48.4753 32.4477 48.5771 32.4159C48.6304 32.3995 49.3853 32.0997 49.4083 32.0859C49.6562 31.936 51.5164 31.3871 51.6115 31.2418Z" fill="#DB4431"/>
<path d="M48.4571 34.2898C48.4378 33.8895 48.321 32.8527 48.3366 32.5398C48.3951 32.4565 48.4753 32.4477 48.5771 32.4159C48.722 32.9771 48.7482 33.5989 48.7744 34.1779C48.6894 34.2231 48.5523 34.2601 48.4571 34.2898Z" fill="#1E1E1E"/>
<path d="M21.3462 46.0226C21.441 46.1385 21.89 47.0349 21.9506 47.1971C21.6209 47.4376 21.08 47.7022 20.7085 47.9006C20.2347 48.1537 19.7101 48.4669 19.2277 48.6898L19.1756 48.6892C19.0636 48.3048 18.8193 47.8283 18.6448 47.4595C19.5068 47.0147 20.5124 46.4977 21.3462 46.0226Z" fill="#1E1E1E"/>
<path d="M21.23 46.4261C21.3 46.4838 21.5173 46.9763 21.5755 47.0993C20.8361 47.5033 20.103 47.8856 19.376 48.313C19.252 48.1082 19.1273 47.8019 19.0463 47.5749C19.7845 47.2089 20.4979 46.8065 21.23 46.4261Z" fill="#F7F7F7"/>
<path d="M47.2852 33.595C47.4125 33.6658 47.8159 34.5468 47.8872 34.7283C47.6663 34.8599 47.1919 35.0673 46.9461 35.1831C46.3706 35.4567 45.7933 35.7264 45.2142 35.9921C45.1001 35.8931 44.6934 35.0213 44.5989 34.8301C45.4918 34.4128 46.3872 34.0011 47.2852 33.595Z" fill="#1E1E1E"/>
<path d="M47.1399 34.0026C47.2387 33.997 47.4726 34.4962 47.5284 34.5961C46.8077 34.9093 46.095 35.2403 45.3908 35.5888L45.368 35.5969C45.2789 35.5587 45.0774 35.0883 45.0195 34.9602C45.735 34.6588 46.4231 34.3033 47.1399 34.0026Z" fill="#F7F7F7"/>
<path d="M18.3643 39.4926C18.4308 39.4804 18.4055 39.4796 18.4708 39.5019C18.5781 39.6715 18.7106 40.4359 18.7594 40.6781C18.1046 40.9269 17.1551 41.2211 16.4717 41.4094L16.3802 41.4008C16.2733 41.2779 16.0888 40.3112 16.0697 40.1089C16.7596 39.8965 17.6453 39.6915 18.3643 39.4926Z" fill="#1E1E1E"/>
<path d="M18.1668 39.8724L18.2517 39.8629C18.3682 39.9632 18.3967 40.3195 18.4231 40.489C17.8393 40.6704 17.2575 40.8583 16.6779 41.0528L16.6148 41.0596C16.5377 40.9813 16.4458 40.4631 16.4146 40.3233L18.1668 39.8724Z" fill="#F7F7F7"/>
<path d="M16.8403 32.1814C17.6252 32.4323 18.3699 32.6099 19.1434 32.8425C19.0375 33.2597 18.8827 33.7217 18.7569 34.1398C18.0598 33.9764 17.1322 33.6858 16.4241 33.4899C16.5542 33.0511 16.693 32.6148 16.8403 32.1814Z" fill="#1E1E1E"/>
<path d="M17.0094 32.5585C17.5267 32.6795 18.2491 32.9183 18.7714 33.0747C18.7093 33.3174 18.657 33.5324 18.5707 33.7688C17.9735 33.5949 17.3603 33.4577 16.7758 33.28L17.0094 32.5585Z" fill="#F7F7F7"/>
<path d="M32.1414 19.6919C32.5217 19.6586 33.0386 19.681 33.4334 19.689C33.464 20.425 33.4679 21.4263 33.4423 22.1634C33.0236 22.1961 32.5973 22.1978 32.1772 22.2038C32.1697 21.3645 32.1343 20.5347 32.1414 19.6919Z" fill="#1E1E1E"/>
<path d="M32.4531 19.9612L33.1502 19.9712C33.1563 20.6074 33.174 21.2832 33.1557 21.9163C32.9366 21.9273 32.6778 21.9204 32.4556 21.92C32.4507 21.6109 32.4019 20.1646 32.4531 19.9612Z" fill="#F7F7F7"/>
<path d="M44.7035 26.2419C44.8858 26.3932 45.3227 27.0544 45.4653 27.2732C44.7848 27.7425 44.0922 28.2476 43.404 28.6981C43.2791 28.6827 42.7605 27.7962 42.6761 27.6352C43.3668 27.2177 44.0294 26.6976 44.7035 26.2419Z" fill="#1E1E1E"/>
<path d="M44.6537 26.6263C44.7319 26.6862 45.0061 27.0762 45.0821 27.1816C44.5293 27.5438 44.0282 27.9187 43.4624 28.2713L43.4527 28.273C43.3397 28.2216 43.131 27.8706 43.0571 27.7489C43.5975 27.3866 44.1299 27.0123 44.6537 26.6263Z" fill="#F7F7F7"/>
<path d="M39.2975 21.1837C39.62 21.3166 40.1255 21.6448 40.4334 21.8343C40.0151 22.4984 39.6243 23.1918 39.2256 23.8692L39.1723 23.9183C39.0335 23.911 38.3299 23.4623 38.1367 23.3487C38.313 22.9162 39.0425 21.6008 39.2975 21.1837Z" fill="#1E1E1E"/>
<path d="M39.4322 21.5429C39.629 21.6721 39.8324 21.7993 40.031 21.9265C39.7381 22.4602 39.3897 23.03 39.0829 23.5625C38.9828 23.5319 38.6302 23.3013 38.5197 23.233C38.8129 22.6717 39.1074 22.0849 39.4322 21.5429Z" fill="#F7F7F7"/>
<path d="M26.4733 20.7955C26.591 20.9332 27.279 22.7625 27.3792 23.0493C27.0941 23.2146 26.6334 23.505 26.3251 23.5786C26.1927 23.3445 25.9823 22.8436 25.8657 22.5849C25.7203 22.2624 25.4577 21.729 25.3644 21.4117C25.722 21.1856 26.0923 20.9799 26.4733 20.7955Z" fill="#1E1E1E"/>
<path d="M26.3292 21.2078C26.3551 21.2357 26.9702 22.7754 27.0261 22.9211C26.8721 23.0166 26.6258 23.1383 26.4598 23.2265C26.2035 22.7322 25.9736 22.0757 25.7162 21.541C25.9202 21.4152 26.1165 21.3167 26.3292 21.2078Z" fill="#F7F7F7"/>
<path d="M20.625 25.3309C20.82 25.4363 22.1004 26.7458 22.3205 26.9756C22.071 27.2688 21.8099 27.6095 21.5671 27.9125C21.061 27.5182 20.3396 26.7898 19.8152 26.3288C20.0231 26.0423 20.387 25.5866 20.625 25.3309Z" fill="#1E1E1E"/>
<path d="M20.6352 25.7361C20.7451 25.8064 21.7739 26.8281 21.9233 26.9723L21.5449 27.5166C21.0987 27.1131 20.6638 26.6973 20.241 26.2696C20.4031 26.0725 20.4957 25.9489 20.6352 25.7361Z" fill="#F7F7F7"/>
</g>
<defs>
<clipPath id="clip0_475_1859">
<rect width="60" height="60" fill="white"/>
</clipPath>
</defs>
</svg>
