<svg width="60" height="60" viewBox="0 0 60 60" fill="none" xmlns="http://www.w3.org/2000/svg">
<path d="M13.4943 2.18262C13.6648 2.1894 13.8595 2.24338 14.0227 2.29297C15.505 2.7492 16.9235 3.39245 18.2434 4.20703C20.3207 5.50831 21.8931 7.12371 23.0559 9.28711C24.3381 11.673 25.4445 14.1765 26.715 16.5664C28.0858 16.509 28.1928 16.9831 28.6984 18.0859C28.8732 18.4671 29.0631 18.8703 29.2395 19.252C29.5476 19.2659 29.9721 19.2296 30.2805 19.2002C31.2288 18.0718 31.5674 18.1696 32.9582 17.8018C33.8871 17.5533 34.8175 17.3104 35.7492 17.0732C37.1055 16.725 38.4453 16.287 39.8049 15.958C39.9523 15.9223 40.1061 15.8975 40.258 15.8994C40.8368 15.9069 42.9956 16.6871 43.5979 16.9482C45.3272 17.6981 46.6564 19.0495 47.3391 20.8066C47.7023 21.7416 47.8921 22.7369 47.9572 23.7363C48.0403 25.0131 47.9781 26.3102 47.9689 27.5889L47.9397 34.1064L47.9045 42.2344C47.9053 43.2256 47.9013 44.2168 47.8918 45.208C47.8781 46.7359 47.9608 48.1776 46.5061 49.1543C45.9763 49.5099 45.3195 49.7229 44.7248 49.9609C43.7231 50.3619 42.7174 50.7533 41.7082 51.1348C39.3315 52.0305 36.9056 52.9938 34.5432 53.9287C33.4324 54.3709 32.3185 54.806 31.2023 55.2344C30.736 55.4152 29.14 56.1099 28.7893 56.0703C28.1002 55.9924 26.1241 54.9048 25.4533 54.5762L23.632 53.6865C23.3098 53.5297 22.9655 53.3785 22.6555 53.2031C21.8701 52.7587 21.601 51.862 21.6164 51.0146C21.6285 50.3505 21.6241 49.6999 21.6232 49.0469L21.6281 43.5732L21.6359 27.1309C21.6586 24.7886 22.721 23.8643 24.2785 22.3359C24.1053 21.7169 23.4747 20.6117 23.1887 19.9844C22.7303 18.9789 22.4154 18.8297 23.5246 17.9873C22.831 16.573 22.0161 15.0935 21.3449 13.7041C19.8586 10.6274 18.9242 8.35382 15.7453 6.67285C15.0338 6.27967 14.2918 5.98689 13.5373 5.69531C12.9918 5.48449 12.2099 5.49843 12.051 4.86719C11.8 3.86817 12.4989 2.48286 13.4943 2.18262Z" fill="#DEDEDE"/>
<path d="M11.4449 4.83862C11.604 4.84489 11.7854 4.89566 11.9377 4.94194C13.3201 5.3674 14.6427 5.96723 15.8736 6.7269C17.8109 7.94044 19.2776 9.44612 20.3619 11.4637C21.5578 13.6888 22.5891 16.0239 23.7741 18.2528C25.0527 18.1991 25.1522 18.6411 25.6239 19.6698C25.7869 20.0253 25.9644 20.401 26.1288 20.7571C26.4162 20.7701 26.8118 20.7357 27.0994 20.7082C27.9839 19.656 28.2993 19.7472 29.5962 19.4042C30.4625 19.1724 31.3301 18.946 32.199 18.7249C33.4638 18.4001 34.7133 17.9915 35.9813 17.6847C36.1188 17.6514 36.2624 17.6283 36.4042 17.6301C36.9439 17.6371 38.9564 18.3649 39.5181 18.6084C41.1311 19.3077 42.3709 20.5682 43.0075 22.207C43.3463 23.079 43.5235 24.0065 43.5842 24.9386C43.6617 26.1293 43.6037 27.3388 43.5952 28.5313L43.5673 34.6097L43.5346 42.1891C43.5354 43.1137 43.5314 44.0382 43.5225 44.9627C43.5097 46.3875 43.5876 47.7317 42.231 48.6426C41.7369 48.9744 41.1239 49.1726 40.5691 49.3947C39.635 49.7686 38.6972 50.1333 37.7561 50.489C35.5397 51.3244 33.2779 52.223 31.0748 53.0948C30.0389 53.5073 29.0004 53.9133 27.9594 54.3128C27.5249 54.4813 26.0358 55.1293 25.7087 55.0923C25.066 55.0198 23.223 54.0047 22.5976 53.6983L20.8989 52.8687C20.5982 52.7225 20.2774 52.5817 19.9883 52.4181C19.2557 52.0035 19.0048 51.1673 19.0192 50.377C19.0305 49.7576 19.0271 49.151 19.0263 48.5419L19.0308 43.4382L19.0379 28.1041C19.059 25.9198 20.0497 25.0581 21.5022 23.6327C21.3407 23.0554 20.7526 22.0248 20.4858 21.4398C20.0583 20.5022 19.7642 20.3634 20.7986 19.5778C20.1517 18.2589 19.3926 16.8789 18.7666 15.5832C17.3805 12.714 16.5092 10.5939 13.5447 9.02624C12.881 8.65944 12.1887 8.38639 11.4849 8.1144C10.9761 7.91776 10.2474 7.93088 10.0995 7.34184C9.86543 6.4102 10.5166 5.11862 11.4449 4.83862Z" fill="#1E1E1E"/>
<path d="M40.2312 19.1681C40.9165 19.5528 41.5035 20.0894 41.993 20.6998C42.3875 21.1297 42.7225 21.8325 42.9251 22.3746C43.5874 24.1463 43.4734 26.0314 43.4652 27.8899L43.4294 33.4089L43.3921 41.8961C43.3882 43.2739 43.3991 44.6576 43.3846 46.0302C43.3761 46.833 43.0729 47.7928 42.4351 48.3093C41.7315 48.8793 40.5622 49.2407 39.7053 49.5792L34.8699 51.4461C32.5209 52.3802 30.1659 53.2989 27.8049 54.2021C27.3063 54.393 26.8116 54.6082 26.3225 54.8087C25.8683 54.995 25.2008 54.9615 24.8819 54.5548C24.3507 53.8778 24.4597 52.7701 24.4598 51.9673L24.4607 49.4659L24.4618 41.4128L24.4734 33.062L24.4693 30.572C24.4676 30.147 24.4352 29.5298 24.4865 29.119C24.5249 27.2246 25.5647 26.2885 26.6825 24.909C27.5362 23.8551 28.4161 22.6438 29.3511 21.6708C29.8251 21.9018 30.4175 22.3956 30.5983 22.9099C30.665 23.1161 30.654 23.3417 30.6962 23.5525C30.9024 24.5741 31.457 25.8383 32.5369 26.1792C32.9258 26.3018 33.1366 26.2271 33.504 26.1052C33.9666 25.9516 34.4301 25.7984 34.8942 25.6495L37.6181 24.7655C38.095 24.6111 38.9211 24.392 39.305 24.1572C40.3432 23.522 40.9682 22.047 40.2648 20.943C39.9563 20.4588 39.7106 20.3544 39.2007 20.2192C39.2284 20.1439 39.2582 20.0695 39.29 19.9959C39.4855 19.5534 39.8061 19.3359 40.2312 19.1681Z" fill="#DB4431"/>
<path d="M40.2312 19.1681C40.9165 19.5528 41.5035 20.0894 41.993 20.6998L41.9687 20.7355C41.6865 21.1576 41.77 21.6404 41.7132 22.1335C41.6077 23.0511 41.2675 23.8583 40.663 24.5566C40.0086 25.3126 39.2653 25.477 38.3542 25.7586L36.6096 26.3061L30.6515 28.1991C28.8552 28.7535 27.0786 29.3864 25.2798 29.9339C25.0165 30.0141 24.7562 30.086 24.4879 30.1474C24.4886 29.8498 24.503 29.4049 24.4865 29.119C24.5249 27.2246 25.5647 26.2885 26.6825 24.909C27.5363 23.8552 28.4162 22.6438 29.3511 21.6708C29.8251 21.9018 30.4175 22.3956 30.5983 22.9099C30.665 23.1161 30.654 23.3417 30.6962 23.5525C30.9024 24.5741 31.457 25.8383 32.5369 26.1792C32.9258 26.3018 33.1366 26.2271 33.504 26.1052C33.9666 25.9516 34.4301 25.7984 34.8942 25.6495L37.6181 24.7655C38.095 24.6111 38.9211 24.392 39.305 24.1572C40.3432 23.522 40.9682 22.047 40.2648 20.943C39.9563 20.4588 39.7106 20.3544 39.2007 20.2192C39.2285 20.1439 39.2582 20.0695 39.29 19.9959C39.4855 19.5534 39.8061 19.3359 40.2312 19.1681Z" fill="#F7F7F7"/>
<path d="M32.7816 44.5362C32.6924 44.5376 32.5864 44.5398 32.4983 44.532C32.2096 44.5049 31.9443 44.3616 31.7631 44.1351C31.3955 43.6742 31.4693 42.9904 31.468 42.4283L31.4679 40.7839L31.4714 38.7731C31.4726 38.3748 31.4572 37.9193 31.4972 37.528C31.5774 36.7548 32.0678 35.9582 32.8227 35.6824C33.6467 35.3814 34.5179 35.1063 35.3563 34.8421C35.7947 34.7039 36.2565 35.0606 36.515 35.3919C36.6537 35.3911 36.6322 35.3702 36.7313 35.4325C36.8209 35.6356 36.8615 36.0095 36.8668 36.2325C36.9091 37.9995 36.8627 39.7499 36.879 41.519C36.8883 42.5207 36.6269 43.3847 35.6246 43.8156C34.8961 44.1288 34.1256 44.3683 33.3896 44.6651C33.1498 44.7564 32.9412 44.7433 32.7816 44.5362Z" fill="#1E1E1E"/>
<path d="M36.515 35.3919C36.6537 35.3911 36.6322 35.3702 36.7313 35.4325C36.8209 35.6356 36.8615 36.0095 36.8668 36.2325C36.9091 37.9995 36.8627 39.7499 36.879 41.519C36.8883 42.5207 36.6269 43.3847 35.6246 43.8156C34.8961 44.1288 34.1256 44.3683 33.3896 44.6651C33.1498 44.7564 32.9412 44.7433 32.7816 44.5362C33.1347 44.4698 33.6706 44.2664 34.0045 44.1189C34.992 43.6826 36.0312 43.6215 36.4877 42.5193C36.574 42.3095 36.6252 42.087 36.6393 41.8607C36.6578 41.5704 36.639 41.1449 36.6373 40.8398L36.6325 39.0001C36.6319 38.2742 36.7396 35.9459 36.515 35.3919Z" fill="#F7F7F7"/>
<path d="M35.5321 34.9903C36.6526 35.0448 36.4797 36.2673 36.4754 37.0543L36.4676 39.0506L36.4702 40.8627C36.4725 41.5418 36.5504 42.2363 36.131 42.8176C35.9882 43.0142 35.8064 43.1791 35.5968 43.302C35.1953 43.5368 33.0589 44.3192 32.5928 44.3922C31.5201 44.2983 31.6112 43.2154 31.6139 42.4337L31.6184 40.862L31.6144 38.866C31.6117 37.5991 31.6014 36.1146 33.1806 35.7164C33.8749 35.5413 34.8612 35.064 35.5321 34.9903Z" fill="#F7F7F7"/>
<path d="M26.6667 33.8727C26.6059 34.7357 26.6433 35.9936 26.6443 36.8846L26.6478 42.1198L26.65 47.0549C26.648 48.0431 26.6393 49.0472 26.6698 50.035C26.6756 50.2264 26.7136 50.4952 26.8358 50.6494C26.9502 50.7938 27.2259 50.8466 27.2289 51.0259C26.9981 51.1781 26.6948 50.7479 26.6258 50.5549C26.5321 50.2926 26.51 49.985 26.4934 49.7074C26.4788 48.786 26.4865 47.858 26.4879 46.937L26.4865 42.1871L26.4848 36.8957C26.4848 35.9781 26.4827 35.0609 26.4896 34.1435C26.495 33.4219 26.9067 32.8789 27.5825 32.6418L36.1277 29.7156L39.245 28.6825C39.6393 28.5545 40.0667 28.3669 40.4686 28.2869C41.2097 28.1396 41.6499 28.9301 41.6579 29.5686C41.684 30.633 41.6844 31.6983 41.6859 32.7629L41.6485 39.7661L41.6407 43.3297C41.638 43.6358 41.6447 44.6648 41.5782 44.9108C41.6682 45.0714 41.6641 45.1733 41.6155 45.3544C41.3209 46.4522 40.2581 46.6891 39.2873 47.0737L36.4611 48.1699C34.62 48.9169 32.7743 49.6529 30.9244 50.3778C30.3923 50.5854 29.8635 50.8015 29.3306 51.0064C29.0329 51.1209 28.9576 51.1826 28.6798 51.005C28.6097 50.9995 28.6147 50.9978 28.5583 50.9543L28.5561 50.8993C28.6905 50.7497 29.6553 50.4029 29.8844 50.3098C30.8282 49.9217 31.7769 49.5457 32.7304 49.182C34.4537 48.5132 36.1394 47.8291 37.8769 47.1724L39.4468 46.5851C39.8066 46.4511 40.3765 46.2688 40.6868 46.0593C41.6904 45.3816 41.4746 44.0054 41.4795 42.9507L41.4946 39.1449L41.5359 32.7934C41.538 31.7143 41.5518 30.6083 41.5087 29.5304C41.4981 29.2666 41.4398 29.0335 41.2766 28.8211C41.1067 28.8832 40.8667 28.6873 40.6588 28.7009C40.3223 28.7229 39.9793 28.853 39.6602 28.9564C37.2943 29.7228 34.9543 30.5727 32.5987 31.3737L28.8728 32.6381C28.5206 32.7588 27.9438 32.9453 27.5996 33.0598C27.1021 33.2251 26.7942 33.8832 26.6829 33.9266L26.6667 33.8727Z" fill="#1E1E1E"/>
<path d="M26.6667 33.8727C26.897 32.8325 27.8141 32.7323 28.6743 32.4327C29.8989 32.003 31.127 31.5833 32.3586 31.1734C35.027 30.2738 37.6827 29.3211 40.3662 28.4634C40.7597 28.3376 41.0613 28.4776 41.2766 28.8211C41.1067 28.8832 40.8667 28.6873 40.6588 28.7009C40.3223 28.7229 39.9793 28.853 39.6602 28.9564C37.2943 29.7228 34.9543 30.5727 32.5987 31.3737L28.8728 32.6381C28.5206 32.7588 27.9438 32.9453 27.5996 33.0598C27.1021 33.2251 26.7942 33.8832 26.6829 33.9266L26.6667 33.8727Z" fill="#F7F7F7"/>
<path d="M41.5782 44.9108C41.6682 45.0714 41.6641 45.1733 41.6155 45.3544C41.3209 46.4522 40.2581 46.6891 39.2873 47.0737L36.4611 48.1699C34.62 48.9169 32.7743 49.6529 30.9244 50.3778C30.3923 50.5855 29.8635 50.8015 29.3306 51.0065C29.0329 51.1209 28.9576 51.1826 28.6798 51.005C28.8651 50.8754 29.2724 50.7338 29.4943 50.6429C30.1314 50.3798 30.7713 50.1236 31.414 49.8744L37.5937 47.4319C38.2634 47.1759 38.9348 46.9246 39.608 46.6778C40.8279 46.219 41.1224 46.1709 41.5782 44.9108Z" fill="#F7F7F7"/>
<path d="M27.8361 49.0982C27.7772 49.0649 27.781 49.0681 27.7496 49.0081C27.8923 48.6823 28.6056 47.5726 28.8263 47.2167C29.3936 46.3016 29.9684 45.2875 30.5409 44.3841C30.6289 44.3438 30.6041 44.3581 30.7246 44.3913C30.8411 44.4964 30.8713 44.5303 30.9025 44.692L31.0392 44.855C31.0946 44.9167 31.1704 44.9851 31.173 45.0732C31.1807 45.3407 28.8322 49.0675 28.485 49.6079L28.2552 49.3899L28.1358 49.3018C28.0219 49.2414 27.9391 49.1746 27.8361 49.0982Z" fill="#F7F7F7"/>
<path d="M31.0392 44.855C31.0946 44.9167 31.1704 44.9851 31.173 45.0732C31.1807 45.3407 28.8322 49.0675 28.485 49.6079L28.2552 49.3899C28.5365 49.0281 28.8913 48.4305 29.1483 48.0297C29.8099 46.9975 30.423 45.9166 31.0392 44.855Z" fill="#F7F7F7"/>
<path d="M30.9025 44.692L31.0392 44.855C30.423 45.9166 29.8099 46.9975 29.1483 48.0296C28.8913 48.4305 28.5365 49.0281 28.2552 49.3899L28.1358 49.3018C28.8898 48.0229 29.7948 46.8105 30.4505 45.4635C30.5793 45.1988 30.7694 44.9651 30.9025 44.692Z" fill="#1E1E1E"/>
<path d="M27.8361 49.0982C27.7772 49.0649 27.781 49.0681 27.7496 49.0081C27.8923 48.6823 28.6056 47.5726 28.8263 47.2167C29.3936 46.3016 29.9684 45.2875 30.5409 44.3841C30.6289 44.3438 30.6041 44.3581 30.7246 44.3913L28.5901 47.8655C28.2917 48.3472 28.2042 48.6517 27.8361 49.0982Z" fill="#1E1E1E"/>
<path d="M40.3871 30.47C40.4306 30.3694 40.3972 30.4068 40.4883 30.3514C40.6044 30.3656 40.5536 30.3434 40.643 30.427C40.6669 30.4914 40.6831 30.5536 40.647 30.6172C40.4509 30.9631 40.2113 31.3053 39.9985 31.6413L38.3028 34.2657C38.2022 34.4197 37.6861 35.2542 37.5918 35.3032C37.4945 35.264 37.5005 35.2424 37.4319 35.1331C37.3528 35.2384 37.351 35.2462 37.2319 35.2901L37.2063 35.2752C37.1974 35.1924 37.4208 34.8595 37.4688 34.7422L37.5116 34.658C37.7096 34.4322 38.1398 33.7318 38.3209 33.4559C38.9318 32.5251 39.5313 31.582 40.1524 30.6575C40.2434 30.522 40.2453 30.4971 40.3871 30.47Z" fill="#F7F7F7"/>
<path d="M37.5116 34.658C37.7096 34.4322 38.1398 33.7318 38.3209 33.4559C38.9318 32.5252 39.5313 31.582 40.1524 30.6575C40.2434 30.522 40.2453 30.4971 40.3871 30.47C40.3667 30.6996 39.829 31.4246 39.6787 31.6571C39.139 32.5066 38.5905 33.3504 38.0335 34.1886C37.9214 34.3593 37.5 34.9872 37.4319 35.1331C37.3528 35.2384 37.351 35.2462 37.2319 35.2901L37.2063 35.2752C37.1974 35.1924 37.4208 34.8595 37.4688 34.7422L37.5116 34.658Z" fill="#1E1E1E"/>
<path d="M37.1541 34.5681C37.1136 34.6201 37.0698 34.6126 37.0186 34.5983L37.0072 34.5409C37.209 34.1803 39.8262 30.1474 39.9357 30.0755L39.9996 30.1099C40.0714 30.1908 40.1304 30.2382 40.1506 30.3426C40.1014 30.5562 39.7844 31.0203 39.6501 31.2323C39.2757 31.8231 38.8972 32.4113 38.5146 32.9967C38.1714 33.5147 37.7426 34.0809 37.5116 34.658L37.4688 34.7422C37.3597 34.721 37.2497 34.6324 37.1541 34.5681Z" fill="#F7F7F7"/>
<path d="M37.1541 34.5681C37.1136 34.6201 37.0698 34.6126 37.0186 34.5983L37.0072 34.5409C37.209 34.1803 39.8262 30.1474 39.9357 30.0755L39.9996 30.1099C39.774 30.622 38.9761 31.8154 38.6241 32.3331C38.1663 33.0062 37.6169 33.9219 37.1541 34.5681Z" fill="#1E1E1E"/>
<path d="M42.7922 46.035C42.835 46.0484 42.8554 46.0605 42.8956 46.0801C43.0507 46.3705 42.7103 47.2194 42.5212 47.4785C42.3408 47.7257 42.1746 47.9326 41.9037 48.089C40.9474 48.6409 39.8722 48.9669 38.8494 49.3729C38.4319 49.536 37.5697 49.8973 37.1892 49.9765L37.106 49.8967C37.1189 49.7355 37.7957 49.5495 37.9731 49.4837L40.1059 48.6795C40.798 48.4159 42.0057 48.0304 42.3956 47.3731C42.5477 47.1193 42.6539 46.8408 42.7095 46.5503C42.7402 46.3908 42.717 46.1555 42.7922 46.035Z" fill="#F7F7F7"/>
<path d="M41.8844 32.4381C41.9477 32.4818 41.9276 32.4608 41.9633 32.5314C41.9648 34.5909 41.9428 36.7067 41.9571 38.7642C41.9615 39.3918 42.1298 43.7333 41.9926 43.9895L41.9467 43.9523C41.9175 43.7745 41.9283 43.3912 41.9273 43.192L41.9169 41.6776C41.8675 39.3739 41.8413 37.0699 41.8382 34.7658C41.8385 34.4326 41.8281 32.6883 41.8844 32.4381Z" fill="#F7F7F7"/>
<path d="M42.762 38.8852C42.8004 38.8938 42.8527 38.9109 42.89 38.922C42.933 38.9789 42.9395 39.0594 42.9367 39.1291C42.8659 40.8729 43.0079 42.701 42.932 44.4362C42.8184 44.4341 42.8251 44.4543 42.7601 44.3959C42.7353 44.2324 42.7451 43.7945 42.7446 43.6015L42.7419 42.1023L42.735 39.9802C42.7344 39.7256 42.7198 39.1057 42.762 38.8852Z" fill="#F7F7F7"/>
<path d="M42.743 29.8578L42.8261 29.9018C42.8881 30.0376 42.988 33.9441 42.9204 34.1372C42.8209 34.1084 42.8251 34.1261 42.761 34.0604C42.7356 33.8497 42.745 33.5848 42.745 33.3682C42.7451 32.2758 42.6921 31.1835 42.699 30.0912C42.6994 30.0149 42.7194 29.9301 42.743 29.8578Z" fill="#F7F7F7"/>
<path d="M37.4457 41.9087C37.6038 41.9427 38.0463 42.4152 38.1888 42.5459L39.4116 43.6722C39.6391 43.8837 39.8808 44.1025 40.0921 44.3299C40.1834 44.4281 40.1758 44.4273 40.189 44.544C39.9271 44.4816 38.0357 42.5449 37.6641 42.2497C37.5584 42.1657 37.4456 42.0507 37.4457 41.9087Z" fill="#1E1E1E"/>
<path d="M27.4385 34.0611C27.7645 34.169 29.5151 36.0073 29.9116 36.2715C30.0438 36.3596 30.1478 36.4471 30.1141 36.6068C29.8315 36.5068 28.8565 35.4571 28.5302 35.2144C28.4314 35.141 27.4314 34.205 27.4026 34.1486L27.4385 34.0611Z" fill="#1E1E1E"/>
<path d="M27.1879 20.83C27.5729 20.9112 28.7417 21.4143 29.1882 21.5865C28.3065 22.5919 27.4113 23.7888 26.5501 24.8222C26.1922 25.2517 25.2209 26.4268 24.9527 26.8633C24.748 27.1993 24.5966 27.5648 24.5038 27.9472C24.2717 28.8813 24.3181 29.8894 24.3156 30.8531L24.3129 33.5975L24.3112 41.5409L24.3047 49.4902L24.307 51.9561C24.3083 52.9201 24.1935 53.7062 24.7065 54.5614C24.036 54.2762 23.0184 53.7283 22.3458 53.3948C21.5976 53.0201 20.7622 52.6788 20.0382 52.2675C19.0798 51.723 19.1628 50.681 19.1669 49.7142L19.1697 48.0558L19.1731 42.3799L19.1834 32.6393L19.1865 29.6945C19.1819 26.6032 19.1862 26.0076 21.5486 23.8006C21.6593 23.9053 21.7807 24.0045 21.9278 24.0495C23.5536 24.5473 26.0203 23.241 26.6027 21.7063C26.5835 21.6098 26.5488 21.4968 26.5222 21.4007C26.7288 21.1264 26.9014 21.0079 27.1879 20.83Z" fill="#F7F7F7"/>
<path d="M20.0643 27.3593C20.2686 27.3601 20.6941 27.5411 20.9739 27.6799C21.6557 28.018 22.513 28.3541 23.1575 28.7571C23.17 28.7909 23.1826 28.8247 23.1951 28.8586C22.9402 28.8749 20.583 27.592 20.1643 27.5015C20.1043 27.4886 20.0874 27.414 20.0643 27.3593Z" fill="#1E1E1E"/>
<path d="M20.2433 33.8911L20.2602 33.892C20.4321 33.8992 22.9754 35.1432 23.0774 35.2619L23.066 35.363C22.8913 35.3436 20.6684 34.222 20.3522 34.053C20.2607 34.0041 20.2644 33.9732 20.2433 33.8911Z" fill="#1E1E1E"/>
<path d="M20.3051 32.3026C20.9228 32.538 22.4384 33.3158 23.0823 33.6504C23.118 33.6691 23.1017 33.7118 23.0975 33.7638C22.7492 33.681 20.7425 32.678 20.3002 32.4371C20.2704 32.4209 20.2957 32.3563 20.3051 32.3026Z" fill="#1E1E1E"/>
<path d="M20.2748 46.695C20.3771 46.6896 20.5718 46.7689 20.6547 46.8182C21.0107 47.0297 22.9569 47.8478 23.0954 48.1025C23.0211 48.1351 22.9791 48.1447 22.9006 48.1081C22.4896 47.9164 22.0996 47.7093 21.6925 47.5041C21.2554 47.2838 20.782 47.0695 20.3596 46.8229C20.3167 46.7978 20.2928 46.7387 20.2748 46.695Z" fill="#1E1E1E"/>
<path d="M20.2277 41.8277C20.4713 41.8563 21.3342 42.3081 21.6136 42.4526C21.8666 42.5832 22.9198 43.066 23.0492 43.2014L23.043 43.3059C22.8978 43.3312 20.6347 42.1273 20.3394 41.9795C20.2748 41.9471 20.2595 41.8909 20.2277 41.8277Z" fill="#1E1E1E"/>
<path d="M20.2898 43.4736C20.527 43.5057 22.5693 44.5438 22.9037 44.7327C23.0139 44.795 23.0368 44.808 23.0639 44.915C22.8034 44.9309 21.3516 44.0749 21.0169 43.9685C20.8642 43.9199 20.5012 43.7087 20.3499 43.6182C20.282 43.5777 20.2945 43.5403 20.2898 43.4736Z" fill="#1E1E1E"/>
<path d="M20.2853 30.7187C20.8224 30.9118 22.4599 31.7915 23.0624 32.0845C23.0976 32.1016 23.077 32.159 23.071 32.2164C22.8177 32.127 20.3296 30.9456 20.2548 30.821L20.2853 30.7187Z" fill="#1E1E1E"/>
<path d="M20.2677 38.6314C20.3632 38.6341 20.9174 38.8987 21.0175 38.9694C21.3329 39.1923 23.0336 39.8362 23.0944 40.115C22.9087 40.1167 22.7755 40.0294 22.6146 39.9434C21.861 39.541 21.0713 39.2001 20.331 38.7755C20.2621 38.736 20.2766 38.7023 20.2677 38.6314Z" fill="#1E1E1E"/>
<path d="M20.2412 40.2485C20.5391 40.2303 22.5262 41.37 22.9544 41.5443C23.0102 41.5671 23.0579 41.6358 23.0876 41.6885C23.0222 41.6988 22.9518 41.7105 22.8834 41.6765C22.0325 41.2543 21.1637 40.8325 20.331 40.3771C20.2874 40.3532 20.259 40.2877 20.2412 40.2485Z" fill="#1E1E1E"/>
<path d="M20.3107 48.2726C20.8239 48.4338 22.4466 49.3296 23.0255 49.6034C23.0809 49.6296 23.0674 49.6475 23.0779 49.7176C22.7678 49.7241 20.7408 48.6108 20.3252 48.4079C20.2939 48.3926 20.3096 48.3081 20.3107 48.2726Z" fill="#1E1E1E"/>
<path d="M20.2759 45.0818C20.5171 45.0738 22.5694 46.2005 22.9393 46.3668C23.0422 46.413 23.047 46.4555 23.0701 46.5401C22.9819 46.541 22.9016 46.5189 22.7833 46.4579C21.9696 46.0377 21.1103 45.6425 20.3168 45.1913C20.3032 45.1548 20.2896 45.1183 20.2759 45.0818Z" fill="#1E1E1E"/>
<path d="M20.2982 37.0286C20.8553 37.2264 22.3972 38.106 23.0196 38.3889C23.0778 38.4154 23.0728 38.4748 23.081 38.5325C22.861 38.5003 20.6554 37.3725 20.2959 37.1704C20.2704 37.1561 20.2922 37.073 20.2982 37.0286Z" fill="#1E1E1E"/>
<path d="M20.2753 35.4721C20.2855 35.4737 20.347 35.4811 20.3746 35.4946C21.2537 35.9255 22.1995 36.3182 23.0385 36.8171C23.0523 36.8491 23.066 36.8813 23.0797 36.9133C22.7913 36.9016 20.8553 35.8676 20.4584 35.6844C20.3254 35.623 20.3102 35.5937 20.2753 35.4721Z" fill="#1E1E1E"/>
<path d="M20.2787 49.8898C20.6612 49.8905 22.5353 51.0064 22.9963 51.2054C23.0312 51.2205 23.0746 51.2971 23.0931 51.3311C22.8711 51.3407 22.4899 51.1088 22.2856 51.0022C21.6567 50.6741 21.0175 50.3654 20.3916 50.0326C20.3297 49.9997 20.3068 49.9498 20.2787 49.8898Z" fill="#1E1E1E"/>
<path d="M12.1147 5.17172C13.738 5.70343 14.6253 6.14777 16.0497 7.03183C19.5782 9.22189 20.6209 12.3863 22.399 15.8859L23.3642 17.8044C23.5442 18.1646 23.8898 18.7927 23.9704 19.1528C23.6981 19.7484 23.3535 19.9572 22.7825 20.2188C22.2924 20.4112 21.8714 20.4258 21.3742 20.2484C21.0998 19.9076 20.2822 18.2197 20.0553 17.764L17.7479 13.1396C16.2847 10.2149 14.0526 8.80658 11.0447 7.80539C11.8663 7.2808 12.3309 6.12293 12.1147 5.17172Z" fill="#F7F7F7"/>
<path d="M36.836 20.9195C37.4044 21.0939 38.149 21.4266 38.7168 21.6461C39.1861 21.8275 39.9821 22.1005 40.3941 22.3258C40.04 24.0319 38.7067 24.249 37.291 24.7042C36.2398 25.035 35.1912 25.3744 34.1455 25.7224C33.4803 25.959 32.841 26.2932 32.1816 25.8529C31.5101 25.4046 31.1157 24.5995 30.9306 23.839L34.291 22.8375C35.6447 22.4299 36.499 22.5003 36.836 20.9195Z" fill="#F7F7F7"/>
<path d="M36.1461 20.6612C36.3255 20.6483 36.5477 20.774 36.694 20.8658C36.619 21.2838 36.4193 21.9007 36.0261 22.0949C35.5089 22.3504 34.823 22.516 34.2646 22.6812C33.279 22.9679 32.2949 23.2605 31.3127 23.5587L30.8895 23.6831C30.8423 23.4624 30.8333 23.3685 30.8243 23.1439C31.0943 22.5998 31.6765 21.9029 32.28 21.7355C33.5565 21.3813 34.8605 20.9695 36.1461 20.6612Z" fill="#F7F7F7"/>
<path d="M23.8489 18.4048C24.2933 18.3635 24.7816 18.4296 25.0429 18.8542C25.0938 18.937 25.1125 19.1091 25.0694 19.2069C24.7827 19.8581 24.01 20.2821 23.414 20.6116C22.5337 20.9987 21.5443 21.3379 20.6059 21.0186C19.8339 20.6382 20.435 20.0439 20.8799 19.7204C21.0356 19.9453 21.1708 20.3495 21.4382 20.4503C22.3213 20.7833 23.6545 20.1694 24.0656 19.3484C24.2013 19.0772 23.9697 18.6652 23.8489 18.4048Z" fill="#F7F7F7"/>
<path d="M11.3781 5.01274C12.6132 4.90514 11.878 7.29728 10.8343 7.68441C9.74126 7.84976 10.1713 5.63426 11.3781 5.01274Z" fill="#F7F7F7"/>
<path d="M38.4642 18.4622L38.518 18.5164C38.5072 18.5721 38.4997 18.597 38.4215 18.623C37.7486 18.8467 37.0532 19.0462 36.3744 19.2439L32.4366 20.3832C31.1549 20.752 30.6836 20.7329 29.6092 21.6047L29.5439 21.5502C29.5688 21.4507 29.7646 21.274 29.8485 21.2038C30.1628 20.941 30.5977 20.7384 30.9875 20.621C31.8508 20.3607 32.7227 20.1236 33.5903 19.8779L38.4642 18.4622Z" fill="#F7F7F7"/>
<path d="M23.7688 20.6052C23.8091 20.6218 23.8536 20.629 23.8722 20.6686C24.0706 21.0904 25.0304 22.8183 24.9896 23.1758L24.8976 23.1234C24.6841 22.7697 24.4906 22.229 24.2981 21.8476C24.1891 21.6315 23.763 20.7704 23.7688 20.6052Z" fill="#F7F7F7"/>
<path d="M22.6308 21.1066C22.6696 21.1175 22.7057 21.1192 22.7243 21.1499C22.9343 21.4941 23.8772 23.4757 23.8724 23.7207C23.8467 23.7101 23.7881 23.6894 23.7741 23.6615C23.3791 22.8705 23.0238 22.0498 22.6377 21.2521C22.6104 21.1956 22.6195 21.1574 22.6308 21.1066Z" fill="#F7F7F7"/>
<path d="M24.6758 19.8771C24.7026 19.8842 24.7653 19.8936 24.788 19.9363C25.1928 20.6976 25.6045 21.5025 25.9416 22.2954C25.9375 22.3268 25.9335 22.3581 25.9294 22.3894L25.851 22.3699C25.705 22.1709 24.6777 20.0245 24.6758 19.8771Z" fill="#F7F7F7"/>
<path d="M21.5172 21.3697C21.529 21.3752 21.5412 21.38 21.5526 21.3863C21.6945 21.4634 22.644 23.5871 22.7284 23.8617L22.6594 23.8764C22.5076 23.7662 21.5387 21.6072 21.5172 21.3697Z" fill="#F7F7F7"/>
<path d="M26.7436 20.901L26.7578 20.9086L26.7592 20.9416C26.6411 21.0509 26.5252 21.1626 26.4117 21.2767L26.3663 21.273C26.3123 21.1681 26.255 21.0342 26.2045 20.9249L26.7436 20.901Z" fill="#F7F7F7"/>
</svg>
