<svg width="60" height="60" viewBox="0 0 60 60" fill="none" xmlns="http://www.w3.org/2000/svg">
<path d="M33.0317 5C40.0634 5.99613 46.4098 9.73663 50.6736 15.3981C54.1613 20.0631 56.0308 25.7327 55.9996 31.5504C55.9982 32.6552 55.8685 33.4862 55.8013 34.5315C55.5153 34.0705 55.2288 33.606 54.9117 33.1656C53.4902 31.1904 51.3604 29.6126 49.0046 28.9457C48.9701 28.5254 48.7463 28.2446 48.2937 28.2243C47.8373 28.2037 47.3612 28.2437 46.8998 28.2432L45.0764 28.2315C44.7345 28.2289 44.3847 28.2165 44.0391 28.2518C43.8671 28.2694 43.7116 28.438 43.5309 28.4685C41.1407 28.8717 38.802 30.0055 37.1587 31.8034C37.151 31.8119 37.1255 31.8574 37.1179 31.8698L37.1526 31.9065C37.3123 31.8994 37.4804 31.6873 37.5913 31.5776C39.1056 30.0798 41.4768 28.9161 43.5778 28.6104C43.5731 29.124 43.5719 29.6375 43.5741 30.1511C41.0322 30.6258 38.6404 32.187 37.1702 34.3067C36.4534 35.3402 35.9238 36.4974 35.6459 37.7238C35.6063 37.8985 35.4807 38.3012 35.5739 38.4508L35.6263 38.4596C35.74 38.2246 35.8095 37.701 35.8858 37.4237C35.9874 37.0543 36.1045 36.7123 36.2488 36.357C37.3413 33.6924 39.5249 31.6208 42.249 30.6649C42.6838 30.5135 43.1291 30.3936 43.5813 30.3062L43.5883 35.6666C42.4157 36.0474 41.6152 36.608 41.0355 37.7312C40.8096 38.169 40.6435 38.6946 40.6144 39.1881C40.4867 39.1509 40.2242 39.2492 40.1035 39.3009L40.0862 39.3409C38.0208 39.8478 35.9745 40.4753 33.9102 41C33.4049 39.8655 32.8896 39.326 31.9087 38.6179C31.8801 37.9763 31.8905 37.2034 31.8874 36.5558C32.0109 36.5594 32.3717 36.5796 32.3986 36.504C32.4772 36.283 32.4405 35.3802 32.4395 35.1623L32.4377 32.9667L32.4384 25.9553C31.9965 25.9506 31.5544 25.9494 31.1124 25.9518L31.1067 24.6184C31.4877 24.494 31.7778 24.2573 31.8144 23.8323C31.8344 23.5816 31.7508 23.3335 31.5829 23.1457C31.201 22.7235 30.5826 22.7832 30.0387 22.7611L30.0303 22.1459C30.9098 21.9869 31.8695 21.9032 32.7296 21.659C32.9573 21.5904 33.2749 21.3493 33.3586 21.1243C33.8269 19.8657 30.8238 19.4887 30.087 19.1636C30.0201 19.0741 30.0386 19.1227 30.0279 19.013C30.3566 18.687 32.8838 18.9181 33.361 17.9804C33.4396 17.8223 33.4512 17.6395 33.3934 17.4728C33.1073 16.6556 30.7469 16.4682 30.0483 16.1233C30.0042 16.0252 30.0193 15.9188 30.0188 15.8033C30.7566 15.6725 31.4982 15.5869 32.2392 15.4429C32.8062 15.3327 33.5863 15.0461 33.3934 14.3109C33.2583 13.8258 32.7216 13.7582 32.3347 13.5814C31.8203 13.3463 31.322 13.1278 30.7754 12.9769C30.5294 12.9089 30.2573 12.9319 30.028 12.8308C29.9942 12.8158 30.003 12.7506 30 12.7128C30.1221 12.4896 32.6483 12.488 33.2085 11.8646C33.3428 11.7151 33.4304 11.5093 33.4123 11.3062C33.394 11.1002 33.2735 10.9166 33.1157 10.7879C32.8224 10.5486 31.4791 10.0631 31.0759 9.96565C30.8378 9.90804 30.2256 9.83441 30.0524 9.697C30.0442 9.63381 30.0329 9.5832 30.0507 9.52073C30.081 9.41435 32.2818 9.13122 32.5796 9.06151C32.7295 9.02644 32.8756 8.97417 33.0069 8.89313C33.1991 8.77447 33.3548 8.59321 33.4017 8.36852C33.4422 8.1741 33.3925 7.97694 33.2771 7.81657C33.0263 7.46794 32.6108 7.36572 32.2108 7.30342C32.271 7.27423 32.3306 7.24379 32.3895 7.21223C33.3263 6.711 33.5316 5.92612 33.0317 5Z" fill="#DEDEDE"/>
<path d="M28.2966 3.28382C28.3264 2.87473 28.4079 2.49179 28.6653 2.16573C29.4977 1.11111 31.2467 1.40441 31.6185 2.73357C31.6717 2.92355 31.6804 3.08964 31.6965 3.28237C32.2143 3.2897 33.4893 3.19465 33.8568 3.44352C34.0462 3.57322 34.1732 3.77586 34.2072 4.00288C34.2417 4.22808 34.1816 4.45752 34.0411 4.6369C33.7761 4.97825 33.4211 5.00506 33.0337 5.05077C33.4428 5.22791 33.5676 5.3113 33.8697 5.63805C34.3617 6.55266 34.1596 7.3278 33.2375 7.8228C33.1795 7.85397 33.1209 7.88403 33.0616 7.91286C33.4554 7.97438 33.8644 8.07534 34.1113 8.41963C34.2248 8.57801 34.2738 8.77272 34.2339 8.96473C34.1877 9.18663 34.0345 9.36563 33.8453 9.48282C33.7161 9.56286 33.5722 9.61448 33.4247 9.64911C33.1315 9.71795 30.9651 9.99756 30.9353 10.1026C30.9178 10.1643 30.9289 10.2143 30.937 10.2767C31.1075 10.4124 31.7101 10.4851 31.9444 10.542C32.3413 10.6383 33.6637 11.1177 33.9523 11.354C34.1076 11.4812 34.2263 11.6624 34.2443 11.8659C34.2622 12.0665 34.1759 12.2697 34.0437 12.4174C33.4923 13.0331 31.0056 13.0346 30.8854 13.255C30.8884 13.2923 30.8797 13.3568 30.913 13.3716C31.1386 13.4715 31.4065 13.4487 31.6486 13.5158C32.1868 13.6649 32.6772 13.8806 33.1836 14.1129C33.5644 14.2875 34.0928 14.3542 34.2257 14.8332C34.4156 15.5593 33.6477 15.8424 33.0896 15.9512C32.3601 16.0935 31.6302 16.178 30.9039 16.3072C30.9044 16.4213 30.8896 16.5263 30.933 16.6232C31.6206 16.9638 33.9441 17.1489 34.2257 17.9559C34.2826 18.1205 34.2712 18.3011 34.1938 18.4572C33.7241 19.3832 31.2364 19.155 30.9128 19.477C30.9234 19.5854 30.9052 19.5373 30.971 19.6257C31.6963 19.9468 34.6525 20.3191 34.1915 21.562C34.1091 21.7843 33.7964 22.0223 33.5723 22.0901C32.7257 22.3313 31.7809 22.4139 30.9152 22.571L30.9235 23.1785C31.4589 23.2004 32.0676 23.1414 32.4435 23.5584C32.6088 23.7438 32.6911 23.9888 32.6714 24.2364C32.6354 24.6561 32.3498 24.8899 31.9748 25.0127L31.9804 26.3296C32.4155 26.3272 32.8506 26.3285 33.2857 26.3331L33.285 33.2574L33.2867 35.4257C33.2877 35.6409 33.3238 36.5325 33.2464 36.7508C33.22 36.8254 32.8649 36.8054 32.7432 36.8019C32.7463 37.4415 32.7361 38.2047 32.7642 38.8383C33.7298 39.5377 34.237 40.0705 34.7344 41.1909C36.7664 40.6727 38.7807 40.053 40.8138 39.5524L40.8308 39.5129C40.9497 39.4618 41.208 39.3648 41.3337 39.4015L41.3569 39.4805C41.4857 39.5172 43.6239 38.9028 43.9298 38.8406C43.8262 39.6282 43.9119 40.2284 44.3251 40.9167C44.3416 40.9441 44.2816 41.3023 44.2745 41.3681C43.4562 41.6242 42.3609 41.8612 41.6191 42.1273C41.573 42.2863 41.2874 42.3492 41.1342 42.3897C40.4164 42.6353 39.5845 42.8845 38.8479 43.0664C37.6046 43.3733 36.2737 43.861 35.0282 44.1105C34.7763 45.0351 34.5813 45.5271 33.966 46.2929C31.6404 49.1875 27.0288 48.7853 25.3872 45.4104C25.2119 45.05 25.108 44.711 24.9967 44.3196C24.1136 44.1076 23.2232 43.7843 22.344 43.5458C22.1699 43.4987 21.9716 43.4395 21.8047 43.3763C21.858 43.2987 21.853 43.2942 21.932 43.2473C22.1016 43.2737 22.7003 43.4677 22.896 43.5251C23.5808 43.7234 24.2645 43.9252 24.9473 44.1304C24.784 43.0255 24.7971 42.5176 25.1698 41.4456C23.9778 41.076 22.7838 40.7131 21.5878 40.3568C21.2653 40.259 20.2833 39.9816 20.0518 39.8732C19.9896 39.7825 20.011 39.835 20.021 39.6975C21.731 40.2368 23.5101 40.7592 25.2314 41.2807C25.6642 40.1615 26.3497 39.455 27.3131 38.7843C27.322 38.1345 27.3107 37.4589 27.3076 36.807C27.0664 36.814 26.7594 36.8974 26.7455 36.5677C26.7279 36.1518 26.7286 35.7367 26.726 35.3204L26.7199 32.9392L26.7193 26.335C27.1525 26.3177 27.6578 26.329 28.0963 26.3283L28.0996 25.0114C27.8436 24.9514 27.6829 24.913 27.5039 24.6928C27.3748 24.5347 27.3166 24.3305 27.3429 24.1281C27.3797 23.8298 27.5402 23.6772 27.7583 23.509C27.1251 23.4046 25.8687 23.2165 25.8611 22.3206C25.8544 21.5329 26.9177 21.3888 27.4949 21.2893C27.7181 21.2509 28.9458 21.1025 29.0466 21.0016C28.8949 20.7577 26.5285 20.5615 25.9771 19.6168C25.8698 19.4322 25.8415 19.212 25.8988 19.0063C26.2023 17.9384 28.9273 18.1918 29.0196 17.8375C28.9242 17.7565 28.6585 17.7181 28.4926 17.6676C27.7549 17.4432 25.5545 17.0234 25.8744 15.8791C26.1145 15.0206 27.8354 15.0663 28.546 14.8789C28.6841 14.8425 28.9125 14.843 29.0668 14.7744L29.0872 14.7199C29.0292 14.5506 28.5089 14.4998 28.3261 14.4537C27.9526 14.3984 27.6544 14.2448 27.2829 14.1773C26.5459 14.0435 25.3922 13.2565 26.0692 12.4469C26.1375 12.3652 26.4261 12.1708 26.5482 12.1317C27.3454 11.8764 28.292 11.802 29.1108 11.6491C28.1261 11.2805 26.2508 11.1927 25.8552 9.90422C25.7599 9.50133 26.1347 9.09973 26.4981 8.9836C27.2453 8.74471 28.1839 8.6011 28.9622 8.50366C28.3568 8.37411 27.7619 8.23676 27.1636 8.06731C26.5986 7.90723 26.0861 7.55081 25.9034 6.96668C25.7594 6.50666 25.8642 6.10512 26.0742 5.69385C26.3299 5.34241 26.4643 5.26699 26.8376 5.06879C26.2676 5.00819 25.7899 4.76327 25.7229 4.11416C25.687 3.76515 26.0301 3.37155 26.3679 3.32657C26.9805 3.24501 27.67 3.28193 28.2966 3.28382Z" fill="#1E1E1E"/>
<path d="M41.3337 39.4015L41.3569 39.4805C41.4857 39.5172 43.6239 38.9028 43.9298 38.8406C43.8262 39.6283 43.9119 40.2284 44.3251 40.9167C44.3416 40.9441 44.2816 41.3023 44.2745 41.3681C43.4562 41.6242 42.3609 41.8612 41.6191 42.1273C41.573 42.2863 41.2874 42.3492 41.1342 42.3897C41.0956 42.3613 41.0221 42.2998 40.9714 42.3127C39.643 42.6525 38.3282 43.0671 37.0025 43.4189C36.3509 43.5919 35.7238 43.7789 35.0666 43.9161C35.2239 42.9385 35.0735 42.248 34.8053 41.3251C36.4484 40.9094 38.0852 40.4689 39.715 40.0039C39.8986 39.9533 40.7471 39.7454 40.822 39.6619L40.8138 39.5524L40.8308 39.5129C40.9497 39.4618 41.208 39.3648 41.3337 39.4015Z" fill="#F7F7F7"/>
<path d="M29.6084 38.2063C32.3347 37.9984 34.7119 40.0434 34.9139 42.7702C35.1157 45.497 33.0655 47.8697 30.3382 48.0654C27.6195 48.2606 25.2559 46.2183 25.0546 43.5C24.8534 40.7817 26.8906 38.4136 29.6084 38.2063Z" fill="#F7F7F7"/>
<path d="M29.8452 39.0744C32.0829 38.9916 33.9652 40.7362 34.0525 42.9738C34.1397 45.2113 32.3989 47.0971 30.1615 47.1889C27.9177 47.2808 26.0254 45.534 25.9379 43.2901C25.8504 41.0462 27.601 39.1573 29.8452 39.0744Z" fill="#1E1E1E"/>
<path d="M29.5663 39.2661C31.6973 39.0263 33.6203 40.5564 33.8654 42.6868C34.1103 44.8172 32.5848 46.7439 30.455 46.9941C28.318 47.2451 26.3832 45.7132 26.1374 43.5755C25.8915 41.4379 27.4281 39.5068 29.5663 39.2661Z" fill="#F7F7F7"/>
<path d="M29.8809 42.0302C30.4642 41.9292 31.019 42.3199 31.1203 42.9032C31.2216 43.4865 30.831 44.0415 30.2478 44.143C29.6643 44.2446 29.1089 43.8537 29.0076 43.2702C28.9062 42.6866 29.2972 42.1314 29.8809 42.0302Z" fill="#1E1E1E"/>
<path d="M26.8939 26.4934C27.5869 26.4599 28.4866 26.4853 29.1974 26.4861L33.1253 26.4979L33.1203 36.6485L26.9087 36.6365C26.8784 36.2521 26.8927 35.7296 26.8921 35.3317L26.8905 33.0156C26.8898 30.8525 26.8697 28.6529 26.8939 26.4934Z" fill="#F7F7F7"/>
<path d="M27.3078 5.22803C29.0689 5.19754 31.066 5.22688 32.8335 5.24376C34.1338 5.25618 34.5268 7.57441 32.7087 7.76917C31.7239 7.79314 30.6656 7.74984 29.6676 7.77427C29.1334 7.7874 27.5204 7.82654 27.0585 7.75142C26.8372 7.7162 26.6303 7.61958 26.4611 7.47263C26.2039 7.25156 26.045 6.93726 26.0197 6.599C25.9603 5.79402 26.5352 5.27117 27.3078 5.22803Z" fill="#F7F7F7"/>
<path d="M32.7426 8.097C33.666 7.92527 34.7751 8.90671 33.5287 9.43663C33.3005 9.53367 32.7629 9.60046 32.4969 9.64458C31.9628 9.73423 31.4279 9.81878 30.8923 9.89818C29.7103 10.0742 28.5216 10.2757 27.3415 10.4444C26.6824 10.5363 25.6395 10.1645 26.1488 9.43031C26.484 8.94714 28.1665 8.78988 28.7447 8.69577C30.0737 8.47283 31.4066 8.2732 32.7426 8.097Z" fill="#F7F7F7"/>
<path d="M33.0698 17.4731C34.174 17.5075 34.5266 18.4832 33.3958 18.8346C33.052 18.9414 32.6188 18.9974 32.2579 19.0532C30.5437 19.3183 28.8317 19.6291 27.1087 19.8304C26.8072 19.8452 26.5091 19.8678 26.2577 19.6683C25.9761 19.4448 25.9607 19.0864 26.1833 18.8156C26.3119 18.6547 26.5301 18.5517 26.7286 18.5022C27.5183 18.3052 28.3594 18.1968 29.1614 18.0624C29.9541 17.929 30.7476 17.8013 31.5421 17.6789C32.025 17.604 32.5902 17.5051 33.0698 17.4731Z" fill="#F7F7F7"/>
<path d="M32.8579 11.2613C33.9834 11.0603 34.6495 12.2549 33.4296 12.5831C32.781 12.7576 31.9676 12.8631 31.2935 12.9718C30.5269 13.0922 29.7593 13.2062 28.9908 13.3139C28.43 13.3966 27.8435 13.4988 27.2825 13.5526C26.1043 13.6948 25.4575 12.7904 26.6625 12.2555C27.0404 12.0877 28.1332 11.9723 28.6018 11.8988C30.0053 11.6784 31.4459 11.427 32.8579 11.2613Z" fill="#F7F7F7"/>
<path d="M32.8912 14.3677C33.3124 14.338 33.9798 14.4144 34.0686 14.9556C34.1375 15.3748 33.705 15.6234 33.3491 15.7153C32.5502 15.9215 31.7063 16.0001 30.8917 16.1329C29.6637 16.325 28.4296 16.5465 27.1945 16.6837C26.9451 16.7384 26.395 16.6763 26.2369 16.492C25.3301 15.4348 27.328 15.2419 27.8434 15.156L29.6204 14.8653C30.5877 14.7123 31.9554 14.4447 32.8912 14.3677Z" fill="#F7F7F7"/>
<path d="M32.8503 20.6356C33.9414 20.4789 34.6387 21.4732 33.525 21.9215C33.0775 22.1016 32.0756 22.2198 31.572 22.2998C30.1273 22.5343 28.6776 22.7362 27.2237 22.9052C26.9123 22.9358 26.5941 22.974 26.3155 22.7943C25.7183 22.3952 26.089 21.7932 26.6565 21.6318C26.8658 21.5723 27.0561 21.5272 27.2758 21.492C27.8065 21.4071 28.3372 21.3249 28.8678 21.2425C30.1937 21.0297 31.5212 20.8274 32.8503 20.6356Z" fill="#F7F7F7"/>
<path d="M26.5432 3.46365C26.9892 3.43227 27.5213 3.44687 27.9727 3.45011C29.7427 3.46315 31.5121 3.43389 33.282 3.45649C34.2305 3.46861 34.2945 4.62 33.4531 4.82616C33.1389 4.87904 32.5464 4.86146 32.2064 4.86061L30.2263 4.85818L27.8975 4.86244C27.4812 4.86373 27.0691 4.86892 26.6513 4.85616C26.084 4.83884 25.6911 4.2382 26.0199 3.74248C26.139 3.56287 26.3415 3.5001 26.5432 3.46365Z" fill="#F7F7F7"/>
<path d="M27.4903 36.8022C29.1249 36.7665 30.9377 36.7969 32.5792 36.8027L32.5819 38.7476C32.4545 38.6659 32.3154 38.5964 32.1814 38.5254C30.6029 37.7931 29.0096 37.8661 27.4888 38.6916C27.4818 38.0618 27.4823 37.432 27.4903 36.8022Z" fill="#F7F7F7"/>
<path d="M31.1913 23.5683C31.5339 23.5572 31.8404 23.54 32.1792 23.5951C32.7188 23.9523 32.5728 24.6977 31.9611 24.8206C31.7111 24.8708 31.2063 24.8398 30.9291 24.8392L28.8821 24.8337C28.5567 24.8388 27.902 24.9006 27.6881 24.6568C27.3281 24.2464 27.5196 23.653 28.1015 23.6059C28.4949 23.5741 28.8266 23.5844 29.2075 23.5847C29.8688 23.5901 30.5302 23.5846 31.1913 23.5683Z" fill="#F7F7F7"/>
<path d="M28.2724 25.0159L31.8118 25.0058L31.8147 26.3083L28.2686 26.3181C28.2588 25.8898 28.2684 25.4456 28.2724 25.0159Z" fill="#F7F7F7"/>
<path d="M29.8396 1.70739C30.8681 1.65542 31.4709 2.27864 31.5083 3.28122L30.7747 3.28101C30.695 2.72209 30.681 2.56316 30.1119 2.40473C29.5021 2.35627 29.2549 2.74737 29.2303 3.29993L28.4839 3.28919C28.5236 2.41419 28.9406 1.83593 29.8396 1.70739Z" fill="#F7F7F7"/>
<path d="M30.556 19.4924C30.6098 19.4825 30.6493 19.4811 30.7038 19.477C30.7737 19.5704 30.7403 20.5918 30.7383 20.7882C30.2788 20.8491 29.8204 20.9183 29.3634 20.9958C29.2569 21.0084 29.2981 21.0235 29.2198 20.9831C29.1881 20.6954 29.2113 20.016 29.2138 19.6997C29.5678 19.6207 30.1713 19.5529 30.556 19.4924Z" fill="#F7F7F7"/>
<path d="M30.5752 10.1177C30.652 10.1038 30.6242 10.1023 30.7011 10.1241C30.7878 10.3266 30.7611 11.1158 30.7601 11.3848C30.3493 11.4649 29.8863 11.5161 29.4657 11.5904L29.2618 11.6136C29.1942 11.5182 29.2208 10.5193 29.2216 10.3213C29.6238 10.2428 30.1632 10.1792 30.5752 10.1177Z" fill="#F7F7F7"/>
<path d="M30.5782 16.3582C30.6939 16.3443 30.6522 16.3284 30.7396 16.3679C30.7759 16.5945 30.7528 17.3949 30.7502 17.6555C30.305 17.6957 29.8624 17.7607 29.4244 17.85C29.3676 17.8572 29.324 17.8593 29.2666 17.863C29.1912 17.7691 29.2149 16.7862 29.2147 16.5894C29.6687 16.5088 30.1231 16.4317 30.5782 16.3582Z" fill="#F7F7F7"/>
<path d="M30.6579 13.2537L30.716 13.2489C30.7972 13.3763 30.748 14.3168 30.7388 14.5214C30.2568 14.5802 29.8076 14.6632 29.3299 14.7516C29.2869 14.7527 29.3117 14.7563 29.2582 14.7282C29.2163 14.5707 29.2297 13.6807 29.2297 13.4742C29.7053 13.3973 30.1814 13.3239 30.6579 13.2537Z" fill="#F7F7F7"/>
<path d="M30.6849 22.6277L30.7048 22.6295C30.7619 22.7383 30.7108 23.1686 30.7716 23.4105C30.2942 23.4218 29.7977 23.4169 29.3188 23.4188C29.2704 23.4184 29.2973 23.4238 29.2418 23.3889C29.2087 23.2324 29.2219 23.0064 29.2239 22.839C29.7124 22.7788 30.1995 22.7084 30.6849 22.6277Z" fill="#F7F7F7"/>
<path d="M29.8249 2.61276C30.3999 2.56061 30.5475 2.72767 30.5925 3.27768L30.271 3.28496C30.0361 3.2803 29.5942 3.37181 29.4572 3.18653C29.3743 2.88669 29.5883 2.74313 29.8249 2.61276Z" fill="#DB4431"/>
<path d="M29.2654 8.00449C29.6025 8.00145 29.9423 7.99043 30.2789 7.99465C30.4395 7.99664 30.6868 7.96635 30.7092 8.15309C30.6562 8.22228 30.6632 8.20066 30.5503 8.22123C30.1367 8.27285 29.6903 8.36795 29.2613 8.42531L29.2654 8.00449Z" fill="#F7F7F7"/>
<path d="M28.703 22.8649C28.8542 22.8499 28.9168 22.8411 29.0663 22.8575L29.0537 22.8849C28.916 22.9119 28.8455 22.9199 28.7094 22.9028L28.703 22.8649Z" fill="#1E1E1E"/>
<path d="M44.2507 28.9552C42.1826 29.257 39.8485 30.4063 38.358 31.8855C38.2488 31.9938 38.0833 32.2033 37.9261 32.2103L37.8919 32.1741C37.8994 32.1619 37.9245 32.1169 37.9321 32.1085C39.5497 30.3329 41.8518 29.2132 44.2046 28.815C44.3825 28.7849 44.5356 28.6184 44.7049 28.601C45.045 28.5661 45.3894 28.5785 45.726 28.581L47.5208 28.5926C47.975 28.593 48.4436 28.5535 48.8929 28.5738C49.3384 28.5939 49.5587 28.8712 49.5927 29.2863C51.9116 29.9449 54.0081 31.5032 55.4074 33.4537C55.7195 33.8887 56.0015 34.3474 56.283 34.8027C56.6153 35.4758 56.8548 35.931 57.1078 36.6456C57.9364 38.9861 57.9812 41.8496 57.1899 44.2092C56.1835 47.2658 53.9799 49.7831 51.0834 51.1853C49.787 51.8234 48.0054 52.3441 46.5494 52.3544C43.6057 52.3663 40.8581 51.4435 38.5939 49.543C38.4135 49.3916 37.6316 48.7713 37.6701 48.5713L37.7351 48.5401C37.82 48.5725 37.9173 48.7118 37.9965 48.7888C39.8553 50.5949 42.2553 51.7919 44.8374 52.09C45.5396 52.171 46.0749 52.1793 46.7782 52.1781C47.4597 51.5214 48.2134 50.9055 48.8717 50.2008C49.2445 49.8214 49.6078 49.39 49.9659 49.0012C52.3781 46.3826 54.3033 43.5288 55.2628 40.0601C55.3694 39.6748 55.4952 39.06 55.6376 38.6965L55.6595 38.6421C54.8816 35.077 52.9253 32.6422 49.5845 31.1786C49.5924 32.9797 49.5577 34.8806 49.5923 36.6718C50.4837 37.298 51.1272 38.3708 51.3148 39.44C51.5232 40.6362 51.2453 41.8661 50.543 42.8566C50.2669 43.2472 49.9545 43.5568 49.6161 43.8912C49.6101 45.0245 49.6097 46.1578 49.6149 47.2911C49.6166 47.8383 49.6299 48.3874 49.6071 48.9341C49.6268 49.2413 49.3567 49.4895 49.0449 49.503C47.734 49.5596 46.4028 49.5075 45.0884 49.5189C44.7846 49.5215 44.3571 49.4106 44.3188 49.0423C44.2695 48.5684 44.2928 48.0442 44.2935 47.5636L44.2935 44.6102C43.2242 44.2626 42.3596 43.6478 41.8054 42.6335C41.7399 42.5136 41.641 42.2585 41.6191 42.1273C42.3609 41.8612 43.4562 41.6242 44.2745 41.3681C44.2816 41.3023 44.3416 40.9441 44.325 40.9167C43.9119 40.2284 43.8262 39.6282 43.9298 38.8406C43.6239 38.9028 41.4857 39.5171 41.3569 39.4805L41.3337 39.4015C41.3624 38.9141 41.5259 38.395 41.7483 37.9626C42.3189 36.8534 43.1068 36.2998 44.2611 35.9238L44.2543 30.6299C43.8091 30.7162 43.3708 30.8347 42.9428 30.9841C40.2613 31.9281 38.1118 33.9741 37.0365 36.6055C36.8944 36.9564 36.7792 37.2942 36.6791 37.659C36.604 37.9328 36.5356 38.4499 36.4237 38.682L36.3721 38.6733C36.2804 38.5256 36.404 38.1279 36.443 37.9554C36.7165 36.7442 37.2378 35.6014 37.9434 34.5807C39.3906 32.4874 41.745 30.9455 44.2472 30.4767C44.2449 29.9695 44.2461 29.4624 44.2507 28.9552Z" fill="#1E1E1E"/>
<path d="M55.7299 38.2373C55.9896 37.722 56.1765 35.8652 56.3243 35.2357C57.7317 37.9132 57.9745 41.1795 57.0744 44.0594C56.1308 47.0279 54.0415 49.4971 51.27 50.9189C50.0831 51.5322 48.1237 52.1998 46.7783 52.1781C47.4597 51.5214 48.2135 50.9055 48.8717 50.2008C49.2445 49.8214 49.6078 49.39 49.9659 49.0012C52.3781 46.3826 54.3033 43.5288 55.2628 40.0601C55.3694 39.6748 55.4953 39.06 55.6376 38.6965L55.6595 38.6421C55.745 39.1105 55.7983 39.5842 55.819 40.0598C55.8279 40.249 55.7794 40.6415 55.8936 40.7771L55.9594 40.7607C56.1129 40.5076 55.8103 38.6204 55.7299 38.2373Z" fill="#F7F7F7"/>
<path d="M46.6544 36.6242C48.1571 36.5597 49.4298 37.721 49.5028 39.2234C49.5758 40.7257 48.4217 42.0049 46.9197 42.0864C45.4058 42.1686 44.114 41.0032 44.0405 39.4887C43.9669 37.9743 45.1396 36.6892 46.6544 36.6242Z" fill="#F7F7F7"/>
<path d="M46.5986 37.4402C47.649 37.3441 48.5787 38.1172 48.6758 39.1675C48.7729 40.2179 48.0006 41.1483 46.9504 41.2464C45.8987 41.3446 44.9668 40.5711 44.8696 39.5194C44.7723 38.4676 45.5467 37.5364 46.5986 37.4402Z" fill="#1E1E1E"/>
<path d="M46.6606 37.5918C47.629 37.5276 48.4659 38.2609 48.5295 39.2293C48.593 40.1977 47.8592 41.0341 46.8908 41.097C45.9232 41.1599 45.0878 40.4269 45.0243 39.4594C44.9607 38.4919 45.6932 37.656 46.6606 37.5918Z" fill="#F7F7F7"/>
<path d="M46.5 38.484C46.9712 38.3331 47.476 38.5897 47.6318 39.0593C47.7878 39.5289 47.5366 40.0364 47.0688 40.1974C46.7616 40.303 46.4214 40.2355 46.1778 40.0206C45.9343 39.8056 45.8249 39.4764 45.8916 39.1585C45.9583 38.8406 46.1906 38.5829 46.5 38.484Z" fill="#1E1E1E"/>
<path d="M46.569 38.622C46.9685 38.5078 47.3848 38.7391 47.4989 39.1386C47.613 39.5381 47.3815 39.9544 46.982 40.0683C46.5827 40.1821 46.1667 39.9508 46.0527 39.5515C45.9387 39.1523 46.1698 38.7362 46.569 38.622Z" fill="#DB4431"/>
<path d="M49.5941 36.8679C50.3374 37.3234 51.0191 38.6026 51.1645 39.4468C51.3818 40.7087 51.0725 41.7981 50.3589 42.8421C50.1361 43.1429 49.8668 43.4184 49.6083 43.6892C49.5898 42.4008 49.6107 41.0825 49.6118 39.7918L49.5941 36.8679Z" fill="#DB4431"/>
<path d="M44.2363 36.0978C44.2692 36.1699 44.2659 37.6279 44.2895 37.8833C44.1454 38.164 44.0713 38.3558 43.9795 38.6546C43.1553 38.866 42.3653 39.0676 41.5497 39.3134L41.4997 39.2958C41.4714 39.0336 41.7784 38.2247 41.9165 37.9678C42.4323 37.0076 43.214 36.4214 44.2363 36.0978Z" fill="#DB4431"/>
<path d="M44.2211 41.5423L44.2697 41.5429C44.3158 41.6451 44.2916 44.1408 44.2911 44.4473C43.6683 44.2193 43.293 44.0104 42.7908 43.5875C42.3765 43.2212 42.0206 42.7553 41.8233 42.2363C42.6047 41.9808 43.4112 41.8162 44.2211 41.5423Z" fill="#DB4431"/>
<path d="M47.0728 42.2823C47.1673 42.2734 47.2087 42.2597 47.2925 42.3036C47.3464 42.3885 47.3301 43.6376 47.3311 43.8142L47.3195 49.3414C47.1813 49.3485 47.1227 49.3791 47.0506 49.2572C47.0353 48.7738 47.051 48.2008 47.0511 47.7075L47.0515 44.5172C47.0515 44.1177 46.9998 42.5559 47.0728 42.2823Z" fill="#F7F7F7"/>
<path d="M47.0504 28.7215C47.1441 28.7171 47.2096 28.7021 47.2887 28.7483C47.3501 28.9043 47.2993 35.8871 47.2999 36.4982C47.2078 36.4944 47.1734 36.499 47.0879 36.461C47.0671 36.425 47.055 36.4012 47.0554 36.3579C47.0801 33.8137 47.0287 31.265 47.0504 28.7215Z" fill="#F7F7F7"/>
<path d="M10.4765 30.0865C10.5278 29.6692 10.3464 29.115 10.6808 28.795C10.7679 28.7115 10.9407 28.6046 11.0653 28.5988C12.2939 28.5409 13.5427 28.5848 14.7729 28.5725C15.5488 28.5648 15.8321 28.8538 15.8102 29.6129L15.8146 29.866L15.8193 31.8765C17.6728 32.7728 19.0371 34.1443 19.7401 36.1103C20.1197 37.1717 20.2505 38.5855 20.021 39.6975C20.0111 39.835 19.9896 39.7825 20.0518 39.8732C20.2833 39.9816 21.2653 40.259 21.5878 40.3568C22.7838 40.713 23.9779 41.076 25.1698 41.4456C24.7971 42.5176 24.784 43.0255 24.9473 44.1304C24.2646 43.9252 23.5808 43.7234 22.896 43.5251C22.7003 43.4677 22.1016 43.2737 21.9321 43.2473C21.853 43.2942 21.858 43.2987 21.8047 43.3763C20.5816 45.2777 19.1871 46.7844 17.0029 47.6065C16.6711 47.7315 16.189 47.9374 15.8506 48.0079C15.8579 48.3692 15.9242 49.0013 15.7058 49.2781C15.6073 49.4029 15.3963 49.5588 15.236 49.5648C14.7047 49.5845 14.135 49.5732 13.6042 49.5741L12.0464 49.5765C10.4646 49.5781 10.4334 49.5634 10.445 48.01L10.4497 45.7386C10.4521 45.3691 10.4881 44.8133 10.4407 44.4718L10.4326 44.4536C10.4455 44.319 10.4397 44.1435 10.4385 44.0062C10.4293 42.8698 10.4625 41.7292 10.4358 40.5935C10.3974 40.1839 10.2687 39.8054 10.2705 39.3895C10.2719 39.0466 10.3358 38.7578 10.417 38.4256C10.4459 38.3076 10.4793 38.1185 10.4769 37.9975C10.4424 36.1806 10.5189 34.2278 10.4613 32.4212L10.4681 32.3978C10.5277 32.189 10.4779 30.4041 10.4765 30.0865Z" fill="#1E1E1E"/>
<path d="M15.8192 31.8765C17.6727 32.7728 19.0371 34.1443 19.7401 36.1103C20.1197 37.1717 20.2505 38.5854 20.0209 39.6975C20.011 39.835 19.9896 39.7825 20.0518 39.8732C20.2833 39.9816 21.2653 40.259 21.5878 40.3568C22.7838 40.713 23.9778 41.076 25.1698 41.4456C24.7971 42.5176 24.784 43.0255 24.9473 44.1304C24.2645 43.9252 23.5807 43.7234 22.896 43.5251C22.7003 43.4677 22.1015 43.2736 21.932 43.2473C21.853 43.2942 21.858 43.2987 21.8047 43.3763C20.5816 45.2777 19.187 46.7844 17.0029 47.6065C16.6711 47.7315 16.189 47.9374 15.8505 48.0079L15.8476 47.7359L15.8385 44.8062L15.8386 44.5784C16.9598 44.1278 17.9566 43.4226 18.658 42.4293C18.6988 42.3593 18.7109 42.357 18.7071 42.2791C18.5354 42.1656 16.2802 41.5457 15.8681 41.3932C15.7103 40.6906 15.9036 40.481 16.0275 39.8244C16.0977 39.4529 16.0428 39.0356 15.963 38.67C17.175 38.9698 18.4208 39.4864 19.648 39.7508C19.6851 39.7588 19.7311 39.6863 19.7576 39.656C19.7492 39.6092 19.7467 39.6204 19.7546 39.5776C20.3279 36.4579 18.6736 33.5105 15.8199 32.1434L15.8192 31.8765Z" fill="#F7F7F7"/>
<path d="M18.9707 42.5202C19.8061 42.7855 20.674 43.0241 21.4966 43.2924C20.4234 45.3796 18.427 46.9689 16.1981 47.6347C16.1092 47.6612 15.9364 47.7195 15.8476 47.7359L15.8385 44.8062C16.9744 44.4833 18.2245 43.4278 18.9707 42.5202Z" fill="#F3E4E2"/>
<path d="M18.9707 42.5202C19.0351 42.4246 19.0153 42.4204 19.103 42.3853C19.6648 42.5157 20.9786 42.9264 21.5372 43.1193C21.5558 43.1997 21.5367 43.1984 21.4966 43.2924C20.6741 43.024 19.8062 42.7855 18.9707 42.5202Z" fill="#1E1E1E"/>
<path d="M15.82 32.1434C18.6736 33.5105 20.3279 36.4579 19.7546 39.5776C19.7467 39.6204 19.7493 39.6092 19.7576 39.656C19.6053 39.5588 18.6434 39.2966 18.4136 39.2279L15.9045 38.4637C15.7726 37.9181 15.8144 36.5433 15.8157 35.9122L15.82 32.1434Z" fill="#F3E4E2"/>
<path d="M15.835 41.5814C16.6637 41.888 17.7963 42.1835 18.658 42.4293C17.9566 43.4226 16.9598 44.1278 15.8386 44.5784L15.835 41.5814Z" fill="#F3E4E2"/>
<path d="M12.7583 36.6636C14.2508 36.4421 15.641 37.4703 15.8662 38.9623C16.0914 40.4542 15.0665 41.847 13.5751 42.0758C12.0786 42.3054 10.68 41.2762 10.454 39.7791C10.2281 38.282 11.2607 36.8859 12.7583 36.6636Z" fill="#F7F7F7"/>
<path d="M12.9598 37.4176C14.0254 37.3103 14.9794 38.0793 15.1009 39.1434C15.2224 40.2074 14.4661 41.1717 13.4037 41.3072C12.7038 41.3965 12.01 41.1023 11.5877 40.537C11.1655 39.9718 11.08 39.2231 11.364 38.5772C11.6481 37.9314 12.2578 37.4883 12.9598 37.4176Z" fill="#1E1E1E"/>
<path d="M12.8652 37.597C13.8424 37.4332 14.7675 38.0919 14.9323 39.0689C15.0971 40.0459 14.4394 40.9717 13.4626 41.1376C12.4843 41.3038 11.5568 40.6448 11.3917 39.6663C11.2266 38.6879 11.8866 37.761 12.8652 37.597Z" fill="#F7F7F7"/>
<path d="M13.0727 38.4197C13.5949 38.3739 14.0566 38.7574 14.1073 39.2792C14.158 39.801 13.7789 40.2662 13.2575 40.3217C12.7293 40.3781 12.2565 39.9927 12.2051 39.4641C12.1538 38.9353 12.5435 38.4661 13.0727 38.4197Z" fill="#1E1E1E"/>
<path d="M12.9452 38.59C13.2254 38.5139 13.5248 38.5944 13.7289 38.8008C13.9331 39.0072 14.0104 39.3075 13.9311 39.5868C13.852 39.8661 13.6286 40.0811 13.3465 40.1497C12.9185 40.2536 12.4863 39.9944 12.3765 39.5678C12.2668 39.1412 12.5201 38.7055 12.9452 38.59Z" fill="#F3E4E2"/>
<path d="M13.308 28.7098C13.4154 28.7073 13.5071 28.6924 13.6012 28.7382C13.634 28.8693 13.6198 30.4361 13.6194 30.7028C13.6041 32.6351 13.6019 34.5675 13.6129 36.4998L13.3051 36.473L13.308 28.7098Z" fill="#F7F7F7"/>
<path d="M13.3078 42.2784C13.4126 42.2689 13.4927 42.2502 13.5893 42.2875C13.6234 42.4059 13.6041 43.2841 13.6036 43.4517C13.5981 45.3896 13.6201 47.3308 13.5944 49.2683C13.4985 49.2646 13.4135 49.274 13.3354 49.2245C13.3043 49.0233 13.3158 48.6585 13.3156 48.4433L13.3139 47.0886L13.3078 42.2784Z" fill="#F7F7F7"/>
<path d="M10.4326 44.4535C10.2574 44.3917 9.91611 44.1775 9.75387 44.0695C8.78508 43.4249 8.03508 42.6371 7.50135 41.6008C6.65595 39.9889 6.49699 38.104 7.06054 36.3732C7.63928 34.5705 8.78707 33.2743 10.4613 32.4212C10.5189 34.2278 10.4424 36.1806 10.4769 37.9975C10.4793 38.1185 10.4459 38.3076 10.417 38.4256C10.3358 38.7578 10.2719 39.0466 10.2705 39.3895C10.2687 39.8054 10.3974 40.1839 10.4358 40.5935C10.4625 41.7292 10.4293 42.8698 10.4385 44.0062C10.4396 44.1435 10.4454 44.319 10.4326 44.4535Z" fill="#F3E4E2"/>
<path d="M10.4407 44.4718C10.4379 44.5715 10.4407 44.5812 10.4135 44.6808C10.325 44.6879 10.2544 44.6477 10.1781 44.6034C8.42378 43.5857 7.23995 42.2179 6.71483 40.2325C6.23782 38.4132 6.50747 36.4788 7.46384 34.8594C8.06606 33.8383 9.01159 32.9201 10.0575 32.3493C10.1437 32.3022 10.3474 32.1853 10.4225 32.1659C10.4839 32.2482 10.4624 32.2712 10.4681 32.3978L10.4613 32.4212C8.78706 33.2743 7.63927 34.5706 7.06054 36.3732C6.49698 38.104 6.65595 39.9889 7.50134 41.6009C8.03507 42.6371 8.78507 43.4249 9.75386 44.0695C9.9161 44.1775 10.2574 44.3917 10.4326 44.4536L10.4407 44.4718Z" fill="#F7F7F7"/>
<path d="M15.8102 29.6129C16.5077 29.9252 17.0419 30.1347 17.7042 30.5266C19.5316 31.6215 20.935 33.3023 21.6863 35.2957C21.8036 35.6016 22.4879 37.8939 22.153 38.0585C22.0424 38.0344 22.0703 38.0627 22.0142 37.9989C21.9648 37.7463 21.9632 37.5309 21.9302 37.2833C21.8924 36.9998 21.8272 36.671 21.7593 36.3958C21.2144 34.1978 19.8761 32.2788 18.0016 31.0079C17.2477 30.5002 16.6464 30.2189 15.8146 29.866L15.8102 29.6129Z" fill="#F3E4E2"/>
<path d="M4.68488 35.9968C4.88341 35.436 5.0563 34.9511 5.32302 34.4183C6.10481 32.8848 7.28817 31.5922 8.7468 30.6784C8.95299 30.5521 10.2206 29.8799 10.4067 29.86C10.49 29.9236 10.4703 29.977 10.4764 30.0865C8.17422 30.9643 6.32085 32.7296 5.33215 34.9864C5.17506 35.3452 5.05705 35.7229 4.91304 36.0843C4.89218 36.1366 4.83926 36.1531 4.79598 36.1709C4.70641 36.1318 4.68459 36.1041 4.68488 35.9968Z" fill="#F3E4E2"/>
<path d="M36.743 44.2149C36.792 44.2215 36.8663 44.2322 36.89 44.281C37.2521 45.0251 37.5896 45.6745 38.0821 46.3471C39.3152 48.0209 41.0386 49.2695 43.0132 49.9196C43.414 50.0511 43.8553 50.1904 44.2753 50.2262C44.4387 50.2402 44.5126 50.24 44.5464 50.3941C44.3687 50.4384 43.8976 50.3256 43.7149 50.2806C42.4297 49.9731 41.2188 49.4119 40.1537 48.6296C38.9153 47.7343 37.9126 46.5724 37.1912 45.2314C37.0457 44.9612 36.7905 44.511 36.743 44.2149Z" fill="#1E1E1E"/>
</svg>
