<svg width="62" height="60" viewBox="0 0 62 60" fill="none" xmlns="http://www.w3.org/2000/svg">
<path d="M28.7256 15.2698C29.2589 15.2685 30.045 15.2415 30.5449 15.3255C31.2119 15.4341 31.8331 15.7199 32.3369 16.1497C33.0032 16.713 33.4067 17.5061 33.457 18.3528C33.5174 19.4087 33.7029 20.4659 32.2461 20.5188L32.248 21.7542C32.8836 21.7865 33.3648 21.8168 33.9961 21.97C35.5255 22.3405 36.8794 23.1902 37.8408 24.3811C38.1987 24.8246 38.4695 25.2686 38.7695 25.7473C39.119 25.4858 39.4516 25.1558 39.7979 24.9143C40.1493 24.8926 41.6651 24.8687 41.958 24.9046C44.0207 24.9535 46.1048 24.878 48.1699 24.9046C49.1004 24.9166 50.1816 24.8251 51.0869 24.9846C51.9226 25.1429 52.9061 26.0493 53.0293 26.8567C53.1601 27.7139 53.1344 28.796 53.1084 29.6712C53.0992 29.9804 53.1073 30.329 53.1162 30.6858C53.1312 31.2833 53.1487 31.9036 53.0947 32.3997L56.0449 32.3987L56.0459 30.9632C56.7831 30.9622 57.6335 30.9426 58.3604 30.9944L58.3633 35.4134C58.3638 36.1463 58.3921 37.1256 58.3525 37.845C57.9735 37.8391 57.5939 37.8352 57.2148 37.8333C56.8357 37.8313 56.4562 37.8313 56.0771 37.8333C56.0753 37.4398 56.0714 37.046 56.0645 36.6526C55.7431 36.6386 55.4639 36.6399 55.1436 36.6438C54.5665 36.6853 53.7256 36.6612 53.123 36.6585L53.1309 40.3899C53.132 40.8665 53.1641 42.0507 53.0771 42.4387C53.0188 42.6877 52.896 42.9182 52.7207 43.1096C52.6958 43.1369 52.6696 43.1632 52.6426 43.1887C52.5942 43.2353 52.545 43.2783 52.4951 43.3177C51.7471 43.9068 50.828 43.7158 49.8975 43.7493C49.5718 43.761 49.2305 43.7495 48.9033 43.7493L43.4561 43.7483C43.2903 43.7479 43.0391 43.7417 42.791 43.7405C42.5429 43.7393 42.2974 43.7429 42.1436 43.7591C42.0909 43.8386 42.1047 43.8512 42.0986 43.9544C41.4222 43.9589 40.7457 43.958 40.0693 43.9524C39.9066 43.8054 39.71 43.5852 39.5449 43.4251L38.2256 42.1546C37.6388 41.5823 37.2725 41.1335 36.4268 40.9309C36.6209 41.507 36.6818 42.0611 36.1719 42.5276C35.893 42.7789 35.5196 42.9129 35.1357 42.9007C34.6536 42.8826 34.2971 42.6405 33.9854 42.3196C33.5467 43.1568 33.1514 43.6557 32.5654 44.3919C34.326 44.4347 36.1829 44.3973 37.9482 44.3938L45.3291 44.4114C46.2958 44.4128 47.2629 44.4077 48.2295 44.3958C49.1929 44.3873 50.2158 44.22 50.9541 44.9055C52.067 45.9396 51.2555 47.6572 49.7939 47.7669C49.3612 47.7993 48.9179 47.7883 48.4844 47.7903L46.0635 47.7942L38.7773 47.7893L26.8994 47.7854C23.9547 47.8104 21.0093 47.8113 18.0645 47.7884C17.3923 47.7769 16.8855 47.6979 16.4004 47.2132C16.0435 46.8612 15.8502 46.3876 15.8633 45.8987C15.8793 45.3217 16.1738 44.9357 16.5898 44.5569C14.7472 42.4036 14.0536 40.3134 14.082 37.5598L13.29 37.5608C13.2733 37.2917 13.2745 36.9689 13.2803 36.6975C13.3112 35.2292 13.238 33.729 13.2939 32.2639C13.4613 32.26 13.668 32.2719 13.8359 32.2845C14.5217 32.3359 15.2345 32.3482 15.916 32.4251C15.1222 31.8261 14.0126 31.2572 13.6289 30.3303C13.3084 29.556 13.7015 28.6584 14.5625 28.4016C14.7972 28.3321 15.0468 28.3192 15.2881 28.3636C15.9411 28.4794 18.081 29.4734 18.7705 29.8245L19.0801 29.6223C17.8498 29.3219 17.1696 28.8529 16.6797 27.7239L7.21094 27.7356L7.20703 28.9319C6.5456 28.9742 5.74529 28.9324 5.07129 28.9475C4.81236 28.9534 3.94558 28.9594 3.74707 28.927C3.66362 28.6187 3.69483 26.7179 3.69434 26.2815L3.68848 20.346C4.78608 20.3093 6.08127 20.3424 7.19824 20.3343C7.22258 20.7073 7.2123 21.183 7.21484 21.5637C10.3246 21.6047 13.5014 21.552 16.6162 21.5491L16.6191 20.5325C16.3149 20.5027 16.0753 20.446 15.8418 20.2415C15.5389 19.9761 15.4848 19.7216 15.459 19.3577C15.3819 18.2707 15.6024 17.3042 16.3633 16.468C16.9564 15.8162 17.9389 15.3165 18.8467 15.2903C19.7298 15.2648 20.6663 15.2758 21.5586 15.2747L26.3125 15.2669L28.7256 15.2698Z" fill="#DEDEDE"/>
<path d="M18.0829 19.8635C17.7885 19.8332 17.5568 19.7759 17.3308 19.5679C17.0376 19.298 16.985 19.0394 16.96 18.6693C16.8853 17.5637 17.0987 16.5804 17.8351 15.73C18.4092 15.067 19.3603 14.5588 20.2389 14.5323C21.0935 14.5064 21.9992 14.5182 22.8627 14.5171L27.4637 14.509L29.7989 14.5118C30.3151 14.5105 31.0759 14.4829 31.5596 14.5683C32.2051 14.6788 32.8064 14.9694 33.294 15.4066C33.9388 15.9794 34.3286 16.7855 34.3773 17.6465C34.4357 18.7204 34.6162 19.7958 33.2062 19.8497L33.2079 21.1063C33.8229 21.1392 34.2881 21.1698 34.899 21.3256C36.3792 21.7024 37.6898 22.5657 38.6202 23.777C38.9666 24.228 39.2281 24.68 39.5185 25.167C39.857 24.9009 40.179 24.565 40.5144 24.3193C40.8545 24.2972 42.3207 24.273 42.6041 24.3095C44.6004 24.3593 46.6174 24.2829 48.6161 24.3099C49.5166 24.3221 50.5629 24.2288 51.439 24.3911C52.2478 24.552 53.199 25.4739 53.3183 26.295C53.4449 27.1667 53.4202 28.2667 53.3951 29.1567C53.3713 29.9977 53.4655 31.1259 53.382 31.9319L56.237 31.9314L56.2379 30.4707C56.9513 30.4697 57.7743 30.4496 58.4778 30.5023L58.4803 34.9967C58.4807 35.7421 58.5081 36.738 58.4699 37.4697C57.7361 37.4577 57.0023 37.4537 56.2685 37.4576C56.2667 37.0575 56.2625 36.6574 56.2558 36.2573C55.9448 36.2431 55.6746 36.2443 55.3646 36.2483C54.8062 36.2905 53.9927 36.2661 53.4096 36.2633L53.4173 40.0571C53.4183 40.5415 53.4491 41.7461 53.3649 42.1408C53.3005 42.4301 53.1546 42.6949 52.9445 42.904C52.1966 43.6609 51.2485 43.438 50.2878 43.4743C49.9727 43.4863 49.6426 43.4745 49.3261 43.4743L44.0543 43.4724C43.7334 43.4716 43.0821 43.4505 42.7844 43.4835C42.7331 43.5647 42.7466 43.577 42.7408 43.6821C42.0861 43.6867 41.4314 43.6861 40.7768 43.6804C40.6193 43.5309 40.4289 43.307 40.2692 43.1442L38.9929 41.8522C38.4248 41.27 38.0702 40.8134 37.2513 40.6073C37.4393 41.1933 37.4984 41.7565 37.0048 42.231C36.7349 42.4867 36.3738 42.6236 36.0023 42.6112C35.5356 42.5928 35.1907 42.3462 34.889 42.0198C34.4644 42.8714 34.0817 43.3788 33.5145 44.1276C35.2186 44.1711 37.0158 44.1325 38.7244 44.1289L45.8673 44.1472C46.8029 44.1486 47.7385 44.1432 48.674 44.1311C49.6065 44.1224 50.5963 43.9524 51.3108 44.65C52.3877 45.7015 51.6023 47.4478 50.1879 47.5593C49.769 47.5923 49.3402 47.581 48.9205 47.5831L46.5777 47.5875L39.526 47.5822L28.0313 47.5787C25.1815 47.604 22.3316 47.6051 19.4818 47.5818C18.8312 47.5702 18.341 47.4897 17.8716 46.9966C17.526 46.6386 17.3385 46.1568 17.3513 45.6594C17.3667 45.0723 17.6522 44.6801 18.0551 44.2948C16.2719 42.1049 15.6 39.9798 15.6275 37.1796L14.861 37.1807C14.8448 36.9069 14.8467 36.5788 14.8523 36.3028C14.8822 34.8093 14.8108 33.2835 14.865 31.7934C15.027 31.7895 15.2273 31.8022 15.39 31.8149C16.0537 31.8673 16.7433 31.8791 17.4029 31.9573C16.6347 31.3481 15.5603 30.7702 15.189 29.8276C14.8788 29.0401 15.2592 28.1272 16.0925 27.8661C16.3197 27.7954 16.5609 27.7819 16.7945 27.827C17.4262 27.9445 19.4985 28.9566 20.1654 29.3135L20.4644 29.1077C19.2737 28.8022 18.6157 28.3249 18.1416 27.1766L8.97806 27.1887L8.97442 28.4055C8.33429 28.4486 7.55983 28.4063 6.90755 28.4217C6.65683 28.4276 5.81724 28.4339 5.62576 28.4009C5.54489 28.0883 5.57605 26.1543 5.57557 25.7104L5.56931 19.6737C6.63153 19.6364 7.8847 19.6703 8.96569 19.6621C8.98925 20.0415 8.97958 20.5251 8.98204 20.9123C11.9916 20.9539 15.0661 20.9003 18.0805 20.8973L18.0829 19.8635Z" fill="#1E1E1E"/>
<path d="M42.6041 24.3095C44.6004 24.3593 46.6174 24.2829 48.6161 24.3099C49.5166 24.3221 50.5629 24.2288 51.439 24.3911C52.2478 24.552 53.199 25.4739 53.3183 26.295C53.4449 27.1667 53.4202 28.2667 53.3951 29.1567C53.3713 29.9977 53.4655 31.1259 53.382 31.9319L56.237 31.9314L56.2379 30.4707C56.9513 30.4697 57.7743 30.4496 58.4778 30.5023L58.4803 34.9967C58.4807 35.7421 58.5081 36.738 58.4698 37.4697C57.7361 37.4577 57.0023 37.4537 56.2685 37.4576C56.2667 37.0575 56.2625 36.6574 56.2558 36.2573C55.9448 36.2431 55.6746 36.2443 55.3646 36.2483C54.8062 36.2905 53.9927 36.2661 53.4096 36.2633L53.4172 40.0571C53.4183 40.5415 53.4491 41.7461 53.3649 42.1408C53.3005 42.4301 53.1546 42.6949 52.9445 42.904C52.1966 43.6609 51.2485 43.438 50.2878 43.4743C49.9727 43.4863 49.6426 43.4745 49.3261 43.4743L44.0543 43.4724C43.7334 43.4716 43.0821 43.4505 42.7844 43.4835C42.7331 43.5647 42.7466 43.577 42.7408 43.6821C42.7027 42.8531 42.719 41.6811 42.7501 40.8502L42.734 40.7357C42.7776 40.5898 42.7569 39.8821 42.7541 39.697L42.7523 39.3603L42.7522 38.379L42.7525 38.0824L42.7517 37.0997L42.7511 36.7421C42.7503 36.4005 42.7514 36.0589 42.7542 35.7172L42.7425 35.6244C42.7706 35.3196 42.7538 34.736 42.7535 34.4194V32.1389L42.7491 32.0182C42.7654 31.6695 42.758 31.2964 42.7573 30.9456L42.7556 30.6956C42.7653 30.3569 42.7599 30.0213 42.7565 29.6826L42.7531 29.3898C42.7543 29.0577 42.7535 28.7255 42.7508 28.3934L42.749 28.046L42.7531 27.0435L42.7342 26.9526C42.7507 26.7777 42.746 26.5587 42.743 26.3797C42.7323 25.7537 42.7633 25.1188 42.7128 24.4948C42.7078 24.4337 42.6427 24.3559 42.6041 24.3095Z" fill="#DB4431"/>
<path d="M56.2379 30.4707C56.9513 30.4697 57.7744 30.4496 58.4778 30.5023L58.4803 34.9967C58.4808 35.7421 58.5081 36.7381 58.4699 37.4697C57.7361 37.4577 57.0023 37.4537 56.2685 37.4576C56.2667 37.0575 56.2625 36.6574 56.2558 36.2573C55.9448 36.2431 55.6746 36.2443 55.3646 36.2483L53.3828 36.246C53.3417 35.328 53.3849 34.3134 53.3628 33.3854C53.3576 33.1644 53.3471 32.1046 53.382 31.9319L56.237 31.9314L56.2379 30.4707Z" fill="#1E1E1E"/>
<path d="M55.4664 32.2411C55.5755 32.2521 55.5859 32.2348 55.6604 32.2911C55.6931 32.6422 55.6741 33.2426 55.6729 33.6091L55.6656 35.9404C55.5692 35.9375 55.5722 35.9422 55.4857 35.903C55.4624 35.7861 55.475 35.0352 55.4746 34.8565L55.4664 32.2411Z" fill="#F7F7F7"/>
<path d="M42.7556 30.6956C42.8127 30.6322 42.7841 30.6432 42.8981 30.6422C43.3232 30.6387 43.7529 30.642 44.1779 30.6433L46.5956 30.6496L48.9854 30.6545C49.29 30.6555 50.3609 30.6128 50.6812 30.7533C50.7195 30.7702 50.7096 30.8095 50.7116 30.8555C50.5045 31.1186 49.8785 31.0181 49.5503 31.0164L47.4023 31.0094L44.362 31.0026C44.0087 31.0024 43.1074 31.0226 42.798 30.9866L42.7573 30.9456L42.7556 30.6956Z" fill="#F7F7F7"/>
<path d="M42.7511 36.7421C43.4421 36.743 50.4551 36.7116 50.6595 36.7964C50.7048 36.8487 50.7308 36.879 50.7167 36.9557C50.7102 36.991 50.6838 37.0522 50.6494 37.07C50.5173 37.1382 43.4807 37.0978 42.7517 37.0997L42.7511 36.7421Z" fill="#F7F7F7"/>
<path d="M42.749 28.046L48.0132 28.0451C48.82 28.046 49.6371 28.0481 50.445 28.0467C50.5319 28.0465 50.6482 28.0585 50.7123 28.1202C50.7358 28.2233 50.7388 28.1735 50.6994 28.2744C50.6 28.3587 50.4946 28.3929 50.3635 28.3942C49.6487 28.4013 48.9181 28.3915 48.2034 28.3931L42.7508 28.3934L42.749 28.046Z" fill="#F7F7F7"/>
<path d="M42.7523 39.3603L48.4572 39.3629C48.7518 39.3626 50.5146 39.3426 50.6778 39.3871C50.7495 39.4597 50.7269 39.4182 50.7516 39.5141C50.6699 39.6762 50.4604 39.6962 50.2915 39.6959C49.5542 39.6942 48.8179 39.6909 48.0805 39.6945L42.7541 39.697L42.7523 39.3603Z" fill="#F7F7F7"/>
<path d="M42.7525 38.0824L48.1012 38.084C48.4582 38.0843 50.5116 38.0459 50.6858 38.1255C50.7283 38.222 50.7197 38.1716 50.7024 38.2834C50.5683 38.4564 50.0633 38.3833 49.8398 38.3845C49.2316 38.3897 48.6234 38.3907 48.0152 38.3875L42.7522 38.379L42.7525 38.0824Z" fill="#F7F7F7"/>
<path d="M42.7531 29.3898L47.9616 29.3849C48.7015 29.3827 49.4411 29.3726 50.1809 29.3624C50.3472 29.3602 50.5805 29.3735 50.7159 29.4748L50.7305 29.5194C50.622 29.7066 50.4485 29.6901 50.2603 29.6849C49.7745 29.6716 49.287 29.6767 48.8011 29.6771L42.7565 29.6826L42.7531 29.3898Z" fill="#F7F7F7"/>
<path d="M42.7339 40.7357C43.9818 40.685 45.5209 40.7218 46.7912 40.7212L48.9963 40.7243C49.262 40.7245 50.5024 40.6935 50.6716 40.7968C50.4887 40.8721 50.0245 40.8672 49.8147 40.8609C47.4814 40.7921 45.076 40.9368 42.7501 40.8502L42.7339 40.7357Z" fill="#F7F7F7"/>
<path d="M42.7491 32.0182L48.058 31.9996C48.3611 31.9993 50.5065 31.9653 50.6353 32.0503C50.5599 32.1528 49.9474 32.1149 49.7926 32.1145L48.3803 32.1143C46.5467 32.115 44.5719 32.084 42.7535 32.1389L42.7491 32.0182Z" fill="#F7F7F7"/>
<path d="M42.7342 26.9526L47.7769 26.9487C48.1146 26.9488 50.4375 26.9142 50.64 26.9935C50.2901 27.0868 48.349 27.0512 47.8577 27.0479C46.1649 27.0366 44.4423 27.0677 42.7531 27.0435L42.7342 26.9526Z" fill="#F7F7F7"/>
<path d="M42.7425 35.6244C43.598 35.6214 50.4058 35.5644 50.6276 35.6541L50.6363 35.689C50.4794 35.7421 48.9276 35.7194 48.6837 35.72L42.7542 35.7172L42.7425 35.6244Z" fill="#F7F7F7"/>
<path d="M24.9736 27.7611C25.0738 27.7506 25.1855 27.7494 25.2865 27.7457C27.8503 27.6526 30.7008 28.7336 32.5657 30.5061C34.5042 32.3352 35.6254 34.8672 35.6771 37.5319C35.7487 40.1003 34.7908 42.5909 33.0166 44.4494C31.3281 46.2087 28.9582 47.3895 26.5005 47.4404C25.8014 47.4415 24.9931 47.4811 24.3042 47.4195C19.7277 47.0106 16.2191 43.0683 15.8159 38.6033C15.3171 33.081 19.5199 28.2244 24.9736 27.7611Z" fill="#F7F7F7" stroke="black" stroke-width="0.2"/>
<path d="M25.2405 30.7217C29.0831 30.4365 32.4291 33.3209 32.7135 37.1635C32.9978 41.0062 30.1128 44.3516 26.2701 44.6351C22.4285 44.9186 19.0843 42.0346 18.8 38.1931C18.5157 34.3516 21.399 31.0068 25.2405 30.7217Z" fill="#1E1E1E"/>
<path d="M25.5252 33.3349C27.9098 33.1981 29.955 35.0178 30.0964 37.4021C30.2379 39.7864 28.4222 41.8351 26.0382 41.9813C23.6475 42.1278 21.5918 40.306 21.45 37.915C21.3082 35.5241 23.134 33.472 25.5252 33.3349Z" fill="#F7F7F7"/>
<path d="M25.5689 35.7801C26.6387 35.6462 27.6137 36.4071 27.7438 37.4774C27.8738 38.5477 27.1095 39.5199 26.0388 39.6462C24.9734 39.7719 24.0071 39.0122 23.8776 37.9472C23.7483 36.8824 24.5045 35.9133 25.5689 35.7801Z" fill="#1E1E1E"/>
<path d="M25.6354 36.4275C26.3443 36.3273 27.0001 36.8211 27.1003 37.5301C27.2004 38.2392 26.7069 38.895 25.9977 38.9949C25.2889 39.0948 24.633 38.6012 24.5329 37.8924C24.433 37.1837 24.9268 36.5278 25.6354 36.4275Z" fill="#F7F7F7" stroke="black"/>
<path d="M27.3028 41.8705C27.3309 41.8956 28.0398 43.7975 28.2007 44.0755C26.5691 44.7026 25.0971 44.6623 23.4748 44.0963C23.8199 43.3933 24.094 42.6615 24.4282 41.9473L24.6822 42.0084C24.9709 42.0703 25.2903 42.1089 25.5845 42.1507C25.5886 42.5055 25.5515 44.1906 25.6248 44.4103C25.6933 44.4481 25.688 44.4463 25.7658 44.4372C25.8822 44.1844 25.7736 42.5722 25.8317 42.1683L25.8834 42.1468C26.0891 42.2859 25.8465 44.0971 25.9765 44.436C26.0618 44.4605 26.0188 44.4532 26.118 44.4278C26.199 44.2935 26.1914 42.4457 26.1962 42.1394C26.6166 42.0713 26.8984 42.0035 27.3028 41.8705Z" fill="#F7F7F7"/>
<path d="M22.8893 41.0936C23.198 41.2834 23.5215 41.5188 23.8453 41.7209C23.5627 42.3594 23.3623 43.0353 23.0275 43.6552C22.9961 43.7133 23.0302 43.7549 23.0608 43.7982C23.1574 43.8342 23.1114 43.8343 23.2031 43.8083C23.4855 43.3621 23.7639 42.4451 24.0203 41.9467C24.0706 41.8489 24.0666 41.8566 24.1459 41.8344L24.1851 41.859C24.1716 41.9751 23.9888 42.3589 23.9318 42.4877C23.7685 42.867 23.3797 43.6847 23.3437 44.0576C22.4942 43.695 21.9181 43.3861 21.2268 42.7406C21.7391 42.2423 22.3799 41.5416 22.8893 41.0936Z" fill="#F7F7F7"/>
<path d="M25.4001 30.8338C25.4314 30.8332 25.4465 30.8427 25.4788 30.8534C25.5494 31.046 25.5409 32.8236 25.5454 33.1704C25.0482 33.2211 24.8111 33.2578 24.3261 33.3967L24.0922 32.8537C23.859 32.3178 23.6201 31.7843 23.3756 31.2534C24.127 30.9591 24.6064 30.8646 25.4001 30.8338Z" fill="#F7F7F7"/>
<path d="M20.7194 33.099C20.7777 33.1458 21.1558 33.5523 21.2459 33.6425C21.6161 34.0073 21.9896 34.3688 22.3664 34.7268C22.1107 35.0558 21.8814 35.4043 21.6806 35.7694L21.3293 35.6242C20.7028 35.3623 20.1717 35.1467 19.5328 34.9199C19.7797 34.2708 20.2594 33.614 20.7194 33.099Z" fill="#F7F7F7"/>
<path d="M22.7757 31.4872L22.82 31.4895C22.8692 31.5383 23.6841 33.36 23.8249 33.6152C23.3881 33.8655 23.172 34.0051 22.7756 34.3227L22.4777 34.0306C22.0228 33.5916 21.5735 33.1239 21.1144 32.6972C21.608 32.201 22.171 31.8294 22.7757 31.4872Z" fill="#F7F7F7"/>
<path d="M26.0756 30.8469C26.806 30.8621 27.5156 31.0774 28.2066 31.2939C27.9836 31.7626 27.7745 32.2552 27.5665 32.732C27.4708 32.9669 27.3531 33.212 27.2469 33.4438C26.8509 33.289 26.5401 33.2394 26.1204 33.1822C26.0935 32.421 26.0919 31.6127 26.0756 30.8469Z" fill="#F7F7F7"/>
<path d="M21.7295 39.7242C21.8107 39.7554 22.3491 40.5477 22.4701 40.6992C21.9406 41.2048 21.3092 41.7978 20.8126 42.3251L20.611 42.1176C20.3723 41.8348 20.1489 41.5392 19.942 41.2323C19.8384 41.076 19.652 40.809 19.6906 40.6208C19.8225 40.4779 21.4409 39.8385 21.7295 39.7242Z" fill="#F7F7F7"/>
<path d="M18.9116 38.0594L21.2762 38.0586C21.3474 38.5522 21.3637 38.7235 21.5437 39.1896C21.3115 39.2712 21.0835 39.3642 20.8548 39.4552C20.3577 39.6534 19.8639 39.86 19.3736 40.0748C19.1019 39.3561 18.992 38.8107 18.9116 38.0594Z" fill="#F7F7F7"/>
<path d="M19.3234 35.4652C20.046 35.7253 20.762 36.0032 21.4708 36.2987C21.4073 36.5072 21.2689 37.4048 21.2275 37.4621L21.1382 37.4715L18.9279 37.4574C18.9741 36.7531 19.0876 36.1327 19.3234 35.4652Z" fill="#F7F7F7"/>
<path d="M28.7528 41.0121C28.8581 41.0684 30.2011 42.4998 30.4012 42.7031C30.0125 43.0618 29.6842 43.2759 29.2458 43.5523C29.0799 43.6514 28.8697 43.7531 28.6948 43.8431C28.5454 43.3076 28.0552 42.2375 27.8381 41.633C28.198 41.4421 28.4366 41.2602 28.7528 41.0121Z" fill="#F7F7F7"/>
<path d="M29.7832 39.6863C29.9718 39.7767 31.8266 40.4435 31.9951 40.4735C31.7276 41.0158 31.4931 41.4175 31.1259 41.8973C31.0239 42.0238 30.9136 42.1437 30.8052 42.2648C30.332 41.779 29.6119 41.073 29.2354 40.533C29.4387 40.2647 29.6217 39.9817 29.7832 39.6863Z" fill="#F7F7F7"/>
<path d="M32.1347 35.3914C32.3578 35.5405 32.549 37.0544 32.567 37.3914C31.9 37.4194 31.1415 37.3972 30.4692 37.3922C30.3885 37.3944 30.3786 37.3924 30.2986 37.3784C30.245 37.3136 30.1016 36.4358 30.0523 36.263L30.04 36.2205C30.5376 36.0499 31.6943 35.6316 32.1347 35.3914Z" fill="#F7F7F7"/>
<path d="M28.7427 31.5562C29.4424 31.9082 29.8766 32.2457 30.4525 32.7486C30.0115 33.1065 29.5441 33.5557 29.122 33.9442C28.9904 34.0648 28.8594 34.19 28.7291 34.3124C28.4013 34.0503 28.1608 33.8783 27.7979 33.6687C28.1184 32.9671 28.4334 32.2629 28.7427 31.5562Z" fill="#F7F7F7"/>
<path d="M30.2842 37.9832L32.58 38.0039C32.5133 38.7916 32.452 39.0965 32.2388 39.8478C32.2282 39.8699 32.2097 39.8829 32.1901 39.9018C31.7234 39.7924 30.5154 39.3227 30.0357 39.1433C30.1505 38.739 30.2036 38.3937 30.2842 37.9832Z" fill="#F7F7F7"/>
<path d="M30.8553 33.1894C31.2469 33.5544 31.7275 34.3288 31.9235 34.8312C31.4238 35.0603 30.6528 35.3371 30.1368 35.5266L29.782 35.6541C29.5841 35.3009 29.3943 35.0261 29.1588 34.7033C29.6983 34.2366 30.3264 33.6136 30.8553 33.1894Z" fill="#F7F7F7"/>
<path d="M23.0802 31.334C23.0985 31.338 23.1173 31.3403 23.1352 31.346C23.2613 31.3864 23.9592 33.0656 24.0578 33.2988C24.1003 33.3993 24.1266 33.4324 24.0848 33.536C23.9632 33.4915 23.9185 33.3721 23.8468 33.2168C23.5726 32.6229 23.296 32.0156 23.0553 31.4067C23.0636 31.3825 23.0719 31.3583 23.0802 31.334Z" fill="#F7F7F7"/>
<path d="M18.8918 37.6719C19.2907 37.6755 20.9952 37.627 21.2383 37.6938L21.2767 37.824C20.9698 37.8266 19.0626 37.8693 18.9273 37.7963L18.8918 37.6719Z" fill="#F7F7F7"/>
<path d="M32.0068 35.0394L32.044 35.0608L32.0568 35.139C31.9504 35.2997 30.242 35.9054 29.9573 36.0029C29.8939 35.9723 29.9233 35.9923 29.8814 35.9184C29.8918 35.9018 29.9021 35.8853 29.9125 35.8687C30.4897 35.6468 31.4923 35.2792 32.0068 35.0394Z" fill="#F7F7F7"/>
<path d="M30.2386 37.6251C30.4217 37.5945 32.4723 37.5962 32.5684 37.6378L32.613 37.7566C32.0468 37.8009 30.9376 37.7507 30.3212 37.7425C30.279 37.7419 30.268 37.684 30.2386 37.6251Z" fill="#F7F7F7"/>
<path d="M27.5405 41.737L27.6298 41.756C27.6358 41.7664 27.669 41.8243 27.6724 41.8331C27.943 42.5327 28.2118 43.2258 28.5058 43.9168C28.4976 43.9403 28.4895 43.9638 28.4813 43.9873C28.3885 43.9931 28.4273 44.0071 28.3553 43.9675C28.2355 43.6963 27.5258 41.9036 27.5405 41.737Z" fill="#F7F7F7"/>
<path d="M29.9407 39.3262C30.1981 39.4586 32.0567 40.087 32.1069 40.1777L32.0648 40.3118C31.7107 40.1013 30.0626 39.6124 29.9088 39.4657L29.9407 39.3262Z" fill="#F7F7F7"/>
<path d="M29.0077 40.7072C29.0741 40.7486 29.4951 41.2201 29.567 41.3084C29.8984 41.7155 30.3133 42.0529 30.6602 42.4319L30.6087 42.5338L30.5642 42.5292C30.3024 42.3342 29.2093 41.1609 28.9752 40.8313C28.9494 40.7951 28.9814 40.7627 29.0077 40.7072Z" fill="#F7F7F7"/>
<path d="M20.9652 32.8304C21.2237 33.1029 22.5012 34.3049 22.6044 34.4848L22.5709 34.5797C22.383 34.4078 20.8972 33.0297 20.878 32.9506L20.9652 32.8304Z" fill="#F7F7F7"/>
<path d="M30.6013 32.9227C30.6523 32.9382 30.65 32.9436 30.6962 32.9748L30.6921 33.0319C30.2396 33.4438 29.4715 34.1717 29.002 34.5175L28.9381 34.4827L28.9279 34.4345C28.9917 34.3502 29.3313 34.0564 29.4243 33.9731L30.6013 32.9227Z" fill="#F7F7F7"/>
<path d="M25.7501 30.8034C25.8175 30.8256 25.8178 30.8207 25.8669 30.8702C25.8921 31.2286 25.8762 31.6381 25.8799 32.0041C25.884 32.3937 25.9002 32.7997 25.8924 33.186C25.8219 33.1699 25.8232 33.1745 25.7681 33.1294C25.7333 32.8618 25.6992 31.0114 25.7501 30.8034Z" fill="#F7F7F7"/>
<path d="M22.6269 40.8566L22.7003 40.8926C22.6993 40.9084 22.6982 40.9242 22.6972 40.94C22.2359 41.3889 21.4835 42.1719 21.0821 42.6164C21.0123 42.5528 20.9909 42.5452 20.9592 42.4567C21.4787 41.9553 22.1095 41.3236 22.6269 40.8566Z" fill="#F7F7F7"/>
<path d="M21.5776 39.4011C21.6157 39.4084 21.6184 39.4176 21.6542 39.4417L21.6406 39.4964C21.4855 39.6043 19.7998 40.277 19.5494 40.3676L19.5223 40.3848L19.4874 40.343L19.496 40.2718C19.6665 40.1645 19.9414 40.0699 20.1375 39.9874C20.6134 39.7819 21.0935 39.5864 21.5776 39.4011Z" fill="#F7F7F7"/>
<path d="M28.4283 31.4051L28.5179 31.4631C28.524 31.5049 27.6813 33.3848 27.5882 33.5937L27.4892 33.5254C27.4767 33.4504 28.3175 31.6114 28.4283 31.4051Z" fill="#F7F7F7"/>
<path d="M19.4302 35.1091C19.7302 35.2184 21.3855 35.8425 21.5841 35.9838L21.594 36.0697C21.5005 36.0552 19.4517 35.2678 19.4273 35.2469L19.4302 35.1091Z" fill="#F7F7F7"/>
<path d="M20.2375 14.6885C20.3457 14.6759 20.5728 14.6792 20.6905 14.6789L28.1044 14.6767L30.0773 14.6798C30.5767 14.6811 31.2052 14.6558 31.6818 14.7568C32.306 14.8936 32.877 15.209 33.3251 15.6646C34.195 16.5379 34.26 17.4905 34.2298 18.651C34.217 19.1439 34.0808 19.6143 33.5203 19.6611C32.7921 19.722 31.9116 19.689 31.1788 19.6862L22.2883 19.69L19.4406 19.6888C18.9556 19.6881 18.4588 19.6985 17.9755 19.6746C17.4477 19.6212 17.1815 19.2735 17.127 18.7693C16.9023 16.6912 18.0815 14.9258 20.2375 14.6885Z" fill="#F7F7F7"/>
<path d="M49.6219 44.2828C50.2142 44.2659 50.6738 44.2561 51.1436 44.6946C51.4649 44.9849 51.6564 45.356 51.6667 45.7959C51.673 46.5895 50.9994 47.3251 50.2113 47.399C49.8333 47.4345 49.4784 47.4224 49.101 47.4207C48.7741 47.4192 48.4506 47.4164 48.1254 47.4161L43.7727 47.4089C39.2954 47.4263 34.8181 47.4182 30.3409 47.3846C29.6894 47.3966 28.866 47.4253 28.2225 47.3964C30.3892 46.7815 31.8253 45.9505 33.3636 44.2974C38.748 44.224 44.2235 44.3053 49.6219 44.2828Z" fill="#F7F7F7"/>
<path d="M40.8 24.4773C41.1123 24.4709 42.2945 24.4356 42.5263 24.5214C42.6132 24.7264 42.5565 28.5524 42.5574 29.014L42.5633 43.523L41.9898 43.5272C41.6073 43.5306 41.2247 43.5288 40.8422 43.5219C40.7145 43.3564 40.5357 43.1712 40.3916 43.014L40.3923 30.6233L40.3931 26.7773C40.3934 26.089 40.3898 25.4006 40.4033 24.7125C40.4081 24.47 40.6075 24.4838 40.8 24.4773Z" fill="#F7F7F7"/>
<path d="M41.4384 42.0223C41.7495 41.9735 42.0416 42.185 42.0923 42.4958C42.143 42.8066 41.9333 43.1 41.6228 43.1527C41.3097 43.2058 41.0131 42.9938 40.9619 42.6803C40.9108 42.3667 41.1246 42.0715 41.4384 42.0223Z" fill="#1E1E1E"/>
<path d="M41.4097 42.1922C41.6246 42.1313 41.8481 42.2568 41.9079 42.472C41.9678 42.6872 41.8412 42.91 41.6257 42.9687C41.4117 43.027 41.1909 42.9016 41.1315 42.6879C41.0721 42.4743 41.1964 42.2528 41.4097 42.1922Z" fill="#F7F7F7"/>
<path d="M41.4151 24.7677C41.7011 24.713 41.9779 24.8989 42.0353 25.1845C42.0926 25.47 41.9092 25.7484 41.6242 25.8084C41.3356 25.8692 41.0527 25.6829 40.9946 25.3936C40.9364 25.1044 41.1253 24.8232 41.4151 24.7677Z" fill="#1E1E1E"/>
<path d="M41.4275 24.94C41.6216 24.8911 41.8184 25.01 41.8653 25.2047C41.9122 25.3993 41.7914 25.5949 41.5963 25.6399C41.4039 25.6843 41.2116 25.5654 41.1653 25.3735C41.119 25.1815 41.236 24.9881 41.4275 24.94Z" fill="#F7F7F7"/>
<path d="M23.0894 19.8418C24.6668 19.8069 26.416 19.8371 28.0006 19.8423L27.9975 27.8718L27.742 27.802C26.1218 27.4778 24.6849 27.5064 23.0901 27.9524C23.1014 25.2571 23.0611 22.5326 23.0894 19.8418Z" fill="#F7F7F7"/>
<path d="M35.8068 26.9324C36.2305 26.9099 36.7498 27.2442 36.8484 27.6548C37.0218 28.3764 37.0829 29.1476 37.2022 29.8855C37.2962 30.5039 37.4436 31.113 37.6428 31.7059C37.725 31.9569 38.0427 32.8101 38.0532 33.0039C38.0879 33.6455 38.0494 34.4435 38.0399 35.0971L37.9174 40.6993C37.6398 40.5485 37.4617 40.4925 37.1579 40.4137L36.6215 39.8655C36.3407 39.5764 36.0542 39.293 35.7621 39.0153C35.8938 37.2966 35.8207 36.1067 35.2617 34.4447C34.8285 33.1567 34.4248 32.5481 33.6514 31.4562C33.8556 30.7731 34.648 27.7434 34.9246 27.3727C35.1323 27.0943 35.4787 26.9846 35.8068 26.9324Z" fill="#F7F7F7"/>
<path d="M35.5869 27.5807C35.954 27.4617 36.3484 27.6612 36.4701 28.0274C36.5918 28.3937 36.3952 28.7895 36.0299 28.914C35.6607 29.0397 35.2598 28.8405 35.1368 28.4705C35.0138 28.1004 35.2159 27.701 35.5869 27.5807Z" fill="#1E1E1E"/>
<path d="M40.1998 24.7818C40.2568 24.851 40.2363 29.4487 40.2372 29.9533L40.2406 42.8777C39.7027 42.3473 39.169 41.8126 38.6397 41.2736L38.2789 40.9136C38.2513 40.1185 38.2683 39.2103 38.2659 38.4084L38.2562 33.3295C38.2492 31.3273 38.4838 29.0069 36.9765 27.4268C37.825 26.8074 38.6081 26.134 39.4128 25.4606C39.6833 25.2342 39.9477 25.0302 40.1998 24.7818Z" fill="#F7F7F7"/>
<path d="M29.3152 19.8449C30.5417 19.8293 31.8219 19.8483 33.0537 19.8493C33.0549 19.88 33.056 19.9108 33.0568 19.9416C33.069 20.5265 33.0533 21.1605 33.0542 21.7517C33.0636 22.7797 33.0676 23.8077 33.066 24.8358C33.0657 25.6571 33.1061 26.67 33.0067 27.472C32.9772 27.7101 32.7352 28.0209 32.5627 28.2003C32.3935 28.353 32.1688 28.49 31.9506 28.5555C31.8455 28.5869 31.7374 28.6071 31.628 28.6158C31.2812 28.6446 30.5979 28.6218 30.2294 28.6632C30.1405 28.6731 29.4605 28.3492 29.3388 28.2807C29.2971 26.9475 29.3197 25.535 29.3222 24.1979L29.3152 19.8449Z" fill="#F7F7F7"/>
<path d="M18.2607 19.8424C19.4312 19.8125 20.772 19.8357 21.9517 19.8452L21.9555 28.3629L21.5012 28.5565C21.2374 28.6844 20.8984 28.8375 20.6535 28.9871C19.9531 28.8114 19.4025 28.6053 18.8776 28.0866C18.0459 27.2649 18.255 26.0478 18.2508 24.9724C18.2402 23.2624 18.2434 21.5524 18.2607 19.8424Z" fill="#F7F7F7"/>
<path d="M8.97734 22.4169C9.97009 22.3948 11.0367 22.4134 12.0342 22.413L18.0835 22.4311L18.0847 25.5889C15.0649 25.575 11.983 25.627 8.97318 25.5897L8.97734 22.4169Z" fill="#F7F7F7"/>
<path d="M5.73386 19.8447C6.67311 19.8043 7.84501 19.8353 8.8025 19.8334L8.7987 25.4133L8.80004 27.1105C8.79958 27.4514 8.811 27.9303 8.76184 28.2589C7.75965 28.2672 6.7574 28.2614 5.75538 28.2415C5.72535 27.506 5.74793 26.6433 5.7427 25.8904L5.73386 19.8447Z" fill="#F7F7F7"/>
<path d="M33.2126 22.7723C35.1065 22.8049 37.0547 24.0771 37.9211 25.7422C38.0106 25.9142 38.0937 26.0963 38.1746 26.2727L37.5573 26.7627L36.8203 27.3292C35.7348 26.2677 34.6375 26.0555 33.2072 25.9208L33.2126 22.7723Z" fill="#F7F7F7"/>
<path d="M8.9794 25.7649C10.1043 25.7356 11.2856 25.7497 12.4166 25.748L18.084 25.7525C18.0862 26.1359 18.1033 26.6458 18.0819 27.0192L8.97471 27.0364C8.97272 26.6126 8.9743 26.1887 8.9794 25.7649Z" fill="#F7F7F7"/>
<path d="M9.019 21.0772L18.0854 21.0659C18.0882 21.2595 18.1181 22.1539 18.0446 22.254L8.97353 22.2434C8.97236 22.0467 8.93996 21.1719 9.019 21.0772Z" fill="#F7F7F7"/>
<path d="M16.3798 27.9558C16.5328 27.9433 16.74 27.9446 16.8842 27.9927C17.9077 28.3343 19.0438 28.9384 20.0043 29.4212C19.3853 29.8409 18.6572 30.4983 18.1491 31.0464C17.9182 31.3069 17.7288 31.5427 17.5138 31.8155C17.2573 31.6529 16.9503 31.413 16.7026 31.2276C16.1171 30.7891 15.4759 30.3852 15.2839 29.63C15.189 29.2668 15.2474 28.8806 15.445 28.5615C15.6652 28.2091 15.9858 28.0381 16.3798 27.9558Z" fill="#F7F7F7"/>
<path d="M16.4208 28.7445C17.2595 28.685 17.6254 29.6548 16.7942 30.0056C16.0609 30.13 15.5626 29.1551 16.4208 28.7445Z" fill="#1E1E1E"/>
<path d="M33.2204 21.2624C36.1197 21.4197 38.037 22.7259 39.3829 25.2761L38.923 25.6599C38.7208 25.8291 38.5177 25.9971 38.3135 26.1639C38.0409 25.6271 37.8113 25.1633 37.4148 24.7091C36.246 23.3705 34.9573 22.7455 33.217 22.5918L33.2204 21.2624Z" fill="#F7F7F7"/>
<path d="M33.2062 26.0937C34.3264 26.1393 34.8998 26.2809 35.8689 26.7915C34.6199 26.8249 34.5258 27.8631 34.2476 28.8202C34.0125 29.6457 33.7706 30.4691 33.5217 31.2905C33.4666 31.2429 33.3971 31.1602 33.3461 31.1034C32.3701 30.0285 31.7572 29.5807 30.5194 28.8368C31.3145 28.7124 31.997 28.9804 32.7011 28.2833C33.3142 27.6765 33.2077 26.9026 33.2062 26.0937Z" fill="#F7F7F7"/>
<path d="M28.1592 19.8431C28.4804 19.8357 28.8329 19.8432 29.1564 19.8442L29.1601 28.2282C28.8264 28.1166 28.4914 28.0089 28.1551 27.9051C28.1356 26.7561 28.156 25.5496 28.1551 24.3955C28.1487 22.878 28.1501 21.3605 28.1592 19.8431Z" fill="#F7F7F7"/>
<path d="M22.1122 19.8442C22.3799 19.8394 22.6584 19.8439 22.9272 19.8444L22.9372 25.0815C22.9386 25.8937 22.9798 27.2091 22.9288 27.9819C22.868 28.0518 22.7707 28.0659 22.6768 28.0939C22.483 28.1533 22.3081 28.2193 22.1183 28.2906C22.0856 27.0008 22.1226 25.7046 22.122 24.4159C22.1213 22.8921 22.0934 21.3689 22.1122 19.8442Z" fill="#F7F7F7"/>
<path d="M18.1497 44.4346C18.2494 44.4774 19.0097 45.2819 19.1974 45.4333C20.0472 46.1187 20.9982 46.6726 22.0184 47.0631C22.3635 47.1951 22.729 47.2936 23.0793 47.4076L22.4053 47.4104C21.3321 47.4116 20.2217 47.4349 19.1507 47.4042C17.6291 47.3606 16.8759 45.4481 18.1497 44.4346Z" fill="#F7F7F7"/>
<path d="M15.0358 31.9567C15.7978 31.9702 16.5597 32.0859 17.3322 32.0852C16.628 33.1259 16.1726 34.3043 15.8684 35.5148C15.7533 36.0004 15.7023 36.5073 15.6439 37.0028L15.0323 37.0108L15.0103 33.8012C15.0084 33.2641 14.984 32.4687 15.0358 31.9567Z" fill="#F7F7F7"/>
<path d="M35.7259 39.2241C36.0275 39.4557 36.2761 39.7747 36.5533 40.0203C37.3463 40.7229 37.6705 41.8397 36.4594 42.3763C35.8213 42.5543 35.3788 42.3344 34.9651 41.8576C35.3734 40.8268 35.5328 40.3246 35.7259 39.2241Z" fill="#F7F7F7"/>
<path d="M35.9293 40.6605C36.2532 40.5844 36.5775 40.7854 36.6533 41.1094C36.7291 41.4334 36.5277 41.7575 36.2035 41.8329C35.88 41.9082 35.5566 41.7071 35.4809 41.3837C35.4053 41.0602 35.6059 40.7366 35.9293 40.6605Z" fill="#1E1E1E"/>
<path d="M37.0512 27.8433C37.259 28.0216 37.4655 28.4221 37.5858 28.6701C38.1789 29.892 38.1178 31.1783 38.1151 32.4969C38.0333 32.4076 37.9396 32.0776 37.8909 31.9407C37.4157 30.604 37.2686 29.2403 37.0512 27.8433Z" fill="#F7F7F7"/>
<path d="M38.0981 39.2386C38.116 39.3056 38.1427 39.393 38.1538 39.4593C38.1453 39.6756 38.1825 40.6451 38.1264 40.7885L38.0931 40.7871C38.0385 40.6375 38.0902 39.487 38.0981 39.2386Z" fill="#F7F7F7"/>
<path d="M38.0981 39.2386C38.0887 39.0576 38.0877 38.8801 38.0795 38.6996L38.154 38.6702L38.1483 38.6423L38.0798 38.6371L38.1423 38.6147L38.1334 38.5977C38.1712 38.8577 38.1603 39.1923 38.1538 39.4593C38.1427 39.393 38.116 39.3056 38.0981 39.2386Z" fill="#8E8E8E"/>
</svg>
