<svg width="60" height="60" viewBox="0 0 60 60" fill="none" xmlns="http://www.w3.org/2000/svg">
<path d="M37.7863 10.9953C38.0684 10.9234 38.5972 10.9669 38.8761 11.0676C39.0887 10.9721 39.1588 10.9578 39.3087 10.9709L39.4943 10.9914C39.5962 11.0031 39.7876 11.0161 39.9689 11.0432C40.0143 11.05 40.0591 11.0578 40.1017 11.0666C40.2288 11.0929 40.3364 11.1286 40.3829 11.1799C40.3978 11.1964 40.4361 11.2642 40.4464 11.2824L40.7824 11.1574C41.0578 11.2305 41.4816 11.309 41.6456 11.5393L41.6867 11.6194C41.699 11.6382 41.7155 11.6536 41.7482 11.6809C41.7696 11.6824 41.79 11.6821 41.8097 11.6799C41.8692 11.6734 41.9222 11.6518 41.9747 11.6233C42.0444 11.5854 42.1132 11.5357 42.1945 11.4934C42.2594 11.5185 42.312 11.5414 42.3546 11.5637C42.6532 11.7199 42.4811 11.8154 42.9152 11.9699C43.0538 11.9944 43.2027 12.0241 43.341 12.0442C43.6007 12.1121 43.7886 12.2675 43.8087 12.5442C44.0489 12.6048 44.1602 12.587 44.4005 12.5617C44.4874 12.6309 44.8563 12.9106 44.8898 12.9807C44.877 13.1821 44.9861 13.2536 45.1203 13.3869C45.2547 13.3676 45.3078 13.3551 45.4376 13.3147C45.5698 13.4245 45.9824 13.7156 45.9904 13.8869C45.9381 13.9435 45.9392 13.9485 45.8722 13.9836C45.8798 14.0776 46.254 14.4082 46.3663 14.3303C46.3807 14.3283 46.3949 14.3263 46.4093 14.3244C46.664 14.3215 46.6324 14.3665 46.841 14.5461C46.9305 14.6233 47.0891 14.8183 47.1339 14.928C47.1162 14.9788 47.1259 14.9696 47.0929 15.008C47.0115 15.1147 47.0234 15.0596 47.0353 15.175C47.1386 15.3331 47.2531 15.3958 47.3117 15.5295C47.4248 15.4978 47.5379 15.4625 47.6535 15.4426C47.8116 15.5392 48.2607 15.935 48.1622 16.136L48.0704 16.1916C48.0878 16.3493 48.2492 16.5544 48.3458 16.6906C48.4524 16.6645 48.5611 16.6398 48.6671 16.6125C48.8846 16.8419 49.0852 17.0573 49.1915 17.3625L48.9826 17.5383C49.0591 17.6719 49.204 17.9748 49.3644 17.9768C49.7416 17.9817 49.8952 18.3551 50.0343 18.7043L49.7531 18.8762C49.8341 19.0049 49.9269 19.138 49.9806 19.2785C50.0929 19.3024 50.3079 19.3408 50.4064 19.3811C50.519 19.571 50.7502 19.8915 50.6867 20.1018C50.6602 20.1891 50.5638 20.243 50.4894 20.2942C50.5932 20.5918 50.6105 20.7401 50.9591 20.7893C51.1274 20.9996 51.3167 21.2032 51.3009 21.4797C51.2548 21.551 51.2516 21.5467 51.1798 21.5949C51.1806 22.0351 51.2039 21.8799 51.4122 22.1809L51.4611 22.2375C51.5345 22.2407 51.5662 22.2251 51.5958 22.2668C51.7175 22.4383 51.8298 22.8089 51.8341 23.011L51.8019 23.0744C51.6978 23.1586 51.662 23.1871 51.547 23.2531C51.634 23.4632 51.7314 23.6641 51.8175 23.8703C51.9151 23.8835 52.0117 23.8939 52.1076 23.9162C52.1932 24.1408 52.3987 24.5081 52.1359 24.6447C51.9158 24.8511 52.0167 24.9795 52.0997 25.2463C52.2019 25.2847 52.3384 25.3312 52.4357 25.3733C52.5082 25.607 52.5734 25.865 52.591 26.1096C52.47 26.169 52.3537 26.2298 52.2277 26.2776C52.2722 26.4564 52.316 26.6464 52.3663 26.8225C52.4481 26.8513 52.5654 26.889 52.6388 26.927C52.7988 27.2327 52.7208 27.4013 52.798 27.6262C52.7095 27.7689 52.5691 27.8257 52.4171 27.9006C52.4397 28.0357 52.4628 28.2089 52.4943 28.3391C53.0092 28.6015 52.8943 28.8535 52.8712 29.384C52.7321 29.4356 52.6135 29.4743 52.4835 29.5471C52.4889 29.6717 52.492 29.8011 52.5011 29.925C52.6964 30.0264 52.7391 30.0498 52.8673 30.2238C52.8824 30.5 52.8526 30.7279 52.8244 31.0012L52.4376 31.1838C52.4305 31.3623 52.4185 31.5575 52.4171 31.7346C52.9314 31.919 52.7926 32.1451 52.7238 32.6223C54.0973 33.2337 55.3567 33.6617 55.9181 35.2229C56.8204 37.8135 55.3839 41.1732 52.8292 42.2317C51.2859 42.8709 50.3853 42.1656 49.004 41.5842C48.2069 41.2487 47.2477 40.7469 46.4513 40.4621C45.8669 40.638 45.1239 40.976 44.5265 41.1985C44.0761 41.3659 43.625 41.5316 43.173 41.6946C42.8284 41.8149 42.553 41.8362 42.2863 42.1037C42.2671 42.123 41.56 42.1819 41.4777 42.2365C41.2512 42.3056 41.2898 42.4587 41.0675 42.4983C40.7769 42.3284 40.6002 42.48 40.2843 42.5276C40.1565 42.5467 40.0992 42.6239 40.0109 42.7131C39.6522 42.7693 39.198 42.4698 38.9249 42.8313C38.6142 42.8507 38.0465 42.5621 37.6447 42.719C37.5887 42.8678 37.6165 42.8676 37.5109 42.9182C37.3881 42.9004 37.4511 42.8764 37.338 42.802C37.2527 42.8594 37.2402 42.9035 37.1925 42.9944L37.1593 43.011C36.8919 43.147 36.597 43.1581 36.5285 43.4104C36.4555 43.6796 36.6864 43.7338 36.6339 43.8908C36.5029 44.2825 35.5528 44.7457 35.462 44.966L35.6066 45.0129C35.6461 45.1248 35.6457 45.0715 35.6183 45.1799C35.4958 45.3155 35.4119 45.3645 35.2238 45.3401C34.9579 45.5595 34.7013 45.79 34.4542 46.0305C34.3403 46.1357 34.3244 46.1682 34.2706 46.3137C33.9496 46.5512 32.9486 46.9049 32.5421 47.0715L27.4054 49.1203C27.1704 49.2161 26.9135 49.4692 26.631 49.3742C26.5985 49.3416 26.5598 49.3042 26.5294 49.2707C26.294 49.3165 26.0694 49.3601 25.8322 49.3957C25.8086 49.5227 25.8273 49.5601 25.7277 49.6155C25.5576 49.7099 25.4639 49.7097 25.2843 49.6731C25.2237 49.6223 25.2256 49.6262 25.1867 49.5578L25.1788 49.5305C25.069 49.4919 24.6666 49.5597 24.4874 49.5481C24.3645 49.7879 23.9736 49.8386 23.8019 49.6731L23.7921 49.6047C23.7102 49.5134 23.0831 49.4859 22.9337 49.4787L22.8878 49.6164C22.7821 49.6808 22.69 49.6636 22.5529 49.6487C22.4034 49.6324 22.3695 49.4586 22.34 49.428C22.2541 49.3394 21.8911 49.2492 21.6447 49.1985L21.4513 49.1623L21.4738 49.2502C21.4108 49.3338 21.3004 49.3364 21.1896 49.3049C21.1344 49.2892 21.0791 49.2649 21.0294 49.2385C20.9797 49.212 20.936 49.1827 20.9035 49.1574C20.871 49.1322 20.8594 49.1076 20.8576 49.0803L20.8663 48.9895C20.8003 48.9074 20.2323 48.6922 20.088 48.6633C20.0439 48.6549 19.9998 48.7177 19.9552 48.761C19.7559 48.822 19.4874 48.6402 19.4572 48.4104C19.4446 48.3146 18.7641 47.9905 18.6583 47.9328L18.63 48.0471C18.4415 48.1995 18.2034 47.9745 18.0812 47.8391C18.0582 47.7399 18.0607 47.7771 18.1271 47.6623C18.0116 47.5812 17.7945 47.4767 17.6613 47.4074C17.328 47.2673 16.4849 47.3729 15.9601 47.2951C14.4713 47.0742 13.1385 46.3622 11.963 45.4475C11.6525 45.2058 11.2716 44.8119 10.965 44.5373L9.09584 45.2483C8.75946 45.3743 8.33862 45.5437 7.99916 45.6399C10.5321 43.3013 8.0298 37.5123 4.59877 37.9065C5.52356 37.4536 6.84571 36.98 7.84877 36.55C7.9506 33.4189 8.82433 30.242 11.8605 28.7297C11.959 28.2528 11.9815 28.376 12.2072 28.0285C12.2655 27.9387 12.1831 27.253 12.3781 27.0744C12.5264 26.9385 12.3987 26.9813 12.6193 26.9319C12.6255 26.9084 12.6759 26.7991 12.6886 26.7697C12.6843 26.5408 12.5776 26.3977 12.7384 26.0803C12.8289 25.9018 13.0144 25.7397 13.2023 25.6731C13.2082 25.6471 13.2351 25.6026 13.2492 25.5764C13.2622 25.4128 13.2349 25.3893 13.1544 25.2375C13.2122 25.1272 13.253 25.0437 13.2892 24.9778C13.3434 24.879 13.3869 24.8194 13.4581 24.7658C13.5296 24.7121 13.6296 24.6651 13.797 24.591L13.9542 24.4328C13.6766 23.9174 14.2108 23.7553 14.5695 23.5656C14.7049 23.4936 14.7241 23.1707 14.756 23.01C14.9269 22.8998 15.1316 22.7303 15.296 22.6018C15.4103 22.6274 15.4922 22.6735 15.6066 22.6321C15.7262 22.5025 15.7005 22.3797 15.7013 22.1975C15.8678 22.1002 16.3499 21.7689 16.5187 21.8264C16.6406 21.8304 16.6517 21.8275 16.7716 21.7981C16.7408 21.7024 16.7378 21.6834 16.7238 21.5881C16.808 21.4849 17.4687 21.1852 17.6036 21.1926L17.6281 21.2336C17.6868 21.2682 17.6563 21.2545 17.7384 21.2502C17.8345 21.1977 17.8506 21.1521 17.9074 21.0588C17.9586 21.0273 18.01 21.0059 18.0617 20.9865C18.1135 20.9672 18.1662 20.9495 18.2189 20.9231C18.2945 20.885 18.374 20.8379 18.4542 20.7922C18.5343 20.7466 18.6148 20.702 18.6935 20.6711C19.0134 20.5457 19.3503 20.4318 19.674 20.3137L21.5021 19.633C22.4001 19.2962 23.3359 18.882 24.3038 18.6701C24.4651 18.6349 24.6272 18.605 24.7902 18.5822C24.9533 18.5595 25.1175 18.5439 25.2824 18.5363C25.383 18.5317 25.8486 18.5127 25.921 18.5012C26.0998 18.4722 26.0915 18.1595 26.2199 17.9514C26.2432 17.9135 26.2714 17.8794 26.3058 17.8508C26.3572 17.808 26.4229 17.7779 26.5099 17.7688L26.5499 17.8508C26.7046 17.7065 26.7561 17.6599 26.882 17.4875C26.8798 17.4524 26.9002 17.4167 26.9152 17.3781C26.8456 17.2611 26.7694 17.1931 26.8556 17.0715C26.9655 16.9163 27.1472 16.5681 27.3312 16.5197C27.4012 16.5568 27.3995 16.5595 27.4767 16.5735C27.789 16.4424 27.8304 16.1724 27.7482 15.924C27.7132 15.8184 28.156 15.4597 28.2501 15.4104C28.3337 15.3666 28.3732 15.3967 28.4591 15.427L28.4894 15.5373L28.5119 15.5217C28.6495 15.3728 28.7408 15.3509 28.8859 15.1516C28.8317 14.974 28.8373 14.9334 28.9454 14.7981C29.082 14.6273 29.2531 14.4989 29.4689 14.4533C29.4766 14.4517 29.4873 14.455 29.4992 14.4621C29.5349 14.4837 29.5826 14.535 29.6017 14.552C29.7318 14.479 29.8622 14.4064 29.9933 14.3352C30.1437 14.2088 30.098 14.1596 30.0763 13.9719C30.2972 13.8657 30.5583 13.6345 30.7423 13.6496C30.8364 13.708 30.8326 13.722 30.879 13.8215C31.0568 13.7466 31.2343 13.6709 31.4113 13.594C31.3745 13.503 31.373 13.471 31.3888 13.3762C31.507 13.1984 31.8539 13.1175 32.0695 13.0451C32.2678 13.0037 32.4844 12.9722 32.6525 12.8645C32.7242 12.8084 32.8458 12.7465 32.9308 12.7102C33.8871 12.3021 34.8934 11.9903 35.8761 11.6428C36.4849 11.4275 37.1661 11.1534 37.7863 10.9953ZM4.45424 38.1262C7.75887 37.8704 10.0452 42.9285 7.89759 45.3733C7.37606 45.9669 6.99603 46.1655 6.22963 46.3381C6.1839 46.346 6.13801 46.3528 6.09193 46.3586C5.29659 46.4607 4.44058 46.1181 3.81947 45.6408C1.85513 44.1312 1.06254 40.5076 3.06556 38.7121C3.46926 38.3503 3.92423 38.1911 4.45424 38.1262Z" fill="#DEDEDE"/>
<path d="M40.8762 11.0671C41.16 10.9397 41.1895 10.9584 41.4944 10.9914C41.6982 11.0146 42.2596 11.0427 42.3833 11.1802C42.3981 11.1967 42.4361 11.2639 42.4465 11.2822L42.7828 11.1578C43.0582 11.2309 43.4816 11.309 43.6456 11.5393C43.6854 11.6171 43.6824 11.6266 43.7478 11.6812C43.9193 11.6935 44.0315 11.5779 44.1947 11.493C44.7146 11.6942 44.419 11.7935 44.9152 11.9702C45.0538 11.9947 45.2022 12.024 45.3405 12.0441C45.6005 12.112 45.7889 12.2669 45.809 12.5437C46.0493 12.6044 46.1603 12.5871 46.4008 12.5618C46.4877 12.631 46.8558 12.9107 46.8893 12.9808C46.8765 13.1825 46.9863 13.2538 47.1207 13.3876C47.2552 13.3682 47.3078 13.3548 47.4378 13.3142C47.5699 13.4241 47.9827 13.716 47.9901 13.8873C47.9379 13.9439 47.9394 13.9486 47.8724 13.9837C47.88 14.0777 48.2537 14.4084 48.366 14.3305C48.3805 14.3285 48.3951 14.3266 48.4097 14.3246C48.6644 14.3217 48.6321 14.3661 48.8407 14.5457C48.9302 14.6228 49.0893 14.8178 49.1341 14.9276C49.1162 14.9789 49.1263 14.9696 49.0932 15.0081C49.0116 15.1151 49.0233 15.0594 49.0353 15.1754C49.1386 15.3335 49.2535 15.3956 49.3121 15.5294C49.4253 15.4977 49.5381 15.4628 49.6537 15.4429C49.8119 15.5395 50.2606 15.9349 50.1621 16.1358L50.0703 16.1916C50.0876 16.3496 50.2497 16.5554 50.3463 16.6917C50.4528 16.6655 50.5609 16.64 50.667 16.6127C50.8845 16.8422 51.0848 17.0575 51.1912 17.3629L50.9827 17.5379C51.0592 17.6714 51.2035 17.9751 51.3639 17.9771C51.7414 17.9817 51.8948 18.3547 52.034 18.7041L51.7528 18.8761C51.8339 19.0049 51.927 19.1379 51.9808 19.2784C52.0931 19.3023 52.3077 19.3411 52.4061 19.3814C52.5187 19.5714 52.7508 19.8919 52.6871 20.1022C52.6606 20.1895 52.5641 20.2428 52.4897 20.2941C52.5935 20.5917 52.6101 20.7398 52.9587 20.789C53.1272 20.9995 53.3168 21.2032 53.3008 21.48C53.2547 21.5515 53.2517 21.5469 53.1797 21.5954C53.1805 22.0356 53.2042 21.8797 53.4126 22.1809L53.4614 22.2379C53.5349 22.2411 53.5657 22.2254 53.5954 22.2672C53.717 22.4387 53.8295 22.8088 53.8339 23.0108L53.8019 23.0746C53.6977 23.1588 53.6619 23.1867 53.5469 23.2527C53.6339 23.4629 53.731 23.664 53.8172 23.8703C53.9151 23.8835 54.0118 23.8941 54.1079 23.9166C54.1936 24.1411 54.3988 24.5081 54.1359 24.6448C53.9158 24.8511 54.0165 24.9793 54.0996 25.246C54.2018 25.2844 54.3382 25.3308 54.4356 25.3729C54.5081 25.6067 54.5733 25.8649 54.5908 26.1096C54.4698 26.1691 54.3535 26.2298 54.2274 26.2776C54.272 26.4565 54.316 26.6463 54.3664 26.8224C54.4482 26.8512 54.5657 26.8885 54.6391 26.9265C54.7993 27.2325 54.7211 27.4012 54.7984 27.6262C54.7098 27.7692 54.5689 27.8256 54.4166 27.9007C54.4393 28.0358 54.463 28.2087 54.4945 28.3388C55.0096 28.6012 54.8938 28.8537 54.8708 29.3844C54.7316 29.436 54.6135 29.4743 54.4834 29.5471C54.4888 29.6717 54.4922 29.8011 54.5013 29.925C54.6968 30.0265 54.7393 30.0497 54.8677 30.2243C54.8828 30.5006 54.8525 30.728 54.8242 31.0015L54.4373 31.1842C54.4301 31.3627 54.4183 31.5576 54.4169 31.7348C54.9313 31.9192 54.7929 32.1452 54.7241 32.6225C56.0976 33.234 57.3567 33.6615 57.9181 35.2227C58.8205 37.8135 57.3837 41.1735 54.8288 42.2317C53.2852 42.871 52.3851 42.1653 51.0036 41.5839C50.2064 41.2484 49.2479 40.7466 48.4515 40.4618C47.8671 40.6377 47.1244 40.9764 46.5269 41.1989C46.0764 41.3664 45.6251 41.5317 45.1729 41.6947C44.8282 41.815 44.5527 41.8362 44.286 42.1039C44.2668 42.1231 43.56 42.1815 43.4777 42.2361C43.251 42.3052 43.2899 42.4592 43.0674 42.4987C42.7766 42.3287 42.6002 42.4805 42.284 42.528C42.1562 42.5472 42.099 42.6237 42.0107 42.7129C41.652 42.7691 41.1977 42.4696 40.9246 42.8314C40.6138 42.8508 40.0463 42.5623 39.6444 42.7194C39.5884 42.8684 39.6166 42.8678 39.5107 42.9184C39.3879 42.9006 39.4511 42.8763 39.3378 42.8018C39.2525 42.8592 39.2399 42.9032 39.1922 42.994L39.1591 43.0112C38.8916 43.1473 38.5973 43.1582 38.5289 43.4108C38.4559 43.6801 38.6869 43.734 38.6344 43.891C38.5033 44.2828 37.5521 44.7458 37.4616 44.966L37.6068 45.013C37.6463 45.1249 37.6456 45.0711 37.6182 45.1795C37.4956 45.3153 37.4124 45.3646 37.2242 45.3401C36.9581 45.5597 36.7012 45.7902 36.454 46.0309C36.3399 46.1362 36.3243 46.1682 36.2706 46.3139C35.9494 46.5515 34.948 46.905 34.5418 47.0716L29.4051 49.1207C29.1702 49.2165 28.9138 49.4696 28.6313 49.3746C28.5987 49.3418 28.5596 49.3047 28.5291 49.2711C28.2935 49.3169 28.0691 49.3601 27.8317 49.3958C27.8082 49.5228 27.8273 49.56 27.7276 49.6154C27.5574 49.7099 27.4637 49.7098 27.2838 49.6731C27.2232 49.6223 27.2252 49.6264 27.1862 49.5581L27.1785 49.5303C27.0686 49.4918 26.6666 49.5598 26.4875 49.5481C26.3645 49.788 25.9731 49.8386 25.8016 49.6727L25.7922 49.6044C25.7103 49.5131 25.0833 49.486 24.934 49.4788L24.8881 49.6168C24.7823 49.6813 24.6899 49.6635 24.5526 49.6485C24.4032 49.6322 24.3698 49.4587 24.3402 49.4281C24.2263 49.3099 23.6176 49.1889 23.4514 49.1623L23.4738 49.2504C23.3479 49.4174 23.033 49.2586 22.903 49.1576C22.8385 49.1075 22.8592 49.0589 22.8666 48.9892C22.8006 48.9071 22.2327 48.6919 22.0884 48.663C22.0441 48.6541 22.0001 48.718 21.9554 48.7614C21.756 48.8225 21.4875 48.6401 21.4574 48.4101C21.4449 48.3143 20.7645 47.99 20.6588 47.9324L20.63 48.0472C20.4415 48.1996 20.2033 47.9748 20.0811 47.8394C20.0581 47.7399 20.0601 47.7776 20.1266 47.6628C20.0111 47.5817 19.7945 47.4769 19.6612 47.4076C19.3279 47.2674 18.4845 47.3733 17.9597 47.2954C16.4709 47.0745 15.1383 46.3624 13.9627 45.4476C13.6521 45.2058 13.2714 44.8118 12.9648 44.5372L11.0955 45.2482C10.7591 45.3743 10.3385 45.544 9.999 45.6402C12.5324 43.3017 10.0298 37.5123 6.59848 37.9069C7.52329 37.4539 8.84511 36.98 9.84829 36.55C9.95013 33.4188 10.8239 30.2424 13.86 28.7301C13.9586 28.2527 13.9812 28.3759 14.2069 28.0284C14.2653 27.9385 14.1826 27.2532 14.3775 27.0747C14.5266 26.9382 14.3984 26.9815 14.6196 26.932C14.6258 26.9085 14.676 26.7987 14.6886 26.7696C14.6843 26.5406 14.5777 26.3978 14.7386 26.0803C14.8291 25.9018 15.0139 25.7401 15.2018 25.6734C15.2076 25.6474 15.2353 25.6024 15.2494 25.5761C15.2625 25.4125 15.2348 25.3893 15.1543 25.2376C15.3854 24.796 15.3507 24.7879 15.7965 24.5906L15.9544 24.4324C15.6767 23.9169 16.2103 23.7553 16.569 23.5656C16.7048 23.4939 16.7236 23.1705 16.7556 23.0097C16.9267 22.8995 17.1317 22.7302 17.2963 22.6016C17.4106 22.6273 17.4922 22.6734 17.6068 22.6318C17.7264 22.5022 17.7006 22.38 17.7014 22.1978C17.868 22.1005 18.3504 21.7684 18.5189 21.8265C18.6408 21.8305 18.6516 21.8273 18.7715 21.7979C18.7407 21.7022 18.7381 21.6837 18.724 21.5884C18.808 21.4853 19.4684 21.1849 19.6034 21.1924L19.6284 21.2331C19.6871 21.2678 19.6561 21.2541 19.7387 21.2499C19.8348 21.1973 19.8505 21.1519 19.9074 21.0585C20.0101 20.9954 20.1133 20.9759 20.2185 20.9231C20.3697 20.847 20.5363 20.7332 20.6939 20.6714C21.0139 20.5459 21.3507 20.432 21.6744 20.3139L23.5025 19.633C24.6998 19.184 25.9633 18.5967 27.282 18.536C27.3824 18.5314 27.8505 18.5124 27.9214 18.5009C28.1815 18.4587 28.0448 17.8172 28.5101 17.7687L28.55 17.8503C28.7046 17.706 28.756 17.6599 28.8819 17.4874C28.8798 17.4521 28.9003 17.4164 28.9153 17.3777C28.8457 17.2606 28.7689 17.1929 28.8551 17.0712C28.965 16.9161 29.1466 16.5683 29.3307 16.52C29.401 16.5572 29.3991 16.5593 29.4764 16.5733C29.7889 16.4423 29.8306 16.1723 29.7483 15.9238C29.7133 15.8181 30.1564 15.4601 30.2504 15.4109C30.334 15.3671 30.3729 15.397 30.4588 15.4273L30.4891 15.5376L30.5115 15.5219C30.6493 15.3728 30.7407 15.3514 30.8859 15.152C30.8316 14.974 30.8369 14.9335 30.9451 14.7981C31.0817 14.6273 31.2529 14.4987 31.4689 14.4531C31.4996 14.4466 31.5763 14.5293 31.6016 14.5519C31.7318 14.4789 31.8624 14.4068 31.9935 14.3357C32.144 14.2091 32.098 14.1596 32.0763 13.9716C32.2973 13.8654 32.5584 13.6342 32.7425 13.6495C32.8366 13.7079 32.8325 13.7221 32.8789 13.8216C33.0568 13.7466 33.2342 13.6707 33.4112 13.5937C33.3744 13.5027 33.3734 13.4712 33.3892 13.3764C33.5075 13.1985 33.8543 13.1173 34.0698 13.0449C34.2682 13.0035 34.4839 12.9725 34.652 12.8648C34.7237 12.8085 34.846 12.747 34.9312 12.7106C35.8875 12.3026 36.8934 11.9907 37.8761 11.6433C38.4851 11.4279 39.1664 11.1531 39.7867 10.9951C40.0688 10.9232 40.5973 10.9664 40.8762 11.0671Z" fill="#1E1E1E"/>
<path d="M19.9074 21.0585C20.0101 20.9954 20.1133 20.9759 20.2185 20.9231C20.3697 20.847 20.5363 20.7332 20.6939 20.6714C21.0139 20.546 21.3507 20.432 21.6744 20.3139L23.5025 19.633C24.6998 19.184 25.9633 18.5967 27.282 18.536C27.3824 18.5314 27.8505 18.5124 27.9214 18.5009C28.1815 18.4587 28.0448 17.8173 28.5101 17.7687L28.55 17.8504L28.5871 17.9238C28.4516 17.9981 28.4382 17.9643 28.2951 18.07C28.2541 18.1868 28.3284 18.384 28.3506 18.5169L28.4266 18.5953L28.6642 18.4933C29.2708 18.2593 29.2015 18.6681 29.684 18.6674L29.8565 18.6859L29.8994 18.7239C30.1115 18.7912 30.2545 18.7696 30.4503 18.8369L30.4666 18.9031C30.8098 19.0242 30.9998 19.1423 31.3206 19.2925C31.3828 19.3555 31.4321 19.4022 31.4878 19.4716L31.6776 19.4859L31.6992 19.5204C31.3074 19.7216 30.6964 19.9464 30.2752 20.1121C29.6635 20.3526 29.0535 20.5973 28.4451 20.8461C28.2524 20.9228 27.5358 21.1561 27.4635 21.2711L27.4213 21.3373L27.6889 21.4733C28.1523 21.7187 28.379 21.7723 28.825 22.076L28.894 22.0341C29.1043 22.1269 29.3608 22.3396 29.5736 22.4664L29.5313 22.5002C29.7475 22.6524 29.8526 22.7466 30.048 22.9282L30.0961 22.8937C30.2004 22.9737 30.4944 23.1857 30.5528 23.282L30.5962 23.3122C30.7772 23.4458 31.2303 23.7467 31.2879 23.943L31.3384 23.9161C31.5181 24.0785 31.802 24.3185 31.9318 24.5106L31.8866 24.5596C32.0573 24.7459 32.3029 24.9857 32.4507 25.1714C32.5215 25.26 32.8789 25.7184 32.9441 25.7617C33.2197 25.976 33.4904 26.5703 33.6886 26.8833C34.188 27.6716 34.6659 28.4606 34.9961 29.3349C35.0967 29.601 35.2929 29.7881 35.3595 30.088C35.4328 30.1398 35.4009 30.1308 35.4845 30.1386C35.4259 30.2522 35.6375 30.8448 35.6882 31.0046L35.6397 31.0346C35.8975 31.2876 35.9201 32.1215 36.102 32.4744C36.1827 32.631 36.2792 32.8403 36.2686 33.0134L36.2874 33.0575C36.3179 33.3065 36.4203 33.6482 36.4634 33.9394L36.393 33.9635C36.4023 34.1779 36.4989 34.1393 36.5342 34.3464C36.5506 34.4006 36.5744 34.4695 36.5841 34.5237C36.5581 34.6607 36.6188 35.2606 36.6317 35.4363L36.5675 35.4938C36.6351 35.697 36.7045 35.8013 36.6126 35.9857L36.6593 36.0021C36.6645 36.2957 36.662 36.6762 36.6804 36.9658C36.6297 36.9988 36.6173 37.0035 36.5734 37.0443C36.6063 37.092 36.6304 37.1193 36.6744 37.1571C36.7127 37.2973 36.6559 37.3794 36.6258 37.5351L36.6769 37.552C36.6523 37.8615 36.6317 38.1712 36.6153 38.4812L36.5344 38.4976C36.525 38.6062 36.5554 38.6063 36.5785 38.7014C36.6115 38.8367 36.1608 39.8763 36.3267 40.1793C36.2895 40.3665 36.189 40.4056 36.1564 40.5731L36.2296 40.6036C36.1919 40.7588 35.9956 41.4494 35.9827 41.543L35.8889 41.5849C35.8622 41.6522 35.8708 41.6066 35.8798 41.6736C35.9082 41.8844 35.2299 43.4087 35.0808 43.6557C34.9118 43.9476 34.7574 44.2361 34.5941 44.5299C34.4488 44.771 34.1955 45.1123 34.0818 45.3172C33.8888 45.5748 33.7542 45.7878 33.5327 46.0246C33.4514 46.1145 33.4234 46.1566 33.3559 46.2404C32.8074 46.9209 31.8914 47.61 31.1706 48.0679C31.1642 48.1469 31.1677 48.2799 31.113 48.328C30.8874 48.5261 30.6013 48.4287 30.3644 48.5081C30.1413 48.5828 29.8668 48.7536 29.6574 48.844C29.3835 48.9622 28.894 49.0942 28.6026 49.1456L28.5291 49.2711C28.2935 49.3169 28.0691 49.3601 27.8317 49.3958C27.8082 49.5228 27.8273 49.5601 27.7276 49.6154C27.5574 49.7099 27.4637 49.7098 27.2838 49.6731C27.2232 49.6224 27.2252 49.6264 27.1862 49.5581L27.1785 49.5304C27.0686 49.4918 26.6666 49.5598 26.4875 49.5481C26.3645 49.7881 25.9731 49.8386 25.8016 49.6727L25.7922 49.6044C25.7103 49.5131 25.0833 49.486 24.934 49.4789L24.8881 49.6168C24.7823 49.6813 24.6899 49.6635 24.5526 49.6485C24.4032 49.6322 24.3698 49.4588 24.3402 49.4281C24.2263 49.3099 23.6176 49.1889 23.4514 49.1623L23.4738 49.2504C23.3479 49.4174 23.033 49.2587 22.903 49.1576C22.8385 49.1075 22.8592 49.0589 22.8666 48.9892C22.8006 48.9071 22.2327 48.6919 22.0884 48.663C22.0441 48.6541 22.0001 48.718 21.9554 48.7614C21.756 48.8225 21.4875 48.6401 21.4574 48.4101C21.4449 48.3144 20.7645 47.99 20.6588 47.9324L20.63 48.0472C20.4415 48.1996 20.2033 47.9748 20.0811 47.8394C20.0581 47.7399 20.0601 47.7776 20.1266 47.6628C20.0111 47.5817 19.7945 47.4769 19.6612 47.4076C19.3279 47.2674 18.4845 47.3733 17.9597 47.2954C16.4709 47.0745 15.1383 46.3624 13.9627 45.4476C13.6521 45.2058 13.2714 44.8118 12.9648 44.5372L11.0955 45.2482C10.7591 45.3743 10.3385 45.5441 9.999 45.6402C12.5324 43.3017 10.0298 37.5123 6.59848 37.9069C7.52329 37.454 8.84511 36.98 9.84829 36.55C9.95013 33.4188 10.8239 30.2424 13.86 28.7301C13.9586 28.2527 13.9812 28.376 14.2069 28.0284C14.2653 27.9386 14.1826 27.2533 14.3775 27.0747C14.5266 26.9383 14.3984 26.9816 14.6196 26.932C14.6258 26.9085 14.676 26.7987 14.6886 26.7696C14.6843 26.5406 14.5777 26.3978 14.7386 26.0803C14.8291 25.9018 15.0139 25.7401 15.2018 25.6734C15.2076 25.6474 15.2353 25.6024 15.2494 25.5761C15.2625 25.4125 15.2348 25.3893 15.1543 25.2376C15.3854 24.796 15.3507 24.7879 15.7965 24.5906L15.9544 24.4324C15.6767 23.9169 16.2103 23.7553 16.569 23.5657C16.7048 23.4939 16.7236 23.1705 16.7556 23.0097C16.9267 22.8995 17.1317 22.7302 17.2963 22.6016C17.4106 22.6273 17.4922 22.6734 17.6068 22.6318C17.7264 22.5022 17.7006 22.3801 17.7014 22.1978C17.868 22.1005 18.3504 21.7685 18.5189 21.8265C18.6408 21.8305 18.6516 21.8273 18.7715 21.7979C18.7407 21.7022 18.7381 21.6837 18.724 21.5885C18.808 21.4853 19.4684 21.1849 19.6034 21.1924L19.6284 21.2332C19.6871 21.2678 19.6561 21.2541 19.7387 21.2499C19.8348 21.1973 19.8505 21.1519 19.9074 21.0585Z" fill="#1E1E1E"/>
<path d="M19.9074 21.0585C20.0101 20.9954 20.1133 20.9759 20.2184 20.9231C20.3697 20.847 20.5363 20.7332 20.6939 20.6714C21.0139 20.546 21.3507 20.432 21.6744 20.3139L23.5025 19.633C24.6998 19.184 25.9633 18.5967 27.282 18.536C27.3824 18.5314 27.8505 18.5124 27.9214 18.5009C28.1815 18.4587 28.0448 17.8173 28.5101 17.7687L28.55 17.8504L28.5871 17.9238C28.4516 17.9981 28.4382 17.9643 28.2951 18.07C28.2541 18.1868 28.3284 18.384 28.3506 18.5169L28.4266 18.5953L28.6642 18.4933C29.2708 18.2593 29.2015 18.6681 29.684 18.6674L29.8565 18.6859L29.8994 18.7239C30.1115 18.7912 30.2545 18.7696 30.4503 18.8369L30.4666 18.9031C30.8098 19.0242 30.9998 19.1423 31.3206 19.2925C31.3828 19.3555 31.4321 19.4022 31.4878 19.4716L31.6776 19.4859L31.6992 19.5204C31.3074 19.7216 30.6964 19.9464 30.2752 20.1121C29.6635 20.3526 29.0534 20.5973 28.4451 20.8461C28.2524 20.9228 27.5358 21.1561 27.4634 21.2711L27.4213 21.3373L27.6889 21.4733C28.1523 21.7187 28.379 21.7723 28.825 22.076L28.894 22.0341C29.1043 22.1269 29.3608 22.3396 29.5736 22.4664L29.5313 22.5002C29.7475 22.6524 29.8526 22.7466 30.048 22.9282L30.0961 22.8937C30.2004 22.9737 30.4944 23.1857 30.5528 23.282L30.5962 23.3122C30.7772 23.4458 31.2303 23.7467 31.2879 23.943L31.3384 23.9161C31.5181 24.0785 31.802 24.3185 31.9317 24.5106L31.8866 24.5596C32.0573 24.7459 32.3029 24.9857 32.4507 25.1714C32.5215 25.26 32.8789 25.7184 32.9441 25.7617C33.2197 25.976 33.4904 26.5703 33.6886 26.8833C34.188 27.6716 34.6659 28.4606 34.9961 29.3349C35.0967 29.601 35.2929 29.7881 35.3595 30.088C35.4328 30.1398 35.4009 30.1308 35.4845 30.1386C35.4259 30.2522 35.6375 30.8448 35.6882 31.0046L35.6397 31.0346C35.8975 31.2876 35.9201 32.1215 36.102 32.4744C36.1827 32.631 36.2792 32.8403 36.2686 33.0134L36.2874 33.0575C36.3179 33.3065 36.4203 33.6482 36.4634 33.9394L36.393 33.9635C36.4023 34.1779 36.4989 34.1393 36.5342 34.3464C36.5506 34.4006 36.5744 34.4695 36.5841 34.5237C36.5581 34.6607 36.6188 35.2606 36.6317 35.4363L36.5675 35.4938C36.6351 35.697 36.7045 35.8013 36.6126 35.9857L36.6593 36.0021C36.6645 36.2957 36.662 36.6762 36.6804 36.9658C36.6297 36.9988 36.6173 37.0035 36.5734 37.0443C36.6063 37.092 36.6304 37.1193 36.6744 37.1571C36.7127 37.2973 36.6559 37.3794 36.6258 37.5351L36.6768 37.552C36.6523 37.8615 36.6317 38.1712 36.6153 38.4812L36.5344 38.4976C36.525 38.6062 36.5554 38.6063 36.5785 38.7014C36.6115 38.8367 36.1608 39.8763 36.3267 40.1793C36.2895 40.3665 36.189 40.4056 36.1564 40.5731L36.2296 40.6036C36.1919 40.7588 35.9956 41.4494 35.9827 41.543L35.8889 41.5849C35.8622 41.6522 35.8708 41.6066 35.8798 41.6736C35.9082 41.8844 35.2299 43.4087 35.0808 43.6557C34.9118 43.9476 34.7574 44.2361 34.5941 44.5299C34.4488 44.771 34.1955 45.1123 34.0818 45.3172C33.8888 45.5748 33.7542 45.7878 33.5327 46.0246C33.4514 46.1145 33.4234 46.1566 33.3559 46.2404C32.8074 46.9209 31.8914 47.61 31.1706 48.0679C31.1642 48.1469 31.1677 48.2799 31.113 48.328C30.8874 48.5261 30.6013 48.4287 30.3644 48.5081C30.1413 48.5828 29.8668 48.7536 29.6574 48.844C29.3835 48.9622 28.894 49.0942 28.6026 49.1456L28.5291 49.2711C28.2935 49.3169 28.0691 49.3601 27.8317 49.3958C27.8082 49.5228 27.8273 49.5601 27.7276 49.6154C27.5574 49.7099 27.4637 49.7098 27.2838 49.6731C27.2232 49.6224 27.2251 49.6264 27.1862 49.5581L27.1784 49.5304C27.0686 49.4918 26.6666 49.5598 26.4875 49.5481C26.3645 49.7881 25.9731 49.8386 25.8016 49.6727L25.7922 49.6044C25.7103 49.5131 25.0833 49.486 24.934 49.4789L24.8881 49.6168C24.7823 49.6813 24.6899 49.6635 24.5526 49.6485C24.4032 49.6322 24.3698 49.4588 24.3402 49.4281C24.2263 49.3099 23.6176 49.1889 23.4514 49.1623L23.4738 49.2504C23.3479 49.4174 23.033 49.2587 22.903 49.1576C22.8385 49.1075 22.8592 49.0589 22.8666 48.9892C22.8006 48.9071 22.2327 48.6919 22.0884 48.663C22.0441 48.6541 22.0001 48.718 21.9554 48.7614C21.756 48.8225 21.4875 48.6401 21.4574 48.4101C21.4449 48.3144 20.7645 47.99 20.6588 47.9324L20.63 48.0472C20.4415 48.1996 20.2033 47.9748 20.0811 47.8394C20.0581 47.7399 20.0601 47.7776 20.1266 47.6628L20.1838 47.6102L19.6526 47.2998C20.6127 47.0787 20.8583 47.0549 21.75 46.5745C22.1801 46.7414 22.5519 46.9547 23.0262 47.1216C24.806 47.7537 26.9813 48.0127 28.7925 47.3501C35.0947 45.0446 36.4863 37.1075 34.4939 31.4039C33.2196 27.7558 31.058 24.6444 27.5824 22.8503C25.5739 21.8135 23.2554 21.5602 21.1262 22.2997C20.3995 22.5568 19.7134 22.9166 19.0888 23.3683C17.204 24.7157 16.5381 26.214 15.5803 28.1954C14.9595 28.317 14.5961 28.4329 14.0164 28.6504C14.0842 28.3274 14.1928 28.2633 14.2608 28.031C14.4048 27.539 14.3031 27.3854 14.6196 26.932C14.6258 26.9085 14.6759 26.7987 14.6886 26.7696C14.6843 26.5406 14.5777 26.3978 14.7386 26.0803C14.8291 25.9018 15.0139 25.7401 15.2018 25.6734C15.2076 25.6474 15.2353 25.6024 15.2494 25.5761C15.2625 25.4125 15.2348 25.3893 15.1543 25.2376C15.3854 24.796 15.3507 24.7879 15.7965 24.5906L15.9544 24.4324C15.6767 23.9169 16.2103 23.7553 16.569 23.5657C16.7048 23.4939 16.7236 23.1705 16.7556 23.0097C16.9267 22.8995 17.1317 22.7302 17.2963 22.6016C17.4106 22.6273 17.4922 22.6734 17.6068 22.6318C17.7264 22.5022 17.7006 22.3801 17.7014 22.1978C17.868 22.1005 18.3504 21.7685 18.5189 21.8265C18.6408 21.8305 18.6516 21.8273 18.7715 21.7979C18.7407 21.7022 18.7381 21.6837 18.724 21.5885C18.808 21.4853 19.4684 21.1849 19.6034 21.1924L19.6284 21.2332C19.6871 21.2678 19.6561 21.2541 19.7387 21.2499C19.8348 21.1973 19.8505 21.1519 19.9074 21.0585Z" fill="#DB4431"/>
<path d="M19.9074 21.0585C20.0101 20.9954 20.1133 20.9759 20.2185 20.9231C20.3697 20.847 20.5363 20.7332 20.6939 20.6714C21.0139 20.546 21.3507 20.432 21.6744 20.3139L23.5025 19.633C24.6998 19.184 25.9633 18.5967 27.282 18.536C27.3824 18.5314 27.8505 18.5124 27.9214 18.5009C28.1815 18.4587 28.0448 17.8173 28.5101 17.7687L28.55 17.8504L28.5871 17.9238C28.4516 17.9981 28.4382 17.9643 28.2951 18.07C28.2541 18.1868 28.3284 18.384 28.3506 18.5169L28.4266 18.5953L28.6642 18.4933C29.2708 18.2593 29.2015 18.6681 29.684 18.6674L29.8565 18.6859L29.8994 18.7239C30.1115 18.7912 30.2545 18.7696 30.4503 18.8369L30.4666 18.9031C30.8098 19.0242 30.9998 19.1423 31.3206 19.2925C31.3828 19.3555 31.4321 19.4022 31.4878 19.4716L31.6776 19.4859L31.6992 19.5204C31.3074 19.7216 30.6964 19.9464 30.2753 20.1121C29.6635 20.3526 29.0535 20.5973 28.4451 20.8461C28.2524 20.9228 27.5358 21.1561 27.4635 21.2711L27.4213 21.3373C27.1708 21.2099 26.6373 21.052 26.3563 20.9624L26.3816 20.9043C26.2674 20.8539 25.9436 20.7574 25.8152 20.7204L25.7277 20.7488C25.517 20.6882 25.168 20.577 24.9487 20.5842C24.8196 20.5884 24.8128 20.5838 24.6768 20.5636L24.6778 20.5059C24.5188 20.4775 24.1605 20.4392 24.006 20.4428L24.0011 20.4868C23.6482 20.4727 23.6705 20.4578 23.3708 20.3947C23.1401 20.3462 22.5227 20.4001 22.2885 20.4459C22.1881 20.5882 21.9167 20.7401 21.7898 20.6349C21.5709 20.4534 20.8106 20.6872 20.5761 20.8242C20.5721 20.8998 20.5695 20.8623 20.5837 20.9366C20.4603 21.0149 20.1732 21.1147 20.024 21.1717C19.9591 21.1225 19.9581 21.122 19.9074 21.0585Z" fill="#DB4431"/>
<path d="M25.8152 20.7204C25.8049 20.6895 25.8024 20.6609 25.7971 20.6282C25.8045 20.6212 25.812 20.6143 25.8194 20.6072C27.2739 20.0401 28.7286 19.4521 30.1894 18.8968C30.2587 18.8703 30.4118 18.8954 30.4666 18.903C30.8098 19.0241 30.9998 19.1423 31.3206 19.2924C31.3828 19.3554 31.4321 19.4022 31.4879 19.4716L31.6776 19.4859L31.6992 19.5204C31.3074 19.7216 30.6964 19.9464 30.2753 20.1121C29.6635 20.3526 29.0535 20.5973 28.4451 20.8461C28.2524 20.9228 27.5358 21.1561 27.4635 21.271L27.4213 21.3373C27.1708 21.2099 26.6373 21.052 26.3563 20.9624L26.3816 20.9042C26.2674 20.8539 25.9436 20.7573 25.8152 20.7204Z" fill="#DB4431"/>
<path d="M26.3816 20.9043C26.4416 20.9223 26.5559 20.9586 26.6126 20.941C27.0064 20.8191 27.4211 20.6506 27.8028 20.5034L30.2597 19.5581C30.7674 19.367 30.9829 19.2483 31.4878 19.4716L31.6776 19.4859L31.6992 19.5204C31.3074 19.7216 30.6964 19.9464 30.2752 20.1121C29.6635 20.3526 29.0534 20.5973 28.4451 20.8461C28.2524 20.9228 27.5358 21.1561 27.4634 21.271L27.4213 21.3373C27.1708 21.2099 26.6373 21.052 26.3563 20.9624L26.3816 20.9043Z" fill="#1E1E1E"/>
<path d="M19.9074 21.0585C20.0101 20.9954 20.1133 20.9759 20.2185 20.9231C20.3697 20.847 20.5363 20.7332 20.6939 20.6714C21.0139 20.546 21.3507 20.432 21.6744 20.3139L23.5025 19.633C24.6998 19.184 25.9633 18.5967 27.282 18.536C27.3824 18.5314 27.8505 18.5124 27.9214 18.5009C28.1815 18.4587 28.0448 17.8173 28.5101 17.7687L28.55 17.8504L28.5871 17.9238C28.4516 17.9981 28.4382 17.9643 28.2951 18.07C28.2541 18.1868 28.3284 18.384 28.3506 18.5169L28.4266 18.5953C28.0546 18.7087 23.9645 20.2732 23.9018 20.3382C23.9335 20.4253 23.9085 20.3855 24.006 20.4428L24.0011 20.4868C23.6482 20.4727 23.6705 20.4578 23.3708 20.3947C23.1401 20.3462 22.5227 20.4001 22.2885 20.4459C22.1881 20.5882 21.9167 20.7401 21.7898 20.6349C21.5709 20.4534 20.8106 20.6872 20.5761 20.8242C20.5721 20.8998 20.5695 20.8623 20.5837 20.9365C20.4603 21.0149 20.1732 21.1147 20.024 21.1717C19.9591 21.1225 19.9581 21.122 19.9074 21.0585Z" fill="#1E1E1E"/>
<path d="M29.8994 18.7239C30.1115 18.7912 30.2545 18.7696 30.4503 18.8369L30.4666 18.9031C30.4118 18.8954 30.2587 18.8704 30.1893 18.8968C28.7286 19.4521 27.2738 20.0401 25.8194 20.6073C25.812 20.6143 25.8045 20.6213 25.797 20.6282C25.8024 20.6609 25.8049 20.6895 25.8152 20.7204L25.7277 20.7488C25.517 20.6882 25.168 20.577 24.9487 20.5842C24.8196 20.5884 24.8128 20.5838 24.6768 20.5636L24.6778 20.5059C24.8222 20.5063 25.3733 20.2498 25.5517 20.1856C26.7717 19.7465 27.9713 19.2606 29.1776 18.7873C29.5061 18.6584 29.6372 18.8624 29.8994 18.7239Z" fill="#1E1E1E"/>
<path d="M17.7014 22.1978C17.868 22.1005 18.3504 21.7684 18.5189 21.8265C18.3841 22.0495 17.9351 22.1059 17.8108 22.4333C17.716 22.6834 17.6497 22.7388 17.4077 22.6936C17.0769 22.849 16.8134 23.5546 16.4519 23.7175C16.3744 23.7525 16.1028 24.0756 16.0628 24.1694C16.0113 24.2835 16.0414 24.3784 15.9544 24.4324C15.6767 23.9169 16.2103 23.7553 16.569 23.5656C16.7048 23.4939 16.7236 23.1705 16.7556 23.0097C16.9267 22.8995 17.1317 22.7302 17.2963 22.6016C17.4106 22.6273 17.4922 22.6734 17.6068 22.6318C17.7264 22.5022 17.7006 22.38 17.7014 22.1978Z" fill="#1E1E1E"/>
<path d="M22.9542 48.9286C23.5721 49.1038 24.2675 49.2892 24.902 49.3758L24.934 49.4788L24.8881 49.6168C24.7823 49.6813 24.6899 49.6635 24.5526 49.6485C24.4032 49.6322 24.3698 49.4587 24.3402 49.4281C24.2263 49.3099 23.6176 49.1889 23.4514 49.1623L23.4738 49.2504C23.3479 49.4174 23.033 49.2586 22.9031 49.1576C22.8385 49.1075 22.8592 49.0589 22.8666 48.9892L22.9542 48.9286Z" fill="#1E1E1E"/>
<path d="M24.902 49.3758C25.8428 49.4929 26.3262 49.493 27.2789 49.3887L27.1863 49.5581L27.1785 49.5304C27.0687 49.4918 26.6666 49.5598 26.4875 49.5481C26.3645 49.7881 25.9731 49.8386 25.8016 49.6727L25.7923 49.6044C25.7103 49.5131 25.0833 49.486 24.934 49.4789L24.902 49.3758Z" fill="#1E1E1E"/>
<path d="M25.7922 49.6044C25.8207 49.5203 25.7936 49.5496 25.8604 49.5036C26.029 49.4811 26.3493 49.454 26.4875 49.5481C26.3645 49.788 25.9731 49.8386 25.8016 49.6727L25.7922 49.6044Z" fill="#1E1E1E"/>
<path d="M20.5911 47.8241C20.9783 48.0023 21.2974 48.2146 21.6511 48.3799C22.0715 48.5763 22.5123 48.707 22.9542 48.9286L22.8666 48.9892C22.8006 48.9071 22.2327 48.6919 22.0884 48.663C22.0441 48.6541 22.0001 48.718 21.9554 48.7614C21.756 48.8225 21.4875 48.6401 21.4574 48.4101C21.4449 48.3143 20.7646 47.99 20.6588 47.9324C20.6487 47.8953 20.6161 47.8594 20.5911 47.8241Z" fill="#1E1E1E"/>
<path d="M14.6886 26.7696C14.6843 26.5406 14.5777 26.3978 14.7386 26.0803C14.8291 25.9018 15.0139 25.7401 15.2018 25.6734C15.0671 25.9203 14.9483 26.1351 14.8431 26.3988C14.8071 26.4888 14.7404 26.7197 14.6886 26.7696Z" fill="#1E1E1E"/>
<path d="M27.2789 49.3887L27.7555 49.3199L27.8317 49.3958C27.8082 49.5228 27.8273 49.5601 27.7277 49.6154C27.5574 49.7099 27.4637 49.7098 27.2838 49.6731C27.2232 49.6224 27.2252 49.6264 27.1862 49.5581L27.2789 49.3887Z" fill="#1E1E1E"/>
<path d="M20.1838 47.6102L20.5911 47.8241C20.6161 47.8594 20.6487 47.8953 20.6588 47.9324L20.63 48.0472C20.4415 48.1996 20.2033 47.9748 20.0811 47.8394C20.0581 47.7399 20.0601 47.7776 20.1266 47.6628L20.1838 47.6102Z" fill="#1E1E1E"/>
<path d="M15.7965 24.5906C15.7334 24.8377 15.4885 24.823 15.4045 25.0835C15.348 25.2588 15.3811 25.3968 15.2768 25.5632L15.2494 25.5761C15.2625 25.4125 15.2348 25.3893 15.1543 25.2376C15.3854 24.796 15.3507 24.7879 15.7965 24.5906Z" fill="#1E1E1E"/>
<path d="M18.7715 21.7979C18.7407 21.7022 18.7381 21.6837 18.724 21.5885C18.8081 21.4853 19.4684 21.1849 19.6034 21.1924L19.6284 21.2331C19.5762 21.2685 18.7677 21.7993 18.7715 21.7979Z" fill="#1E1E1E"/>
<path d="M36.5342 34.3464C36.5506 34.4006 36.5744 34.4695 36.5841 34.5237C36.5581 34.6607 36.6188 35.2606 36.6317 35.4363L36.5675 35.4938C36.4963 35.216 36.5042 34.7392 36.4781 34.4405C36.4968 34.4091 36.5155 34.3778 36.5342 34.3464Z" fill="#1E1E1E"/>
<path d="M27.7555 49.3199C28.0373 49.2594 28.3197 49.2013 28.6026 49.1456L28.5291 49.2711C28.2935 49.3169 28.0691 49.3601 27.8317 49.3958L27.7555 49.3199Z" fill="#1E1E1E"/>
<path d="M35.3596 30.088C35.4329 30.1398 35.4009 30.1308 35.4845 30.1386C35.4259 30.2522 35.6375 30.8448 35.6882 31.0046L35.6397 31.0346C35.5812 30.9564 35.3554 30.2169 35.3596 30.088Z" fill="#1E1E1E"/>
<path d="M36.1563 40.5731L36.2296 40.6036C36.1918 40.7587 35.9956 41.4494 35.9827 41.543L35.8889 41.5849C35.9961 41.2505 36.0733 40.914 36.1563 40.5731Z" fill="#1E1E1E"/>
<path d="M36.2686 33.0134L36.2874 33.0575C36.3179 33.3065 36.4202 33.6482 36.4634 33.9394L36.393 33.9635C36.3416 33.7171 36.2867 33.4676 36.2373 33.2211C36.2111 33.0903 36.2131 33.0911 36.2686 33.0134Z" fill="#1E1E1E"/>
<path d="M36.5734 37.0443C36.6365 36.7189 36.556 36.308 36.6126 35.9857L36.6593 36.0021C36.6645 36.2957 36.662 36.6762 36.6804 36.9658C36.6297 36.9988 36.6173 37.0035 36.5734 37.0443Z" fill="#191262"/>
<path d="M36.6258 37.5351L36.6769 37.552C36.6523 37.8615 36.6318 38.1712 36.6153 38.4811L36.5344 38.4976C36.5478 38.2202 36.5896 37.8088 36.6258 37.5351Z" fill="#0F0E3C"/>
<path d="M31.2879 23.943L31.3384 23.9161C31.5181 24.0785 31.802 24.3185 31.9318 24.5106L31.8866 24.5596C31.6563 24.2718 31.5352 24.1929 31.2879 23.943Z" fill="#0F0E3C"/>
<path d="M28.894 22.0341C29.1043 22.1269 29.3609 22.3396 29.5737 22.4664L29.5313 22.5002C29.3587 22.4383 29.1111 22.1661 28.825 22.076L28.894 22.0341Z" fill="#E98B7F"/>
<path d="M24.006 20.4428C24.1605 20.4392 24.5188 20.4775 24.6778 20.5059L24.6768 20.5636C24.4513 20.5403 24.226 20.5147 24.0011 20.4868L24.006 20.4428Z" fill="#191262"/>
<path d="M25.8152 20.7204C25.9436 20.7574 26.2674 20.8539 26.3816 20.9043L26.3563 20.9624C26.1394 20.8804 25.9494 20.8178 25.7277 20.7488L25.8152 20.7204Z" fill="#0F0E3C"/>
<path d="M30.0961 22.8937C30.2004 22.9737 30.4945 23.1857 30.5528 23.282C30.3619 23.2026 30.2045 23.0604 30.048 22.9281L30.0961 22.8937Z" fill="#5041F2"/>
<path d="M23.5872 22.0453C25.2413 22.0274 26.8952 22.5343 28.3121 23.4113C31.6193 25.49 33.7109 28.8574 34.7005 32.5966C36.1732 38.1617 34.4328 45.5842 28.2076 47.2924C26.7085 47.7038 25.0316 47.5429 23.5634 47.092C23.0261 46.927 22.4626 46.7646 21.9751 46.465C22.3519 46.1838 22.7336 46.1668 23.1724 46.0156C23.6728 45.8432 24.1635 45.6485 24.6576 45.4591C24.6884 45.59 24.7136 45.7288 24.7743 45.8508C25.1293 46.5644 25.9462 46.4807 25.8844 45.6084C25.8681 45.3782 25.7881 45.2195 25.7004 45.0026C26.0028 44.8696 26.2571 44.7521 26.5437 44.5863C27.4777 44.0415 28.1015 43.1647 28.6758 42.2769C29.8252 41.7583 30.6779 40.8901 31.2347 39.7212C33.3699 35.2383 31.0995 28.8523 26.6788 26.6423C25.1956 25.9008 23.6869 25.9717 22.1532 26.5267C21.465 26.3482 20.914 26.3132 20.2135 26.3169C20.4498 25.8146 20.3258 25.0881 19.7039 24.9957C19.5525 24.9725 19.3983 25.012 19.2765 25.1048C18.8389 25.4425 19.127 26.0978 19.3963 26.448C18.8512 26.6848 18.3023 26.8965 17.7632 27.1497C17.1246 27.4496 16.4885 27.8097 15.8393 28.0806C16.4226 26.7396 17.0393 25.5591 18.0532 24.4907C19.4952 22.9663 21.4892 22.0852 23.5872 22.0453Z" fill="#F7F7F7"/>
<path d="M29.9915 43.036C30.7611 43.0865 31.128 44.3793 30.3058 44.6907C30.2467 44.6846 30.1884 44.6721 30.132 44.6533C29.4972 44.4435 29.1965 43.4179 29.9915 43.036Z" fill="#1E1E1E"/>
<path d="M29.9491 43.2667C29.9799 43.2654 30.0108 43.2651 30.0417 43.2658C30.5152 43.2795 30.7904 44.0887 30.3379 44.4607C29.7474 44.4455 29.491 43.6588 29.9491 43.2667Z" fill="#F7F7F7"/>
<path d="M32.9342 38.4663C33.7834 38.4264 34.1322 39.6442 33.3523 40.0085C32.563 40.0482 32.1079 38.8955 32.9342 38.4663Z" fill="#1E1E1E"/>
<path d="M33.0353 38.6386C33.598 38.721 33.8451 39.5502 33.2419 39.8344C32.6613 39.6831 32.4203 38.9596 33.0353 38.6386Z" fill="#F7F7F7"/>
<path d="M24.495 23.2661C25.3626 23.2716 25.552 24.367 24.845 24.8099C24.0412 24.8642 23.6878 23.605 24.495 23.2661Z" fill="#1E1E1E"/>
<path d="M24.5283 23.4659C25.1269 23.4748 25.3063 24.2667 24.7844 24.6109C24.1968 24.5941 24.0276 23.8561 24.5283 23.4659Z" fill="#F7F7F7"/>
<path d="M29.415 25.7834C30.2141 25.7571 30.5852 26.9043 29.809 27.3392C29.7461 27.3307 29.6062 27.3145 29.5507 27.2922C28.9326 27.0422 28.7454 26.093 29.415 25.7834Z" fill="#1E1E1E"/>
<path d="M29.5051 25.9835C29.7248 26.0181 29.848 26.0815 29.9615 26.2847C30.0475 26.4385 30.0687 26.6203 30.0201 26.7897C29.9671 26.9698 29.8867 27.0347 29.7295 27.1167C29.522 27.0977 29.3883 27.0139 29.2783 26.8331C29.1855 26.6799 29.1605 26.4951 29.2093 26.3228C29.2599 26.1423 29.3527 26.0732 29.5051 25.9835Z" fill="#F7F7F7"/>
<path d="M32.9365 31.8781C33.7405 31.8624 34.0297 33.1628 33.2508 33.4306C32.4764 33.3826 32.1461 32.2512 32.9365 31.8781Z" fill="#1E1E1E"/>
<path d="M32.9298 32.079C33.5303 32.0752 33.7409 32.876 33.2464 33.2176C32.6726 33.2505 32.4437 32.4788 32.9298 32.079Z" fill="#F7F7F7"/>
<path d="M16.0654 28.318C16.1655 28.3095 16.2658 28.3031 16.3663 28.299C16.6907 28.2882 17.1075 28.3259 17.4237 28.383C23.146 29.4163 26.3081 36.6368 24.8809 41.9018C24.5665 43.0614 23.8679 44.5009 23.0571 45.3451C21.9779 46.4828 20.4913 47.1455 18.9237 47.1876C16.6394 47.23 14.7042 46.018 13.1271 44.4842C13.6391 44.2609 14.0647 44.1034 14.588 43.914C16.3482 45.277 18.2081 45.9467 20.3641 45.0571C22.326 44.1441 23.3173 42.1955 23.6099 40.1309C23.9628 37.6394 23.1748 35.1118 21.7104 33.0999C19.9697 30.7082 16.5801 28.9658 13.9218 31.0103C12.3657 32.2024 11.7819 34.0194 11.5429 35.8928C11.0367 36.096 10.5285 36.2944 10.0185 36.4879C10.0306 35.9497 10.0544 35.451 10.1249 34.9174C10.5644 31.5883 12.481 28.6517 16.0654 28.318Z" fill="#F7F7F7"/>
<path d="M16.4553 31.4469C17.4171 31.362 18.3965 31.6888 19.2041 32.205C22.359 34.2215 23.7203 38.9354 21.7686 42.2102C21.6477 42.4056 21.4955 42.5795 21.3505 42.755C19.9268 44.4782 17.569 44.7075 15.7103 43.481C16.408 43.1477 17.2272 42.8556 17.9554 42.5787L18.0508 42.5387C19.3486 41.9937 20.24 41.7544 20.8061 40.3368C21.2949 39.1124 21.1453 37.7652 20.6407 36.5692C20.1568 35.4223 19.2456 34.3467 18.0723 33.881C17.2587 33.5581 16.3391 33.5584 15.59 34.0385C15.3789 34.1737 15.0447 34.4559 14.8393 34.5458C14.1352 34.854 13.4007 35.1056 12.6982 35.418C13.054 33.4148 14.3165 31.6569 16.4553 31.4469Z" fill="#ECECEF"/>
<path d="M16.3367 30.3052C17.4849 30.2253 18.757 30.6876 19.6915 31.35C23.238 33.8639 24.781 39.4 22.3314 43.1533C20.8458 45.4294 17.8954 45.8772 15.6659 44.4758C15.3567 44.2814 15.0542 44.0568 14.7524 43.8451C15.0294 43.7195 15.2438 43.6398 15.5278 43.5385C17.1454 44.6927 19.0744 44.7718 20.7037 43.6034C23.7587 41.1817 23.2533 36.412 21.0133 33.6C19.5238 31.7299 16.8666 30.4369 14.638 31.876C13.3483 32.7087 12.8184 34.0576 12.5142 35.5004C12.2521 35.6117 11.9894 35.7217 11.7261 35.8303C11.9864 33.2451 13.4517 30.4763 16.3367 30.3052Z" fill="#F7F7F7"/>
<path d="M23.9297 26.2618C24.6946 26.1927 25.7 26.4015 26.4007 26.705C28.5574 27.6392 30.2309 29.7793 31.0822 31.9313C32.0183 34.2974 32.2028 37.0075 31.1938 39.385C30.7902 40.3358 29.8615 41.5511 28.8851 41.939L28.8711 41.9073C28.9417 41.7804 28.9926 41.6601 29.0521 41.5335C29.1174 41.4154 29.1982 41.151 29.2782 41.0571C32.1255 37.7135 30.8078 32.1285 28.0158 29.159C26.6402 27.6959 24.696 26.5789 22.6953 26.5092C23.0672 26.3626 23.5341 26.3019 23.9297 26.2618Z" fill="#ECECEF"/>
<path d="M22.7532 26.695C23.7078 26.6663 24.9692 27.1615 25.7904 27.6179C29.8433 29.8703 32.0711 36.0097 29.7232 40.155C29.6027 40.3627 29.5155 40.5011 29.3765 40.6962C30.0839 37.8913 29.9804 35.7203 28.8948 32.9901C28.0246 30.8016 26.5286 28.8061 24.5162 27.5385C23.9374 27.1739 23.3737 26.9623 22.7532 26.695Z" fill="#ECECEF"/>
<path d="M16.6909 33.8461C16.9311 33.8136 17.3448 33.8406 17.5815 33.9014C19.9779 34.5174 21.3797 37.5238 20.7841 39.8302C20.5372 40.7865 20.1318 41.2931 19.3149 41.7858L19.6588 41.3846C19.7925 41.216 19.9187 41.0496 20.0228 40.8603C21.5189 38.1388 19.1015 33.2258 15.6596 34.2296C16.0587 34.0004 16.2385 33.9176 16.6909 33.8461Z" fill="#F7F7F7"/>
<path d="M19.5791 25.1626C20.1882 25.2147 20.385 26.0793 19.8701 26.3461C19.6137 26.3572 19.4698 26.3156 19.3452 26.0752C19.1585 25.7149 19.209 25.3443 19.5791 25.1626Z" fill="#F7F7F7"/>
<path d="M25.4665 45.1157L25.5294 45.1307C25.7773 45.4912 25.8386 46.2805 25.2054 46.0781C24.9276 45.8663 24.8937 45.6993 24.8287 45.3703C25.0349 45.2817 25.2568 45.1983 25.4665 45.1157Z" fill="#F7F7F7"/>
<path d="M40.8762 11.0671C41.16 10.9397 41.1895 10.9584 41.4944 10.9914C41.6982 11.0146 42.2596 11.0427 42.3833 11.1802C42.3981 11.1967 42.4362 11.2639 42.4465 11.2822L42.7828 11.1578C43.0583 11.2309 43.4817 11.309 43.6457 11.5393C43.6854 11.6171 43.6824 11.6266 43.7478 11.6812C43.9194 11.6935 44.0315 11.5779 44.1947 11.493C44.7146 11.6942 44.419 11.7935 44.9152 11.9702C45.0538 11.9947 45.2023 12.024 45.3405 12.0441C45.6005 12.112 45.789 12.2669 45.8091 12.5437C46.0494 12.6044 46.1603 12.5871 46.4009 12.5618C46.4877 12.631 46.8558 12.9107 46.8893 12.9808C46.8765 13.1825 46.9863 13.2538 47.1207 13.3876C47.2553 13.3682 47.3078 13.3548 47.4378 13.3142C47.5699 13.4241 47.9827 13.716 47.9902 13.8873C47.9379 13.9439 47.9395 13.9486 47.8724 13.9837C47.88 14.0777 48.2537 14.4084 48.366 14.3305C48.3806 14.3285 48.3951 14.3266 48.4097 14.3246C48.6644 14.3217 48.6322 14.3661 48.8408 14.5457C48.9302 14.6228 49.0893 14.8178 49.1341 14.9276C49.1162 14.9789 49.1263 14.9696 49.0932 15.0081C49.0116 15.1151 49.0233 15.0594 49.0353 15.1754C49.1386 15.3335 49.2536 15.3956 49.3121 15.5294C49.4253 15.4977 49.5381 15.4628 49.6537 15.4429C49.8119 15.5395 50.2607 15.9349 50.1622 16.1358L50.0703 16.1916C50.0876 16.3496 50.2497 16.5554 50.3463 16.6917C50.4528 16.6655 50.561 16.64 50.667 16.6127C50.8846 16.8422 51.0848 17.0575 51.1912 17.3629L50.9827 17.5379C51.0592 17.6714 51.2035 17.9751 51.3639 17.9771C51.7414 17.9817 51.8948 18.3547 52.034 18.7041L51.7528 18.8761C51.8339 19.0049 51.9271 19.1379 51.9808 19.2785C52.0931 19.3023 52.3077 19.3411 52.4061 19.3814C52.5187 19.5714 52.7508 19.8919 52.6871 20.1022C52.6607 20.1895 52.5642 20.2428 52.4897 20.2941C52.5935 20.5917 52.6102 20.7398 52.9587 20.789C53.1272 20.9995 53.3169 21.2032 53.3009 21.4801C53.2547 21.5515 53.2518 21.5469 53.1797 21.5954C53.1805 22.0356 53.2042 21.8797 53.4127 22.1809L53.4614 22.2379C53.5349 22.2411 53.5658 22.2254 53.5954 22.2672C53.717 22.4387 53.8295 22.8088 53.8339 23.0108L53.8019 23.0746C53.6978 23.1588 53.6619 23.1867 53.547 23.2527C53.634 23.4629 53.7311 23.664 53.8172 23.8703C53.9151 23.8835 54.0118 23.8941 54.1079 23.9166C54.1936 24.1411 54.3988 24.5081 54.1359 24.6448C53.9158 24.8511 54.0165 24.9793 54.0996 25.246C54.2018 25.2844 54.3383 25.3308 54.4356 25.3729C54.5081 25.6068 54.5733 25.8649 54.5909 26.1096C54.4699 26.1691 54.3535 26.2298 54.2275 26.2776C54.272 26.4565 54.316 26.6463 54.3664 26.8224C54.4482 26.8512 54.5657 26.8885 54.6391 26.9265C54.7993 27.2325 54.7211 27.4012 54.7984 27.6262L54.6779 27.5968C54.5306 27.6712 54.3571 27.7748 54.2082 27.8352C53.046 28.3067 51.8679 28.8376 50.6813 29.2348C50.7285 29.4582 50.7768 29.7811 50.7293 30.0053C50.7435 30.1216 50.7573 30.1805 50.7858 30.295C50.8297 30.4423 50.7913 30.7329 50.7709 30.886C50.4343 30.7652 50.0417 30.5845 49.7082 30.4411C49.6645 29.9498 49.6508 29.47 49.594 28.973C48.9506 23.3334 45.6993 17.3467 40.1553 15.2669C36.6698 13.9594 32.7686 14.916 30.3465 17.7503C30.1273 18.0068 29.8971 18.4157 29.6303 18.6058L29.6841 18.6674C29.2015 18.6681 29.2709 18.2593 28.6642 18.4933L28.4266 18.5952L28.3506 18.5169C28.3284 18.384 28.2541 18.1868 28.2951 18.07C28.4382 17.9642 28.4517 17.9981 28.5871 17.9238L28.55 17.8503C28.7047 17.706 28.756 17.6599 28.882 17.4874C28.8798 17.4521 28.9004 17.4164 28.9153 17.3777C28.8458 17.2606 28.7689 17.1929 28.8551 17.0712C28.9651 16.9161 29.1466 16.5683 29.3307 16.52C29.401 16.5572 29.3991 16.5593 29.4765 16.5733C29.7889 16.4423 29.8306 16.1723 29.7483 15.9238C29.7134 15.8181 30.1564 15.4601 30.2504 15.4109C30.334 15.3671 30.3729 15.397 30.4588 15.4273L30.4891 15.5376L30.5115 15.5219C30.6493 15.3728 30.7407 15.3514 30.8859 15.152C30.8316 14.974 30.8369 14.9335 30.9451 14.7981C31.0817 14.6273 31.253 14.4987 31.4689 14.4531C31.4996 14.4466 31.5763 14.5293 31.6017 14.5519C31.7318 14.4789 31.8624 14.4068 31.9935 14.3357C32.1441 14.2091 32.098 14.1596 32.0763 13.9716C32.2973 13.8654 32.5584 13.6342 32.7425 13.6495C32.8366 13.7079 32.8325 13.7221 32.8789 13.8216C33.0568 13.7466 33.2342 13.6707 33.4112 13.5937C33.3745 13.5027 33.3734 13.4712 33.3892 13.3764C33.5075 13.1985 33.8544 13.1173 34.0699 13.0449C34.2682 13.0035 34.4839 12.9725 34.652 12.8648C34.7238 12.8085 34.846 12.747 34.9312 12.7106C35.8875 12.3026 36.8934 11.9907 37.8761 11.6433C38.4851 11.4279 39.1664 11.1531 39.7867 10.9951C40.0689 10.9232 40.5973 10.9664 40.8762 11.0671Z" fill="#DB4431"/>
<path d="M47.1208 13.3876C47.2553 13.3682 47.3078 13.3548 47.4378 13.3143C47.5699 13.4241 47.9827 13.716 47.9902 13.8873C47.9379 13.9439 47.9395 13.9487 47.8724 13.9838C47.88 14.0777 48.2537 14.4085 48.366 14.3305C48.3806 14.3285 48.3951 14.3266 48.4097 14.3247C48.6644 14.3217 48.6322 14.3661 48.8408 14.5457C48.9302 14.6228 49.0893 14.8178 49.1341 14.9276C49.1162 14.9789 49.1263 14.9697 49.0933 15.0082C49.0116 15.1151 49.0233 15.0594 49.0353 15.1754C49.1386 15.3335 49.2536 15.3956 49.3121 15.5295C49.4253 15.4978 49.5382 15.4628 49.6538 15.4429C49.8119 15.5395 50.2607 15.9349 50.1622 16.1359L50.0703 16.1916C50.0876 16.3497 50.2497 16.5554 50.3463 16.6917C50.4529 16.6655 50.561 16.6401 50.667 16.6127C50.8846 16.8422 51.0849 17.0575 51.1912 17.3629L50.9827 17.5379C51.0592 17.6714 51.2035 17.9752 51.3639 17.9771C51.7415 17.9817 51.8949 18.3547 52.034 18.7041L51.7528 18.8761C51.8339 19.0049 51.9271 19.1379 51.9808 19.2785C52.0931 19.3023 52.3077 19.3411 52.4061 19.3814C52.5188 19.5714 52.7508 19.8919 52.6871 20.1022C52.6607 20.1895 52.5642 20.2429 52.4898 20.2941C52.5935 20.5917 52.6102 20.7398 52.9587 20.789C53.1272 20.9995 53.3169 21.2032 53.3009 21.4801C53.2547 21.5515 53.2518 21.5469 53.1797 21.5954C53.0034 21.6878 52.0834 22.0284 51.8554 22.1102C51.1018 22.3804 49.9066 22.9601 49.1591 23.1243L49.1262 23.1502C49.026 22.9806 48.9517 22.7717 48.8785 22.5861C48.7038 22.17 48.882 22.2066 48.5542 21.7582L48.5851 21.702C48.4031 21.4712 48.3271 21.2565 48.215 20.9861L48.164 20.9867C48.1238 20.9004 48.1379 20.7359 48.1388 20.6337C48.0403 20.5035 47.9484 20.3924 47.8102 20.305C47.6136 20.149 47.5339 19.9391 47.4339 19.7159C47.2841 19.5109 47.2835 19.5053 47.285 19.2478C47.1722 19.107 47.1236 19.0569 46.994 18.9339L47.0147 18.8878C46.8628 18.7708 46.6358 18.3559 46.5287 18.1743L46.4758 18.1969C46.3614 18.0651 46.3961 17.9448 46.2194 17.7065C45.8351 17.6523 45.7873 17.4684 45.59 17.1533C45.5095 17.1373 45.5335 17.1539 45.4774 17.1065C45.4985 17.0681 45.5194 17.0294 45.5399 16.9906C45.499 16.9296 45.133 16.6559 45.0238 16.557L45.0084 16.4694C44.8247 16.4165 44.5995 16.0994 44.4591 15.9466L44.3524 15.9161L44.3333 15.9377C44.3184 15.939 44.3034 15.9402 44.2885 15.9415C44.0977 15.7491 43.963 15.6153 43.743 15.4713L43.7909 15.4092C43.5658 15.2092 43.3839 15.0511 43.1808 14.8263C43.5074 14.7311 43.9222 14.5477 44.2514 14.4309C45.1586 14.1088 46.0948 13.7078 47.0168 13.4393L47.1208 13.3876Z" fill="#1E1E1E"/>
<path d="M47.1208 13.3876C47.2553 13.3682 47.3078 13.3548 47.4378 13.3143C47.5699 13.4241 47.9827 13.716 47.9902 13.8873C47.9379 13.9439 47.9395 13.9487 47.8724 13.9838C47.88 14.0777 48.2537 14.4085 48.366 14.3305C48.3806 14.3285 48.3951 14.3266 48.4097 14.3247C48.6644 14.3217 48.6322 14.3661 48.8408 14.5457C48.9302 14.6228 49.0893 14.8178 49.1341 14.9276C49.1162 14.9789 49.1263 14.9697 49.0933 15.0082L49.0686 14.9651C48.7001 15.1469 48.1115 15.3296 47.7073 15.4736C47.0977 15.695 46.4896 15.9205 45.883 16.15C45.7515 16.1985 45.0938 16.4228 45.0084 16.4694C44.8247 16.4165 44.5995 16.0994 44.4591 15.9466L44.3524 15.9161L44.3333 15.9377C44.3184 15.939 44.3034 15.9402 44.2885 15.9415C44.0977 15.7491 43.963 15.6153 43.743 15.4713L43.7909 15.4092C43.5658 15.2092 43.3839 15.0511 43.1808 14.8263C43.5074 14.7311 43.9222 14.5477 44.2514 14.4309C45.1586 14.1088 46.0948 13.7078 47.0168 13.4393L47.1208 13.3876Z" fill="#DB4431"/>
<path d="M47.1208 13.3876C47.2553 13.3682 47.3078 13.3548 47.4378 13.3143C47.5699 13.4241 47.9827 13.716 47.9902 13.8873C47.9379 13.9439 47.9395 13.9487 47.8724 13.9838L47.8584 13.9443C47.6483 13.9943 47.3854 14.1144 47.1748 14.1938C46.8679 14.3061 46.5602 14.4163 46.2517 14.5245C45.7566 14.6995 45.2605 14.872 44.7635 15.0417C44.5073 15.13 44.0203 15.2908 43.7909 15.4092C43.5658 15.2092 43.3839 15.0511 43.1808 14.8263C43.5074 14.7311 43.9222 14.5477 44.2514 14.4309C45.1586 14.1088 46.0948 13.7078 47.0168 13.4393L47.1208 13.3876Z" fill="#DB4431"/>
<path d="M47.1207 13.3876C47.2553 13.3682 47.3078 13.3548 47.4378 13.3143C47.5699 13.4241 47.9827 13.716 47.9901 13.8873C47.9379 13.9439 47.9395 13.9487 47.8724 13.9838L47.8584 13.9443L47.9136 13.891C47.8893 13.7644 47.5269 13.5171 47.4037 13.4231C47.2581 13.4403 47.1617 13.4391 47.0168 13.4393L47.1207 13.3876Z" fill="#1E1E1E"/>
<path d="M47.8584 13.9443L47.8724 13.9837C47.88 14.0777 48.2537 14.4084 48.366 14.3305C48.3806 14.3285 48.3951 14.3266 48.4097 14.3246L48.4321 14.357C47.9019 14.5692 44.6256 15.694 44.3524 15.916L44.3333 15.9377C44.3184 15.939 44.3034 15.9402 44.2885 15.9415C44.0977 15.7491 43.9629 15.6153 43.743 15.4713L43.7909 15.4091C44.0202 15.2908 44.5073 15.13 44.7635 15.0416C45.2605 14.872 45.7566 14.6995 46.2517 14.5244C46.5602 14.4163 46.8678 14.3061 47.1748 14.1938C47.3853 14.1144 47.6483 13.9942 47.8584 13.9443Z" fill="#1E1E1E"/>
<path d="M48.4097 14.3247C48.6644 14.3217 48.6321 14.3661 48.8407 14.5457C48.9302 14.6228 49.0893 14.8178 49.1341 14.9276C49.1162 14.9789 49.1263 14.9697 49.0932 15.0082L49.0686 14.9651C49.0043 14.8255 48.5795 14.3992 48.4321 14.3571L48.4097 14.3247Z" fill="#1E1E1E"/>
<path d="M47.4589 19.6823C47.4539 19.6434 47.4313 19.5817 47.4582 19.5497C47.6068 19.3729 51.1057 18.1287 51.5041 18.0023C51.6185 18.1855 51.8382 18.5141 51.9299 18.6947C51.6066 18.8893 51.1746 19.0296 50.8155 19.1609L49.3854 19.68C48.8726 19.864 48.3497 20.0949 47.8531 20.2679L47.8102 20.305C47.6136 20.149 47.5339 19.9391 47.4339 19.7159L47.4589 19.6823Z" fill="#DB4431"/>
<path d="M47.4589 19.6823C47.5667 19.8704 47.7052 20.1072 47.8531 20.2679L47.8102 20.305C47.6136 20.149 47.5339 19.9391 47.4339 19.7159L47.4589 19.6823Z" fill="#1E1E1E"/>
<path d="M48.215 20.986C48.4052 20.7833 51.9339 19.4556 52.3176 19.4C52.3996 19.5476 52.5814 19.9313 52.6374 20.0935C52.3587 20.2758 51.733 20.4848 51.3921 20.6101C50.7687 20.8421 50.1478 21.0807 49.5294 21.3257C49.2925 21.418 48.7931 21.5964 48.585 21.7019C48.4031 21.4712 48.3271 21.2565 48.215 20.986Z" fill="#DB4431"/>
<path d="M46.5286 18.1742L46.5723 18.1622C47.4547 17.9162 48.3853 17.4556 49.263 17.1703C49.5948 17.0624 50.3082 16.6844 50.6246 16.7385C50.7893 16.863 51 17.1753 51.0576 17.3708C51.0033 17.4798 50.8244 17.5322 50.7091 17.5682C49.7876 17.8555 48.8759 18.2134 47.9707 18.5516C47.7313 18.6411 47.2081 18.8056 47.0147 18.8878C46.8628 18.7707 46.6358 18.3558 46.5286 18.1742Z" fill="#DB4431"/>
<path d="M48.9046 22.4698C48.8985 22.3917 48.8962 22.4174 48.9138 22.3446C49.0229 22.2658 49.8203 22.0036 50.0093 21.9315L52.8301 20.8451C53.0743 21.121 53.1286 21.247 53.1797 21.5954C53.0034 21.6878 52.0834 22.0284 51.8553 22.1102C51.1018 22.3804 49.9066 22.9601 49.1591 23.1243L49.1262 23.1502C49.026 22.9806 48.9517 22.7717 48.8785 22.5861L48.9046 22.4698Z" fill="#DB4431"/>
<path d="M48.9046 22.4698C48.9808 22.6912 49.0657 22.9095 49.1591 23.1243L49.1262 23.1502C49.026 22.9806 48.9517 22.7716 48.8785 22.5861L48.9046 22.4698Z" fill="#191262"/>
<path d="M49.312 15.5294C49.4252 15.4977 49.5381 15.4628 49.6537 15.4429C49.8118 15.5395 50.2606 15.9349 50.1621 16.1358L50.0702 16.1916L50.0546 16.1725C49.7795 16.2551 49.4279 16.4166 49.1464 16.5142C48.1842 16.8479 47.0052 17.3781 46.0406 17.6229C45.803 17.3724 45.7425 17.2852 45.5964 16.9728C45.8869 16.8361 46.2159 16.7146 46.5185 16.6062C47.453 16.2717 48.3888 15.8744 49.3324 15.5734L49.312 15.5294Z" fill="#DB4431"/>
<path d="M49.3121 15.5294C49.4253 15.4977 49.5381 15.4628 49.6537 15.4429C49.8119 15.5395 50.2606 15.9349 50.1622 16.1358L50.0703 16.1916L50.0546 16.1725C50.1386 16.0261 49.9253 15.793 49.8215 15.6843C49.651 15.5059 49.5493 15.534 49.3324 15.5734L49.3121 15.5294Z" fill="#1E1E1E"/>
<path d="M44.1947 11.493C44.7146 11.6942 44.419 11.7935 44.9152 11.9702C45.0538 11.9947 45.2022 12.024 45.3405 12.0441C45.6005 12.112 45.789 12.2669 45.809 12.5437C46.0493 12.6044 46.1603 12.5871 46.4008 12.5618C46.4877 12.631 46.8558 12.9107 46.8893 12.9808C46.8765 13.1825 46.9863 13.2538 47.1207 13.3876L47.0168 13.4392C46.0948 13.7078 45.1585 14.1088 44.2513 14.4309C43.9222 14.5477 43.5074 14.7311 43.1808 14.8263L43.1187 14.8581C43.0225 14.8856 42.9627 14.9419 42.8822 15.0025C42.7247 14.868 42.5649 14.7363 42.403 14.6074L42.4039 14.5142C42.2141 14.3497 41.9937 14.1211 41.8113 13.9419L41.7679 14.0192C41.717 13.9826 41.7242 13.9914 41.6624 13.9703C41.5492 14.0137 41.5714 14.0198 41.4816 14.1272C40.9166 13.818 40.8087 13.7691 40.3011 13.3532C40.231 13.3527 40.1523 13.3346 40.0817 13.3223C39.8836 13.5458 39.6153 13.3314 39.3432 13.2715L39.313 13.2652C39.3963 13.1797 39.513 13.0818 39.6214 13.034C40.8909 12.4741 42.3494 12.1216 43.5992 11.5392L43.6456 11.5393C43.6854 11.6171 43.6824 11.6266 43.7478 11.6812C43.9193 11.6935 44.0315 11.5779 44.1947 11.493Z" fill="#DB4431"/>
<path d="M45.8091 12.5438C46.0494 12.6044 46.1603 12.5871 46.4009 12.5619C46.4877 12.631 46.8558 12.9107 46.8893 12.9808C46.8765 13.1825 46.9863 13.2539 47.1208 13.3876L47.0168 13.4393C46.0948 13.7078 45.1586 14.1088 44.2514 14.4309C43.9222 14.5477 43.5074 14.7311 43.1808 14.8263L43.1187 14.8581C43.0225 14.8856 42.9628 14.9419 42.8822 15.0025C42.7248 14.8681 42.565 14.7363 42.403 14.6074L42.404 14.5142C42.2142 14.3497 41.9937 14.1212 41.8113 13.9419C42.6038 13.659 43.3945 13.3711 44.1833 13.0782C44.4899 12.9647 45.5094 12.5425 45.7613 12.5714L45.8091 12.5438Z" fill="#DB4431"/>
<path d="M42.404 14.5142C42.6776 14.3452 44.1475 13.8531 44.5249 13.7268C45.0439 13.5529 46.2422 13.0692 46.7309 12.9704C46.831 12.9939 46.7963 12.9982 46.8893 12.9808C46.8765 13.1825 46.9863 13.2538 47.1207 13.3876L47.0168 13.4392C46.0948 13.7078 45.1586 14.1088 44.2514 14.4309C43.9222 14.5477 43.5074 14.7311 43.1808 14.8263L43.1187 14.8581C43.0225 14.8856 42.9628 14.9419 42.8822 15.0025C42.7248 14.868 42.565 14.7363 42.403 14.6074L42.404 14.5142Z" fill="#1E1E1E"/>
<path d="M45.809 12.5438C46.0493 12.6044 46.1603 12.5871 46.4008 12.5619C46.4877 12.631 46.8558 12.9107 46.8893 12.9808C46.7962 12.9982 46.831 12.9939 46.7308 12.9704C46.7045 12.8795 46.4553 12.7168 46.3675 12.6513C46.177 12.6472 45.9411 12.6321 45.7612 12.5714L45.809 12.5438Z" fill="#1E1E1E"/>
<path d="M45.3405 12.0441C45.6005 12.112 45.7889 12.267 45.809 12.5438L45.7612 12.5714C45.5093 12.5425 44.4899 12.9647 44.1833 13.0782C43.3944 13.3711 42.6037 13.659 41.8112 13.9419L41.7679 14.0193C41.717 13.9826 41.7242 13.9914 41.6624 13.9703C41.5491 14.0138 41.5714 14.0198 41.4816 14.1273C40.9166 13.8181 40.8087 13.7691 40.3011 13.3532C40.5041 13.3595 40.7182 13.5858 40.8427 13.7313C41.7558 13.3484 42.7203 13.0575 43.648 12.7161C44.0232 12.578 45.0667 12.2498 45.3405 12.0441Z" fill="#1E1E1E"/>
<path d="M44.1947 11.493C44.7146 11.6942 44.419 11.7935 44.9152 11.9702C44.6864 11.9729 44.556 11.871 44.3623 11.7534C43.0349 12.2219 41.3626 12.7673 40.0817 13.3223C39.8836 13.5458 39.6153 13.3314 39.3432 13.2715L39.313 13.2652C39.3963 13.1797 39.513 13.0818 39.6214 13.034C40.8909 12.4741 42.3494 12.1216 43.5992 11.5392L43.6456 11.5393C43.6854 11.6171 43.6824 11.6266 43.7478 11.6812C43.9193 11.6935 44.0315 11.5779 44.1947 11.493Z" fill="#1E1E1E"/>
<path d="M49.1591 23.1243C49.9066 22.9601 51.1018 22.3804 51.8553 22.1102C52.0834 22.0284 53.0034 21.6878 53.1797 21.5954C53.1805 22.0356 53.2042 21.8797 53.4126 22.1809L53.4614 22.2379C53.5349 22.2411 53.5657 22.2254 53.5954 22.2672C53.717 22.4387 53.8295 22.8088 53.8339 23.0108L53.8019 23.0746C53.6978 23.1588 53.6619 23.1867 53.5469 23.2527C53.634 23.4629 53.731 23.664 53.8172 23.8703C53.745 23.8847 53.673 23.8994 53.601 23.9145C53.0548 24.0891 50.2045 25.1437 49.8854 25.4119C49.8591 25.0292 49.8512 24.9879 49.6666 24.6533C49.5555 24.4894 49.4611 24.1455 49.3991 23.944C49.3275 23.489 49.3977 23.5621 49.1262 23.1502L49.1591 23.1243Z" fill="#DB4431"/>
<path d="M49.1591 23.1243C49.9066 22.9601 51.1018 22.3804 51.8553 22.1102C52.0834 22.0284 53.0034 21.6878 53.1797 21.5954C53.1805 22.0356 53.2042 21.8797 53.4126 22.1809L53.3915 22.2384L53.328 22.2179L53.3194 22.3179L50.4671 23.4313C50.1299 23.5622 49.7907 23.6896 49.4487 23.8076C49.4304 23.8139 49.4032 23.9226 49.3991 23.944C49.3275 23.489 49.3977 23.5621 49.1262 23.1502L49.1591 23.1243Z" fill="#1E1E1E"/>
<path d="M53.7776 23.0582L53.8019 23.0746C53.6978 23.1588 53.6619 23.1867 53.5469 23.2528C53.6339 23.4629 53.731 23.664 53.8172 23.8703C53.745 23.8847 53.673 23.8994 53.601 23.9145C53.0548 24.0891 50.2045 25.1438 49.8854 25.4119C49.8591 25.0292 49.8512 24.9879 49.6666 24.6533C51.0182 24.1953 52.4239 23.5558 53.7776 23.0582Z" fill="#1E1E1E"/>
<path d="M53.4126 22.1809L53.4614 22.2379C53.5348 22.2411 53.5657 22.2254 53.5954 22.2672C53.717 22.4387 53.8295 22.8088 53.8338 23.0108L53.8019 23.0746L53.7775 23.0582C53.8041 22.8566 53.5858 22.3169 53.3194 22.3179L53.328 22.2179L53.3915 22.2384L53.4126 22.1809Z" fill="#1E1E1E"/>
<path d="M40.8762 11.0671C41.16 10.9397 41.1895 10.9584 41.4944 10.9914C41.6982 11.0146 42.2596 11.0427 42.3833 11.1802C42.3981 11.1967 42.4362 11.2639 42.4465 11.2822L42.7828 11.1578C43.0583 11.2309 43.4816 11.309 43.6456 11.5393L43.5992 11.5392C42.3494 12.1216 40.8909 12.4741 39.6214 13.034C39.513 13.0818 39.3963 13.1797 39.3131 13.2652L39.2498 13.2504C39.2205 13.1473 38.8338 12.8298 38.7347 12.7428L38.6834 12.7812C38.1866 13.0085 38.3177 13.015 37.7669 12.9435C37.6778 12.9548 37.6839 12.9566 37.5998 12.9267C37.5319 12.8269 37.2419 12.6404 37.1319 12.5668L37.0894 12.6265C36.9616 12.6201 36.9433 12.6132 36.8258 12.6537C36.7723 12.7215 36.7773 12.745 36.7633 12.8309C36.6112 12.8935 36.6252 12.6855 36.3823 12.8753C36.313 12.7975 36.2425 12.7208 36.1709 12.6452C36.0007 12.6915 35.6354 12.7776 35.496 12.8555C35.4769 12.9144 35.4797 12.9012 35.4717 12.9652C35.2002 13.0672 35.1458 13.0069 34.85 13.171L34.8266 13.1504C34.7664 13.0167 34.7403 12.9855 34.652 12.8648C34.7238 12.8085 34.846 12.747 34.9312 12.7106C35.8875 12.3026 36.8934 11.9907 37.8761 11.6433C38.4851 11.4279 39.1664 11.1531 39.7867 10.9951C40.0689 10.9232 40.5973 10.9664 40.8762 11.0671Z" fill="#DB4431"/>
<path d="M40.8762 11.0671C41.16 10.9397 41.1895 10.9584 41.4944 10.9914L41.5149 11.0306C40.9797 11.0548 40.9362 11.1223 40.4376 11.3031L39.1335 11.7636C38.6518 11.9389 37.5513 12.3049 37.1253 12.5061C37.1209 12.5539 37.1155 12.5343 37.1319 12.5668L37.0894 12.6265C36.9616 12.6201 36.9433 12.6132 36.8258 12.6537C36.7723 12.7215 36.7773 12.745 36.7633 12.8309C36.6112 12.8935 36.6252 12.6855 36.3823 12.8753C36.313 12.7975 36.2425 12.7208 36.1709 12.6452C36.0007 12.6915 35.6354 12.7776 35.496 12.8555C35.4769 12.9144 35.4797 12.9012 35.4717 12.9652C35.2002 13.0672 35.1458 13.0069 34.85 13.171L34.8266 13.1504C34.7664 13.0167 34.7403 12.9855 34.652 12.8648C34.7238 12.8085 34.846 12.747 34.9312 12.7106C35.8875 12.3026 36.8934 11.9907 37.8761 11.6433C38.4851 11.4279 39.1664 11.1531 39.7867 10.9951C40.0689 10.9232 40.5973 10.9664 40.8762 11.0671Z" fill="#1E1E1E"/>
<path d="M41.4944 10.9914C41.6982 11.0146 42.2596 11.0428 42.3833 11.1802C42.3981 11.1967 42.4362 11.2639 42.4465 11.2822L42.7828 11.1578C43.0583 11.2309 43.4817 11.309 43.6457 11.5393L43.5992 11.5392C42.3494 12.1216 40.8909 12.4741 39.6214 13.034C39.513 13.0818 39.3963 13.1797 39.3131 13.2652L39.2498 13.2504C39.2205 13.1473 38.8338 12.8298 38.7347 12.7428C39.1311 12.572 39.6681 12.4003 40.0863 12.2506C40.8201 11.9886 41.5511 11.7187 42.2791 11.441C42.1844 11.3483 42.128 11.333 42.0963 11.198C42.0092 11.1151 41.6472 11.0583 41.5149 11.0306L41.4944 10.9914Z" fill="#DB4431"/>
<path d="M41.4944 10.9914C41.6982 11.0146 42.2596 11.0428 42.3833 11.1802C42.3981 11.1967 42.4362 11.2639 42.4465 11.2822L42.7828 11.1578C43.0583 11.2309 43.4817 11.309 43.6457 11.5393L43.5993 11.5392C43.4382 11.4337 43.0544 11.2948 42.8611 11.2184C42.7011 11.2635 42.4419 11.3758 42.2791 11.441C42.1844 11.3483 42.128 11.333 42.0963 11.198C42.0092 11.1151 41.6472 11.0583 41.5149 11.0306L41.4944 10.9914Z" fill="#1E1E1E"/>
<path d="M37.7668 12.9435C37.7678 12.9182 37.7789 12.8533 37.7828 12.8259C37.965 12.6538 38.9382 12.381 39.2252 12.2645C39.808 12.0279 40.431 11.8092 41.0197 11.5877C41.3114 11.4779 41.8453 11.3404 42.0962 11.198C42.128 11.333 42.1844 11.3483 42.2791 11.441C41.5511 11.7188 40.8201 11.9886 40.0862 12.2506C39.668 12.4003 39.131 12.572 38.7346 12.7429L38.6834 12.7812C38.1866 13.0085 38.3177 13.015 37.7668 12.9435Z" fill="#1E1E1E"/>
<path d="M53.8173 23.8703C53.9151 23.8835 54.0118 23.8941 54.1079 23.9166C54.1936 24.1411 54.3988 24.5081 54.1359 24.6448C53.9158 24.8511 54.0165 24.9793 54.0996 25.2461C54.2018 25.2844 54.3383 25.3308 54.4356 25.3729C54.5081 25.6068 54.5733 25.8649 54.5909 26.1096C54.4699 26.1691 54.3536 26.2298 54.2275 26.2776C54.272 26.4565 54.316 26.6463 54.3664 26.8224C54.4482 26.8512 54.5657 26.8886 54.6391 26.9265L54.5601 26.9759C54.2091 26.8154 53.5284 27.1938 53.1872 27.3469C52.3064 27.7418 51.3631 28.023 50.5017 28.4507C50.5599 28.0871 50.5402 28.0669 50.4232 27.71C51.179 27.4389 51.998 27.0808 52.7532 26.7881C53.1728 26.6254 54.1502 26.2493 54.5022 26.0382C54.4297 25.6405 54.4754 25.502 54.09 25.3392C53.94 25.3856 53.7788 25.4538 53.6333 25.5157C52.5079 25.9948 51.3568 26.4124 50.2263 26.877C50.2746 26.4923 50.2211 26.3948 50.0894 26.0343C49.9928 25.8373 49.9242 25.6278 49.8854 25.4119C50.2045 25.1437 53.0548 24.0891 53.601 23.9145C53.673 23.8994 53.7451 23.8847 53.8173 23.8703Z" fill="#1E1E1E"/>
<path d="M53.8173 23.8703C53.9151 23.8835 54.0118 23.8941 54.1079 23.9166C54.1936 24.1411 54.3988 24.5081 54.1359 24.6448L54.0475 24.6029L51.4254 25.6329C51.0445 25.7825 50.6641 25.9434 50.2777 26.0755C50.2122 26.0979 50.1462 26.063 50.0894 26.0343C49.9928 25.8373 49.9242 25.6278 49.8854 25.4119C50.2045 25.1438 53.0548 24.0891 53.601 23.9145C53.673 23.8994 53.7451 23.8847 53.8173 23.8703Z" fill="#DB4431"/>
<path d="M53.8172 23.8703C53.9151 23.8835 54.0118 23.8941 54.1079 23.9166C54.1936 24.1411 54.3988 24.5081 54.1359 24.6448L54.0475 24.6029C54.1541 24.5439 54.1189 24.5847 54.1705 24.4898C54.1791 24.3368 54.1102 24.1914 54.057 24.0428C53.8688 23.9482 53.8022 23.9391 53.601 23.9145C53.673 23.8994 53.745 23.8847 53.8172 23.8703Z" fill="#1E1E1E"/>
<path d="M28.9153 17.3777C28.8457 17.2606 28.7689 17.1929 28.8551 17.0712C28.965 16.9161 29.1466 16.5683 29.3307 16.52C29.401 16.5572 29.3991 16.5593 29.4764 16.5733C29.7889 16.4423 29.8306 16.1723 29.7483 15.9238C29.7133 15.8181 30.1564 15.4601 30.2504 15.4109C30.334 15.3671 30.3729 15.397 30.4588 15.4273L30.4407 15.5903C30.3562 15.6571 30.4035 15.6175 30.3542 15.6352C30.156 15.7066 29.9847 15.8439 29.8668 16.0069C29.8411 16.117 29.878 16.1818 29.9157 16.2902C29.8281 16.3821 29.57 16.6706 29.4607 16.6952L29.3722 16.6524C29.2607 16.7067 29.0076 17.2469 28.9153 17.3777Z" fill="#1E1E1E"/>
<path d="M34.0698 13.0449C34.2682 13.0035 34.4839 12.9725 34.652 12.8648C34.7403 12.9855 34.7664 13.0167 34.8266 13.1504C34.5989 13.2063 34.3703 13.2586 34.1409 13.3073C34.08 13.2201 34.0827 13.1512 34.0698 13.0449Z" fill="#5041F2"/>
<path d="M32.0763 13.9716C32.2973 13.8654 32.5584 13.6342 32.7425 13.6495C32.8366 13.7079 32.8325 13.7221 32.8789 13.8216L32.8691 13.8729C32.3366 13.7594 32.2945 14.2178 32.0371 14.3669L31.9935 14.3357C32.1441 14.2091 32.098 14.1596 32.0763 13.9716Z" fill="#1E1E1E"/>
<path d="M34.0699 13.0449C34.0827 13.1512 34.08 13.2201 34.1409 13.3073L34.1482 13.3677C33.978 13.2849 33.6905 13.2944 33.5378 13.4539C33.5039 13.4893 33.5338 13.5735 33.4866 13.6639L33.4112 13.5937C33.3745 13.5027 33.3734 13.4712 33.3892 13.3764C33.5075 13.1985 33.8543 13.1173 34.0699 13.0449Z" fill="url(#paint0_linear_475_2712)"/>
<path d="M30.8859 15.152C30.8316 14.974 30.8369 14.9336 30.9451 14.7981C31.0817 14.6273 31.253 14.4987 31.4689 14.4531C31.4996 14.4466 31.5763 14.5293 31.6017 14.5519L31.6183 14.6038C31.3904 14.6477 30.8743 14.8532 30.9991 15.1515L30.8859 15.152Z" fill="#1E1E1E"/>
<path d="M43.1187 14.8581L43.1808 14.8263C43.3839 15.0511 43.5657 15.2092 43.7908 15.4092L43.743 15.4713C43.477 15.2588 43.3295 15.124 43.1187 14.8581Z" fill="#1E1E1E"/>
<path d="M41.7679 14.0193L41.8112 13.9419C41.9937 14.1212 42.2141 14.3497 42.4039 14.5142L42.403 14.6074C42.1979 14.4487 41.9405 14.2117 41.7679 14.0193Z" fill="#1E1E1E"/>
<path d="M28.6466 18.4387C29.1896 18.1864 29.2083 18.5422 29.6303 18.6058L29.684 18.6674C29.2015 18.6681 29.2708 18.2593 28.6642 18.4933L28.6466 18.4387Z" fill="#0F0E3C"/>
<path d="M46.4757 18.1969L46.5286 18.1743C46.6358 18.3558 46.8628 18.7707 47.0147 18.8878L46.994 18.9339C46.7605 18.8027 46.608 18.4423 46.4757 18.1969Z" fill="#1E1E1E"/>
<path d="M54.6391 26.9265C54.7993 27.2325 54.7211 27.4012 54.7984 27.6262L54.6778 27.5968C54.7187 27.4175 54.6501 27.1401 54.5601 26.9759L54.6391 26.9265Z" fill="#1E1E1E"/>
<path d="M44.4591 15.9466C44.5994 16.0994 44.8247 16.4165 45.0084 16.4694L45.0238 16.557C44.7788 16.4503 44.5168 16.2167 44.4591 15.9466Z" fill="#1E1E1E"/>
<path d="M48.1639 20.9867L48.215 20.9861C48.3271 21.2565 48.4031 21.4712 48.5851 21.702L48.5542 21.7581C48.3339 21.485 48.2852 21.3135 48.1639 20.9867Z" fill="#191262"/>
<path d="M30.8859 15.152L30.9991 15.1515C30.9155 15.3042 30.6865 15.5082 30.5115 15.5219C30.6493 15.3728 30.7407 15.3514 30.8859 15.152Z" fill="#1E1E1E"/>
<path d="M38.6834 12.7812L38.7347 12.7429C38.8338 12.8298 39.2205 13.1473 39.2498 13.2505C39.0809 13.1627 38.8339 12.9198 38.6834 12.7812Z" fill="#0F0E3C"/>
<path d="M33.4112 13.5938L33.4866 13.6639C33.3377 13.7046 32.9349 13.8638 32.8691 13.8729L32.8789 13.8216C33.0568 13.7466 33.2342 13.6707 33.4112 13.5938Z" fill="#0F0E3C"/>
<path d="M34.1409 13.3073C34.3703 13.2586 34.5989 13.2063 34.8266 13.1504L34.85 13.171C34.6658 13.2824 34.3433 13.2964 34.1483 13.3677L34.1409 13.3073Z" fill="#E98B7F"/>
<path d="M37.1319 12.5668C37.2419 12.6404 37.5319 12.8269 37.5998 12.9267C37.4901 12.897 37.2006 12.6981 37.0894 12.6265L37.1319 12.5668Z" fill="#0F0E3C"/>
<path d="M28.8819 17.4874C28.8845 17.6977 28.7355 17.781 28.5871 17.9238L28.55 17.8504C28.7046 17.706 28.756 17.6599 28.8819 17.4874Z" fill="#1E1E1E"/>
<path d="M31.9935 14.3357L32.0371 14.367C31.9035 14.4455 31.7566 14.5372 31.6184 14.6038L31.6017 14.5519C31.7318 14.4789 31.8624 14.4069 31.9935 14.3357Z" fill="#0F0E3C"/>
<path d="M28.3506 18.5169C28.4389 18.5035 28.5581 18.4642 28.6466 18.4388L28.6642 18.4933L28.4266 18.5953L28.3506 18.5169Z" fill="#1E1E1E"/>
<path d="M29.8565 18.6859C29.9251 18.2371 31.5678 16.7899 31.9934 16.4787C36.8009 12.9626 42.8049 15.619 45.9606 19.988C48.2075 23.0989 49.3412 26.5337 49.5245 30.3595C49.0111 30.1559 48.5185 29.925 48.0132 29.7044C47.3914 29.4329 46.7665 29.1753 46.1511 28.8888C45.7821 24.3987 42.303 18.9276 37.195 19.3684C36.6428 19.416 36.153 19.5407 35.6212 19.6834C35.0843 19.8117 34.6489 19.8501 34.1042 20.069C33.7534 20.21 33.6057 20.333 33.2977 20.4933C33.1446 20.4322 32.9625 20.3705 32.8571 20.2401L32.8159 20.2463C32.5784 19.9977 32.051 19.5429 31.6992 19.5204L31.6776 19.4859L31.4878 19.4716C31.4321 19.4022 31.3828 19.3554 31.3206 19.2924C30.9998 19.1423 30.8098 19.0241 30.4666 18.903L30.4503 18.8369C30.2545 18.7696 30.1115 18.7912 29.8994 18.7239L29.8565 18.6859Z" fill="#F7F7F7"/>
<path d="M31.6776 19.4859C31.8647 19.4505 31.9084 19.4657 32.069 19.5684C32.3392 19.7413 32.6712 19.9791 32.8571 20.2401L32.8159 20.2463C32.5784 19.9977 32.0511 19.5429 31.6992 19.5204L31.6776 19.4859Z" fill="#1E1E1E"/>
<path d="M30.4503 18.8369C30.7447 18.9366 31.1087 19.0581 31.3206 19.2924C30.9998 19.1423 30.8098 19.0241 30.4666 18.903L30.4503 18.8369Z" fill="#0F0E3C"/>
<path d="M44.8626 21.1832C45.211 21.1625 45.4682 21.2718 45.6155 21.6096C45.7076 21.8223 45.711 22.0628 45.625 22.278C45.5255 22.5202 45.3845 22.628 45.153 22.7257C44.294 22.7773 43.9875 21.5863 44.8626 21.1832Z" fill="#1E1E1E"/>
<path d="M44.8863 21.3847C45.5135 21.3296 45.7377 22.1623 45.1606 22.5131C44.5537 22.614 44.2981 21.7502 44.8863 21.3847Z" fill="#F7F7F7"/>
<path d="M47.4716 26.0821C48.2814 26.1661 48.4552 27.4517 47.5134 27.6593C46.7131 27.5235 46.5841 26.2694 47.4716 26.0821Z" fill="#1E1E1E"/>
<path d="M47.4135 26.2766C48.0194 26.3057 48.1564 27.1607 47.5798 27.4595C46.9538 27.3907 46.8438 26.6261 47.4135 26.2766Z" fill="#F7F7F7"/>
<path d="M40.7685 17.1417C41.6548 17.0771 41.8581 18.3409 41.0483 18.6626C40.1966 18.6953 39.9181 17.5402 40.7685 17.1417Z" fill="#1E1E1E"/>
<path d="M40.7864 17.3426C41.4025 17.2741 41.5986 18.1325 41.0165 18.4533C40.3829 18.4253 40.2412 17.6757 40.7864 17.3426Z" fill="#F7F7F7"/>
<path d="M34.9651 16.6775C35.7527 16.7955 35.9191 18.0261 35.0247 18.2277C34.1534 18.0724 34.0962 16.8715 34.9651 16.6775Z" fill="#1E1E1E"/>
<path d="M34.8349 16.9016C35.4807 16.8517 35.6484 17.657 35.1076 18.0027C34.5317 18.0462 34.3287 17.3047 34.8349 16.9016Z" fill="#F7F7F7"/>
<path d="M33.4373 20.5562C33.8595 20.1096 35.2721 19.8633 35.8689 19.8293C40.4008 19.5712 43.909 24.0977 44.5872 28.2226C44.0868 27.9745 43.5784 27.7427 43.063 27.5276C42.1864 24.2859 39.1972 20.6334 35.3536 21.5501C35.2286 21.58 34.8996 21.7002 34.7873 21.6884L34.743 21.7156C34.5965 21.5759 34.3894 21.3592 34.2007 21.2951L34.0466 21.2508C33.9496 21.1838 33.9204 21.1572 33.8346 21.0751L33.7512 21.0323L33.8054 20.9447L33.7888 20.8822C33.693 20.7659 33.4998 20.6851 33.3554 20.6061L33.4373 20.5562Z" fill="#4CB542"/>
<path d="M34.0466 21.2508C34.2567 21.2395 34.3668 21.2615 34.5328 21.4144C34.625 21.4986 34.7101 21.5902 34.7873 21.6884L34.743 21.7155C34.5965 21.5759 34.3894 21.3592 34.2007 21.2951L34.0466 21.2508Z" fill="#1E1E1E"/>
<path d="M33.4373 20.5562C33.6886 20.7099 33.853 20.75 33.8346 21.0751L33.7512 21.0323L33.8054 20.9447L33.7888 20.8822C33.693 20.7659 33.4998 20.6851 33.3554 20.6061L33.4373 20.5562Z" fill="#1E1E1E"/>
<path d="M31.6992 19.5204C32.0511 19.5429 32.5784 19.9977 32.8159 20.2463C32.9753 20.4931 33.1653 20.4503 33.3554 20.6061C33.4998 20.6851 33.693 20.7659 33.7888 20.8822L33.8053 20.9447L33.7512 21.0323L33.8346 21.0751C33.9204 21.1572 33.9496 21.1838 34.0466 21.2508L34.2007 21.2951C34.0085 21.3906 33.7998 21.4594 33.5975 21.5324C32.5548 21.9086 31.5428 22.3622 30.4973 22.7319C30.3651 22.7786 30.2213 22.831 30.0961 22.8937L30.048 22.9281C29.8526 22.7466 29.7475 22.6524 29.5313 22.5002L29.5737 22.4664C29.3608 22.3396 29.1043 22.1269 28.894 22.0341L28.825 22.076C28.379 21.7723 28.1523 21.7186 27.6889 21.4733L27.4213 21.3373L27.4635 21.271C27.5358 21.1561 28.2524 20.9228 28.4451 20.8461C29.0535 20.5973 29.6635 20.3526 30.2753 20.1121C30.6964 19.9464 31.3074 19.7216 31.6992 19.5204Z" fill="#DB4431"/>
<path d="M29.5736 22.4664C30.4168 22.1524 31.2538 21.8223 32.0843 21.476C32.5285 21.2947 33.0563 21.0662 33.5173 20.9216C33.5912 20.8985 33.6862 20.9835 33.7512 21.0323L33.8346 21.0751C33.9204 21.1572 33.9496 21.1838 34.0466 21.2508L34.2007 21.2951C34.0085 21.3906 33.7998 21.4594 33.5975 21.5324C32.5548 21.9086 31.5427 22.3622 30.4973 22.7319C30.3651 22.7786 30.2213 22.8311 30.0961 22.8937L30.048 22.9281C29.8526 22.7466 29.7475 22.6524 29.5313 22.5002L29.5736 22.4664Z" fill="#1E1E1E"/>
<path d="M32.3621 20.0575C32.5404 20.1842 32.6708 20.275 32.8598 20.3831C32.3625 20.5844 29.1305 21.8312 28.894 22.0341L28.825 22.076C28.379 21.7723 28.1523 21.7187 27.6889 21.4733L27.7403 21.4276L28.2131 21.6497C28.7256 21.4109 29.645 21.0956 30.2018 20.8692C30.6902 20.6707 31.8832 20.1789 32.3491 20.061L32.3621 20.0575Z" fill="#1E1E1E"/>
<path d="M27.4635 21.2711C27.556 21.3251 27.6451 21.3782 27.7403 21.4276L27.6889 21.4733L27.4213 21.3373L27.4635 21.2711Z" fill="#0F0E3C"/>
<path d="M45.6985 39.2695C46.1581 39.4847 46.6371 39.6499 47.0993 39.8654C46.6773 40.1608 46.2398 40.5091 45.8373 40.8313L45.893 40.8782C45.7379 40.9897 45.6265 41.1033 45.4894 41.2355C45.4031 41.2962 45.4068 41.2864 45.2928 41.2538C45.1447 41.3411 45.0383 41.4035 44.9131 41.5184C44.7836 41.6271 44.662 41.7612 44.5058 41.8305C44.462 41.8499 44.3738 41.8294 44.3609 41.8343C43.0178 42.3395 41.6615 42.6717 40.2122 42.6163C40.0196 42.609 39.7811 42.6516 39.5858 42.6081C39.4109 42.4524 39.5002 42.4379 39.5034 42.2312C39.4623 42.1696 39.4166 42.1362 39.361 42.088C39.2581 42.0337 39.2625 42.0347 39.183 41.948C39.1225 41.6917 39.5819 41.6302 39.7682 41.5906C39.8876 41.381 39.9523 41.2361 40.0486 41.013C42.4545 40.9566 43.6487 40.6204 45.6985 39.2695Z" fill="#DB4431"/>
<path d="M45.2928 41.2538C45.4837 41.1339 45.6632 40.9763 45.8373 40.8314L45.8931 40.8782C45.738 40.9897 45.6265 41.1033 45.4895 41.2355C45.4032 41.2962 45.4068 41.2864 45.2928 41.2538Z" fill="#1E1E1E"/>
<path d="M35.4845 30.1386C36.6856 29.7114 38.1533 29.1531 39.3415 28.6773C39.5313 29.021 39.5827 29.1326 39.6747 29.5105C39.0313 29.764 38.3257 29.9951 37.6684 30.2449C37.1248 30.4514 36.2197 30.861 35.6882 31.0046C35.6375 30.8448 35.4259 30.2522 35.4845 30.1386Z" fill="#DB4431"/>
<path d="M36.6593 36.0021C37.9115 35.6169 39.1344 35.0909 40.372 34.6608C40.4204 34.644 40.5778 34.6617 40.608 34.6958C40.7017 34.8015 40.6699 35.2696 40.6688 35.3978C39.4907 35.8562 38.3241 36.341 37.1368 36.7765C36.9952 36.8285 36.8157 36.9013 36.6804 36.9658C36.6621 36.6762 36.6645 36.2957 36.6593 36.0021Z" fill="#DB4431"/>
<path d="M36.2874 33.0575C37.4412 32.6637 38.567 32.1956 39.7245 31.8126C39.9025 31.7537 40.0463 31.6953 40.2077 31.6008C40.2982 31.899 40.3398 32.11 40.3982 32.4131C39.1237 32.9193 37.7059 33.4125 36.4634 33.9394C36.4202 33.6482 36.3179 33.3064 36.2874 33.0575Z" fill="#DB4431"/>
<path d="M50.7292 30.0053C50.8765 29.89 54.4037 28.4852 54.5619 28.4891C54.8767 28.6388 54.8057 28.9628 54.8037 29.2698C54.3806 29.4328 51.1842 30.7374 50.971 30.6803C50.8359 30.5663 50.8555 30.3237 50.7858 30.295C50.7573 30.1805 50.7435 30.1217 50.7292 30.0053Z" fill="#DB4431"/>
<path d="M36.381 23.4578C36.5673 23.7081 36.6989 23.9062 36.8654 24.1675C36.1048 24.4861 35.3322 24.7669 34.5635 25.0649C34.0396 25.268 33.5127 25.5173 32.9919 25.7171L32.9441 25.7617C32.8789 25.7184 32.5215 25.26 32.4507 25.1714L32.4956 25.0956C32.6401 24.9218 33.0326 24.8078 33.2536 24.719C34.2889 24.3033 35.3621 23.9105 36.381 23.4578Z" fill="#DB4431"/>
<path d="M32.4956 25.0956C32.571 25.2233 32.8836 25.6333 32.9919 25.7171L32.9441 25.7617C32.8789 25.7184 32.5215 25.26 32.4507 25.1714L32.4956 25.0956Z" fill="#0F0E3C"/>
<path d="M36.5841 34.5237C37.4909 34.2567 38.3973 33.8224 39.296 33.5164C39.5272 33.4377 40.2948 33.0949 40.4975 33.1798C40.5851 33.3573 40.5818 33.6918 40.5904 33.8961C40.0091 34.1316 39.4252 34.3601 38.8386 34.5818C38.1074 34.8519 37.3435 35.1165 36.6317 35.4363C36.6189 35.2606 36.5581 34.6607 36.5841 34.5237Z" fill="#DB4431"/>
<path d="M36.6769 37.552C37.536 37.2524 38.391 36.9412 39.2418 36.6187C39.5522 36.5021 40.3406 36.1463 40.6157 36.1246C40.7247 36.2773 40.6239 36.7707 40.5824 36.9552C39.4933 37.4129 38.3326 37.7612 37.2433 38.2332C37.0508 38.3166 36.8134 38.4168 36.6154 38.4812C36.6318 38.1712 36.6523 37.8615 36.6769 37.552Z" fill="#DB4431"/>
<path d="M34.2007 21.2951C34.3894 21.3592 34.5965 21.5759 34.743 21.7155L34.803 21.8136C34.717 21.9796 31.507 23.1537 31.0918 23.3338C30.831 23.4468 30.8215 23.3865 30.5962 23.3122L30.5528 23.282C30.4944 23.1857 30.2004 22.9737 30.0961 22.8937C30.2213 22.8311 30.3651 22.7786 30.4973 22.7319C31.5427 22.3622 32.5548 21.9086 33.5975 21.5324C33.7998 21.4594 34.0085 21.3906 34.2007 21.2951Z" fill="#DB4431"/>
<path d="M31.3384 23.9161C32.1984 23.5953 33.0537 23.2563 33.9133 22.9332C34.406 22.7481 34.8862 22.5292 35.3825 22.3483C35.5181 22.5305 35.7408 22.806 35.844 22.9919C35.1806 23.3013 34.3537 23.5953 33.667 23.8784C33.2904 24.0336 32.2591 24.4543 31.9318 24.5106C31.802 24.3185 31.5181 24.0785 31.3384 23.9161Z" fill="#DB4431"/>
<path d="M36.2296 40.6036L36.267 40.593C36.6 40.4965 37.0137 40.3328 37.3437 40.2112C38.0643 39.9487 38.7788 39.6695 39.4863 39.3737C39.6584 39.3018 40.219 39.0131 40.3614 39.0429C40.4223 39.2084 40.2478 39.692 40.182 39.8649C39.3701 40.2213 38.5161 40.5529 37.6881 40.8748C37.1387 41.0884 36.5307 41.3493 35.9827 41.543C35.9956 41.4494 36.1918 40.7587 36.2296 40.6036Z" fill="#DB4431"/>
<path d="M39.3609 42.088C39.4166 42.1362 39.4623 42.1696 39.5034 42.2312L39.4505 42.2832C39.4442 42.2896 39.4378 42.2959 39.4316 42.3023C39.2659 42.4761 39.3009 42.7338 39.1178 42.8943C39.037 42.965 34.8844 44.6138 34.648 44.6504L34.5941 44.5299C34.7574 44.2361 34.9118 43.9476 35.0808 43.6557C35.128 43.6599 35.1314 43.6542 35.1712 43.6732C35.6348 43.7032 37.896 42.5969 38.5079 42.448C38.6257 42.4194 39.1534 42.2005 39.2885 42.1311L39.3609 42.088Z" fill="#DB4431"/>
<path d="M35.0808 43.6557C35.128 43.6599 35.1314 43.6542 35.1712 43.6732C35.0489 43.8427 34.723 44.4566 34.648 44.6504L34.5941 44.5299C34.7574 44.2361 34.9118 43.9476 35.0808 43.6557Z" fill="#1E1E1E"/>
<path d="M39.361 42.088C39.4166 42.1362 39.4623 42.1696 39.5034 42.2312L39.4505 42.2832C39.4005 42.2128 39.3556 42.184 39.2885 42.1311L39.361 42.088Z" fill="#1E1E1E"/>
<path d="M36.3937 46.0137C35.8237 46.5705 32.9628 47.566 32.0877 47.9391C31.8564 48.0378 31.4623 48.2339 31.2241 48.3039L31.2163 48.2537C31.3582 47.971 32.0164 47.9078 32.3972 47.6274L32.3918 47.5785C32.3017 47.5298 32.2949 47.5398 32.2388 47.4613C32.2881 47.38 32.8322 46.9082 32.917 46.8815C34.231 46.47 35.4855 45.8838 36.7738 45.3971C36.9125 45.3448 37.041 45.2643 37.1835 45.2384L37.179 45.2685L37.2242 45.3401C36.9581 45.5597 36.7012 45.7902 36.454 46.0309L36.3937 46.0137Z" fill="#DB4431"/>
<path d="M37.179 45.2685L37.2242 45.3401C36.9581 45.5597 36.7012 45.7902 36.454 46.0309L36.3937 46.0137C36.6236 45.7792 36.9372 45.4994 37.179 45.2685Z" fill="#1E1E1E"/>
<path d="M34.1724 45.3438C34.348 45.2347 35.05 44.9867 35.304 44.8882C35.8631 44.6706 36.4234 44.456 36.9847 44.2443C37.5175 44.0432 37.9918 43.8081 38.5709 43.8293C38.4288 44.0009 38.0789 44.4263 37.8719 44.5175C36.632 45.0641 35.3465 45.5205 34.101 46.0607C33.8697 46.161 33.8164 46.155 33.5715 46.1059L33.5327 46.0246C33.7542 45.7878 33.8888 45.5748 34.0819 45.3172L34.1724 45.3438Z" fill="#DB4431"/>
<path d="M34.0819 45.3172L34.1724 45.3438C33.988 45.5951 33.7878 45.8861 33.5715 46.1058L33.5327 46.0246C33.7542 45.7878 33.8888 45.5748 34.0819 45.3172Z" fill="#1E1E1E"/>
<path d="M45.8931 40.8782C46.13 40.7843 47.7419 40.2123 47.8755 40.2364C47.7209 40.4575 45.8842 41.078 45.4895 41.2355C45.6266 41.1033 45.738 40.9897 45.8931 40.8782Z" fill="#DB4431"/>
<path d="M39.1263 28.3384C39.7569 27.8926 40.5349 26.7364 41.3648 27.0466C42.6916 27.5426 43.9855 28.1616 45.2785 28.7404L51.5765 31.4858L53.8218 32.4728C54.301 32.684 54.8027 32.9179 55.2911 33.0969C54.1156 33.1337 53.2927 33.3951 52.4165 34.2115C50.4608 36.0338 49.8072 39.6167 51.733 41.6744L44.8423 38.6569C43.9631 38.2826 43.0882 37.8984 42.2178 37.5041C41.7683 37.3039 41.1795 37.0613 40.7548 36.8305C40.7624 36.5802 40.7717 36.33 40.7827 36.0798C40.5895 36.0584 40.3218 36.0625 40.3174 35.8205C40.4269 35.6081 40.5556 35.5983 40.7894 35.5082L40.7765 34.6061C40.613 34.6041 40.4582 34.5765 40.2963 34.5531C40.2878 34.4348 40.2877 34.2915 40.2844 34.1708C40.435 34.1005 40.5601 34.0569 40.7154 34.0018L40.6299 33.0649C40.5081 33.0648 40.374 33.0557 40.2513 33.0501C40.1813 32.9008 40.1068 32.8197 40.1776 32.6626C40.2751 32.58 40.4113 32.5512 40.5372 32.5116C40.4929 32.2699 40.4358 31.8467 40.3339 31.6289C40.2564 31.4634 40.1676 31.6033 40.0153 31.5636C39.9303 31.465 39.9094 31.3328 39.8732 31.2031L40.2434 31.0035C40.1278 30.6728 40.1346 30.3603 39.9375 30.0727C39.8366 30.0224 39.8686 30.0383 39.7285 30.0713L39.6702 30.1037C39.5686 29.9707 39.5328 29.8821 39.463 29.7331L39.7854 29.5967C39.7037 29.1829 39.6588 28.8355 39.2968 28.6041C39.197 28.5404 39.1711 28.45 39.1263 28.3384Z" fill="#F7F7F7"/>
<path d="M54.7889 33.321C55.3692 33.2754 55.9828 33.3881 56.4721 33.7109C58.5606 35.089 58.2584 38.2261 57.0451 40.0778C56.276 41.2515 55.398 41.9388 54.0494 42.235C52.1915 42.5278 51.0634 41.0023 50.8302 39.3209C50.6241 37.7913 51.0299 36.2422 51.9593 35.0101C52.69 34.0495 53.5907 33.4788 54.7889 33.321Z" fill="#F7F7F7"/>
<path d="M37.4318 19.5235C38.8855 19.415 40.7006 20.0805 41.833 20.9619C44.2913 22.8755 45.5526 25.8294 45.9838 28.8278L45.3994 28.5663C45.1861 28.4724 44.9631 28.3639 44.7505 28.2651C44.4991 26.5523 43.5508 24.5516 42.5325 23.1742C41.4316 21.685 39.8945 20.4365 38.0931 19.9192C37.5427 19.7611 37.0781 19.7208 36.5236 19.6348C36.8525 19.5822 37.0984 19.5412 37.4318 19.5235Z" fill="#ECECEF"/>
<path d="M40.6846 37.0639C40.8432 37.0831 41.6894 37.4957 41.8635 37.5793L41.8285 37.5992C40.5567 38.3389 42.3813 40.1967 42.6661 38.5397C42.7116 38.2748 42.526 37.9658 42.3497 37.7758C43.3451 38.21 44.53 38.7143 45.4914 39.1734C45.2444 39.3592 45.0574 39.4757 44.7962 39.6354C43.259 40.5502 41.8761 40.7712 40.1332 40.8405C40.1386 40.3755 39.8087 40.4879 39.7791 40.182C39.861 40.0549 40.1193 40.0098 40.2678 39.9715C40.3793 39.6751 40.4468 39.3306 40.506 39.0196C40.331 38.9794 40.1801 38.9685 40.1656 38.7598C40.2676 38.5621 40.3894 38.5454 40.5991 38.462C40.7084 38.1484 40.7429 37.7372 40.7637 37.4073C40.622 37.4068 40.4207 37.4235 40.3068 37.3516L40.3079 37.2971C40.4233 37.176 40.5403 37.1508 40.6846 37.0639Z" fill="#F7F7F7"/>
<path d="M39.6702 30.1037L39.7285 30.0713C39.8986 30.163 39.9397 30.3241 39.9953 30.5123C40.0336 30.6461 40.0706 30.7803 40.106 30.915C39.7696 31.0923 39.327 31.2589 38.9632 31.386C38.0309 31.7118 37.0986 32.1324 36.1697 32.4556C36.1093 32.2002 36.0305 31.8166 35.9516 31.5763C36.3669 31.4254 39.468 30.3275 39.6702 30.1037Z" fill="#DB4431"/>
<path d="M38.8102 27.2468C38.935 27.3858 39.0977 27.8409 39.1716 28.0368C38.8143 28.213 37.89 28.5279 37.4751 28.6905C36.8782 28.9243 35.7802 29.4169 35.1984 29.5526C35.1385 29.4834 34.8983 28.9185 34.8419 28.7935C35.1733 28.7047 35.5322 28.5637 35.8495 28.4315C36.8305 28.0228 37.8307 27.6581 38.8102 27.2468Z" fill="#DB4431"/>
<path d="M38.0704 25.9235C38.1571 25.9681 38.4731 26.5587 38.5499 26.6863C37.2398 27.1612 35.8954 27.7814 34.6176 28.2284L34.5938 28.2299C34.5248 28.1782 34.236 27.6191 34.1559 27.4891C34.4858 27.3972 35.1804 27.0999 35.5231 26.9633C36.3766 26.6276 37.2258 26.281 38.0704 25.9235Z" fill="#DB4431"/>
<path d="M37.2901 24.6403C37.4291 24.7914 37.6446 25.2041 37.7503 25.4004L35.5399 26.2693C34.9964 26.486 34.3966 26.7461 33.8472 26.9317C33.7383 26.8149 33.4772 26.3592 33.3826 26.2001C33.9635 26.0073 34.6604 25.718 35.2362 25.4913C35.8766 25.239 36.6768 24.937 37.2901 24.6403Z" fill="#DB4431"/>
<path d="M40.5636 37.4941L40.633 37.5012C40.6819 37.6354 40.5543 38.1998 40.5208 38.3769C40.0579 38.5856 39.5501 38.7646 39.0735 38.9534L36.4565 40.0008L36.3942 40.0085C36.3337 39.9025 36.5009 39.2684 36.5133 39.0852C37.0335 38.9314 37.5948 38.6963 38.1069 38.5037C38.9436 38.1891 39.7523 37.8705 40.5636 37.4941Z" fill="#DB4431"/>
<path d="M39.9371 40.5763C39.9816 40.5809 39.9545 40.5749 40.0144 40.6069C40.075 40.8544 39.8524 41.238 39.7382 41.4591C39.4109 41.5303 38.9626 41.715 38.6408 41.8364C38.055 42.0537 37.4726 42.2801 36.8938 42.5153C36.4871 42.6809 35.9261 42.9275 35.5201 43.0504L35.4813 43.0516C35.4593 42.9474 35.7566 42.3023 35.8224 42.15C36.5531 41.9312 37.271 41.591 37.9876 41.3259C38.6401 41.0845 39.2813 40.8106 39.9371 40.5763Z" fill="#DB4431"/>
<path d="M54.4976 30.1194C54.9068 30.0903 54.778 30.6396 54.7548 30.9137C54.5171 31.0231 54.1165 31.1583 53.8628 31.2528C53.4612 31.4015 53.0637 31.5612 52.6709 31.7317C52.5158 31.6735 52.3303 31.5883 52.1759 31.522C52.0025 31.4488 51.8212 31.3556 51.6512 31.272C51.8731 31.1602 52.1044 31.0683 52.335 30.9762C53.0546 30.6889 53.7689 30.3827 54.4976 30.1194Z" fill="#DB4431"/>
<path d="M41.8 37.8176C42.014 37.8141 42.1265 37.8329 42.2803 37.9954C42.415 38.1395 42.4837 38.3331 42.47 38.5299C42.4546 38.7401 42.3852 38.8431 42.23 38.9702C42.2049 38.9751 42.1797 38.9795 42.1544 38.9831C41.6034 39.0584 41.4526 38.2157 41.8 37.8176Z" fill="#F7F7F7"/>
<path d="M54.0959 31.8486C54.192 31.8417 54.3946 31.882 54.485 31.9117C54.7335 31.9931 54.7648 32.3882 54.494 32.4723C54.4076 32.4991 54.3033 32.4432 54.2254 32.4117C53.9321 32.2881 53.6868 32.1834 53.4023 32.0381L54.0959 31.8486Z" fill="#DB4431"/>
<path d="M6.45474 38.1259C9.75937 37.8701 12.0455 42.928 9.89794 45.3728C9.37623 45.9667 8.9966 46.1656 8.23001 46.3383C8.18408 46.3462 8.13796 46.353 8.09167 46.3588C7.29621 46.4609 6.44016 46.1182 5.81903 45.6408C3.8547 44.1312 3.06288 40.508 5.0659 38.7125C5.46973 38.3505 5.9245 38.1908 6.45474 38.1259Z" fill="#1E1E1E"/>
<defs>
<linearGradient id="paint0_linear_475_2712" x1="33.676" y1="13.2213" x2="33.769" y2="13.4853" gradientUnits="userSpaceOnUse">
<stop/>
<stop offset="1" stop-color="#020044"/>
</linearGradient>
</defs>
</svg>
