<svg width="60" height="60" viewBox="0 0 60 60" fill="none" xmlns="http://www.w3.org/2000/svg">
<g clip-path="url(#clip0_475_2713)">
<circle cx="27.8012" cy="27.8012" r="22.4554" transform="rotate(-8.18304 27.8012 27.8012)" fill="#DEDEDE"/>
<path d="M37.9507 4.23225C38.6107 4.22403 39.2705 4.25897 39.9259 4.33684C43.9381 4.82987 47.5878 6.90327 50.0657 10.0972C52.556 13.2652 53.677 17.2971 53.1793 21.2959C52.6947 25.3522 50.6338 29.0549 47.4418 31.6042C49.2412 31.7397 53.3806 32.2032 54.7256 33.3204C54.9004 33.4656 55.0234 33.6252 55.0444 33.8568C55.0781 34.2261 55.0532 34.6171 55.0525 34.9883L55.0594 36.8929L55.064 39.9775C55.0652 40.5645 55.075 41.1578 55.0584 41.7448C55.0505 41.877 55.0502 41.9487 54.9549 42.0439C54.6281 42.3704 54.1167 42.5538 53.6991 42.7328C54.2476 42.9422 54.6873 43.0974 55.043 43.5828C55.0641 43.8858 55.0473 44.3883 55.0461 44.7114C55.0418 45.3731 55.0432 46.0348 55.0502 46.6965L55.0595 49.4106C55.0601 49.9212 55.0705 50.4575 55.0386 50.9656C55.0201 51.2611 54.8318 51.5468 54.6019 51.7266C53.8906 52.2828 52.6993 52.5232 51.8203 52.7001C49.4673 53.1738 47.0595 53.3668 44.6693 53.5013C39.7371 53.7841 34.7906 53.691 29.8725 53.2229C27.3729 55.7888 24.8906 57.2611 21.3552 57.997C20.4062 58.2063 19.4704 58.246 18.5058 58.2787C11.426 58.5186 4.97948 53.6548 3.07992 46.8121C1.96553 42.7895 2.51593 38.4877 4.60722 34.8752C6.6112 31.3482 10.2378 28.573 14.1467 27.5146C18.3737 26.3699 22.6541 27.0106 26.4405 29.1678C25.9103 28.5797 25.2924 27.6438 24.9096 26.9473C23.6943 24.7741 23.0375 22.3333 22.9978 19.8438C22.8788 15.8031 24.3743 11.8815 27.1536 8.94608C30.077 5.89557 33.7436 4.32019 37.9507 4.23225Z" fill="#080717"/>
<path d="M17.6411 27.1605C26.1825 26.799 33.4009 33.4275 33.7672 41.9688C34.1334 50.51 27.5089 57.7321 18.9678 58.103C10.4202 58.4742 3.19125 51.8433 2.82472 43.2955C2.45821 34.7477 9.09302 27.5224 17.6411 27.1605Z" fill="#4CB542"/>
<path d="M18.1205 29.6316C25.3054 29.5105 31.2278 35.2372 31.3483 42.422C31.4687 49.6069 25.7417 55.5289 18.5568 55.6488C11.3727 55.7687 5.45147 50.0423 5.331 42.8583C5.21053 35.6742 10.9365 29.7525 18.1205 29.6316Z" fill="#080717"/>
<path d="M17.6465 29.8813C24.6973 29.5004 30.72 34.9114 31.0936 41.9626C31.4673 49.0137 26.05 55.0308 18.9985 55.3972C11.9572 55.763 5.95079 50.3554 5.57773 43.3145C5.20466 36.2736 10.6061 30.2616 17.6465 29.8813Z" fill="#F7F7F7"/>
<path d="M15.8292 45.4789C16.1644 45.4686 16.4911 45.5857 16.7433 45.8068C16.8832 45.9308 17.1142 46.2333 17.1454 46.4195C17.2576 47.0906 17.2852 47.8856 17.3346 48.5685C17.4604 50.1261 17.5622 51.6857 17.64 53.2465C15.9386 53.2522 14.147 52.5797 12.693 51.7385C11.1147 50.7151 10.4023 49.9741 9.26212 48.4983C9.78934 48.1608 11.1206 47.5717 11.7517 47.2676L13.9835 46.1962C14.5069 45.9486 15.266 45.5316 15.8292 45.4789Z" fill="#080717"/>
<path d="M15.673 45.7362C16.5541 45.6739 16.9417 46.1517 16.9805 46.9947C16.9993 47.4037 17.0399 47.8503 17.0697 48.2616L17.3378 51.7787C16.0488 51.7001 14.7212 51.2022 13.6025 50.5774C12.2619 49.7525 11.7405 49.2144 10.7139 48.0363C11.2151 47.7551 12.2719 47.3033 12.8107 47.0385C13.4725 46.7135 15.0077 45.9118 15.673 45.7362Z" fill="#F7F7F7"/>
<path d="M10.4696 48.1599C10.5424 48.1765 11.036 48.7712 11.136 48.8805C12.8218 50.7223 14.8699 51.7534 17.3651 52.0404L17.3975 53.0032C17.205 52.9965 16.9439 52.9617 16.7469 52.9409C16.5585 52.9107 16.3704 52.8782 16.1828 52.8432C13.6189 52.343 11.1083 50.7151 9.64307 48.5461C9.83889 48.4301 10.2469 48.2587 10.4696 48.1599Z" fill="#F7F7F7"/>
<path d="M17.2747 31.9743L17.4485 31.9586C17.5623 32.0152 17.5739 32.1264 17.5665 32.2485C17.4459 34.3086 17.3151 36.3674 17.1696 38.4266C17.1109 39.2566 16.4748 39.8182 15.6375 39.6521C15.1661 39.5586 14.5179 39.2207 14.0587 39.0209C13.1746 38.6429 12.2932 38.2584 11.4147 37.8677C10.8492 37.62 9.68129 37.1527 9.22028 36.8504C9.31754 36.6786 9.60313 36.3132 9.73098 36.1475C11.1814 34.2517 13.2212 32.8925 15.5292 32.284C16.1297 32.1284 16.6616 32.0532 17.2747 31.9743Z" fill="#080717"/>
<path d="M17.1556 33.4696L17.2082 33.4645L17.2448 33.5007C17.2707 33.6508 17.1735 34.8093 17.1577 35.0449C17.0842 36.1457 17.0147 37.2619 16.9327 38.3632C16.9155 38.5304 16.8879 38.7154 16.8234 38.8698C16.6614 39.2578 16.1042 39.5369 15.6964 39.4283C15.3139 39.3264 14.9 39.1194 14.5301 38.9603L12.2966 37.9969C11.7539 37.7624 11.2328 37.5392 10.7042 37.2742C10.7868 37.1351 10.8825 37.0113 10.9827 36.8844C12.5097 34.9768 14.7283 33.7496 17.1556 33.4696Z" fill="#F7F7F7"/>
<path d="M17.2787 32.2385C17.3224 32.3265 17.2692 33.0348 17.2602 33.1848C16.8617 33.2677 16.4742 33.3134 16.0638 33.4081C14.2693 33.8217 12.6858 34.7341 11.4105 36.0596C11.0679 36.4156 10.7373 36.764 10.4732 37.1882C10.3001 37.1166 10.1216 37.0341 9.94967 36.9578C9.82592 36.9036 9.70311 36.8373 9.58264 36.7753C11.1697 34.283 14.3323 32.4207 17.2787 32.2385Z" fill="#F7F7F7"/>
<path d="M8.58717 37.9785C8.90147 38.0612 11.0969 39.5076 11.5227 39.7852C12.3825 40.3395 13.256 40.8768 14.0983 41.4574C14.4923 41.7289 14.7061 41.9439 14.7869 42.4372C14.9226 43.266 13.9723 43.752 13.3931 44.1579L11.5944 45.4148C10.7327 45.9849 9.90202 46.597 9.02639 47.1457C8.86702 47.2455 8.72411 47.3446 8.55002 47.4198C8.46922 47.4127 8.50573 47.4256 8.44409 47.3675C8.42985 47.2668 8.48674 47.1986 8.53913 47.1051C8.28061 46.6258 8.03751 45.986 7.88622 45.4614C7.30502 43.4149 7.36614 41.2393 8.06129 39.2286C8.22213 38.7622 8.34893 38.4128 8.58717 37.9785Z" fill="#080717"/>
<path d="M9.73123 38.9115C9.98552 39.0289 11.0364 39.7345 11.3095 39.9104C12.2133 40.5011 13.1232 41.0804 14.016 41.6879C14.3519 41.9166 14.5993 42.2298 14.5654 42.6606C14.5519 42.8314 14.4064 43.0959 14.2782 43.2041C13.6325 43.7488 12.8911 44.2395 12.1871 44.7116C11.4711 45.2264 10.5059 45.8822 9.76931 46.352C9.72437 46.2637 9.68195 46.1741 9.64199 46.0834C8.87043 44.3065 8.74726 42.2334 9.23154 40.3627C9.36718 39.8387 9.53576 39.4124 9.73123 38.9115Z" fill="#F7F7F7"/>
<path d="M8.69796 38.3016C8.86167 38.3655 9.38462 38.6997 9.55788 38.8062C9.45077 39.017 9.35527 39.2335 9.27183 39.4548C8.39163 41.7531 8.58042 44.2737 9.56445 46.5061L9.22337 46.7237L8.76236 47.0299C7.37585 44.437 7.42126 40.9238 8.69796 38.3016Z" fill="#F7F7F7"/>
<path d="M18.9522 31.9114C19.0727 31.9299 19.1989 31.9785 19.3386 32.0003C19.8733 32.0837 20.3959 32.1637 20.9226 32.2913C22.8305 32.752 24.5768 33.7237 25.9739 35.1021C26.2782 35.3958 26.5644 35.7077 26.8309 36.036C26.9707 36.2091 27.2161 36.5736 27.3578 36.6978C27.4303 36.6898 27.4506 36.6886 27.5233 36.6917C27.583 36.7532 27.5778 36.7498 27.5931 36.8352C27.4434 36.9937 25.9378 37.5968 25.6504 37.7049C24.4677 38.1493 23.2537 38.735 22.0573 39.1777C21.7137 39.2767 21.1062 39.6606 20.7695 39.6563C19.7522 39.6001 19.5689 38.7497 19.5077 37.9453C19.356 35.9493 18.9807 33.908 18.9522 31.9114Z" fill="#080717"/>
<path d="M19.1903 32.2573C19.4748 32.2745 19.758 32.3077 20.0389 32.3565C22.8997 32.8327 25.4487 34.4399 27.1117 36.816L26.8541 36.9254C26.6181 37.0177 26.3782 37.1187 26.1429 37.2145C26.0053 36.9546 25.6602 36.5698 25.4583 36.3345C24.0329 34.6734 21.4566 33.3744 19.2548 33.2443C19.2361 32.9151 19.2146 32.5861 19.1903 32.2573Z" fill="#F7F7F7"/>
<path d="M19.2883 33.4854C19.9395 33.5916 20.4271 33.6765 21.0635 33.8376L21.0623 39.399C19.8359 39.4866 19.8325 38.6515 19.734 37.7437C19.6735 37.1882 19.6166 36.6324 19.5634 36.0762C19.4814 35.2389 19.3434 34.3058 19.2883 33.4854Z" fill="#F7F7F7"/>
<path d="M22.097 34.4337L22.1748 34.4702C22.2178 34.6016 22.2005 34.9923 22.2116 35.1521C22.2655 35.9268 22.2765 36.7069 22.4329 37.4707C22.511 37.8526 22.6412 38.2274 22.6634 38.6187C22.5966 38.5635 22.5398 38.2684 22.5144 38.1702C22.2024 36.9643 22.1299 35.6752 22.097 34.4337Z" fill="#DB4431"/>
<path d="M23.7616 35.2621C23.8301 35.4252 23.7956 36.3415 23.827 36.6219C23.8674 36.9831 23.9047 37.2131 23.9812 37.5734C23.7171 37.3774 23.657 35.6071 23.7616 35.2621Z" fill="#DB4431"/>
<path d="M25.2171 36.5511C25.3449 36.6728 25.365 37.3686 25.3555 37.5573L25.2984 37.5448C25.2591 37.3643 25.2215 36.7467 25.2171 36.5511Z" fill="#DB4431"/>
<path d="M20.7153 45.535C21.1948 45.4876 21.6639 45.7868 22.0865 45.9864L23.7296 46.7561C24.8982 47.3104 26.2914 47.8666 27.3762 48.5631C26.6397 49.7796 25.2351 50.8887 24.0713 51.6683C22.5524 52.6358 20.8212 53.1546 19.0326 53.2928C19.0398 52.8572 19.0979 52.3239 19.1377 51.8852L19.3489 49.6494C19.432 48.7865 19.5078 47.9217 19.607 47.0616C19.6537 46.6576 19.6705 46.272 19.9463 45.951C20.1798 45.6792 20.3821 45.5903 20.7153 45.535Z" fill="#080717"/>
<path d="M26.0595 48.1291C26.3821 48.2966 26.7005 48.4719 27.0145 48.6549C27.0016 48.6744 26.9704 48.7221 26.9594 48.7368C25.7284 50.3811 24.018 51.614 22.1212 52.3788C21.5014 52.6287 20.778 52.7861 20.1345 52.902C19.8372 52.9479 19.5821 52.9764 19.284 53.0055C19.2983 52.6716 19.3227 52.3659 19.352 52.0336C19.6093 52.0049 19.8655 51.9667 20.12 51.9192C22.4605 51.4635 24.7124 50.1142 26.0595 48.1291Z" fill="#F7F7F7"/>
<path d="M20.6951 45.7681C20.8 45.758 20.9305 45.7372 21.0157 45.7938C21.05 45.9485 21.0357 47.225 21.0355 47.441L21.0332 51.4484C20.5375 51.5971 20.1844 51.6863 19.6681 51.7578L19.3813 51.7894C19.4911 50.9145 19.7573 46.7394 20.0255 46.2356C20.1681 45.9677 20.4209 45.8555 20.6951 45.7681Z" fill="#F7F7F7"/>
<path d="M22.1443 49.5651C22.2375 48.8047 22.2083 47.9948 22.2326 47.2276C22.2406 46.9746 22.2133 46.5643 22.2544 46.3378L22.3075 46.3206C22.3454 46.351 22.3777 46.3676 22.3745 46.4276C22.3298 47.2736 22.3033 48.1227 22.2665 48.9696C22.2508 49.3311 22.1678 49.7145 22.1974 50.0739L22.1734 50.096C22.1502 50.0708 22.1469 49.6366 22.1443 49.5651Z" fill="#DB4431"/>
<path d="M23.7229 48.4697C23.731 48.2112 23.7221 47.1838 23.8194 47.0368C23.8815 47.3225 23.7863 48.4368 23.7794 48.8026C23.7199 48.7067 23.7286 48.5859 23.7229 48.4697Z" fill="#DB4431"/>
<path d="M25.1433 47.6531L25.1851 47.6775C25.2792 47.8441 25.2305 48.5329 25.1969 48.7442L25.1688 48.7716C25.1231 48.6872 25.1316 47.8013 25.1433 47.6531Z" fill="#DB4431"/>
<path d="M23.7793 48.8026C23.7946 48.9246 23.7312 49.6688 23.6835 49.7618L23.7045 49.7497L23.694 49.7922C23.6394 49.6149 23.6774 48.6874 23.7229 48.4697C23.7285 48.5859 23.7199 48.7067 23.7793 48.8026Z" fill="#0A0A2A"/>
<path d="M22.1444 49.5651C22.1469 49.6366 22.1502 50.0708 22.1734 50.096L22.1974 50.0739C22.2211 50.2515 22.1911 50.649 22.1802 50.8427C22.1106 50.5351 22.0687 49.8636 22.1444 49.5651Z" fill="#0A0A2A"/>
<path d="M28.1299 38.0507C28.2545 38.1358 28.6503 39.2929 28.715 39.5026C29.5344 42.1381 29.2789 44.9907 28.0045 47.4388C27.7247 47.32 27.2286 46.8803 26.9468 46.6848C26.2969 46.2339 25.6704 45.7685 25.0403 45.2906C24.1893 44.6399 22.6627 43.6131 21.9098 42.7914C21.8466 42.7087 21.8297 42.3873 21.8856 42.3135C22.1836 41.9193 22.9417 41.4807 23.3427 41.2028C24.244 40.5657 25.1579 39.9466 26.0838 39.3458C26.6169 38.9988 27.5978 38.3135 28.1299 38.0507Z" fill="#080717"/>
<path d="M27.998 38.4035C28.1257 38.5193 28.3145 39.0339 28.3709 39.2031C29.2579 41.8646 29.1431 44.5658 27.8912 47.0887L27.5881 46.8516L27.0692 46.4673C27.1353 46.3284 27.1986 46.1882 27.2591 46.0468C28.2677 43.6551 28.1479 41.2794 27.1738 38.9075L27.998 38.4035Z" fill="#F7F7F7"/>
<path d="M23.3308 41.6958C24.0803 41.6386 24.3807 42.2044 24.509 42.8382C25.2799 43.3673 26.7256 43.5803 27.6468 43.6574L27.5811 44.0208C27.3768 44.0107 27.1785 43.988 26.9752 43.9664C25.8407 43.8316 24.1886 43.5054 23.1319 43.014C22.9259 42.9009 22.6719 42.675 22.6291 42.4326C22.5281 41.8612 22.8941 41.7807 23.3308 41.6958Z" fill="#F7F7F7"/>
<path d="M25.9198 39.6812L25.9715 39.7308C26.119 41.1513 26.7343 41.9807 25.9603 43.2208L25.9286 43.1715C26.2048 42.6629 26.2444 42.5217 26.2697 41.9482C26.2954 41.363 25.7897 40.1566 25.9198 39.6812Z" fill="#DB4431"/>
<path d="M24.5812 40.5862C24.6003 40.5988 24.6238 40.6238 24.6414 40.6407C24.6539 40.8322 24.6657 41.0962 24.6736 41.2861C24.6873 41.6209 24.8397 42.352 24.7486 42.6404C24.6719 42.5095 24.5392 40.7784 24.5812 40.5862Z" fill="#DB4431"/>
<path d="M26.0086 44.0818C26.1218 44.2275 26.2668 45.6583 26.2617 45.8658L26.2112 45.8163C26.1659 45.6623 25.993 44.2337 26.0086 44.0818Z" fill="#DB4431"/>
<path d="M24.3394 43.7585C24.4562 43.8596 24.4834 44.3735 24.4965 44.5446C24.3423 44.4295 24.3391 43.9496 24.3394 43.7585Z" fill="#DB4431"/>
<path d="M23.3004 43.3137C23.325 43.3324 23.3619 43.3687 23.3858 43.3908C23.4417 43.5281 23.4277 43.6158 23.425 43.7641C23.2023 43.677 23.2691 43.5166 23.3004 43.3137Z" fill="#DB4431"/>
<path d="M18.3121 40.5102C18.5898 40.4766 18.844 40.6696 18.8862 40.9461C18.9284 41.2227 18.7432 41.4827 18.4681 41.5334C18.2825 41.5677 18.0929 41.498 17.9734 41.3519C17.8539 41.2057 17.8235 41.0061 17.894 40.831C17.9645 40.6558 18.1247 40.5329 18.3121 40.5102Z" fill="#0A0A2A"/>
<path d="M16.7961 42.0305C17.0747 41.9624 17.3555 42.1348 17.4209 42.4141C17.4862 42.6934 17.3111 42.9725 17.031 43.035C16.755 43.0967 16.4808 42.9245 16.4163 42.6491C16.3519 42.3736 16.5213 42.0977 16.7961 42.0305Z" fill="#0A0A2A"/>
<path d="M19.8183 42.0847C20.0006 42.0671 20.1783 42.149 20.2834 42.2989C20.3885 42.4489 20.4048 42.6439 20.3261 42.8092C20.2474 42.9746 20.0858 43.0849 19.9031 43.0978C19.6255 43.1175 19.3838 42.9104 19.3606 42.6332C19.3374 42.3559 19.5413 42.1114 19.8183 42.0847Z" fill="#0A0A2A"/>
<path d="M18.2003 43.6144C18.4637 43.5226 18.7516 43.6621 18.8425 43.9258C18.9335 44.1895 18.7929 44.4769 18.5289 44.5669C18.2662 44.6565 17.9806 44.5167 17.89 44.2544C17.7996 43.992 17.9382 43.7059 18.2003 43.6144Z" fill="#0A0A2A"/>
<path d="M37.933 4.46703C41.7883 4.40046 45.5146 5.85518 48.3051 8.51613C51.216 11.2167 52.9253 14.9696 53.052 18.9383C53.1834 23.0512 51.6626 27.0455 48.8293 30.0298C46.1535 32.8567 42.2515 34.3262 38.399 34.4336C38.3666 34.4356 38.3343 34.4373 38.3019 34.4388C36.7409 34.5117 34.9867 34.2247 33.5001 33.7565C33.0241 33.6066 32.4814 33.3642 32.0154 33.1739C31.4249 32.9328 30.7592 32.6032 30.2279 32.2464C30.0057 32.0971 29.6339 31.7086 29.4328 31.5117C29.1125 31.197 28.7812 30.8934 28.4397 30.6017C27.9948 30.2245 27.5453 29.9204 27.1152 29.5812C26.9278 29.4333 26.2452 28.5384 26.0856 28.3235C24.2633 25.8507 23.2637 22.8681 23.228 19.7967C23.1164 15.8286 24.5914 11.9797 27.3263 9.10254C30.1945 6.11976 33.801 4.54578 37.933 4.46703Z" fill="#DB4431"/>
<path d="M37.5311 6.97799C44.4291 6.64722 50.2878 11.9737 50.6134 18.8719C50.9391 25.7701 45.6082 31.6249 38.7098 31.9454C31.8186 32.2656 25.9713 26.9415 25.646 20.0506C25.3207 13.1596 30.6404 7.3084 37.5311 6.97799Z" fill="#080717"/>
<path d="M37.6144 7.21399C44.3856 6.92741 50.105 12.1886 50.3836 18.9602C50.6622 25.7317 45.3943 31.445 38.6224 31.7156C31.8618 31.9858 26.1601 26.7285 25.882 19.9682C25.6038 13.2079 30.8544 7.50005 37.6144 7.21399Z" fill="#F7F7F7"/>
<path d="M47.3238 14.7908L47.3743 14.8205C47.6633 15.2826 47.9974 16.3836 48.1303 16.9334C48.6415 18.9733 48.5078 21.1215 47.7475 23.0822C47.6294 23.3797 47.4679 23.7786 47.305 24.0452C47.0185 23.8682 46.6353 23.5735 46.3489 23.3721L44.5458 22.1172C43.9509 21.6692 42.0958 20.5 41.7824 20.0128C41.6243 19.7669 41.5425 19.4797 41.6058 19.19C41.6534 18.9723 41.7683 18.7491 41.9222 18.5892C42.4171 18.0746 43.1553 17.6487 43.7481 17.2374C44.934 16.4133 46.126 15.5977 47.3238 14.7908Z" fill="#080717"/>
<path d="M46.183 15.8263C46.232 15.9019 46.3498 16.1999 46.3869 16.2929C47.0132 17.8624 47.0633 19.7697 46.7098 21.4144C46.6043 21.9055 46.3649 22.5015 46.1625 22.9635C45.4519 22.4951 44.7959 21.9581 44.1015 21.4867C43.4674 21.0398 42.5493 20.4581 42.0056 19.9013C41.7106 19.5991 41.8055 18.9854 42.1487 18.6953C42.6664 18.2578 43.2486 17.8649 43.822 17.4702L46.183 15.8263Z" fill="#DB4431"/>
<path d="M46.0688 16.1088C46.1758 16.1581 46.2233 16.2943 46.2602 16.399C46.9632 18.3921 47.0031 20.7151 46.0978 22.6508C45.3291 22.1623 44.7899 21.7747 44.0607 21.2344C43.4988 20.8469 42.9417 20.4501 42.3975 20.0389C42.0956 19.8107 41.8977 19.5333 42.015 19.1446C42.0504 19.0274 42.1097 18.9147 42.2085 18.8392C43.1023 18.1555 44.0119 17.4926 44.9602 16.8854C45.3409 16.6409 45.6754 16.3328 46.0688 16.1088Z" fill="#080717"/>
<path d="M47.2156 15.1396L47.2637 15.1519C47.3254 15.2293 47.3486 15.2894 47.3854 15.3809C48.2763 17.5983 48.494 19.8664 47.8015 22.1771C47.638 22.7227 47.4609 23.1549 47.2448 23.6788C47.1025 23.603 46.9623 23.504 46.8274 23.4141L46.3652 23.088C46.4551 22.892 46.5489 22.6778 46.6244 22.4768C47.4669 20.2786 47.3863 17.8334 46.4009 15.6954L47.2156 15.1396Z" fill="#F7F7F7"/>
<path d="M28.9447 14.868C29.3435 14.8883 33.2711 17.8331 33.9429 18.2879C34.5949 18.7293 34.8425 19.7136 34.2299 20.2753C33.5261 20.9207 32.5632 21.5599 31.7646 22.0974C30.9886 22.6596 29.7486 23.483 28.9031 23.9409C28.4403 23.1395 28.0667 21.7723 27.9395 20.8715C27.6999 19.1733 27.9067 17.4118 28.5149 15.8095C28.6165 15.5419 28.7834 15.0858 28.9447 14.868Z" fill="#080717"/>
<path d="M30.1547 15.9141C30.5592 16.1033 33.9313 18.4981 34.1621 18.8123C34.3266 19.0365 34.3903 19.3191 34.3379 19.5922C34.2474 20.0514 33.8406 20.3305 33.4868 20.5868C33.0655 20.892 32.6367 21.1867 32.2087 21.4824C31.5198 21.936 30.826 22.458 30.1146 22.9283C29.7742 22.3189 29.6439 21.7774 29.5035 21.1042C29.1284 19.3051 29.4228 17.5789 30.1547 15.9141Z" fill="#DB4431"/>
<path d="M30.2381 16.1646C30.5918 16.3215 33.8996 18.7213 34.0469 18.9126C34.1784 19.0833 34.2035 19.3353 34.1691 19.5413C34.1453 19.6844 34.0981 19.812 34.0076 19.9259C33.6813 20.3363 32.6254 20.9917 32.1556 21.3219C31.5068 21.7729 30.868 22.2309 30.2083 22.6664C29.8434 22.0196 29.6885 21.1746 29.5592 20.4448C29.3655 19.3512 29.5633 18.2301 29.8462 17.1703C29.9459 16.7969 30.0043 16.4814 30.2381 16.1646Z" fill="#080717"/>
<path d="M29.056 15.1839C29.2548 15.248 29.7484 15.6383 29.9185 15.7751C29.9091 15.7952 29.8999 15.8154 29.8909 15.8357C29.077 17.6242 28.8823 19.6329 29.3376 21.5445C29.4818 22.135 29.6345 22.5095 29.8454 23.0642C29.6982 23.1614 29.5499 23.2569 29.4004 23.3507L29.0074 23.596C28.8658 23.3006 28.7422 22.9968 28.6374 22.6864C27.7679 20.2303 27.9186 17.5281 29.056 15.1839Z" fill="#F7F7F7"/>
<path d="M35.7457 22.3894C36.3298 22.3709 36.8191 22.7368 36.9254 23.3189C37.0395 23.9441 37.078 24.587 37.1419 25.22C37.2925 26.7117 37.4582 28.2282 37.4766 29.7284C35.5407 29.4865 34.4306 29.1975 32.734 28.1906C31.4458 27.3506 30.3327 26.2688 29.4563 25.0051L34.0175 23.074C34.3771 22.9233 35.4361 22.4347 35.7457 22.3894Z" fill="#080717"/>
<path d="M35.7266 22.6222C36.7716 22.5496 36.7559 23.6604 36.8263 24.3872L36.9722 25.9685C37.0298 26.616 37.1602 27.6603 37.173 28.265C36.8542 28.1503 36.2838 28.0648 35.9226 27.9754C35.068 27.7641 34.5073 27.5048 33.7534 27.099C32.6818 26.4681 31.7648 25.6056 31.0693 24.5748C32.2645 24.1322 33.5067 23.4859 34.7138 23.0353C35.0465 22.9111 35.3906 22.7263 35.7266 22.6222Z" fill="#DB4431"/>
<path d="M35.7603 22.7979C36.6166 22.8132 36.6093 23.6898 36.6683 24.332C36.7816 25.5637 36.9367 26.8221 37.0253 28.0533C35.7591 27.8061 34.9358 27.5812 33.7967 26.9156C32.9399 26.3821 31.8977 25.5388 31.3843 24.66C32.3122 24.2259 33.239 23.8235 34.1872 23.4361C34.6546 23.2451 35.2896 22.949 35.7603 22.7979Z" fill="#080717"/>
<path d="M30.8215 24.6959L30.8574 24.7119C31.3207 25.5367 32.3175 26.4499 33.0896 26.9948C34.2696 27.8274 35.7349 28.3095 37.1654 28.4603C37.1885 28.7873 37.2035 29.1148 37.2104 29.4426C36.935 29.4071 36.6604 29.3654 36.3869 29.3176C33.6731 28.8043 31.4368 27.3823 29.8607 25.1041C30.1031 24.9608 30.5494 24.7998 30.8215 24.6959Z" fill="#F7F7F7"/>
<path d="M40.2904 22.4177C40.5134 22.3975 40.8502 22.3988 41.0563 22.4795C42.6963 23.1214 44.2764 23.9343 45.8681 24.6867C46.1582 24.8239 46.4376 24.9592 46.7136 25.1207C45.9137 26.346 44.8209 27.3355 43.6051 28.1331C41.9183 29.1639 40.7906 29.5393 38.8206 29.7417C38.8074 28.8483 39.2632 23.5343 39.5127 23.0197C39.6669 22.7018 39.971 22.5306 40.2904 22.4177Z" fill="#080717"/>
<path d="M40.5114 22.627C41.211 22.6419 42.0049 23.1443 42.653 23.4174C43.4852 23.768 44.2921 24.2372 45.1275 24.5784C44.7962 25.3846 43.35 26.562 42.6181 27.0382C41.4909 27.7178 40.4552 28.0491 39.1635 28.2675C39.234 26.6782 39.4853 25.0141 39.6499 23.4262C39.6974 22.9679 40.0602 22.689 40.5114 22.627Z" fill="#DB4431"/>
<path d="M40.3664 22.7969C40.9693 22.7632 41.5612 23.1223 42.1055 23.3681C43.0498 23.7923 43.9858 24.2345 44.9129 24.6947C44.3891 25.4673 43.3609 26.3208 42.5934 26.8406C41.5079 27.5578 40.5442 27.8193 39.3072 28.0745C39.4091 26.7569 39.5927 25.4405 39.705 24.1227C39.7597 23.4807 39.716 23.0849 40.3664 22.7969Z" fill="#080717"/>
<path d="M45.3857 24.723C45.7081 24.8714 46.028 25.0253 46.3451 25.1845C46.316 25.2329 46.2855 25.2803 46.2536 25.3269C45.9871 25.7222 45.5547 26.2067 45.2097 26.5468C43.6493 28.0853 41.9817 28.945 39.8448 29.3619C39.582 29.4019 39.3185 29.4368 39.0544 29.4667C39.0902 29.1468 39.1073 28.8084 39.1288 28.4859C41.6173 28.1384 43.9763 26.8412 45.3857 24.723Z" fill="#F7F7F7"/>
<path d="M38.8127 9.15796C39.2222 9.17765 39.6299 9.22522 40.0329 9.30034C42.7365 9.80653 45.1655 11.4622 46.7192 13.7189C46.251 14.0139 45.4305 14.377 44.9302 14.6034C44.0804 14.9967 41.2953 16.3859 40.5247 16.4306C40.2248 16.448 39.9124 16.3434 39.6962 16.132C39.5196 15.9592 39.4219 15.6951 39.3672 15.4574C39.2158 14.7991 39.2186 14.0627 39.1544 13.389C39.021 11.9882 38.8333 10.5653 38.8127 9.15796Z" fill="#080717"/>
<path d="M39.1465 10.6167C41.1821 10.9225 42.7475 11.5864 44.2879 12.9972C44.6633 13.3411 45.0117 13.7732 45.3794 14.1439C44.9506 14.3043 44.3884 14.5838 43.9632 14.7812C43.2434 15.126 41.1982 16.1455 40.5361 16.1988C40.3032 16.2175 40.0902 16.1516 39.9178 15.9914C39.7534 15.8386 39.6532 15.6324 39.6025 15.4162C39.4677 14.8421 39.4879 14.1411 39.4308 13.5461L39.2555 11.7452C39.2228 11.436 39.151 10.9113 39.1465 10.6167Z" fill="#DB4431"/>
<path d="M39.3051 10.8298L39.3628 10.8366C41.6081 11.1283 43.6467 12.2971 45.0326 14.0876C44.6824 14.2884 44.139 14.519 43.7582 14.6915C43.2708 14.9282 42.7728 15.157 42.2806 15.3843C41.8938 15.563 41.4695 15.7924 41.069 15.9307C39.5236 16.4645 39.6956 14.8577 39.6081 13.9047C39.5223 12.8783 39.4212 11.8532 39.3051 10.8298Z" fill="#080717"/>
<path d="M39.0557 9.42633C39.3991 9.43653 39.8873 9.51744 40.2189 9.58875C42.3144 10.0461 44.2143 11.1475 45.6524 12.7388C45.8952 13.0069 46.1942 13.3481 46.3882 13.6482C46.3087 13.6948 46.2104 13.7439 46.1277 13.7882C45.9342 13.8909 45.7798 13.9687 45.5795 14.0563C45.4646 13.9355 45.3488 13.7855 45.2401 13.6572C43.6463 11.7758 41.5701 10.6438 39.1196 10.3597L39.0557 9.42633Z" fill="#F7F7F7"/>
<path d="M37.078 9.18182C37.1528 9.16857 37.3466 9.16758 37.4316 9.16476C37.3494 11.2245 37.1376 13.2919 36.9707 15.3471C36.9395 15.7323 36.7423 16.1679 36.3693 16.3233C36.1413 16.4182 35.9122 16.4645 35.6647 16.4162C35.0196 16.2369 34.3983 15.9 33.7911 15.6153C33.1448 15.3161 32.4953 15.0236 31.8428 14.7379C31.1322 14.3975 30.3172 14.0218 29.6283 13.6565C29.7786 13.4031 29.9912 13.1339 30.1783 12.903C31.8938 10.7968 34.3756 9.45826 37.078 9.18182Z" fill="#080717"/>
<path d="M36.8974 10.646C36.9904 10.6293 36.9879 10.6242 37.0779 10.6458C37.1101 10.9733 36.9973 11.8778 36.9737 12.2391C36.9022 13.2158 36.8754 14.1952 36.7725 15.1694C36.6 16.8024 35.2383 16.0262 34.3515 15.6127C33.8171 15.3604 33.2808 15.1122 32.7427 14.8681C32.1996 14.6199 31.6641 14.3483 31.1234 14.0922C31.1601 14.0357 31.1991 13.9807 31.2401 13.9273C31.4243 13.6887 31.7825 13.3301 32.0048 13.111C33.3593 11.7761 35.0031 10.8981 36.8974 10.646Z" fill="#DB4431"/>
<path d="M36.781 10.8219C36.8988 10.81 36.8539 10.7917 36.9336 10.8442C37.022 11.141 36.5994 14.5838 36.591 15.194C36.5729 16.5196 35.3598 15.8733 34.6588 15.5497C34.0666 15.2756 33.473 15.0046 32.8778 14.7369C32.3786 14.5301 31.8438 14.2831 31.38 14.0081L31.4061 13.9749C32.6529 12.4239 34.7838 11.0465 36.781 10.8219Z" fill="#080717"/>
<path d="M36.9282 9.44421L37.1864 9.41486C37.1653 9.71474 37.1345 10.0136 37.1139 10.3168C34.6325 10.6599 32.3912 11.9808 30.8891 13.9853C30.7442 13.9273 30.5874 13.8517 30.4441 13.7865L29.9911 13.5673C30.0576 13.4561 30.1772 13.2966 30.2566 13.1947C31.8941 11.1082 34.2945 9.75874 36.9282 9.44421Z" fill="#F7F7F7"/>
<path d="M36.492 19.0046C36.6537 18.948 36.8333 18.9827 36.9623 19.0953C37.0913 19.2081 37.1498 19.3814 37.1155 19.5492C37.0811 19.717 36.9592 19.8534 36.7962 19.9064C36.5483 19.987 36.2816 19.853 36.1982 19.6059C36.1149 19.3588 36.2459 19.0907 36.492 19.0046Z" fill="#080717"/>
<path d="M39.5466 19.0024C39.7095 18.9472 39.8895 18.9847 40.0167 19.1003C40.144 19.2159 40.1986 19.3915 40.1592 19.5589C40.1199 19.7263 39.9929 19.8592 39.8275 19.906C39.5804 19.976 39.3228 19.8362 39.2465 19.5911C39.1704 19.3459 39.3035 19.0848 39.5466 19.0024Z" fill="#080717"/>
<path d="M37.9846 20.4836C38.1438 20.4305 38.3195 20.4686 38.4424 20.5829C38.5654 20.6973 38.6161 20.8697 38.5745 21.0324C38.533 21.1951 38.406 21.3222 38.2433 21.3637C38.0039 21.4248 37.7592 21.2854 37.6895 21.0484C37.6198 20.8114 37.7503 20.5618 37.9846 20.4836Z" fill="#080717"/>
<path d="M38.1007 17.4462C38.3516 17.4236 38.5734 17.6082 38.5968 17.859C38.62 18.1099 38.436 18.3322 38.1852 18.3563C37.9335 18.3803 37.7101 18.1954 37.6867 17.9436C37.6633 17.6918 37.8488 17.4689 38.1007 17.4462Z" fill="#080717"/>
<path d="M46.7193 32.0739C47.8936 32.1673 51.3955 32.4705 52.2576 33.2135C52.3472 33.2907 52.4285 33.414 52.4214 33.5367C52.4162 33.6272 52.3492 33.7077 52.2836 33.7645C51.8355 34.1526 50.8507 34.2966 50.2678 34.4C48.6712 34.6832 47.0346 34.8064 45.4176 34.9075C42.94 35.0648 40.4575 35.1315 37.975 35.1071C36.1032 35.1002 33.9529 35.1095 32.0959 34.9798C31.9269 34.7135 31.6187 34.2231 31.4939 33.9511C31.8774 33.8671 32.2627 33.7914 32.6495 33.724C32.9229 33.8271 33.1312 33.885 33.4113 33.9619C33.11 34.0122 31.945 34.1211 31.9091 34.4743L31.9426 34.5149C32.1911 34.577 33.0716 34.5988 33.3538 34.6074C34.3614 34.6367 35.3693 34.6544 36.3773 34.6605C39.2939 34.7324 42.2123 34.68 45.1245 34.5034C45.5628 34.4757 46.6555 34.4457 47.0257 34.3492C45.7415 34.1573 44.1369 34.1607 42.8487 33.9503C43.6455 33.6497 43.9572 33.756 44.7753 33.7752C46.1537 33.8078 47.492 33.9532 48.8554 34.116C49.1926 34.1563 50.9872 33.772 51.2118 33.5591C51.2534 33.2944 50.0546 33.1728 49.8509 33.1672C48.1287 33.1193 46.3787 33.3097 44.6571 33.2233C44.9837 33.0824 45.2042 32.9637 45.5134 32.7931C46.0417 32.8476 48.0674 32.7585 48.5717 32.6676C47.7641 32.5775 47.0021 32.4829 46.1898 32.4072C46.3656 32.2949 46.5421 32.1838 46.7193 32.0739Z" fill="#F7F7F7"/>
<path d="M47.0103 43.8521C46.7983 43.8573 46.6799 43.8667 46.4717 43.8254L46.4676 43.7999C46.9909 43.63 47.828 43.7548 48.3894 43.7221C49.6323 43.6498 50.7342 43.0368 51.96 42.9777C52.1646 42.9678 52.2688 42.9349 52.3974 43.1033C52.4145 43.1931 52.4211 43.3215 52.3589 43.3847C51.9522 43.7985 50.3222 43.9856 49.7977 44.0622C47.3036 44.4263 44.8765 44.4845 42.3718 44.5615C40.4919 44.6369 38.6098 44.641 36.7296 44.5735C35.8332 44.545 34.8085 44.5089 33.914 44.4186L33.9657 44.0523C36.9437 44.139 39.9232 44.1585 42.9021 44.1108C43.8099 44.0891 44.7174 44.0541 45.6242 44.0058C46.0525 43.9814 46.5366 43.9311 46.9512 43.9155L47.0227 43.8774L47.0103 43.8521Z" fill="#F7F7F7"/>
<path d="M47.0103 43.8522C47.1334 43.8222 47.4126 43.8087 47.5648 43.7904L47.5986 43.8778L47.5914 43.7909L47.6032 43.7916L47.6308 43.8659L47.6876 43.825C47.5158 43.895 47.1473 43.9043 46.9512 43.9156L47.0227 43.8774L47.0103 43.8522Z" fill="#1E1E1E"/>
<path d="M50.4504 51.8074C50.4569 51.3045 50.4284 51.0152 50.313 50.5177C50.2951 50.308 50.1386 49.8902 50.159 49.6881C50.221 49.0757 50.4727 48.4546 50.4735 47.8247C50.4783 47.3416 50.3425 46.8501 50.2876 46.3769C50.2498 46.0504 50.2905 45.1958 50.4213 44.904L50.4557 44.9133C50.4008 45.3507 50.2997 45.9786 50.3574 46.4097C50.4209 46.8832 50.5523 47.2849 50.5558 47.7799C50.5598 48.3465 50.2968 49.0568 50.2509 49.566C50.2261 49.841 50.4515 50.8442 50.5084 51.2296C50.5773 51.5515 50.5193 52.1232 50.4841 52.4601C50.449 52.2294 50.4307 52.043 50.4504 51.8074Z" fill="#DB4431"/>
<path d="M50.5084 51.2296C50.5773 51.5515 50.5193 52.1232 50.4841 52.4601C50.449 52.2294 50.4307 52.043 50.4504 51.8074C50.4692 51.8678 50.4757 51.9234 50.4862 51.9858L50.4696 51.9657L50.5055 51.96C50.4945 51.7028 50.5004 51.486 50.5084 51.2296Z" fill="#0A0A2A"/>
<path d="M53.7771 34.91C53.8586 34.9831 53.7256 35.3685 53.7042 35.5002C53.6694 35.7254 53.654 35.953 53.6581 36.1808C53.6719 36.9865 54.0589 37.8442 54.0438 38.65C54.03 39.39 53.6646 40.0278 53.6945 40.8158C53.7093 41.2049 53.9457 41.9491 53.8718 42.2272C53.7947 42.1117 53.784 41.8089 53.7462 41.6622C53.5747 40.9818 53.584 40.3225 53.7965 39.6545C54.0164 38.9633 54.0017 38.2172 53.8086 37.5193C53.5278 36.5036 53.5033 35.9261 53.7771 34.91Z" fill="#DB4431"/>
<path d="M52.3863 44.5226L52.4141 44.5547C52.4364 44.717 52.2563 45.6137 52.2761 45.9877C52.3054 46.5387 52.5177 47.2274 52.5008 47.7152C52.4806 48.3001 52.197 49.0497 52.1803 49.674C52.1599 50.4361 52.4428 51.3722 52.2175 52.1327C52.2142 51.8296 52.2595 51.327 52.2329 51.0622C52.1764 50.5013 52.0678 50.1585 52.1073 49.5711C52.0847 49.0873 52.4669 48.1921 52.4234 47.7659C52.2912 46.4675 52.0715 45.8516 52.3863 44.5226Z" fill="#DB4431"/>
<path d="M45.8779 35.968L45.9266 36.0231C46.1133 36.9915 46.3898 37.645 46.1974 38.639C46.117 39.0545 45.9662 39.6171 45.9623 40.0184C45.9608 40.1643 46.1199 40.6904 46.1616 40.8737C46.3749 41.8109 46.3399 42.2569 46.1787 43.1633L46.1622 43.1698C46.1402 43.0985 46.2514 42.1604 46.241 41.9043C46.2104 41.145 45.9111 40.5417 45.9005 39.822C45.899 39.7201 45.9836 39.2875 46.0109 39.1639C46.1238 38.6532 46.1636 38.304 46.1749 37.7873C46.1859 37.2799 45.8457 36.356 45.8779 35.968Z" fill="#DB4431"/>
<path d="M50.129 35.557L50.1689 35.5992C50.2364 36.5112 50.5607 37.2926 50.619 38.166C50.6643 38.8455 50.2416 39.7216 50.2933 40.4247C50.3548 41.2603 50.7063 41.9458 50.5732 42.7935L50.5558 42.8095C50.5147 42.728 50.5406 42.5215 50.5398 42.4153C50.5344 41.6851 50.1601 40.8737 50.2219 40.1508C50.2805 39.4665 50.5686 38.7823 50.5285 38.0777C50.4812 37.2491 50.0686 36.3848 50.129 35.557Z" fill="#DB4431"/>
<path d="M43.6987 36.083C43.8236 36.2394 43.8461 36.5907 43.9094 36.7891C44.166 37.5877 44.137 38.3731 43.9367 39.1799C43.7769 39.8233 43.761 40.0855 43.9344 40.7352C44.1654 41.6005 44.2745 42.3196 43.9768 43.1941L43.9602 43.1847C43.9894 42.6485 44.1268 42.5247 44.0695 41.8444C44.0255 41.3229 43.715 40.3587 43.731 39.9883C43.762 39.2708 44.0652 38.5466 44.0261 37.7448C44.0055 37.3218 43.6743 36.3404 43.6987 36.083Z" fill="#DB4431"/>
<path d="M53.7588 50.6439L53.7563 50.6126C53.711 50.1008 53.567 49.8139 53.6171 49.2554C53.653 48.6768 53.9493 48.0808 53.9493 47.5054C53.9492 47.0003 53.8427 46.4091 53.7431 45.9105C53.6336 45.3623 53.633 45.018 53.7898 44.4727C53.8341 44.3186 53.8492 44.1265 53.9234 43.9865C53.9738 44.0855 53.7297 44.9442 53.7383 45.2236C53.7612 45.9662 54.0083 46.6212 54.0378 47.3593C54.0629 47.9873 53.7246 48.6591 53.6945 49.2778C53.6613 49.9611 53.86 50.4289 53.8332 51.1457C53.7819 51.0575 53.7772 50.7769 53.7588 50.6439Z" fill="#DB4431"/>
<path d="M48.0099 35.8191C48.0153 35.8254 48.0207 35.8319 48.0261 35.8383C48.1183 36.0496 48.1354 36.2914 48.2013 36.5177C48.3379 36.9862 48.4593 37.4479 48.4601 37.9393C48.4608 38.4128 48.3715 38.8503 48.2869 39.3123C48.2463 39.5345 48.1214 39.8561 48.1362 40.0687C48.1692 40.5438 48.312 41.0127 48.3895 41.4816C48.4878 42.0347 48.4412 42.4652 48.3789 43.0189C48.3045 42.8503 48.3971 42.0367 48.3639 41.7579C48.3611 41.3508 48.0076 40.4335 48.0682 40.0724C48.1998 39.288 48.3465 38.7121 48.3782 37.8966C48.4033 37.2515 47.9523 36.29 48.0099 35.8191Z" fill="#DB4431"/>
<path d="M48.3792 45.1964C48.3951 45.2109 48.4257 45.2594 48.4237 45.2767C48.3841 45.6684 48.2769 46.1558 48.3505 46.5464C48.4933 47.3051 48.6258 47.8976 48.4115 48.6609C48.3239 48.9731 48.2246 49.4103 48.2011 49.7353C48.1858 49.9465 48.2933 50.2565 48.3345 50.4635C48.5251 51.2126 48.5942 51.629 48.4084 52.3755C48.3925 52.1818 48.4303 51.9797 48.4368 51.7808C48.452 51.3117 48.3623 50.8252 48.2415 50.3733C48.1936 50.1941 48.0865 49.8624 48.1128 49.6866C48.2065 49.0597 48.4429 48.4494 48.4495 47.8076C48.4517 47.2945 48.2781 46.7666 48.2591 46.252C48.2463 45.9051 48.324 45.5404 48.3792 45.1964Z" fill="#DB4431"/>
<path d="M39.4621 36.3189L39.5016 36.3677C39.5507 36.66 39.7437 37.5131 39.7375 37.735C39.7177 38.434 39.4174 39.3113 39.3867 40.0189C39.3781 40.2185 39.4869 40.7025 39.5378 40.8935C39.8444 42.0458 39.8473 42.23 39.5716 43.3511L39.5368 43.3657C39.5548 42.9127 39.7455 42.64 39.6878 42.0302C39.6307 41.4263 39.3067 40.546 39.3192 40.0005C39.3336 39.3709 39.6487 38.4051 39.6614 37.7593C39.6702 37.3108 39.433 36.8127 39.4621 36.3189Z" fill="#DB4431"/>
<path d="M46.1785 45.3451C46.2358 45.4027 46.1769 46.3656 46.1939 46.5159C46.2469 46.9866 46.4395 47.4451 46.407 47.9167C46.3646 48.5304 46.1376 49.1323 46.1207 49.7476C46.1156 49.9686 46.2112 50.2922 46.2637 50.5146C46.4181 51.1681 46.5538 51.9337 46.3496 52.5925C46.3371 52.5374 46.3398 52.5382 46.3449 52.4791C46.4011 51.8249 46.405 51.3471 46.2366 50.7042C46.185 50.5072 46.0409 49.971 46.0401 49.7915C45.9886 49.2718 46.3708 48.3996 46.3327 47.9187C46.2515 46.8934 46.0024 46.4194 46.1785 45.3451Z" fill="#DB4431"/>
<path d="M41.8145 45.4892C41.8501 45.6221 41.757 46.0535 41.7874 46.3017C41.8691 46.9709 42.0692 47.6086 41.9736 48.2838C41.907 48.7547 41.717 49.1939 41.6765 49.665C41.6581 49.911 41.8667 50.4503 41.9138 50.7197C41.9868 51.1365 42.0859 51.6241 42.0403 52.0495C42.0139 52.2957 41.9576 52.5308 41.9337 52.7801L41.9309 52.8111L41.9146 52.827C41.8729 52.7135 42.017 51.8328 41.9613 51.5491C41.9277 51.3777 41.9237 51.0221 41.8533 50.772C41.8026 50.5922 41.6025 49.8346 41.6101 49.6989C41.6426 49.119 41.9128 48.6125 41.9236 47.9733C41.9403 46.9883 41.524 46.4631 41.8145 45.4892Z" fill="#DB4431"/>
<path d="M41.5982 36.3507C41.732 36.4557 41.7456 36.7846 41.8011 36.945C42.1653 37.9958 41.6512 38.9913 41.6181 40.0426C41.6114 40.2577 41.7121 40.6979 41.7727 40.9173C42.0111 41.7796 42.005 42.3878 41.7508 43.2468L41.7351 43.2535C41.6993 43.1588 41.9091 42.3456 41.8789 42.1132C41.7074 40.7961 41.3571 39.9084 41.7593 38.5655C41.805 38.4128 41.8379 38.052 41.8532 37.8836C41.8962 37.4113 41.6721 36.8409 41.6029 36.3841L41.5982 36.3507Z" fill="#DB4431"/>
<path d="M39.7132 52.3895C39.8188 51.6059 39.8008 51.2841 39.5968 50.4916C39.543 50.283 39.4209 49.8289 39.4292 49.6352C39.4583 48.955 39.8226 48.2878 39.7386 47.5834C39.6935 47.2058 39.4203 45.8541 39.6056 45.5339C39.645 45.5985 39.6178 46.1058 39.6183 46.2253C39.6324 46.7757 39.8225 47.2646 39.8346 47.8185C39.8471 48.3908 39.5006 49.0506 39.5079 49.5959C39.5151 50.1411 39.8197 50.8293 39.8439 51.4259C39.8612 51.8534 39.797 52.0699 39.7659 52.4648L39.7132 52.3895Z" fill="#DB4431"/>
<path d="M52.1404 35.3445L52.1817 35.378C52.2059 35.4658 52.1533 36.1279 52.1871 36.3922C52.2825 37.1381 52.536 38.0133 52.5133 38.7525C52.493 39.4127 52.2257 40.1743 52.211 40.8606C52.1997 41.3853 52.448 42.0227 52.4633 42.4864C52.3832 42.3441 52.2985 41.9549 52.2686 41.7902C52.2152 41.4954 52.1269 41.0759 52.1393 40.7847C52.1693 40.0699 52.4742 39.2383 52.4347 38.5258C52.367 37.3056 51.9862 36.6097 52.1404 35.3445Z" fill="#DB4431"/>
<path d="M44.19 52.3005C44.3206 51.2245 44.0181 50.6229 43.8338 49.6232C43.8026 49.4538 44.1158 48.4986 44.1437 48.1712C44.1617 47.9549 44.1587 47.7374 44.1348 47.5218C44.0815 47.0654 43.8032 45.9441 44.0389 45.5339L44.0843 45.5164C44.0929 45.7994 43.982 46.0065 44.0187 46.3343C44.0571 46.6772 44.1355 46.9818 44.1957 47.3197C44.3318 48.0834 44.0919 48.8585 43.8725 49.593C44.1426 50.5874 44.3908 51.3286 44.2518 52.3675L44.2286 52.3641L44.19 52.3005Z" fill="#DB4431"/>
<path d="M35.2541 45.4904C35.2667 45.5772 35.2298 46.0562 35.2455 46.2576C35.2796 46.6931 35.3529 47.1126 35.3825 47.539C35.4632 48.0322 35.0189 48.8899 35.0472 49.3042C35.1256 50.4524 35.6268 51.2798 35.2846 52.4781C35.2616 52.0623 35.3753 51.7496 35.3021 51.1815C35.2295 50.6181 35.0072 49.8742 34.9682 49.381C34.9391 49.0122 35.3175 48.1775 35.311 47.6339C35.3008 46.7666 35.0056 46.3414 35.2541 45.4904Z" fill="#DB4431"/>
<path d="M35.1242 36.2295C35.1824 36.3396 35.218 36.5685 35.246 36.6922C35.4924 37.7075 35.1215 38.7273 35.0922 39.7262C35.0774 40.2312 35.334 41.0339 35.3728 41.572C35.4141 42.1427 35.3973 42.5674 35.2614 43.1242L35.2422 43.1238C35.2391 42.9745 35.2562 42.7352 35.2873 42.5881C35.5348 41.4148 34.8564 40.3226 35.0669 39.1641C35.1721 38.5846 35.2317 37.9702 35.257 37.3835C35.2706 37.0682 35.0544 36.4876 35.1242 36.2295Z" fill="#DB4431"/>
<path d="M37.2536 36.2576C37.3726 36.3612 37.3948 36.6985 37.4332 36.8558C37.6807 37.8715 37.3416 38.9242 37.1997 39.9305C37.1742 40.1115 37.3181 40.5312 37.3426 40.7197C37.5245 41.5027 37.6713 42.3453 37.4252 43.1335L37.4114 43.1367L37.3857 43.1129C37.5397 42.436 37.4889 41.6749 37.3296 41.0073C37.278 40.7912 37.157 40.2462 37.1633 40.0496C37.1902 39.2473 37.4132 38.4445 37.4592 37.642C37.4847 37.1988 37.2693 36.7086 37.2536 36.2576Z" fill="#DB4431"/>
<path d="M37.4577 45.6254C37.4322 45.9299 37.3874 46.2703 37.4151 46.5722C37.45 46.9795 37.5959 47.4331 37.5497 47.8424C37.5141 48.1586 37.4455 48.6074 37.3531 48.914C37.1768 49.4992 37.2676 49.7511 37.4072 50.3243C37.5295 50.8269 37.6555 51.458 37.6215 51.976L37.5469 51.9925C37.5792 51.0998 37.3042 50.3892 37.1816 49.537C37.1271 49.1582 37.4941 48.3466 37.4665 47.9236C37.5209 47.0654 37.1626 46.4747 37.4577 45.6254Z" fill="#DB4431"/>
<path d="M33.1294 52.1182C33.1494 51.4032 33.1547 50.6041 32.9314 49.9054C32.7198 49.2435 32.8563 48.9654 33.0642 48.3423C33.1395 48.1171 33.1083 47.8502 33.2629 47.6442C33.1907 48.17 33.0185 48.7442 32.8546 49.2473C33.169 50.5143 33.2517 50.8402 33.1924 52.1514L33.1294 52.1182Z" fill="#DB4431"/>
<path d="M32.903 36.0871L32.9346 36.1128C33.0395 36.3528 33.1504 37.0612 33.164 37.3359C33.0541 37.1321 32.8856 36.3256 32.903 36.0871Z" fill="#DB4431"/>
<path d="M37.6215 51.976C37.6135 52.0841 37.5188 52.6927 37.4723 52.7559C37.4598 52.5727 37.4976 52.171 37.5469 51.9925L37.6215 51.976Z" fill="#0A0A2A"/>
<path d="M53.7588 50.6439C53.7772 50.7769 53.7819 51.0575 53.8332 51.1457C53.8429 51.2709 53.8114 51.5197 53.7719 51.6407C53.7338 51.4168 53.7549 50.887 53.7588 50.6439Z" fill="#0A0A2A"/>
<path d="M44.2518 52.3674C44.2306 52.5235 44.2153 52.7013 44.1563 52.8443L44.1326 52.818L44.1887 52.7935L44.1839 52.8084L44.1287 52.7644C44.1303 52.6628 44.1676 52.4006 44.19 52.3005L44.2286 52.3641L44.2518 52.3674Z" fill="#0A0A2A"/>
<path d="M33.1295 52.1181L33.1924 52.1514C33.1796 52.2593 33.1548 52.4223 33.1043 52.5152C33.0787 52.3992 33.1124 52.2406 33.1295 52.1181Z" fill="#0A0A2A"/>
<path d="M39.7132 52.3896L39.7658 52.4649C39.765 52.5312 39.7611 52.685 39.7192 52.7292C39.6709 52.6291 39.6717 52.492 39.7132 52.3896Z" fill="#0A0A2A"/>
</g>
<defs>
<clipPath id="clip0_475_2713">
<rect width="60" height="60" fill="white"/>
</clipPath>
</defs>
</svg>
