<svg width="49" height="10" viewBox="0 0 49 10" fill="none" xmlns="http://www.w3.org/2000/svg">
<g clip-path="url(#clip0_617_4275)">
<path d="M29.6298 9.99961H27.9576C27.6137 9.99961 27.2963 9.80909 27.1244 9.49979L24.8969 5.48823L23.3952 2.78533L23.3887 2.7732C23.377 2.75035 23.364 2.72751 23.3506 2.70576C23.3345 2.67937 23.3184 2.65367 23.3009 2.62869C23.2954 2.61977 23.2895 2.61086 23.2827 2.6023C23.0696 2.30154 22.7717 2.11353 22.4522 2.03825C22.4436 2.03574 22.4347 2.03361 22.4254 2.03182C22.4155 2.02967 22.4045 2.02753 22.3939 2.02575C22.385 2.02396 22.3757 2.02218 22.3664 2.02076C22.3321 2.01434 22.2974 2.0097 22.2631 2.00648C22.2508 2.00506 22.2388 2.00434 22.2268 2.00327C22.2182 2.00256 22.2096 2.00221 22.201 2.00184C22.1911 2.00114 22.1811 2.00114 22.1712 2.00042C22.1561 2.00005 22.1417 1.9997 22.1266 1.9997C22.1118 1.9997 22.097 2.00005 22.0823 2.00042C22.072 2.00114 22.062 2.00114 22.0524 2.00184C22.0435 2.00221 22.0349 2.00256 22.0263 2.00327C22.0143 2.00434 22.0023 2.00506 21.9903 2.00648C21.9557 2.0097 21.921 2.01434 21.8867 2.02076C21.8774 2.02218 21.8685 2.02396 21.8592 2.02575C21.8486 2.02753 21.838 2.02967 21.8277 2.03182C21.8184 2.03361 21.8098 2.03574 21.8009 2.03825C21.4814 2.11353 21.1835 2.30154 20.9704 2.6023C20.9639 2.61086 20.9581 2.61977 20.9522 2.62869C20.9351 2.65367 20.9186 2.67937 20.9028 2.70576C20.8891 2.72751 20.8764 2.75035 20.8644 2.7732L20.8579 2.78533L19.3565 5.48823L17.1287 9.49979C16.9568 9.80909 16.6394 9.99961 16.2955 9.99961H14.6233L15.3264 8.73344L19.2114 1.7382C19.8061 0.666793 20.8115 0.0870374 21.8496 0H22.4035C23.4419 0.0870374 24.447 0.666793 25.0421 1.7382L28.9267 8.73344L29.6298 9.99961Z" fill="#D60C17"/>
<path d="M12.8655 5.00017C13.114 4.71191 13.3092 4.3726 13.4359 3.99978C13.5422 3.68725 13.6006 3.35045 13.6006 2.99975C13.6006 2.64903 13.5422 2.3126 13.4362 2.00007C13.3096 1.62723 13.1143 1.28831 12.8655 1.00003C12.7941 0.916908 12.7186 0.838059 12.6383 0.763847C12.3611 0.505914 12.0354 0.302181 11.6768 0.170896C11.3762 0.0602969 11.0522 0 10.7149 0H0V1.00003C0.000344284 1.55232 0.43067 1.9997 0.962229 1.9997V2.00007H10.7149C11.2461 2.00007 11.6768 2.44783 11.6768 2.99975C11.6768 3.5524 11.2461 3.99978 10.7149 3.99978H0.962229C0.43067 3.99978 0 4.44753 0 5.00017V8.99958C0 9.55223 0.43067 9.99963 0.962229 9.99963H10.7149C11.0522 9.99963 11.3762 9.93933 11.6768 9.82874C12.0354 9.69745 12.3611 9.49409 12.6383 9.23578C12.7186 9.16157 12.7941 9.08307 12.8655 8.99958C13.114 8.71097 13.3092 8.37238 13.4359 7.9999C13.5422 7.68703 13.6006 7.3506 13.6006 6.99988C13.6006 6.64918 13.5422 6.31275 13.4359 5.99985C13.3092 5.62738 13.114 5.28844 12.8655 5.00017ZM10.7149 7.9999H1.92377V5.99985H10.7149C11.2461 5.99985 11.6768 6.44723 11.6768 6.99988C11.6768 7.55181 11.2461 7.9999 10.7149 7.9999Z" fill="#D60C17"/>
<path d="M32.5145 0C31.9833 0 31.5526 0.447751 31.5526 1.00005V10H32.5145C33.0454 10 33.476 9.55225 33.476 8.99995V0H32.5145Z" fill="#D60C17"/>
<path d="M49 0V1.00005C48.9997 1.55269 48.569 1.99973 48.0381 1.99973V2.00007H40.2089C39.3544 2.00007 38.5864 2.38611 38.0586 3.00012C37.8098 3.28802 37.6146 3.62733 37.4879 4.00015C37.3812 4.31267 37.3232 4.64948 37.3232 5.00017C37.3232 5.35089 37.3812 5.68733 37.4876 5.99985C37.6142 6.37267 37.8095 6.71161 38.0583 6.9999C38.5861 7.61389 39.354 7.99993 40.2089 7.99993H49V8.99995C49 9.55225 48.569 10 48.0381 10H40.2089C39.1262 10 38.1272 9.62822 37.3232 9.00067V8.99995H37.3225C36.9584 8.7156 36.6348 8.37845 36.3613 8.00027V7.99993H36.361C36.1386 7.69239 35.9499 7.35702 35.7999 6.9999C35.6664 6.68237 35.5635 6.34772 35.4962 5.99985C35.4331 5.67661 35.3998 5.34234 35.3998 5.00017C35.3998 4.65769 35.4331 4.32302 35.4962 4.00015C35.5638 3.6523 35.6664 3.31728 35.8003 3.00012C35.9502 2.64298 36.1386 2.30798 36.361 2.00007H36.3613V1.99936C36.6348 1.62083 36.9588 1.28439 37.3229 1.00005H37.3232V0.999678C38.1272 0.372125 39.1262 0 40.2089 0H49Z" fill="#D60C17"/>
</g>
<defs>
<clipPath id="clip0_617_4275">
<rect width="49" height="10" fill="white"/>
</clipPath>
</defs>
</svg>
