<svg width="70" height="14" viewBox="0 0 70 14" fill="none" xmlns="http://www.w3.org/2000/svg">
<g clip-path="url(#clip0_617_6799)">
<path d="M1.869 23.1037C1.869 21.812 2.912 20.766 4.207 20.766H11.669L12.607 19.2075H3.892C2.667 19.2075 1.512 19.7832 0.777 20.766C0.273 21.4399 0 22.2613 0 23.1037C0 23.9462 0.273 24.7676 0.777 25.4415C1.512 26.4243 2.667 27 3.892 27H11.669L12.607 25.4415H4.207C3.22 25.4415 2.338 24.8167 2.002 23.883C1.918 23.6373 1.869 23.3705 1.869 23.1037ZM55.629 21.5452C55.629 20.2535 54.586 19.2075 53.291 19.2075H43.022L43.96 20.766H53.291C53.718 20.766 54.068 21.117 54.068 21.5452C54.068 21.9735 53.718 22.3245 53.291 22.3245H43.022V27H44.891V23.883H51.8L53.599 27H55.622L53.788 23.8268C54.866 23.5952 55.629 22.6474 55.629 21.5452ZM67.354 19.2145L62.916 22.6264L58.478 19.2145H55.734L61.81 23.89V27.007H63.924V23.89L70 19.2145H67.354ZM30.555 21.5312C30.569 21.11 30.912 20.773 31.332 20.773H40.355L41.293 19.2145H31.024C29.736 19.2145 28.686 20.2605 28.686 21.5523V27.007H40.355L41.293 25.4485H30.555V23.89H38.486L39.424 22.3315H30.555V21.5312ZM50.309 9.30889C49.322 9.75819 48.174 9.63183 47.299 8.99298L46.144 8.15757L38.367 2.5273L38.339 2.50624L38.318 2.4922L38.262 2.4571C37.94 2.23245 36.953 1.56552 36.225 1.27067L36.218 1.27769C36.162 1.24961 36.099 1.22855 36.043 1.20749C36.036 1.20749 36.036 1.20047 36.029 1.20047C35.847 1.13027 35.651 1.08112 35.455 1.05304C35.749 1.05304 36.043 1.06006 36.337 1.06708L36.533 1.0741C41.398 1.19345 45.724 1.87441 48.748 2.89236C51.534 3.83307 53.228 5.06162 53.228 6.40952C53.228 7.46958 52.157 8.46646 50.309 9.30889ZM42.357 11.2956C40.103 11.5905 37.618 11.7519 35 11.7519C32.382 11.7519 29.89 11.5905 27.643 11.2956C25.585 10.9236 26.579 9.53354 27.118 8.9298C27.125 8.92278 27.132 8.91576 27.132 8.91576C27.265 8.76833 27.363 8.67707 27.384 8.66303C27.734 8.30499 28.091 7.95398 28.455 7.60296C29.624 6.4727 30.835 5.39158 32.088 4.35959C32.459 4.0507 32.837 3.74883 33.208 3.461C33.25 3.4259 33.292 3.39782 33.334 3.36271C33.621 3.15211 34.349 2.66069 35.007 2.66771C35.665 2.66771 36.393 3.15211 36.68 3.36271C36.694 3.36973 36.708 3.38378 36.722 3.3908L36.757 3.41888C36.771 3.43292 36.785 3.43994 36.792 3.44696L36.806 3.45398L36.813 3.461C37.191 3.75585 37.562 4.05772 37.933 4.35959C39.186 5.39158 40.397 6.4727 41.559 7.60296C41.923 7.95398 42.28 8.30499 42.63 8.66303L42.637 8.67005C42.672 8.69813 42.763 8.78939 42.875 8.90874C43.4 9.49844 44.436 10.9236 42.357 11.2956ZM22.701 8.99298C21.826 9.62481 20.678 9.75117 19.691 9.30889C17.843 8.47348 16.772 7.46958 16.772 6.4025C16.772 5.0546 18.459 3.82605 21.252 2.88534C24.276 1.8674 28.602 1.18643 33.467 1.06708L33.663 1.06006C33.957 1.05304 34.251 1.04602 34.545 1.04602C34.349 1.0741 34.153 1.13027 33.971 1.19345H33.964C33.901 1.21451 33.845 1.24259 33.782 1.27067L33.775 1.26365C33.047 1.5585 32.06 2.22543 31.738 2.45008L31.682 2.48518L31.633 2.52028L23.856 8.15055L22.701 8.99298ZM49.042 1.79017C46.046 0.898596 42.28 0.280811 38.108 0.0772231C37.114 0.0280811 36.12 0 35.119 0H34.874C33.859 0 32.865 0.0280811 31.885 0.0772231C27.72 0.280811 23.947 0.898596 20.951 1.79017C16.66 3.07488 13.965 4.93526 13.965 7.00624C13.965 8.76131 15.904 10.369 19.096 11.5975C20.391 12.0959 21.903 12.5312 23.569 12.8963C24.927 13.1911 26.397 13.4368 27.944 13.6193C30.149 13.8791 32.522 14.0265 34.993 14.0265C37.464 14.0265 39.837 13.8861 42.042 13.6193C43.512 13.4509 44.975 13.2122 46.417 12.8963C48.09 12.5382 49.595 12.0959 50.89 11.5975C54.089 10.369 56.021 8.76131 56.021 7.00624C56.035 4.93526 53.333 3.07488 49.042 1.79017ZM25.074 19.2145V22.3245H16.205V19.2075H14.336V26.993H16.205V23.876H25.067V26.993H26.936V19.2145H25.074Z" fill="#313130"/>
</g>
<defs>
<clipPath id="clip0_617_6799">
<rect width="70" height="14" fill="white"/>
</clipPath>
</defs>
</svg>
