<svg width="46" height="14" viewBox="0 0 46 14" fill="none" xmlns="http://www.w3.org/2000/svg">
<g clip-path="url(#clip0_617_4253)">
<path d="M12.9122 5.76622C16.7026 6.00822 20.4976 6.20369 22.9448 6.20369C25.392 6.20369 29.1824 6.00822 32.9774 5.76622L33.212 0.065155C29.9874 0.0232696 26.404 0 22.9402 0C19.4764 0 15.8976 0.0232696 12.673 0.065155L12.9122 5.76622Z" fill="black"/>
<path d="M0.156446 4.81313C0.253046 4.82243 6.17325 5.32971 12.282 5.7253L12.0474 0.0800781C6.65625 0.154541 2.38745 0.294159 1.55485 0.489624C0.207046 0.810745 0.0230458 1.86253 0.00464581 2.56062C-0.00455419 3.30991 0.0230458 4.06384 0.0920458 4.80847L0.156446 4.81313Z" fill="black"/>
<path d="M33.5938 5.72995C39.7025 5.32971 45.6228 4.82243 45.7194 4.81778L45.7884 4.80847C45.8528 4.06384 45.8804 3.31456 45.8712 2.56528C45.8574 1.86253 45.6734 0.815399 44.321 0.494278C43.493 0.298813 39.2196 0.159195 33.8284 0.0800781L33.5938 5.72995Z" fill="black"/>
<path d="M33.557 6.34726L33.051 12.2391C36.1468 11.6946 38.9482 11.1129 40.1028 10.8057C42.6512 10.1356 44.2152 9.40489 45.0432 7.94356C45.3974 7.31528 45.6044 6.36588 45.724 5.42578C45.1444 5.47697 39.4312 5.96098 33.557 6.34726Z" fill="black"/>
<path d="M32.9315 6.38477C29.1549 6.62677 25.3829 6.81758 22.9403 6.81758C20.4977 6.81758 16.7303 6.62677 12.9491 6.38477L13.4597 12.3464C17.0201 12.9608 20.8427 13.5006 22.9357 13.5006C25.0287 13.5006 28.8513 12.9608 32.4117 12.3464L32.9315 6.38477Z" fill="black"/>
<path d="M12.3235 6.34846C6.44929 5.96219 0.736094 5.47818 0.156494 5.43164C0.276094 6.36708 0.478494 7.32114 0.837294 7.94942C1.66529 9.41075 3.22929 10.1414 5.77769 10.8116C6.93229 11.1141 9.73369 11.6958 12.8295 12.245L12.3235 6.34846Z" fill="black"/>
</g>
<defs>
<clipPath id="clip0_617_4253">
<rect width="46" height="14" fill="white"/>
</clipPath>
</defs>
</svg>
