<svg width="45" height="5" viewBox="0 0 45 5" fill="none" xmlns="http://www.w3.org/2000/svg">
<g clip-path="url(#clip0_617_6780)">
<path opacity="0.992" fill-rule="evenodd" clip-rule="evenodd" d="M0 0C0.8415 0 1.683 0 2.5245 0C2.5245 0.498773 2.5245 0.997547 2.5245 1.49223C3.4785 1.49223 4.4325 1.49223 5.382 1.49223C5.382 0.993459 5.382 0.494685 5.382 0C6.2235 0 7.065 0 7.9065 0C7.9065 1.66803 7.9065 3.33197 7.9065 5C7.065 5 6.2235 5 5.382 5C5.382 4.45217 5.382 3.90433 5.382 3.3565C4.428 3.3565 3.474 3.3565 2.5245 3.3565C2.5245 3.90433 2.5245 4.45217 2.5245 5C1.683 5 0.8415 5 0 5C0 3.33197 0 1.66803 0 0Z" fill="#626B6F"/>
<path opacity="0.986" fill-rule="evenodd" clip-rule="evenodd" d="M12.8655 0C13.788 0 14.706 0 15.6285 0C16.7535 1.66394 17.874 3.33197 18.9855 5C18.063 5 17.145 5 16.2225 5C15.111 3.33197 13.9905 1.66394 12.8655 0Z" fill="#626B6F"/>
<path opacity="0.987" fill-rule="evenodd" clip-rule="evenodd" d="M18.1035 0C19.0665 0 20.025 0 20.988 0C21.6045 0.911693 22.212 1.82339 22.824 2.73917C22.3605 3.45871 21.8835 4.17007 21.393 4.86917C20.2905 3.2502 19.1925 1.62715 18.1035 0Z" fill="#626B6F"/>
<path opacity="0.986" fill-rule="evenodd" clip-rule="evenodd" d="M24.9435 0C25.866 0 26.784 0 27.7065 0C26.5815 1.66394 25.461 3.33197 24.3495 5C23.427 5 22.509 5 21.5865 5C22.6935 3.32788 23.814 1.65985 24.9435 0Z" fill="#626B6F"/>
<path opacity="0.986" fill-rule="evenodd" clip-rule="evenodd" d="M30.303 0C31.2255 0 32.1435 0 33.066 0C34.191 1.66394 35.3115 3.33197 36.423 5C35.5005 5 34.5825 5 33.66 5C32.5485 3.32788 31.428 1.66394 30.303 0Z" fill="#626B6F"/>
<path opacity="0.992" fill-rule="evenodd" clip-rule="evenodd" d="M37.899 0C38.7405 0 39.582 0 40.4235 0C40.4235 1.04661 40.4235 2.09321 40.4235 3.13982C41.949 3.13982 43.4745 3.13982 44.9955 3.13982C44.9955 3.76124 44.9955 4.38267 44.9955 5C42.6285 5 40.2615 5 37.8945 5C37.899 3.33197 37.899 1.66803 37.899 0Z" fill="#626B6F"/>
<path opacity="0.983" fill-rule="evenodd" clip-rule="evenodd" d="M12.2671 5.00094C11.3041 5.00094 10.3456 5.00094 9.38257 5.00094C10.4671 3.36562 11.5606 1.73439 12.6721 0.111328C13.1626 0.814517 13.6396 1.52588 14.1031 2.24134C13.4866 3.15712 12.8746 4.07699 12.2671 5.00094Z" fill="#626B6F"/>
<path opacity="0.983" fill-rule="evenodd" clip-rule="evenodd" d="M29.682 5.00094C28.728 5.00094 27.774 5.00094 26.8245 5.00094C27.909 3.36971 29.0025 1.73847 30.1005 0.111328C30.591 0.818605 31.0725 1.52588 31.5405 2.24134C30.924 3.16529 30.3075 4.08516 29.682 5.00094Z" fill="#626B6F"/>
</g>
<defs>
<clipPath id="clip0_617_6780">
<rect width="45" height="5" fill="white"/>
</clipPath>
</defs>
</svg>
