<svg width="39" height="20" viewBox="0 0 39 20" fill="none" xmlns="http://www.w3.org/2000/svg">
<g clip-path="url(#clip0_617_4247)">
<path fill-rule="evenodd" clip-rule="evenodd" d="M23.5495 12.3198C23.8415 13.8632 23.0481 15.1494 22.3815 16.3965C21.6432 17.5541 20.4311 18.5495 18.9711 18.4041C15.6929 18.3537 12.4919 17.8449 9.51672 16.9333C9.38449 16.8942 9.24675 16.8103 9.17513 16.6817C9.11452 16.5083 9.19717 16.3462 9.32388 16.2343C12.0346 14.003 15.2632 12.9685 18.4587 11.8836C19.6487 11.5369 20.9159 11.1622 22.2492 11.3356C22.8002 11.4083 23.3511 11.7941 23.5495 12.3198ZM34.7338 5.71547C36.2544 6.98489 37.6318 8.71846 37.1635 10.8099C36.4032 13.9024 33.0865 15.5465 30.4474 16.5922C29.0094 17.0787 27.5604 17.5764 25.9902 17.7274C25.891 17.7162 25.7312 17.7386 25.7092 17.5876L25.7478 17.4143C27.9846 14.8586 29.6761 11.9955 31.1636 9.09313C31.8523 7.78457 32.4914 6.43686 33.081 5.11711C33.1691 5.01645 33.2518 4.96612 33.3509 4.93257C33.8964 4.9773 34.293 5.41349 34.7338 5.71547ZM13.3128 2.42728L13.2632 2.61182C10.0346 6.3362 7.91345 10.6589 5.89696 14.9593C5.50579 15.334 5.12563 14.8363 4.76751 14.6741C2.97691 13.4774 1.35711 11.5481 1.81991 9.2553C2.56921 6.2635 5.59945 4.66973 8.12832 3.58486C9.62691 3.00886 11.1861 2.55031 12.8279 2.28747C13.0042 2.28747 13.2246 2.26511 13.3128 2.42728ZM29.3345 3.02005C29.5163 3.12071 29.7422 3.15426 29.8524 3.34439C29.9515 3.55689 29.7532 3.69111 29.643 3.83091C27.1031 5.84968 24.1941 6.96811 21.2189 7.95792C19.7093 8.3326 18.1887 9.00366 16.5028 8.62898C16.1116 8.52832 15.7535 8.26549 15.5331 7.87963C15.1144 6.71087 15.6819 5.48619 16.1722 4.46842C16.8223 3.18781 17.9793 1.67793 19.5716 1.64997C23.0095 1.6276 26.2491 2.14767 29.3345 3.02005ZM33.5768 3.12071C36.1773 4.56348 39.1249 7.10792 38.8164 10.4968C38.4582 13.634 35.5768 15.8317 32.9983 17.1514C25.4778 20.8031 14.9105 20.915 7.1366 17.7274C4.50856 16.6202 1.56097 14.7133 0.459061 11.8445C-0.389406 9.49018 0.640876 7.03522 2.37638 5.40231C5.99613 2.06379 10.6131 0.917396 15.3623 0.257521C20.5192 -0.379985 25.9406 0.179231 30.5576 1.78977C31.5879 2.17563 32.6071 2.60064 33.5768 3.12071Z" fill="#003082"/>
</g>
<defs>
<clipPath id="clip0_617_4247">
<rect width="39" height="20" fill="white"/>
</clipPath>
</defs>
</svg>
