<svg width="51" height="12" viewBox="0 0 51 12" fill="none" xmlns="http://www.w3.org/2000/svg">
<g clip-path="url(#clip0_617_4243)">
<path d="M29.5953 10.643C29.5953 10.7441 29.6208 10.7973 29.6769 10.7973C29.7228 10.7973 29.7585 10.7761 29.8044 10.7494L45.6909 0.415078C45.9714 0.228825 46.2213 0.127716 46.6089 0.127716H50.1024C50.643 0.127716 51 0.489579 51 1.03237V7.70022C51 8.50377 50.8266 8.97206 50.1024 9.40843L45.8643 11.9521C45.8133 11.9947 45.7623 12.0053 45.7215 12.0053C45.6705 12.0053 45.6246 11.9734 45.6246 11.8244V4.02838C45.6246 3.94324 45.5991 3.87406 45.5328 3.87406C45.4869 3.87406 45.4563 3.89534 45.4104 3.92195L33.7977 11.4732C33.4713 11.686 33.2061 11.7499 32.9052 11.7499H25.2042C24.6738 11.7499 24.3066 11.388 24.3066 10.8559V1.23991C24.3066 1.17073 24.276 1.1122 24.225 1.1122C24.1791 1.1122 24.1434 1.12816 24.0975 1.15477L16.4373 5.76319C16.3608 5.81109 16.3404 5.85898 16.3404 5.89091C16.3404 5.92284 16.3557 5.94945 16.4118 6.00266L21.879 11.4732C21.9504 11.5477 22.0014 11.6062 22.0014 11.6594C22.0014 11.718 21.9249 11.7552 21.828 11.7552H16.881C16.4985 11.7552 16.1925 11.6967 15.9834 11.4891L12.6633 8.16319C12.6225 8.12062 12.597 8.10998 12.5664 8.10998C12.5307 8.1153 12.4899 8.12594 12.4593 8.14191L6.9156 11.4891C6.5841 11.6914 6.3495 11.7499 6.018 11.7499H0.8976C0.357 11.7446 0 11.388 0 10.8506V4.29978C0 3.48559 0.1734 3.02794 0.8976 2.59157L5.1612 0.031929C5.2071 0.00532151 5.2377 0 5.2785 0C5.3346 0 5.3754 0.0691796 5.3754 0.207539V8.97206C5.3754 9.05721 5.4009 9.1051 5.4672 9.1051C5.4978 9.1051 5.5437 9.07849 5.5896 9.05188L19.9818 0.38847C20.3235 0.180931 20.5326 0.122395 20.9304 0.122395H28.6824C29.223 0.122395 29.58 0.484257 29.58 1.01641L29.5953 10.643Z" fill="#020A0A"/>
</g>
<defs>
<clipPath id="clip0_617_4243">
<rect width="51" height="12" fill="white"/>
</clipPath>
</defs>
</svg>
