<svg width="46" height="18" viewBox="0 0 46 18" fill="none" xmlns="http://www.w3.org/2000/svg">
<g clip-path="url(#clip0_617_4267)">
<path d="M23.0488 0C11.9858 0 2.79478 3.19787 0.941599 7.40106C0.707611 7.89894 0.585938 8.44468 0.585938 8.99043C0.585938 9.53617 0.707611 10.0723 0.941599 10.5606C0.941599 10.5798 0.960318 10.5894 0.960318 10.6085C0.969678 10.6277 0.988397 10.6755 1.00712 10.7043C3.02877 14.8404 12.1262 17.9521 23.0488 17.9521C35.4501 17.9521 45.5116 13.9309 45.5116 8.97128C45.5116 4.02128 35.4501 0 23.0488 0ZM21.3828 1.90532C22.169 2.64255 21.6823 4.23192 20.1754 6.44362C18.5001 8.88511 16.8996 10.2255 14.9902 10.7234L19.1365 1.48404H19.1552C20.2128 1.4266 20.9335 1.48404 21.3828 1.90532ZM30.7891 10.9053C30.7704 10.8862 30.7517 10.867 30.7329 10.8479C30.7236 10.8287 30.7142 10.8 30.7142 10.7713C30.7142 10.733 30.7236 10.6947 30.7517 10.666C30.7797 10.6372 30.8078 10.6181 30.8453 10.6085L32.7172 10.2255C32.7359 10.216 32.764 10.2064 32.7827 10.1968C32.8014 10.1777 32.8108 10.1585 32.8201 10.1394L33.1196 9.22979C33.129 9.21064 33.129 9.19149 33.1196 9.17234C33.1196 9.15319 33.1103 9.13404 33.1009 9.11489C33.0915 9.09575 33.0728 9.08617 33.0541 9.0766C33.0354 9.06702 33.0167 9.05745 32.9979 9.05745L29.5068 8.85638C29.3852 8.84681 29.2729 8.88511 29.1699 8.95213L27.766 9.9C27.6443 9.9766 27.5507 10.0915 27.4946 10.2255C27.4384 10.3596 27.4197 10.5032 27.4478 10.6468C27.8409 12.734 27.0734 13.8734 23.0394 14.3617C17.5454 15.0319 13.343 14.4479 12.0981 14.2277L12.0607 14.2181C11.9765 14.1989 11.8829 14.2181 11.7986 14.2564C11.7144 14.2947 11.6582 14.3617 11.6208 14.4479L11.2277 15.3383C7.0908 14.084 4.21743 12.1692 3.52483 9.98617C3.52483 9.9766 3.52483 9.9766 3.52483 9.96702C3.50611 9.90958 3.48739 9.84255 3.46867 9.78511V9.77553C3.40315 9.50745 3.36571 9.23936 3.36571 8.97128C3.36571 5.35213 9.32773 2.2883 17.4892 1.33085H17.5173C17.5173 1.33085 13.343 10.6372 12.6316 12.2266C12.6223 12.2553 12.6129 12.2745 12.6223 12.3032C12.6223 12.3319 12.6316 12.3606 12.6504 12.3798C12.6691 12.3989 12.6878 12.4181 12.7065 12.4372C12.7346 12.4468 12.7533 12.4564 12.7814 12.4564H13.0154C15.4676 12.5426 18.4252 12.6287 22.1315 11.7C26.0625 10.7043 29.0389 7.86064 30.1714 5.78298C31.3226 3.6766 30.6674 2.06809 30.5364 1.51277C37.7994 2.65213 42.4417 5.52447 42.5447 8.86596C42.5166 9.54575 42.3387 10.216 42.0112 10.8191C40.6447 13.1457 36.7792 15.0702 31.6221 16.1043C33.6531 13.8255 32.0714 11.7574 30.7891 10.9053Z" fill="#4C5865"/>
</g>
<defs>
<clipPath id="clip0_617_4267">
<rect width="46" height="18" fill="white"/>
</clipPath>
</defs>
</svg>
