<svg width="27" height="27" viewBox="0 0 27 27" fill="none" xmlns="http://www.w3.org/2000/svg">
<g clip-path="url(#clip0_617_4282)">
<path d="M12.6857 0.0286732C19.8373 -0.467817 26.0184 5.13115 26.4979 12.5366C26.9774 19.9421 21.5703 26.3426 14.4187 26.8391C7.26711 27.3356 1.086 21.7366 0.606527 14.3312C0.277252 9.1928 2.80747 4.31763 7.12269 1.7634C8.82683 0.758454 10.7332 0.166255 12.6857 0.0286732ZM13.0785 1.1712C6.53924 1.4344 1.44415 7.14104 1.69833 13.9184C1.95251 20.6898 7.46352 25.9658 14.0086 25.7026C20.5478 25.4394 25.6429 19.7327 25.3888 12.9554C25.2328 8.82791 23.0838 5.05937 19.664 2.92387C17.6826 1.68563 15.395 1.07549 13.0785 1.1712Z" fill="#0E3A2F"/>
<path d="M10.2134 3.33099C11.4785 2.89432 12.8129 2.70888 14.1474 2.78067C14.286 2.77468 14.4247 2.79861 14.5575 2.85245C16.019 4.05479 17.1744 5.61006 17.9254 7.38067C18.7399 9.42047 19.0403 11.6457 18.7977 13.841C18.6475 15.4382 18.2777 17.0054 17.7001 18.4949H18.7341C18.8381 18.2197 18.9247 17.9445 19.0345 17.6754C20.2476 17.8369 21.3683 18.4111 22.2233 19.3144C21.3741 20.2236 20.2476 20.8038 19.0345 20.9534C18.9363 20.6842 18.8381 20.421 18.7457 20.1518H9.17938C9.01763 20.1638 8.86743 20.2236 8.73457 20.3193C8.38219 20.4988 8.03558 20.6902 7.68898 20.8756C7.56189 20.9354 7.41747 20.9654 7.27883 20.9534H6.0426C5.17609 19.9963 4.47133 18.8897 3.96298 17.6873H6.77625C6.97844 17.6634 7.18062 17.6873 7.37126 17.7531C7.83917 17.9625 8.30709 18.1719 8.775 18.3872C9.12739 18.6025 9.54909 18.4769 9.94191 18.5068C9.88414 17.472 9.5953 16.467 9.0985 15.5638C8.57282 14.6964 7.83917 13.9786 6.96688 13.4881C5.79998 12.8361 4.54065 12.3874 3.23511 12.1422C3.40841 10.7125 3.859 9.33672 4.56376 8.09849C5.48226 8.31384 6.38343 8.59498 7.26727 8.93594C8.21466 9.28289 9.11005 9.76741 9.93035 10.3656L10.1961 10.234C9.66462 9.62385 9.06962 9.07352 8.41685 8.60096C7.49257 7.90109 6.52207 7.26702 5.51114 6.69277C6.35455 5.62202 7.39436 4.73073 8.56704 4.07274C9.37001 4.4137 10.121 4.8743 10.7969 5.43659C11.8251 6.286 12.7783 7.23113 13.6448 8.25402L13.9856 8.15831C13.1249 6.27404 11.7385 4.68886 10.2134 3.33099ZM14.9272 14.6605C14.2456 14.8819 13.8701 15.6296 14.0838 16.3354C14.2976 17.0413 15.0197 17.4301 15.7013 17.2088C16.3772 16.9875 16.7585 16.2397 16.5447 15.5339C16.4639 15.2707 16.3021 15.0374 16.0884 14.8699C15.7533 14.6127 15.3201 14.5349 14.9272 14.6605Z" fill="#0E3A2F"/>
</g>
<defs>
<clipPath id="clip0_617_4282">
<rect width="27" height="27" fill="white"/>
</clipPath>
</defs>
</svg>
