<svg width="65" height="9" viewBox="0 0 65 9" fill="none" xmlns="http://www.w3.org/2000/svg">
<mask id="mask0_617_4293" style="mask-type:luminance" maskUnits="userSpaceOnUse" x="0" y="0" width="65" height="9">
<path d="M65 0H0V8.125H65V0Z" fill="white"/>
</mask>
<g mask="url(#mask0_617_4293)">
<path d="M23.718 2.92695C25.0034 3.15671 27.8431 3.66456 27.993 3.70388C28.1141 3.73816 28.3303 3.80018 28.4357 4.02056C28.5533 4.26655 28.5059 4.64096 28.2908 5.16723C27.6134 6.82388 26.3034 6.82388 25.6733 6.82388H20.1792C20.0855 6.82388 20.0086 6.77954 19.9619 6.69837C19.9024 6.58945 19.9071 6.44119 19.9712 6.33514C20.0933 6.13352 20.4028 5.65237 20.4374 5.59824L20.499 5.50337H24.9272C25.4425 5.50337 26.0562 5.37028 26.0918 4.74519L26.079 4.74341C25.1594 4.58865 22.1153 4.07794 21.5511 3.99893C21.4179 3.9809 21.3235 3.92101 21.2712 3.82185C21.1778 3.64473 21.2277 3.36194 21.4236 2.95832C22.0554 1.65153 22.9597 1.01562 24.1903 1.01562H28.5251L28.3866 1.315C28.3453 1.40301 28.2705 1.5343 28.2042 1.65009L28.0578 1.90798C27.9553 2.09158 27.832 2.3033 27.614 2.35272C27.4695 2.38554 27.3177 2.36643 27.171 2.36643C26.9997 2.36643 26.8284 2.36787 26.657 2.36895C26.1274 2.37147 25.6003 2.36318 25.0711 2.35236C24.691 2.34442 24.2455 2.35705 23.9406 2.62036C23.8437 2.70404 23.7689 2.81008 23.718 2.92767M35.4845 5.05286C35.3203 5.52899 35.0593 5.98526 34.685 6.32361C34.5072 6.48449 34.2924 6.63019 34.0692 6.71566C33.7931 6.82136 33.4612 6.82713 33.1698 6.83038C32.3325 6.83939 31.4973 6.82427 30.66 6.82427C29.9053 6.82427 29.3671 6.60675 29.0597 6.1786C28.4664 5.34973 28.8275 3.88855 29.2075 2.708C29.4508 1.95415 30.0253 1.40554 30.7764 1.19128C31.2975 1.04268 31.8663 1.0755 32.4034 1.0755C32.7834 1.0755 33.2382 1.07911 33.7568 1.08632C34.6757 1.0993 35.2862 1.34314 35.6227 1.82935C36.0598 2.46309 36.0145 3.51668 35.4845 5.05286ZM32.5882 5.57731C33.0263 5.57731 33.4003 5.42475 33.6296 5.03088C33.7874 4.76001 33.8576 4.44763 33.9438 4.14538C34.0392 3.81028 34.1582 3.477 34.1742 3.12857C34.1828 2.94787 34.1589 2.75525 34.0478 2.61386C33.9594 2.50169 33.8248 2.43423 33.687 2.40177C33.5488 2.36931 33.4056 2.36859 33.2639 2.36823C32.8853 2.36679 32.5067 2.36534 32.1277 2.36354C31.8912 2.36246 31.6451 2.36354 31.4332 2.47031C31.2491 2.563 31.108 2.7282 31.0086 2.91035C30.9093 3.0925 30.8473 3.29305 30.786 3.49179C30.6703 3.86727 30.5542 4.24458 30.4929 4.63338C30.4712 4.77046 30.4566 4.91114 30.4787 5.04818C30.5007 5.18526 30.5631 5.32052 30.6721 5.40529C30.8113 5.51386 30.9994 5.5243 31.175 5.53046C31.6451 5.54702 32.1177 5.57731 32.5882 5.57731ZM46.6012 1.09642L47.7658 6.82427H46.1606L45.9114 5.55317H45.9029C45.6692 5.55135 44.8451 5.54632 44.1452 5.54632C43.6554 5.54632 43.34 5.5481 43.181 5.55317C42.461 5.57445 41.9398 6.52128 41.8423 6.71137L41.7847 6.82427H35.4984L37.0705 1.0654L38.8659 1.08704L37.6707 5.51529L40.6746 5.5344C40.9849 5.10807 43.0688 2.25317 43.4464 1.77958C43.8991 1.2122 44.3916 1.09642 44.9921 1.09642H46.6012ZM43.5555 4.29724L43.5141 4.35384L45.6533 4.33511L45.2552 2.42702C45.2181 2.4245 45.1801 2.42233 45.1442 2.42233C45.0099 2.42233 44.9244 2.46706 44.8327 2.56625C44.5777 2.8429 44.3719 3.17294 44.1502 3.47736C43.9517 3.75004 43.7532 4.02346 43.5555 4.29685M53.5617 5.30319L54.9727 6.82388H52.5112L51.1772 5.32122H49.9948L49.587 6.82388H47.7894L47.8656 6.55591C48.0483 5.91748 48.6677 3.74319 48.901 2.92153C49.2527 1.67966 50.0532 1.07586 51.3474 1.07586C52.5747 1.07586 53.0788 1.07947 53.4034 1.08235C53.4073 1.08235 53.8654 1.0856 54.0136 1.0856H54.2256C54.7278 1.0856 55.2006 1.11265 55.4645 1.4481C55.692 1.73665 55.7256 2.21493 55.5682 2.90963C55.2219 4.4361 54.6373 5.13763 53.5621 5.30284M50.3531 4.12228H52.5228C53.3918 4.12228 53.61 3.51704 53.7733 2.84326L53.7807 2.81333C53.8263 2.62504 53.8271 2.49556 53.7837 2.43784C53.7528 2.39817 53.6928 2.39456 53.6286 2.39456H51.5262C50.9949 2.39456 50.7686 2.83497 50.6444 3.16717C50.5728 3.35617 50.4243 3.86978 50.3531 4.12228ZM56.6635 1.06468L55.0911 6.82353H56.8678L58.4498 1.06468H56.6635ZM64.9301 4.04257C64.8094 3.82869 64.5598 3.74357 64.1439 3.66168C63.6289 3.55996 61.0959 3.09828 60.6455 3.0164C60.7229 2.76752 60.9895 2.40502 61.5768 2.40502C62.2245 2.40502 62.8718 2.40141 63.5194 2.41476C63.5554 2.41548 63.5914 2.4162 63.6274 2.41692C63.7504 2.41945 63.8738 2.42197 63.9949 2.4025C64.2967 2.35452 64.4832 2.14135 64.6074 1.87119C64.7003 1.6692 64.7722 1.50617 64.8214 1.38426L64.9374 1.0957H61.1589C60.17 1.0957 59.3993 1.51447 58.8019 2.3758C58.3407 3.0402 58.1581 3.51307 58.2595 3.78141C58.3101 3.91451 58.4162 3.96465 58.4955 3.98199C58.6189 4.01154 59.1397 4.10715 59.8071 4.22906L59.8616 4.23877C60.7705 4.40507 61.9018 4.61175 62.4694 4.73401C62.5878 4.75963 62.6036 4.85124 62.5963 4.9241C62.5704 5.16649 62.2496 5.52539 61.641 5.52539H58.1035L57.6207 6.26879C57.5785 6.34346 57.5108 6.55374 57.5909 6.69763C57.6176 6.74526 57.6861 6.82388 57.8385 6.82388H62.3347C63.0455 6.82388 64.3184 6.59522 64.8496 5.06261C65.0226 4.56343 65.0465 4.24926 64.9301 4.04331" fill="#18325A"/>
<path d="M16.8856 3.27799H3.47899C3.00922 3.27799 2.76168 2.74164 3.08401 2.41593C4.13648 1.35224 6.17763 0.630856 8.52262 0.630856C10.65 0.630856 12.5266 1.22456 13.6428 2.12846C13.7208 2.19158 13.8195 2.22693 13.9217 2.22693H16.1274C14.7209 0.905705 11.8438 0 8.52262 0C3.81557 0 0 1.81862 0 4.0625C0 4.15195 0.00676708 4.24106 0.0188766 4.32904H13.9655C14.3715 4.32904 14.6329 4.74206 14.4409 5.08327C13.656 6.47988 11.3032 7.49415 8.52223 7.49415C6.04693 7.49415 3.91068 6.69051 2.91768 5.52871C2.83683 5.43423 2.71503 5.3801 2.58681 5.3801H0.458382C1.60629 6.9769 4.78292 8.12535 8.52223 8.12535C13.2289 8.12535 17.0449 6.30639 17.0449 4.06285C17.0449 3.79449 16.9896 3.53192 16.8856 3.27799Z" fill="#18325A"/>
</g>
</svg>
