<svg width="408" height="464" viewBox="0 0 408 464" fill="none" xmlns="http://www.w3.org/2000/svg">
<g clip-path="url(#clip0_893_3411)">
<rect width="408" height="465" fill="#DB4431"/>
<path d="M0 0L41.7047 46L83.4095 0L125.066 46L166.772 0L208.428 46L250.132 0L291.838 46L333.543 0L375.247 46L417 0" stroke="white" stroke-opacity="0.2" stroke-width="2" stroke-miterlimit="10" stroke-linecap="round"/>
<path d="M0 50L41.7047 96L83.4095 50L125.066 96L166.772 50L208.428 96L250.132 50L291.838 96L333.543 50L375.247 96L417 50" stroke="white" stroke-opacity="0.2" stroke-width="2" stroke-miterlimit="10" stroke-linecap="round"/>
<path d="M0 100L41.7047 146L83.4095 100L125.066 146L166.772 100L208.428 146L250.132 100L291.838 146L333.543 100L375.247 146L417 100" stroke="white" stroke-opacity="0.2" stroke-width="2" stroke-miterlimit="10" stroke-linecap="round"/>
<path d="M0 150L41.7047 196L83.4095 150L125.066 196L166.772 150L208.428 196L250.132 150L291.838 196L333.543 150L375.247 196L417 150" stroke="white" stroke-opacity="0.2" stroke-width="2" stroke-miterlimit="10" stroke-linecap="round"/>
<path d="M0 200L41.7047 246L83.4095 200L125.066 246L166.772 200L208.428 246L250.132 200L291.838 246L333.543 200L375.247 246L417 200" stroke="white" stroke-opacity="0.2" stroke-width="2" stroke-miterlimit="10" stroke-linecap="round"/>
<path d="M0 250L41.7047 296L83.4095 250L125.066 296L166.772 250L208.428 296L250.132 250L291.838 296L333.543 250L375.247 296L417 250" stroke="white" stroke-opacity="0.2" stroke-width="2" stroke-miterlimit="10" stroke-linecap="round"/>
<path d="M0 300L41.7047 346L83.4095 300L125.066 346L166.772 300L208.428 346L250.132 300L291.838 346L333.543 300L375.247 346L417 300" stroke="white" stroke-opacity="0.2" stroke-width="2" stroke-miterlimit="10" stroke-linecap="round"/>
<path d="M0 350L41.7047 396L83.4095 350L125.066 396L166.772 350L208.428 396L250.132 350L291.838 396L333.543 350L375.247 396L417 350" stroke="white" stroke-opacity="0.2" stroke-width="2" stroke-miterlimit="10" stroke-linecap="round"/>
<path d="M0 400L41.7047 446L83.4095 400L125.066 446L166.772 400L208.428 446L250.132 400L291.838 446L333.543 400L375.247 446L417 400" stroke="white" stroke-opacity="0.2" stroke-width="2" stroke-miterlimit="10" stroke-linecap="round"/>
<path d="M0 450L41.7047 496L83.4095 450L125.066 496L166.772 450L208.428 496L250.132 450L291.838 496L333.543 450L375.247 496L417 450" stroke="white" stroke-opacity="0.2" stroke-width="2" stroke-miterlimit="10" stroke-linecap="round"/>
</g>
<defs>
<clipPath id="clip0_893_3411">
<rect width="408" height="464" fill="white"/>
</clipPath>
</defs>
</svg>
