<svg width="515" height="465" viewBox="0 0 515 465" fill="none" xmlns="http://www.w3.org/2000/svg">
<g clip-path="url(#clip0_893_3428)">
<rect width="515" height="465" fill="#F7F7F7"/>
<rect width="515" height="465" fill="#DB4431"/>
<path d="M396.413 112.242C396.718 115.688 390.314 117.574 386.995 112.242C383.407 107.533 386.045 96.5959 396.413 93.4385C406.177 89.7005 421.628 96.8759 424.665 112.242C428.534 127.018 416.85 146.951 396.413 149.853C376.61 153.846 352.07 137.673 349.325 112.242C345.164 87.4321 365.936 58.4437 396.413 55.8283C426.298 51.5483 459.848 76.7702 462.335 112.242C466.761 147.094 436.971 185.134 396.413 187.462C356.453 192.028 313.862 157.751 311.655 112.242C306.956 67.3263 345.78 20.2844 396.413 18.219C446.407 13.3954 498.092 56.6695 500.005 112.242C504.992 167.195 457.098 223.293 396.413 225.071C336.338 230.182 275.636 177.857 273.985 112.242C268.741 47.2502 325.648 -17.8922 396.413 -19.3905C466.545 -24.7871 536.312 36.5938 537.675 112.242C543.212 187.3 477.23 261.445 396.413 262.681C316.229 268.34 237.392 197.956 236.315 112.242C230.515 27.1497 305.526 -56.0508 396.413 -57" stroke="white" stroke-opacity="0.4" stroke-width="3" stroke-linecap="round"/>
<path d="M22.2361 197.67C22.4063 199.597 18.8438 200.652 16.9972 197.67C15.0013 195.035 16.4688 188.918 22.2361 187.152C27.6681 185.061 36.2634 189.074 37.9528 197.67C40.1052 205.935 33.6056 217.085 22.2361 218.708C11.2199 220.942 -2.4312 211.895 -3.95828 197.67C-6.27295 183.792 5.28245 167.576 22.2361 166.113C38.861 163.719 57.5248 177.828 58.9083 197.67C61.3701 217.165 44.7984 238.444 22.2361 239.746C0.00695653 242.3 -23.6862 223.126 -24.9136 197.67C-27.5281 172.545 -5.93049 146.231 22.2361 145.076C50.0473 142.377 78.7998 166.584 79.8638 197.67C82.6379 228.409 55.9948 259.789 22.2361 260.783C-11.183 263.642 -44.9511 234.373 -45.8691 197.67C-48.7863 161.315 -17.1298 124.876 22.2361 124.038C61.2502 121.019 100.061 155.354 100.819 197.67C103.899 239.656 67.1941 281.13 22.2361 281.822C-22.369 284.987 -66.2259 245.616 -66.8246 197.67C-70.0511 150.071 -28.3231 103.531 22.2361 103" stroke="white" stroke-opacity="0.4" stroke-width="3" stroke-linecap="round"/>
<path d="M239.413 442.242C239.718 445.688 233.314 447.574 229.995 442.242C226.407 437.533 229.045 426.596 239.413 423.439C249.177 419.7 264.628 426.876 267.665 442.242C271.534 457.018 259.85 476.951 239.413 479.853C219.61 483.846 195.07 467.673 192.325 442.242C188.164 417.432 208.936 388.444 239.413 385.828C269.298 381.548 302.848 406.77 305.335 442.242C309.761 477.094 279.971 515.134 239.413 517.462C199.453 522.028 156.862 487.751 154.655 442.242C149.956 397.326 188.78 350.284 239.413 348.219C289.407 343.395 341.092 386.67 343.005 442.242C347.992 497.195 300.098 553.293 239.413 555.071C179.338 560.182 118.636 507.857 116.985 442.242C111.741 377.25 168.648 312.108 239.413 310.61C309.545 305.213 379.312 366.594 380.675 442.242C386.212 517.3 320.23 591.445 239.413 592.681C159.229 598.34 80.3915 527.956 79.3153 442.242C73.5153 357.15 148.526 273.949 239.413 273" stroke="white" stroke-opacity="0.4" stroke-width="3" stroke-linecap="round"/>
</g>
<defs>
<clipPath id="clip0_893_3428">
<rect width="515" height="465" fill="white"/>
</clipPath>
</defs>
</svg>
