<svg width="139" height="47" viewBox="0 0 139 47" fill="none" xmlns="http://www.w3.org/2000/svg">
<rect width="139" height="47" rx="4" fill="white"/>
<path d="M116.898 34H117.798V38.3H118.918C119.298 38.3 119.558 38.2133 119.698 38.04C119.844 37.8667 119.918 37.6267 119.918 37.32C119.918 37.02 119.858 36.7833 119.738 36.61C119.624 36.4367 119.404 36.35 119.078 36.35H117.148V35.65H119.028C119.621 35.65 120.068 35.7933 120.368 36.08C120.668 36.3667 120.818 36.7667 120.818 37.28C120.818 37.8067 120.671 38.2267 120.378 38.54C120.091 38.8467 119.668 39 119.108 39H116.898V34ZM121.928 34H122.828V39H121.928V34Z" fill="#1E1E1E"/>
<path d="M110.97 34H111.87V36.05H114.4V34H115.3V39H114.4V36.85H111.87V39H110.97V34Z" fill="#1E1E1E"/>
<path d="M106.753 39.2C106.293 39.2 105.896 39.0834 105.563 38.85C105.23 38.6167 104.973 38.2934 104.793 37.88C104.613 37.4667 104.523 36.9934 104.523 36.46C104.523 35.9534 104.606 35.5 104.773 35.1C104.94 34.7 105.18 34.3834 105.493 34.15C105.813 33.9167 106.203 33.8 106.663 33.8C107.31 33.8 107.803 34.0367 108.143 34.51C108.49 34.9767 108.663 35.6467 108.663 36.52C108.663 37.3667 108.5 38.0267 108.173 38.5C107.846 38.9667 107.373 39.2 106.753 39.2ZM106.883 38.5C107.196 38.5 107.47 38.41 107.703 38.23C107.936 38.05 108.116 37.8067 108.243 37.5C108.376 37.1934 108.443 36.8467 108.443 36.46C108.443 36.0734 108.376 35.7334 108.243 35.44C108.11 35.1467 107.923 34.9167 107.683 34.75C107.443 34.5834 107.166 34.5 106.853 34.5C106.406 34.5 106.056 34.6734 105.803 35.02C105.55 35.36 105.423 35.83 105.423 36.43C105.423 37.0567 105.553 37.56 105.813 37.94C106.08 38.3134 106.436 38.5 106.883 38.5ZM108.443 39V34H109.343V39H108.443Z" fill="#1E1E1E"/>
<path d="M99.6516 34H101.742C102.382 34 102.835 34.09 103.102 34.27C103.375 34.45 103.512 34.75 103.512 35.17C103.512 35.5167 103.418 35.7767 103.232 35.95C103.052 36.1233 102.738 36.2567 102.292 36.35C102.812 36.3767 103.195 36.4967 103.442 36.71C103.688 36.9233 103.812 37.2367 103.812 37.65C103.812 37.95 103.745 38.2 103.612 38.4C103.478 38.6 103.272 38.75 102.992 38.85C102.712 38.95 102.348 39 101.902 39H99.6516V34ZM101.572 36.16C101.898 36.16 102.152 36.0967 102.332 35.97C102.518 35.8433 102.612 35.6533 102.612 35.4C102.612 35.1533 102.522 34.9767 102.342 34.87C102.168 34.7567 101.918 34.7 101.592 34.7H100.552V36.16H101.572ZM101.762 38.3C102.148 38.3 102.435 38.2333 102.622 38.1C102.815 37.9667 102.912 37.77 102.912 37.51C102.912 37.2433 102.815 37.0567 102.622 36.95C102.428 36.8367 102.138 36.78 101.752 36.78H100.552V38.3H101.762Z" fill="#1E1E1E"/>
<path d="M95.9003 39.2C95.3936 39.2 94.9636 39.0934 94.6103 38.88C94.257 38.6667 93.987 38.3567 93.8003 37.95C93.6203 37.5367 93.5303 37.0367 93.5303 36.45C93.5303 35.8967 93.6203 35.4234 93.8003 35.03C93.987 34.63 94.257 34.3267 94.6103 34.12C94.9703 33.9067 95.4036 33.8 95.9103 33.8C96.7303 33.8 97.347 34.0334 97.7603 34.5C98.1803 34.9667 98.3903 35.6167 98.3903 36.45C98.3903 37.33 98.1803 38.01 97.7603 38.49C97.3403 38.9634 96.7203 39.2 95.9003 39.2ZM95.9203 38.5C96.4536 38.5 96.847 38.3334 97.1003 38C97.3603 37.6667 97.4903 37.1567 97.4903 36.47C97.4903 35.8167 97.3603 35.3267 97.1003 35C96.847 34.6667 96.4603 34.5 95.9403 34.5C95.427 34.5 95.047 34.66 94.8003 34.98C94.5536 35.2934 94.4303 35.7834 94.4303 36.45C94.4303 37.13 94.5536 37.6434 94.8003 37.99C95.047 38.33 95.4203 38.5 95.9203 38.5Z" fill="#1E1E1E"/>
<path d="M87.8735 34H88.7735V41H87.8735V34ZM90.4135 39.2C90.0135 39.2 89.6735 39.0734 89.3935 38.82C89.1202 38.5667 88.9102 38.23 88.7635 37.81C88.6235 37.39 88.5535 36.9367 88.5535 36.45C88.5535 35.9567 88.6268 35.51 88.7735 35.11C88.9268 34.71 89.1468 34.3934 89.4335 34.16C89.7202 33.92 90.0668 33.8 90.4735 33.8C90.9602 33.8 91.3668 33.9134 91.6935 34.14C92.0202 34.3667 92.2668 34.68 92.4335 35.08C92.6068 35.4734 92.6935 35.93 92.6935 36.45C92.6935 36.97 92.6002 37.4367 92.4135 37.85C92.2335 38.2634 91.9735 38.5934 91.6335 38.84C91.2935 39.08 90.8868 39.2 90.4135 39.2ZM90.3235 38.5C90.7768 38.5 91.1335 38.3134 91.3935 37.94C91.6602 37.5667 91.7935 37.0667 91.7935 36.44C91.7935 35.8267 91.6635 35.35 91.4035 35.01C91.1502 34.67 90.7935 34.5 90.3335 34.5C90.0335 34.5 89.7635 34.5834 89.5235 34.75C89.2902 34.9167 89.1068 35.1467 88.9735 35.44C88.8402 35.7267 88.7735 36.0567 88.7735 36.43C88.7735 36.8167 88.8368 37.1667 88.9635 37.48C89.0968 37.7934 89.2802 38.0434 89.5135 38.23C89.7468 38.41 90.0168 38.5 90.3235 38.5Z" fill="#1E1E1E"/>
<path d="M81.8098 34H82.7097V37.73L85.4198 34H86.2998V39H85.3997V35.26L82.6797 39H81.8098V34Z" fill="#1E1E1E"/>
<path d="M75.813 34H76.713V41H75.813V34ZM78.353 39.2C77.953 39.2 77.613 39.0734 77.333 38.82C77.0597 38.5667 76.8497 38.23 76.703 37.81C76.563 37.39 76.493 36.9367 76.493 36.45C76.493 35.9567 76.5663 35.51 76.713 35.11C76.8663 34.71 77.0863 34.3934 77.373 34.16C77.6597 33.92 78.0063 33.8 78.413 33.8C78.8997 33.8 79.3063 33.9134 79.633 34.14C79.9597 34.3667 80.2063 34.68 80.373 35.08C80.5463 35.4734 80.633 35.93 80.633 36.45C80.633 36.97 80.5397 37.4367 80.353 37.85C80.173 38.2634 79.913 38.5934 79.573 38.84C79.233 39.08 78.8263 39.2 78.353 39.2ZM78.263 38.5C78.7163 38.5 79.073 38.3134 79.333 37.94C79.5997 37.5667 79.733 37.0667 79.733 36.44C79.733 35.8267 79.603 35.35 79.343 35.01C79.0897 34.67 78.733 34.5 78.273 34.5C77.973 34.5 77.703 34.5834 77.463 34.75C77.2297 34.9167 77.0463 35.1467 76.913 35.44C76.7797 35.7267 76.713 36.0567 76.713 36.43C76.713 36.8167 76.7763 37.1667 76.903 37.48C77.0363 37.7934 77.2197 38.0434 77.453 38.23C77.6863 38.41 77.9563 38.5 78.263 38.5Z" fill="#1E1E1E"/>
<path d="M71.969 34.7H70.209V34H74.619V34.7H72.869V39H71.969V34.7Z" fill="#1E1E1E"/>
<path d="M69.5102 38.3C69.3036 38.5667 69.0236 38.7834 68.6702 38.95C68.3236 39.1167 67.9202 39.2 67.4602 39.2C66.7402 39.2 66.1836 38.9634 65.7902 38.49C65.3969 38.01 65.2002 37.33 65.2002 36.45C65.2002 35.6167 65.3936 34.9667 65.7802 34.5C66.1736 34.0334 66.7302 33.8 67.4502 33.8C67.8969 33.8 68.2902 33.8834 68.6302 34.05C68.9702 34.2167 69.2436 34.4334 69.4502 34.7L68.9202 35.23C68.7402 34.9967 68.5236 34.8167 68.2702 34.69C68.0236 34.5634 67.7602 34.5 67.4802 34.5C67.0136 34.5 66.6669 34.66 66.4402 34.98C66.2136 35.2934 66.1002 35.7834 66.1002 36.45C66.1002 37.13 66.2136 37.6434 66.4402 37.99C66.6669 38.33 67.0069 38.5 67.4602 38.5C67.7536 38.5 68.0336 38.4367 68.3002 38.31C68.5736 38.1834 68.8002 38.0034 68.9802 37.77L69.5102 38.3Z" fill="#1E1E1E"/>
<path d="M59.4465 34H60.3465V37.73L63.0565 34H63.9365V39H63.0365V35.26L60.3165 39H59.4465V34Z" fill="#1E1E1E"/>
<path d="M55.1798 34H58.1798V34.7H56.0798V39H55.1798V34Z" fill="#1E1E1E"/>
<path d="M51.6518 39.2C51.1851 39.2 50.7751 39.1 50.4218 38.9C50.0751 38.6934 49.8018 38.39 49.6018 37.99C49.4085 37.5834 49.3118 37.0834 49.3118 36.49C49.3118 35.61 49.5151 34.9434 49.9218 34.49C50.3285 34.03 50.8918 33.8 51.6118 33.8C52.1051 33.8 52.5251 33.91 52.8718 34.13C53.2185 34.3434 53.4751 34.66 53.6418 35.08C53.8151 35.5 53.8818 36.0167 53.8418 36.63H50.2118C50.2118 37.17 50.3285 37.6167 50.5618 37.97C50.8018 38.3234 51.1685 38.5 51.6618 38.5C51.9485 38.5 52.2118 38.4367 52.4518 38.31C52.6918 38.1834 52.8985 38.0034 53.0718 37.77L53.6018 38.3C53.4018 38.5667 53.1351 38.7834 52.8018 38.95C52.4751 39.1167 52.0918 39.2 51.6518 39.2ZM50.2518 36.04H52.9118C52.8651 35.5267 52.7285 35.1434 52.5018 34.89C52.2751 34.63 51.9785 34.5 51.6118 34.5C51.2451 34.5 50.9385 34.63 50.6918 34.89C50.4451 35.1434 50.2985 35.5267 50.2518 36.04Z" fill="#1E1E1E"/>
<path d="M43.645 34H44.545V41H43.645V34ZM46.185 39.2C45.785 39.2 45.445 39.0734 45.165 38.82C44.8917 38.5667 44.6817 38.23 44.535 37.81C44.395 37.39 44.325 36.9367 44.325 36.45C44.325 35.9567 44.3983 35.51 44.545 35.11C44.6983 34.71 44.9183 34.3934 45.205 34.16C45.4917 33.92 45.8383 33.8 46.245 33.8C46.7317 33.8 47.1383 33.9134 47.465 34.14C47.7917 34.3667 48.0383 34.68 48.205 35.08C48.3783 35.4734 48.465 35.93 48.465 36.45C48.465 36.97 48.3717 37.4367 48.185 37.85C48.005 38.2634 47.745 38.5934 47.405 38.84C47.065 39.08 46.6583 39.2 46.185 39.2ZM46.095 38.5C46.5483 38.5 46.905 38.3134 47.165 37.94C47.4317 37.5667 47.565 37.0667 47.565 36.44C47.565 35.8267 47.435 35.35 47.175 35.01C46.9217 34.67 46.565 34.5 46.105 34.5C45.805 34.5 45.535 34.5834 45.295 34.75C45.0617 34.9167 44.8783 35.1467 44.745 35.44C44.6117 35.7267 44.545 36.0567 44.545 36.43C44.545 36.8167 44.6083 37.1667 44.735 37.48C44.8683 37.7934 45.0517 38.0434 45.285 38.23C45.5183 38.41 45.7883 38.5 46.095 38.5Z" fill="#1E1E1E"/>
<path d="M39.458 39.2C38.998 39.2 38.6013 39.0834 38.268 38.85C37.9346 38.6167 37.678 38.2934 37.498 37.88C37.318 37.4667 37.228 36.9934 37.228 36.46C37.228 35.9534 37.3113 35.5 37.478 35.1C37.6446 34.7 37.8846 34.3834 38.198 34.15C38.518 33.9167 38.908 33.8 39.368 33.8C40.0146 33.8 40.508 34.0367 40.848 34.51C41.1946 34.9767 41.368 35.6467 41.368 36.52C41.368 37.3667 41.2046 38.0267 40.878 38.5C40.5513 38.9667 40.078 39.2 39.458 39.2ZM39.588 38.5C39.9013 38.5 40.1746 38.41 40.408 38.23C40.6413 38.05 40.8213 37.8067 40.948 37.5C41.0813 37.1934 41.148 36.8467 41.148 36.46C41.148 36.0734 41.0813 35.7334 40.948 35.44C40.8146 35.1467 40.628 34.9167 40.388 34.75C40.148 34.5834 39.8713 34.5 39.558 34.5C39.1113 34.5 38.7613 34.6734 38.508 35.02C38.2546 35.36 38.128 35.83 38.128 36.43C38.128 37.0567 38.258 37.56 38.518 37.94C38.7846 38.3134 39.1413 38.5 39.588 38.5ZM41.148 39V34H42.048V39H41.148Z" fill="#1E1E1E"/>
<path d="M34.3968 39.2C33.9168 39.2 33.5101 39.11 33.1768 38.93C32.8435 38.75 32.5635 38.5 32.3368 38.18L32.8668 37.65C33.0335 37.9367 33.2335 38.15 33.4668 38.29C33.7068 38.43 34.0001 38.5 34.3468 38.5C34.7135 38.5 35.0168 38.42 35.2568 38.26C35.5035 38.1 35.6268 37.8534 35.6268 37.52C35.6268 37.3 35.5635 37.12 35.4368 36.98C35.3101 36.84 35.1135 36.74 34.8468 36.68C34.5801 36.62 34.2368 36.6034 33.8168 36.63V36.04C34.3968 36.0067 34.7968 35.93 35.0168 35.81C35.2435 35.6834 35.3568 35.4834 35.3568 35.21C35.3568 35.0034 35.3101 34.85 35.2168 34.75C35.1301 34.65 35.0168 34.5834 34.8768 34.55C34.7435 34.5167 34.6068 34.5 34.4668 34.5C34.1001 34.5 33.7968 34.57 33.5568 34.71C33.3235 34.8434 33.1201 35.0167 32.9468 35.23L32.4168 34.7C32.6235 34.4334 32.9035 34.2167 33.2568 34.05C33.6168 33.8834 34.0435 33.8 34.5368 33.8C34.9701 33.8 35.3101 33.8634 35.5568 33.99C35.8101 34.1167 35.9868 34.28 36.0868 34.48C36.1935 34.6734 36.2468 34.88 36.2468 35.1C36.2468 35.4734 36.1301 35.7634 35.8968 35.97C35.6701 36.17 35.3401 36.27 34.9068 36.27C35.2468 36.27 35.5368 36.32 35.7768 36.42C36.0168 36.5134 36.2001 36.6534 36.3268 36.84C36.4535 37.02 36.5168 37.2434 36.5168 37.51C36.5168 37.8167 36.4335 38.1 36.2668 38.36C36.1068 38.6134 35.8701 38.8167 35.5568 38.97C35.2435 39.1234 34.8568 39.2 34.3968 39.2Z" fill="#1E1E1E"/>
<path d="M23.1379 34H24.0379V38.3H25.1579C25.5379 38.3 25.7979 38.2133 25.9379 38.04C26.0845 37.8667 26.1579 37.6267 26.1579 37.32C26.1579 37.02 26.0979 36.7833 25.9779 36.61C25.8645 36.4367 25.6445 36.35 25.3179 36.35H23.3879V35.65H25.2679C25.8612 35.65 26.3079 35.7933 26.6079 36.08C26.9079 36.3667 27.0579 36.7667 27.0579 37.28C27.0579 37.8067 26.9112 38.2267 26.6179 38.54C26.3312 38.8467 25.9079 39 25.3479 39H23.1379V34ZM28.1679 34H29.0679V39H28.1679V34Z" fill="#1E1E1E"/>
<path d="M16.88 32H19.32C19.7533 32 20.1233 32.07 20.43 32.21C20.7367 32.3433 20.97 32.54 21.13 32.8C21.2967 33.06 21.38 33.3733 21.38 33.74C21.38 34.2467 21.2167 34.63 20.89 34.89C20.5633 35.15 20.0833 35.28 19.45 35.28C19.9633 35.28 20.3967 35.3467 20.75 35.48C21.11 35.6133 21.38 35.81 21.56 36.07C21.7467 36.33 21.84 36.6533 21.84 37.04C21.84 37.4467 21.74 37.7967 21.54 38.09C21.3467 38.3833 21.08 38.61 20.74 38.77C20.4 38.9233 20.0067 39 19.56 39H16.88V32ZM19.27 38.2C19.87 38.2 20.2967 38.09 20.55 37.87C20.8033 37.6433 20.93 37.33 20.93 36.93C20.93 36.53 20.8033 36.2267 20.55 36.02C20.3033 35.8067 19.88 35.7 19.28 35.7H17V34.94H19.17C19.6167 34.94 19.9433 34.8367 20.15 34.63C20.3633 34.4233 20.47 34.1467 20.47 33.8C20.47 33.4533 20.3667 33.2 20.16 33.04C19.9533 32.88 19.6233 32.8 19.17 32.8H17.78V38.2H19.27Z" fill="#1E1E1E"/>
<path d="M76 8L68.1488 20L64 15.7317" stroke="#4CB542" stroke-width="2" stroke-linecap="round" stroke-linejoin="round"/>
<path d="M77.1636 15.5C77.6255 15.5 78.0038 15.8752 77.9632 16.3353C77.8137 18.0288 77.2118 19.6568 76.2135 21.0455C75.0519 22.6612 73.4122 23.8714 71.5258 24.5052C69.6395 25.1391 67.6018 25.1645 65.7002 24.578C63.7986 23.9916 62.1292 22.8227 60.9275 21.2365C59.7259 19.6503 59.0527 17.7268 59.003 15.7374C58.9532 13.7481 59.5295 11.7933 60.6503 10.149C61.7712 8.50476 63.3801 7.25398 65.25 6.5732C66.8571 5.98811 68.5873 5.84945 70.258 6.16407C70.7119 6.24955 70.9707 6.71529 70.8456 7.15996C70.7206 7.60462 70.2589 7.85897 69.8035 7.78204C68.4721 7.55718 67.1 7.67986 65.8223 8.14503C64.2816 8.70593 62.956 9.73648 62.0325 11.0912C61.109 12.446 60.6342 14.0566 60.6752 15.6956C60.7162 17.3347 61.2708 18.9195 62.2609 20.2264C63.2509 21.5333 64.6264 22.4964 66.1932 22.9796C67.7599 23.4628 69.4389 23.4418 70.9931 22.9196C72.5472 22.3974 73.8982 21.4003 74.8553 20.069C75.649 18.965 76.1386 17.6774 76.2826 16.3348C76.3319 15.8755 76.7017 15.5 77.1636 15.5Z" fill="#4CB542"/>
</svg>
