<svg width="134" height="62" viewBox="0 0 134 62" fill="none" xmlns="http://www.w3.org/2000/svg">
<path d="M71.2806 9.21937C71.3504 9.28903 71.4057 9.37175 71.4434 9.46279C71.4812 9.55384 71.5006 9.65144 71.5006 9.75C71.5006 9.84856 71.4812 9.94616 71.4434 10.0372C71.4057 10.1283 71.3504 10.211 71.2806 10.2806L66.0306 15.5306C65.961 15.6004 65.8783 15.6557 65.7872 15.6934C65.6962 15.7312 65.5986 15.7506 65.5 15.7506C65.4014 15.7506 65.3038 15.7312 65.2128 15.6934C65.1218 15.6557 65.039 15.6004 64.9694 15.5306L62.7194 13.2806C62.5786 13.1399 62.4996 12.949 62.4996 12.75C62.4996 12.551 62.5786 12.3601 62.7194 12.2194C62.8601 12.0786 63.051 11.9996 63.25 11.9996C63.449 11.9996 63.6399 12.0786 63.7806 12.2194L65.5 13.9397L70.2194 9.21937C70.289 9.14964 70.3718 9.09432 70.4628 9.05658C70.5538 9.01884 70.6514 8.99941 70.75 8.99941C70.8486 8.99941 70.9462 9.01884 71.0372 9.05658C71.1283 9.09432 71.211 9.14964 71.2806 9.21937ZM76.75 12C76.75 13.9284 76.1782 15.8134 75.1068 17.4168C74.0355 19.0202 72.5127 20.2699 70.7312 21.0078C68.9496 21.7458 66.9892 21.9389 65.0979 21.5627C63.2066 21.1865 61.4693 20.2579 60.1057 18.8943C58.7422 17.5307 57.8136 15.7934 57.4373 13.9021C57.0611 12.0108 57.2542 10.0504 57.9922 8.26884C58.7301 6.48726 59.9798 4.96452 61.5832 3.89317C63.1866 2.82183 65.0716 2.25 67 2.25C69.585 2.25273 72.0634 3.28084 73.8913 5.10872C75.7192 6.93661 76.7473 9.41498 76.75 12ZM75.25 12C75.25 10.3683 74.7662 8.77325 73.8596 7.41655C72.9531 6.05984 71.6646 5.00242 70.1571 4.37799C68.6497 3.75357 66.9909 3.59019 65.3905 3.90852C63.7902 4.22685 62.3202 5.01259 61.1664 6.16637C60.0126 7.32015 59.2269 8.79016 58.9085 10.3905C58.5902 11.9908 58.7536 13.6496 59.378 15.1571C60.0024 16.6646 61.0598 17.9531 62.4165 18.8596C63.7733 19.7661 65.3683 20.25 67 20.25C69.1873 20.2475 71.2843 19.3775 72.8309 17.8309C74.3775 16.2843 75.2475 14.1873 75.25 12Z" fill="#4CB542"/>
<path d="M87.6814 31.2H91.1394C91.8767 31.2 92.5161 31.3353 93.0574 31.606C93.6081 31.8766 94.0281 32.264 94.3174 32.768C94.6161 33.272 94.7654 33.8693 94.7654 34.56C94.7654 35.2226 94.6207 35.7966 94.3314 36.282C94.0514 36.7673 93.6454 37.1406 93.1134 37.402C92.5814 37.654 91.9467 37.78 91.2094 37.78H86.1834V36.436H91.1114C91.8021 36.436 92.3154 36.2773 92.6514 35.96C92.9874 35.6333 93.1554 35.1433 93.1554 34.49C93.1554 33.818 92.9781 33.3233 92.6234 33.006C92.2781 32.6886 91.7554 32.53 91.0554 32.53H89.2914V41H87.6814V31.2ZM86.1834 38.942H93.8974V39.642H86.1834V38.942Z" fill="#080717"/>
<path d="M78.1486 41.266C76.9539 41.266 76.0439 40.8274 75.4186 39.95C74.7933 39.0634 74.4806 37.7987 74.4806 36.156C74.4806 34.476 74.8026 33.1834 75.4466 32.278C76.0906 31.3727 77.0099 30.92 78.2046 30.92C79.3713 30.92 80.2533 31.3587 80.8506 32.236C81.4479 33.1134 81.7466 34.4014 81.7466 36.1C81.7466 37.808 81.4433 39.096 80.8366 39.964C80.2299 40.832 79.3339 41.266 78.1486 41.266ZM78.1346 39.936C78.7786 39.936 79.2733 39.6234 79.6186 38.998C79.9639 38.3634 80.1366 37.388 80.1366 36.072C80.1366 35.1667 80.0573 34.434 79.8986 33.874C79.7493 33.314 79.5253 32.9034 79.2266 32.642C78.9373 32.3807 78.5826 32.25 78.1626 32.25C77.7333 32.25 77.3646 32.3854 77.0566 32.656C76.7486 32.9267 76.5106 33.3467 76.3426 33.916C76.1746 34.4854 76.0906 35.2227 76.0906 36.128C76.0906 37.4067 76.2679 38.3634 76.6226 38.998C76.9773 39.6234 77.4813 39.936 78.1346 39.936Z" fill="#080717"/>
<path d="M69.3713 41.266C68.1766 41.266 67.2666 40.8274 66.6413 39.95C66.0159 39.0634 65.7033 37.7987 65.7033 36.156C65.7033 34.476 66.0253 33.1834 66.6693 32.278C67.3133 31.3727 68.2326 30.92 69.4273 30.92C70.5939 30.92 71.4759 31.3587 72.0733 32.236C72.6706 33.1134 72.9693 34.4014 72.9693 36.1C72.9693 37.808 72.6659 39.096 72.0593 39.964C71.4526 40.832 70.5566 41.266 69.3713 41.266ZM69.3573 39.936C70.0013 39.936 70.4959 39.6234 70.8413 38.998C71.1866 38.3634 71.3593 37.388 71.3593 36.072C71.3593 35.1667 71.2799 34.434 71.1213 33.874C70.9719 33.314 70.7479 32.9034 70.4493 32.642C70.1599 32.3807 69.8053 32.25 69.3853 32.25C68.9559 32.25 68.5873 32.3854 68.2793 32.656C67.9713 32.9267 67.7333 33.3467 67.5653 33.916C67.3973 34.4854 67.3133 35.2227 67.3133 36.128C67.3133 37.4067 67.4906 38.3634 67.8453 38.998C68.1999 39.6234 68.7039 39.936 69.3573 39.936Z" fill="#080717"/>
<path d="M60.5939 41.266C59.3993 41.266 58.4893 40.8274 57.8639 39.95C57.2386 39.0634 56.9259 37.7987 56.9259 36.156C56.9259 34.476 57.2479 33.1834 57.8919 32.278C58.5359 31.3727 59.4553 30.92 60.6499 30.92C61.8166 30.92 62.6986 31.3587 63.2959 32.236C63.8933 33.1134 64.1919 34.4014 64.1919 36.1C64.1919 37.808 63.8886 39.096 63.2819 39.964C62.6753 40.832 61.7793 41.266 60.5939 41.266ZM60.5799 39.936C61.2239 39.936 61.7186 39.6234 62.0639 38.998C62.4093 38.3634 62.5819 37.388 62.5819 36.072C62.5819 35.1667 62.5026 34.434 62.3439 33.874C62.1946 33.314 61.9706 32.9034 61.6719 32.642C61.3826 32.3807 61.0279 32.25 60.6079 32.25C60.1786 32.25 59.8099 32.3854 59.5019 32.656C59.1939 32.9267 58.9559 33.3467 58.7879 33.916C58.6199 34.4854 58.5359 35.2227 58.5359 36.128C58.5359 37.4067 58.7133 38.3634 59.0679 38.998C59.4226 39.6234 59.9266 39.936 60.5799 39.936Z" fill="#080717"/>
<path d="M45.4348 38.536C46.2934 38.2934 47.0401 38.0274 47.6748 37.738C48.3188 37.4394 48.8508 37.1127 49.2708 36.758C49.6908 36.4034 50.0034 36.016 50.2088 35.596C50.4234 35.176 50.5308 34.7234 50.5308 34.238C50.5308 33.7527 50.4421 33.3654 50.2648 33.076C50.0968 32.7867 49.8634 32.5767 49.5648 32.446C49.2754 32.3154 48.9581 32.25 48.6128 32.25C48.1928 32.25 47.8054 32.3294 47.4508 32.488C47.1054 32.6467 46.7974 32.8567 46.5268 33.118L45.5328 32.124C45.7474 31.9094 46.0088 31.7134 46.3168 31.536C46.6341 31.3494 46.9934 31.2 47.3948 31.088C47.8054 30.976 48.2534 30.92 48.7388 30.92C49.8028 30.92 50.6334 31.2094 51.2308 31.788C51.8374 32.3667 52.1408 33.1927 52.1408 34.266C52.1408 34.9194 52.0101 35.5214 51.7488 36.072C51.4968 36.6134 51.1001 37.108 50.5588 37.556C50.0268 38.004 49.3361 38.4194 48.4868 38.802C47.6374 39.1754 46.6201 39.53 45.4348 39.866V38.536ZM45.4348 39.67H52.1408V41H45.4348V39.67Z" fill="#080717"/>
<path d="M41.528 33.608C41.304 33.86 41.0753 34.084 40.842 34.28C40.618 34.4666 40.324 34.6346 39.96 34.784C39.6053 34.924 39.12 35.064 38.504 35.204V33.79C39.26 33.65 39.89 33.3466 40.394 32.88C40.9073 32.404 41.3413 31.844 41.696 31.2H43.138V41H41.528V33.608Z" fill="#080717"/>
<path d="M128.85 53H129.75V55.05H132.28V53H133.18V58H132.28V55.85H129.75V58H128.85V53Z" fill="black" fill-opacity="0.52"/>
<path d="M125.262 58.2C124.795 58.2 124.385 58.1 124.032 57.9C123.685 57.6934 123.412 57.39 123.212 56.99C123.018 56.5834 122.922 56.0834 122.922 55.49C122.922 54.61 123.125 53.9434 123.532 53.49C123.938 53.03 124.502 52.8 125.222 52.8C125.715 52.8 126.135 52.91 126.482 53.13C126.828 53.3434 127.085 53.66 127.252 54.08C127.425 54.5 127.492 55.0167 127.452 55.63H123.822C123.822 56.17 123.938 56.6167 124.172 56.97C124.412 57.3234 124.778 57.5 125.272 57.5C125.558 57.5 125.822 57.4367 126.062 57.31C126.302 57.1834 126.508 57.0034 126.682 56.77L127.212 57.3C127.012 57.5667 126.745 57.7834 126.412 57.95C126.085 58.1167 125.702 58.2 125.262 58.2ZM123.862 55.04H126.522C126.475 54.5267 126.338 54.1434 126.112 53.89C125.885 53.63 125.588 53.5 125.222 53.5C124.855 53.5 124.548 53.63 124.302 53.89C124.055 54.1434 123.908 54.5267 123.862 55.04Z" fill="black" fill-opacity="0.52"/>
<path d="M114.558 53H115.458V57.2H117.608V53H118.508V57.2H120.648V53H121.548V58H114.558V53Z" fill="black" fill-opacity="0.52"/>
<path d="M108.461 53H109.361V60H108.461V53ZM111.001 58.2C110.601 58.2 110.261 58.0734 109.981 57.82C109.708 57.5667 109.498 57.23 109.351 56.81C109.211 56.39 109.141 55.9367 109.141 55.45C109.141 54.9567 109.214 54.51 109.361 54.11C109.514 53.71 109.734 53.3934 110.021 53.16C110.308 52.92 110.654 52.8 111.061 52.8C111.548 52.8 111.954 52.9134 112.281 53.14C112.608 53.3667 112.854 53.68 113.021 54.08C113.194 54.4734 113.281 54.93 113.281 55.45C113.281 55.97 113.188 56.4367 113.001 56.85C112.821 57.2634 112.561 57.5934 112.221 57.84C111.881 58.08 111.474 58.2 111.001 58.2ZM110.911 57.5C111.364 57.5 111.721 57.3134 111.981 56.94C112.248 56.5667 112.381 56.0667 112.381 55.44C112.381 54.8267 112.251 54.35 111.991 54.01C111.738 53.67 111.381 53.5 110.921 53.5C110.621 53.5 110.351 53.5834 110.111 53.75C109.878 53.9167 109.694 54.1467 109.561 54.44C109.428 54.7267 109.361 55.0567 109.361 55.43C109.361 55.8167 109.424 56.1667 109.551 56.48C109.684 56.7934 109.868 57.0434 110.101 57.23C110.334 57.41 110.604 57.5 110.911 57.5Z" fill="black" fill-opacity="0.52"/>
<path d="M104.903 58.2C104.436 58.2 104.026 58.1 103.673 57.9C103.326 57.6934 103.053 57.39 102.853 56.99C102.66 56.5834 102.563 56.0834 102.563 55.49C102.563 54.61 102.766 53.9434 103.173 53.49C103.58 53.03 104.143 52.8 104.863 52.8C105.356 52.8 105.776 52.91 106.123 53.13C106.47 53.3434 106.726 53.66 106.893 54.08C107.066 54.5 107.133 55.0167 107.093 55.63H103.463C103.463 56.17 103.58 56.6167 103.813 56.97C104.053 57.3234 104.42 57.5 104.913 57.5C105.2 57.5 105.463 57.4367 105.703 57.31C105.943 57.1834 106.15 57.0034 106.323 56.77L106.853 57.3C106.653 57.5667 106.386 57.7834 106.053 57.95C105.726 58.1167 105.343 58.2 104.903 58.2ZM103.503 55.04H106.163C106.116 54.5267 105.98 54.1434 105.753 53.89C105.526 53.63 105.23 53.5 104.863 53.5C104.496 53.5 104.19 53.63 103.943 53.89C103.696 54.1434 103.55 54.5267 103.503 55.04Z" fill="black" fill-opacity="0.52"/>
<path d="M97.4316 53H99.5216C100.162 53 100.615 53.09 100.882 53.27C101.155 53.45 101.292 53.75 101.292 54.17C101.292 54.5167 101.198 54.7767 101.012 54.95C100.832 55.1233 100.518 55.2567 100.072 55.35C100.592 55.3767 100.975 55.4967 101.222 55.71C101.468 55.9233 101.592 56.2367 101.592 56.65C101.592 56.95 101.525 57.2 101.392 57.4C101.258 57.6 101.052 57.75 100.772 57.85C100.492 57.95 100.128 58 99.6816 58H97.4316V53ZM99.3516 55.16C99.6783 55.16 99.9316 55.0967 100.112 54.97C100.298 54.8433 100.392 54.6533 100.392 54.4C100.392 54.1533 100.302 53.9767 100.122 53.87C99.9483 53.7567 99.6983 53.7 99.3716 53.7H98.3316V55.16H99.3516ZM99.5416 57.3C99.9283 57.3 100.215 57.2333 100.402 57.1C100.595 56.9667 100.692 56.77 100.692 56.51C100.692 56.2433 100.595 56.0567 100.402 55.95C100.208 55.8367 99.9183 55.78 99.5316 55.78H98.3316V57.3H99.5416Z" fill="black" fill-opacity="0.52"/>
<path d="M93.1146 58.2C92.6546 58.2 92.2579 58.0834 91.9246 57.85C91.5913 57.6167 91.3346 57.2934 91.1546 56.88C90.9746 56.4667 90.8846 55.9934 90.8846 55.46C90.8846 54.9534 90.9679 54.5 91.1346 54.1C91.3013 53.7 91.5413 53.3834 91.8546 53.15C92.1746 52.9167 92.5646 52.8 93.0246 52.8C93.6713 52.8 94.1646 53.0367 94.5046 53.51C94.8513 53.9767 95.0246 54.6467 95.0246 55.52C95.0246 56.3667 94.8613 57.0267 94.5346 57.5C94.2079 57.9667 93.7346 58.2 93.1146 58.2ZM93.2446 57.5C93.5579 57.5 93.8313 57.41 94.0646 57.23C94.2979 57.05 94.4779 56.8067 94.6046 56.5C94.7379 56.1934 94.8046 55.8467 94.8046 55.46C94.8046 55.0734 94.7379 54.7334 94.6046 54.44C94.4713 54.1467 94.2846 53.9167 94.0446 53.75C93.8046 53.5834 93.5279 53.5 93.2146 53.5C92.7679 53.5 92.4179 53.6734 92.1646 54.02C91.9113 54.36 91.7846 54.83 91.7846 55.43C91.7846 56.0567 91.9146 56.56 92.1746 56.94C92.4413 57.3134 92.7979 57.5 93.2446 57.5ZM94.8046 58V53H95.7046V58H94.8046Z" fill="black" fill-opacity="0.52"/>
<path d="M87.9534 58.2C87.4734 58.2 87.0668 58.11 86.7334 57.93C86.4001 57.75 86.1201 57.5 85.8934 57.18L86.4234 56.65C86.5901 56.9367 86.7901 57.15 87.0234 57.29C87.2634 57.43 87.5568 57.5 87.9034 57.5C88.2701 57.5 88.5734 57.42 88.8134 57.26C89.0601 57.1 89.1834 56.8534 89.1834 56.52C89.1834 56.3 89.1201 56.12 88.9934 55.98C88.8668 55.84 88.6701 55.74 88.4034 55.68C88.1368 55.62 87.7934 55.6034 87.3734 55.63V55.04C87.9534 55.0067 88.3534 54.93 88.5734 54.81C88.8001 54.6834 88.9134 54.4834 88.9134 54.21C88.9134 54.0034 88.8668 53.85 88.7734 53.75C88.6868 53.65 88.5734 53.5834 88.4334 53.55C88.3001 53.5167 88.1634 53.5 88.0234 53.5C87.6568 53.5 87.3534 53.57 87.1134 53.71C86.8801 53.8434 86.6768 54.0167 86.5034 54.23L85.9734 53.7C86.1801 53.4334 86.4601 53.2167 86.8134 53.05C87.1734 52.8834 87.6001 52.8 88.0934 52.8C88.5268 52.8 88.8668 52.8634 89.1134 52.99C89.3668 53.1167 89.5434 53.28 89.6434 53.48C89.7501 53.6734 89.8034 53.88 89.8034 54.1C89.8034 54.4734 89.6868 54.7634 89.4534 54.97C89.2268 55.17 88.8968 55.27 88.4634 55.27C88.8034 55.27 89.0934 55.32 89.3334 55.42C89.5734 55.5134 89.7568 55.6534 89.8834 55.84C90.0101 56.02 90.0734 56.2434 90.0734 56.51C90.0734 56.8167 89.9901 57.1 89.8234 57.36C89.6634 57.6134 89.4268 57.8167 89.1134 57.97C88.8001 58.1234 88.4134 58.2 87.9534 58.2Z" fill="black" fill-opacity="0.52"/>
<path d="M80.2726 58.2C79.7659 58.2 79.3359 58.0934 78.9826 57.88C78.6293 57.6667 78.3593 57.3567 78.1726 56.95C77.9926 56.5367 77.9026 56.0367 77.9026 55.45C77.9026 54.8967 77.9926 54.4234 78.1726 54.03C78.3593 53.63 78.6293 53.3267 78.9826 53.12C79.3426 52.9067 79.7759 52.8 80.2826 52.8C81.1026 52.8 81.7193 53.0334 82.1326 53.5C82.5526 53.9667 82.7626 54.6167 82.7626 55.45C82.7626 56.33 82.5526 57.01 82.1326 57.49C81.7126 57.9634 81.0926 58.2 80.2726 58.2ZM80.2926 57.5C80.8259 57.5 81.2193 57.3334 81.4726 57C81.7326 56.6667 81.8626 56.1567 81.8626 55.47C81.8626 54.8167 81.7326 54.3267 81.4726 54C81.2193 53.6667 80.8326 53.5 80.3126 53.5C79.7993 53.5 79.4193 53.66 79.1726 53.98C78.9259 54.2934 78.8026 54.7834 78.8026 55.45C78.8026 56.13 78.9259 56.6434 79.1726 56.99C79.4193 57.33 79.7926 57.5 80.2926 57.5Z" fill="black" fill-opacity="0.52"/>
<path d="M72.2148 53H73.1148V55.05H75.6448V53H76.5448V58H75.6448V55.85H73.1148V58H72.2148V53Z" fill="black" fill-opacity="0.52"/>
<path d="M63.5211 53H64.4211V57.2H66.5711V53H67.4711V57.2H69.6111V53H70.5111V58H63.5211V53Z" fill="black" fill-opacity="0.52"/>
<path d="M59.933 58.2C59.4664 58.2 59.0564 58.1 58.703 57.9C58.3564 57.6934 58.083 57.39 57.883 56.99C57.6897 56.5834 57.593 56.0834 57.593 55.49C57.593 54.61 57.7964 53.9434 58.203 53.49C58.6097 53.03 59.173 52.8 59.893 52.8C60.3864 52.8 60.8064 52.91 61.153 53.13C61.4997 53.3434 61.7564 53.66 61.923 54.08C62.0964 54.5 62.163 55.0167 62.123 55.63H58.493C58.493 56.17 58.6097 56.6167 58.843 56.97C59.083 57.3234 59.4497 57.5 59.943 57.5C60.2297 57.5 60.493 57.4367 60.733 57.31C60.973 57.1834 61.1797 57.0034 61.353 56.77L61.883 57.3C61.683 57.5667 61.4164 57.7834 61.083 57.95C60.7564 58.1167 60.373 58.2 59.933 58.2ZM58.533 55.04H61.193C61.1464 54.5267 61.0097 54.1434 60.783 53.89C60.5564 53.63 60.2597 53.5 59.893 53.5C59.5264 53.5 59.2197 53.63 58.973 53.89C58.7264 54.1434 58.5797 54.5267 58.533 55.04Z" fill="black" fill-opacity="0.52"/>
<path d="M51.7414 53H56.1214V58H55.2214V53.8H52.6414V58H51.7414V53Z" fill="black" fill-opacity="0.52"/>
<path d="M50.4626 57.3C50.2559 57.5667 49.9759 57.7834 49.6226 57.95C49.2759 58.1167 48.8726 58.2 48.4126 58.2C47.6926 58.2 47.1359 57.9634 46.7426 57.49C46.3492 57.01 46.1526 56.33 46.1526 55.45C46.1526 54.6167 46.3459 53.9667 46.7326 53.5C47.1259 53.0334 47.6826 52.8 48.4026 52.8C48.8492 52.8 49.2426 52.8834 49.5826 53.05C49.9226 53.2167 50.1959 53.4334 50.4026 53.7L49.8726 54.23C49.6926 53.9967 49.4759 53.8167 49.2226 53.69C48.9759 53.5634 48.7126 53.5 48.4326 53.5C47.9659 53.5 47.6192 53.66 47.3926 53.98C47.1659 54.2934 47.0526 54.7834 47.0526 55.45C47.0526 56.13 47.1659 56.6434 47.3926 56.99C47.6192 57.33 47.9592 57.5 48.4126 57.5C48.7059 57.5 48.9859 57.4367 49.2526 57.31C49.5259 57.1834 49.7526 57.0034 49.9326 56.77L50.4626 57.3Z" fill="black" fill-opacity="0.52"/>
<path d="M41.0089 59.36C41.1356 59.4067 41.2689 59.4433 41.4089 59.47C41.5556 59.4967 41.6722 59.51 41.7589 59.51C41.9056 59.51 42.0289 59.4733 42.1289 59.4C42.2356 59.3267 42.3256 59.22 42.3989 59.08C42.4789 58.9467 42.5522 58.78 42.6189 58.58L44.4389 53H45.3889L43.3989 58.78C43.2922 59.0867 43.1756 59.3467 43.0489 59.56C42.9222 59.7733 42.7689 59.9333 42.5889 60.04C42.4089 60.1533 42.1822 60.21 41.9089 60.21C41.7222 60.21 41.5722 60.2 41.4589 60.18C41.3456 60.16 41.2389 60.1333 41.1389 60.1C41.0456 60.0667 40.9289 60.0267 40.7889 59.98L41.0089 59.36ZM40.5289 53H41.4789L43.0989 58H42.2489L40.5289 53Z" fill="black" fill-opacity="0.52"/>
<path d="M36.7639 58L35.7239 55.66H33.6039V55.01H35.7639L36.6939 53H37.6439L36.3839 55.37L37.7839 58H36.7639ZM29.7439 58L31.1439 55.37L29.8839 53H30.8339L31.7639 55.01H33.8739V55.66H31.8039L30.7639 58H29.7439ZM33.3139 58V53H34.2139V58H33.3139Z" fill="black" fill-opacity="0.52"/>
<path d="M27.1162 58.2C26.6496 58.2 26.2396 58.1 25.8862 57.9C25.5396 57.6934 25.2662 57.39 25.0662 56.99C24.8729 56.5834 24.7762 56.0834 24.7762 55.49C24.7762 54.61 24.9796 53.9434 25.3862 53.49C25.7929 53.03 26.3562 52.8 27.0762 52.8C27.5696 52.8 27.9896 52.91 28.3362 53.13C28.6829 53.3434 28.9396 53.66 29.1062 54.08C29.2796 54.5 29.3462 55.0167 29.3062 55.63H25.6762C25.6762 56.17 25.7929 56.6167 26.0262 56.97C26.2662 57.3234 26.6329 57.5 27.1262 57.5C27.4129 57.5 27.6762 57.4367 27.9162 57.31C28.1562 57.1834 28.3629 57.0034 28.5362 56.77L29.0662 57.3C28.8662 57.5667 28.5996 57.7834 28.2662 57.95C27.9396 58.1167 27.5562 58.2 27.1162 58.2ZM25.7162 55.04H28.3762C28.3296 54.5267 28.1929 54.1434 27.9662 53.89C27.7396 53.63 27.4429 53.5 27.0762 53.5C26.7096 53.5 26.4029 53.63 26.1562 53.89C25.9096 54.1434 25.7629 54.5267 25.7162 55.04Z" fill="black" fill-opacity="0.52"/>
<path d="M21.1323 53.7H19.3723V53H23.7823V53.7H22.0323V58H21.1323V53.7Z" fill="black" fill-opacity="0.52"/>
<path d="M15.4353 58.2C14.9753 58.2 14.5786 58.0834 14.2453 57.85C13.912 57.6167 13.6553 57.2934 13.4753 56.88C13.2953 56.4667 13.2053 55.9934 13.2053 55.46C13.2053 54.9534 13.2886 54.5 13.4553 54.1C13.622 53.7 13.862 53.3834 14.1753 53.15C14.4953 52.9167 14.8853 52.8 15.3453 52.8C15.992 52.8 16.4853 53.0367 16.8253 53.51C17.172 53.9767 17.3453 54.6467 17.3453 55.52C17.3453 56.3667 17.182 57.0267 16.8553 57.5C16.5286 57.9667 16.0553 58.2 15.4353 58.2ZM15.5653 57.5C15.8786 57.5 16.152 57.41 16.3853 57.23C16.6186 57.05 16.7986 56.8067 16.9253 56.5C17.0586 56.1934 17.1253 55.8467 17.1253 55.46C17.1253 55.0734 17.0586 54.7334 16.9253 54.44C16.792 54.1467 16.6053 53.9167 16.3653 53.75C16.1253 53.5834 15.8486 53.5 15.5353 53.5C15.0886 53.5 14.7386 53.6734 14.4853 54.02C14.232 54.36 14.1053 54.83 14.1053 55.43C14.1053 56.0567 14.2353 56.56 14.4953 56.94C14.762 57.3134 15.1186 57.5 15.5653 57.5ZM17.1253 58V53H18.0253V58H17.1253Z" fill="black" fill-opacity="0.52"/>
<path d="M7.26687 57.47C7.32021 57.4767 7.36687 57.4833 7.40687 57.49C7.44687 57.4967 7.48687 57.5 7.52687 57.5C7.72687 57.5 7.87021 57.3567 7.95687 57.07C8.05021 56.7767 8.10687 56.3033 8.12687 55.65C8.14687 54.99 8.15687 54.1067 8.15687 53H11.9669V58H11.0669V53.8H9.05687C9.05687 54.7 9.03687 55.4367 8.99687 56.01C8.95687 56.5833 8.88354 57.03 8.77687 57.35C8.67021 57.6633 8.51354 57.8833 8.30687 58.01C8.10687 58.1367 7.84021 58.2 7.50687 58.2C7.46021 58.2 7.40021 58.1933 7.32687 58.18C7.25354 58.1733 7.18021 58.1667 7.10687 58.16L7.26687 57.47Z" fill="black" fill-opacity="0.52"/>
<path d="M0.869995 51H5.93V58H5.03V51.8H1.77V58H0.869995V51Z" fill="black" fill-opacity="0.52"/>
</svg>
