<svg width="65" height="54" viewBox="0 0 65 54" fill="none" xmlns="http://www.w3.org/2000/svg">
<g clip-path="url(#clip0_812_2837)">
<path d="M-42.4531 -24.29H65V81.9033H-42.4531V-24.29Z" fill="#F7F7F7"/>
<path d="M21.7148 11.8277C21.7221 9.77613 22.1211 8.29886 23.6091 6.80106C25.5518 4.8455 27.4979 5.0947 29.9775 5.09968L33.6531 5.10103C36.7521 5.12799 39.2647 7.24273 39.6968 10.3102C39.7661 10.8019 39.7714 11.2665 39.7651 11.762L39.7625 11.9217C40.1198 11.9122 41.0421 11.7665 41.0183 12.3123C41.0117 12.4639 40.9843 12.6367 40.8808 12.7536L40.7313 12.813L40.754 12.8889L49.4249 12.9564C50.6365 12.9705 51.8776 12.9846 53.0918 12.9907C53.2912 12.9917 53.3151 12.9915 53.4211 13.0945C53.5236 13.4011 53.4851 13.7692 53.4847 14.1086C53.7442 14.113 54.0351 14.1104 54.291 14.1342C54.357 14.9352 54.3248 15.8394 54.3195 16.6491C54.3009 19.4665 54.5286 22.3004 54.7557 25.1075L55.6198 36.1597L55.9349 39.8455C56.0514 41.2223 56.3807 42.9681 55.3884 44.0666C53.8979 45.7167 51.2975 45.4418 49.3365 45.4842C46.8427 45.5383 44.3409 45.4185 41.8843 45.5041C41.1882 46.4571 35.6042 47.4766 34.2046 47.5835C30.9265 47.8169 27.634 47.4087 24.5157 46.3825C23.9303 46.1903 23.0002 45.8834 22.5415 45.4938C21.4822 45.4441 20.0263 45.4894 18.9388 45.4906L11.8633 45.4889C10.6686 45.4846 8.20055 45.6422 7.21186 45.1715C6.34226 44.7498 5.67729 44.0045 5.3629 43.099C5.07192 42.253 5.50803 38.3774 5.5968 37.2352C5.86239 33.9559 6.16188 30.6795 6.49515 27.4063C6.68697 25.4402 6.90691 23.4907 7.04522 21.5163C7.16086 19.6574 7.23756 17.7963 7.27555 15.9344C7.28531 15.556 7.22508 14.2105 7.35887 13.9371C7.50809 13.8072 7.67105 13.8576 7.74104 13.8398C8.05007 13.7613 7.74429 13.1655 8.16603 12.7381C8.80707 12.5475 11.8655 12.6592 12.7045 12.6664C15.1992 12.6743 17.6939 12.6985 20.1884 12.7391L20.1462 12.6416C20.1504 12.3905 20.1484 12.0921 20.1607 11.8449C20.6731 11.8099 21.2001 11.8236 21.7148 11.8277Z" fill="#1B1A1B"/>
<path d="M21.715 11.8277C21.7224 9.77613 22.1214 8.29886 23.6093 6.80106C25.5521 4.8455 27.4982 5.0947 29.9778 5.09968L33.6534 5.10103C36.7524 5.12799 39.265 7.24273 39.6971 10.3102C39.7663 10.8019 39.7717 11.2665 39.7654 11.762L39.7628 11.9217C40.1201 11.9122 41.0423 11.7665 41.0186 12.3123C41.012 12.4639 40.9846 12.6367 40.8811 12.7536L40.7315 12.813C40.387 12.7229 36.8988 12.7179 36.5178 12.7711L36.5001 12.8577C35.2548 12.8153 33.7988 12.8454 32.5388 12.8407L24.9661 12.7945C23.5062 12.7884 21.6071 12.8296 20.1887 12.7391L20.1465 12.6416C20.1507 12.3905 20.1487 12.0921 20.161 11.8449C20.6734 11.8099 21.2003 11.8236 21.715 11.8277Z" fill="#F7F7F7"/>
<path d="M21.715 11.8277C21.7224 9.77613 22.1214 8.29886 23.6093 6.80106C25.5521 4.8455 27.4982 5.0947 29.9778 5.09968L33.6534 5.10103C36.7524 5.12799 39.265 7.24273 39.6971 10.3102C39.7663 10.8019 39.7717 11.2665 39.7654 11.762L39.7628 11.9217C40.1201 11.9122 41.0423 11.7665 41.0186 12.3123C41.012 12.4639 40.9846 12.6367 40.8811 12.7536L40.7315 12.813C40.387 12.7229 36.8988 12.7179 36.5178 12.7711C36.3987 12.5704 36.3354 12.2846 36.4625 12.0759C36.7523 11.8473 37.2227 11.9212 37.6069 11.9313C37.6165 10.5655 37.4571 9.52392 36.4632 8.48158C35.7069 7.69436 34.6363 7.2867 33.5479 7.28878C31.9142 7.29189 30.2887 7.28598 28.6561 7.28546C28.0676 7.28536 27.4884 7.27218 26.9139 7.4127C26.2394 7.57687 25.6217 7.9165 25.1249 8.39634C24.1175 9.38817 23.9615 10.4801 23.9571 11.8103C24.6939 11.7882 25.3303 11.6648 24.9843 12.6454L24.9661 12.7945C23.5062 12.7884 21.6071 12.8296 20.1887 12.7391L20.1465 12.6416C20.1507 12.3905 20.1487 12.0921 20.161 11.8449C20.6734 11.8099 21.2003 11.8236 21.715 11.8277Z" fill="#1B1A1B"/>
<path d="M20.1465 12.6416L23.2159 12.6649C23.6989 12.6685 24.5301 12.6961 24.9843 12.6454L24.9661 12.7946C23.5062 12.7884 21.6071 12.8296 20.1887 12.7391L20.1465 12.6416Z" fill="#B3B3B9"/>
<path d="M27.5026 5.44436C29.5017 5.41087 31.526 5.46853 33.5203 5.44343C35.8094 5.4146 37.8177 6.59496 38.8295 8.6312C39.3725 9.72404 39.4115 10.7509 39.3949 11.9402C38.9589 11.961 38.4202 11.9466 37.9765 11.9465C37.9847 10.7866 37.9134 9.89453 37.2364 8.89751C36.4864 7.79285 35.5745 7.24892 34.2876 6.98002C32.2057 6.87777 30.023 7.02378 27.9422 6.95741C26.0277 6.89633 24.3357 8.11963 23.7948 9.92678C23.5963 10.5903 23.5986 11.1287 23.6029 11.8163L22.0884 11.8172C22.1087 10.0186 22.3176 8.75368 23.5895 7.3294C24.64 6.15308 25.924 5.53148 27.5026 5.44436Z" fill="#FEFEFE"/>
<path d="M20.4331 12.1855C21.5044 12.0731 23.386 12.2518 24.6032 12.1909L24.6496 12.243L24.5772 12.2981C23.9552 12.3376 20.7936 12.3845 20.4331 12.1855Z" fill="#656569"/>
<path d="M38.6167 12.2934C39.0551 12.2447 40.3531 12.2703 40.7865 12.3469C40.5887 12.4425 38.8202 12.4351 38.6167 12.2934Z" fill="#656569"/>
<path d="M36.7563 12.2907C37.13 12.2335 37.8247 12.2708 38.2209 12.2593C38.4363 12.2531 38.475 12.264 38.5856 12.3792C38.0262 12.3779 37.4439 12.4204 36.8868 12.3937C36.8433 12.3594 36.7998 12.325 36.7563 12.2907Z" fill="#656569"/>
<path d="M22.5415 45.494C28.1111 45.4345 33.6942 45.5282 39.2652 45.4893C40.1144 45.4834 41.038 45.4691 41.8843 45.5043C41.1883 46.4573 35.6043 47.4768 34.2047 47.5838C30.9265 47.8171 27.6341 47.4089 24.5157 46.3828C23.9303 46.1905 23.0003 45.8836 22.5415 45.494Z" fill="#F7F7F7"/>
<path d="M36.5176 12.7716C36.8987 12.7184 40.3869 12.7233 40.7314 12.8134L40.7542 12.8894C39.4297 12.9108 37.8212 12.8922 36.5 12.8581L36.5176 12.7716Z" fill="#B3B3B9"/>
<path d="M8.49705 12.956C9.66865 12.8967 11.5515 12.9844 12.7976 12.9914L23.1819 13.0914L53.1135 13.2865L53.1301 15.4945L53.1311 23.4749C53.1306 24.718 53.2541 26.6891 53.0311 27.8272C52.888 28.5572 52.4309 29.3111 51.903 29.8332C51.4595 30.2717 50.9147 30.6478 50.3051 30.8161C49.2047 31.1201 44.7674 30.951 43.3373 30.9559L43.3676 26.4474C43.4076 23.5987 42.8522 24.0239 40.2793 23.9661C39.7336 23.9538 38.7714 24.0716 38.6976 24.7662C38.6221 25.476 38.6718 26.2869 38.6804 27.0013C38.6944 28.3198 38.701 29.6383 38.7001 30.9569C36.9079 31.023 34.8148 30.9661 32.995 30.9668C29.4074 30.9806 25.8198 30.9731 22.2323 30.9442C22.227 29.6245 22.2295 28.3049 22.24 26.9854C22.2424 26.3334 22.3703 24.9916 21.9888 24.4508C21.797 24.1788 21.3667 23.9577 21.0145 23.9785C20.1205 24.0256 19.1916 23.9518 18.3083 24.0021C17.0702 24.0726 17.3815 26.101 17.383 26.966C17.3915 28.2722 17.3866 29.5786 17.3682 30.8848C15.7199 30.8658 13.8744 30.9469 12.2522 30.8354C10.9203 30.648 9.87873 29.8888 9.11113 28.8773C7.96692 27.3696 8.20565 25.9877 8.21016 24.2067L8.22076 19.154L8.22601 15.0149C8.22747 14.4609 8.21278 13.7712 8.26326 13.2184C8.27617 13.0759 8.39747 13.0188 8.49705 12.956Z" fill="#F7F7F7"/>
<path d="M8.17429 28.5771C8.5126 28.9631 8.80034 29.6135 9.29437 30.0719C11.0086 31.6628 12.2673 31.6207 14.3687 31.62C15.3619 31.6117 16.3552 31.6173 17.3482 31.6366C17.3508 33.5377 17.3987 35.4395 17.3727 37.3401C17.3641 37.9717 17.3293 38.5648 17.7881 39.0491C18.3056 39.5953 18.9999 39.5015 19.678 39.4904C20.4029 39.4786 21.1955 39.6431 21.766 39.0986C21.9854 38.8869 22.1347 38.6146 22.1945 38.3174C22.2739 37.9398 22.2436 36.5812 22.2432 36.1087L22.2391 31.699L38.69 31.713C38.7516 33.8489 38.6372 36.058 38.7076 38.1963C38.7388 39.146 39.3712 39.5667 40.2846 39.6335C43.7069 39.8838 43.3525 38.5643 43.3417 35.9509L43.3327 31.6684L47.242 31.6616C49.116 31.6691 50.4791 31.9122 52.0367 30.7083C52.5271 30.2746 52.8408 29.9327 53.1337 29.3551L53.1361 29.4265C53.2266 32.3091 53.1517 35.5132 53.1529 38.426L53.1547 41.5037C53.1547 42.2205 53.1856 42.9815 53.0834 43.689C52.9356 44.7126 51.9923 45.1255 51.0497 45.1223C48.397 45.1133 45.7466 45.1158 43.0949 45.1217L23.615 45.1165L14.443 45.1086L11.297 45.1261C10.5028 45.131 9.38157 45.311 8.80002 44.7101C8.01836 43.9025 8.16852 42.8499 8.17188 41.8122L8.17713 39.0801L8.17429 28.5771Z" fill="#FEFEFE"/>
<path d="M53.8333 21.6428C53.9302 20.9801 53.8137 19.684 53.9047 18.8672L53.9733 18.8897C54.0545 20.911 54.2696 23.0998 54.4262 25.1333L55.2654 36.2095C55.3543 37.3785 55.4508 38.5471 55.5549 39.715C55.7539 41.9598 56.2219 44.0086 53.4253 44.7981C53.9755 43.876 53.8172 42.5111 53.8159 41.4446L53.8244 37.5783L53.8271 26.3952C53.8288 24.8371 53.8021 23.1948 53.8333 21.6428Z" fill="#FEFEFE"/>
<path d="M7.34221 22.0537L7.41293 22.0146C7.45774 22.3033 7.43046 22.4411 7.45092 22.7095L7.46718 37.4494C7.47264 38.6639 7.46907 39.8785 7.45648 41.0929C7.45123 41.8103 7.43108 42.5455 7.46047 43.261C7.49625 44.1337 7.75722 44.5494 8.40205 45.1169C6.44008 44.8487 5.38528 43.4127 5.58822 41.4779C5.70879 40.329 5.78739 39.1292 5.88729 37.9747C6.15477 34.5902 6.45687 31.2084 6.79329 27.8299C6.9529 26.2084 7.32027 23.6946 7.34158 22.1286L7.34221 22.0537Z" fill="#FEFEFE"/>
<path d="M20.4979 33.4604C20.9382 33.4466 21.4343 33.4596 21.8789 33.4613C21.8744 34.4739 21.8752 35.4866 21.8814 36.4992C21.8839 37.3118 22.0215 38.1562 21.5589 38.8503C21.1393 39.1419 20.9942 39.124 20.495 39.1275C20.4571 37.2386 20.4581 35.3492 20.4979 33.4604Z" fill="#FEFEFE"/>
<path d="M41.7339 33.5502C42.1295 33.5346 42.585 33.5459 42.9852 33.5465C42.9748 34.4863 42.9731 35.4262 42.9802 36.3659C42.9822 37.1945 43.1281 38.2356 42.6256 38.9144C42.3931 39.0913 42.0087 39.375 41.7253 39.1833C41.6717 38.6162 41.7045 37.6156 41.7073 37.0181C41.7078 35.8622 41.7168 34.7061 41.7339 33.5502Z" fill="#FEFEFE"/>
<path d="M42.5264 24.3838C42.7656 24.5371 42.946 24.7217 42.9772 25.0123C43.0516 25.7091 43.0178 26.444 43.0132 27.1459L42.9838 31.0311L42.2247 31.0347C42.0541 31.0384 41.971 31.0304 41.8056 31.013L41.7604 30.9534C41.7336 30.1225 42.0547 28.2321 42.1537 27.3428C42.234 26.6205 42.3772 25.0369 42.5264 24.3838Z" fill="#FEFEFE"/>
<path d="M21.414 24.4258C21.703 24.5802 21.8239 24.6799 21.8494 25.0229C21.8997 25.6986 21.8791 26.3932 21.8804 27.0707L21.8881 30.9372L20.967 30.9409C20.8042 30.9465 20.7334 30.9615 20.5811 30.9C20.5277 30.1423 21.0293 27.6184 21.1218 26.6745C21.1709 26.1749 21.3295 24.8666 21.414 24.4258Z" fill="#FEFEFE"/>
<path d="M39.029 33.5207L40.0626 33.5195L40.0778 39.2929C38.7117 38.9028 39.0096 37.8523 39.0148 36.6802L39.029 33.5207Z" fill="#FEFEFE"/>
<path d="M17.7301 33.4873L18.6941 33.4956C18.7612 35.1088 18.6589 37.6309 18.8467 39.1544C17.402 38.9773 17.7186 37.5005 17.7237 36.3938L17.7301 33.4873Z" fill="#FEFEFE"/>
<path d="M39.3041 24.4316C39.3213 24.4626 39.3385 24.4937 39.3557 24.5247C39.5352 26.6578 39.8898 28.7697 40.0404 30.9046C40.0259 30.935 40.0113 30.9656 39.9967 30.9961L39.8595 31.0145L39.0441 30.9986C39.0334 30.6696 39.0312 30.3193 39.0367 29.9851C39.0645 28.2687 38.9583 26.5291 39.066 24.8186C39.0744 24.6864 39.2181 24.5276 39.3041 24.4316Z" fill="#FEFEFE"/>
<path d="M18.0116 24.4336C18.0833 24.697 18.6259 30.7701 18.5853 30.9343L18.4688 30.976L17.7322 30.9716L17.7263 26.8549C17.7252 26.206 17.6922 25.4461 17.7686 24.8028C17.7837 24.6755 17.923 24.5305 18.0116 24.4336Z" fill="#FEFEFE"/>
<path d="M7.77567 14.9235C7.59266 14.7669 7.51858 14.4934 7.64009 14.2752C7.69477 14.1771 7.76056 14.1986 7.88281 14.1689C7.96602 14.9432 7.92079 16.3637 7.91932 17.1983L7.9188 22.1798C7.86874 27.2906 7.85584 32.4015 7.88029 37.5123C7.87651 39.377 7.87872 41.2459 7.84587 43.1104C7.84199 43.3355 7.9741 43.9541 7.93779 44.0158C7.65919 43.4109 7.75772 41.2385 7.75961 40.4637L7.76129 35.6407C7.74681 29.9656 7.76433 24.2906 7.81386 18.6157C7.81439 18.1675 7.83811 15.0596 7.77567 14.9235Z" fill="#B3B3B9"/>
<path d="M7.77567 14.9235C7.59266 14.7669 7.51858 14.4934 7.64009 14.2752C7.69477 14.1771 7.76056 14.1986 7.88281 14.1689C7.87189 14.3828 7.88847 14.7632 7.77567 14.9235Z" fill="#FEFEFE"/>
<path d="M53.4832 16.0479C53.578 16.1903 53.5364 21.4043 53.5363 21.9458L53.5282 37.0037L53.5449 41.1495C53.5523 42.4423 53.8229 44.2413 52.6733 45.0835L52.647 45.023C52.8456 44.8254 53.2885 44.3167 53.3246 44.0575C53.4682 43.0243 53.4137 41.8546 53.4108 40.8046L53.4065 35.5652C53.364 29.0593 53.3896 22.5532 53.4832 16.0479Z" fill="#656569"/>
<path d="M20.5425 31.3309C20.9697 31.3169 21.4505 31.329 21.8819 31.3303L21.8799 33.0209L20.5181 33.0306C20.532 32.4642 20.5402 31.8976 20.5425 31.3309Z" fill="#FEFEFE"/>
<path d="M42.6379 31.4243C42.773 31.4158 42.7707 31.4099 42.8987 31.4471C43.0644 31.7197 42.9879 32.7166 42.9846 33.09L42.0064 33.0927L41.8144 33.0767C41.6495 32.875 41.7311 31.7667 41.7352 31.4369L42.6379 31.4243Z" fill="#FEFEFE"/>
<path d="M22.2012 31.3199C22.5609 31.2752 23.386 31.2996 23.7962 31.2995L27.0111 31.3L35.595 31.3071C36.062 31.3085 38.4641 31.2857 38.7947 31.3708C38.4675 31.4433 37.4742 31.4151 37.0744 31.4131L34.1827 31.408C30.3119 31.4081 26.4337 31.4068 22.5627 31.3968C22.3895 31.3964 22.3479 31.3995 22.2012 31.3199Z" fill="#787878"/>
<path d="M39.042 31.4033L40.0496 31.4218L40.0425 33.0944C39.7117 33.1001 39.3727 33.0816 39.0413 33.069C39.0309 32.5263 39.041 31.9488 39.042 31.4033Z" fill="#FEFEFE"/>
<path d="M17.728 31.3838L18.6826 31.3941L18.7067 33.0893L17.7286 33.09L17.728 31.3838Z" fill="#FEFEFE"/>
<path d="M53.8444 15.8851C53.8079 15.3955 53.355 14.9218 53.5049 14.5593C53.6972 14.4413 53.6833 14.4844 53.9556 14.4889C53.9881 14.7588 53.9829 15.0301 53.9806 15.3015C53.9701 16.4967 53.9966 17.6945 53.9735 18.8894L53.905 18.8669C53.8139 19.6836 53.9304 20.9797 53.8335 21.6425C53.7857 21.0548 53.8183 19.978 53.8225 19.3585C53.8303 18.2199 53.8128 17.0188 53.8444 15.8851Z" fill="#B3B3B9"/>
<path d="M53.8444 15.8851C53.8079 15.3955 53.355 14.9218 53.5049 14.5593C53.6972 14.4413 53.6833 14.4844 53.9556 14.4889C53.9258 14.7596 53.9393 15.7473 53.8826 15.8759L53.8444 15.8851Z" fill="#FEFEFE"/>
<path d="M52.3724 29.8428L52.3832 29.9171C51.9082 30.636 50.6537 31.2485 49.8049 31.3387C48.8728 31.4376 47.8305 31.4019 46.887 31.4013C45.6458 31.4034 44.4046 31.3992 43.1636 31.3886L43.164 31.3611C43.3057 31.2516 47.3934 31.3004 47.9409 31.3051C49.9353 31.3224 50.893 31.3264 52.3724 29.8428Z" fill="#656569"/>
<path d="M10.1343 30.3643L10.2267 30.4028C10.849 30.6686 11.3389 31.0784 12.0589 31.1531C13.7481 31.3284 15.4807 31.1693 17.179 31.229C17.2955 31.2331 17.3052 31.2511 17.3874 31.3229C16.7516 31.3808 15.7009 31.3581 15.026 31.3538C13.1534 31.3419 11.7281 31.549 10.1343 30.3643Z" fill="#787878"/>
<path d="M7.38679 21.0567C7.38427 20.3168 7.453 19.2945 7.4786 18.5303L7.50263 18.5356C7.58249 19.082 7.52929 20.1635 7.4913 20.7365L7.38679 21.0567Z" fill="#656569"/>
<path d="M7.3868 21.0575L7.49132 20.7373C7.49279 21.3172 7.51514 22.1477 7.45102 22.7103C7.43056 22.4419 7.45784 22.3041 7.41303 22.0155L7.34231 22.0546C7.34115 21.7764 7.38512 21.3888 7.3868 21.0575Z" fill="#B3B3B9"/>
<path d="M9.0332 29.292C9.13153 29.3846 10.1268 30.3459 10.1347 30.3638C9.76061 30.2109 9.23226 29.6493 9.0332 29.292Z" fill="#656569"/>
<path d="M-15.7727 17.6475C-15.5591 17.7207 -14.0417 20.221 -13.774 20.6365L-8.20901 29.2136C-7.22136 30.7295 -6.01808 32.5929 -4.97261 34.0545C-4.40177 34.8527 -2.14158 36.7273 -1.27083 37.4742C0.370979 38.892 2.00082 40.3235 3.6186 41.7681C3.14052 42.5504 2.4448 43.3497 1.85727 44.0647L1.28349 43.6959C1.57793 44.1936 1.94689 44.678 2.25036 45.1687C3.24346 46.7741 4.37539 48.3472 5.35779 49.9498C5.04634 50.2285 3.96394 50.8552 3.54043 51.1123L-0.0308189 53.278L-16.8191 63.3668C-17.4679 63.7514 -18.4452 64.3674 -19.1 64.6738C-19.6394 63.9219 -20.3145 62.7615 -20.8205 61.952L-24.3865 56.2176L-34.8613 39.3445C-36.3593 36.9137 -37.8366 34.3677 -39.376 31.9718C-38.8364 31.5837 -37.5277 30.8486 -36.8907 30.4609L-31.0311 26.9172C-26.0028 23.8649 -20.8412 20.6076 -15.7727 17.6475Z" fill="#1B1A1B"/>
<path d="M-38.9004 32.0617C-38.2776 31.6417 -37.2576 31.0694 -36.5907 30.664L-30.9114 27.2337L-15.836 18.0537C-15.4788 18.5476 -15.0567 19.2474 -14.7143 19.7732C-13.834 21.1199 -12.9636 22.4729 -12.103 23.8319C-9.9353 27.2218 -7.72779 30.5866 -5.48093 33.9257L-6.54087 33.0017C-7.47825 32.1878 -8.28363 31.4676 -9.47107 31.0092C-9.80791 30.8791 -10.234 30.5922 -10.4824 30.9863C-10.5189 31.4049 -9.96762 32.8486 -9.79867 33.3082L-9.66488 33.6781C-9.63603 33.7739 -9.53854 34.0939 -9.48555 34.1602C-9.04514 34.7123 -8.27975 35.3213 -7.74322 35.7822C-7.65245 35.8653 -7.51886 35.9808 -7.43597 36.0653L-1.66781 41.1505C-1.31502 41.4652 0.367821 42.8547 0.534351 43.129C1.92641 45.4213 3.51743 47.6129 4.90887 49.8992L-11.8487 60.0387L-16.1875 62.6279C-17.0449 63.1421 -18.103 63.8064 -18.9754 64.2535C-20.4481 62.104 -22.1713 59.2046 -23.5321 56.975L-28.1622 49.5299C-30.877 45.2172 -33.5527 40.8807 -36.1891 36.5208C-37.0866 35.0317 -38.0537 33.5774 -38.9004 32.0617Z" fill="#FEFEFE"/>
<path d="M-0.0965672 46.3301C0.0723782 46.4533 0.0353355 46.3767 0.0779381 46.5381C-0.0665569 46.8358 -0.575804 47.0004 -0.85598 47.1782C-1.42378 47.5383 -1.99935 47.8894 -2.57323 48.2398L-9.61761 52.49L-15.015 55.7382C-16.5007 56.6432 -18.0947 57.6439 -19.6081 58.4898C-19.7386 58.3948 -19.6947 58.4541 -19.7515 58.3114C-19.6311 58.0498 -19.1135 57.822 -18.8572 57.6662C-16.9401 56.5012 -15.0072 55.3588 -13.085 54.2024L-0.0965672 46.3301Z" fill="#7478F6"/>
<path d="M-7.8824 32.3604C-7.76665 32.4224 -6.65697 33.4515 -6.37711 33.6714C-4.12248 35.443 -1.95695 37.3406 0.195265 39.232C1.16738 40.0862 2.24034 40.9935 3.1731 41.8795C2.78988 42.4318 2.24328 43.0877 1.82049 43.6175C1.81199 43.618 1.80349 43.6201 1.7951 43.619C1.52951 43.5886 -8.35167 34.7889 -9.19775 33.9396C-8.73405 33.4393 -8.30612 32.8939 -7.8824 32.3604Z" fill="#7478F6"/>
<path d="M0.317801 -7.95605C0.875844 -7.95605 1.14112 -7.78899 1.54155 -7.37396C2.84966 -6.01803 4.12724 -4.61957 5.43609 -3.2653L7.29575 -1.35226C7.72335 -0.9166 8.89128 0.12594 8.86819 0.729189C8.85497 1.02869 8.74867 1.31698 8.56388 1.55468C8.29157 1.90405 7.49817 2.6024 7.15398 2.92751L4.56702 5.38977C2.31817 7.49932 0.0809641 9.6348 -2.17524 11.7375C-2.67462 12.2029 -2.82405 12.3384 -3.48577 12.3039C-4.3477 11.9502 -6.53863 9.25348 -7.46038 8.55576C-8.82243 7.52463 -9.96937 6.45388 -11.1453 5.217C-12.0122 4.30512 -12.6077 4.01496 -11.4837 2.95375C-9.16829 0.767766 -6.84924 -1.40806 -4.52546 -3.58222L-1.71604 -6.21994C-1.25181 -6.65778 -0.205089 -7.75155 0.317801 -7.95605Z" fill="#1B1A1B"/>
<path d="M0.324546 -7.58683C0.505558 -7.60975 0.728859 -7.64408 0.88091 -7.5215C1.2997 -7.18373 1.66603 -6.77078 2.03561 -6.38324L4.06222 -4.24133C4.06516 -3.81956 4.07523 -3.46282 3.74615 -3.15254C2.39575 -1.87936 1.01428 -0.466902 -0.405171 0.71792C-2.21529 0.4178 -3.40063 1.55575 -2.98247 3.35181C-3.10262 3.48641 -3.48511 3.89242 -3.61051 3.98637C-4.48503 4.6423 -6.87891 7.39161 -7.73549 7.67213C-7.80873 7.67348 -8.11514 7.67949 -8.14316 7.65543C-8.91737 6.99152 -11.3465 4.66024 -11.8193 3.96345C-11.4523 3.21958 -9.80039 1.83596 -9.11978 1.19403L-4.27863 -3.36337L-1.69408 -5.77968C-1.19208 -6.25547 -0.194251 -7.26514 0.324546 -7.58683Z" fill="#FEFEFE"/>
<path d="M4.41506 -3.82812C4.98234 -3.28461 8.42346 0.12405 8.51853 0.641846C8.56271 0.882233 8.43479 1.1584 8.2924 1.34455C7.9224 1.82822 7.38492 2.26098 6.94283 2.68451C5.92549 3.6611 4.89996 4.62949 3.86657 5.58948C2.50703 6.88506 1.13984 8.17276 -0.235013 9.45236C-0.999358 10.1734 -1.76538 10.9097 -2.54903 11.6092C-2.70811 11.7308 -2.99343 12.0176 -3.20257 12.0176C-3.63028 12.0176 -4.09661 11.4366 -4.37794 11.1497C-5.4126 10.1248 -6.54663 9.0389 -7.53857 7.98547C-6.88515 7.60114 -5.8763 6.58411 -5.29171 6.02991C-4.4727 5.24549 -3.6413 4.47362 -2.79783 3.71471C-2.70035 3.82163 -2.5696 3.96806 -2.46414 4.06419C-2.07169 4.42654 -1.54943 4.61974 -1.01269 4.60118C-0.471117 4.57722 0.0360332 4.33155 0.386935 3.92316C0.758194 3.49755 0.935743 2.93952 0.877714 2.38055C0.802896 1.70243 0.435729 1.30535 -0.0722599 0.910959C1.2942 -0.499006 2.98165 -1.73257 4.23846 -3.24468C4.33164 -3.35679 4.38641 -3.67827 4.41506 -3.82812Z" fill="#FEFEFE"/>
<path d="M-1.19382 0.989928C-0.289595 0.939631 0.486923 1.61858 0.546421 2.51179C0.606024 3.40489 -0.0737455 4.17874 -0.976813 4.24594C-1.89216 4.31417 -2.68798 3.63138 -2.74832 2.72625C-2.80866 1.82102 -2.11032 1.04095 -1.19382 0.989928Z" fill="#FEFEFE"/>
<path fill-rule="evenodd" clip-rule="evenodd" d="M10.2578 -1.90723L3.35156 30.9141L5.6875 49.9854L4.875 69.8584H-41.2344V-17.8662H4.875L10.2578 -1.90723Z" fill="#F7F7F7"/>
<path d="M18 24.5H21.5L21 31H18.5L18 24.5Z" fill="#DB4431"/>
<path d="M39.5 24.5H41H42.5L42 30.5H40L39.5 24.5Z" fill="#DB4431"/>
</g>
<defs>
<clipPath id="clip0_812_2837">
<rect width="65" height="54" fill="white"/>
</clipPath>
</defs>
</svg>
