<svg width="60" height="60" viewBox="0 0 60 60" fill="none" xmlns="http://www.w3.org/2000/svg">
<g clip-path="url(#clip0_810_2820)">
<path d="M0 0H60V60H0V0Z" fill="#F7F7F7"/>
<path d="M7.22964 4.72384C8.57572 3.68247 10.8977 3.12417 12.5843 3.08005C15.4004 3.02656 18.123 4.0905 20.1567 6.03917C21.9762 7.76042 23.1142 10.1896 23.4826 12.6485C23.6163 13.5412 23.6408 14.2196 23.6651 15.1143C23.9193 15.4772 24.4668 16.1017 24.7594 16.4486L26.8731 18.9483L31.3673 24.2301C32.4978 25.5635 33.6458 26.8818 34.811 28.185C34.9351 28.0665 35.2115 27.6832 35.3289 27.6276C35.8365 27.3873 36.5254 28.5676 36.6985 28.8531C37.1321 28.7501 37.5335 29.0147 37.762 29.3706C39.001 31.2996 40.1501 33.2987 41.7346 34.9748C41.9446 35.1969 42.7779 35.9163 42.8811 36.1187L47.8414 40.3502C48.0431 40.4377 48.451 40.8253 48.6282 40.9846C50.3347 42.5249 51.8999 44.1706 53.3974 45.9175C54.071 46.7032 55.3506 47.8711 55.843 48.757C56.2438 49.478 55.7628 50.8568 54.9018 51.0045C54.5038 51.0728 54.1196 51.1944 53.6985 50.9381C53.4004 50.7967 53.1683 50.4829 52.8438 50.5024C51.8927 50.5088 51.4687 49.8907 50.8508 49.2733C50.3306 48.7585 49.815 48.239 49.3043 47.7147L45.035 43.3875L37.6322 36.0655C35.8641 34.3415 34.1137 32.5994 32.3814 30.8394C32.4938 30.6966 32.7035 30.4942 32.8345 30.3632C32.5528 29.9837 32.2419 29.6213 31.9392 29.2579C30.9565 28.0781 29.9374 26.928 28.9451 25.7558L22.039 17.5342L21.8244 17.8179C21.5941 17.8955 21.4975 17.9127 21.259 17.9492C21.4343 18.0438 21.755 18.1661 21.7818 18.3649C21.6527 18.597 21.1542 18.5898 20.9255 18.5563C21.1277 18.6864 21.3574 18.798 21.46 19.008C21.4436 19.267 21.001 19.2981 20.7933 19.3085C20.9713 19.4431 21.1165 19.5158 21.1863 19.7223C21.1469 19.994 20.691 19.9774 20.4724 19.9764C20.6677 20.1256 20.8154 20.2024 20.9191 20.4174C20.905 20.6962 20.4152 20.6773 20.197 20.6863C20.8261 21.0599 20.8158 21.3173 20.0379 21.3276C20.1139 21.5574 20.1353 21.998 20.2638 22.1405C20.5748 22.4857 21.0129 22.8297 21.3691 23.1408L23.6094 25.1013L29.0372 29.9389C30.0517 30.8512 31.2794 31.8996 32.2352 32.8507C32.3349 32.7604 32.3873 32.7108 32.4739 32.6084C33.2378 33.2556 34.1353 34.2872 34.8202 35.0274C35.5452 35.8113 36.2784 36.7467 36.9377 37.589C40.5785 42.2401 44.6837 46.3846 48.7553 50.6458L50.3943 52.3808C50.7069 52.7124 51.1212 53.0818 51.3396 53.4414C52.3355 55.0806 50.4906 56.8121 48.8872 55.6562C48.8391 55.6216 48.6885 55.5362 48.6404 55.5268C48.4662 55.5671 48.3419 55.5803 48.1629 55.5795C47.8055 55.577 47.4569 55.4683 47.1614 55.2674C46.8801 55.0778 46.4713 54.6131 46.2255 54.3507L45.006 53.0492C44.6459 52.6656 44.283 52.2839 43.9219 51.9013C42.0557 49.9243 40.3989 47.8125 38.7279 45.6732L36.5418 42.856C35.5662 41.5986 34.5933 40.3363 33.4048 39.2686C32.9442 38.8548 32.4568 38.4652 31.978 38.0725L30.196 36.6014C29.7311 36.22 29.2206 35.8455 28.7794 35.4375C28.6755 35.3414 28.5527 35.181 28.5656 35.0331C28.5908 34.7464 29.0613 34.3479 29.2701 34.1454C27.9073 32.8527 26.1968 31.461 24.7517 30.2156L17.7942 24.1844L15.0533 21.839C13.071 20.1215 12.9249 20.4393 13.7049 17.8702C13.5685 17.7446 13.4393 17.6158 13.2762 17.528C12.7161 17.2266 11.9405 17.6561 11.3518 17.8523C10.5892 17.5593 8.91984 15.8126 8.39572 15.104C6.70206 12.8139 5.82702 9.71775 6.22089 6.88081C6.24749 6.68933 6.34083 6.45771 6.50326 6.34468C6.59413 6.28029 6.70792 6.25708 6.81673 6.28087C7.15681 6.35581 7.49033 6.93648 7.69183 7.22019L8.61087 8.51986C9.67488 10.0158 10.7156 11.5281 11.7326 13.0563C12.7481 13.1031 14.1393 13.0594 15.1827 13.0574C15.4677 12.2339 15.6954 11.3751 15.9608 10.5443C16.082 10.1645 16.1316 9.93788 16.3512 9.60079C14.8902 8.90599 13.2593 7.96122 11.81 7.18837C10.4099 6.44177 8.55357 5.54627 7.22964 4.72384Z" fill="black"/>
<path d="M32.2349 32.8507C32.3346 32.7604 32.387 32.7108 32.4736 32.6084C33.2375 33.2556 34.135 34.2872 34.8198 35.0274C35.5449 35.8113 36.2781 36.7468 36.9374 37.589C40.5781 42.2401 44.6834 46.3846 48.755 50.6458L50.394 52.3808C50.7066 52.7124 51.1209 53.0818 51.3393 53.4414C52.3352 55.0806 50.4903 56.8121 48.8869 55.6562C48.8387 55.6216 48.6882 55.5362 48.6401 55.5268C49.0061 55.4111 49.2721 55.2927 49.5558 55.0203C49.9215 54.6664 50.1309 54.1813 50.1377 53.6724C50.1563 52.6251 49.3771 52.0689 48.7055 51.378L46.8491 49.4587C44.7837 47.3448 42.7669 45.1838 40.8005 42.9775C39.401 41.4196 38.052 39.8171 36.7555 38.1725C35.9757 37.185 35.2806 36.1809 34.4613 35.2199C33.743 34.3773 32.9973 33.6499 32.2349 32.8507Z" fill="#DB4431"/>
<path d="M47.8413 40.3506C48.043 40.4381 48.4509 40.8257 48.628 40.985C50.3346 42.5252 51.8998 44.171 53.3973 45.9179C54.0709 46.7036 55.3505 47.8715 55.8429 48.7574C56.2437 49.4784 55.7627 50.8572 54.9017 51.0049C54.5037 51.0732 54.1195 51.1948 53.6984 50.9385C53.4003 50.7971 53.1681 50.4833 52.8437 50.5028C54.0524 50.3534 54.8045 49.4374 54.5919 48.2236C54.4761 47.5621 53.7258 46.8594 53.2738 46.3626C52.7605 45.8029 52.2504 45.2404 51.7433 44.675C50.899 43.7271 50.1129 42.7443 49.241 41.8142C48.8709 41.4192 48.1145 40.7534 47.8413 40.3506Z" fill="#DB4431"/>
<path d="M36.6982 28.8535C37.1319 28.7505 37.5332 29.0151 37.7618 29.371C39.0007 31.3 40.1498 33.2991 41.7344 34.9752C41.9444 35.1974 42.7776 35.9167 42.8808 36.1191C42.7298 36.0501 42.5103 35.8639 42.3813 35.7522C41.1033 34.6456 39.7173 33.7139 38.7535 32.295C37.9887 31.1692 37.3422 30.0443 36.6982 28.8535Z" fill="#DB4431"/>
<path d="M17.3927 9.44531C17.4404 9.44725 17.488 9.45023 17.5356 9.45439C18.1259 9.50812 18.7297 9.96768 19.1933 10.3027C19.3501 10.4357 19.6837 10.6078 19.8076 10.7569C20.227 11.2618 20.6487 11.806 21.0611 12.3169L24.1287 16.0927C26.4912 18.9508 28.9371 21.7536 31.3309 24.5861C31.6406 24.9526 31.9705 25.3024 32.2754 25.6734C31.8876 26.2402 31.2695 26.9915 30.8377 27.5609C29.9352 26.562 29.0782 25.506 28.2073 24.4807L23.845 19.3015C23.0583 18.3488 22.2574 17.4124 21.4887 16.4445C21.1197 15.98 20.796 15.4852 20.2134 15.2858C19.7729 15.1322 19.289 15.165 18.8732 15.3765C18.5177 15.5583 18.2371 15.8808 18.1072 16.2545C17.7762 17.2069 17.3414 18.1811 17.0391 19.1372C16.8566 20.3715 17.7949 20.7342 18.743 21.0475C19.0863 21.1609 19.5045 21.3436 19.8238 21.5092C19.8716 21.7363 19.9337 22.1328 20.0745 22.2982C20.3099 22.5749 20.6597 22.8615 20.9368 23.1028L22.4571 24.4276C24.4908 26.1979 26.5069 27.9882 28.5053 29.7983C27.8697 30.3468 27.2255 30.8852 26.5728 31.4133C26.1005 31.097 25.466 30.4833 25.0099 30.0925L21.3614 26.9234L16.3761 22.6259L14.7963 21.2694C14.4738 20.995 14.1431 20.726 13.8339 20.4361C13.4734 20.0981 13.4433 19.6934 13.5683 19.2454C13.7176 18.71 13.8818 18.1812 14.0404 17.6498C14.4049 16.4224 14.7809 15.1985 15.1685 13.9782C15.5616 12.7224 15.9567 11.4707 16.3232 10.2067C16.468 9.70711 16.8983 9.48234 17.3927 9.44531Z" fill="#FEFEFE"/>
<path d="M35.4926 27.8027C35.8355 28.01 36.1014 28.302 36.2916 28.6518C36.5387 29.0457 36.769 29.5387 37.0066 29.9517C37.6901 31.1394 38.4671 32.5091 39.4015 33.5129C40.0253 34.1831 40.9557 34.8941 41.6658 35.4869C42.9429 36.5532 44.3259 37.5813 45.5834 38.6629C46.9414 39.8387 48.2321 41.0899 49.4494 42.4106C50.3703 43.418 51.2394 44.4789 52.1397 45.5056C52.6436 46.0803 54.0234 47.4869 54.2598 48.1044C54.3669 48.3841 54.3773 48.6942 54.3111 48.9849C54.2162 49.4054 53.9588 49.7713 53.595 50.0027C53.3953 50.1302 53.0781 50.2459 52.8366 50.2473C52.7724 50.2488 52.7082 50.2482 52.6442 50.2455C51.9706 50.2112 51.2644 49.3514 50.7962 48.8821C50.1837 48.2721 49.5773 47.6561 48.9772 47.0339C47.4589 45.4819 45.9308 43.9397 44.3928 42.4072L36.7345 34.8389L34.1526 32.259C33.7026 31.8079 33.1364 31.2738 32.7261 30.8091C33.6488 29.8072 34.5899 28.8222 35.4926 27.8027Z" fill="#DB4431"/>
<path d="M35.4926 27.8027C35.8355 28.01 36.1014 28.302 36.2916 28.6518C36.2128 28.6615 36.0994 28.673 36.0366 28.7274C35.5255 29.169 35.0881 29.7124 34.6164 30.1933C34.0618 30.7586 33.7131 31.1196 34.3883 31.813C35.4113 32.8637 36.4644 33.8817 37.5052 34.9132L44.4976 41.8502L49.7367 47.1477L51.4682 48.8938C51.8912 49.3248 52.3898 49.8568 52.8366 50.2473C52.7724 50.2488 52.7082 50.2482 52.6442 50.2455C51.9706 50.2112 51.2644 49.3514 50.7962 48.8821C50.1837 48.2721 49.5773 47.6561 48.9772 47.0339C47.4589 45.4819 45.9308 43.9397 44.3929 42.4072L36.7345 34.8389L34.1526 32.259C33.7026 31.8079 33.1364 31.2738 32.7261 30.8091C33.6488 29.8072 34.5899 28.8222 35.4926 27.8027Z" fill="#FEFEFE"/>
<path d="M31.3016 32.3271C31.5819 32.5698 31.7863 32.7671 32.0469 33.0294C32.6165 33.6085 33.1842 34.1901 33.7357 34.7865C34.6219 35.745 35.3792 36.8108 36.1719 37.845C36.6567 38.4674 37.1487 39.0843 37.6477 39.6955C41.3002 44.2149 45.4322 48.3197 49.4339 52.5223C50.3162 53.4489 49.8015 54.8925 48.5793 55.2851C48.3757 55.3383 48.117 55.3462 47.9118 55.3127C47.671 55.2727 47.4431 55.1758 47.2471 55.0302C46.902 54.7745 46.1582 53.937 45.8394 53.5938L43.8399 51.4568C41.8853 49.338 40.1616 47.1422 38.4069 44.8558C37.1934 43.2745 35.9843 41.627 34.6441 40.1528C33.4119 38.7975 31.8621 37.6947 30.4725 36.5087C30.1024 36.1929 29.0152 35.3856 28.7598 35.0361C29.3156 34.4219 29.8688 33.8273 30.446 33.2335C30.7363 32.9349 31.0008 32.6217 31.3016 32.3271Z" fill="#DB4431"/>
<path d="M31.3016 32.3271C31.5819 32.5698 31.7863 32.7671 32.0469 33.0294C31.6754 33.4506 30.3253 34.7411 30.1271 35.1115L30.101 35.1596C30.1063 35.6521 30.1764 35.8937 30.5501 36.2513C31.2097 36.8825 31.902 37.4549 32.6236 38.0116C33.0112 38.3106 33.5421 38.6619 33.9 38.9708C34.7679 39.7199 35.6368 40.6499 36.4272 41.4904C36.9741 42.072 37.5944 43.0198 38.0928 43.6706L41.274 47.7595C43.1599 50.1885 45.5448 52.5567 47.682 54.7836C47.9751 55.089 48.2129 55.1341 48.5793 55.2851C48.3757 55.3383 48.117 55.3462 47.9118 55.3127C47.671 55.2727 47.4431 55.1758 47.2471 55.0302C46.902 54.7745 46.1582 53.937 45.8394 53.5938L43.8399 51.4568C41.8853 49.338 40.1616 47.1422 38.4069 44.8558C37.1934 43.2745 35.9843 41.627 34.6441 40.1528C33.4119 38.7975 31.8621 37.6947 30.4725 36.5087C30.1024 36.1929 29.0152 35.3856 28.7598 35.0361C29.3156 34.4219 29.8688 33.8273 30.446 33.2335C30.7363 32.9349 31.0008 32.6217 31.3016 32.3271Z" fill="#FEFEFE"/>
<path d="M6.51092 6.78125C6.68993 6.90951 7.33053 7.88592 7.48381 8.10939L9.73604 11.33C10.0039 11.7146 11.1171 13.3981 11.3656 13.5866C11.692 13.6212 12.3221 13.6012 12.6718 13.5995C13.4573 13.5931 14.243 13.5921 15.0285 13.5966C14.6632 14.7231 14.3146 15.8549 13.9827 16.9917L13.7983 17.5835C13.6943 17.5012 13.5306 17.3668 13.4168 17.3081C12.7466 16.9624 12.0082 17.3774 11.3505 17.5924C11.0308 17.3916 10.6924 17.0828 10.3983 16.8418C7.61084 14.5578 5.87096 10.3968 6.51092 6.78125Z" fill="#FEFEFE"/>
<path d="M7.72021 4.71997C8.16219 4.38878 9.20193 3.97343 9.74551 3.80158C12.3446 2.99695 15.1554 3.24188 17.5762 4.48393L17.5372 4.55152C17.217 4.40617 16.8879 4.2816 16.5517 4.17858C13.769 3.31544 11.1812 3.89985 8.68414 5.2175C8.38367 5.08571 8.01359 4.8768 7.72021 4.71997Z" fill="#FEFEFE"/>
<path d="M6.76025 6.46777C7.01514 6.66289 7.7315 7.72643 7.96846 8.06029L10.7285 12.0187C10.9087 12.2791 11.4795 13.1425 11.641 13.2972L11.6156 13.3289L11.4324 13.3415C11.2722 13.1367 11.035 12.7556 10.8782 12.5261L9.66756 10.7667L7.65826 7.89822C7.41598 7.54537 6.89959 6.83809 6.76025 6.46777Z" fill="#FEFEFE"/>
<path d="M11.6407 13.2971C12.1471 13.2614 12.8775 13.2844 13.3962 13.2784C13.8491 13.2732 14.6289 13.254 15.064 13.2962L15.0654 13.317C14.8031 13.3589 11.6827 13.3991 11.4321 13.3414L11.6153 13.3288L11.6407 13.2971Z" fill="#C7C7C9"/>
<path d="M21.4159 16.8623C21.548 16.9108 21.8239 17.1999 21.8338 17.3381L21.7497 17.3724C21.5864 17.2863 21.3657 17.1713 21.2749 17.018C21.291 16.9229 21.3074 16.9416 21.4159 16.8623Z" fill="#FEFEFE"/>
<path d="M17.5761 4.4834C17.8005 4.60232 17.9959 4.70122 18.2051 4.84843C18.073 4.83191 17.6682 4.61779 17.5371 4.55099L17.5761 4.4834Z" fill="#FEFEFE"/>
</g>
<defs>
<clipPath id="clip0_810_2820">
<rect width="60" height="60" fill="white"/>
</clipPath>
</defs>
</svg>
