<svg width="60" height="60" viewBox="0 0 60 60" fill="none" xmlns="http://www.w3.org/2000/svg">
<g clip-path="url(#clip0_789_4872)">
<path d="M0 0H59.9999V59.9999H0V0Z" fill="#F7F7F7"/>
<path d="M22.2011 35.0638C20.9836 33.6945 20.0147 32.2052 19.412 30.4722C15.7052 19.8131 22.9873 7.13341 33.3262 3.47394C36.8865 2.21375 40.5583 2.01142 43.9956 3.62468C44.7249 3.91174 45.9413 4.50697 46.578 4.97096C46.9474 5.15429 47.2614 5.47474 47.5981 5.69061C50.8541 7.77776 52.8533 10.8918 53.6725 14.6734C54.8631 20.169 53.2908 25.8801 50.2373 30.5243C46.1539 36.7347 38.4035 41.5515 30.7873 39.7191C30.1384 39.5625 29.524 39.3181 28.8884 39.1208C27.615 38.7257 26.3225 38.243 25.2021 37.5088C24.2568 38.445 23.3408 39.5413 22.3969 40.4924C22.5816 40.8968 22.6436 41.2609 22.6137 41.7036C22.5511 42.6287 21.9228 43.1933 21.3297 43.8311C20.9257 44.2668 20.5245 44.7053 20.1263 45.1465L14.9293 50.8478C13.0453 52.9055 11.1965 55.0382 9.22002 57.0089C8.84315 57.3847 8.06309 57.5445 7.54717 57.4942C6.62567 57.4042 6.04313 56.7215 5.40037 56.1371C5.12358 55.8688 4.8042 55.611 4.56206 55.311C3.87683 54.4621 4.01445 53.1973 4.68394 52.3829C5.30984 51.6214 5.99725 50.8925 6.66253 50.1628L10.1988 46.2676L15.3463 40.6122L16.5026 39.3669C17.4393 38.3523 17.9523 37.7804 19.4639 37.9897C20.0458 37.4418 20.5834 36.7842 21.149 36.2124C21.5058 35.8517 21.8751 35.4515 22.2011 35.0638Z" fill="#1A1A1A"/>
<path d="M19.7584 20.0371C19.7784 19.6585 20.1968 18.4698 20.3311 18.0768C23.0768 10.0414 30.7221 2.83636 39.5739 2.92065C40.8109 2.93243 41.9726 3.18505 43.1651 3.47524C43.183 3.47443 43.2011 3.47363 43.2191 3.47282L43.2563 3.48345C43.3275 3.5044 44.0131 3.75423 44.0293 3.77969C43.8956 3.77453 43.81 3.73212 43.6841 3.68405L43.6791 3.70591C43.9291 3.82402 44.0293 3.90644 44.2977 3.88647L44.3163 3.85774C44.1995 3.76835 44.1655 3.74611 44.0335 3.68196L43.9959 3.62457C44.7251 3.91164 45.9415 4.50686 46.5782 4.97086C46.2488 4.92183 45.9801 4.59276 45.6671 4.49814C45.6133 4.48189 45.2606 4.52764 45.1798 4.52267C45.0986 4.51769 45.1507 4.56992 45.1049 4.63661C44.7149 4.49325 44.3492 4.35985 43.9416 4.27461C43.8232 4.24984 43.5433 4.19356 43.4499 4.13409L42.7148 4.01615C38.1339 3.37198 33.8261 4.8988 30.1767 7.64078C25.1944 11.3709 21.8977 16.9272 21.0117 23.0877C20.4192 27.3046 21.2791 31.6251 23.8697 35.0585C24.294 35.6213 24.7609 36.1507 25.2663 36.6419L25.2383 36.6941C25.3593 36.8172 25.6004 37.0531 25.7633 37.1015C26.1029 37.3905 26.5012 37.7493 26.8953 37.9503C26.9995 38.0035 26.9957 37.9952 27.0971 38.0673C27.0143 38.0689 26.7997 37.9384 26.7096 37.8806C24.7667 36.6337 23.2749 34.9031 22.1164 32.9274C21.9839 32.7017 21.1961 30.8932 21.1623 30.8603C21.0348 30.9057 20.9689 30.9062 20.9198 31.0365C20.7637 31.0316 20.8681 31.1153 20.6994 31.1188C20.5538 30.9562 20.546 30.4878 20.3055 30.4557L20.3135 30.394C20.2296 30.2507 20.1566 30.1143 20.0522 29.9851C20.0536 30.1379 20.2613 30.5412 20.2407 30.6943L20.2115 30.6837C20.1211 30.4921 20.0556 30.1282 19.9828 29.9025C19.1416 27.2963 19.0892 24.5545 19.5263 21.8678C19.5658 21.6245 19.8115 20.0098 19.9201 19.9277C19.933 20.0834 19.8698 20.1642 19.8389 20.3156C19.7364 20.8089 19.6475 21.3049 19.5722 21.8032C19.2136 24.153 19.1477 26.2663 19.6731 28.601L19.7007 28.6179C19.7577 28.4638 19.7143 28.4268 19.6182 28.3115C19.6212 28.2717 19.6227 28.2319 19.6226 28.192C19.6221 27.9995 19.5587 27.7974 19.5323 27.6043C19.5073 27.4218 19.5781 27.3578 19.4533 27.2303C19.4733 26.8247 19.5235 26.3832 19.3541 26.0251C19.3314 25.9771 19.462 25.8366 19.464 25.8557C19.4358 25.5837 19.4936 25.3007 19.5924 25.0467L19.6476 25.0679C19.6526 24.9938 19.6384 25.0235 19.6817 24.9751L19.7005 24.9909C19.7144 25.0552 19.7177 25.0742 19.7391 25.1364L19.8024 25.1074L19.8392 25.2949C19.9284 25.3625 19.9562 25.3901 20.0345 25.4713C20.0984 25.6349 19.8937 25.9239 20.0488 26.1163L20.1181 26.0149L20.1639 26.0141L20.1992 26.0753L20.1639 26.1948L20.1876 26.2086C20.2061 26.1177 20.2097 26.054 20.2166 25.9627L20.2745 25.9952L20.2691 25.9235L20.2108 25.8787C20.1751 25.5469 20.2684 24.4109 20.2957 24.0342L20.3041 24.0411L20.227 24.0091C20.1996 24.0233 20.2186 24.0165 20.1667 24.0116C20.1385 23.8518 20.3364 23.6131 20.3637 23.4335C20.3914 23.2511 20.3639 23.0947 20.3881 22.9017C20.4137 22.6978 20.5622 22.0463 20.5426 21.8811C20.4832 21.8266 20.4736 21.8298 20.4558 21.7541C20.4937 21.6594 20.4904 21.6873 20.6178 21.6293C20.5558 21.5286 20.4985 21.5093 20.4897 21.3856C20.547 21.3394 20.5479 21.3425 20.6167 21.3192C20.6073 21.2646 20.6018 21.2494 20.5823 21.1991L20.5632 21.1505C20.6198 21.0854 20.6242 21.104 20.7299 21.0822L20.7439 21.0469C20.6747 21.0148 20.6907 21.0251 20.6287 20.9784C20.6563 20.8997 20.7171 20.8768 20.7972 20.8149C20.8386 20.5209 21.1063 19.7468 21.0504 19.608C20.8811 19.5778 21.052 19.6857 20.7274 19.6606C20.6701 19.7391 20.6326 19.9916 20.6278 19.9954C20.5417 20.063 20.3071 20.1775 20.2064 20.2839L20.1808 20.2625L20.1845 20.1885C20.1104 20.0507 20.1969 19.8303 20.2525 19.6906L20.2644 19.6615C20.0702 19.3942 20.1296 19.0974 20.3042 18.835C20.3574 18.8101 20.3834 18.7974 20.433 18.7664C20.577 18.4894 20.3318 18.5917 20.3338 18.3496L20.3927 18.2529C20.4854 18.1014 20.4926 17.9625 20.4879 17.7895C20.1859 18.5646 20.0317 19.2399 19.7966 20.0145L19.7584 20.0371Z" fill="#2F2B28"/>
<path d="M25.2382 36.6948C20.946 32.7781 19.5999 27.4901 20.6193 21.8512C21.7434 15.8848 25.1457 10.5901 30.1056 7.08847C33.8506 4.49842 38.1578 3.10534 42.7147 3.93632L42.7148 4.01684C38.1339 3.37268 33.826 4.89949 30.1766 7.64147C25.1944 11.3715 21.8977 16.9279 21.0117 23.0884C20.4191 27.3053 21.2791 31.6258 23.8696 35.0592C24.2939 35.622 24.7609 36.1514 25.2662 36.6426L25.2382 36.6948Z" fill="#F7F7F7"/>
<path d="M42.7148 3.93555C42.8997 3.96732 43.2961 4.03027 43.4501 4.134L42.715 4.01607L42.7148 3.93555Z" fill="#E3E2E0"/>
<path d="M23.4604 36.031C23.2102 35.8488 22.8469 35.4929 22.623 35.2666C21.438 34.0692 20.4938 32.6556 19.8413 31.1025C17.9073 26.5661 18.3742 21.1686 20.2148 16.6699C22.495 11.0971 26.7708 6.427 32.342 4.03548C35.7713 2.56342 39.6919 2.04076 43.2192 3.47316C43.2012 3.47396 43.1831 3.47477 43.1652 3.47557C41.9727 3.18538 40.811 2.93277 39.5739 2.92099C30.7222 2.83669 23.0769 10.0417 20.3312 18.0771C20.1969 18.4702 19.7785 19.6588 19.7585 20.0374C19.4803 20.9804 19.3167 21.9608 19.2127 22.9324C18.849 26.3278 19.3483 29.691 21.0143 32.6978C21.725 33.9807 22.4951 34.9377 23.5356 35.9748L23.4604 36.031Z" fill="#F7F7F7"/>
<path d="M23.5356 35.9746C23.7041 36.129 23.9717 36.36 24.1122 36.5281C23.9236 36.391 23.6264 36.1853 23.4604 36.0308L23.5356 35.9746Z" fill="#E3E2E0"/>
<path d="M25.2663 36.6426C25.4264 36.7897 25.6102 36.9508 25.7633 37.1022C25.6004 37.0537 25.3593 36.8179 25.2383 36.6948L25.2663 36.6426Z" fill="#8C8C8C"/>
<path d="M40.3082 4.02604C43.6052 3.9069 46.8237 5.04906 49.3081 7.21988C52.1915 9.76343 53.6374 13.5982 53.8652 17.3726C54.1494 22.0799 52.5026 26.9373 49.8445 30.7862C49.248 31.636 48.6008 32.4492 47.9066 33.2213C45.0171 36.4834 40.7655 39.0622 36.444 39.7506C35.8265 39.849 35.2878 39.8884 34.6636 39.9259C30.7081 39.985 27.4069 38.8148 24.7246 35.8083C21.5415 32.2404 20.5373 27.5773 21.2104 22.923C21.8843 18.4271 23.8756 14.232 26.9329 10.8675C29.5895 7.9404 33.0042 5.54736 36.8646 4.51333C38.0388 4.19883 39.1028 4.084 40.3082 4.02604Z" fill="#F7F7F7"/>
<path d="M39.7759 6.57527L39.8177 6.57251C46.2581 6.18 51.2523 11.4088 51.5746 17.6526C52.0529 26.9201 44.7223 36.7147 35.1746 37.3216C28.231 37.4622 23.5973 32.7525 23.273 25.9108C22.8421 16.8212 30.3838 6.99878 39.7759 6.57527Z" fill="url(#paint0_linear_789_4872)"/>
<path d="M38.807 6.83857C40.8126 6.60636 43.3278 7.50032 44.8864 8.74427C47.26 10.6181 48.7069 13.5786 48.9942 16.5829C49.8588 25.6247 42.76 34.7783 33.7232 35.8214C33.6269 35.8316 33.5304 35.8405 33.4339 35.8481C32.0134 35.9767 30.5817 35.8814 29.1908 35.5657C28.2465 35.3444 28.1709 35.2344 27.4385 34.6242C25.0333 32.62 23.7012 29.5087 23.4675 26.4257C22.9463 19.5513 26.9469 12.4401 32.8026 8.92274C34.5596 7.86917 36.7563 6.99542 38.807 6.83857Z" fill="#F7F7F7"/>
<path d="M46.7984 8.8623C47.2651 9.1759 47.8946 9.75855 48.2717 10.1641C49.7572 11.7509 50.7581 13.7293 51.1562 15.8662C52.9054 24.8135 45.9178 35.2877 36.9143 36.937C34.3456 37.4076 31.2502 37.058 28.9819 35.7183C29.526 35.844 29.9646 36.0271 30.4885 36.1984C31.0921 36.3947 31.7021 36.5355 32.3198 36.6804C35.7593 37.4874 39.1002 36.2379 41.9819 34.4155C49.0986 29.9149 53.734 19.1242 48.8951 11.4402C48.3266 10.5361 47.6376 9.71379 46.8472 8.9956C46.8267 8.95559 46.8128 8.90543 46.7984 8.8623Z" fill="#F7F7F7"/>
<path d="M40.7362 6.74997C41.8854 6.66824 42.9777 7.0631 43.9547 7.62776C45.4895 8.49923 46.7906 9.72905 47.7471 11.2123C49.7963 14.3446 50.1436 18.0339 49.386 21.6423C48.3132 26.5741 45.3519 30.8897 41.1364 33.6649C38.8564 35.1829 36.2221 36.0845 33.4901 36.2819C32.6904 36.3395 31.6809 36.3368 30.9042 36.1734C30.6961 36.1266 30.4877 36.0631 30.2959 35.9697C33.5078 36.3661 36.7622 35.7229 39.582 34.1347C43.9848 31.6442 47.2277 27.5176 48.6066 22.6507C49.6157 19.0773 49.5083 15.1 47.6936 11.8014C46.4216 9.48917 44.201 7.57304 41.6161 6.94281C41.3345 6.87413 41.0399 6.83657 40.7622 6.75759L40.7362 6.74997Z" fill="#F7F7F7"/>
<path d="M46.8475 8.99564C46.6321 8.80855 46.4008 8.64279 46.2017 8.43848C46.3612 8.54395 46.6717 8.73877 46.7987 8.86234C46.8131 8.90547 46.827 8.95562 46.8475 8.99564Z" fill="#E3E2E0"/>
<path d="M5.49171 55.9785C5.26293 55.7744 4.93012 55.4875 4.73818 55.2572C4.38629 54.8432 4.22116 54.3022 4.28187 53.7622C4.3811 52.8274 5.06353 52.1944 5.65961 51.5282C6.15959 50.9691 6.66332 50.4134 7.17069 49.8609L11.1873 45.4366C12.6986 43.7555 14.2232 42.0863 15.7609 40.4293C16.0043 40.1678 16.2659 39.887 16.5006 39.62C17.334 38.6718 17.8967 37.9869 19.2654 38.1568C19.965 39.3904 20.8375 40.3282 22.2728 40.6405C22.9328 42.1196 21.8659 42.977 20.9636 43.9636L19.3199 45.7725L14.7906 50.7327L10.8944 54.9741C10.3654 55.5461 9.82492 56.1774 9.30607 56.6966C8.20726 57.7961 6.80489 57.4056 5.86709 56.3382C5.76489 56.2219 5.59255 56.1014 5.49171 55.9785Z" fill="#DB4431"/>
<path d="M5.49171 55.9785C5.26293 55.7744 4.93012 55.4875 4.73818 55.2572C4.38629 54.8432 4.22116 54.3022 4.28187 53.7622C4.3811 52.8274 5.06353 52.1944 5.65961 51.5282C6.15959 50.9691 6.66332 50.4134 7.17069 49.8609L11.1873 45.4366C12.6986 43.7555 14.2232 42.0863 15.7609 40.4293C16.0043 40.1678 16.2659 39.887 16.5006 39.62C17.334 38.6718 17.8967 37.9869 19.2654 38.1568L19.2096 38.1752C18.7882 38.3116 18.4366 38.3459 18.0852 38.6819C17.2771 39.4542 16.4929 40.3314 15.7398 41.1566L11.9819 45.2774L7.67641 50.0045L6.23213 51.5881C5.33393 52.5794 4.41169 53.4017 4.8684 54.8419C5.02623 55.3397 5.27525 55.5629 5.49171 55.9785Z" fill="#F7F7F7"/>
<path d="M22.3135 35.2119C23.3439 36.2211 23.8458 36.6142 25.0665 37.3979C24.1728 38.3703 23.2436 39.322 22.346 40.3031L22.3079 40.3278C22.2565 40.2973 21.9465 39.9061 21.8514 39.8049C21.2442 39.1585 20.4543 38.4188 19.6465 38.0474C19.7708 37.9301 19.8891 37.8095 20.0037 37.6827C20.7587 36.8474 21.5604 36.0478 22.3135 35.2119Z" fill="#F7F7F7"/>
<path d="M19.4795 38.1885C20.211 38.3255 21.7028 39.817 22.1643 40.4405C21.1203 40.315 19.9507 39.0631 19.4795 38.1885Z" fill="#DB4431"/>
</g>
<defs>
<linearGradient id="paint0_linear_789_4872" x1="25.52" y1="16.4758" x2="49.2771" y2="27.4062" gradientUnits="userSpaceOnUse">
<stop/>
<stop offset="1" stop-color="#2E2A28"/>
</linearGradient>
<clipPath id="clip0_789_4872">
<rect width="60" height="60" fill="white"/>
</clipPath>
</defs>
</svg>
