<svg width="60" height="60" viewBox="0 0 60 60" fill="none" xmlns="http://www.w3.org/2000/svg">
<g clip-path="url(#clip0_812_2894)">
<path d="M0 0H60V60H0V0Z" fill="#F7F7F7"/>
<path d="M2.81104 18.127C5.81642 20.1501 8.80628 22.1963 11.7804 24.2652C13.1712 25.2435 14.5736 26.2148 15.9967 27.1448C16.4143 27.4177 17.2095 28.0464 17.6199 28.2283C17.6955 28.1161 17.757 28.0231 17.8424 27.9171L17.9682 28.0352C17.7961 28.3167 17.647 28.5567 17.4561 28.8275C18.1343 29.3212 18.8739 29.7847 19.5649 30.2641C19.8639 30.4715 20.2626 30.7089 20.542 30.9291C20.4407 31.0807 20.3378 31.2314 20.2335 31.381C22.1849 32.3014 23.6206 32.8686 25.7852 33.2465C28.0324 30.7416 30.8905 30.9149 33.9029 31.2532L37.2073 31.6244C37.9288 31.7099 38.7796 31.8372 39.4883 31.8785C39.527 31.9567 39.5704 32.0378 39.6004 32.1192C39.8255 32.5825 40.2041 33.2076 40.4613 33.6967L43.334 39.0534C43.6907 39.7137 44.0422 40.3264 44.3911 40.999C44.6125 41.4309 44.842 41.8587 45.0796 42.2818C45.1925 42.4855 45.489 43.0012 45.5574 43.1991C45.5952 43.2646 45.6163 43.2953 45.6442 43.3662C44.3321 44.1844 42.9211 45.1137 41.6301 45.9712C41.8298 46.1872 42.0309 46.402 42.2333 46.6155C42.619 46.9945 43.0184 47.368 43.0274 47.9574C43.0315 48.3378 42.8831 48.704 42.615 48.974C42.3609 49.2288 42.0749 49.3376 41.7156 49.339C40.9258 49.3418 40.2878 48.5698 39.6518 48.0928C39.5473 48.1331 39.4979 48.1278 39.4585 48.2025C39.5089 48.2818 39.5517 48.3163 39.6187 48.3802C39.9343 48.7855 40.0724 49.3013 40.0015 49.8102C39.933 50.2991 39.6727 50.7406 39.2781 51.0374C38.356 51.7317 36.9987 51.4261 36.4769 50.392C36.4456 50.3015 36.4217 50.2339 36.3193 50.2279L36.3477 50.2957C37.8949 52.3554 35.3348 54.5434 33.7104 52.8834C33.6384 52.802 33.6067 52.7711 33.5025 52.7817L33.5164 52.8286C33.7068 53.1566 33.8212 53.427 33.8026 53.8219C33.7731 54.4509 33.4324 55.0704 32.8783 55.3827C32.4741 55.608 31.9964 55.6621 31.5519 55.533C31.1627 55.4206 30.8048 55.1665 30.5819 54.8269C30.5389 54.776 29.4841 54.1244 29.4354 54.1169L29.363 54.1823C29.1766 54.5268 28.9019 54.9 28.6772 55.2238C28.0983 56.058 27.03 56.3206 26.206 55.6601C25.8322 55.3582 25.5956 54.9186 25.5494 54.4404C25.4964 53.9194 25.6416 53.6209 25.9587 53.2367C25.8585 53.1848 25.75 53.1379 25.6469 53.0912C25.5817 53.171 25.5149 53.2495 25.4466 53.3267C25.1294 53.6781 24.7419 53.8739 24.2643 53.8921C23.7483 53.9151 23.2452 53.7265 22.8715 53.3698C22.4979 53.0204 22.2808 52.5351 22.2695 52.0237C22.262 51.4885 22.4729 50.991 22.8455 50.6094C22.8022 50.5639 22.5881 50.4293 22.5091 50.3699C21.4232 51.4537 19.6541 50.8943 19.2553 49.4533C19.0135 48.5798 19.6753 47.6668 20.1254 46.9527C19.4677 47.6312 18.7116 47.8728 17.8774 47.2926C17.4699 47.0151 17.1929 46.5839 17.1097 46.098C17.0246 45.5833 17.1562 45.2222 17.4439 44.8139C16.5965 44.1931 15.7392 43.5861 14.8722 42.993C14.3056 42.5974 13.7087 42.1546 13.1307 41.784C12.9264 42.0517 12.7597 42.3452 12.5447 42.6076C11.5425 41.9239 10.5415 41.1832 9.5295 40.4894C9.3427 40.7766 9.13557 41.0531 8.93348 41.33C8.65329 41.1854 7.7305 40.5157 7.43143 40.3081L4.48519 38.2684C4.01616 37.9401 3.31001 37.4051 2.83492 37.1209L2.81104 18.127Z" fill="#080717"/>
<path d="M13.2524 41.5791C13.5895 41.0465 14.0281 40.4401 14.3892 39.9179L16.1998 37.2788C17.4752 35.4117 18.8003 33.3783 20.1167 31.5605C20.4925 31.7214 20.8828 31.9275 21.2663 32.0967C21.9715 32.4038 22.6927 32.6725 23.4268 32.9019C24.1723 33.1353 24.8777 33.2429 25.5805 33.4455C24.3905 35.0378 23.6919 36.9431 23.5703 38.9271C23.5402 39.3642 23.5601 39.793 23.8754 40.1272C24.3587 40.6396 25.1651 40.6334 25.6695 40.1575C25.958 39.88 26.1777 39.5233 26.3929 39.183C27.3007 37.747 28.6769 35.5482 30.6668 36.6616C31.1757 36.9464 31.6498 37.4006 32.1268 37.7597C34.217 39.3262 36.2248 40.9996 38.1422 42.7733C39.2538 43.8155 40.2919 44.9343 41.3739 46.0064C41.6241 46.2543 41.8668 46.5109 42.1089 46.7667C42.1002 46.6872 42.0967 46.7141 42.1231 46.6417L42.2107 46.6753L42.2334 46.615C42.619 46.994 43.0185 47.3676 43.0274 47.957C43.0316 48.3373 42.8831 48.7036 42.6151 48.9736C42.361 49.2283 42.075 49.3371 41.7156 49.3385C40.9259 49.3413 40.2878 48.5693 39.6519 48.0923C39.5473 48.1326 39.498 48.1273 39.4586 48.202C39.5089 48.2813 39.5518 48.3158 39.6188 48.3797C39.9343 48.7851 40.0724 49.3009 40.0016 49.8097C39.933 50.2986 39.6728 50.7401 39.2782 51.0369C38.3561 51.7312 36.9988 51.4256 36.477 50.3915C36.4457 50.3011 36.4218 50.2334 36.3194 50.2275L36.3478 50.2952C37.8949 52.3549 35.3348 54.543 33.7104 52.8829C33.6385 52.8015 33.6068 52.7707 33.5026 52.7812L33.5165 52.8281C33.7069 53.1562 33.8213 53.4265 33.8027 53.8214C33.7731 54.4504 33.4324 55.0699 32.8784 55.3822C32.4741 55.6075 31.9965 55.6616 31.552 55.5325C31.1628 55.4201 30.8049 55.166 30.582 54.8264L30.7452 54.6993C30.578 54.3236 30.4113 53.983 30.1584 53.6584C30.1045 53.5892 29.9869 53.4375 29.9629 53.3619L30.0366 53.2399C30.1706 53.0444 30.2723 52.8285 30.3379 52.6006C30.5851 51.7288 30.1571 50.7647 29.2521 50.5892C28.7682 50.4954 28.4353 50.5534 27.8978 50.4158C28.0415 50.2325 28.1617 50.0642 28.279 49.8641C29.0453 48.5581 27.7284 46.8902 26.2856 47.3653C25.9921 47.4246 25.8462 47.2133 25.5745 47.1167C25.4406 47.0691 25.3386 47.05 25.2007 47.0281C25.653 46.4277 26.0139 46.0097 25.9431 45.2037C25.896 44.6755 25.6404 44.1877 25.2327 43.8485C24.8358 43.5242 24.3243 43.3748 23.8153 43.4347C22.9545 43.5291 22.6146 44.0198 22.1173 44.6408C22.0023 44.5617 21.9166 44.4823 21.8124 44.3905C21.8637 44.2135 21.8921 44.0809 21.8866 43.8939C21.8735 43.4884 21.6923 43.1066 21.3865 42.8401C20.4565 42.0256 19.2367 42.6092 18.5909 43.4488C18.282 43.8505 17.9328 44.2545 17.6082 44.6459C17.2857 44.4555 16.6342 43.9605 16.288 43.7179L13.2524 41.5791Z" fill="#FEFEFF"/>
<path d="M39.4116 48.4698C39.0759 48.2046 38.7694 47.8886 38.4354 47.6251C37.2717 46.707 36.1925 45.6995 35.0703 44.7331C34.5627 44.2937 34.0479 43.8626 33.5263 43.44C33.2746 43.2382 32.485 42.697 32.3862 42.4269L32.414 42.3975C32.5236 42.4191 32.6493 42.487 32.7356 42.5575C35.1354 44.5186 37.7362 46.2059 40.114 48.1927C40.583 48.5846 41.3995 49.3603 42.0519 49.0907L42.0652 49.0539C41.7004 48.308 41.848 47.6594 42.3421 47.0282L42.1087 46.7672C42.1 46.6878 42.0965 46.7146 42.1229 46.6422L42.2105 46.6758L42.2332 46.6155C42.6189 46.9945 43.0183 47.3681 43.0273 47.9575C43.0314 48.3379 42.883 48.7041 42.6149 48.9741C42.3608 49.2288 42.0748 49.3377 41.7155 49.339C40.9257 49.3418 40.2877 48.5698 39.6517 48.0928C39.5471 48.1331 39.4978 48.1278 39.4584 48.2025C39.5088 48.2818 39.5516 48.3163 39.6186 48.3802L39.4116 48.4698Z" fill="url(#paint0_linear_812_2894)"/>
<path d="M36.1791 50.4274C34.8241 49.2083 33.4407 48.0213 32.0298 46.8674C31.8245 46.6963 30.5262 45.6673 30.5054 45.5456C30.5794 45.4737 30.5371 45.4874 30.6264 45.4805C31.5117 46.0812 32.3336 46.9308 33.2306 47.5385C33.9489 48.0251 34.6675 48.5021 35.3949 48.975C35.7254 49.1899 36.203 49.4702 36.4866 49.7309C36.5141 49.9495 36.5394 50.0448 36.6284 50.2406C36.5668 50.2919 36.5206 50.3232 36.4771 50.3912C36.4458 50.3007 36.4219 50.233 36.3195 50.2271L36.3479 50.2948C36.3042 50.328 36.2143 50.3919 36.1791 50.4274Z" fill="#080717"/>
<path d="M31.8647 51.0479C32.1595 51.1677 33.0418 51.4468 33.2325 51.6331C33.471 51.8661 33.5667 52.3763 33.8308 52.7049C33.7924 52.7644 33.7543 52.8285 33.7104 52.8832C33.6385 52.8019 33.6068 52.771 33.5025 52.7815L33.5165 52.8285C33.4659 52.8965 33.4601 52.921 33.3813 52.9478L33.3639 52.9226C32.7794 52.0877 32.2837 51.8688 31.7199 51.2419C31.6854 51.1656 31.6904 51.1854 31.6738 51.1038L31.7134 51.0733C31.7794 51.0746 31.8057 51.0787 31.8647 51.0479Z" fill="#080717"/>
<path d="M39.6188 48.3799C39.9344 48.7852 40.0725 49.301 40.0017 49.8099C39.9331 50.2988 39.6729 50.7403 39.2783 51.0371C38.3562 51.7314 36.9989 51.4258 36.4771 50.3917C36.5206 50.3238 36.5668 50.2924 36.6283 50.2411C37.0786 51.1493 38.2466 51.5023 39.1004 50.9008C39.4757 50.636 39.7276 50.2306 39.7988 49.7769C39.8763 49.2626 39.7097 48.8659 39.4118 48.4695L39.6188 48.3799Z" fill="black"/>
<path d="M36.3478 50.2949C37.8949 52.3547 35.3348 54.5427 33.7104 52.8827C33.7543 52.8279 33.7924 52.7638 33.8309 52.7044C34.3752 53.3189 35.2165 53.4585 35.9017 52.9691C36.2763 52.7019 36.5279 52.2955 36.5999 51.841C36.6851 51.2856 36.4883 50.8602 36.1789 50.4275C36.2142 50.392 36.3041 50.3281 36.3478 50.2949Z" fill="black"/>
<path d="M33.5166 52.8281C33.707 53.1561 33.8213 53.4265 33.8028 53.8214C33.7732 54.4503 33.4325 55.0699 32.8785 55.3822C32.4742 55.6075 31.9965 55.6615 31.5521 55.5325C31.1629 55.4201 30.805 55.166 30.582 54.8264L30.7453 54.6993C30.9216 54.9684 31.1776 55.1758 31.4775 55.2926C31.864 55.4471 32.2707 55.4334 32.6501 55.2644C33.0412 55.0901 33.3443 54.764 33.4895 54.3612C33.6821 53.8361 33.6 53.4293 33.3813 52.9474C33.4602 52.9207 33.466 52.8962 33.5166 52.8281Z" fill="black"/>
<path d="M31.7201 51.2417C31.6526 51.1963 31.2826 50.8911 31.2237 50.8301C31.0266 50.626 29.8169 49.6619 29.77 49.5386L29.8012 49.4816L29.8678 49.4658C30.1305 49.5458 31.4285 50.7573 31.8279 51.0235L31.8648 51.0477C31.8058 51.0786 31.7795 51.0744 31.7135 51.0732L31.674 51.1036C31.6905 51.1853 31.6856 51.1654 31.7201 51.2417Z" fill="black"/>
<path d="M36.5519 41.0737C36.3832 40.9456 36.2038 40.7807 36.0429 40.6408C34.7958 39.5563 33.5122 38.5239 32.1824 37.5427C31.6716 37.1658 31.2366 36.7345 30.6656 36.4282C28.7243 35.3869 27.2525 37.3952 26.3544 38.8479C25.9526 39.4179 25.5466 40.3894 24.6935 40.2857C23.7471 40.1706 23.7171 39.379 23.7997 38.6413C24.2264 34.8334 26.3373 31.5032 30.502 31.2721C32.0335 31.1872 33.3556 31.4175 34.8655 31.583C36.4453 31.7484 38.0236 31.9271 39.6004 32.1192C39.8255 32.5825 40.204 33.2076 40.4612 33.6966L43.3339 39.0533C43.6906 39.7136 44.0422 40.3263 44.3911 40.9989C44.6124 41.4309 44.8419 41.8586 45.0796 42.2818C45.1924 42.4855 45.489 43.0011 45.5573 43.1991C44.5297 43.7745 43.5412 44.504 42.5367 45.1249C42.192 45.338 41.8293 45.5752 41.5047 45.8159C40.9365 45.3128 40.1597 44.4336 39.6025 43.8749C38.681 42.9627 37.7247 42.0864 36.7357 41.2477C36.978 41.0736 37.4234 40.8504 37.6974 40.7025C38.3979 40.3243 39.1034 39.9486 39.8092 39.5808C39.9404 39.5124 40.0774 39.4358 40.1171 39.2945L40.0784 39.2474C40.0547 39.2415 40.0309 39.2356 40.0072 39.2297C39.0336 39.7208 37.463 40.5804 36.5519 41.0737Z" fill="#FEFEFF"/>
<path d="M26.2857 47.365C27.7286 46.8899 29.0454 48.5578 28.2792 49.8639C28.1619 50.064 28.0417 50.2322 27.8979 50.4155C28.4355 50.5532 28.7684 50.4952 29.2522 50.589C30.1573 50.7644 30.5853 51.7285 30.3381 52.6004C30.2725 52.8282 30.1708 53.0441 30.0368 53.2397L29.963 53.3616C29.987 53.4372 30.1046 53.589 30.1585 53.6582C30.4114 53.9827 30.5781 54.3234 30.7454 54.6991L30.5821 54.8262C30.5392 54.7752 29.4843 54.1237 29.4357 54.1162L29.3633 54.1815C29.1768 54.526 28.9021 54.8992 28.6774 55.223C28.0985 56.0573 27.0303 56.3199 26.2062 55.6594C25.8325 55.3574 25.5958 54.9179 25.5497 54.4396C25.4966 53.9186 25.6419 53.6201 25.9589 53.2359C25.8588 53.1841 25.7502 53.1371 25.6472 53.0904C25.5819 53.1702 25.5151 53.2488 25.4468 53.3259C25.1297 53.6774 24.7421 53.8731 24.2645 53.8913C23.7485 53.9144 23.2454 53.7258 22.8718 53.3691C22.4981 53.0197 22.2811 52.5344 22.2697 52.023C22.2623 51.4877 22.4732 50.9903 22.8458 50.6086C22.866 50.6794 22.8629 50.6494 22.861 50.7008L22.8986 50.7266C22.9935 50.7079 22.9823 50.6906 23.0416 50.7203C23.3218 50.4455 23.6649 50.049 23.9373 49.753C24.3158 49.3433 24.7012 48.9399 25.0934 48.5432C25.5157 48.1115 25.7699 47.7873 26.3359 47.5421L26.3081 47.5037C26.6075 47.3705 27.3063 47.4833 27.5757 47.6584C28.1509 48.0324 28.4661 48.7058 28.3082 49.3882C28.2669 49.5663 28.0407 49.8989 28.0736 50.0294L28.1086 50.0168C28.1752 49.9202 28.2841 49.7886 28.3284 49.6792C28.7032 48.7532 28.206 47.7704 27.297 47.4276C27.0715 47.3426 26.5251 47.2929 26.2975 47.4351L26.2857 47.365Z" fill="#FEFEFF"/>
<path d="M26.026 53.4549C26.4912 52.9171 26.96 52.3825 27.4326 51.8513C27.7013 51.5489 27.9475 51.2583 28.2522 50.983C28.8983 50.3893 29.9516 50.9124 30.1549 51.6776C30.3036 52.237 30.1521 52.6536 29.8653 53.1175C29.7044 53.3414 29.3811 53.7725 29.2545 54.0062C29.2812 54.0645 29.2794 54.0761 29.2698 54.1393C29.3062 54.1574 29.3247 54.1689 29.3634 54.1814C29.1769 54.5259 28.9022 54.8991 28.6775 55.2229C28.0986 56.0571 27.0304 56.3197 26.2063 55.6592C25.8326 55.3573 25.5959 54.9177 25.5498 54.4395C25.4967 53.9184 25.642 53.62 25.959 53.2358C25.9918 53.2694 26.0179 53.2965 26.0493 53.3319C26.0399 53.3738 26.0284 53.4129 26.026 53.4549Z" fill="#FEFEFF"/>
<path d="M29.3634 54.1819C29.1769 54.5264 28.9022 54.8996 28.6775 55.2234C28.0986 56.0577 27.0304 56.3203 26.2063 55.6598C25.8326 55.3578 25.5959 54.9183 25.5498 54.44C25.4967 53.919 25.642 53.6205 25.959 53.2363C25.9918 53.27 26.0179 53.2971 26.0493 53.3324C26.0399 53.3744 26.0284 53.4135 26.026 53.4554C25.7719 53.8906 25.6439 54.1268 25.7909 54.6684C25.9037 55.0905 26.1866 55.447 26.5722 55.6526C26.9241 55.8419 27.3387 55.8767 27.7172 55.749C28.4181 55.5062 28.8239 54.5833 29.2545 54.0068C29.2812 54.065 29.2794 54.0767 29.2698 54.1398C29.3062 54.1579 29.3247 54.1695 29.3634 54.1819Z" fill="black"/>
<path d="M26.2857 47.365C27.7286 46.8899 29.0454 48.5578 28.2792 49.8639C28.1619 50.064 28.0417 50.2322 27.8979 50.4155C28.4355 50.5532 28.7684 50.4952 29.2522 50.589C30.1573 50.7644 30.5853 51.7285 30.3381 52.6004C30.2725 52.8282 30.1708 53.0441 30.0368 53.2397L29.963 53.3616C29.987 53.4372 30.1046 53.589 30.1585 53.6582C30.4114 53.9827 30.5781 54.3234 30.7454 54.6991L30.5821 54.8262C30.5392 54.7752 29.4843 54.1237 29.4357 54.1162L29.3633 54.1815C29.3246 54.1691 29.3061 54.1576 29.2697 54.1394C29.2793 54.0763 29.2811 54.0646 29.2544 54.0064C29.381 53.7727 29.7043 53.3415 29.8652 53.1176C30.152 52.6538 30.3035 52.2371 30.1548 51.6777C29.9515 50.9126 28.8982 50.3894 28.2521 50.9831C27.9474 51.2585 27.7012 51.549 27.4325 51.8515C26.9599 52.3827 26.4911 52.9172 26.0259 53.455C26.0283 53.4131 26.0398 53.374 26.0492 53.332C26.0178 53.2967 25.9917 53.2696 25.9589 53.2359C25.8588 53.1841 25.7502 53.1371 25.6472 53.0904C25.5819 53.1702 25.5151 53.2488 25.4468 53.3259C25.1297 53.6774 24.7421 53.8731 24.2645 53.8913C23.7485 53.9144 23.2454 53.7258 22.8718 53.3691C22.4981 53.0197 22.2811 52.5344 22.2697 52.023C22.2623 51.4877 22.4732 50.9903 22.8458 50.6086C22.866 50.6794 22.8629 50.6494 22.861 50.7008L22.8986 50.7266C22.9935 50.7079 22.9823 50.6906 23.0416 50.7203C22.9823 50.7899 22.9252 50.8614 22.8703 50.9345C22.2364 51.7798 22.3819 52.7451 23.2182 53.3784C23.7398 53.7627 24.5306 53.8241 25.0404 53.3909C25.3658 53.1143 25.6168 52.8056 25.889 52.4815C26.5843 51.6599 27.2631 50.8581 27.9286 50.0092C28.5272 49.2457 28.3816 48.3072 27.6075 47.7438C27.2285 47.468 26.7792 47.4639 26.3359 47.5421L26.3081 47.5037C26.6075 47.3705 27.3063 47.4833 27.5757 47.6584C28.1509 48.0324 28.4661 48.7058 28.3082 49.3882C28.2669 49.5663 28.0407 49.8989 28.0736 50.0294L28.1086 50.0168C28.1752 49.9202 28.2841 49.7886 28.3284 49.6792C28.7032 48.7532 28.206 47.7704 27.297 47.4276C27.0715 47.3426 26.5251 47.2929 26.2975 47.4351L26.2857 47.365Z" fill="#080717"/>
<path d="M17.3091 29.0166C17.6615 29.1816 18.3976 29.7209 18.7511 29.9659C19.1973 30.275 19.8123 30.6687 20.2273 30.9983L12.538 42.2515C12.5237 42.2593 12.4696 42.2659 12.4626 42.2612C11.531 41.6403 10.5733 40.9457 9.65967 40.3078C10.4577 39.0589 11.3963 37.7508 12.2387 36.5257C13.9516 34.0381 15.6418 31.535 17.3091 29.0166Z" fill="#FEFEFF"/>
<path d="M23.7978 43.6295C24.228 43.5927 24.5874 43.6482 24.9566 43.8919C25.361 44.159 25.638 44.5805 25.7229 45.0577C25.8168 45.5831 25.6804 46.0548 25.3585 46.4788C24.8739 47.1168 24.3939 47.7246 23.881 48.3548C23.3233 49.0401 22.7131 49.85 22.0797 50.4633C21.9363 50.6022 21.611 50.6885 21.4112 50.7238C20.9935 50.7645 20.5742 50.664 20.2203 50.4384C19.0634 49.7033 19.3082 48.5115 20.0212 47.5536C20.5663 46.8211 21.1376 46.0905 21.7354 45.3994C22.3786 44.6557 22.7732 43.8407 23.7978 43.6295Z" fill="#FEFEFF"/>
<path d="M20.0916 42.692C20.4298 42.6548 20.7242 42.6719 21.0265 42.8465C21.3315 43.0244 21.552 43.3177 21.6382 43.6602C21.7315 44.0274 21.6329 44.5431 21.3877 44.8637C20.8341 45.5874 20.2379 46.506 19.591 47.1392C19.4515 47.2758 19.1415 47.3642 18.9568 47.4043C18.6359 47.4023 18.3796 47.3368 18.1023 47.1767C17.7275 46.9647 17.4546 46.61 17.3458 46.1933C17.2706 45.8956 17.2961 45.3668 17.5018 45.136C18.2546 44.2915 18.9337 42.9623 20.0916 42.692Z" fill="#FEFEFF"/>
<path d="M57.2152 21.4717L57.2162 41.0884C55.197 42.2072 53.0113 43.3293 50.9625 44.3964C50.778 44.0156 50.5722 43.645 50.3703 43.273C49.1365 43.8444 47.7663 44.3866 46.5021 44.931C46.1922 44.4056 45.9367 43.8928 45.6443 43.3655C45.6164 43.2946 45.5953 43.2639 45.5575 43.1984C45.4891 43.0005 45.1926 42.4849 45.0797 42.2811C44.8421 41.858 44.6125 41.4302 44.3912 40.9983C44.0423 40.3257 43.6907 39.713 43.3341 39.0527L40.4613 33.696C40.2042 33.207 39.8256 32.5818 39.6005 32.1185C39.5705 32.0371 39.5271 31.956 39.4883 31.8778C39.4112 31.746 39.3306 31.5891 39.2568 31.4532C39.569 31.2435 39.9663 31.0478 40.2975 30.8619C41.108 30.4072 41.9581 29.9938 42.765 29.5354C42.6835 29.4172 42.6448 29.3258 42.584 29.1972C42.6032 29.1606 42.6144 29.1373 42.631 29.0985L42.6464 29.0623C42.6992 29.0913 42.7273 29.1105 42.7769 29.1452C42.937 29.1729 44.22 28.4415 44.4395 28.3225C45.3204 27.8395 46.2044 27.3621 47.0915 26.8904L57.2152 21.4717Z" fill="#F7F7F7"/>
<path d="M42.765 29.5361C42.912 29.7133 43.3132 30.4629 43.4463 30.7014L44.8386 33.2085L50.3703 43.2737C49.1365 43.8451 47.7663 44.3873 46.5021 44.9318C46.1922 44.4063 45.9367 43.8935 45.6443 43.3663C45.6164 43.2953 45.5953 43.2646 45.5575 43.1991C45.4891 43.0012 45.1926 42.4856 45.0797 42.2819C44.8421 41.8587 44.6125 41.431 44.3912 40.999C44.0423 40.3264 43.6907 39.7137 43.3341 39.0534L40.4613 33.6967C40.2042 33.2077 39.8256 32.5825 39.6005 32.1192C39.5705 32.0378 39.5271 31.9567 39.4883 31.8785C39.4112 31.7467 39.3306 31.5898 39.2568 31.454C39.569 31.2443 39.9663 31.0485 40.2975 30.8626C41.108 30.4079 41.9581 29.9945 42.765 29.5361Z" fill="#DB4431"/>
<path d="M17.7517 13.38C17.7645 11.9851 18.5862 11.1878 19.9946 11.2251C20.232 11.2314 20.4944 11.2256 20.7339 11.2262L22.688 11.2283L29.2039 11.225L41.6172 11.2287C43.635 11.2274 45.6554 11.2227 47.6735 11.2129C48.1549 11.2106 48.5161 11.3714 48.8556 11.7057C49.0642 11.9111 49.2826 12.296 49.3194 12.5852C49.3767 13.0356 49.3585 13.5629 49.3588 14.0223L49.3599 16.3531L49.3611 24.7849C50.7502 24.0646 52.1769 23.2438 53.5648 22.542C54.061 22.2912 56.9476 20.6115 57.2278 20.5971L57.2443 20.6416C57.163 20.7781 57.0343 20.8761 56.8961 20.9534C55.2877 21.8537 53.6585 22.708 52.0342 23.5773L45.4247 27.1584C44.6491 27.5739 43.2618 28.2376 42.5607 28.7033C42.604 28.7933 42.7531 29.0765 42.7771 29.1457C42.7276 29.111 42.6994 29.0918 42.6466 29.0627L42.6313 29.099C42.6146 29.1377 42.6035 29.1611 42.5843 29.1977C42.4623 28.977 42.3751 28.824 42.2838 28.5912C42.9456 28.2605 43.6293 27.8633 44.2887 27.5146C45.1799 27.0433 46.1272 26.5595 46.9952 26.0476L46.9699 18.0067L46.9718 15.7365C46.9719 14.986 47.1001 14.4945 46.544 13.9375C46.0295 13.4221 45.4251 13.5533 44.7706 13.5597C44.2413 13.5646 43.7118 13.5669 43.1824 13.5663L37.401 13.5665L17.9608 13.572C17.3917 13.6001 16.984 13.6623 16.5685 14.1137C16.1195 14.6016 16.2007 15.3118 16.1994 15.9319L16.1962 17.6684L16.1765 23.5566C16.1759 23.781 16.1907 24.23 16.1551 24.4504C16.1498 24.4829 16.106 24.4819 16.064 24.4915C15.9498 24.4182 15.988 23.4374 15.9884 23.2389L15.9884 21.0035L15.9942 17.0773C15.9943 16.3818 15.9829 15.6549 16.0099 14.9606C16.0214 14.6663 16.1148 14.3957 16.2815 14.1506C16.5422 13.7722 16.9375 13.5074 17.3868 13.4106C17.5084 13.3856 17.6281 13.3797 17.7517 13.38Z" fill="#DB4431"/>
<path d="M17.7517 13.38C17.7645 11.9851 18.5862 11.1878 19.9946 11.2251C20.232 11.2314 20.4944 11.2256 20.7339 11.2262L22.688 11.2283L29.2039 11.225L41.6172 11.2287C43.635 11.2274 45.6554 11.2227 47.6735 11.2129C48.1549 11.2106 48.5161 11.3714 48.8556 11.7057C49.0642 11.9111 49.2826 12.296 49.3194 12.5852C49.3767 13.0356 49.3585 13.5629 49.3588 14.0223L49.3599 16.3531L49.3611 24.7849C50.7502 24.0646 52.1769 23.2438 53.5648 22.542C54.061 22.2912 56.9476 20.6115 57.2278 20.5971L57.2443 20.6416C57.163 20.7781 57.0343 20.8761 56.8961 20.9534C55.2877 21.8537 53.6585 22.708 52.0342 23.5773L45.4247 27.1584C44.6491 27.5739 43.2618 28.2376 42.5607 28.7033C42.604 28.7933 42.7531 29.0765 42.7771 29.1457C42.7276 29.111 42.6994 29.0918 42.6466 29.0627L42.6313 29.099C42.6146 29.1377 42.6035 29.1611 42.5843 29.1977C42.4623 28.977 42.3751 28.824 42.2838 28.5912C42.9456 28.2605 43.6293 27.8633 44.2887 27.5146C45.1799 27.0433 46.1272 26.5595 46.9952 26.0476C47.3032 25.916 47.6857 25.69 47.9833 25.531C48.3745 25.3219 48.773 25.115 49.1609 24.9011L49.1689 16.4514L49.167 14.072C49.1659 13.617 49.1827 13.1144 49.1277 12.6692C49.0643 12.1557 48.6329 11.6567 48.151 11.492C47.949 11.4229 47.7287 11.4098 47.5157 11.4057C45.8647 11.4133 44.2139 11.4201 42.563 11.4182L29.2295 11.4137L22.7169 11.4185L20.7371 11.4229C19.6907 11.4257 18.7069 11.3207 18.1318 12.4156C17.9446 12.772 17.9621 13.1819 17.9608 13.572C17.3917 13.6001 16.984 13.6623 16.5685 14.1137C16.1195 14.6016 16.2007 15.3118 16.1994 15.9319L16.1962 17.6684L16.1765 23.5566C16.1759 23.781 16.1907 24.23 16.1551 24.4504C16.1498 24.4829 16.106 24.4819 16.064 24.4915C15.9498 24.4182 15.988 23.4374 15.9884 23.2389L15.9884 21.0035L15.9942 17.0773C15.9943 16.3818 15.9829 15.6549 16.0099 14.9606C16.0214 14.6663 16.1148 14.3957 16.2815 14.1506C16.5422 13.7722 16.9375 13.5074 17.3868 13.4106C17.5084 13.3856 17.6281 13.3797 17.7517 13.38Z" fill="black"/>
<path d="M17.8423 27.9166C17.8537 27.8739 17.8753 27.8431 17.8517 27.802C17.7587 27.6405 14.8836 25.7237 14.4825 25.452C13.9559 25.0951 13.4448 24.715 12.9227 24.3516C11.255 23.1906 9.5866 22.0192 7.90203 20.8834C6.68416 20.0684 5.47488 19.2406 4.27431 18.4003C3.97767 18.1935 3.67845 17.9904 3.37671 17.7911C3.1504 17.644 2.79973 17.5301 2.80775 17.2344L2.84501 17.2119C3.06327 17.2862 3.7799 17.8164 4.02156 17.9834L6.52115 19.7177C9.0875 21.4474 11.6376 23.2011 14.171 24.9787C15.4535 25.8613 16.9114 26.8163 18.1621 27.7356C18.1005 27.831 18.0322 27.9431 17.9681 28.0348L17.8423 27.9166Z" fill="black"/>
<path d="M21.4561 20.8743C21.8874 20.8428 22.8983 20.8746 23.3709 20.8744L27.4928 20.8763L41.397 20.8733C41.4441 20.8739 41.4215 20.8662 41.4613 20.905C41.3298 20.9914 38.5676 20.9532 38.1484 20.9526L25.9743 20.9475L22.8406 20.9524C22.6375 20.953 21.6281 20.9688 21.4747 20.9408L21.4561 20.8743Z" fill="#DB4431" fill-opacity="0.2"/>
<path d="M21.4243 25.8529C21.5555 25.8292 22.0077 25.8376 22.1536 25.8379L23.5848 25.8416L28.8391 25.8555L36.2638 25.844L38.3755 25.8365C38.7243 25.835 39.2907 25.8178 39.6169 25.8534C39.5015 25.9345 39.3672 25.9175 39.222 25.9183C38.0385 25.9254 36.855 25.9123 35.6712 25.9149L26.9815 25.9189L23.1987 25.9258C22.6657 25.9267 22.1089 25.9288 21.5744 25.9318C21.4736 25.9324 21.4753 25.9119 21.4243 25.8529Z" fill="#DB4431" fill-opacity="0.2"/>
<path d="M3 18L17.5 28.5L9 41L3 37V18Z" fill="#F7F7F7"/>
</g>
<defs>
<linearGradient id="paint0_linear_812_2894" x1="34.1118" y1="46.9991" x2="41.6439" y2="44.1978" gradientUnits="userSpaceOnUse">
<stop stop-color="#050210"/>
<stop offset="1" stop-color="#181931"/>
</linearGradient>
<clipPath id="clip0_812_2894">
<rect width="60" height="60" fill="white"/>
</clipPath>
</defs>
</svg>
