<svg width="62" height="62" viewBox="0 0 62 62" fill="none" xmlns="http://www.w3.org/2000/svg">
<path d="M22.0417 22.2594C24.4417 26.3472 28.3 29.6911 33.025 31.7711L36.6917 28.5861C37.15 28.1889 37.8083 28.0733 38.3833 28.2322C40.25 28.7667 42.2583 29.0556 44.3333 29.0556C45.2583 29.0556 46 29.6983 46 30.5V35.5556C46 36.3572 45.2583 37 44.3333 37C28.6833 37 16 26.0078 16 12.4444C16 11.6428 16.75 11 17.6667 11H23.5C24.425 11 25.1667 11.6428 25.1667 12.4444C25.1667 14.2428 25.5 15.9833 26.1167 17.6011C26.3 18.0994 26.1667 18.67 25.7083 19.0672L22.0417 22.2594Z" fill="currentColor"/>
</svg>
