<svg width="62" height="62" viewBox="0 0 62 62" fill="none" xmlns="http://www.w3.org/2000/svg">
<path d="M22.0417 22.2594C24.4417 26.3472 28.3 29.6911 33.025 31.7711L36.6917 28.5861C37.15 28.1889 37.8083 28.0733 38.3833 28.2322C40.25 28.7667 42.2583 29.0556 44.3333 29.0556C45.2583 29.0556 46 29.6983 46 30.5V35.5556C46 36.3572 45.2583 37 44.3333 37C28.6833 37 16 26.0078 16 12.4444C16 11.6428 16.75 11 17.6667 11H23.5C24.425 11 25.1667 11.6428 25.1667 12.4444C25.1667 14.2428 25.5 15.9833 26.1167 17.6011C26.3 18.0994 26.1667 18.67 25.7083 19.0672L22.0417 22.2594Z" fill="#A0A0A0"/>
<path d="M5.87 49H10.93V56H10.03V49.8H6.77V56H5.87V49ZM14.6269 56.2C14.1202 56.2 13.6902 56.0933 13.3369 55.88C12.9835 55.6667 12.7135 55.3567 12.5269 54.95C12.3469 54.5367 12.2569 54.0367 12.2569 53.45C12.2569 52.8967 12.3469 52.4233 12.5269 52.03C12.7135 51.63 12.9835 51.3267 13.3369 51.12C13.6969 50.9067 14.1302 50.8 14.6369 50.8C15.4569 50.8 16.0735 51.0333 16.4869 51.5C16.9069 51.9667 17.1169 52.6167 17.1169 53.45C17.1169 54.33 16.9069 55.01 16.4869 55.49C16.0669 55.9633 15.4469 56.2 14.6269 56.2ZM14.6469 55.5C15.1802 55.5 15.5735 55.3333 15.8269 55C16.0869 54.6667 16.2169 54.1567 16.2169 53.47C16.2169 52.8167 16.0869 52.3267 15.8269 52C15.5735 51.6667 15.1869 51.5 14.6669 51.5C14.1535 51.5 13.7735 51.66 13.5269 51.98C13.2802 52.2933 13.1569 52.7833 13.1569 53.45C13.1569 54.13 13.2802 54.6433 13.5269 54.99C13.7735 55.33 14.1469 55.5 14.6469 55.5ZM20.0081 56.2C19.5281 56.2 19.1215 56.11 18.7881 55.93C18.4548 55.75 18.1748 55.5 17.9481 55.18L18.4781 54.65C18.6448 54.9367 18.8448 55.15 19.0781 55.29C19.3181 55.43 19.6115 55.5 19.9581 55.5C20.3248 55.5 20.6281 55.42 20.8681 55.26C21.1148 55.1 21.2381 54.8533 21.2381 54.52C21.2381 54.3 21.1748 54.12 21.0481 53.98C20.9215 53.84 20.7248 53.74 20.4581 53.68C20.1915 53.62 19.8481 53.6033 19.4281 53.63V53.04C20.0081 53.0067 20.4081 52.93 20.6281 52.81C20.8548 52.6833 20.9681 52.4833 20.9681 52.21C20.9681 52.0033 20.9215 51.85 20.8281 51.75C20.7415 51.65 20.6281 51.5833 20.4881 51.55C20.3548 51.5167 20.2181 51.5 20.0781 51.5C19.7115 51.5 19.4081 51.57 19.1681 51.71C18.9348 51.8433 18.7315 52.0167 18.5581 52.23L18.0281 51.7C18.2348 51.4333 18.5148 51.2167 18.8681 51.05C19.2281 50.8833 19.6548 50.8 20.1481 50.8C20.5815 50.8 20.9215 50.8633 21.1681 50.99C21.4215 51.1167 21.5981 51.28 21.6981 51.48C21.8048 51.6733 21.8581 51.88 21.8581 52.1C21.8581 52.4733 21.7415 52.7633 21.5081 52.97C21.2815 53.17 20.9515 53.27 20.5181 53.27C20.8581 53.27 21.1481 53.32 21.3881 53.42C21.6281 53.5133 21.8115 53.6533 21.9381 53.84C22.0648 54.02 22.1281 54.2433 22.1281 54.51C22.1281 54.8167 22.0448 55.1 21.8781 55.36C21.7181 55.6133 21.4815 55.8167 21.1681 55.97C20.8548 56.1233 20.4681 56.2 20.0081 56.2ZM23.3293 51H25.4193C26.0593 51 26.5126 51.09 26.7793 51.27C27.0526 51.45 27.1893 51.75 27.1893 52.17C27.1893 52.5167 27.096 52.7767 26.9093 52.95C26.7293 53.1233 26.416 53.2567 25.9693 53.35C26.4893 53.3767 26.8726 53.4967 27.1193 53.71C27.366 53.9233 27.4893 54.2367 27.4893 54.65C27.4893 54.95 27.4226 55.2 27.2893 55.4C27.156 55.6 26.9493 55.75 26.6693 55.85C26.3893 55.95 26.026 56 25.5793 56H23.3293V51ZM25.2493 53.16C25.576 53.16 25.8293 53.0967 26.0093 52.97C26.196 52.8433 26.2893 52.6533 26.2893 52.4C26.2893 52.1533 26.1993 51.9767 26.0193 51.87C25.846 51.7567 25.596 51.7 25.2693 51.7H24.2293V53.16H25.2493ZM25.4393 55.3C25.826 55.3 26.1126 55.2333 26.2993 55.1C26.4926 54.9667 26.5893 54.77 26.5893 54.51C26.5893 54.2433 26.4926 54.0567 26.2993 53.95C26.106 53.8367 25.816 53.78 25.4293 53.78H24.2293V55.3H25.4393ZM30.7206 56.2C30.214 56.2 29.784 56.0933 29.4306 55.88C29.0773 55.6667 28.8073 55.3567 28.6206 54.95C28.4406 54.5367 28.3506 54.0367 28.3506 53.45C28.3506 52.8967 28.4406 52.4233 28.6206 52.03C28.8073 51.63 29.0773 51.3267 29.4306 51.12C29.7906 50.9067 30.224 50.8 30.7306 50.8C31.5506 50.8 32.1673 51.0333 32.5806 51.5C33.0006 51.9667 33.2106 52.6167 33.2106 53.45C33.2106 54.33 33.0006 55.01 32.5806 55.49C32.1606 55.9633 31.5406 56.2 30.7206 56.2ZM30.7406 55.5C31.274 55.5 31.6673 55.3333 31.9206 55C32.1806 54.6667 32.3106 54.1567 32.3106 53.47C32.3106 52.8167 32.1806 52.3267 31.9206 52C31.6673 51.6667 31.2806 51.5 30.7606 51.5C30.2473 51.5 29.8673 51.66 29.6206 51.98C29.374 52.2933 29.2506 52.7833 29.2506 53.45C29.2506 54.13 29.374 54.6433 29.6206 54.99C29.8673 55.33 30.2406 55.5 30.7406 55.5ZM34.4719 51H35.3719V53.05H37.9019V51H38.8019V56H37.9019V53.85H35.3719V56H34.4719V51ZM40.3996 51H41.2996V54.73L44.0096 51H44.8896V56H43.9896V52.26L41.2696 56H40.3996V51ZM47.8734 51.7H46.1134V51H50.5234V51.7H48.7734V56H47.8734V51.7ZM51.7473 51H52.6473V55.3H53.8073C54.1873 55.3 54.4473 55.2133 54.5873 55.04C54.7339 54.8667 54.8073 54.6267 54.8073 54.32C54.8073 54.02 54.7473 53.7833 54.6273 53.61C54.5139 53.4367 54.2939 53.35 53.9673 53.35H51.9973V52.65H53.9173C54.5106 52.65 54.9573 52.7933 55.2573 53.08C55.5573 53.3667 55.7073 53.7667 55.7073 54.28C55.7073 54.8067 55.5606 55.2267 55.2673 55.54C54.9806 55.8467 54.5573 56 53.9973 56H51.7473V51Z" fill="#A0A0A0"/>
</svg>
