<svg width="62" height="62" viewBox="0 0 62 62" fill="none" xmlns="http://www.w3.org/2000/svg">
<path fill-rule="evenodd" clip-rule="evenodd" d="M36.5061 11.0276C38.2533 11.0275 38.8791 10.6868 39.7492 12.4026L40.343 13.5676C40.8399 14.5195 41.6218 15.7597 41.9875 16.7561L43.8713 16.7541C44.2616 16.7524 44.5473 16.645 44.886 16.9045C45.3642 17.2711 45.1972 18.224 44.6184 18.2912C44.0763 18.3542 43.3952 18.3211 42.8322 18.3196C42.9477 18.5674 43.196 18.9696 43.341 19.2365L44.5168 21.4162C46.1096 24.3723 45.9025 24.6193 45.9641 27.8069C45.9969 29.5035 46.2776 30.6883 44.5373 31.4768C44.5192 32.7898 44.7871 34.2269 43.8401 35.2307C42.9242 36.2008 41.9138 35.9639 40.7483 35.9963C38.6858 36.0536 38.1596 34.7982 38.1594 32.9035L38.1604 31.5217H23.8645L23.8654 32.8733C23.8658 35.1042 23.1997 35.9435 20.9992 35.9387L19.9475 35.9436C17.9577 35.9568 17.4125 34.6074 17.4113 32.7571V31.4768C15.6383 30.5288 16.0517 29.3465 16.0217 27.5354C16.0063 26.6066 16.0066 25.645 16.1369 24.7268C16.4052 22.8765 18.2744 20.0934 19.1838 18.3196L18.1809 18.3215C17.6668 18.3261 16.7257 18.4191 16.7834 17.552C16.8452 16.6253 17.7749 16.7541 18.4084 16.7541L20.0061 16.7561C20.2389 16.3384 20.4228 15.9447 20.6418 15.5266L21.7697 13.3811C22.4323 12.0991 22.608 11.1626 24.1311 11.0285L36.5061 11.0276ZM21.2092 31.5207L18.884 31.5217C18.8831 31.9814 18.8325 33.3115 18.9192 33.6604C19.1797 34.7092 20.4874 34.447 21.2902 34.4377C21.6242 34.4339 21.879 34.3906 22.1506 34.1701C22.4934 33.589 22.4279 33.4126 22.427 32.7561L22.424 31.5217C22.0379 31.5084 21.5995 31.5205 21.2092 31.5207ZM40.799 31.5217C40.4316 31.5219 39.9917 31.5371 39.633 31.5217L39.6311 32.8801C39.6276 34.6891 40.0165 34.4327 41.4133 34.4367C42.0461 34.4386 42.2872 34.5817 42.8322 34.1701C43.1671 33.5866 43.0824 33.503 43.0774 32.844L43.0754 31.5217H40.799ZM20.9924 23.3967C19.0709 23.5287 18.9897 26.0234 20.6096 26.4016C20.8561 26.4587 21.1648 26.4209 21.4231 26.4192L22.7785 26.4172C24.6066 26.5463 24.7456 23.4056 22.7404 23.3996C22.1549 23.3978 21.5741 23.3885 20.9924 23.3967ZM39.7297 23.3967C39.1102 23.4326 38.728 23.4504 38.2805 23.9426C37.734 24.5439 37.771 25.4927 38.3811 26.0344C38.823 26.4265 39.3527 26.4159 39.9084 26.4172H40.7736C41.3662 26.4003 41.7357 26.41 42.1897 25.9465C42.754 25.3703 42.6507 24.3231 42.0695 23.7961C41.6275 23.3951 41.1229 23.401 40.5608 23.3977L39.7297 23.3967ZM28.4592 24.6399C28.0593 24.64 27.7361 24.9646 27.7385 25.3645C27.741 25.7666 28.063 26.0966 28.4651 26.0969C28.9753 26.097 29.4913 26.0917 29.9944 26.092H33.6037C34.0047 26.092 34.3303 25.7664 34.3303 25.3654C34.3301 24.9647 34.0046 24.6399 33.6037 24.6399H28.4592ZM23.8645 12.5666C22.8433 14.6091 21.7266 16.5883 20.6828 18.6174C20.5859 18.8058 20.476 19.0501 20.3527 19.219H38.2238L40.4846 19.2209C40.8949 19.2229 41.2704 19.2545 41.6819 19.219C40.9871 17.9873 40.3227 16.7484 39.6604 15.4983L38.5432 13.343C38.4415 13.1486 38.201 12.7449 38.1604 12.5666H23.8645Z" fill="#A0A0A0"/>
<path d="M16.04 56L14.39 52.91H12.15L12.08 51.94H14.33L16.03 49H17.33L15.25 52.33L17.37 56H16.04ZM11.81 56V49H12.96V56H11.81ZM20.1692 56.2C19.7226 56.2 19.3359 56.0833 19.0092 55.85C18.6826 55.6167 18.4292 55.2967 18.2492 54.89C18.0692 54.4767 17.9792 54 17.9792 53.46C17.9792 52.96 18.0592 52.51 18.2192 52.11C18.3859 51.7033 18.6259 51.3833 18.9392 51.15C19.2526 50.9167 19.6359 50.8 20.0892 50.8C20.7226 50.8 21.2026 51.03 21.5292 51.49C21.8626 51.95 22.0292 52.6167 22.0292 53.49C22.0292 54.35 21.8692 55.0167 21.5492 55.49C21.2359 55.9633 20.7759 56.2 20.1692 56.2ZM20.4192 55.33C20.6992 55.33 20.9392 55.25 21.1392 55.09C21.3392 54.93 21.4959 54.71 21.6092 54.43C21.7226 54.1433 21.7792 53.8233 21.7792 53.47C21.7792 53.11 21.7226 52.7967 21.6092 52.53C21.4959 52.2567 21.3326 52.0467 21.1192 51.9C20.9126 51.7467 20.6726 51.67 20.3992 51.67C20.0059 51.67 19.6959 51.8267 19.4692 52.14C19.2426 52.4533 19.1292 52.8867 19.1292 53.44C19.1292 54.02 19.2459 54.48 19.4792 54.82C19.7126 55.16 20.0259 55.33 20.4192 55.33ZM21.7792 56V51H22.9292V56H21.7792ZM25.7163 51.85H24.0163V51H28.5563V51.85H26.8663V56H25.7163V51.85ZM31.3802 56.2C30.9335 56.2 30.5468 56.0833 30.2202 55.85C29.8935 55.6167 29.6402 55.2967 29.4602 54.89C29.2802 54.4767 29.1902 54 29.1902 53.46C29.1902 52.96 29.2702 52.51 29.4302 52.11C29.5968 51.7033 29.8368 51.3833 30.1502 51.15C30.4635 50.9167 30.8468 50.8 31.3002 50.8C31.9335 50.8 32.4135 51.03 32.7402 51.49C33.0735 51.95 33.2402 52.6167 33.2402 53.49C33.2402 54.35 33.0802 55.0167 32.7602 55.49C32.4468 55.9633 31.9868 56.2 31.3802 56.2ZM31.6302 55.33C31.9102 55.33 32.1502 55.25 32.3502 55.09C32.5502 54.93 32.7068 54.71 32.8202 54.43C32.9335 54.1433 32.9902 53.8233 32.9902 53.47C32.9902 53.11 32.9335 52.7967 32.8202 52.53C32.7068 52.2567 32.5435 52.0467 32.3302 51.9C32.1235 51.7467 31.8835 51.67 31.6102 51.67C31.2168 51.67 30.9068 51.8267 30.6802 52.14C30.4535 52.4533 30.3402 52.8867 30.3402 53.44C30.3402 54.02 30.4568 54.48 30.6902 54.82C30.9235 55.16 31.2368 55.33 31.6302 55.33ZM32.9902 56V51H34.1402V56H32.9902ZM35.2072 55.3C35.2539 55.3067 35.2972 55.3167 35.3372 55.33C35.3772 55.3367 35.4205 55.34 35.4672 55.34C35.6472 55.34 35.7772 55.2033 35.8572 54.93C35.9372 54.65 35.9872 54.1933 36.0072 53.56C36.0339 52.9267 36.0472 52.0733 36.0472 51H40.0372V56H38.8872V51.95H37.1872C37.1872 52.8167 37.1639 53.5267 37.1172 54.08C37.0772 54.6333 37.0005 55.0633 36.8872 55.37C36.7739 55.6767 36.6105 55.89 36.3972 56.01C36.1905 56.1367 35.9139 56.2 35.5672 56.2C35.4805 56.2 35.3872 56.1933 35.2872 56.18C35.1939 56.1667 35.1039 56.1533 35.0172 56.14L35.2072 55.3ZM43.6156 56.2C43.0956 56.2 42.6523 56.0933 42.2856 55.88C41.9256 55.6667 41.649 55.3567 41.4556 54.95C41.2623 54.5367 41.1656 54.0367 41.1656 53.45C41.1656 52.8967 41.2623 52.4233 41.4556 52.03C41.649 51.63 41.929 51.3267 42.2956 51.12C42.6623 50.9067 43.1023 50.8 43.6156 50.8C44.449 50.8 45.079 51.0333 45.5056 51.5C45.939 51.9667 46.1556 52.6167 46.1556 53.45C46.1556 54.33 45.939 55.01 45.5056 55.49C45.079 55.9633 44.449 56.2 43.6156 56.2ZM43.6256 55.32C44.0923 55.32 44.439 55.17 44.6656 54.87C44.8923 54.5633 45.0056 54.0967 45.0056 53.47C45.0056 52.87 44.8923 52.42 44.6656 52.12C44.439 51.82 44.099 51.67 43.6456 51.67C43.1923 51.67 42.8556 51.8167 42.6356 52.11C42.4223 52.4033 42.3156 52.8533 42.3156 53.46C42.3156 54.08 42.4223 54.5467 42.6356 54.86C42.8556 55.1667 43.1856 55.32 43.6256 55.32ZM47.2869 51H50.4969V51.86H48.4369V56H47.2869V51Z" fill="#A0A0A0"/>
</svg>
