<svg width="62" height="62" viewBox="0 0 62 62" fill="none" xmlns="http://www.w3.org/2000/svg">
<path fill-rule="evenodd" clip-rule="evenodd" d="M36.5061 11.0276C38.2533 11.0275 38.8791 10.6868 39.7492 12.4026L40.343 13.5676C40.8399 14.5195 41.6218 15.7597 41.9875 16.7561L43.8713 16.7541C44.2616 16.7524 44.5473 16.645 44.886 16.9045C45.3642 17.2711 45.1972 18.224 44.6184 18.2912C44.0763 18.3542 43.3952 18.3211 42.8322 18.3196C42.9477 18.5674 43.196 18.9696 43.341 19.2365L44.5168 21.4162C46.1096 24.3723 45.9025 24.6193 45.9641 27.8069C45.9969 29.5035 46.2776 30.6883 44.5373 31.4768C44.5192 32.7898 44.7871 34.2269 43.8401 35.2307C42.9242 36.2008 41.9138 35.9639 40.7483 35.9963C38.6858 36.0536 38.1596 34.7982 38.1594 32.9035L38.1604 31.5217H23.8645L23.8654 32.8733C23.8658 35.1042 23.1997 35.9435 20.9992 35.9387L19.9475 35.9436C17.9577 35.9568 17.4125 34.6074 17.4113 32.7571V31.4768C15.6383 30.5288 16.0517 29.3465 16.0217 27.5354C16.0063 26.6066 16.0066 25.645 16.1369 24.7268C16.4052 22.8765 18.2744 20.0934 19.1838 18.3196L18.1809 18.3215C17.6668 18.3261 16.7257 18.4191 16.7834 17.552C16.8452 16.6253 17.7749 16.7541 18.4084 16.7541L20.0061 16.7561C20.2389 16.3384 20.4228 15.9447 20.6418 15.5266L21.7697 13.3811C22.4323 12.0991 22.608 11.1626 24.1311 11.0285L36.5061 11.0276ZM21.2092 31.5207L18.884 31.5217C18.8831 31.9814 18.8325 33.3115 18.9192 33.6604C19.1797 34.7092 20.4874 34.447 21.2902 34.4377C21.6242 34.4339 21.879 34.3906 22.1506 34.1701C22.4934 33.589 22.4279 33.4126 22.427 32.7561L22.424 31.5217C22.0379 31.5084 21.5995 31.5205 21.2092 31.5207ZM40.799 31.5217C40.4316 31.5219 39.9917 31.5371 39.633 31.5217L39.6311 32.8801C39.6276 34.6891 40.0165 34.4327 41.4133 34.4367C42.0461 34.4386 42.2872 34.5817 42.8322 34.1701C43.1671 33.5866 43.0824 33.503 43.0774 32.844L43.0754 31.5217H40.799ZM20.9924 23.3967C19.0709 23.5287 18.9897 26.0234 20.6096 26.4016C20.8561 26.4587 21.1648 26.4209 21.4231 26.4192L22.7785 26.4172C24.6066 26.5463 24.7456 23.4056 22.7404 23.3996C22.1549 23.3978 21.5741 23.3885 20.9924 23.3967ZM39.7297 23.3967C39.1102 23.4326 38.728 23.4504 38.2805 23.9426C37.734 24.5439 37.771 25.4927 38.3811 26.0344C38.823 26.4265 39.3527 26.4159 39.9084 26.4172H40.7736C41.3662 26.4003 41.7357 26.41 42.1897 25.9465C42.754 25.3703 42.6507 24.3231 42.0695 23.7961C41.6275 23.3951 41.1229 23.401 40.5608 23.3977L39.7297 23.3967ZM28.4592 24.6399C28.0593 24.64 27.7361 24.9646 27.7385 25.3645C27.741 25.7666 28.063 26.0966 28.4651 26.0969C28.9753 26.097 29.4913 26.0917 29.9944 26.092H33.6037C34.0047 26.092 34.3303 25.7664 34.3303 25.3654C34.3301 24.9647 34.0046 24.6399 33.6037 24.6399H28.4592ZM23.8645 12.5666C22.8433 14.6091 21.7266 16.5883 20.6828 18.6174C20.5859 18.8058 20.476 19.0501 20.3527 19.219H38.2238L40.4846 19.2209C40.8949 19.2229 41.2704 19.2545 41.6819 19.219C40.9871 17.9873 40.3227 16.7484 39.6604 15.4983L38.5432 13.343C38.4415 13.1486 38.201 12.7449 38.1604 12.5666H23.8645Z" fill="currentColor"/>
</svg>
