<svg width="62" height="62" viewBox="0 0 62 62" fill="none" xmlns="http://www.w3.org/2000/svg">
<path d="M46 22.7498V37.7498C46 38.0813 45.8683 38.3993 45.6339 38.6337C45.3995 38.8681 45.0815 38.9998 44.75 38.9998H36C35.6685 38.9998 35.3505 38.8681 35.1161 38.6337C34.8817 38.3993 34.75 38.0813 34.75 37.7498V29.6248C34.75 29.4591 34.6842 29.3001 34.5669 29.1829C34.4497 29.0657 34.2908 28.9998 34.125 28.9998H27.875C27.7092 28.9998 27.5503 29.0657 27.4331 29.1829C27.3158 29.3001 27.25 29.4591 27.25 29.6248V37.7498C27.25 38.0813 27.1183 38.3993 26.8839 38.6337C26.6495 38.8681 26.3315 38.9998 26 38.9998H17.25C16.9185 38.9998 16.6005 38.8681 16.3661 38.6337C16.1317 38.3993 16 38.0813 16 37.7498V22.7498C16.0003 22.0869 16.2639 21.4512 16.7328 20.9826L29.2328 8.48263C29.7016 8.01414 30.3372 7.75098 31 7.75098C31.6628 7.75098 32.2984 8.01414 32.7672 8.48263L45.2672 20.9826C45.7361 21.4512 45.9997 22.0869 46 22.7498Z" fill="currentColor"/>
</svg>
