<svg width="62" height="62" viewBox="0 0 62 62" fill="none" xmlns="http://www.w3.org/2000/svg">
<path d="M46 22.7498V37.7498C46 38.0813 45.8683 38.3993 45.6339 38.6337C45.3995 38.8681 45.0815 38.9998 44.75 38.9998H36C35.6685 38.9998 35.3505 38.8681 35.1161 38.6337C34.8817 38.3993 34.75 38.0813 34.75 37.7498V29.6248C34.75 29.4591 34.6842 29.3001 34.5669 29.1829C34.4497 29.0657 34.2908 28.9998 34.125 28.9998H27.875C27.7092 28.9998 27.5503 29.0657 27.4331 29.1829C27.3158 29.3001 27.25 29.4591 27.25 29.6248V37.7498C27.25 38.0813 27.1183 38.3993 26.8839 38.6337C26.6495 38.8681 26.3315 38.9998 26 38.9998H17.25C16.9185 38.9998 16.6005 38.8681 16.3661 38.6337C16.1317 38.3993 16 38.0813 16 37.7498V22.7498C16.0003 22.0869 16.2639 21.4512 16.7328 20.9826L29.2328 8.48263C29.7016 8.01414 30.3372 7.75098 31 7.75098C31.6628 7.75098 32.2984 8.01414 32.7672 8.48263L45.2672 20.9826C45.7361 21.4512 45.9997 22.0869 46 22.7498Z" fill="#A0A0A0"/>
<path d="M11.84 49H15.78V49.8H12.74V56H11.84V49ZM16.1063 55.47C16.1597 55.4767 16.2063 55.4833 16.2463 55.49C16.2863 55.4967 16.3263 55.5 16.3663 55.5C16.5663 55.5 16.7097 55.3567 16.7963 55.07C16.8897 54.7767 16.9463 54.3033 16.9663 53.65C16.9863 52.99 16.9963 52.1067 16.9963 51H20.8063V56H19.9063V51.8H17.8963C17.8963 52.7 17.8763 53.4367 17.8363 54.01C17.7963 54.5833 17.723 55.03 17.6163 55.35C17.5097 55.6633 17.353 55.8833 17.1463 56.01C16.9463 56.1367 16.6797 56.2 16.3463 56.2C16.2997 56.2 16.2397 56.1933 16.1663 56.18C16.093 56.1733 16.0197 56.1667 15.9463 56.16L16.1063 55.47ZM24.1748 56.2C23.7148 56.2 23.3181 56.0833 22.9848 55.85C22.6514 55.6167 22.3948 55.2933 22.2148 54.88C22.0348 54.4667 21.9448 53.9933 21.9448 53.46C21.9448 52.9533 22.0281 52.5 22.1948 52.1C22.3614 51.7 22.6014 51.3833 22.9148 51.15C23.2348 50.9167 23.6248 50.8 24.0848 50.8C24.7314 50.8 25.2248 51.0367 25.5648 51.51C25.9114 51.9767 26.0848 52.6467 26.0848 53.52C26.0848 54.3667 25.9214 55.0267 25.5948 55.5C25.2681 55.9667 24.7948 56.2 24.1748 56.2ZM24.3048 55.5C24.6181 55.5 24.8914 55.41 25.1248 55.23C25.3581 55.05 25.5381 54.8067 25.6648 54.5C25.7981 54.1933 25.8648 53.8467 25.8648 53.46C25.8648 53.0733 25.7981 52.7333 25.6648 52.44C25.5314 52.1467 25.3448 51.9167 25.1048 51.75C24.8648 51.5833 24.5881 51.5 24.2748 51.5C23.8281 51.5 23.4781 51.6733 23.2248 52.02C22.9714 52.36 22.8448 52.83 22.8448 53.43C22.8448 54.0567 22.9748 54.56 23.2348 54.94C23.5014 55.3133 23.8581 55.5 24.3048 55.5ZM25.8648 56V51H26.7648V56H25.8648ZM28.3918 51H30.4818C31.1218 51 31.5751 51.09 31.8418 51.27C32.1151 51.45 32.2518 51.75 32.2518 52.17C32.2518 52.5167 32.1585 52.7767 31.9718 52.95C31.7918 53.1233 31.4785 53.2567 31.0318 53.35C31.5518 53.3767 31.9351 53.4967 32.1818 53.71C32.4285 53.9233 32.5518 54.2367 32.5518 54.65C32.5518 54.95 32.4851 55.2 32.3518 55.4C32.2185 55.6 32.0118 55.75 31.7318 55.85C31.4518 55.95 31.0885 56 30.6418 56H28.3918V51ZM30.3118 53.16C30.6385 53.16 30.8918 53.0967 31.0718 52.97C31.2585 52.8433 31.3518 52.6533 31.3518 52.4C31.3518 52.1533 31.2618 51.9767 31.0818 51.87C30.9085 51.7567 30.6585 51.7 30.3318 51.7H29.2918V53.16H30.3118ZM30.5018 55.3C30.8885 55.3 31.1751 55.2333 31.3618 55.1C31.5551 54.9667 31.6518 54.77 31.6518 54.51C31.6518 54.2433 31.5551 54.0567 31.3618 53.95C31.1685 53.8367 30.8785 53.78 30.4918 53.78H29.2918V55.3H30.5018ZM33.7531 51H34.6531V53.05H37.1831V51H38.0831V56H37.1831V53.85H34.6531V56H33.7531V51ZM41.4209 56.2C40.9609 56.2 40.5642 56.0833 40.2309 55.85C39.8975 55.6167 39.6409 55.2933 39.4609 54.88C39.2809 54.4667 39.1909 53.9933 39.1909 53.46C39.1909 52.9533 39.2742 52.5 39.4409 52.1C39.6075 51.7 39.8475 51.3833 40.1609 51.15C40.4809 50.9167 40.8709 50.8 41.3309 50.8C41.9775 50.8 42.4709 51.0367 42.8109 51.51C43.1575 51.9767 43.3309 52.6467 43.3309 53.52C43.3309 54.3667 43.1675 55.0267 42.8409 55.5C42.5142 55.9667 42.0409 56.2 41.4209 56.2ZM41.5509 55.5C41.8642 55.5 42.1375 55.41 42.3709 55.23C42.6042 55.05 42.7842 54.8067 42.9109 54.5C43.0442 54.1933 43.1109 53.8467 43.1109 53.46C43.1109 53.0733 43.0442 52.7333 42.9109 52.44C42.7775 52.1467 42.5909 51.9167 42.3509 51.75C42.1109 51.5833 41.8342 51.5 41.5209 51.5C41.0742 51.5 40.7242 51.6733 40.4709 52.02C40.2175 52.36 40.0909 52.83 40.0909 53.43C40.0909 54.0567 40.2209 54.56 40.4809 54.94C40.7475 55.3133 41.1042 55.5 41.5509 55.5ZM43.1109 56V51H44.0109V56H43.1109ZM46.2079 53.94C45.9212 53.7733 45.6979 53.5667 45.5379 53.32C45.3779 53.0733 45.2979 52.7867 45.2979 52.46C45.2979 51.9933 45.4612 51.6333 45.7879 51.38C46.1146 51.1267 46.6012 51 47.2479 51H49.4379V56H48.5379V54.18H47.0279L46.2079 56H45.2079L46.2079 53.94ZM48.5379 51.7H47.4079C46.9879 51.7 46.6812 51.7667 46.4879 51.9C46.2946 52.0333 46.1979 52.2533 46.1979 52.56C46.1979 52.8667 46.2946 53.0967 46.4879 53.25C46.6879 53.4033 46.9946 53.48 47.4079 53.48H48.5379V51.7Z" fill="#A0A0A0"/>
</svg>
