<svg width="62" height="62" viewBox="0 0 62 62" fill="none" xmlns="http://www.w3.org/2000/svg">
<path d="M31.2152 25.296C27.6277 25.4267 24.623 22.3339 24.5037 18.3877C24.3844 14.4414 27.1956 11.1358 30.7832 11.0041C34.3713 10.8723 37.377 13.9654 37.4963 17.9123C37.6157 21.8593 34.8034 25.1652 31.2152 25.296Z" fill="currentColor"/>
<path d="M38.4919 36.9454L19.8669 36.946C18.5793 36.9472 17.9078 37.3636 18.0102 35.8608C18.3518 30.8475 21.3913 27.2993 25.4307 25.2998C25.505 25.3359 26.1649 25.857 26.3031 25.9536C28.8447 27.7294 32.2921 27.86 34.9851 26.3989C35.5697 26.0817 36.0218 25.7444 36.5535 25.3592C40.7352 26.9045 43.793 31.5329 43.9982 36.2729C44.0327 37.07 43.5643 36.9468 42.9925 36.9462L38.4919 36.9454Z" fill="currentColor"/>
</svg>
