<svg width="62" height="62" viewBox="0 0 62 62" fill="none" xmlns="http://www.w3.org/2000/svg">
<path d="M31.2152 25.296C27.6277 25.4267 24.623 22.3339 24.5037 18.3877C24.3844 14.4414 27.1956 11.1358 30.7832 11.0041C34.3713 10.8723 37.377 13.9654 37.4963 17.9123C37.6157 21.8593 34.8034 25.1652 31.2152 25.296Z" fill="#A0A0A0"/>
<path d="M38.4919 36.9454L19.8669 36.946C18.5793 36.9472 17.9078 37.3636 18.0102 35.8608C18.3518 30.8475 21.3913 27.2993 25.4307 25.2998C25.505 25.3359 26.1649 25.857 26.3031 25.9536C28.8447 27.7294 32.2921 27.86 34.9851 26.3989C35.5697 26.0817 36.0218 25.7444 36.5535 25.3592C40.7352 26.9045 43.793 31.5329 43.9982 36.2729C44.0327 37.07 43.5643 36.9468 42.9925 36.9462L38.4919 36.9454Z" fill="#A0A0A0"/>
<path d="M9.87 49H14.93V56H14.03V49.8H10.77V56H9.87V49ZM16.5669 51H17.4669V58H16.5669V51ZM19.1069 56.2C18.7069 56.2 18.3669 56.0733 18.0869 55.82C17.8135 55.5667 17.6035 55.23 17.4569 54.81C17.3169 54.39 17.2469 53.9367 17.2469 53.45C17.2469 52.9567 17.3202 52.51 17.4669 52.11C17.6202 51.71 17.8402 51.3933 18.1269 51.16C18.4135 50.92 18.7602 50.8 19.1669 50.8C19.6535 50.8 20.0602 50.9133 20.3869 51.14C20.7135 51.3667 20.9602 51.68 21.1269 52.08C21.3002 52.4733 21.3869 52.93 21.3869 53.45C21.3869 53.97 21.2935 54.4367 21.1069 54.85C20.9269 55.2633 20.6669 55.5933 20.3269 55.84C19.9869 56.08 19.5802 56.2 19.1069 56.2ZM19.0169 55.5C19.4702 55.5 19.8269 55.3133 20.0869 54.94C20.3535 54.5667 20.4869 54.0667 20.4869 53.44C20.4869 52.8267 20.3569 52.35 20.0969 52.01C19.8435 51.67 19.4869 51.5 19.0269 51.5C18.7269 51.5 18.4569 51.5833 18.2169 51.75C17.9835 51.9167 17.8002 52.1467 17.6669 52.44C17.5335 52.7267 17.4669 53.0567 17.4669 53.43C17.4669 53.8167 17.5302 54.1667 17.6569 54.48C17.7902 54.7933 17.9735 55.0433 18.2069 55.23C18.4402 55.41 18.7102 55.5 19.0169 55.5ZM24.5937 56.2C24.087 56.2 23.657 56.0933 23.3037 55.88C22.9503 55.6667 22.6803 55.3567 22.4937 54.95C22.3137 54.5367 22.2237 54.0367 22.2237 53.45C22.2237 52.8967 22.3137 52.4233 22.4937 52.03C22.6803 51.63 22.9503 51.3267 23.3037 51.12C23.6637 50.9067 24.097 50.8 24.6037 50.8C25.4237 50.8 26.0403 51.0333 26.4537 51.5C26.8737 51.9667 27.0837 52.6167 27.0837 53.45C27.0837 54.33 26.8737 55.01 26.4537 55.49C26.0337 55.9633 25.4137 56.2 24.5937 56.2ZM24.6137 55.5C25.147 55.5 25.5403 55.3333 25.7937 55C26.0537 54.6667 26.1837 54.1567 26.1837 53.47C26.1837 52.8167 26.0537 52.3267 25.7937 52C25.5403 51.6667 25.1537 51.5 24.6337 51.5C24.1203 51.5 23.7403 51.66 23.4937 51.98C23.247 52.2933 23.1237 52.7833 23.1237 53.45C23.1237 54.13 23.247 54.6433 23.4937 54.99C23.7403 55.33 24.1137 55.5 24.6137 55.5ZM31.1149 48.5H32.0149V58H31.1149V48.5ZM31.5249 56C31.3583 56.0667 31.1783 56.1167 30.9849 56.15C30.7916 56.1833 30.5883 56.2 30.3749 56.2C29.6216 56.2 29.0349 55.9633 28.6149 55.49C28.2016 55.01 27.9949 54.33 27.9949 53.45C27.9949 52.6167 28.1983 51.9667 28.6049 51.5C29.0183 51.0333 29.6049 50.8 30.3649 50.8C30.5716 50.8 30.7649 50.8167 30.9449 50.85C31.1316 50.8833 31.3016 50.93 31.4549 50.99L31.3049 51.73C31.1649 51.6567 31.0183 51.6033 30.8649 51.57C30.7116 51.53 30.5516 51.51 30.3849 51.51C29.8783 51.51 29.5016 51.67 29.2549 51.99C29.0149 52.3033 28.8949 52.79 28.8949 53.45C28.8949 54.13 29.0149 54.64 29.2549 54.98C29.5016 55.32 29.8716 55.49 30.3649 55.49C30.5783 55.49 30.7883 55.4633 30.9949 55.41C31.2016 55.35 31.3883 55.2633 31.5549 55.15L31.5249 56ZM31.6249 55.17C31.7916 55.2767 31.9749 55.3567 32.1749 55.41C32.3749 55.4633 32.5783 55.49 32.7849 55.49C33.2783 55.49 33.6449 55.32 33.8849 54.98C34.1316 54.64 34.2549 54.13 34.2549 53.45C34.2549 52.79 34.1316 52.3033 33.8849 51.99C33.6449 51.67 33.2716 51.51 32.7649 51.51C32.3449 51.51 31.9649 51.6267 31.6249 51.86L31.6549 51C31.8149 50.94 31.9883 50.8933 32.1749 50.86C32.3683 50.82 32.5716 50.8 32.7849 50.8C33.5449 50.8 34.1283 51.0333 34.5349 51.5C34.9483 51.9667 35.1549 52.6167 35.1549 53.45C35.1549 54.33 34.9449 55.01 34.5249 55.49C34.1116 55.9633 33.5283 56.2 32.7749 56.2C32.3683 56.2 31.9916 56.1367 31.6449 56.01L31.6249 55.17ZM36.4016 51H37.3016V54.73L40.0116 51H40.8916V56H39.9916V52.26L37.2716 56H36.4016V51ZM42.0653 55.47C42.1186 55.4767 42.1653 55.4833 42.2053 55.49C42.2453 55.4967 42.2853 55.5 42.3253 55.5C42.5253 55.5 42.6686 55.3567 42.7553 55.07C42.8486 54.7767 42.9053 54.3033 42.9253 53.65C42.9453 52.99 42.9553 52.1067 42.9553 51H46.7653V56H45.8653V51.8H43.8553C43.8553 52.7 43.8353 53.4367 43.7953 54.01C43.7553 54.5833 43.682 55.03 43.5753 55.35C43.4686 55.6633 43.312 55.8833 43.1053 56.01C42.9053 56.1367 42.6386 56.2 42.3053 56.2C42.2586 56.2 42.1986 56.1933 42.1253 56.18C42.052 56.1733 41.9786 56.1667 41.9053 56.16L42.0653 55.47ZM48.3938 51H49.2938V55.3H50.4538C50.8338 55.3 51.0938 55.2133 51.2338 55.04C51.3804 54.8667 51.4538 54.6267 51.4538 54.32C51.4538 54.02 51.3938 53.7833 51.2738 53.61C51.1604 53.4367 50.9404 53.35 50.6138 53.35H48.6438V52.65H50.5638C51.1571 52.65 51.6038 52.7933 51.9038 53.08C52.2038 53.3667 52.3538 53.7667 52.3538 54.28C52.3538 54.8067 52.2071 55.2267 51.9138 55.54C51.6271 55.8467 51.2038 56 50.6438 56H48.3938V51Z" fill="#A0A0A0"/>
</svg>
