<svg width="302" height="308" viewBox="0 0 302 308" fill="none" xmlns="http://www.w3.org/2000/svg">
<path d="M60.3597 196.914C75.3255 217.32 93.3514 248.314 122.149 236.579C129.731 245.885 139.634 257.53 146.276 267.22C166.316 296.456 183.66 277.171 204.758 259.929L146.263 186.698L58.4701 76.6958C40.2806 91.2942 13.7004 105.139 35.9779 129.294C44.7631 138.821 54.6476 152.306 62.9085 162.671C56.3369 175.641 54.2675 183.022 60.3597 196.914ZM91.3101 217.55C87.9773 213.117 84.6593 208.563 81.1146 204.31C75.5244 197.604 61.5547 183.028 70.3366 174.094C75.6102 175.007 81.9915 185.976 86.0119 190.901C91.5797 197.748 110.823 219.721 112.334 226.502L111.563 228.168C104.436 230.455 95.5254 222.632 91.3101 217.55Z" fill="#F7F7F7" fill-opacity="0.2"/>
<path d="M62.7915 74.1436L209.43 257.837L295.024 189.509C298.477 186.753 299.042 181.719 296.285 178.266L159.629 7.07671C156.873 3.62371 151.839 3.05904 148.386 5.81549L62.7915 74.1436Z" fill="#F7F7F7" fill-opacity="0.2"/>
</svg>
