<svg width="260" height="278" viewBox="0 0 260 278" fill="none" xmlns="http://www.w3.org/2000/svg">
<path d="M135.83 27.3287C146.537 36.1075 156.764 45.3871 167.201 54.4614L214.117 95.3766L235.184 113.897C238.566 116.872 242.054 120.202 245.515 123.037C244.417 124.676 242.491 126.623 241.112 128.112C239.363 129.999 237.637 131.907 235.936 133.835L212.423 160.166L154.783 225.01C144.558 236.628 134.204 248.135 123.724 259.528C123.65 259.602 123.402 259.785 123.31 259.857C122.533 259.729 113.658 251.729 112.506 250.723L95.8667 236.251L54.3491 200.059L26.1499 175.475C22.2423 172.061 18.0335 168.593 14.2321 165.099C39.4004 135.622 64.9799 106.49 90.9633 77.7123L120.721 44.5114C125.661 38.95 131.094 33.015 135.83 27.3287Z" fill="#FEFEFF" fill-opacity="0.12"/>
<path d="M61.6825 147.111C66.4115 149.455 68.3219 155.148 65.9482 159.823C63.5746 164.498 57.8165 166.383 53.0909 164.032C48.37 161.684 46.4659 155.997 48.8374 151.326C51.2087 146.656 56.9582 144.769 61.6825 147.111Z" fill="#FEFEFF" fill-opacity="0.12"/>
<path d="M136.618 51.2809C137.978 52.0408 141.346 55.3199 142.748 56.5587C147.011 60.3555 151.304 64.1203 155.625 67.8519L207.07 113.168L218.629 123.31C219.616 124.183 223.941 127.762 224.093 128.615C223.891 129.016 223.651 129.083 223.246 129.297C222.307 128.998 220.098 126.731 219.253 125.984L211.608 119.27L186.28 96.9943L151.236 66.1921L141.638 57.7253C139.909 56.2105 138.162 54.6896 136.442 53.166C136.013 52.7864 135.875 52.6653 135.845 52.1986C136.106 51.6852 136.164 51.6643 136.618 51.2809Z" fill="#E8E8E8" fill-opacity="0.2"/>
<path d="M110.223 80.2381C112.269 81.466 116.286 85.5045 118.254 87.2181C124.544 92.665 130.791 98.1616 136.992 103.707L184.622 145.644C188.973 149.422 193.298 153.376 197.643 157.175C197.97 157.46 198.103 157.716 198.154 158.127C197.962 158.512 197.686 158.614 197.306 158.837C195.819 157.774 194.137 156.155 192.746 154.936L185.267 148.382C176.544 140.737 167.86 133.049 159.216 125.318L124.184 94.5194C119.642 90.5299 115.079 86.5457 110.541 82.5515C109.986 82.0629 109.493 81.6789 109.387 80.9822C109.562 80.5785 109.838 80.4748 110.223 80.2381Z" fill="#E8E8E8" fill-opacity="0.2"/>
<path d="M141.46 46.2156C144.307 49.0957 148.148 52.2143 151.268 54.9486C156.376 59.5162 161.513 64.0523 166.679 68.5562L210.972 107.495C216.217 112.12 221.539 116.695 226.778 121.331C227.43 121.909 228.465 122.658 228.466 123.581C228.149 124.067 228.27 123.91 227.688 124.202C226.524 123.489 224.392 121.453 223.243 120.425L216.831 114.763L192.395 93.1899L154.142 59.685L145.228 51.8298C144.072 50.8167 140.362 48.1494 140.54 46.7462C140.83 46.3574 140.991 46.3571 141.46 46.2156Z" fill="#E8E8E8" fill-opacity="0.2"/>
<path d="M119.193 70.1264C120.845 70.9625 125.481 75.4095 127.19 76.9296L141.783 89.785L193.443 135.208C197.751 138.971 202.025 142.825 206.36 146.564C206.721 146.875 206.996 147.251 207.103 147.714C207.028 148.143 206.873 148.227 206.554 148.53C206.488 148.511 206.422 148.497 206.357 148.475C205.135 148.05 197.409 140.785 195.887 139.454L160.794 108.595C149.849 99.1276 138.991 89.5635 128.22 79.9036C126.769 78.6056 119.197 72.3592 118.679 71.2334C118.674 70.7647 118.918 70.5244 119.193 70.1264Z" fill="#E8E8E8" fill-opacity="0.2"/>
<path d="M69.1866 125.151C70.5562 126.129 72.5746 127.989 73.8822 129.134L82.8283 137.05L114.026 164.604L144.831 191.794C147.122 193.85 149.429 195.89 151.75 197.913C152.888 198.89 157.094 202.041 157.046 203.364C156.852 203.781 156.679 203.817 156.266 204.033C154.681 202.925 152.401 200.536 150.848 199.181L135.655 185.815L85.0963 141.143C79.7158 136.431 74.3653 131.59 68.9299 126.93C68.5623 126.615 68.477 126.371 68.4105 125.925C68.5943 125.476 68.7753 125.417 69.1866 125.151Z" fill="#E8E8E8" fill-opacity="0.2"/>
<path d="M132.012 56.3191C133.427 57.3614 135.28 59.1361 136.671 60.3482C139.541 62.8005 142.395 65.2719 145.232 67.7618C153.677 75.3072 162.178 82.7921 170.733 90.2152L202.732 118.386L214.565 128.856C215.693 129.865 219.462 132.512 219.442 133.773C219.182 134.187 219.118 134.17 218.676 134.376C218.334 134.145 217.942 133.857 217.632 133.588C212.355 129.018 207.083 124.368 201.86 119.741L176.112 97.017L145.049 69.7308C140.9 66.0837 136.696 62.4849 132.544 58.842C131.981 58.348 131.308 57.7643 131.24 57.0434C131.426 56.6456 131.641 56.5613 132.012 56.3191Z" fill="#E8E8E8" fill-opacity="0.2"/>
<path d="M108.414 141.3C109.414 141.85 111.967 144.206 112.929 145.059L121.963 153.122L165.142 191.367C165.622 191.801 166.221 192.354 166.25 193.012C166.055 193.455 165.958 193.46 165.548 193.727C164.127 192.909 161.558 190.494 160.224 189.288C157.542 186.863 154.926 184.463 152.19 182.082C137.7 169.471 123.548 156.469 109.034 143.898C108.452 143.394 107.763 142.802 107.706 142.018C107.96 141.504 107.879 141.664 108.414 141.3Z" fill="#E8E8E8" fill-opacity="0.2"/>
<path d="M117.233 130.973C118.279 131.492 126.115 138.677 127.806 140.161L163.599 171.767L171.405 178.636C172.412 179.523 175.412 181.567 175.337 182.824C175.126 183.264 174.992 183.303 174.581 183.565C172.372 181.881 168.553 178.272 166.337 176.306L149.069 160.963C139.33 152.371 129.394 143.944 119.81 135.169C118.817 134.259 116.543 132.933 116.502 131.617C116.736 131.185 116.8 131.201 117.233 130.973Z" fill="#E8E8E8" fill-opacity="0.2"/>
<path d="M126.357 120.572C130.13 124.377 136.285 129.321 140.422 132.987L172.078 161.085C174.715 163.447 177.372 165.787 180.047 168.106C181.4 169.29 182.845 170.51 184.133 171.763C184.542 172.161 184.531 172.31 184.508 172.796C184.249 173.204 184.147 173.196 183.702 173.399C182.636 172.667 180.972 171.091 179.957 170.174C177.974 168.372 175.977 166.586 173.965 164.816C165 156.994 156.09 149.11 147.237 141.164L130.826 126.725C129.306 125.367 127.812 124.008 126.227 122.724C125.696 122.294 125.324 121.856 125.386 121.168C125.709 120.732 125.84 120.736 126.357 120.572Z" fill="#E8E8E8" fill-opacity="0.2"/>
<path d="M86.8615 165.716C87.8515 166.352 91.4659 169.683 92.5289 170.625L104.53 181.254L139.877 212.731C140.818 213.56 142.814 214.677 142.859 215.905C142.634 216.315 142.49 216.339 142.068 216.546C141 215.902 136.887 212.126 135.769 211.134L121.693 198.564L97.5361 177.236C94.8727 174.924 92.2332 172.585 89.6181 170.219C88.6039 169.319 86.0646 167.779 86.0352 166.466C86.34 165.918 86.2522 166.085 86.8615 165.716Z" fill="#E8E8E8" fill-opacity="0.2"/>
<path d="M80.9022 172.421C81.8941 173.001 87.5488 178.171 88.8772 179.349L108.377 196.657L129.429 215.151C131.789 217.258 134.293 219.518 136.659 221.634C136.991 221.931 137.046 222.298 137.012 222.715C136.735 223.135 136.665 223.117 136.207 223.322C135.502 222.899 133.037 220.576 132.315 219.921C129.701 217.536 127.066 215.174 124.41 212.836L98.9037 190.353L86.5999 179.499C84.7787 177.887 82.9237 176.28 81.0892 174.681C80.6274 174.279 80.138 173.736 80.1307 173.105C80.4269 172.598 80.3314 172.756 80.9022 172.421Z" fill="#E8E8E8" fill-opacity="0.2"/>
<path d="M68.7229 185.699C69.9174 186.248 72.2054 188.472 73.2974 189.438L81.2918 196.452L115.254 226.414C118.373 229.174 121.513 231.963 124.686 234.667C125.048 234.975 125.292 235.358 125.409 235.816C125.252 236.365 125.288 236.204 124.818 236.659C123.662 236.198 118.367 231.225 117.112 230.116C112.07 225.726 107.054 221.306 102.064 216.857L73.6077 191.774C72.5033 190.78 68.656 187.749 68.1064 186.738C68.1709 186.307 68.4439 186.052 68.7229 185.699Z" fill="#E8E8E8" fill-opacity="0.2"/>
<path d="M75.1553 179.101C77.1219 180.635 79.7882 183.164 81.693 184.858C85.4245 188.121 89.13 191.413 92.8093 194.734C99.9889 201.202 107.377 207.509 114.596 213.957L126.35 224.357C127.678 225.537 128.955 226.742 130.344 227.858C130.871 228.281 131.295 228.74 131.243 229.431C130.829 229.876 131.074 229.698 130.426 229.906C128.92 228.892 125.278 225.473 123.78 224.14L112.231 213.986L81.78 187.043C79.4793 184.971 76.7223 182.656 74.4604 180.506C74.1917 180.251 74.2153 179.945 74.2647 179.612C74.5858 179.222 74.6685 179.248 75.1553 179.101Z" fill="#E8E8E8" fill-opacity="0.2"/>
<path d="M87.6018 104.586C88.8103 105.415 91.2923 107.715 92.5157 108.795C95.3916 111.322 98.2507 113.868 101.092 116.433C101.72 117.009 102.541 117.578 102.57 118.365C102.388 118.751 102.092 118.859 101.712 119.083C100.369 118.097 97.8425 115.664 96.4793 114.484C93.4074 111.825 90.3595 108.993 87.3116 106.298C86.827 105.87 86.7925 105.805 86.7805 105.288C87.0259 104.861 87.1714 104.825 87.6018 104.586Z" fill="#E8E8E8" fill-opacity="0.2"/>
<path d="M96.9717 94.8068C98.5398 95.8212 101.798 98.9855 103.32 100.265C104.641 101.375 111.47 107.045 111.716 108.019C111.521 108.528 111.541 108.389 110.99 108.764C109.561 108.274 104.753 103.462 103.231 102.279C101.107 100.63 98.6858 98.2649 96.5806 96.4871C96.3087 96.2573 96.234 96.0271 96.1952 95.6914C96.3341 95.2254 96.5793 95.1095 96.9717 94.8068Z" fill="#E8E8E8" fill-opacity="0.2"/>
<path d="M124.008 17.2068C124.975 18.1342 126.498 19.3294 127.575 20.2536C129.956 22.3319 132.353 24.3917 134.767 26.4328L41.384 131.464C31.9817 142.241 22.6728 152.69 13.5407 163.744C13.3327 164.02 13.3574 164.016 13.0351 164.137C12.1105 163.536 10.8326 162.399 9.93669 161.663C7.57906 159.725 5.3166 157.656 2.97035 155.701C7.41062 149.904 12.2208 144.417 16.8243 138.743C20.9798 133.622 25.4484 128.685 29.7828 123.714L48.8487 101.693C73.6964 73.3527 98.7502 45.1902 124.008 17.2068Z" fill="#D9D9D9" fill-opacity="0.08"/>
<path d="M141.164 23.5943C142.296 24.4936 143.955 26.1367 145.134 27.1684L154.905 35.6327L191.957 68.2432L225.143 97.1465L235.773 106.48C237.767 108.24 240.047 110.168 241.944 112.003C241.055 113.212 240.067 114.199 239.036 115.289L167.123 52.4313C157.35 43.8924 147.865 35.4638 137.926 27.0838C138.955 26.0794 140.122 24.6813 141.164 23.5943Z" fill="#FEFEFF" fill-opacity="0.12"/>
</svg>
