<svg width="231" height="295" viewBox="0 0 231 295" fill="none" xmlns="http://www.w3.org/2000/svg">
<path d="M117.169 104.575C120.12 98.2892 121.663 92.1867 127.217 89.0724C127.845 86.2666 123.779 79.8848 123.67 76.9646C122.766 52.8135 137.412 24.1328 164.506 24.1196C159.924 33.8122 134.066 75.0062 160.971 69.8212C168.415 68.3875 175.773 37.0111 181.993 34.9911C184.576 36.0674 186.28 38.4285 187.023 41.0985C193.914 65.8655 178.402 93.4468 154.993 101.053C154.681 107.347 151.095 113.265 148.221 118.938C142.62 118.132 138.629 116.97 133.293 115.974C132.556 115.51 130.516 114.588 129.634 114.156C125.434 111.02 121.28 107.826 117.169 104.575Z" fill="#E1E1E1" fill-opacity="0.2"/>
<path d="M136.14 119.603C140.422 120.452 162.739 124.676 160.936 131.747C160.305 134.218 157.082 140.91 155.803 143.614C150.498 141.174 135.236 134.513 131.003 131.861C129.963 131.669 128.017 131.377 127.082 131.104C128.712 127.164 131.009 122.543 132.84 118.618C133.577 118.751 135.337 119.354 136.14 119.603Z" fill="#9C9C9C" fill-opacity="0.12"/>
<path d="M132.072 135.51L155.435 146.442C155.485 146.934 155.523 147.427 155.551 147.921C158.019 188.953 152.885 227.991 130.678 263.153C125.306 271.66 121.637 278.697 114.681 286.493C105.493 293.099 99.4687 287.966 98.7559 277.67C123.646 224.535 133.865 195.388 132.072 135.51Z" fill="#E1E1E1" fill-opacity="0.2"/>
<path d="M89.9814 115.782C97.7727 119.378 105.646 123.23 113.408 126.925C79.4877 152.744 59.8327 174.135 38.763 211.581C34.4867 219.179 26.3636 238.066 21.0799 243.477C12.5005 247.846 5.95218 242.859 7.23962 233.522C8.38363 225.22 12.8609 216.272 15.6739 208.326C30.0927 167.586 56.9656 141.641 89.9814 115.782Z" fill="#E1E1E1" fill-opacity="0.2"/>
<path d="M100.792 100.055C112.516 105.236 115.008 107.204 125.054 114.754C123.716 117.841 121.343 124.292 118.85 126.006L116.928 125.639C108.703 121.848 100.535 117.931 92.4295 113.887C94.3099 109.916 97.2648 102.249 100.792 100.055Z" fill="#9C9C9C" fill-opacity="0.12"/>
</svg>
