<svg width="285" height="253" viewBox="0 0 285 253" fill="none" xmlns="http://www.w3.org/2000/svg">
<path d="M46.8735 202.532C45.6202 197.525 44.4591 192.853 43.601 187.724C39.5178 163.97 41.5818 139.566 49.5966 116.837C60.4939 86.3583 81.818 59.4759 111.415 45.4896C135.47 33.8342 163.205 32.3727 188.351 41.4355C213.842 50.5935 234.498 69.9746 247.642 93.4032C249.546 96.7977 251.189 100.41 252.853 103.931C256.524 112.465 259.178 121.402 260.761 130.557C260.891 131.278 261.394 133.262 261.197 133.809C260.809 134.055 260.865 133.974 260.338 134.004C260.042 133.848 259.97 133.776 259.913 133.389C258.865 126.261 257.075 119.296 254.722 112.493C236.62 60.1581 182.613 24.5453 127.388 40.9259C104.4 47.7445 85.2157 61.9652 70.5026 80.8576C67.2574 85.0627 62.5123 92.5342 59.8833 97.2967C46.901 120.814 41.3758 147.825 43.5139 174.565C44.269 184.008 45.284 191.487 47.8941 200.699C50.6951 210.814 54.6197 220.583 59.5947 229.823L58.4168 230.575C54.1621 223.12 49.1323 210.732 46.8735 202.532Z" fill="#E5E5E5" fill-opacity="0.12"/>
<path d="M71.2457 222.767C59.0333 201.681 53.5776 177.357 55.6144 153.072C57.6787 129.401 66.6517 106.859 81.418 88.2491C101.626 62.9117 130.333 48.5287 163.008 51.532C204.254 55.3233 236.568 88.6481 246.113 127.891C246.65 130.102 247.943 135.615 247.753 137.643C247.433 137.979 247.088 138.024 246.609 138.197C246.21 135.463 245.725 132.743 245.154 130.039C244.762 128.332 244.319 126.637 243.826 124.956C239.146 126.498 234.635 128.236 229.837 129.793C229.167 129.924 229.23 130.021 228.695 129.816C227.7 128.585 227.885 127.278 227.416 125.878C226.779 123.982 226.155 122.035 225.465 120.159C224.691 118.05 223.794 115.988 222.78 113.983C213.611 95.737 199.832 81.6073 180.581 74.1578C174.392 71.7627 169.138 70.3716 162.484 69.6743C142.514 67.7489 122.595 73.8257 107.096 86.5714C102.867 90.0459 98.9803 93.9165 95.488 98.1311C82.4834 113.45 74.4425 132.362 72.4322 152.36C70.3147 173.347 76.2772 196.47 88.1762 213.878C87.9251 214.033 87.4036 214.375 87.1631 214.492C82.1965 217.167 77.3042 219.615 72.3593 222.226C72.0923 222.386 71.5482 222.624 71.2457 222.767Z" fill="#E5E5E5" fill-opacity="0.12"/>
<path d="M222.368 109.938C225.959 107.308 230.597 103.786 234.323 101.497C235.084 102.726 235.869 104.468 236.549 105.772C239.865 112.137 241.698 118.181 243.826 124.957C239.146 126.499 234.635 128.237 229.837 129.794C228.83 123.484 225.345 115.505 222.368 109.938Z" fill="#EAEAEA" fill-opacity="0.32"/>
<path d="M69.8154 216.747C74.2265 213.925 78.6582 211.135 83.1102 208.377C84.0944 210.133 85.845 213.084 87.1634 214.493C82.1968 217.168 77.3045 219.616 72.3596 222.227C71.9674 220.939 70.4433 218.003 69.8154 216.747Z" fill="#EAEAEA" fill-opacity="0.32"/>
<path d="M213.091 75.4443C218.307 79.7179 225.388 87.734 229.138 93.3965C225.754 95.8189 222.49 98.4514 219.105 100.786L217.556 101.984C213.34 96.3023 209.597 91.6918 204.25 87.0098C206.294 84.5099 208.234 81.589 210.245 79.036C211.185 77.842 212.026 76.5319 213.091 75.4443Z" fill="#F4F4F4" fill-opacity="0.2"/>
<path d="M73.0951 183.631L73.2762 183.669C73.6183 184.516 73.8237 185.585 74.0608 186.49C75.3495 191.409 76.9462 195.664 79.06 200.278C77.2899 201.059 65.9609 207.886 65.5838 207.908C62.5818 200.522 60.8515 194.524 59.0352 186.903C62.6628 186.346 69.4338 184.591 73.0951 183.631Z" fill="#EAEAEA" fill-opacity="0.32"/>
<path d="M56.8334 154.209C59.8576 154.357 62.9765 154.942 65.9996 155.23C67.5713 155.379 69.2028 155.563 70.7636 155.796C70.4413 161.917 70.7096 168.055 71.5649 174.124L68.7708 174.574C65.2431 175.152 60.7313 176.026 57.3099 176.861C56.3836 169.345 56.4551 161.756 56.8334 154.209Z" fill="#EAEAEA" fill-opacity="0.32"/>
<path d="M187.275 59.0146C194.579 61.9216 199.236 64.8238 205.685 69.1361C203.781 71.4773 200.757 76.4146 198.837 79.169L197.337 81.2944C192.177 78.0909 188.374 75.9282 182.869 73.4807C183.862 69.0075 186.104 63.6981 187.275 59.0146Z" fill="#F4F4F4" fill-opacity="0.2"/>
<path d="M63.9579 122.322C65.6557 123.342 67.976 124.342 69.7698 125.181C72.0069 126.228 74.2817 127.303 76.5491 128.273C74.8408 133.017 73.3952 137.585 72.5441 142.56C72.3668 143.597 72.1174 145.068 71.784 146.026C71.3685 146.172 71.2315 146.056 70.7247 145.96C69.3264 145.469 59.6971 144.074 58.1895 143.997C59.3873 136.599 61.32 129.338 63.9579 122.322Z" fill="#EAEAEA" fill-opacity="0.32"/>
<path d="M158.781 52.7275C164.211 52.7387 172.81 54.2164 177.941 55.9135C177.247 59.3715 175.991 64.4704 175.078 67.8343C174.855 68.7278 174.576 69.5492 174.288 70.423C168.892 69.1098 164.362 68.2831 158.785 67.9905L158.781 52.7275Z" fill="#F4F4F4" fill-opacity="0.2"/>
<path d="M77.8783 95.2588C78.4302 95.5907 80.4449 97.3624 81.082 97.8837C83.6977 100.023 86.2588 102.339 89.0225 104.288C85.9637 108.061 83.6957 112.084 81.5794 116.441C81.2894 117.039 80.5237 118.918 80.0294 119.123L79.5493 118.924C75.7488 116.891 71.593 114.772 67.8818 112.632C71.264 105.953 73.5426 101.559 77.8783 95.2588Z" fill="#EAEAEA" fill-opacity="0.32"/>
<path d="M148.142 52.793C148.582 52.7251 148.601 52.7373 149.049 52.7808C149.289 53.1494 149.539 66.446 149.605 68.1584C144.345 68.651 139.571 69.2683 134.498 70.761L134.159 69.0865C133.172 64.7338 131.865 60.2211 130.798 55.8528C137.073 54.1234 141.738 53.2377 148.142 52.793Z" fill="#EAEAEA" fill-opacity="0.32"/>
<path d="M121.479 59.0059C122.233 60.1764 125.41 71.8363 125.91 73.5994C120.848 75.5285 117.374 77.7802 112.888 80.6702L111.618 78.6284C109.603 75.1968 107.116 71.5166 104.954 68.1489C109.891 64.5218 115.948 61.5893 121.479 59.0059Z" fill="#EAEAEA" fill-opacity="0.32"/>
<path d="M97.0641 74.0371C99.8 77.9306 102.58 82.3384 105.272 86.3304C100.854 90.1426 98.5033 92.3961 94.7221 96.8846L93.6881 95.7897C91.2678 93.213 87.0401 89.5696 84.2998 87.0173C87.3101 83.1122 93.3171 77.1933 97.0641 74.0371Z" fill="#EAEAEA" fill-opacity="0.32"/>
<path d="M71.3259 175.579L71.6343 175.587C71.8347 175.873 72.8542 181.272 73.0996 182.221C68.4575 183.268 63.8282 184.37 59.2126 185.529C59.0951 185.547 58.9907 185.5 58.8594 185.467C58.4052 184.564 57.7277 179.541 57.5254 178.217C62.1494 177.244 66.6471 176.281 71.3259 175.579Z" fill="#F7F7F7" fill-opacity="0.2"/>
<path d="M79.4948 201.585C80.0322 202.044 81.9434 206.188 82.4027 207.149C78.0458 210.018 73.6116 212.577 69.2203 215.501C68.5587 214.704 66.6122 210.175 66.2217 209.095C70.6759 206.592 75.0094 204.052 79.4948 201.585Z" fill="#F7F7F7" fill-opacity="0.2"/>
<path d="M67.2769 114.182C70.7081 115.785 76.6124 118.66 79.7204 120.599C78.7142 122.679 77.9046 124.74 77.0298 126.876C73.5525 125.493 67.7089 122.799 64.332 121.096C65.1756 118.916 66.3034 116.286 67.2769 114.182Z" fill="#F7F7F7" fill-opacity="0.2"/>
<path d="M83.2479 88.2373C84.0561 88.6862 86.1218 90.7185 86.9111 91.4319C89.2841 93.5768 91.6551 95.7258 93.9254 97.9795C92.4132 99.6143 91.0431 101.372 89.6612 103.116C86.2315 100.426 82.126 96.9518 78.8916 94.0175C80.1858 92.1481 81.8195 90.0235 83.2479 88.2373Z" fill="#F7F7F7" fill-opacity="0.2"/>
<path d="M129.107 56.3684L129.334 56.3564C129.397 56.3993 129.461 56.4422 129.525 56.4851C130.364 60.7283 132.389 67.1439 133.33 71.1123C131.23 71.6856 129.3 72.3559 127.24 73.0548C126.977 72.7557 123.397 60.0692 122.996 58.5049C125.089 57.7228 126.979 57.035 129.107 56.3684Z" fill="#F7F7F7" fill-opacity="0.2"/>
<path d="M58.0821 145.132C62.6045 145.822 67.189 146.747 71.7273 147.482C71.3953 149.789 71.2358 152.088 70.9388 154.396L57.1553 152.708C57.2585 150.789 57.7423 146.988 58.0821 145.132Z" fill="#F7F7F7" fill-opacity="0.2"/>
<path d="M103.712 69.0029C103.96 69.0867 110.837 80.0702 111.676 81.514C109.611 82.9109 108.295 83.8888 106.408 85.4565C105.395 84.4029 99.0483 74.515 98.2754 73.0621C99.8743 71.683 101.99 70.2175 103.712 69.0029Z" fill="#F7F7F7" fill-opacity="0.2"/>
<path d="M153.993 52.5212C155.092 52.5036 156.276 52.5543 157.381 52.5808L157.375 67.7836L153.986 67.7799L151.06 67.9509C150.755 63.192 150.711 57.4675 150.663 52.6807C151.634 52.5688 152.991 52.5579 153.993 52.5212Z" fill="#F7F7F7" fill-opacity="0.2"/>
<path d="M179.311 56.2676C181.269 56.6666 184.276 57.7536 186.035 58.5639L181.75 72.0481C181.615 72.426 181.626 72.4218 181.389 72.7417C180.736 72.766 176.543 71.1195 175.705 70.8071C177.019 66.1769 178.172 60.9875 179.311 56.2676Z" fill="#F7F7F7" fill-opacity="0.2"/>
<path d="M229.808 94.7422L229.935 94.7561C230.661 95.2414 232.963 99.2691 233.47 100.216C230.128 102.909 225.468 105.849 221.889 108.529L221.77 108.555C221.155 108.192 218.774 104.091 218.354 103.254C221.595 100.639 226.44 97.0363 229.808 94.7422Z" fill="#F7F7F7" fill-opacity="0.2"/>
<path d="M206.801 70.1172C208.054 70.923 210.764 73.331 212.017 74.4024C209.171 78.1085 206.34 82.1905 203.425 85.7652L203.255 85.873C202.892 85.7599 199.322 82.7399 198.541 82.1666L203.348 75.0083C204.304 73.5718 205.7 71.3485 206.801 70.1172Z" fill="#F7F7F7" fill-opacity="0.2"/>
<path d="M172.758 149.517L214.852 135.638C220.871 133.599 226.919 131.643 232.992 129.771C234.272 129.37 240.503 127.152 241.282 127.449C241.702 127.86 241.824 128.616 241.999 129.208C240.009 130.358 237.36 131.493 235.238 132.515C229.488 135.286 223.558 137.742 217.737 140.365L191.592 152.122C186.667 154.339 181.319 156.854 176.358 158.947C176.151 164.123 172.882 170.359 169.108 173.874C165.943 176.822 161.347 178.946 156.957 178.834C150.663 178.674 145.546 174.279 143.488 168.418C142.624 166.062 142.507 163.461 142.532 160.981C142.762 158.479 143.012 157.209 143.934 154.797C147.774 144.75 160.41 138.468 169.535 145.934C170.519 146.739 171.503 147.957 172.316 148.965L172.758 149.517Z" fill="#E5E5E5" fill-opacity="0.12"/>
<path d="M233.693 131.168C227.752 132.944 221.419 135.314 215.517 137.364L181.256 149.274C177.479 150.57 173.745 151.976 169.911 153.141C168.902 153.448 166.568 154.351 165.623 154.457C165.449 154.08 165.477 153.992 165.461 153.579C171.211 151.523 177.418 149.57 183.234 147.63L212.937 137.577L231.647 131.277C234.204 130.424 237.978 128.9 240.483 128.445L240.628 128.774C240.719 128.682 240.809 128.59 240.9 128.497L240.835 128.658C240.217 129.198 239.449 129.449 238.686 129.757C236.749 130.734 233.31 132.075 231.234 132.919L231.137 132.621C232.156 132.121 232.874 131.793 233.932 131.391L233.693 131.168Z" fill="#F7F7F7" fill-opacity="0.2"/>
<path d="M238.494 129.549L238.686 129.757C236.748 130.735 233.31 132.076 231.234 132.92L231.137 132.622C232.156 132.122 232.874 131.794 233.932 131.392C235.16 130.947 237.357 130.124 238.494 129.549Z" fill="#F2F2FC" fill-opacity="0.2"/>
<path d="M238.493 129.549C237.357 130.124 235.159 130.947 233.932 131.392L233.692 131.169C235.267 130.652 236.906 129.948 238.493 129.549Z" fill="#605E5C" fill-opacity="0.12"/>
<path d="M231.137 132.622L231.234 132.92C226.435 135.217 221.456 137.251 216.568 139.357L200.328 146.542C191.038 150.713 181.733 155.03 172.366 159.011C170.877 159.643 168.402 160.922 166.917 161.159L166.75 160.997L166.751 160.56C167.308 159.77 170.927 158.458 172.06 157.972C188.055 151.115 203.897 143.885 219.977 137.226C223.695 135.686 227.42 134.168 231.137 132.622Z" fill="#F7F7F7" fill-opacity="0.2"/>
<path d="M145.943 169.948C143.655 164.989 143.378 160.96 145.24 155.772C148.124 147.74 157.054 141.959 165.473 145.136C167.385 145.857 170.331 148.125 171.137 150.003C170.346 149.754 169.086 148.097 168.337 147.613C154.556 138.71 140.01 156.487 146.317 169.921L145.943 169.948Z" fill="#F7F7F7" fill-opacity="0.2"/>
<path d="M149.635 174.099C156.818 179.124 165.663 176.088 170.358 169.232C171.241 167.949 171.997 166.584 172.615 165.155C173.118 163.985 174.113 160.146 174.616 159.756L174.87 159.877C174.873 160.626 174.595 161.341 174.432 162.067C172.023 172.799 159.782 182.373 149.449 174.281L149.635 174.099Z" fill="#F7F7F7" fill-opacity="0.2"/>
<path d="M145.943 169.949L146.317 169.923C147.314 171.768 148.019 172.726 149.635 174.1L149.449 174.281C147.76 172.835 147.069 171.852 145.943 169.949Z" fill="#F2F2FC" fill-opacity="0.2"/>
<path d="M114.265 177.868C114.021 176.982 113.788 176.092 113.567 175.2C111.487 166.638 111.224 159.406 113.067 150.774C113.69 147.562 114.482 144.169 115.787 141.161C120.234 130.916 127.401 121.368 137.535 116.246C141.818 114.08 145.179 113.025 149.813 111.92C149.915 114.021 149.855 116.245 149.811 118.347C147.77 119.126 145.396 119.47 143.322 120.328C131.864 125.065 123.699 135.247 119.775 146.857C117.374 153.963 117.334 161.854 118.2 169.323C120.398 168.407 123.492 167.551 125.828 166.744C129.765 165.385 133.74 163.981 137.716 162.76C139.116 162.329 141.301 161.239 142.532 160.98C142.507 163.461 142.624 166.062 143.488 168.418C141.094 168.946 137.728 170.309 135.286 171.074C128.335 173.252 121.313 176.099 114.265 177.868Z" fill="white" fill-opacity="0.2"/>
<path d="M153.947 107.505C160.297 107.244 166.757 108.274 172.528 110.974C173.764 111.552 177.743 113.313 178.168 114.437C178.088 114.948 178.205 114.754 177.87 115.073C176.954 115.117 174.584 113.565 173.666 113.105C148.591 100.557 121.855 117.201 112.903 141.645C111.216 146.251 110.318 150.185 109.699 155.058C108.879 161.476 109.208 167.99 110.672 174.293C111.205 176.49 111.974 178.424 112.463 180.413L112.312 180.647C111.856 180.878 111.776 180.95 111.254 180.972C110.89 180.355 110.549 178.975 110.337 178.243C109.029 173.87 108.231 169.361 107.959 164.804C106.302 137.902 125.523 109.089 153.947 107.505Z" fill="#E5E5E5" fill-opacity="0.12"/>
<path d="M245.154 130.041C245.726 132.744 246.211 135.465 246.61 138.199C243.236 139.702 239.603 140.962 236.178 142.366C234.848 142.912 232.901 143.464 231.678 144.057C231.275 144.273 230.623 144.449 230.171 144.591C230.08 142.68 229.525 137.731 229.599 136.237C229.877 135.84 230.258 135.798 230.741 135.646C230.994 135.568 234.58 134.137 234.689 134.07C235.867 133.355 244.703 130.735 245.154 130.041Z" fill="#EAEAEA" fill-opacity="0.32"/>
<path d="M230.171 144.591C230.08 142.68 229.525 137.731 229.599 136.237C229.877 135.839 230.258 135.797 230.741 135.646C231.429 138.324 231.554 141.293 231.678 144.057C231.275 144.273 230.623 144.449 230.171 144.591Z" fill="#E5E5E5" fill-opacity="0.12"/>
<path d="M101.394 200.599C101.844 201.152 103.977 205.431 104.265 206.205C102.699 207.353 100.129 208.616 98.3649 209.564C96.1144 210.772 93.6226 212.267 91.3312 213.331L91.0838 213.328C90.5517 211.493 89.3911 209.218 88.5625 207.458C92.6569 205.334 97.4334 202.867 101.394 200.599Z" fill="#E5E5E5" fill-opacity="0.12"/>
<path d="M100.842 202.524C101.175 202.8 102.207 205.15 102.483 205.738C98.9716 207.666 95.4892 209.491 92.0361 211.531C91.4472 210.554 90.8546 209.092 90.4697 208.008C93.9766 206.261 97.3651 204.34 100.842 202.524Z" fill="#F7F7F7" fill-opacity="0.2"/>
<path d="M224.605 141.273C225.209 141.612 227.126 145.817 227.464 146.683C226.415 147.312 224.162 148.302 222.994 148.855C220.261 150.161 217.518 151.448 214.767 152.716C214.225 152.244 212.294 148.082 211.845 147.169C216.086 145.178 220.339 143.212 224.605 141.273Z" fill="#E5E5E5" fill-opacity="0.12"/>
<path d="M223.915 143.22C224.384 143.193 225.495 145.576 225.76 146.053C222.337 147.548 218.951 149.128 215.606 150.792L215.498 150.831C215.075 150.648 214.117 148.403 213.843 147.791C217.241 146.352 220.51 144.655 223.915 143.22Z" fill="#F7F7F7" fill-opacity="0.2"/>
<path d="M87.2301 169.427C87.5462 169.369 87.426 169.365 87.7361 169.472C88.2457 170.281 88.875 173.93 89.1071 175.086C85.9968 176.274 81.4864 177.678 78.2406 178.577L77.8059 178.536C77.2979 177.949 76.4218 173.335 76.3311 172.369C79.608 171.355 83.8151 170.376 87.2301 169.427Z" fill="#E5E5E5" fill-opacity="0.12"/>
<path d="M86.2916 171.239L86.6949 171.193C87.2482 171.672 87.384 173.373 87.5093 174.182C84.7361 175.048 81.9727 175.945 79.2195 176.874L78.9198 176.906C78.5538 176.532 78.1168 174.059 77.9688 173.391L86.2916 171.239Z" fill="#F7F7F7" fill-opacity="0.2"/>
<path d="M79.9913 134.525C83.7197 135.723 87.2568 136.571 90.9309 137.681C90.4283 139.673 89.6927 141.878 89.0954 143.874C85.784 143.094 81.3779 141.707 78.0146 140.772C78.6325 138.677 79.2916 136.594 79.9913 134.525Z" fill="#E5E5E5" fill-opacity="0.12"/>
<path d="M80.7949 136.328C83.2522 136.905 86.6833 138.046 89.1643 138.792C88.8693 139.95 88.621 140.977 88.2111 142.106C85.3744 141.275 82.4618 140.62 79.6855 139.772L80.7949 136.328Z" fill="#F7F7F7" fill-opacity="0.2"/>
<path d="M152.671 74.9068C154.478 74.7478 156.933 74.855 158.809 74.8928C158.954 78.4065 158.973 83.1863 158.851 86.7047C156.862 86.8607 154.837 86.869 152.842 86.8977C152.806 82.8909 152.638 78.93 152.671 74.9068Z" fill="#E5E5E5" fill-opacity="0.12"/>
<path d="M154.152 76.1924L157.463 76.24C157.492 79.277 157.576 82.5028 157.489 85.525C156.449 85.5773 155.219 85.5445 154.164 85.5425C154.141 84.0671 153.909 77.1633 154.152 76.1924Z" fill="#F7F7F7" fill-opacity="0.2"/>
<path d="M212.341 106.174C213.207 106.896 215.282 110.052 215.96 111.097C212.727 113.337 209.438 115.748 206.169 117.899C205.575 117.825 203.112 113.594 202.711 112.825C205.992 110.832 209.139 108.349 212.341 106.174Z" fill="#E5E5E5" fill-opacity="0.12"/>
<path d="M212.105 108.01C212.477 108.296 213.779 110.157 214.141 110.661C211.515 112.39 209.134 114.179 206.447 115.862L206.401 115.871C205.864 115.625 204.872 113.949 204.521 113.369C207.089 111.639 209.618 109.852 212.105 108.01Z" fill="#F7F7F7" fill-opacity="0.2"/>
<path d="M186.663 82.0273C188.195 82.6619 190.596 84.2287 192.059 85.1334C190.072 88.3035 188.215 91.6133 186.322 94.8469L186.068 95.0814C185.409 95.0466 182.067 92.9048 181.149 92.3624C181.987 90.2977 185.452 84.0188 186.663 82.0273Z" fill="#E5E5E5" fill-opacity="0.12"/>
<path d="M187.303 83.7432C188.238 84.3596 189.204 84.9672 190.147 85.5742C188.756 88.122 187.101 90.8421 185.644 93.3837C185.168 93.2378 183.494 92.1371 182.969 91.8108C184.361 89.1313 185.76 86.3302 187.303 83.7432Z" fill="#F7F7F7" fill-opacity="0.2"/>
<path d="M125.748 80.1748C126.307 80.8319 129.575 89.5642 130.051 90.9333C128.696 91.7224 126.508 93.1088 125.044 93.4599C124.415 92.3425 123.416 89.9513 122.862 88.7166C122.171 87.1771 120.924 84.631 120.48 83.1163C122.179 82.0368 123.938 81.0547 125.748 80.1748Z" fill="#E5E5E5" fill-opacity="0.12"/>
<path d="M125.064 82.1416C125.187 82.2747 128.109 89.6245 128.374 90.3204C127.643 90.7759 126.473 91.357 125.685 91.7783C124.467 89.4185 123.375 86.2849 122.152 83.7324C123.121 83.1315 124.054 82.6615 125.064 82.1416Z" fill="#F7F7F7" fill-opacity="0.2"/>
<path d="M97.9685 101.824C98.8947 102.327 104.977 108.578 106.022 109.675C104.837 111.075 103.597 112.702 102.443 114.148C100.039 112.266 96.6128 108.789 94.1221 106.588C95.1096 105.22 96.8379 103.045 97.9685 101.824Z" fill="#E5E5E5" fill-opacity="0.12"/>
<path d="M98.0168 103.759C98.5389 104.094 103.426 108.972 104.135 109.66L102.338 112.258C100.218 110.332 98.1529 108.347 96.1445 106.306C96.9144 105.365 97.3544 104.775 98.0168 103.759Z" fill="#F7F7F7" fill-opacity="0.2"/>
</svg>
