<svg width="303" height="134" viewBox="0 0 303 134" fill="none" xmlns="http://www.w3.org/2000/svg">
<rect width="303" height="134" rx="12" fill="#D9D9D9"/>
<g clip-path="url(#clip0_534_3081)">
<path d="M165.006 -26.1292C169.121 -25.3885 174.714 -23.942 178.912 -22.9675L203.383 -17.2919L246.805 -7.12506C251.209 -6.07381 255.712 -5.07572 260.096 -3.97527L231.141 120.168C228.246 119.714 224.962 118.772 222.055 118.135C220.341 122.968 216.226 122.265 212.041 122.255L204.249 122.256L178.942 122.366C177.61 122.379 171.052 122.291 170.336 122.618C164.284 125.378 156.338 130.165 150.693 133.272C137.314 140.577 123.89 147.799 110.422 154.939L97.8604 161.583C96.6299 162.229 94.5957 163.472 93.5097 163.957C92.6197 162.7 91.5202 160.508 90.7566 159.088L85.5187 149.161L67.259 114.661C60.035 101.218 52.9032 87.7256 45.8642 74.1851L40.2182 63.4569C39.4687 62.0533 37.1693 57.8691 36.72 56.5569C37.8202 55.9326 40.0038 54.9236 41.1929 54.4523C41.0084 54.0652 40.8368 53.6398 40.941 53.2219C41.4901 52.4172 50.581 47.8656 51.9588 47.1343C59.0646 43.434 66.1326 39.662 73.1618 35.8185L79.858 48.0508C79.8463 47.434 79.8442 46.817 79.8514 46.2002C79.8257 45.0104 79.84 43.6492 79.7853 42.479C79.5853 38.198 82.0987 35.4218 86.4447 35.395C89.7476 35.3747 93.1947 35.4969 96.5268 35.4158C96.5217 29.1715 96.3397 29.5348 102.639 29.5224L111.57 29.518C116.665 29.5257 116.133 30.7854 116.067 35.4118L119.417 35.4057C119.479 34.118 119.675 31.5648 120.254 30.4214C122.619 25.7556 128.912 17.3314 132.643 13.9685C134.458 12.3065 136.653 11.1116 139.036 10.4871C141.641 9.81874 145.41 9.98292 148.171 10.0009L156.815 10.0599C158.409 2.14029 160.29 -5.5146 162.054 -13.3854L163.875 -21.5224C164.175 -22.856 164.56 -24.9112 165.006 -26.1292Z" fill="#9C9C9C"/>
<path d="M41.1929 54.4521C41.0084 54.065 40.8368 53.6397 40.9411 53.2218C41.4902 52.417 50.581 47.8655 51.9588 47.1342C59.0646 43.4338 66.1326 39.6619 73.1618 35.8184L79.858 48.0507C79.8463 47.4339 79.8442 46.8168 79.8515 46.2L79.8671 46.3488C80.0367 48.1013 79.9616 50.8931 79.9623 52.7237L79.9677 63.9567L80.0149 102.37C80.0247 105.578 80.0131 108.786 79.9796 111.993C79.9616 113.722 79.8173 115.978 80.042 117.63C80.3919 120.204 83.1894 122.119 85.6672 122.244C88.1184 122.368 90.4326 122.342 92.8494 122.334L104.563 122.339L143.495 122.443C144.564 124.855 146.022 127.236 147.116 129.704C138.462 134.26 129.745 139.179 121.089 143.828L106.175 151.864C102.629 153.753 98.8997 155.643 95.4128 157.606C88.0695 143.28 80.5422 129.047 72.833 114.913L50.9037 73.0749C49.6634 70.7012 41.8011 56.4341 41.6672 55.0832C41.5508 54.7124 41.4871 54.7049 41.1929 54.4521Z" fill="#F5F5F5"/>
<path d="M164.402 48.2989C184.669 46.477 202.569 61.4092 204.349 81.6236C206.13 101.838 191.115 119.654 170.84 121.383C150.631 123.107 132.836 108.193 131.061 88.0435C129.286 67.8946 144.201 50.1151 164.402 48.2989Z" fill="#FEFEFE"/>
<path d="M165.52 51.4851C184.002 50.6498 199.661 64.9204 200.487 83.3518C201.312 101.783 186.992 117.389 168.508 118.201C150.042 119.011 134.41 104.746 133.585 86.3318C132.76 67.9172 147.055 52.3194 165.52 51.4851Z" fill="#9C9C9C"/>
<path d="M166.419 52.6338C184.229 52.2836 198.951 66.3968 199.303 84.1568C199.655 101.917 185.503 116.599 167.693 116.95C149.883 117.301 135.159 103.188 134.807 85.4273C134.456 67.6664 148.609 52.9841 166.419 52.6338Z" fill="#FEFEFE"/>
<path d="M165.19 57.6381C180.187 56.5169 193.245 67.7554 194.326 82.7137C195.407 97.6719 184.099 110.661 169.096 111.695C154.154 112.726 141.194 101.506 140.118 86.6086C139.041 71.7118 150.255 58.7547 165.19 57.6381Z" fill="#9C9C9C"/>
<path d="M164.905 58.5676C179.394 57.2795 192.178 67.9685 193.433 82.4201C194.688 96.872 183.938 109.594 169.443 110.81C154.999 112.021 142.296 101.346 141.045 86.9455C139.794 72.5447 150.467 59.8509 164.905 58.5676Z" fill="white"/>
<path d="M166.157 59.4336C180.13 58.8482 191.933 69.6704 192.519 83.6048C193.105 97.539 182.251 109.308 168.278 109.891C154.306 110.473 142.506 99.652 141.921 85.7197C141.335 71.7871 152.186 60.0189 166.157 59.4336Z" fill="#9C9C9C"/>
<path d="M166.651 64.4128C177.835 64.0658 187.176 72.84 187.497 83.9933C187.818 95.1466 178.996 104.44 167.811 104.733C156.664 105.025 147.384 96.2646 147.064 85.1497C146.744 74.0347 155.506 64.7588 166.651 64.4128Z" fill="white"/>
<path d="M166.659 65.371C177.314 65.0289 186.224 73.3785 186.542 84.005C186.861 94.6315 178.467 103.497 167.81 103.79C157.188 104.082 148.333 95.7455 148.016 85.1535C147.698 74.5615 156.038 65.7119 166.659 65.371Z" fill="#9C9C9C"/>
<path d="M166.287 66.2418C176.408 65.6964 185.065 73.4184 185.646 83.5098C186.225 93.6013 178.51 102.259 168.393 102.871C158.228 103.485 149.497 95.7481 148.914 85.6097C148.331 75.4715 156.118 66.7898 166.287 66.2418Z" fill="#FEFEFE"/>
<path d="M147.338 16.2876C150.281 16.1575 153.804 16.2324 156.808 16.2324L173.212 16.2272L179.104 23.9551C182.426 28.3492 183.743 30.0684 185.139 35.5238L169.979 35.4739L131.972 35.3663C132.59 31.745 134.667 28.9959 136.697 26.014C139.656 21.667 141.546 16.9737 147.338 16.2876Z" fill="#FEFEFE"/>
<path d="M153.218 19.8965C155.065 19.7286 157.209 19.8361 159.081 19.8204C160.941 19.8048 163.458 19.6616 165.09 20.5867C166.275 21.2705 167.137 22.3996 167.482 23.7216C167.86 25.1259 167.631 26.6242 166.85 27.8524C166.017 29.1583 164.854 29.9057 163.352 30.2079C161.721 30.2977 159.644 30.2268 157.976 30.256C156.84 30.2756 154.337 30.3199 153.363 30.1699C152.719 30.0662 152.099 29.8413 151.538 29.5076C150.328 28.8067 149.454 27.6456 149.118 26.2905C148.78 24.9347 148.999 23.5005 149.726 22.3065C150.587 20.8796 151.683 20.2971 153.218 19.8965Z" fill="#9C9C9C"/>
<path d="M153.917 20.8509C155.624 20.8096 157.384 20.815 159.096 20.8145C160.822 20.8138 163.151 20.5881 164.666 21.4808C165.621 22.0526 166.303 22.9856 166.557 24.0672C166.831 25.2101 166.613 26.415 165.955 27.3902C165.154 28.5977 164.242 28.9461 162.921 29.2196C161.112 29.1912 154.697 29.3754 153.343 29.097C152.746 28.9785 152.181 28.7369 151.684 28.3876C150.767 27.7531 150.155 26.7678 149.994 25.6664C149.843 24.5482 150.144 23.4158 150.831 22.5192C151.645 21.4533 152.622 21.0111 153.917 20.8509Z" fill="#FEFEFE"/>
<path d="M148.147 116.975C141.848 115.045 139.358 113.312 134.425 109.078C116.839 93.9846 117.15 66.5377 135.649 52.1875C145.723 44.3736 156.712 45.3987 168.784 46.9397L168.73 47.1826C155.597 46.7456 143.68 52.905 136.277 63.6715C130.75 71.783 128.636 81.7335 130.39 91.3831C132.09 100.145 136.792 108.045 143.691 113.73C145.153 114.954 146.574 115.907 148.147 116.975Z" fill="#D9D9D9"/>
<path d="M81.0953 112.083C84.1505 111.973 87.8465 112.064 90.9405 112.062L110.137 112.062L126.508 112.079C129.575 112.083 133.044 112.007 136.074 112.159C139.495 114.645 143.12 116.719 147.215 117.833C149.969 118.582 152.347 119.087 154.956 120.35C155.855 120.785 157.606 120.868 158.548 121.384L158.257 121.394C152.681 121.561 146.416 121.359 140.799 121.33L112.377 121.312L94.1236 121.311C91.2555 121.309 88.2976 121.357 85.4676 121.248C83.717 121.077 81.6629 119.712 81.2756 117.961C80.872 116.135 81.0663 113.943 81.0953 112.083Z" fill="#FEFEFE"/>
<path d="M131.772 36.4659C137.223 36.2544 143.918 36.4218 149.454 36.4216L185.356 36.52C186.155 41.7953 187.266 47.6203 188.214 52.9314C186.409 51.4632 184.013 50.047 181.947 48.9689C174.892 45.5617 167.731 44.8796 160.038 44.5832C148.502 44.1387 140.299 47.0963 130.793 53.5874C130.788 48.5142 131.216 41.5561 131.772 36.4659Z" fill="#FEFEFE"/>
<path d="M85.4387 36.4521C86.8474 36.3406 89.1384 36.4043 90.5978 36.4047L100.216 36.4092L130.777 36.4222C130.536 38.8981 130.311 41.3753 130.102 43.854L126.306 43.8642L80.8179 43.7696C80.8282 40.1851 81.207 37.2524 85.4387 36.4521Z" fill="#FEFEFE"/>
<path d="M193.75 112.104C202.625 111.929 212.165 112.041 221.077 112.077L221.099 115.522C221.106 117.142 221.256 118.713 219.962 119.934C218.096 121.696 215.232 121.322 212.834 121.324L204.879 121.32L188.864 121.35C185.125 121.385 181.043 121.526 177.318 121.37C183.093 119.865 189.709 116.529 193.75 112.104Z" fill="#FEFEFE"/>
<path d="M186.291 36.5493L206.085 36.5794C208.742 36.5729 211.414 36.5621 214.07 36.5659C218.503 36.5719 221.203 39.3337 221.208 43.7318C217.123 43.5277 212.194 43.6527 208.053 43.6641L187.455 43.6417C187.212 41.5516 186.655 38.6579 186.291 36.5493Z" fill="#FEFEFE"/>
<path d="M142.799 13.3733C143.774 13.2546 146.53 13.3146 147.628 13.3136L157.031 13.3106L164.428 13.3052C168.62 13.3048 168.461 13.1236 172.178 15.1615C166.382 15.3361 160.497 15.1041 154.695 15.2221C148.653 15.345 144.023 14.1354 139.843 19.4537C137.187 22.9955 134.794 27.2149 132.356 30.9365C131.653 32.0106 131.2 34.1173 130.952 35.3738C129.504 35.3891 128.032 35.3731 126.582 35.3698C126.716 33.5586 126.944 31.5785 127.73 29.9104C128.717 27.8149 130.485 25.6838 131.811 23.7254C133.302 21.5228 134.76 19.2196 136.349 17.1042C138.054 14.8357 139.995 13.7159 142.799 13.3733Z" fill="#FEFEFE"/>
<path d="M132.171 53.8115C132.151 54.0776 130.607 55.605 130.323 55.9343C128.695 57.826 126.834 59.9558 125.554 62.0909C122.065 67.9637 120.297 74.6947 120.452 81.5192C120.583 89.7023 123.318 97.6324 128.265 104.163C129.812 106.173 131.308 107.651 133.113 109.406C132.398 108.998 132.208 108.842 131.588 108.319C129.142 106.187 126.793 103.833 124.918 101.178C119.384 93.4533 117.162 83.8486 118.744 74.4869C120.303 65.7024 124.877 58.8758 132.171 53.8115Z" fill="#FEFEFE"/>
<path d="M196.495 31.0929C201.074 30.9247 206.4 31.0811 211.064 31.0476C211.062 32.5825 211.048 34.1174 211.023 35.6523L196.461 35.6005C196.432 34.098 196.443 32.5948 196.495 31.0929Z" fill="#FEFEFE"/>
<path d="M104.504 30.4735L110.139 30.4532C114.805 30.4362 115.771 30.092 115.044 35.4005C111.194 35.4506 107.344 35.4504 103.494 35.3993C103.008 35.3935 102.51 35.4266 102.134 35.0735C101.138 34.137 100.885 31.9394 101.88 30.9264C102.512 30.2835 103.676 30.4486 104.504 30.4735Z" fill="#FEFEFE"/>
<path d="M103.494 35.3993C103.008 35.3935 102.51 35.4266 102.134 35.0735C101.138 34.137 100.885 31.9394 101.88 30.9264C102.512 30.2835 103.676 30.4486 104.504 30.4735C102.686 31.5483 102.957 33.6406 103.494 35.3993Z" fill="#B7B4B9"/>
<path d="M86.7427 45.4177L87.1007 45.5355C87.4349 46.3118 87.3187 53.9942 87.3245 55.2854L87.3215 76.1576C87.307 87.082 87.3755 98.0231 87.2953 108.948C87.2906 109.595 87.2745 110.139 87.0675 110.757C86.8049 110.597 86.4548 110.351 86.4382 110.035C86.3739 108.823 86.3924 107.304 86.3887 106.12L86.3772 94.318L86.373 63.8671C86.3739 58.3417 86.3566 52.8003 86.416 47.2756C86.4235 46.5916 86.3863 45.9886 86.7427 45.4177Z" fill="#FEFEFE"/>
<path d="M215.285 50.7966C215.601 50.8351 215.648 50.8589 215.953 50.9634C216.204 51.3554 216.161 51.6725 216.163 52.1874C216.177 54.937 216.17 57.6943 216.169 60.4437L216.169 76.1667L216.172 85.1434C216.172 86.5608 216.241 88.9314 216.09 90.2385C215.665 90.2028 215.506 90.2604 215.245 89.9367C215.112 87.5558 215.207 84.4247 215.212 81.9878L215.223 67.4706L215.203 56.7009C215.2 55.1287 215.115 52.2525 215.285 50.7966Z" fill="#FEFEFE"/>
<path d="M98.687 30.3965C99.4276 30.3735 100.339 30.4266 101.094 30.4516C100.396 31.8111 100.081 33.4635 100.84 34.897C100.969 35.1398 100.976 35.0591 101.001 35.3342L100.67 35.3904C99.5964 35.403 98.5228 35.4072 97.4492 35.4028C97.4715 33.6146 96.7514 31.2682 98.687 30.3965Z" fill="#FEFEFE"/>
<path d="M168.784 46.9397C169.338 46.9821 170.176 46.9404 170.514 47.2802L170.217 47.0635L170.568 47.2289L170.161 47.3072L170.227 47.2946C169.788 47.2683 169.146 47.251 168.73 47.1827L168.784 46.9397Z" fill="#43465E"/>
<path d="M77.6626 122.261H172.87V166.855H77.6626V145.277H32.9438L32.9438 50.3354H77.6626V122.261ZM263.027 -5.04736C261.183 3.27166 256.285 12.5515 254.337 20.8472C250.68 37.2177 246.927 53.5669 243.079 69.894L235.94 99.8687C234.891 104.426 240.379 111.256 239.225 115.788C238.838 117.329 231.008 122.233 230.57 123.7C227.91 123.036 224.428 123.678 221.916 122.98L222.896 99.5669L222.879 57.6831L222.842 46.7417C222.825 43.3831 223.343 39.9048 220.694 37.3169C218.304 34.9832 214.929 35.05 211.796 35.0688C211.748 33.2674 211.937 31.7917 211.952 29.9849C209.45 29.9189 197.39 29.5611 195.824 30.1079C195.39 30.6412 195.538 35.0187 195.545 35.9009C193.022 35.9288 189.798 35.1798 187.349 35.0161C186.991 35.0428 187.028 34.7917 186.919 34.4185C186.246 32.409 185.523 29.3021 184.305 27.5659C181.128 23.0386 177.711 18.3585 174.092 14.1812C173.327 13.2978 171.373 12.7374 170.557 11.9917C167.512 10.5081 166.619 10.0914 162.771 10.0571C161.229 10.0658 149.068 10.0564 153.395 10.0571C154.653 3.32452 156.912 -4.81777 158.444 -11.521C159.502 -16.1524 161.839 -22.8359 163.065 -27.3442L263.027 -5.04736Z" fill="#D9D9D9"/>
</g>
<defs>
<clipPath id="clip0_534_3081">
<path d="M80 10H203C214.046 10 223 18.9543 223 30V122H84C81.7909 122 80 120.209 80 118V10Z" fill="white"/>
</clipPath>
</defs>
</svg>
