<svg width="303" height="134" viewBox="0 0 303 134" fill="none" xmlns="http://www.w3.org/2000/svg">
<rect width="303" height="134" rx="12" fill="#D9D9D9"/>
<rect x="92" y="12" width="120" height="110" rx="2" fill="white"/>
<rect x="94.9702" y="27.9678" width="114.059" height="77.4731" rx="2" fill="#D9D9D9"/>
<path d="M100.304 15.0343C102.059 15.0231 104.308 14.9331 106.072 15.0901C106.403 15.1195 106.631 15.5377 106.807 15.8165C106.908 18.2388 106.81 20.9153 106.78 23.352C106.785 23.7527 106.385 24.3232 105.976 24.361C104.523 24.4953 102.887 24.4262 101.426 24.4228C100.283 24.4192 96.3022 24.5939 95.488 24.224C94.9198 23.6197 94.9513 21.5447 95.0044 20.6782C95.0802 19.4392 94.7342 16.2794 95.316 15.3233C95.963 14.8723 99.3392 15.0331 100.304 15.0343Z" fill="#D9D9D9"/>
<path d="M117.532 15.0343C119.287 15.0231 121.535 14.9331 123.3 15.0901C123.63 15.1195 123.859 15.5377 124.035 15.8165C124.135 18.2388 124.037 20.9153 124.008 23.352C124.013 23.7527 123.613 24.3232 123.204 24.361C121.751 24.4953 120.114 24.4262 118.654 24.4228C117.511 24.4192 113.53 24.5939 112.716 24.224C112.148 23.6197 112.179 21.5447 112.232 20.6782C112.308 19.4392 111.962 16.2794 112.544 15.3233C113.191 14.8723 116.567 15.0331 117.532 15.0343Z" fill="#D9D9D9"/>
<path d="M134.432 15.0343C136.275 15.0231 138.636 14.9331 140.489 15.0901C140.836 15.1195 141.076 15.5377 141.261 15.8165C141.366 18.2388 141.263 20.9153 141.232 23.352C141.238 23.7527 140.818 24.3232 140.388 24.361C138.863 24.4953 137.144 24.4262 135.61 24.4228C134.41 24.4192 130.23 24.5939 129.375 24.224C128.779 23.6197 128.812 21.5447 128.868 20.6782C128.947 19.4392 128.584 16.2794 129.195 15.3233C129.874 14.8723 133.419 15.0331 134.432 15.0343Z" fill="#D9D9D9"/>
<path d="M151.393 15.0343C153.148 15.0231 155.397 14.9331 157.161 15.0901C157.492 15.1195 157.72 15.5377 157.896 15.8165C157.997 18.2388 157.899 20.9153 157.869 23.352C157.874 23.7527 157.475 24.3232 157.066 24.361C155.612 24.4953 153.976 24.4262 152.515 24.4228C151.372 24.4192 147.391 24.5939 146.577 24.224C146.009 23.6197 146.04 21.5447 146.094 20.6782C146.169 19.4392 145.823 16.2794 146.405 15.3233C147.052 14.8723 150.428 15.0331 151.393 15.0343Z" fill="#D9D9D9"/>
<path d="M168.294 15.0343C170.136 15.0231 172.497 14.9331 174.35 15.0901C174.697 15.1195 174.937 15.5377 175.122 15.8165C175.227 18.2388 175.124 20.9153 175.094 23.352C175.099 23.7527 174.679 24.3232 174.25 24.361C172.724 24.4953 171.005 24.4262 169.472 24.4228C168.271 24.4192 164.092 24.5939 163.237 24.224C162.64 23.6197 162.673 21.5447 162.729 20.6782C162.809 19.4392 162.445 16.2794 163.056 15.3233C163.736 14.8723 167.281 15.0331 168.294 15.0343Z" fill="#D9D9D9"/>
<path d="M185.255 15.0343C187.01 15.0231 189.258 14.9331 191.023 15.0901C191.353 15.1195 191.582 15.5377 191.758 15.8165C191.858 18.2388 191.76 20.9153 191.731 23.352C191.736 23.7527 191.336 24.3232 190.927 24.361C189.474 24.4953 187.837 24.4262 186.377 24.4228C185.233 24.4192 181.253 24.5939 180.439 24.224C179.871 23.6197 179.902 21.5447 179.955 20.6782C180.031 19.4392 179.685 16.2794 180.267 15.3233C180.914 14.8723 184.29 15.0331 185.255 15.0343Z" fill="#D9D9D9"/>
<path d="M202.482 15.0343C204.237 15.0231 206.486 14.9331 208.251 15.0901C208.581 15.1195 208.81 15.5377 208.986 15.8165C209.086 18.2388 208.988 20.9153 208.958 23.352C208.963 23.7527 208.564 24.3232 208.155 24.361C206.702 24.4953 205.065 24.4262 203.604 24.4228C202.461 24.4192 198.48 24.5939 197.666 24.224C197.098 23.6197 197.129 21.5447 197.183 20.6782C197.258 19.4392 196.912 16.2794 197.494 15.3233C198.141 14.8723 201.517 15.0331 202.482 15.0343Z" fill="#D9D9D9"/>
<path d="M100.304 109.025C102.059 109.014 104.308 108.924 106.072 109.081C106.403 109.11 106.631 109.528 106.807 109.807C106.908 112.23 106.81 114.906 106.78 117.343C106.785 117.743 106.385 118.314 105.976 118.352C104.523 118.486 102.887 118.417 101.426 118.413C100.283 118.41 96.3022 118.585 95.488 118.215C94.9198 117.61 94.9513 115.535 95.0044 114.669C95.0802 113.43 94.7342 110.27 95.316 109.314C95.963 108.863 99.3392 109.024 100.304 109.025Z" fill="#D9D9D9"/>
<path d="M117.532 109.025C119.287 109.014 121.535 108.924 123.3 109.081C123.63 109.11 123.859 109.528 124.035 109.807C124.135 112.23 124.037 114.906 124.008 117.343C124.013 117.743 123.613 118.314 123.204 118.352C121.751 118.486 120.114 118.417 118.654 118.413C117.511 118.41 113.53 118.585 112.716 118.215C112.148 117.61 112.179 115.535 112.232 114.669C112.308 113.43 111.962 110.27 112.544 109.314C113.191 108.863 116.567 109.024 117.532 109.025Z" fill="#D9D9D9"/>
<path d="M134.432 109.025C136.275 109.014 138.636 108.924 140.489 109.081C140.836 109.11 141.076 109.528 141.261 109.807C141.366 112.23 141.263 114.906 141.232 117.343C141.238 117.743 140.818 118.314 140.388 118.352C138.863 118.486 137.144 118.417 135.61 118.413C134.41 118.41 130.23 118.585 129.375 118.215C128.779 117.61 128.812 115.535 128.868 114.669C128.947 113.43 128.584 110.27 129.195 109.314C129.874 108.863 133.419 109.024 134.432 109.025Z" fill="#D9D9D9"/>
<path d="M151.393 109.025C153.148 109.014 155.397 108.924 157.161 109.081C157.492 109.11 157.72 109.528 157.896 109.807C157.997 112.23 157.899 114.906 157.869 117.343C157.874 117.743 157.475 118.314 157.066 118.352C155.612 118.486 153.976 118.417 152.515 118.413C151.372 118.41 147.391 118.585 146.577 118.215C146.009 117.61 146.04 115.535 146.094 114.669C146.169 113.43 145.823 110.27 146.405 109.314C147.052 108.863 150.428 109.024 151.393 109.025Z" fill="#D9D9D9"/>
<path d="M168.294 109.025C170.136 109.014 172.497 108.924 174.35 109.081C174.697 109.11 174.937 109.528 175.122 109.807C175.227 112.23 175.124 114.906 175.094 117.343C175.099 117.743 174.679 118.314 174.25 118.352C172.724 118.486 171.005 118.417 169.472 118.413C168.271 118.41 164.092 118.585 163.237 118.215C162.64 117.61 162.673 115.535 162.729 114.669C162.809 113.43 162.445 110.27 163.056 109.314C163.736 108.863 167.281 109.024 168.294 109.025Z" fill="#D9D9D9"/>
<path d="M185.255 109.025C187.01 109.014 189.258 108.924 191.023 109.081C191.353 109.11 191.582 109.528 191.758 109.807C191.858 112.23 191.76 114.906 191.731 117.343C191.736 117.743 191.336 118.314 190.927 118.352C189.474 118.486 187.837 118.417 186.377 118.413C185.233 118.41 181.253 118.585 180.439 118.215C179.871 117.61 179.902 115.535 179.955 114.669C180.031 113.43 179.685 110.27 180.267 109.314C180.914 108.863 184.29 109.024 185.255 109.025Z" fill="#D9D9D9"/>
<path d="M202.482 109.025C204.237 109.014 206.486 108.924 208.251 109.081C208.581 109.11 208.81 109.528 208.986 109.807C209.086 112.23 208.988 114.906 208.958 117.343C208.963 117.743 208.564 118.314 208.155 118.352C206.702 118.486 205.065 118.417 203.604 118.413C202.461 118.41 198.48 118.585 197.666 118.215C197.098 117.61 197.129 115.535 197.183 114.669C197.258 113.43 196.912 110.27 197.494 109.314C198.141 108.863 201.517 109.024 202.482 109.025Z" fill="#D9D9D9"/>
</svg>
