<svg width="940" height="254" viewBox="0 0 940 254" fill="none" xmlns="http://www.w3.org/2000/svg">
<g clip-path="url(#clip0_712_1857)">
<path d="M17.5515 28.8893L57.803 64.8792L89.1666 -2.30918L93.4129 51.7983L158.398 -22.8488L126.263 44.5681L219.096 -30.9051L153.434 43.8316L265.867 -25.7621L172.511 49.6539L294.553 -7.87629L181.799 61.5178L302.607 21.1625L180.475 78.369L289.314 58.7748L168.655 98.7096L255.854 101.618L147.388 120.733L205.2 145.885L118.566 142.482L141.854 187.642L84.749 162.025L71.4417 223.182L48.9414 177.624L0.223289 249.343L14.3256 187.894L-65.4756 263.802L-16.0233 191.922L-119.817 265.275L-39.4085 189.351L-157.971 253.631L-53.7522 180.408L-176.55 229.903L-57.7792 165.888L-173.9 196.202L-51.1325 147.082L-150.259 155.52L-34.403 125.661L-107.727 111.473L-9.07514 103.527L-50.0831 67.9743L22.5987 82.6478L17.5515 28.8893Z" fill="#84838B" fill-opacity="0.1"/>
<g clip-path="url(#clip1_712_1857)">
<path d="M296.456 -6.04458C301.465 -6.79053 308.445 -7.29822 313.64 -7.80713L343.926 -10.7808L397.702 -15.9465C403.164 -16.4476 408.719 -17.0481 414.177 -17.4844L429.302 136.584C425.804 137.186 421.67 137.377 418.087 137.774C418.002 143.999 413.008 144.788 408.203 146.402L399.263 149.43L370.272 159.384C368.749 159.915 361.191 162.361 360.497 163.015C354.628 168.541 347.376 177.135 342.109 182.901C329.605 196.5 317.017 210.023 304.346 223.467L292.521 235.989C291.361 237.21 289.511 239.43 288.454 240.41C286.944 239.309 284.828 237.214 283.399 235.877L273.524 226.491L239.14 193.891C225.617 181.23 212.181 168.477 198.832 155.632L188.177 145.482C186.77 144.159 182.503 140.238 181.476 138.903C182.496 137.757 184.608 135.748 185.789 134.744C185.426 134.371 185.064 133.948 185.02 133.427C185.337 132.288 193.994 123.521 195.29 122.144C202.001 115.128 208.641 108.043 215.209 100.892L227.655 112.364C227.401 111.659 227.159 110.95 226.927 110.238C226.434 108.879 225.92 107.307 225.402 105.982C223.505 101.135 225.308 96.9648 230.283 95.2462C234.065 93.9402 238.067 92.7421 241.858 91.3548C239.421 84.1729 239.354 84.6615 246.576 82.2011L256.821 78.7276C262.668 76.758 262.548 78.414 264.275 83.7619L268.116 82.454C267.686 80.9484 266.916 77.935 267.135 76.3946C268.032 70.1082 271.971 57.9725 274.941 52.6548C276.377 50.0378 278.429 47.8108 280.92 46.1668C283.649 44.3863 288.036 43.1117 291.212 42.0598L301.151 38.7711C299.896 29.0408 299.073 19.5035 298.032 9.76317L296.952 -0.305218C296.777 -1.95606 296.419 -4.47014 296.456 -6.04458Z" fill="#080717"/>
<path d="M185.788 134.745C185.426 134.371 185.063 133.948 185.02 133.427C185.337 132.288 193.994 123.521 195.29 122.145C202.001 115.128 208.641 108.044 215.209 100.892L227.655 112.365C227.401 111.66 227.159 110.95 226.927 110.238L227.003 110.403C227.879 112.353 228.881 115.594 229.594 117.7L233.975 130.622L248.988 174.796C250.249 178.483 251.484 182.178 252.695 185.882C253.348 187.877 254.061 190.53 254.962 192.343C256.366 195.168 260.321 196.284 263.212 195.466C266.073 194.657 268.718 193.728 271.487 192.781L284.928 188.237L329.635 173.238C331.8 175.598 334.4 177.771 336.616 180.185C328.462 188.789 320.377 197.833 312.256 206.542L298.276 221.58C294.942 225.13 291.4 228.752 288.164 232.365C274.16 218.734 259.982 205.283 245.633 192.016L204.181 152.399C201.834 150.149 187.258 136.789 186.578 135.286C186.3 134.905 186.224 134.921 185.788 134.745Z" fill="#F5F5F5"/>
<path d="M208.51 123.258C221.818 117.487 235.09 135.24 222.221 142.786C218.82 144.084 216.346 144.538 212.759 143.534C203.606 140.973 198.603 128.498 208.51 123.258Z" fill="#080717"/>
<path d="M209.327 123.888C214.918 121.601 222.489 124.339 225.261 129.68C227.941 134.845 226.352 139.651 221.16 142.204C215.398 144.702 207.854 141.875 205.121 136.273C202.643 131.192 204.228 126.351 209.327 123.888Z" fill="#F5F5F5"/>
<path d="M324.747 79.8182C347.289 69.8516 373.64 80.0797 383.555 102.644C393.47 125.209 383.181 151.536 360.594 161.399C338.08 171.231 311.856 160.983 301.974 138.491C292.091 116 302.279 89.7525 324.747 79.8182Z" fill="#FEFEFE"/>
<path d="M327.27 83.05C348.149 74.9114 371.672 85.2485 379.796 106.133C387.921 127.017 377.569 150.533 356.679 158.644C335.809 166.748 312.319 156.407 304.202 135.542C296.085 114.677 306.41 91.1808 327.27 83.05Z" fill="#080717"/>
<path d="M328.75 84.0226C349.046 76.7033 371.432 87.223 378.752 107.519C386.072 127.815 375.553 150.202 355.258 157.522C334.961 164.843 312.573 154.323 305.253 134.027C297.933 113.73 308.453 91.342 328.75 84.0226Z" fill="#FEFEFE"/>
<path d="M329.288 90.2568C346.057 83.143 365.415 91.0015 372.48 107.791C379.545 124.58 371.63 143.915 354.82 150.932C338.079 157.919 318.841 150.044 311.804 133.323C304.769 116.603 312.588 97.3414 329.288 90.2568Z" fill="#080717"/>
<path d="M329.322 91.4369C345.444 84.3282 364.273 91.661 371.341 107.8C378.41 123.939 371.03 142.75 354.874 149.778C338.774 156.781 320.043 149.433 313 133.351C305.957 117.269 313.258 98.52 329.322 91.4369Z" fill="#DB4431" fill-opacity="0.78"/>
<path d="M331.097 91.9462C346.9 85.8465 364.656 93.7135 370.754 109.517C376.852 125.321 368.983 143.076 353.179 149.173C337.377 155.268 319.625 147.401 313.528 131.6C307.43 115.798 315.296 98.0452 331.097 91.9462Z" fill="#080717"/>
<path d="M333.603 97.4836C346.298 92.7413 360.432 99.2083 365.143 111.915C369.855 124.622 363.353 138.74 350.635 143.421C337.96 148.085 323.901 141.611 319.206 128.948C314.511 116.284 320.951 102.21 333.603 97.4836Z" fill="#DB4431" fill-opacity="0.78"/>
<path d="M333.984 98.5828C346.076 94.0513 359.549 100.197 364.053 112.299C368.556 124.401 362.379 137.86 350.267 142.336C338.194 146.797 324.789 140.645 320.299 128.582C315.81 116.519 321.932 103.1 333.984 98.5828Z" fill="#080717"/>
<path d="M333.897 99.7289C345.296 95.1707 358.236 100.693 362.831 112.077C367.426 123.462 361.947 136.419 350.577 141.052C339.154 145.706 326.124 140.195 321.508 128.758C316.891 117.32 322.444 104.308 333.897 99.7289Z" fill="#FEFEFE"/>
<path d="M292.703 49.6172C296.029 48.3244 300.1 47.0424 303.546 45.8759L322.364 39.4996L332.133 46.1023C337.657 49.8673 339.836 51.334 343.562 57.068L326.15 62.8978L282.504 77.5339C281.803 73.1276 283.115 69.1583 284.282 64.9395C285.985 58.7892 286.325 52.6558 292.703 49.6172Z" fill="#FEFEFE"/>
<path d="M300.855 51.4859C302.908 50.5754 305.411 49.8664 307.552 49.1213C309.68 48.3812 312.512 47.239 314.744 47.6696C316.371 47.9958 317.799 48.9603 318.709 50.3473C319.69 51.8159 320.011 53.6286 319.593 55.345C319.146 57.1708 318.102 58.4825 316.497 59.4134C314.661 60.1499 312.25 60.8752 310.348 61.5564C309.053 62.02 306.199 63.0429 305.023 63.2486C304.242 63.3797 303.445 63.3615 302.671 63.1955C301.009 62.8591 299.555 61.8626 298.641 60.4343C297.725 59.0057 297.418 57.2707 297.787 55.6146C298.219 53.6388 299.25 52.5428 300.855 51.4859Z" fill="#080717"/>
<path d="M302.029 52.3116C303.971 51.6011 305.992 50.9239 307.956 50.2587C309.936 49.5877 312.521 48.4232 314.606 48.8621C315.924 49.1491 317.07 49.9575 317.783 51.1032C318.542 52.3117 318.761 53.7828 318.386 55.16C317.938 56.8602 317.027 57.6151 315.618 58.443C313.532 59.1126 306.243 61.8158 304.581 62.0216C303.851 62.1169 303.108 62.0583 302.402 61.8494C301.103 61.4756 300.017 60.5798 299.403 59.3753C298.794 58.1476 298.699 56.7278 299.138 55.4294C299.657 53.8869 300.605 52.999 302.029 52.3116Z" fill="#FEFEFE"/>
<path d="M332.842 165.141C324.864 165.368 321.332 164.341 314.023 161.385C287.971 150.85 277.639 119.152 293.274 95.4584C301.788 82.5568 314.795 79.4683 329.245 76.5533L329.277 76.8539C314.04 81.451 302.767 93.1652 298.466 108.427C295.284 119.905 296.734 132.174 302.503 142.595C307.866 152.015 316.337 159.277 326.466 163.139C328.62 163.979 330.622 164.523 332.842 165.141Z" fill="#DB4431" fill-opacity="0.78"/>
<path d="M254.01 185.552C257.473 184.238 261.748 182.907 265.297 181.704L287.322 174.25L306.109 167.911C309.629 166.725 313.58 165.29 317.116 164.289C322.008 165.82 326.975 166.799 332.106 166.49C335.558 166.282 338.483 165.939 341.968 166.379C343.169 166.531 345.209 165.946 346.491 166.174L346.162 166.298C339.829 168.656 332.564 170.857 326.108 173.005L293.493 184.021L272.551 191.109C269.26 192.22 265.885 193.424 262.596 194.398C260.521 194.881 257.633 194.109 256.506 192.244C255.332 190.301 254.701 187.703 254.01 185.552Z" fill="#FEFEFE"/>
<path d="M282.703 78.8767C288.875 76.5163 296.621 74.1091 302.972 71.9591L344.2 58.1299C347.171 63.8888 350.714 70.1589 353.87 75.901C351.226 74.913 347.926 74.2141 345.136 73.7762C335.715 72.5959 327.235 74.592 318.293 77.2385C304.885 81.2069 296.626 87.7953 288.247 98.9547C286.266 93.1202 284.048 84.9486 282.703 78.8767Z" fill="#FEFEFE"/>
<path d="M229.541 96.8536C231.114 96.1783 233.767 95.3618 235.441 94.7956L246.478 91.0654L281.545 79.2125C282.232 82.1545 282.939 85.0918 283.665 88.0244L279.313 89.5106L227.089 107.067C225.705 102.939 224.998 99.4177 229.541 96.8536Z" fill="#FEFEFE"/>
<path d="M383.264 141.827C393.378 138.179 404.367 134.604 414.606 131.185L415.973 135.139C416.611 137 417.395 138.749 416.386 140.657C414.932 143.408 411.5 144.09 408.749 145.023L399.621 148.109L381.259 154.362C376.983 155.854 372.356 157.602 368.021 158.869C374.06 154.895 380.352 148.488 383.264 141.827Z" fill="#FEFEFE"/>
<path d="M345.283 57.8008L368.004 50.1485C371.05 49.1091 374.112 48.0589 377.16 47.032C382.249 45.3173 386.422 47.4461 388.14 52.504C383.374 53.8557 377.768 55.9137 373.021 57.5349L349.381 65.5082C348.289 63.1979 346.522 60.0851 345.283 57.8008Z" fill="#FEFEFE"/>
<path d="M286.361 48.0268C287.434 47.5114 290.619 46.5104 291.879 46.0826L302.665 42.4277L311.149 39.549C315.959 37.9203 315.706 37.7737 320.764 38.6748C314.182 41.1267 307.34 43.145 300.73 45.5339C293.846 48.0217 288.063 48.4281 285.338 56.1701C283.67 61.2762 282.568 67.0599 281.22 72.2882C280.831 73.7971 281.133 76.3965 281.337 77.9383C279.682 78.5184 277.987 79.0715 276.322 79.6308C275.771 77.495 275.261 75.1286 275.513 72.9043C275.83 70.11 277.028 66.9717 277.786 64.2037C278.64 61.0905 279.415 57.8745 280.415 54.8238C281.487 51.552 283.278 49.5097 286.361 48.0268Z" fill="#FEFEFE"/>
<path d="M289.916 98.6772C289.997 98.9911 288.82 101.348 288.623 101.837C287.491 104.646 286.185 107.819 285.548 110.772C283.832 118.884 284.426 127.314 287.261 135.105C290.597 144.469 296.824 152.53 305.042 158.123C307.6 159.834 309.892 160.954 312.646 162.272C311.667 162.08 311.389 161.974 310.474 161.613C306.837 160.11 303.225 158.314 300.04 155.988C290.682 149.25 284.393 139.063 282.563 127.678C280.93 116.966 283.519 107.336 289.916 98.6772Z" fill="#FEFEFE"/>
<path d="M335.707 171.194C343.267 168.647 351.14 165.86 358.72 163.482C357.371 165.175 354.92 167.68 353.411 169.317C350.354 172.456 347.167 176.281 344.025 179.589C341.194 176.822 338.511 173.976 335.707 171.194Z" fill="#FEFEFE"/>
<path d="M354.866 47.5605C360.054 45.5886 366.225 43.7002 371.563 41.8504C372.158 43.6173 372.74 45.3884 373.309 47.1639L356.582 52.7595C355.964 51.0422 355.391 49.3083 354.866 47.5605Z" fill="#FEFEFE"/>
<path d="M249.086 82.5713L255.542 80.3599C260.889 78.5283 261.864 77.7571 263.097 84.1466C258.699 85.6994 254.282 87.1944 249.845 88.6308C249.285 88.8129 248.726 89.0444 248.158 88.784C246.651 88.0934 245.504 85.6635 246.252 84.1114C246.726 83.1265 248.126 82.8643 249.086 82.5713Z" fill="#FEFEFE"/>
<path d="M249.845 88.6308C249.285 88.8129 248.726 89.0444 248.158 88.784C246.651 88.0934 245.504 85.6635 246.252 84.1114C246.726 83.1265 248.126 82.8643 249.086 82.5713C247.418 84.5142 248.544 86.8157 249.845 88.6308Z" fill="#B7B4B9"/>
<path d="M234.528 106.661L234.985 106.658C235.67 107.421 238.529 116.305 239.038 117.788L247.163 141.802C251.401 154.376 255.74 166.937 259.902 179.536C260.149 180.283 260.342 180.915 260.345 181.706C259.982 181.624 259.485 181.478 259.342 181.12C258.797 179.751 258.227 177.997 257.761 176.635L253.152 163.062L241.289 128.031C239.138 121.673 236.96 115.305 234.877 108.926C234.619 108.136 234.342 107.457 234.528 106.661Z" fill="#FEFEFE"/>
<path d="M384.096 62.9317C384.473 62.8535 384.537 62.8623 384.927 62.8644C385.368 63.2179 385.442 63.5995 385.645 64.1909C386.732 67.3489 387.798 70.5237 388.867 73.6873L394.991 91.776L398.489 102.103C399.041 103.733 400.043 106.434 400.38 107.996C399.878 108.12 399.717 108.248 399.292 107.977C398.213 105.289 397.103 101.65 396.159 98.8447L390.518 82.1391L386.301 69.7564C385.686 67.9487 384.468 64.6727 384.096 62.9317Z" fill="#FEFEFE"/>
<path d="M242.382 84.7417C243.223 84.4276 244.289 84.1347 245.165 83.8704C244.894 85.7053 245.176 87.7287 246.605 89.0833C246.847 89.3126 246.824 89.217 246.96 89.5237L246.602 89.717C245.375 90.1484 244.145 90.5701 242.912 90.982C242.241 88.9161 240.501 86.4962 242.382 84.7417Z" fill="#FEFEFE"/>
<path d="M329.245 76.5532C329.897 76.3868 330.842 76.0134 331.362 76.273L330.937 76.1391L331.404 76.1932L330.967 76.4414L331.038 76.4012C330.525 76.5413 329.781 76.7708 329.277 76.8538L329.245 76.5532Z" fill="#43465E"/>
<path d="M254.035 198.595L363.264 161.622L380.63 212.926L271.401 249.899L262.998 225.074L211.695 242.44L174.722 133.211L226.026 115.846L254.035 198.595ZM417.122 -19.8555C418.246 -9.56864 416.241 3.00934 417.237 13.3096C419.416 33.564 421.477 53.8316 423.421 74.11L426.902 111.367C427.474 117.017 436.43 122.744 436.871 128.405C437.028 130.329 429.955 139.012 430.023 140.869C426.713 141.139 422.968 143.23 419.813 143.402L411.82 116.085L395.491 67.9053L391.188 55.3322C389.86 51.4748 389.101 47.2719 385.053 45.3234C381.402 43.5662 377.557 44.9541 373.969 46.1925C373.213 44.1386 372.855 42.3678 372.167 40.2836C369.272 41.179 355.296 45.4509 353.712 46.6882C353.422 47.4701 355.296 52.4475 355.649 53.4599C352.765 54.4719 348.775 54.8626 345.902 55.6252C345.501 55.7952 345.445 55.4921 345.176 55.1048C343.621 53.0545 341.581 49.7607 339.508 48.2363C334.099 44.2616 328.357 40.2044 322.578 36.8039C321.356 36.0847 318.896 36.1982 317.669 35.6571C313.598 35.133 312.412 35 307.984 36.4549C306.22 37.0631 292.261 41.7759 297.227 40.096C296.049 31.8617 295.468 21.6179 294.616 13.3113C294.027 7.57186 294.105 -1.02474 293.756 -6.68762L417.122 -19.8555Z" fill="#F5F5F5"/>
</g>
<rect x="671.228" y="-96" width="205.69" height="266.443" transform="rotate(29.7535 671.228 -96)" fill="white"/>
<path d="M806.319 53.4564L716.231 211.056L712.172 218.155L563.091 132.937L619.092 34.969L676.509 -35.8166L664.728 70.4744L720.109 49.3864L729.84 85.0893L806.319 53.4564Z" fill="#DB4431" fill-opacity="0.29"/>
<rect width="82.4729" height="106.832" transform="matrix(-0.901527 0.432723 0.432723 0.901527 887.924 65)" fill="white"/>
<path d="M828.519 116.81L860.731 183.92L862.182 186.943L925.664 156.472L905.64 114.755L884.238 84.1147L885.93 127.935L863.899 117.681L858.869 131.998L828.519 116.81Z" fill="#F3E4E2"/>
<path d="M691.157 139.115L688.355 137.514L690.415 117.178C690.509 116.258 690.333 115.33 689.91 114.508C689.486 113.686 688.834 113.004 688.031 112.545L657.519 95.1058C656.716 94.6469 655.797 94.4307 654.874 94.4834C653.95 94.5361 653.062 94.8554 652.316 95.4026L635.84 107.499L633.038 105.898C632.488 105.583 631.835 105.5 631.223 105.667C630.611 105.834 630.091 106.236 629.776 106.787C629.462 107.337 629.379 107.99 629.545 108.602C629.712 109.214 630.115 109.734 630.666 110.049L632.741 111.235L620.878 131.992C620.248 133.093 620.082 134.399 620.416 135.622C620.749 136.846 621.555 137.887 622.656 138.516L628.883 142.075C629.984 142.704 631.29 142.871 632.514 142.537C633.737 142.203 634.778 141.397 635.407 140.296L636.594 138.221L661.502 152.457L660.316 154.533C659.686 155.634 659.52 156.939 659.854 158.163C660.187 159.386 660.993 160.427 662.094 161.057L668.321 164.616C669.422 165.245 670.728 165.411 671.952 165.077C673.175 164.744 674.216 163.938 674.845 162.837L686.709 142.08L688.784 143.267C689.335 143.581 689.988 143.664 690.6 143.498C691.211 143.331 691.732 142.928 692.046 142.377C692.361 141.827 692.444 141.174 692.277 140.562C692.11 139.95 691.708 139.43 691.157 139.115ZM640.384 110.096L655.146 99.2571L685.658 116.696L683.812 134.917L640.384 110.096Z" fill="white"/>
<path d="M874.872 155.293L876.376 154.611L876.297 144.16C876.294 143.687 876.427 143.223 876.682 142.824C876.937 142.426 877.302 142.11 877.732 141.915L894.099 134.492C894.53 134.297 895.008 134.231 895.476 134.302C895.943 134.373 896.38 134.578 896.734 134.892L904.544 141.837L906.047 141.155C906.343 141.021 906.679 141.01 906.983 141.124C907.286 141.239 907.532 141.469 907.666 141.764C907.8 142.059 907.811 142.396 907.697 142.699C907.583 143.002 907.353 143.248 907.057 143.382L905.944 143.887L910.993 155.021C911.261 155.612 911.283 156.284 911.055 156.891C910.827 157.498 910.367 157.99 909.776 158.258L906.436 159.772C905.845 160.04 905.173 160.062 904.566 159.834C903.959 159.606 903.467 159.146 903.199 158.555L902.694 157.442L889.334 163.501L889.839 164.614C890.106 165.205 890.129 165.878 889.9 166.485C889.672 167.092 889.212 167.583 888.622 167.851L885.281 169.366C884.691 169.633 884.018 169.656 883.411 169.427C882.804 169.199 882.313 168.739 882.045 168.149L876.996 157.015L875.882 157.52C875.587 157.654 875.251 157.665 874.947 157.551C874.644 157.436 874.398 157.206 874.264 156.911C874.13 156.616 874.119 156.279 874.233 155.976C874.347 155.672 874.577 155.427 874.872 155.293ZM902.107 142.942L895.109 136.719L878.742 144.141L878.812 153.506L902.107 142.942Z" fill="white"/>
</g>
<defs>
<clipPath id="clip0_712_1857">
<rect width="940" height="254" rx="16" fill="white"/>
</clipPath>
<clipPath id="clip1_712_1857">
<path d="M213 68.5332L358.116 19.4127C368.579 15.8712 379.931 21.4819 383.473 31.9444L420.676 141.854L260.405 196.104C258.312 196.812 256.041 195.69 255.333 193.598L213 68.5332Z" fill="white"/>
</clipPath>
</defs>
</svg>
