<svg width="335" height="295" viewBox="0 0 335 295" fill="none" xmlns="http://www.w3.org/2000/svg">
<g clip-path="url(#clip0_557_1785)">
<path d="M-26.0013 7.16594L14.2503 43.1558L45.6138 -24.0326L49.8601 30.0749L114.846 -44.5722L82.7104 22.8447L175.543 -52.6285L109.881 22.1082L222.314 -47.4855L128.958 27.9305L251 -29.5997L138.246 39.7944L259.055 -0.560885L136.922 56.6456L245.761 37.0514L125.103 76.9862L212.301 79.8943L103.835 99.0098L161.647 124.162L75.0135 120.759L98.3011 165.919L41.1963 140.301L27.889 201.458L5.3887 155.901L-43.3294 227.619L-29.2272 166.17L-109.028 242.079L-59.576 170.199L-163.369 243.552L-82.9612 167.628L-201.524 231.907L-97.3049 158.684L-220.102 208.18L-101.332 144.165L-217.453 174.478L-94.6853 125.359L-193.812 133.796L-77.9557 103.938L-151.28 89.7494L-52.6279 81.8037L-93.6358 46.2509L-20.9541 60.9245L-26.0013 7.16594Z" fill="#84838B" fill-opacity="0.1"/>
<g clip-path="url(#clip1_557_1785)">
<path d="M71.7537 -9.85537C74.6524 -9.83693 78.6444 -9.51055 81.6273 -9.34172L99.0167 -8.36148L129.884 -6.55618C133.017 -6.35938 136.211 -6.21072 139.337 -5.97776L134.348 82.4852C132.317 82.518 129.962 82.263 127.901 82.1721C127.305 85.6855 124.412 85.6928 121.552 86.1834L116.23 87.1097L98.9595 90.1913C98.0515 90.3577 93.5623 91.0766 93.112 91.3855C89.3074 93.9946 84.4507 98.2175 80.965 101.016C72.6978 107.608 64.3902 114.149 56.0423 120.639L48.2542 126.681C47.4907 127.27 46.2494 128.363 45.5655 128.824C44.8079 128.069 43.7959 126.698 43.1052 125.816L38.3455 119.64L21.765 98.1804C15.2299 89.8314 8.75186 81.4378 2.33154 73.0003L-2.80249 66.3234C-3.48157 65.4511 -5.55038 62.8585 -6.01357 62.0132C-5.3365 61.455 -3.96532 60.5045 -3.20934 60.0405C-3.3815 59.7973 -3.54938 59.5264 -3.52794 59.2278C-3.24876 58.6114 2.41791 54.4143 3.27181 53.7498C7.6841 50.3714 12.0621 46.9485 16.405 43.4811L22.4355 51.0634C22.354 50.6424 22.2791 50.22 22.2105 49.7967C22.0513 48.9849 21.8989 48.051 21.7221 47.2561C21.0756 44.3478 22.4615 42.1479 25.4266 41.6133C27.6799 41.2071 30.0488 40.8813 32.3148 40.4299C31.5675 36.1539 31.4865 36.4244 35.7872 35.6677L41.8866 34.6037C45.367 34.0038 45.1535 34.9298 45.6599 38.1061L47.9472 37.704C47.8361 36.8148 47.6655 35.0428 47.9251 34.1909C48.9846 30.7145 52.2792 24.1974 54.4267 21.451C55.4684 20.0971 56.8249 19.0181 58.3783 18.3073C60.0778 17.5401 62.6712 17.2049 64.5596 16.8891L70.4699 15.9028C70.6151 10.2895 70.9882 4.82337 71.2555 -0.776776L71.5298 -6.56588C71.5758 -7.51491 71.5942 -8.96823 71.7537 -9.85537Z" fill="#080717"/>
<path d="M-3.20934 60.0405C-3.38149 59.7973 -3.54937 59.5264 -3.52793 59.2278C-3.24876 58.6114 2.41791 54.4143 3.27181 53.7498C7.68411 50.3714 12.0621 46.9485 16.405 43.4812L22.4355 51.0634C22.354 50.6424 22.2791 50.2201 22.2105 49.7968L22.239 49.8968C22.5635 51.0769 22.8448 52.9979 23.0633 54.2515L24.405 61.9442L29.0129 88.247C29.4017 90.4428 29.7759 92.6413 30.1351 94.8421C30.3287 96.0281 30.4989 97.5907 30.8492 98.6953C31.3947 100.417 33.5334 101.396 35.2406 101.187C36.9295 100.981 38.5069 100.688 40.1566 100.396L48.1574 99.0074L74.7596 94.454C75.7769 95.9791 77.0564 97.437 78.0973 98.997C72.7295 103.146 67.362 107.55 62.004 111.762L52.7755 119.038C50.5781 120.752 48.2564 122.489 46.1088 124.248C39.387 115.309 32.5507 106.455 25.6019 97.6908L5.64113 71.6415C4.5113 70.1631 -2.55788 61.3257 -2.81025 60.4163C-2.93392 60.1762 -2.97833 60.1787 -3.20934 60.0405Z" fill="#F5F5F5"/>
<path d="M10.6504 55.5412C18.684 53.4471 24.6297 64.654 16.6882 67.7904C14.6507 68.2259 13.2117 68.2652 11.2713 67.3821C6.32012 65.1288 4.58696 57.6338 10.6504 55.5412Z" fill="#080717"/>
<path d="M11.0573 55.9695C14.4201 55.1673 18.4614 57.3813 19.5594 60.6457C20.6211 63.8023 19.3002 66.381 16.1393 67.3683C12.6612 68.2747 8.64305 66.0126 7.58982 62.6039C6.63478 59.5129 7.95712 56.9145 11.0573 55.9695Z" fill="#F5F5F5"/>
<path d="M80.2067 41.1911C93.8314 37.5359 107.835 45.6365 111.459 59.2694C115.083 72.9024 106.95 86.8876 93.3092 90.4802C79.7121 94.0613 65.7821 85.9607 62.1699 72.3718C58.5576 58.7831 66.6263 44.8345 80.2067 41.1911Z" fill="#FEFEFE"/>
<path d="M81.3495 43.2401C93.8731 40.4726 106.268 48.3863 109.027 60.9115C111.786 73.4369 103.864 85.8262 91.3373 88.5774C78.8217 91.3261 66.4462 83.4133 63.6894 70.8994C60.9326 58.3856 68.8375 46.005 81.3495 43.2401Z" fill="#080717"/>
<path d="M82.1007 43.9202C94.2226 41.5648 105.959 49.482 108.315 61.6037C110.67 73.7254 102.754 85.4619 90.6319 87.8179C78.5096 90.1742 66.7727 82.257 64.4167 70.1349C62.0609 58.0125 69.9784 46.2757 82.1007 43.9202Z" fill="#FEFEFE"/>
<path d="M81.8572 47.4936C91.9662 44.9443 102.223 51.0902 104.743 61.2065C107.263 71.3227 101.087 81.562 90.964 84.0524C80.8819 86.5329 70.6937 80.388 68.1841 70.3131C65.6747 60.2384 71.7898 50.0324 81.8572 47.4936Z" fill="#080717"/>
<path d="M81.773 48.1641C91.5151 45.5608 101.52 51.3629 104.099 61.1115C106.677 70.8602 100.85 80.8501 91.0953 83.4046C81.3746 85.9501 71.4275 80.148 68.8578 70.4337C66.2881 60.7195 72.0652 50.758 81.773 48.1641Z" fill="#DB4431" fill-opacity="0.78"/>
<path d="M82.7315 48.6083C92.205 46.5477 101.555 52.5575 103.615 62.0314C105.675 71.5051 99.6642 80.8548 90.1902 82.9137C80.7174 84.9723 71.3694 78.9625 69.3099 69.4901C67.2504 60.0175 73.2592 50.6688 82.7315 48.6083Z" fill="#080717"/>
<path d="M83.6624 51.9597C91.2593 50.3936 98.6842 55.2933 100.232 62.8939C101.779 70.4945 96.8615 77.9075 89.2572 79.4366C81.679 80.9603 74.2972 76.0631 72.7549 68.4887C71.2126 60.9142 76.0918 53.5205 83.6624 51.9597Z" fill="#DB4431" fill-opacity="0.78"/>
<path d="M83.7816 52.6154C91.0181 51.1154 98.0977 55.7756 99.581 63.0156C101.064 70.2557 96.3878 77.3245 89.1443 78.7911C81.9246 80.2531 74.8837 75.5951 73.4051 68.3786C71.9266 61.162 76.5684 54.1105 83.7816 52.6154Z" fill="#080717"/>
<path d="M83.6311 53.2558C90.4789 51.68 97.3113 55.9403 98.9095 62.7828C100.508 69.6254 96.2698 76.4717 89.4324 78.0923C82.5634 79.7205 75.6786 75.4585 74.0729 68.5841C72.4672 61.7099 76.7516 54.839 83.6311 53.2558Z" fill="#FEFEFE"/>
<path d="M64.7388 21.294C66.7338 20.8552 69.1488 20.488 71.2003 20.1312L82.4033 18.1791L87.3477 22.772C90.1405 25.3867 91.2441 26.4078 92.8476 29.9782L82.4878 31.7448L56.5171 36.1858C56.508 33.6322 57.5988 31.5027 58.6299 29.2194C60.1331 25.8907 60.8648 22.4518 64.7388 21.294Z" fill="#FEFEFE"/>
<path d="M69.1847 23.0672C70.4262 22.7328 71.9036 22.5517 73.1804 22.3186C74.4486 22.087 76.1506 21.6899 77.3753 22.1297C78.2665 22.4571 78.9894 23.1281 79.3822 23.9926C79.8081 24.9094 79.8302 25.9627 79.4431 26.8967C79.0297 27.89 78.3242 28.5401 77.3345 28.9255C76.2315 29.1807 74.8041 29.3789 73.6685 29.597C72.8952 29.7453 71.1911 30.0729 70.5081 30.0859C70.0552 30.0915 69.6055 30.0111 69.1826 29.8492C68.2723 29.5129 67.5373 28.8214 67.1461 27.9333C66.7538 27.0449 66.7326 26.0366 67.0871 25.1325C67.5049 24.053 68.1844 23.5238 69.1847 23.0672Z" fill="#080717"/>
<path d="M69.7761 23.6375C70.9371 23.4065 72.1397 23.2011 73.3086 22.9975C74.4872 22.792 76.0515 22.3607 77.1921 22.7922C77.9125 23.0703 78.4897 23.6283 78.792 24.3389C79.1151 25.0891 79.1095 25.9403 78.7767 26.6863C78.3735 27.6084 77.7923 27.9553 76.9224 28.2996C75.6838 28.495 71.3243 29.3831 70.3659 29.3534C69.9446 29.3431 69.5299 29.2447 69.1489 29.0645C68.447 28.7389 67.9115 28.1368 67.6701 27.4016C67.4337 26.6538 67.5045 25.8424 67.867 25.1467C68.2961 24.32 68.9104 23.9012 69.7761 23.6375Z" fill="#FEFEFE"/>
<path d="M77.2852 90.1569C72.7532 89.5835 70.8461 88.6923 66.9725 86.3784C53.1643 78.1301 50.1072 59.2953 61.0323 47.2697C66.9813 40.7215 74.6092 40.1182 83.0374 39.7396L83.0293 39.9125C74.008 41.1731 66.6026 46.8072 62.8289 55.0603C60.0205 61.2722 59.762 68.3382 62.1089 74.7388C64.3139 80.5377 68.4662 85.3897 73.8551 88.4639C74.9999 89.1285 76.0838 89.6123 77.2852 90.1569Z" fill="#DB4431" fill-opacity="0.78"/>
<path d="M30.9078 94.7708C32.9813 94.3324 35.5164 93.9556 37.6294 93.587L50.7405 91.307L61.923 89.3736C64.018 89.0122 66.3786 88.5482 68.4661 88.2924C71.0983 89.5883 73.8212 90.5785 76.7506 90.8549C78.7211 91.0407 80.4055 91.104 82.3377 91.6593C83.0036 91.8505 84.2089 91.6989 84.9139 91.9408L84.7167 91.982C80.9278 92.7591 76.6256 93.3649 72.7858 94.0121L53.372 97.3758L40.9051 99.5434C38.9459 99.8826 36.9315 100.267 34.9857 100.528C33.7697 100.619 32.2042 99.9287 31.7311 98.7751C31.238 97.5728 31.1096 96.0481 30.9078 94.7708Z" fill="#FEFEFE"/>
<path d="M56.5114 36.9626C60.2094 36.1702 64.8017 35.4896 68.5824 34.8319L93.1147 30.6347C94.2887 34.1528 95.7413 38.0102 97.0214 41.5351C95.6134 40.744 93.8084 40.0586 92.2688 39.5657C87.0448 38.0702 82.073 38.4536 76.7835 39.1644C68.852 40.2303 63.6016 43.2303 57.8823 48.8051C57.2743 45.3312 56.7383 40.5148 56.5114 36.9626Z" fill="#FEFEFE"/>
<path d="M24.8654 42.4569C25.8142 42.2132 27.3865 41.9847 28.3833 41.8117L34.9531 40.6722L55.8268 37.051C55.957 38.7753 56.0986 40.4986 56.2514 42.221L53.6597 42.6789L22.5811 48.0174C22.1612 45.5612 22.0706 43.5077 24.8654 42.4569Z" fill="#FEFEFE"/>
<path d="M107.851 81.4037C113.892 80.2293 120.42 79.1731 126.511 78.1394L126.937 80.4962C127.134 81.6048 127.424 82.6628 126.686 83.653C125.621 85.0811 123.621 85.1653 121.983 85.4512L116.549 86.3937L105.615 88.3164C103.066 88.7844 100.295 89.3662 97.7318 89.7017C101.497 87.9851 105.618 84.9145 107.851 81.4037Z" fill="#FEFEFE"/>
<path d="M93.7563 30.5437L107.279 28.2131C109.093 27.893 110.917 27.5682 112.731 27.2553C115.76 26.7328 117.933 28.3036 118.46 31.3152C115.645 31.6607 112.294 32.3318 109.467 32.8315L95.3965 35.2628C94.9816 33.8602 94.2563 31.9445 93.7563 30.5437Z" fill="#FEFEFE"/>
<path d="M61.2919 19.8371C61.9441 19.6399 63.8329 19.3536 64.5833 19.2225L71.0046 18.1035L76.056 17.2212C78.9192 16.7229 78.7889 16.6177 81.5703 17.5719C77.6323 18.3801 73.5857 18.9201 69.6371 19.6901C65.5251 20.492 62.2189 20.2136 59.9972 24.3525C58.6053 27.0937 57.4734 30.2678 56.2517 33.1062C55.8992 33.9254 55.8413 35.422 55.8215 36.312C54.8344 36.4945 53.8271 36.6583 52.8365 36.8283C52.7122 35.5719 52.6318 34.1888 52.9699 32.953C53.3947 31.4005 54.3481 29.7309 55.0204 28.2322C55.7767 26.5465 56.498 24.7959 57.3314 23.1584C58.2252 21.4023 59.4179 20.4047 61.2919 19.8371Z" fill="#FEFEFE"/>
<path d="M58.8504 48.7949C58.8685 48.9795 57.9957 50.209 57.8412 50.4682C56.9543 51.9573 55.9368 53.637 55.3172 55.2513C53.6337 59.688 53.2282 64.5079 54.147 69.1634C55.2109 74.7524 58.0239 79.8585 62.1799 83.7439C63.4763 84.9368 64.6739 85.7712 66.1157 86.7588C65.5787 86.5643 65.4307 86.4796 64.945 86.1955C63.0204 85.0258 61.1352 83.6925 59.5385 82.097C54.8387 77.4638 52.1773 71.1496 52.1428 64.55C52.1609 58.3485 54.4717 53.1298 58.8504 48.7949Z" fill="#FEFEFE"/>
<path d="M78.3732 93.8315C82.8728 93.0559 87.5701 92.1719 92.0664 91.4929C91.1544 92.3321 89.5482 93.5334 88.5509 94.3263C86.5458 95.8331 84.4072 97.7159 82.3399 99.311C80.9819 97.4971 79.7148 95.6518 78.3732 93.8315Z" fill="#FEFEFE"/>
<path d="M100.076 25.5947C103.183 24.9355 106.839 24.41 110.021 23.833C110.202 24.8845 110.375 25.9374 110.541 26.9916L100.59 28.6859C100.391 27.6603 100.22 26.6294 100.076 25.5947Z" fill="#FEFEFE"/>
<path d="M37.1746 36.0975L41.0203 35.4143C44.2051 34.8484 44.824 34.4979 44.96 38.2199C42.3365 38.7115 39.7066 39.1688 37.071 39.5911C36.7383 39.6449 36.4022 39.7267 36.1037 39.5295C35.3117 39.0064 34.877 37.5314 35.4362 36.7193C35.791 36.204 36.6059 36.1788 37.1746 36.0975Z" fill="#FEFEFE"/>
<path d="M37.071 39.5911C36.7383 39.6449 36.4022 39.7267 36.1037 39.5295C35.3117 39.0064 34.877 37.5314 35.4362 36.7193C35.791 36.204 36.6059 36.1788 37.1746 36.0975C36.0604 37.0496 36.4952 38.4503 37.071 39.5911Z" fill="#B7B4B9"/>
<path d="M26.8239 48.4425L27.0825 48.4806C27.4032 48.9726 28.2389 54.2479 28.3967 55.1316L30.8808 69.4269C32.1722 76.9105 33.5223 84.3957 34.7688 91.8873C34.8427 92.3312 34.8964 92.7054 34.8287 93.1534C34.6303 93.075 34.362 92.9486 34.3129 92.7337C34.1247 91.9114 33.9564 90.8692 33.8127 90.0581L32.3991 81.9768L28.769 61.122C28.1115 57.3377 27.4396 53.5445 26.8221 49.7537C26.7458 49.2844 26.6485 48.8758 26.8239 48.4425Z" fill="#FEFEFE"/>
<path d="M115.256 36.8575C115.476 36.8464 115.512 36.857 115.732 36.8924C115.95 37.1311 115.958 37.3534 116.021 37.7057C116.358 39.5873 116.682 41.4765 117.009 43.3596L118.882 54.128L119.953 60.2757C120.122 61.2464 120.451 62.8618 120.504 63.7749C120.209 63.801 120.107 63.8593 119.891 63.6686C119.517 62.0537 119.209 59.898 118.922 58.2284L117.199 48.2846L115.903 40.911C115.714 39.8346 115.313 37.8748 115.256 36.8575Z" fill="#FEFEFE"/>
<path d="M33.1923 36.7358C33.6954 36.632 34.3242 36.5601 34.8426 36.4876C34.5283 37.5015 34.51 38.6707 35.1988 39.5623C35.3156 39.7133 35.3109 39.6572 35.361 39.8426L35.1415 39.9204C34.4098 40.0566 33.677 40.187 32.9433 40.3115C32.7454 39.0842 31.9742 37.5627 33.1923 36.7358Z" fill="#FEFEFE"/>
<path d="M83.0375 39.7394C83.4211 39.7026 83.9882 39.5745 84.2596 39.7671L84.031 39.654L84.2901 39.7256L84.0215 39.8276L84.0652 39.8111C83.7623 39.8452 83.3217 39.9096 83.0294 39.9123L83.0375 39.7394Z" fill="#43465E"/>
<path d="M29.7755 102.15L94.7993 90.8405L100.111 121.382L35.0873 132.691L32.5171 117.913L1.97553 123.225L-9.33354 58.2009L21.208 52.889L29.7755 102.15ZM141.211 -7.06C140.942 -1.14339 138.703 5.79395 138.361 11.7069C137.813 23.3532 137.197 34.9964 136.514 46.6356L135.208 68.0124C135.035 71.2581 139.597 75.2843 139.348 78.5249C139.267 79.6266 134.504 83.9153 134.379 84.9717C132.483 84.8334 130.182 85.6872 128.382 85.5072L126.264 69.3559L121.263 40.6713L119.934 33.1829C119.522 30.8847 119.463 28.4408 117.345 26.983C115.435 25.6684 113.138 26.1154 111.001 26.5005C110.753 25.2724 110.705 24.2395 110.5 23.0004C108.783 23.2523 100.505 24.4401 99.5003 25.0007C99.2679 25.4183 99.8894 28.3974 99.9997 29.0006C98.2798 29.3194 95.9886 29.1893 94.2967 29.368C94.0553 29.4288 94.0504 29.2528 93.9321 29.0102C93.2328 27.7139 92.3689 25.6719 91.3302 24.6275C88.6209 21.9042 85.7297 19.1048 82.7605 16.6736C82.1327 16.1595 80.7319 16.0073 80.0856 15.5935C77.829 14.9392 77.1701 14.7599 74.5376 15.1935C73.4864 15.3824 65.1786 16.8208 68.1337 16.3073C68.1912 11.5468 68.7639 5.70229 69.0117 0.929406C69.183 -2.36838 69.9832 -7.22359 70.2836 -10.4569L141.211 -7.06Z" fill="#F5F5F5"/>
<path d="M103 6.50047L119 11.5002L111.5 20.5002L110.5 23.0002L102 24.5002L99.5002 25.0002L99.5002 25.5002L100 29.0002L94.0002 29.5002L91.5005 25.0004L86.0001 19.5002L103 6.50047Z" fill="#EAEAEB"/>
</g>
<rect x="253.307" y="-25" width="86.0347" height="111.446" transform="rotate(29.7535 253.307 -25)" fill="white"/>
<path d="M309.813 37.5135L272.131 103.433L270.434 106.403L208.077 70.758L231.501 29.7807L255.517 0.172949L250.589 44.6317L273.753 35.8112L277.824 50.7447L309.813 37.5135Z" fill="#DB4431" fill-opacity="0.29"/>
<rect width="55.7324" height="72.1936" transform="matrix(-0.901527 0.432723 0.432723 0.901527 327.76 40)" fill="white"/>
<path d="M287.616 75.0117L309.384 120.362L310.364 122.405L353.263 101.814L339.732 73.623L325.269 52.917L326.413 82.5295L311.525 75.6002L308.126 85.2749L287.616 75.0117Z" fill="#F3E4E2"/>
<rect x="284.677" y="130" width="36.8302" height="47.7083" transform="rotate(29.7535 284.677 130)" fill="white"/>
<path d="M309.476 154.98L292.979 183.84L292.236 185.14L264.935 169.535L275.191 151.594L285.705 138.632L283.548 158.096L293.689 154.235L295.471 160.773L309.476 154.98Z" fill="#F0E9E8" fill-opacity="0.31"/>
<path d="M84 5.5H91L85.5 17L85 18.5L81 16L77.5 15H74.5L84 5.5Z" fill="#EAEAEB"/>
<path d="M125.5 12.5L137.5 21L129 28L121 39L119.576 30.9299C119.526 30.6448 119.434 30.3685 119.305 30.1096L119 29.5L118.583 28.6659C118.528 28.5555 118.463 28.4503 118.389 28.3516C117.514 27.186 116.143 26.5 114.686 26.5H111L110.5 24L110 22L125.5 12.5Z" fill="#EAEAEB"/>
<path d="M261.643 73.3425L260.471 72.6726L261.333 64.1667C261.372 63.7818 261.299 63.3939 261.122 63.05C260.945 62.706 260.672 62.4208 260.336 62.2289L247.573 54.9345C247.238 54.7425 246.853 54.6521 246.467 54.6741C246.081 54.6962 245.709 54.8297 245.397 55.0586L238.506 60.1183L237.334 59.4484C237.104 59.3168 236.831 59.2821 236.575 59.3518C236.319 59.4216 236.101 59.5902 235.969 59.8204C235.838 60.0507 235.803 60.3238 235.873 60.5797C235.943 60.8355 236.111 61.0532 236.341 61.1848L237.21 61.681L232.247 70.363C231.984 70.8236 231.915 71.3698 232.054 71.8815C232.194 72.3933 232.531 72.8287 232.991 73.0919L235.596 74.5805C236.057 74.8437 236.603 74.9132 237.115 74.7737C237.626 74.6342 238.062 74.2971 238.325 73.8366L238.821 72.9684L249.239 78.923L248.743 79.7911C248.48 80.2517 248.411 80.7979 248.55 81.3096C248.69 81.8214 249.027 82.2568 249.487 82.52L252.092 84.0086C252.552 84.2718 253.099 84.3413 253.61 84.2018C254.122 84.0623 254.557 83.7252 254.821 83.2647L259.783 74.5827L260.651 75.0789C260.881 75.2105 261.154 75.2452 261.41 75.1755C261.666 75.1057 261.884 74.9372 262.015 74.7069C262.147 74.4767 262.182 74.2035 262.112 73.9477C262.042 73.6918 261.874 73.4741 261.643 73.3425ZM240.406 61.2044L246.581 56.6709L259.343 63.9653L258.571 71.5865L240.406 61.2044Z" fill="white"/>
<path d="M318.94 101.017L319.956 100.557L319.903 93.4937C319.901 93.1741 319.991 92.8607 320.163 92.5915C320.335 92.3222 320.582 92.1087 320.873 91.9767L331.933 86.961C332.224 86.829 332.547 86.7843 332.863 86.8322C333.179 86.8801 333.474 87.0186 333.713 87.2309L338.992 91.9242L340.007 91.4636C340.207 91.3731 340.434 91.3656 340.639 91.4427C340.844 91.5198 341.01 91.6752 341.101 91.8748C341.191 92.0743 341.199 92.3016 341.122 92.5067C341.045 92.7118 340.889 92.8779 340.69 92.9684L339.937 93.3096L343.349 100.834C343.53 101.233 343.545 101.687 343.391 102.097C343.237 102.508 342.926 102.84 342.527 103.021L340.27 104.044C339.871 104.225 339.416 104.24 339.006 104.086C338.596 103.932 338.264 103.621 338.083 103.222L337.741 102.47L328.713 106.564L329.054 107.316C329.235 107.715 329.25 108.17 329.096 108.58C328.941 108.99 328.631 109.323 328.232 109.504L325.974 110.527C325.575 110.708 325.121 110.723 324.71 110.569C324.3 110.415 323.968 110.104 323.787 109.705L320.375 102.181L319.623 102.522C319.423 102.612 319.196 102.62 318.991 102.543C318.786 102.466 318.62 102.31 318.529 102.111C318.439 101.911 318.431 101.684 318.508 101.479C318.585 101.274 318.741 101.108 318.94 101.017ZM337.345 92.671L332.616 88.4658L321.555 93.4815L321.603 99.8098L337.345 92.671Z" fill="white"/>
<path d="M283.504 165.764L283.944 166.045L286.703 164.218C286.828 164.135 286.974 164.09 287.124 164.089C287.274 164.088 287.421 164.13 287.547 164.211L292.344 167.27C292.471 167.35 292.571 167.465 292.633 167.602C292.695 167.738 292.716 167.889 292.694 168.037L292.201 171.31L292.642 171.591C292.728 171.646 292.789 171.733 292.812 171.833C292.834 171.934 292.815 172.039 292.76 172.125C292.705 172.212 292.618 172.273 292.517 172.295C292.417 172.317 292.312 172.299 292.226 172.243L291.899 172.035L289.818 175.299C289.708 175.472 289.533 175.594 289.333 175.639C289.132 175.683 288.922 175.646 288.749 175.535L287.77 174.911C287.597 174.801 287.475 174.626 287.431 174.426C287.386 174.225 287.423 174.015 287.534 173.842L287.742 173.516L283.826 171.019L283.617 171.345C283.507 171.518 283.332 171.64 283.132 171.685C282.932 171.729 282.722 171.692 282.549 171.582L281.569 170.957C281.396 170.847 281.274 170.672 281.23 170.472C281.185 170.271 281.223 170.061 281.333 169.888L283.414 166.625L283.088 166.417C283.001 166.361 282.94 166.274 282.918 166.174C282.896 166.074 282.914 165.969 282.969 165.882C283.025 165.796 283.112 165.735 283.212 165.712C283.312 165.69 283.417 165.709 283.504 165.764ZM291.487 170.854L291.928 167.922L287.131 164.863L284.659 166.5L291.487 170.854Z" fill="white"/>
</g>
<defs>
<clipPath id="clip0_557_1785">
<rect width="335" height="295" fill="white"/>
</clipPath>
<clipPath id="clip1_557_1785">
<path d="M18 24.9863L95.9614 11.4271C106.844 9.53446 117.2 16.822 119.093 27.7043L129.007 84.7069L35.2818 101.008C33.1054 101.386 31.0341 99.9287 30.6556 97.7522L18 24.9863Z" fill="white"/>
</clipPath>
</defs>
</svg>
