<svg width="60" height="60" viewBox="0 0 60 60" fill="none" xmlns="http://www.w3.org/2000/svg">
<g clip-path="url(#clip0_812_3412)">
<path d="M0 0H60V60H0V0Z" fill="#F7F7F7"/>
<path d="M17.1429 10.153C17.5908 9.56775 18.5114 8.71955 19.0757 8.22109C22.6395 5.07354 27.056 3.05235 31.7676 2.41267C37.6149 1.63677 43.6969 3.44923 48.3533 7.02596C53.2734 10.7629 56.4979 16.3097 57.3103 22.4345C58.1142 28.8145 56.3463 35.2521 52.3968 40.3267C51.9471 40.9109 51.1379 41.8335 50.6204 42.3558C50.7481 42.7478 51.4617 44.7378 51.4552 44.9738C51.2056 45.1384 49.7685 45.4597 49.3575 45.5706C49.6472 46.787 49.976 47.9961 50.2702 49.2117C50.3195 49.4154 50.3824 49.6214 50.4087 49.8288C49.7766 50.0488 48.6091 50.3125 47.9398 50.4853L43.2239 51.7129L26.9178 56.0157C25.8822 56.2884 19.2739 58.0848 18.9811 58.0333C18.803 57.9133 18.5066 56.612 18.4247 56.3033L17.7236 53.6479L17.0951 51.2696C17.002 50.9173 16.8448 50.3898 16.7781 50.0489C13.0518 49.6118 9.12774 47.0948 6.81533 44.1841C4.22664 40.8655 3.05077 36.6602 3.5428 32.4804C3.93967 29.0519 5.63669 25.7072 7.96108 23.1909C8.3877 22.7291 8.96444 22.1028 9.45498 21.7146C8.93215 19.8094 8.43252 17.8178 7.93506 15.9009L7.44574 14.0311C7.34953 13.6636 7.2167 13.2087 7.15735 12.84C7.40139 12.7356 7.95832 12.6067 8.23489 12.5341L10.1585 12.0269C12.4675 11.4151 14.8464 10.7977 17.1429 10.153Z" fill="#1E1E1E"/>
<path d="M17.1431 10.153C17.591 9.56776 18.5116 8.71955 19.0758 8.22109C22.6397 5.07354 27.0562 3.05235 31.7678 2.41267C37.6151 1.63677 43.6971 3.44923 48.3534 7.02596C53.2736 10.7629 56.498 16.3097 57.3105 22.4345C58.1144 28.8145 56.3465 35.2522 52.3969 40.3267C51.9472 40.9109 51.1381 41.8335 50.6206 42.3558C50.3169 41.3592 49.8171 40.0718 49.4573 39.0731L46.9375 32.1163C46.6368 31.2702 46.2933 30.4141 46.0045 29.5732C45.907 29.2893 45.7868 28.3994 45.7343 28.07L45.3286 25.6054L43.8131 16.9021L42.5789 9.9185C42.5075 9.51332 42.0742 6.75596 41.9608 6.59705C41.6862 6.55434 39.8188 6.90233 39.4176 6.96789C39.3159 6.59559 38.8927 4.79207 38.7498 4.59439C38.4342 4.55944 34.4842 5.62219 33.883 5.77689L17.1431 10.153Z" fill="#F7F7F7"/>
<path d="M9.45498 21.7139L14.5051 41.2012C15.2617 44.1252 15.979 47.1467 16.7781 50.0482C13.0518 49.6111 9.12774 47.0941 6.81533 44.1833C4.22664 40.8648 3.05077 36.6595 3.5428 32.4797C3.93967 29.0512 5.63669 25.7064 7.96108 23.1902C8.3877 22.7284 8.96444 22.1021 9.45498 21.7139Z" fill="#F7F7F7"/>
<path d="M42.9115 22.3272C42.9838 22.3165 42.9586 22.3161 43.0285 22.3299C43.1138 22.5626 43.196 22.9401 43.2603 23.192L43.6383 24.65L45.0658 30.159C46.769 36.6372 48.4335 43.1257 50.0591 49.6239C47.8218 50.1406 45.4365 50.8185 43.2048 51.4052L28.8354 55.1745L28.7693 55.1867C28.7059 55.1147 28.1069 52.6933 28.0364 52.4195L26.4258 46.2122L21.71 28.1156C22.2162 27.9537 22.7987 27.8057 23.3145 27.6629L27.141 26.6228C32.3895 25.1608 37.6465 23.7289 42.9115 22.3272Z" fill="#F7F7F7"/>
<path d="M38.8621 38.7346C38.9297 38.7255 38.897 38.7215 38.9594 38.7603C39.0093 38.885 39.0048 38.8248 38.9903 38.9459C38.9714 38.9661 38.9525 38.9863 38.9335 39.0065C36.8922 39.5126 33.7841 40.392 31.8582 40.8795C31.8217 40.887 31.8449 40.8867 31.7932 40.8543C31.7465 40.7404 31.7398 40.7694 31.7531 40.662C31.8197 40.5815 32.0675 40.5434 32.1763 40.5126C32.6419 40.3788 33.1086 40.249 33.5764 40.1232C35.3347 39.6467 37.0966 39.1838 38.8621 38.7346Z" fill="#1E1E1E"/>
<path d="M36.8046 30.5039C36.9033 30.5579 36.8916 30.6522 36.8739 30.7393C36.7084 30.8907 35.6534 31.115 35.3713 31.1938C33.4834 31.7162 31.5914 32.2239 29.6955 32.7169C29.6708 32.7097 29.6598 32.6878 29.6368 32.6623C29.6094 32.5446 29.6046 32.5989 29.6393 32.4929C29.7567 32.377 31.3422 31.9949 31.6088 31.9223C33.3443 31.4627 35.0763 30.9899 36.8046 30.5039Z" fill="#1E1E1E"/>
<path d="M35.9431 26.1992L35.973 26.2007C36.0361 26.2487 36.0602 26.3696 36.0862 26.4525C35.4206 26.5871 34.4862 26.8562 33.8145 27.0327L28.6694 28.4134C28.6274 28.4093 28.6404 28.4053 28.5959 28.3657C28.558 28.2417 28.5543 28.299 28.5913 28.1874C28.6222 28.155 28.6441 28.1319 28.6905 28.1209C31.1072 27.5502 33.5241 26.7333 35.9431 26.1992Z" fill="#1E1E1E"/>
<path d="M39.8786 42.6309L39.9244 42.6299C40 42.7043 39.9991 42.7787 40.0298 42.8943C39.2925 43.0571 38.4968 43.2866 37.7597 43.4801L32.8496 44.7769L32.8179 44.7824C32.74 44.7137 32.719 44.6588 32.7425 44.5564C32.8449 44.4549 34.3281 44.092 34.563 44.0301L39.8786 42.6309Z" fill="#1E1E1E"/>
<path d="M37.9204 34.5781C38.0256 34.6154 38.0113 34.7464 37.9743 34.8298C37.8753 34.921 37.4355 34.988 37.2674 35.0292C36.7963 35.1478 36.3261 35.2704 35.857 35.3968C34.1716 35.8604 32.4836 36.3141 30.793 36.758C30.7292 36.6654 30.7022 36.6162 30.7414 36.5149C30.8744 36.4292 31.6452 36.2413 31.8714 36.1836C33.8834 35.6711 35.8975 35.0371 37.9204 34.5781Z" fill="#1E1E1E"/>
<path d="M40.7862 46.998C40.8254 47.0006 40.8007 46.9956 40.854 47.0319C40.8992 47.1596 40.9039 47.1176 40.8781 47.2349C40.8302 47.284 39.6322 47.5946 39.4769 47.6375C37.6318 48.1369 35.7835 48.6245 33.9322 49.1002C33.8485 49.045 33.8378 48.948 33.7969 48.8348C36.0991 48.2326 38.4843 47.5682 40.7862 46.998Z" fill="#1E1E1E"/>
<path d="M42.9632 38.587C43.0013 38.5832 42.9765 38.5828 43.0355 38.6041C43.089 38.7084 43.1113 38.7599 43.0619 38.8668C41.1902 39.3966 39.2663 39.8191 37.3908 40.3326L37.3357 40.3303C37.2682 40.2287 37.262 40.1858 37.3006 40.0772C37.7064 39.9188 38.8709 39.6517 39.3532 39.5293C40.5591 39.2253 41.7625 38.9112 42.9632 38.587Z" fill="#1E1E1E"/>
<path d="M41.9116 34.4562C41.97 34.4492 41.94 34.4478 42.0016 34.4819C42.033 34.5858 42.0544 34.592 42.029 34.6788C41.7982 34.8566 37.2524 35.9697 36.5696 36.1464C36.52 36.1558 36.5341 36.1519 36.4808 36.1412C36.419 36.0525 36.4033 35.995 36.4436 35.8958C36.8035 35.7593 37.8633 35.515 38.2698 35.4096L41.9116 34.4562Z" fill="#1E1E1E"/>
<path d="M40.7982 30.3813L40.8815 30.377L40.9511 30.4426C40.9721 30.5408 40.9731 30.4906 40.9282 30.5965C40.6522 30.7935 36.1711 31.9041 35.4603 32.1022L35.4254 32.1017C35.3434 32.0381 35.3417 31.9546 35.3062 31.8373C37.0998 31.3626 39.0239 30.8954 40.7982 30.3813Z" fill="#1E1E1E"/>
<path d="M44.9832 46.8203L45.0325 46.8327C45.0863 46.9271 45.0884 46.9219 45.09 47.0368C45.0769 47.0567 45.0639 47.0766 45.0508 47.0965C44.7563 47.1664 44.3594 47.2734 44.0794 47.3468L39.5969 48.5082L39.5545 48.4876C39.5049 48.3928 39.5002 48.3961 39.5031 48.2843C39.5192 48.2635 39.5352 48.2428 39.5513 48.2221C39.859 48.1312 40.6874 47.927 40.9641 47.8565L44.9832 46.8203Z" fill="#1E1E1E"/>
<path d="M43.7807 42.4844C43.8153 42.4885 43.7931 42.483 43.8406 42.5176C43.8675 42.6392 43.8899 42.6474 43.8587 42.7492C43.6122 42.8522 42.4273 43.1344 42.1044 43.2178C40.9052 43.5279 39.7077 43.8443 38.5119 44.167L38.5027 44.1668C38.4301 44.12 38.4144 43.9911 38.3833 43.8877C40.1212 43.4891 42.0465 42.9375 43.7807 42.4844Z" fill="#1E1E1E"/>
<path d="M39.8388 26.083C39.8862 26.1424 39.9034 26.2755 39.884 26.3496C39.6115 26.4543 38.2651 26.7824 37.8965 26.8719C36.8397 27.1281 35.6824 27.4823 34.6343 27.7092C34.6023 27.609 34.5761 27.5562 34.5878 27.4513C34.7035 27.3732 39.3655 26.1936 39.8388 26.083Z" fill="#1E1E1E"/>
<path d="M33.8765 27.6309C33.976 27.6202 33.9339 27.6079 34.0099 27.6554C34.054 27.7715 34.0593 27.7206 34.0231 27.8148C33.7754 28.0168 29.6237 29.0487 28.925 29.2609C28.8932 29.2672 28.8734 29.2592 28.8381 29.2534C28.7834 29.1669 28.7886 29.1721 28.7852 29.0686C28.7982 29.0508 28.8112 29.0331 28.8243 29.0153C30.2681 28.579 32.4845 28.0077 33.8765 27.6309Z" fill="#1E1E1E"/>
<path d="M35.7892 36.0381C35.8013 36.0373 35.8456 36.0494 35.8596 36.0527C35.9133 36.1424 35.9115 36.1352 35.9159 36.2395C35.9045 36.2538 35.8931 36.2681 35.8817 36.2824C34.5467 36.6651 32.3302 37.2454 31.0632 37.5827C31.0105 37.5884 31.0396 37.5922 30.9795 37.5545C30.9451 37.4627 30.9268 37.4388 30.951 37.3435C31.5383 37.1472 32.293 36.9616 32.8995 36.7999L35.7892 36.0381Z" fill="#1E1E1E"/>
<path d="M34.5858 32.0249C34.6573 32.0155 34.6544 32.0138 34.7245 32.0281C34.8005 32.1193 34.8082 32.0999 34.8234 32.1994C34.769 32.2641 34.7851 32.2602 34.685 32.2867C34.2134 32.4117 33.7357 32.5328 33.2647 32.6589L30.036 33.532C29.9695 33.5469 29.967 33.5477 29.8992 33.5465C29.829 33.4649 29.787 33.4253 29.8395 33.3242C30.3577 33.1416 31.0745 32.96 31.6113 32.8147L34.5858 32.0249Z" fill="#1E1E1E"/>
<path d="M36.5813 40.2285L36.6595 40.2351C36.7318 40.3347 36.7555 40.3682 36.7026 40.4767C36.3921 40.5965 35.8036 40.7078 35.4502 40.8012C34.3282 41.0868 33.2088 41.3819 32.0919 41.6865L32.0119 41.6881C31.9506 41.6243 31.9529 41.5211 31.9404 41.4262C33.4822 41.0072 35.0293 40.608 36.5813 40.2285Z" fill="#1E1E1E"/>
<path d="M37.7071 44.0693C37.7784 44.1205 37.7898 44.2331 37.82 44.3357C36.2333 44.7405 34.6556 45.1959 33.0598 45.5935L33.0072 45.5869C32.959 45.4917 32.9547 45.4952 32.9595 45.3838C32.9715 45.3689 32.9834 45.3542 32.9953 45.3394C34.1169 45.0377 36.7139 44.3211 37.7071 44.0693Z" fill="#1E1E1E"/>
<path d="M38.7577 48.4346L38.7894 48.4352C38.8605 48.4869 38.8726 48.5799 38.9066 48.6779C37.3447 49.0619 35.7362 49.5085 34.1707 49.9127C34.1283 49.91 34.1548 49.9148 34.0958 49.8826C34.0617 49.7813 34.0661 49.7692 34.062 49.665C34.2966 49.5571 35.2716 49.3349 35.5672 49.2586C36.6284 48.9752 37.692 48.7005 38.7577 48.4346Z" fill="#1E1E1E"/>
<path d="M33.087 28.6855L33.1148 28.6899C33.185 28.7596 33.1996 28.8696 33.2249 28.9695C31.8546 29.3027 30.4823 29.7209 29.1072 30.0532L29.0708 30.0402C29.0103 29.9497 29.0057 29.9527 28.9893 29.8401C29.0351 29.776 29.6426 29.642 29.7857 29.6031L33.087 28.6855Z" fill="#1E1E1E"/>
<path d="M36.1213 41.1729C36.1768 41.2286 36.1881 41.3408 36.1944 41.4139C36.0985 41.5273 32.6564 42.3907 32.2289 42.4953C32.1966 42.4819 32.2179 42.4928 32.1733 42.4498C32.1442 42.3249 32.1275 42.3402 32.1614 42.2368C32.3778 42.1437 33.1355 41.9641 33.4095 41.8919L36.1213 41.1729Z" fill="#1E1E1E"/>
<path d="M37.0914 45.0918L37.1158 45.098C37.1793 45.164 37.1897 45.2779 37.2095 45.3729C35.954 45.7145 34.5176 46.118 33.2587 46.4017L33.2276 46.3979C33.1625 46.3467 33.1455 46.2258 33.1226 46.1382C34.4522 45.8152 35.7754 45.4664 37.0914 45.0918Z" fill="#1E1E1E"/>
<path d="M34.0768 33.0264C34.1371 33.1055 34.1433 33.201 34.1652 33.3046C32.8232 33.6425 31.486 33.9992 30.154 34.3746L30.1099 34.3549C30.0745 34.2577 30.0649 34.2509 30.0702 34.1454C30.1832 34.0228 33.5954 33.1527 34.0768 33.0264Z" fill="#1E1E1E"/>
<path d="M38.0141 49.4851L38.1279 49.4814C38.197 49.5413 38.2103 49.6522 38.2341 49.7459C37.0897 49.9698 35.6433 50.4263 34.4593 50.7138C34.4185 50.7221 34.3665 50.7282 34.3243 50.7345C34.2356 50.6612 34.2354 50.622 34.2719 50.5268C34.4733 50.3699 35.0606 50.2738 35.331 50.1995L38.0141 49.4851Z" fill="#1E1E1E"/>
<path d="M34.9784 37.0967L35.0468 37.1129C35.0821 37.1926 35.1052 37.2167 35.0866 37.2994C34.9479 37.4413 34.3697 37.5375 34.1407 37.6022C33.1691 37.8713 32.194 38.1278 31.2157 38.3714C31.1978 38.3603 31.1799 38.3492 31.1619 38.338C31.1302 38.249 31.1073 38.2142 31.1306 38.1231C31.2157 38.0801 32.0776 37.8513 32.2258 37.8147C33.1227 37.5931 34.083 37.2892 34.9784 37.0967Z" fill="#1E1E1E"/>
<path d="M30.4448 38.2959L30.5559 38.2891C30.6283 38.3654 30.6392 38.3921 30.6104 38.4852C30.4422 38.6368 29.7467 38.7661 29.493 38.8363C28.6806 39.0676 27.8659 39.2908 27.049 39.5062L26.9671 39.5161C26.8868 39.4338 26.8997 39.3914 26.8662 39.2601C28.062 38.9432 29.2445 38.5988 30.4448 38.2959Z" fill="#1E1E1E"/>
<path d="M33.2644 48.96L33.2959 48.9651C33.3639 49.0326 33.3761 49.14 33.3995 49.2372L29.8375 50.1752L29.8042 50.172C29.7402 50.1062 29.7351 50.0087 29.7158 49.9135L33.2644 48.96Z" fill="#1E1E1E"/>
<path d="M33.6476 50.6299C33.7197 50.64 33.7577 50.8035 33.7837 50.8715C32.8088 51.1929 31.2515 51.5816 30.2425 51.8208C30.2118 51.8247 30.1979 51.8169 30.165 51.8093C30.1323 51.7041 30.1301 51.6525 30.1182 51.5415C31.2961 51.2679 32.4749 50.9288 33.6476 50.6299Z" fill="#1E1E1E"/>
<path d="M28.3883 29.9785L28.4288 30.0051C28.4579 30.0843 28.4883 30.1344 28.4662 30.2135C28.239 30.3154 27.5328 30.4935 27.2597 30.5692L24.9055 31.2209C24.8344 31.1403 24.8046 31.0471 24.8364 30.9457C25.0282 30.8614 25.7755 30.6721 26.0183 30.6066C26.8065 30.3905 27.5965 30.1812 28.3883 29.9785Z" fill="#1E1E1E"/>
<path d="M32.578 46.2979C32.644 46.3767 32.6413 46.4617 32.6556 46.5671C31.5212 46.8928 30.21 47.2563 29.0626 47.511C28.9998 47.4271 28.9747 47.3356 29.0154 47.2395L32.578 46.2979Z" fill="#1E1E1E"/>
<path d="M30.103 36.6865L30.1566 36.6934C30.2 36.8104 30.2096 36.7837 30.1892 36.8888C30.0188 37.0486 29.6978 37.0463 29.4775 37.1153C28.5241 37.414 27.5485 37.6469 26.5794 37.889L26.5169 37.8746C26.4609 37.7553 26.4638 37.8123 26.4818 37.7011C26.601 37.576 26.8442 37.5366 27.0094 37.4988C28.0373 37.2636 29.0705 36.8896 30.103 36.6865Z" fill="#1E1E1E"/>
<path d="M31.5407 42.3955L31.5837 42.3968C31.6442 42.4577 31.6511 42.5676 31.6692 42.6586C30.5625 42.9005 29.2779 43.2888 28.1318 43.5646C28.0706 43.566 28.0951 43.5686 28.0357 43.5371C27.9949 43.4276 27.9846 43.4523 28.0095 43.3601C28.1773 43.2135 28.9051 43.0843 29.16 43.0181L31.5407 42.3955Z" fill="#1E1E1E"/>
<path d="M33.4428 49.8075C33.4733 49.8056 33.4513 49.8054 33.5067 49.824L33.6135 50.0491C33.2324 50.1761 32.7016 50.3008 32.3021 50.4047L30.0662 50.9876C30.0067 50.9999 30.0393 50.9985 29.9681 50.9846C29.9106 50.8955 29.911 50.9031 29.9087 50.7978C29.9811 50.6784 30.2758 50.6321 30.4217 50.5954C31.4312 50.3421 32.4379 50.0785 33.4428 49.8075Z" fill="#1E1E1E"/>
<path d="M32.2743 45.5005L32.3733 45.4912L32.4095 45.5254C32.4277 45.629 32.4363 45.6483 32.4132 45.7538C32.2332 45.832 31.6167 45.9693 31.3805 46.0327L28.927 46.6914L28.8633 46.6875C28.782 46.607 28.773 46.5737 28.8097 46.4741C29 46.3211 29.7898 46.1668 30.0555 46.0971L32.2743 45.5005Z" fill="#1E1E1E"/>
<path d="M30.2978 37.5049L30.3638 37.5167C30.4176 37.6313 30.4264 37.6038 30.4086 37.7066C30.2832 37.8402 29.6306 37.9672 29.4165 38.0279C28.5557 38.2781 27.6896 38.5095 26.8187 38.7218L26.7489 38.7201L26.7047 38.6733C26.6782 38.5822 26.6756 38.5884 26.6966 38.4969C26.8599 38.4357 27.0248 38.3895 27.1936 38.3467C28.2309 38.0834 29.26 37.7628 30.2978 37.5049Z" fill="#1E1E1E"/>
<path d="M32.0985 44.6815C32.1158 44.6794 32.1913 44.6783 32.2109 44.6777C32.2808 44.7644 32.2598 44.7847 32.2746 44.9187L28.7541 45.8675C28.718 45.8746 28.6783 45.8732 28.6403 45.8743L28.577 45.7983C28.5561 45.6934 28.5518 45.7429 28.588 45.6441C28.7238 45.5175 31.6736 44.7955 32.0985 44.6815Z" fill="#1E1E1E"/>
<path d="M29.4 34.2812C29.4443 34.2778 29.4174 34.2757 29.4775 34.3045C29.5251 34.4297 29.5251 34.3717 29.5068 34.4846C29.3642 34.6329 28.9329 34.686 28.7158 34.7494C27.822 35.0012 26.9254 35.2431 26.0263 35.4749C25.9467 35.4801 25.9837 35.4872 25.9162 35.4416C25.8908 35.3499 25.8833 35.3445 25.895 35.2477C25.9997 35.1669 29.0439 34.3655 29.4 34.2812Z" fill="#1E1E1E"/>
<path d="M31.1463 40.7891L31.1898 40.8185C31.2229 40.8973 31.2555 40.9446 31.2339 41.0247C31.074 41.0969 30.4095 41.2608 30.2074 41.3155C29.3715 41.5456 28.5331 41.7666 27.6924 41.9785C27.6457 41.9855 27.6735 41.9847 27.6091 41.9717C27.5531 41.8917 27.5615 41.8616 27.5601 41.7642C27.6574 41.6555 30.7287 40.8871 31.1463 40.7891Z" fill="#1E1E1E"/>
<path d="M28.1456 29.1821C28.2048 29.1729 28.1732 29.1712 28.2396 29.1945C28.2893 29.3241 28.2893 29.2633 28.265 29.3814C28.1024 29.5391 27.8089 29.5408 27.594 29.6044C26.6565 29.8786 25.7125 30.1299 24.7629 30.3583C24.6924 30.3645 24.7193 30.3673 24.6522 30.3388C24.6037 30.2523 24.5979 30.2654 24.5894 30.174C24.7097 30.0612 27.703 29.2992 28.1456 29.1821Z" fill="#1E1E1E"/>
<path d="M28.9611 32.6399C28.9958 32.6338 29.0019 32.6413 29.0406 32.651C29.0922 32.742 29.0862 32.7527 29.0967 32.8548C28.9814 32.9517 25.968 33.7335 25.5885 33.8318L25.498 33.8232L25.4625 33.7682C25.4603 33.6931 25.4507 33.6564 25.4834 33.5903C25.7135 33.4971 26.3684 33.3405 26.6401 33.2662C27.412 33.0509 28.1857 32.8421 28.9611 32.6399Z" fill="#1E1E1E"/>
<path d="M31.3557 41.6084C31.4428 41.6361 31.433 41.7796 31.4083 41.8489C31.0961 41.9703 30.4605 42.1268 30.1214 42.2165C29.378 42.4132 28.5883 42.6354 27.8382 42.8L27.7947 42.7604C27.7654 42.6764 27.743 42.6427 27.7714 42.5595C27.9123 42.4954 28.6428 42.3214 28.8473 42.2672C29.6816 42.0409 30.5178 41.8213 31.3557 41.6084Z" fill="#1E1E1E"/>
<path d="M27.9676 28.334L28.0221 28.3547C28.0413 28.441 28.0527 28.4554 28.0286 28.5407C27.8843 28.6843 27.0898 28.8494 26.8461 28.9155C26.0521 29.1336 25.2564 29.346 24.4593 29.5527L24.4224 29.5281C24.3925 29.4387 24.3723 29.4068 24.3951 29.3153C24.6024 29.2249 25.3439 29.0402 25.5917 28.9729L27.9676 28.334Z" fill="#1E1E1E"/>
<path d="M29.1638 33.4897L29.2508 33.4844L29.3065 33.539C29.337 33.6402 29.341 33.5932 29.3009 33.6852C29.0974 33.839 26.3183 34.5345 25.8483 34.6543C25.7924 34.6609 25.8032 34.6568 25.7452 34.6445C25.6918 34.532 25.6941 34.5859 25.7171 34.4797C25.9082 34.2979 28.6876 33.6093 29.1638 33.4897Z" fill="#1E1E1E"/>
<path d="M29.2024 50.8418C29.4194 50.8643 29.4745 51.0108 29.3934 51.1967C29.2481 51.21 29.2254 51.2269 29.1473 51.0999C29.1411 50.9779 29.1561 50.9597 29.2024 50.8418Z" fill="#1E1E1E"/>
<path d="M28.0369 46.6064C28.0859 46.5764 28.1473 46.5752 28.1975 46.6033C28.2476 46.6315 28.2786 46.6845 28.2786 46.742C28.2785 46.7995 28.2474 46.8525 28.1972 46.8805C28.1217 46.9226 28.0263 46.8966 27.9827 46.822C27.939 46.7473 27.9631 46.6515 28.0369 46.6064Z" fill="#1E1E1E"/>
<path d="M27.8527 45.7461L27.9356 45.7549C28.098 45.8518 28.0867 45.9566 28.0001 46.1025C27.8623 46.095 27.8397 46.0956 27.7749 45.97C27.7792 45.8456 27.7816 45.852 27.8527 45.7461Z" fill="#1E1E1E"/>
<path d="M26.8399 41.9091C26.8918 41.8814 26.9549 41.8851 27.0033 41.9185C27.0518 41.9519 27.0776 42.0096 27.0701 42.0679C27.0627 42.1264 27.0234 42.1758 26.9681 42.196C26.8904 42.2245 26.8039 42.188 26.7701 42.1124C26.7363 42.0368 26.7668 41.948 26.8399 41.9091Z" fill="#1E1E1E"/>
<path d="M24.987 34.5587C25.0378 34.5297 25.1006 34.5314 25.1499 34.5631C25.1991 34.5948 25.2267 34.6513 25.2213 34.7096C25.2159 34.7679 25.1786 34.8184 25.1243 34.8406C25.0477 34.8719 24.9599 34.8385 24.9236 34.764C24.8873 34.6896 24.9151 34.5998 24.987 34.5587Z" fill="#1E1E1E"/>
<path d="M24.7858 33.7386C24.8649 33.7042 24.9569 33.7404 24.9913 33.8194C25.0258 33.8984 24.9897 33.9905 24.9106 34.025C24.8316 34.0595 24.7394 34.0234 24.705 33.9443C24.6705 33.8652 24.7067 33.773 24.7858 33.7386Z" fill="#1E1E1E"/>
<path d="M27.0986 42.7011C27.1779 42.6887 27.2535 42.7389 27.2728 42.8168C27.292 42.8947 27.2486 42.9744 27.1727 43.0004C27.1173 43.0194 27.056 43.0055 27.0142 42.9645C26.9724 42.9236 26.9573 42.8625 26.9752 42.8068C26.993 42.7511 27.0408 42.7102 27.0986 42.7011Z" fill="#1E1E1E"/>
<path d="M27.3138 43.4746C27.3955 43.4615 27.473 43.5152 27.4894 43.5963C27.5058 43.6773 27.4554 43.7569 27.375 43.7766C27.3201 43.7901 27.2621 43.7723 27.2241 43.7305C27.1861 43.6886 27.174 43.6292 27.1928 43.5758C27.2115 43.5224 27.258 43.4836 27.3138 43.4746Z" fill="#1E1E1E"/>
<path d="M28.2281 47.3555C28.4766 47.3843 28.481 47.5198 28.4204 47.7236C28.3021 47.7042 28.2554 47.6957 28.1882 47.5942C28.1682 47.4797 28.1842 47.4613 28.2281 47.3555Z" fill="#1E1E1E"/>
<path d="M25.9705 38.639C26.0442 38.6011 26.1348 38.6289 26.1745 38.7018C26.2141 38.7747 26.1884 38.8659 26.1164 38.9072C26.0684 38.9348 26.0092 38.9342 25.9617 38.9057C25.9143 38.8772 25.886 38.8252 25.8878 38.7698C25.8895 38.7144 25.9212 38.6644 25.9705 38.639Z" fill="#1E1E1E"/>
<path d="M29.4684 51.6918C29.5502 51.6808 29.6256 51.7373 29.6384 51.8187C29.6511 51.9001 29.5963 51.9768 29.5151 51.9913C29.4611 52.001 29.406 51.9806 29.3712 51.9381C29.3364 51.8955 29.3273 51.8375 29.3475 51.7864C29.3677 51.7353 29.4139 51.6991 29.4684 51.6918Z" fill="#1E1E1E"/>
<path d="M28.9979 50.0893C29.0429 50.0582 29.1012 50.0539 29.1503 50.0779C29.1994 50.1018 29.2317 50.1505 29.2348 50.2051C29.2379 50.2596 29.2113 50.3117 29.1653 50.3411C29.0958 50.3855 29.0035 50.3661 28.9579 50.2974C28.9123 50.2287 28.9301 50.1361 28.9979 50.0893Z" fill="#1E1E1E"/>
<path d="M25.7573 37.8145C25.8255 37.776 25.9117 37.7959 25.9561 37.8604C26.0004 37.9249 25.988 38.0126 25.9276 38.0624C25.8836 38.0987 25.8228 38.107 25.7706 38.0839C25.7184 38.0608 25.6837 38.0103 25.6808 37.9533C25.678 37.8963 25.7076 37.8426 25.7573 37.8145Z" fill="#1E1E1E"/>
<path d="M26.0978 39.3896C26.2082 39.3998 26.2443 39.3933 26.3321 39.4615C26.3882 39.558 26.3797 39.5677 26.3811 39.6775C26.2614 39.7013 26.2321 39.7142 26.1362 39.6651C26.0824 39.5743 26.0966 39.4975 26.0978 39.3896Z" fill="#1E1E1E"/>
<path d="M25.2019 35.3775C25.2726 35.3392 25.3609 35.3635 25.402 35.4326C25.4431 35.5017 25.4224 35.5909 25.355 35.6347C25.3089 35.6647 25.2502 35.6671 25.2019 35.6408C25.1536 35.6146 25.1235 35.5641 25.1235 35.5092C25.1235 35.4542 25.1537 35.4037 25.2019 35.3775Z" fill="#1E1E1E"/>
<path d="M24.1093 31.1056C24.1602 31.0821 24.2201 31.089 24.2642 31.1235C24.3084 31.1581 24.3296 31.2144 24.319 31.2696C24.3085 31.3246 24.2681 31.3692 24.2142 31.385C24.139 31.407 24.0596 31.3674 24.032 31.294C24.0045 31.2206 24.0382 31.1385 24.1093 31.1056Z" fill="#1E1E1E"/>
<path d="M23.9219 30.2783C23.9738 30.2597 24.0317 30.2711 24.0726 30.3082C24.1134 30.3451 24.1306 30.4017 24.1171 30.4551C24.1037 30.5085 24.0618 30.5503 24.0083 30.5635C23.9312 30.5826 23.8527 30.538 23.8297 30.462C23.8067 30.386 23.8472 30.3052 23.9219 30.2783Z" fill="#1E1E1E"/>
<path d="M23.7197 29.4248C23.8384 29.475 23.8306 29.482 23.8855 29.5735C23.8976 29.6842 23.8883 29.6851 23.8418 29.7833C23.7086 29.7625 23.6851 29.7527 23.6304 29.6373C23.639 29.5193 23.6455 29.5236 23.7197 29.4248Z" fill="#1E1E1E"/>
<path d="M38.4865 4.95605L38.5252 4.95866C38.5939 5.04082 42.5875 20.556 42.9987 22.1434C42.2507 22.3824 41.329 22.5872 40.552 22.7949L35.6673 24.1216L25.3826 26.9413C24.146 27.2854 22.9071 27.6211 21.6658 27.9481C21.3263 26.8608 21.0111 25.5015 20.7151 24.3836L19.0945 18.2618L18.2733 15.0946C18.2029 14.822 17.9589 13.7033 17.8384 13.5558L17.7813 13.5546L17.7501 13.599C17.7789 13.8569 17.9128 14.3275 17.9807 14.5925L18.5083 16.5822L20.2048 23.0861C20.6599 24.6597 21.0925 26.4052 21.5174 27.9985C18.3943 28.8551 15.2176 29.7591 12.0897 30.5773C11.8971 29.9546 11.7053 29.0991 11.5332 28.4456L10.2782 23.6355C9.37137 20.1399 8.38664 16.5586 7.52783 13.0592C8.66285 12.6979 10.2327 12.3316 11.3902 12.0236L18.8633 10.0294L31.4632 6.73197C33.777 6.13707 36.1618 5.49519 38.4865 4.95605Z" fill="#F7F7F7"/>
<path d="M17.7365 23.8516C18.1275 23.851 18.1974 24.1307 18.271 24.4667C18.3438 24.7986 18.4107 25.1331 18.5189 25.4465C18.6214 25.7433 18.5911 26.0892 18.239 26.1579C17.7878 26.2887 17.3341 26.405 16.8783 26.5244L14.509 27.1532C14.0481 27.2172 14.0168 26.6326 13.9266 26.2993C13.8286 25.9371 13.6022 25.365 13.7129 25.0108C13.859 24.8249 15.1271 24.54 15.4254 24.4623C16.1969 24.2629 16.9673 24.0593 17.7365 23.8516Z" fill="#1E1E1E"/>
<path d="M17.718 24.0303C17.9401 24.0117 18.005 24.1273 18.0595 24.3324C18.1808 24.7886 18.2808 25.2542 18.4075 25.7086C18.4505 25.863 18.3149 25.9696 18.1848 25.9981C17.7388 26.1374 17.2791 26.2442 16.8255 26.3618L14.5377 26.9708C14.109 26.9847 14.1743 26.5487 14.0862 26.2221C14.0144 25.9557 13.7896 25.3461 13.8633 25.1056C14.1118 24.9504 14.7455 24.811 15.0511 24.7374C15.9428 24.5229 16.8286 24.2445 17.718 24.0303Z" fill="#DB4431"/>
<path d="M16.6731 19.7524C17.182 19.6814 17.2161 20.2241 17.3095 20.6014C17.3959 20.9505 17.5938 21.4734 17.4858 21.8179C17.414 21.8947 17.2 21.9899 17.0944 22.0161C15.8904 22.3144 14.6689 22.6908 13.4621 22.9634C13.1522 22.9908 12.9439 22.7361 12.9287 22.4754C12.9048 22.0661 12.2975 20.9167 12.8745 20.755C14.1411 20.4002 15.4058 20.0548 16.6731 19.7524Z" fill="#1E1E1E"/>
<path d="M16.7444 19.8955C17.0028 19.9055 17.0489 20.258 17.0924 20.463C17.1654 20.8069 17.3929 21.3444 17.3646 21.6765C17.263 21.8327 16.7801 21.9446 16.5892 21.9891C15.53 22.2357 14.4619 22.5905 13.4027 22.8171L13.2993 22.8067C13.1648 22.7282 13.1216 22.6024 13.1008 22.4538C13.0548 22.1258 12.7102 21.2699 12.8213 20.9848C13.0842 20.8253 14.1344 20.5829 14.4866 20.4917C15.2408 20.2992 15.9935 20.1005 16.7444 19.8955Z" fill="#DB4431"/>
<path d="M15.7045 15.5039C16.1143 15.6011 16.1524 16.0089 16.2355 16.3679C16.3113 16.6952 16.5705 17.3174 16.4446 17.6177C16.1978 17.849 15.6775 17.9454 15.3461 18.0238C14.3688 18.2547 13.4062 18.5376 12.4349 18.7882C12.2457 18.7816 12.0097 18.6059 11.9908 18.4396C11.9402 17.9952 11.5056 17.0169 11.6804 16.6321C11.9983 16.4214 15.1343 15.6417 15.7045 15.5039Z" fill="#1E1E1E"/>
<path d="M15.7103 15.6797C15.8379 15.708 15.9344 15.8117 15.9654 15.9455C16.0716 16.4041 16.2036 16.8669 16.3125 17.324C16.3326 17.4088 16.3056 17.4998 16.2722 17.5712C16.0089 17.7171 14.977 17.9435 14.6009 18.0404C13.8776 18.228 13.1556 18.4202 12.4347 18.6168C12.0295 18.5961 12.0926 17.9686 11.9668 17.6611C11.8984 17.4939 11.7537 16.9049 11.8353 16.7524C12.2095 16.5315 13.9288 16.1826 14.4619 16.0149C14.633 15.9611 15.5333 15.7163 15.7103 15.6797Z" fill="#DB4431"/>
<path d="M32.0705 11.457L32.152 11.4551C32.2449 11.5287 32.2527 11.5718 32.2352 11.6786C32.1554 11.7674 29.9448 12.3152 29.6785 12.3861L24.9754 13.6487C24.8815 13.6675 24.9246 13.6745 24.8416 13.6283C24.8006 13.5249 24.8027 13.5751 24.8269 13.473C24.8731 13.4167 24.9006 13.3925 24.9739 13.3714C25.7247 13.1555 26.494 12.9568 27.2471 12.7525L32.0705 11.457Z" fill="#1E1E1E"/>
<path d="M34.0528 19.6044C34.1107 19.6009 34.0812 19.5983 34.1414 19.6367C34.1934 19.7612 34.1889 19.7006 34.1695 19.8234C34.1531 19.8427 34.1298 19.8743 34.1046 19.8804C33.6205 19.9968 33.1408 20.1281 32.66 20.2579L26.9611 21.7807C26.916 21.7883 26.9423 21.7894 26.8852 21.7592C26.8438 21.6632 26.8282 21.6467 26.852 21.5441C26.9397 21.4619 27.2377 21.4101 27.3669 21.3766C27.7726 21.2709 28.1777 21.1627 28.5821 21.052C30.4027 20.5583 32.2263 20.0758 34.0528 19.6044Z" fill="#1E1E1E"/>
<path d="M32.9139 15.6172L33.0013 15.6198C33.0916 15.6971 33.0912 15.7372 33.0687 15.8421C32.9568 15.9629 26.6789 17.5996 25.9948 17.7784L25.9145 17.7816C25.8339 17.6981 25.8367 17.6642 25.8618 17.5633C25.9712 17.4596 32.2203 15.8142 32.9139 15.6172Z" fill="#1E1E1E"/>
<path d="M37.1764 15.417C37.2854 15.4506 37.2609 15.5775 37.2296 15.6571C37.1193 15.7544 36.7579 15.8225 36.6053 15.8622L35.4449 16.1713C34.2041 16.5034 32.8545 16.8907 31.6161 17.1889C31.555 17.1227 31.5304 17.0201 31.5303 16.9315C31.6538 16.8395 36.6767 15.5378 37.1764 15.417Z" fill="#1E1E1E"/>
<path d="M38.1485 19.4287L38.1954 19.4291C38.2648 19.4863 38.2724 19.5877 38.2948 19.6823C36.4242 20.1884 34.5504 20.6821 32.6732 21.1633L32.6264 21.1684C32.5546 21.094 32.5367 21.0059 32.5712 20.9092C32.8998 20.7859 33.6978 20.615 34.1073 20.5031C35.4524 20.1376 36.7995 19.7795 38.1485 19.4287Z" fill="#1E1E1E"/>
<path d="M36.1491 11.3193C36.1893 11.3636 36.2042 11.4525 36.2111 11.5098C36.1146 11.6645 35.7584 11.6988 35.5698 11.7478L34.3654 12.0662C33.1569 12.3914 31.9468 12.7105 30.735 13.0234L30.6952 12.9811C30.6686 12.8814 30.6548 12.8585 30.6811 12.7573C30.7329 12.7146 35.6987 11.3957 36.1491 11.3193Z" fill="#1E1E1E"/>
<path d="M29.9659 12.9263L30.0437 12.9219C30.1169 12.9799 30.1245 13.0758 30.1489 13.1729C28.4864 13.596 26.8281 14.0356 25.1742 14.4916L25.1082 14.4955C25.041 14.4345 25.032 14.3335 25.0093 14.2394C26.6596 13.829 28.2926 13.3329 29.9659 12.9263Z" fill="#1E1E1E"/>
<path d="M30.8905 17.084C30.9681 17.1248 30.9946 17.2443 31.0364 17.3443C30.5052 17.5019 29.8923 17.6512 29.349 17.7988C28.2919 18.0919 27.2321 18.3753 26.1697 18.6491L26.1304 18.6563L26.0824 18.6157C26.0471 18.5228 26.0329 18.5126 26.055 18.4158C26.232 18.3283 27.2096 18.0813 27.4669 18.0115L30.8905 17.084Z" fill="#1E1E1E"/>
<path d="M31.8906 21.0674L31.9614 21.0734C32.0222 21.1581 32.052 21.2098 32.0041 21.3069C31.5406 21.4724 30.7892 21.6522 30.2992 21.7839L27.1698 22.6134C27.1323 22.6136 27.1576 22.6158 27.0973 22.5898C27.0473 22.4642 27.0428 22.5193 27.0712 22.4161C27.2406 22.2705 28.3863 22.0095 28.6904 21.9271L31.8906 21.0674Z" fill="#1E1E1E"/>
<path d="M30.2254 18.1368L30.2918 18.1367C30.3555 18.1991 30.36 18.3039 30.3779 18.3981L26.4047 19.4695L26.3463 19.4705C26.2825 19.4035 26.2739 19.3061 26.252 19.2113C27.5782 18.8598 28.9027 18.5016 30.2254 18.1368Z" fill="#1E1E1E"/>
<path d="M29.1977 13.9776C29.259 13.9724 29.2288 13.9662 29.2869 14.0025C29.317 14.1329 29.333 14.1087 29.2915 14.2097C29.097 14.365 28.7836 14.3692 28.5434 14.4353L25.3777 15.2917L25.3001 15.2949C25.2398 15.2297 25.2416 15.1277 25.229 15.033C26.5192 14.719 27.9015 14.3198 29.1977 13.9776Z" fill="#1E1E1E"/>
<path d="M24.569 15.2066L24.6536 15.2002L24.7047 15.2453C24.7295 15.35 24.7305 15.3428 24.7113 15.4481C24.5091 15.5475 23.6934 15.749 23.4252 15.8204C22.6158 16.0428 21.804 16.2561 20.9898 16.4603L20.9181 16.465C20.8352 16.3872 20.8303 16.3489 20.8596 16.2498C21.0224 16.1065 21.719 15.9775 21.9694 15.9108C22.8372 15.6806 23.7037 15.4459 24.569 15.2066Z" fill="#1E1E1E"/>
<path d="M31.0431 22.1495C31.0913 22.1384 31.0632 22.1392 31.1265 22.1624C31.1427 22.2425 31.1516 22.2852 31.1592 22.3676C31.0527 22.4778 30.1168 22.7025 29.8846 22.7661L27.4049 23.4348L27.3284 23.4169C27.2786 23.3386 27.2854 23.3231 27.2783 23.231C27.325 23.1545 27.3616 23.1451 27.4552 23.1197C28.6491 22.7958 29.8571 22.501 31.0431 22.1495Z" fill="#1E1E1E"/>
<path d="M24.3441 14.4202L24.4058 14.4102L24.4497 14.4428C24.4869 14.537 24.4988 14.5449 24.4874 14.6468C24.406 14.6938 23.6918 14.8788 23.5499 14.9166C22.6204 15.1648 21.6892 15.406 20.7561 15.6402C20.7062 15.6508 20.7349 15.6502 20.6707 15.6295C20.6379 15.5148 20.6208 15.5247 20.649 15.4293C20.8732 15.2657 23.869 14.5355 24.3441 14.4202Z" fill="#1E1E1E"/>
<path d="M24.1811 13.5684C24.2051 13.5706 24.2245 13.5843 24.2487 13.5963C24.2854 13.7157 24.2958 13.6855 24.2639 13.7845C24.2085 13.8323 24.1304 13.8765 24.0589 13.8928C22.861 14.1663 21.6816 14.5497 20.4856 14.8281L20.4351 14.8016C20.3887 14.7192 20.3717 14.7088 20.3776 14.6148C20.5171 14.4951 23.7722 13.6702 24.1811 13.5684Z" fill="#1E1E1E"/>
<path d="M25.2599 17.7021L25.2939 17.7279C25.324 17.8309 25.3272 17.8304 25.3256 17.9432C25.2516 18.0243 22.0571 18.8465 21.6568 18.959L21.6342 18.9522C21.5738 18.8884 21.5803 18.7953 21.5659 18.6923C22.7949 18.3538 24.0263 18.0237 25.2599 17.7021Z" fill="#1E1E1E"/>
<path d="M26.6939 23.3281C26.7628 23.3588 26.7983 23.4966 26.7642 23.5713C26.4444 23.7016 25.7447 23.8722 25.3826 23.9681C24.6275 24.1657 23.8739 24.3693 23.1219 24.5787C23.1036 24.5775 23.0664 24.566 23.0469 24.5608C22.993 24.439 22.9873 24.4753 23.0104 24.3672C23.0678 24.3094 23.1594 24.2631 23.2386 24.2444C24.3959 23.9708 25.538 23.6036 26.6939 23.3281Z" fill="#1E1E1E"/>
<path d="M25.4636 18.5527C25.5462 18.5882 25.5523 18.7392 25.5289 18.8166C25.359 18.8896 24.5881 19.0832 24.3756 19.1399C23.539 19.3661 22.7005 19.5846 21.86 19.7956C21.8068 19.7473 21.769 19.6197 21.8017 19.5501C22.1426 19.4253 22.7244 19.2857 23.092 19.1868L25.4636 18.5527Z" fill="#1E1E1E"/>
<path d="M25.6513 19.3682L25.6864 19.3724C25.7507 19.4246 25.7549 19.4897 25.7766 19.573C25.686 19.6937 24.7317 19.9075 24.5272 19.9623C23.7275 20.1733 22.9298 20.3921 22.1344 20.6188L22.0764 20.5954C22.0434 20.509 22.0154 20.4601 22.0233 20.368C22.2419 20.2747 22.9739 20.0923 23.2329 20.0221L25.6513 19.3682Z" fill="#1E1E1E"/>
<path d="M26.3846 22.5318L26.4989 22.5234L26.5403 22.5715C26.5653 22.689 26.5849 22.6847 26.5482 22.7758C26.4102 22.8394 26.2674 22.8704 26.1204 22.9063C25.0697 23.1623 24.0368 23.4899 22.981 23.7251C22.9048 23.7377 22.9037 23.7455 22.835 23.7151C22.7908 23.6123 22.7926 23.6624 22.8223 23.5603C22.9982 23.4076 23.5956 23.3058 23.8487 23.2346C24.6916 22.9918 25.537 22.7576 26.3846 22.5318Z" fill="#1E1E1E"/>
<path d="M26.2602 21.6865L26.301 21.7127C26.3457 21.796 26.3693 21.8203 26.3566 21.9136C26.246 21.9781 25.519 22.1547 25.3378 22.2027C24.449 22.4443 23.5573 22.6755 22.663 22.8964L22.6058 22.8785C22.5505 22.7624 22.5504 22.8145 22.5645 22.7127C22.6917 22.5808 23.5244 22.4025 23.7602 22.3392C24.5919 22.1154 25.4253 21.8979 26.2602 21.6865Z" fill="#1E1E1E"/>
<path d="M19.7625 14.7502C19.8104 14.7259 19.8677 14.7298 19.9119 14.7604C19.956 14.791 19.9798 14.8435 19.9737 14.8969C19.9676 14.9502 19.9328 14.996 19.8829 15.0159C19.8104 15.0449 19.7279 15.0118 19.6957 14.9406C19.6634 14.8695 19.6929 14.7856 19.7625 14.7502Z" fill="#1E1E1E"/>
<path d="M22.3011 24.4845C22.3489 24.4585 22.4072 24.4613 22.4524 24.4917C22.4976 24.5221 22.5221 24.5752 22.516 24.6293C22.5099 24.6834 22.4742 24.7297 22.4234 24.7492C22.3515 24.777 22.2704 24.7441 22.2381 24.6742C22.2058 24.6043 22.2333 24.5213 22.3011 24.4845Z" fill="#1E1E1E"/>
<path d="M19.9573 15.5829C20.0247 15.55 20.1061 15.5747 20.144 15.6393C20.182 15.704 20.1639 15.7869 20.1024 15.8299C20.0581 15.8608 20.0002 15.8643 19.9525 15.8389C19.9049 15.8134 19.8754 15.7634 19.8765 15.7094C19.8775 15.6554 19.9087 15.6065 19.9573 15.5829Z" fill="#1E1E1E"/>
<path d="M22.1181 23.66C22.1909 23.6352 22.2702 23.6726 22.2973 23.7445C22.3244 23.8165 22.2896 23.8969 22.2186 23.9264C22.1706 23.9464 22.1155 23.9385 22.0749 23.906C22.0343 23.8735 22.0146 23.8215 22.0236 23.7702C22.0326 23.719 22.0688 23.6767 22.1181 23.66Z" fill="#1E1E1E"/>
<path d="M21.0728 19.7337C21.1132 19.7002 21.1688 19.6919 21.2172 19.712C21.2658 19.7321 21.2991 19.7773 21.304 19.8296C21.3089 19.8818 21.2845 19.9325 21.2405 19.9612C21.1777 20.0023 21.0937 19.9872 21.0491 19.9267C21.0045 19.8663 21.0149 19.7816 21.0728 19.7337Z" fill="#1E1E1E"/>
<path d="M21.3159 20.5537C21.3623 20.5281 21.4191 20.5306 21.463 20.5605C21.5068 20.5902 21.5302 20.6421 21.5235 20.6947C21.5168 20.7473 21.4811 20.7916 21.4312 20.8094C21.3622 20.834 21.2858 20.8016 21.2556 20.7347C21.2255 20.6679 21.2517 20.5891 21.3159 20.5537Z" fill="#1E1E1E"/>
<path d="M20.1617 16.3706C20.207 16.3443 20.2632 16.3453 20.3075 16.3733C20.3518 16.4013 20.3769 16.4517 20.3725 16.5039C20.3681 16.5561 20.335 16.6015 20.2867 16.6218C20.2184 16.6504 20.1395 16.6211 20.1065 16.5548C20.0735 16.4885 20.0977 16.4079 20.1617 16.3706Z" fill="#1E1E1E"/>
<path d="M21.8655 22.8482C21.9087 22.822 21.9627 22.8214 22.0065 22.8467C22.0502 22.872 22.0766 22.9192 22.0755 22.9697C22.0743 23.0202 22.0456 23.066 22.0008 23.0893C21.9345 23.1235 21.853 23.0992 21.8165 23.0341C21.78 22.9691 21.8017 22.8868 21.8655 22.8482Z" fill="#1E1E1E"/>
<path d="M20.8687 18.8803C20.9336 18.8483 21.0122 18.8724 21.048 18.9352C21.0839 18.9981 21.0645 19.078 21.0038 19.1175C20.9613 19.1452 20.9069 19.1471 20.8625 19.1223C20.8182 19.0975 20.7912 19.0503 20.7925 18.9995C20.7938 18.9487 20.8232 18.9028 20.8687 18.8803Z" fill="#1E1E1E"/>
<path d="M21.5146 28.1602L21.542 28.1688C21.6037 28.2878 21.9431 29.6215 21.9951 29.8181L23.3867 35.2239L26.7714 48.1353L27.7972 52.1104C28.0664 53.1362 28.3765 54.2075 28.5838 55.2468C25.4758 56.0278 22.3061 56.9661 19.1954 57.6944L19.1226 57.6736C19.0621 57.5425 18.9716 57.1308 18.9264 56.9597L18.5005 55.3487L16.9509 49.4626L13.8884 37.5762C13.4882 36.0842 13.1032 34.5882 12.7335 33.0883C12.5452 32.3545 12.2786 31.4467 12.1309 30.72C15.2544 29.9213 18.3906 28.9763 21.5146 28.1602Z" fill="#F7F7F7"/>
<path d="M24.827 51.2432C25.0985 51.2197 25.3599 51.4085 25.379 51.6502C25.4093 52.0317 26.0337 53.3472 25.4931 53.5111C24.2193 53.8971 22.9406 54.1677 21.6737 54.5465C21.5696 54.5519 21.4771 54.5393 21.3857 54.4864C21.1208 54.3332 20.9941 53.5242 20.9018 53.2206C20.8338 52.9971 20.6734 52.554 20.8425 52.3449C20.9509 52.2109 24.3639 51.3663 24.827 51.2432Z" fill="#1E1E1E"/>
<path d="M24.9665 51.4248L25.089 51.4556C25.2272 51.5677 25.2507 51.7895 25.2851 51.9619C25.3428 52.2509 25.6538 53.0478 25.5001 53.2926C25.2387 53.4363 21.8828 54.3242 21.5433 54.3692C21.2482 54.2564 21.2192 53.7211 21.154 53.4506C21.0905 53.1873 20.8916 52.7382 20.985 52.482C21.2136 52.3309 24.5736 51.4767 24.9665 51.4248Z" fill="#DB4431"/>
<path d="M22.6623 42.9536C22.8885 42.9445 23.1643 43.0593 23.1932 43.3079C23.2439 43.7441 23.539 44.3743 23.5503 44.7861C23.5531 44.8838 23.5284 44.9803 23.4789 45.0645C23.3391 45.3082 22.3541 45.4803 22.0614 45.552C21.2072 45.7547 20.356 45.9696 19.5079 46.1967C19.1861 46.2534 19.0122 46.0423 18.9385 45.7476C18.8218 45.2809 18.7111 44.8085 18.601 44.3408C18.5803 44.1084 18.7355 43.9473 18.9548 43.8921C20.1834 43.5825 21.4286 43.2392 22.6623 42.9536Z" fill="#1E1E1E"/>
<path d="M22.6792 43.1318C22.7442 43.1263 22.728 43.1241 22.7924 43.1328C22.8743 43.1439 22.9305 43.1864 22.9772 43.2537C23.0934 43.4215 23.4065 44.7067 23.3735 44.9352C23.2393 45.1352 22.0132 45.3865 21.738 45.455C20.9941 45.6378 20.2532 45.8324 19.5156 46.0386C19.4512 46.0464 19.3822 46.0535 19.3201 46.0287C19.225 45.9907 19.1709 45.8959 19.1323 45.8068C19.0539 45.6256 18.7393 44.3037 18.8094 44.1673C18.8844 44.0216 22.244 43.2316 22.6792 43.1318Z" fill="#DB4431"/>
<path d="M21.6366 38.7646C22.2942 38.7271 22.1764 39.8821 22.415 40.2945C22.4709 40.3909 22.5086 40.8181 22.4141 40.888C22.06 41.15 21.3214 41.2812 20.8895 41.394L18.3755 42.0442C18.0163 42.0622 17.9147 41.8273 17.8307 41.498C17.348 39.6064 17.2538 39.9146 19.0463 39.4474L21.6366 38.7646Z" fill="#1E1E1E"/>
<path d="M21.6445 38.9417C21.9151 38.9089 21.9492 39.1316 22.0056 39.3585C22.1082 39.7716 22.2033 40.1852 22.3231 40.5929C22.3458 40.718 22.2597 40.8455 22.1446 40.8757C20.8919 41.2051 19.6094 41.5865 18.347 41.8695C18.2612 41.8662 18.1072 41.8484 18.0858 41.7506C18.0118 41.4124 17.6358 40.3136 17.7085 40.0284C17.9883 39.8622 18.8568 39.6745 19.2265 39.5773L21.6445 38.9417Z" fill="#DB4431"/>
<path d="M19.5188 30.3848C19.5828 30.3896 19.6612 30.4169 19.7194 30.4463C19.9853 30.5805 20.0603 31.3512 20.1788 31.6412C20.2249 31.8876 20.4154 32.2554 20.2848 32.4924C20.1626 32.7143 19.7711 32.762 19.537 32.825C19.2445 32.9038 18.9427 32.974 18.6481 33.049C17.8437 33.2555 17.042 33.4721 16.2431 33.6988C15.6443 33.7108 15.6726 32.9235 15.5454 32.4852C15.4875 32.1729 15.1754 31.5429 15.6571 31.4155C16.9422 31.0754 18.2327 30.7077 19.5188 30.3848Z" fill="#1E1E1E"/>
<path d="M19.4389 30.5903C19.8595 30.5618 19.8255 30.9567 19.9046 31.2811C19.9673 31.5382 20.2379 32.2164 20.1297 32.436C19.857 32.6019 18.823 32.8317 18.4603 32.9263C17.7367 33.1127 17.0154 33.3075 16.2963 33.5106C15.7523 33.6161 15.8812 32.8785 15.7287 32.5211C15.6491 32.3347 15.5339 31.8545 15.5892 31.6641C15.7315 31.5292 19.0052 30.6954 19.4389 30.5903Z" fill="#DB4431"/>
<path d="M23.7098 47.1172C24.401 47.1146 24.309 47.7942 24.4965 48.2982C24.6116 48.6075 24.7912 49.2273 24.3539 49.3676C23.9521 49.4965 23.5017 49.5999 23.0827 49.7062C22.2645 49.9119 21.448 50.1242 20.6333 50.3431C20.1409 50.4475 20.0281 49.8797 19.9441 49.5062C19.8574 49.1205 19.6056 48.5026 19.8259 48.1555C20.0175 48.0205 23.2175 47.2209 23.7098 47.1172Z" fill="#1E1E1E"/>
<path d="M23.7463 47.2901C23.8387 47.2882 24.0118 47.3154 24.0456 47.4047C24.1775 47.7533 24.4867 48.7228 24.4534 49.0652C24.3103 49.2788 23.216 49.511 22.9091 49.5892L20.6027 50.1799C20.0867 50.2209 20.1589 49.4281 20.0241 49.0694C19.9534 48.8814 19.8629 48.5616 19.8917 48.3659C19.9741 48.2462 20.1359 48.1853 20.2763 48.1539C21.4242 47.897 22.6046 47.542 23.7463 47.2901Z" fill="#DB4431"/>
<path d="M20.6275 34.6074C21.1213 34.7134 21.1239 35.3809 21.2553 35.7945C21.3468 36.0823 21.4802 36.4771 21.3302 36.7499C21.246 36.8133 21.0984 36.8907 20.9953 36.9144C19.7742 37.1945 18.4712 37.6673 17.2521 37.9019C17.2284 37.8983 17.2048 37.8942 17.1812 37.8896C16.8591 37.826 16.8148 37.4998 16.7547 37.2194C16.6695 36.8219 16.4094 36.2329 16.5037 35.8346C16.568 35.7484 16.7303 35.6487 16.8298 35.6237C18.08 35.3093 19.3719 34.8713 20.6275 34.6074Z" fill="#1E1E1E"/>
<path d="M20.6581 34.7842C20.68 34.7878 20.7438 34.8133 20.7676 34.822C20.804 34.8602 20.8684 34.9402 20.8752 34.9897C20.9219 35.3307 21.3379 36.348 21.2127 36.6235C20.9234 36.8178 17.7524 37.6419 17.2337 37.7285C17.1769 37.7166 17.0734 37.7021 17.0558 37.6448C16.9598 37.3311 16.6031 36.1492 16.6538 35.8861C16.8857 35.7209 20.1654 34.8632 20.6581 34.7842Z" fill="#DB4431"/>
<path d="M41.6285 6.92414L41.703 6.91699C41.7618 6.98672 42.1102 9.15738 42.1606 9.44309L44.9844 25.5069L45.4291 28.1139C45.5419 28.7921 45.6121 29.4734 45.8585 30.1165C45.9853 30.4472 46.1095 30.7827 46.2307 31.1156C46.5642 32.0489 46.9027 32.9804 47.2462 33.9101L49.3941 39.8571C49.951 41.3985 50.6359 43.2408 51.1099 44.8012C50.7141 44.8898 49.6295 45.237 49.3031 45.1986C49.2412 45.1385 49.229 45.0373 49.2061 44.9484C48.825 43.567 48.464 42.0605 48.1137 40.6684L47.0166 36.416L43.0126 20.9207L40.8137 12.4847C40.366 10.7865 39.8677 9.0017 39.481 7.29621C40.0614 7.15705 41.0184 7.02434 41.6285 6.92414Z" fill="#F7F7F7"/>
</g>
<defs>
<clipPath id="clip0_812_3412">
<rect width="60" height="60" fill="white"/>
</clipPath>
</defs>
</svg>
