<svg width="60" height="60" viewBox="0 0 60 60" fill="none" xmlns="http://www.w3.org/2000/svg">
<g clip-path="url(#clip0_812_3592)">
<path d="M0 0H60V60H0V0Z" fill="#F7F7F7"/>
<path d="M32.752 13.4102C32.9084 13.4603 33.101 13.5223 33.2531 13.5817C35.925 14.6248 37.5141 18.0421 38.6109 20.5108C39.7717 20.7138 40.9338 20.9097 42.0971 21.0987C42.5388 21.1704 43.6247 21.3176 43.9901 21.4334C44.1371 21.7011 44.3283 22.1583 44.4659 22.4516C45.1874 22.6489 45.9363 22.941 46.6511 23.1754C49.7417 24.1895 52.9951 25.4447 55.4408 27.6523C56.3423 28.525 57.0236 29.9966 56.5905 31.2425C55.8018 33.5112 53.8615 35.3008 52.1556 36.9146C51.997 37.0646 51.3852 37.662 51.2432 37.7356C51.6875 38.8026 52.1487 39.8625 52.6266 40.9149C52.3179 41.0668 51.8904 41.2418 51.5648 41.389L48.006 42.9615L36.7965 47.9742L25.0032 53.2799C23.8792 53.7794 22.6973 54.344 21.5718 54.818C21.4466 54.6249 20.959 53.5149 20.8214 53.222L18.7249 48.6562C17.1641 45.3037 15.6475 41.9309 14.1754 38.5386C13.7159 37.4672 12.9909 35.9992 12.6223 34.9159C12.9958 34.4996 13.6035 33.6546 13.949 33.1846C14.4551 32.496 15.3186 31.4284 15.7313 30.7125C15.3959 29.9301 14.7907 28.6908 14.3815 27.9305C13.4962 26.2851 12.3008 24.1247 10.5053 23.3696C10.1968 23.24 9.89953 23.3009 9.61963 23.2154L9.62338 23.1719C10.0664 22.9209 11.2478 22.4763 11.7616 22.2569L17.0643 20.0196L25.7633 16.3448C27.288 15.6876 28.8193 15.0457 30.3571 14.4194C31.14 14.0916 31.9665 13.7154 32.752 13.4102Z" fill="black"/>
<path d="M44.4658 22.4512C45.1873 22.6485 45.9362 22.9405 46.651 23.175C49.7416 24.1891 52.995 25.4443 55.4407 27.6519C56.3422 28.5246 57.0235 29.9962 56.5904 31.2421C55.8017 33.5108 53.8614 35.3004 52.1555 36.9142C51.9969 37.0642 51.3851 37.6616 51.2431 37.7352C50.8638 36.9367 50.5299 36.1185 50.1733 35.3089L48.0501 30.4984C46.8685 27.8249 45.6045 25.1423 44.4658 22.4512Z" fill="#F7F7F7"/>
<path d="M43.8946 21.6602C44.2234 22.2557 44.5711 23.1072 44.8527 23.7462L46.2186 26.813L50.1996 35.7663L51.5981 38.9542C51.8438 39.5239 52.1029 40.1955 52.3616 40.7422L42.2748 38.0136C41.799 37.8838 38.3294 36.8712 38.0832 36.8973L38.0239 36.941C38.1124 37.026 38.2689 37.0843 38.3879 37.1168C43.0096 38.3791 47.6395 39.6368 52.2624 40.8934L34.0617 49.0149L26.5008 52.4228L23.3796 53.8243C22.8951 54.0431 22.3631 54.3116 21.8782 54.5114C22.2358 53.9329 22.6863 53.0145 23.0086 52.4005L24.8291 48.9583L27.2104 44.4272L28.3167 42.3078C28.4397 42.0707 28.713 41.6622 28.7441 41.4203L28.7196 41.369L28.6485 41.3688C28.4898 41.5668 28.2398 42.084 28.111 42.3353C27.84 42.8685 27.5661 43.4002 27.2892 43.9304L23.4178 51.265L22.2633 53.4488C22.0986 53.7548 21.821 54.2999 21.625 54.5614C20.7865 52.8476 19.9501 50.9718 19.1583 49.2267C18.1964 47.1456 17.2486 45.0579 16.3147 42.9641C15.5154 41.2182 14.739 39.4619 13.986 37.6956C13.617 36.8515 13.1429 35.8708 12.8296 35.0113C15.2893 35.4069 17.7694 35.8742 20.2269 36.2435C21.8272 36.4817 23.426 36.7289 25.0235 36.9849C25.9193 37.1195 27.086 37.2569 27.9519 37.4281L27.9915 37.4111L27.9968 37.2418C28.0861 36.5141 28.2785 35.8409 28.6719 35.2179C29.3767 34.0828 30.5129 33.2832 31.8192 33.003C32.5234 32.8492 33.3538 32.8428 34.0509 33.0375C34.3358 33.1174 34.6157 33.2143 34.8891 33.3276C35.2728 33.5188 35.7849 33.7997 36.0866 34.1153C36.1734 34.2215 36.1402 34.2114 36.2526 34.2533C36.5052 33.7312 36.8321 33.1965 37.1275 32.6935C37.5294 32.0053 37.9362 31.32 38.3479 30.6377L42.2838 24.2202C42.7927 23.3957 43.4319 22.4682 43.8946 21.6602Z" fill="#F7F7F7"/>
<path d="M31.8195 33.0033C32.5237 32.8495 33.3541 32.8431 34.0512 33.0378C34.3361 33.1177 34.616 33.2145 34.8894 33.3279C35.2731 33.5191 35.7852 33.8 36.0869 34.1156C36.1737 34.2218 36.1405 34.2117 36.2529 34.2536L36.2964 34.3161C36.9439 35.0194 37.2144 35.5623 37.4654 36.4664C37.7416 37.8016 37.6841 39.0351 36.917 40.2132C36.1902 41.3348 35.0434 42.1176 33.734 42.3854C31.1658 42.9128 28.5867 41.2197 28.0767 38.6618C28.0443 38.4997 27.9488 37.4229 27.9522 37.4284L27.9918 37.4114L27.9971 37.242C28.0864 36.5144 28.2788 35.8412 28.6722 35.2182C29.377 34.0831 30.5132 33.2835 31.8195 33.0033Z" fill="#FEFEFE"/>
<path d="M31.8195 33.0033C32.5237 32.8495 33.3541 32.8431 34.0512 33.0378C34.3361 33.1177 34.616 33.2145 34.8894 33.3279L34.7752 33.366C34.7833 33.4381 34.7711 33.4043 34.814 33.4667C34.5725 33.3582 34.3332 33.2697 34.0763 33.2066C33.3382 32.9761 32.7102 33.0278 31.9666 33.1159C31.7127 33.1884 31.3441 33.2826 31.1052 33.3785C30.0832 33.7845 29.2318 34.5294 28.6935 35.4883C28.2736 36.2444 28.106 37.0912 28.1227 37.9496C28.1373 38.0791 28.1544 38.2083 28.1744 38.3372C28.5887 40.9012 30.9498 42.6901 33.5295 42.2573C34.785 42.0501 35.9076 41.3551 36.6528 40.3238C37.4701 39.1766 37.5947 38.0098 37.3689 36.6539C37.4271 36.5801 37.4291 36.5542 37.4654 36.4664C37.7416 37.8016 37.6841 39.0351 36.917 40.2132C36.1902 41.3348 35.0434 42.1176 33.734 42.3854C31.1658 42.9128 28.5867 41.2197 28.0767 38.6618C28.0443 38.4997 27.9488 37.4229 27.9522 37.4284L27.9918 37.4114L27.9971 37.242C28.0864 36.5144 28.2788 35.8412 28.6722 35.2182C29.377 34.0831 30.5132 33.2835 31.8195 33.0033Z" fill="#DB4431"/>
<path d="M34.8136 33.4669C34.7707 33.4045 34.783 33.4383 34.7749 33.3663L34.8891 33.3281C35.2727 33.5194 35.7849 33.8002 36.0865 34.1159C36.1734 34.222 36.1402 34.212 36.2525 34.2538L36.2961 34.3164C36.9436 35.0197 37.2141 35.5625 37.4651 36.4666C37.4287 36.5545 37.4267 36.5803 37.3686 36.6542C37.1269 35.696 36.8435 35.135 36.1714 34.416C35.7378 33.9846 35.3672 33.7257 34.8136 33.4669Z" fill="#DB4431"/>
<path d="M29.1318 39.3523C29.0261 39.181 28.9345 38.8982 28.8863 38.7016C28.622 37.6593 28.7888 36.5544 29.349 35.6366C29.9322 34.676 30.8814 33.9943 31.9781 33.7487C33.5914 33.3796 35.3004 34.0491 36.2244 35.4375C36.3758 35.6649 36.5527 36.0004 36.6136 36.2664C36.9298 36.9783 36.908 37.9466 36.729 38.6939C36.4447 39.881 35.594 40.84 34.4757 41.3214C34.2896 41.4003 34.1005 41.4722 33.909 41.537L33.4651 41.6445C32.1167 41.831 30.8193 41.4601 29.8688 40.4587C29.6377 40.2152 29.2116 39.6796 29.1318 39.3523Z" fill="#FEFEFE"/>
<path d="M29.1318 39.3523C29.0261 39.181 28.9345 38.8982 28.8863 38.7016C28.622 37.6593 28.7888 36.5544 29.349 35.6366C29.9322 34.676 30.8814 33.9943 31.9781 33.7487C33.5914 33.3796 35.3004 34.0491 36.2244 35.4375C36.3758 35.6649 36.5527 36.0004 36.6136 36.2664C36.9298 36.9783 36.908 37.9466 36.729 38.6939C36.4447 39.881 35.594 40.84 34.4757 41.3214C34.2896 41.4003 34.1005 41.4722 33.909 41.537L33.4651 41.6445L33.2769 41.5128C33.495 41.4777 33.6606 41.4337 33.8749 41.3772C35.9207 40.7676 36.9389 38.982 36.6539 36.9048C36.3642 35.747 35.9206 35.0385 34.9032 34.394C32.9901 33.1821 30.5434 33.8941 29.4301 35.8255C28.8584 36.8173 28.8031 37.7396 29.0798 38.8481C28.9482 38.9902 29.1367 39.1469 29.1318 39.3523Z" fill="#DB4431"/>
<path d="M29.0795 38.8477C29.4499 39.8752 30.0914 40.6859 31.0968 41.1602C31.7779 41.4734 32.5315 41.5951 33.2765 41.5123L33.4647 41.644C32.1164 41.8305 30.819 41.4596 29.8685 40.4582C29.6374 40.2147 29.2113 39.6791 29.1315 39.3519C29.1364 39.1464 28.9479 38.9897 29.0795 38.8477Z" fill="#DB4431"/>
<path d="M33.5121 34.9238C34.257 34.8666 33.8285 35.6825 33.6947 36.0421C33.5223 36.5061 33.3454 36.9684 33.1641 37.429C33.3973 37.5282 35.3388 38.3038 35.3787 38.456C35.6072 39.3269 34.5919 38.7656 34.2343 38.5874C33.8928 38.4173 33.3801 38.2027 33.0134 38.0723C32.8537 38.4962 32.3707 39.9339 32.1924 40.2385C32.0532 40.3248 31.9622 40.36 31.799 40.3344C31.4332 40.1102 31.7882 39.4119 31.9023 39.1075C32.0737 38.657 32.2387 38.2042 32.3974 37.7491C32.0321 37.6243 29.6771 36.85 30.6168 36.3313C30.8515 36.2988 32.1755 36.9789 32.551 37.113L32.5958 37.1288C32.7579 36.6622 32.9198 36.1961 33.0792 35.7287C33.1727 35.4548 33.2527 35.075 33.5121 34.9238Z" fill="#DB4431"/>
<path d="M10.1484 23.1132C10.8497 22.7917 11.6968 22.4478 12.413 22.1441C13.8313 21.5342 15.2546 20.9362 16.6828 20.3499L25.3003 16.7132L30.545 14.5129C31.0023 14.3215 32.3546 13.6967 32.7652 13.5977C32.9694 13.6533 33.1696 13.723 33.3642 13.8064C36.0406 14.9592 37.4521 18.4061 38.5751 20.8714C39.3692 22.6149 40.2196 24.346 40.9349 26.127C40.8366 26.3113 40.7093 26.5035 40.5949 26.6802C39.7917 27.9217 39.0326 29.1873 38.2639 30.4501C37.7885 31.2401 37.3191 32.0338 36.8559 32.8311C36.6368 33.2052 36.3279 33.7699 36.0866 34.1151C35.785 33.7994 35.2728 33.5186 34.8892 33.3273C34.6158 33.214 34.3359 33.1172 34.0509 33.0372C33.3538 32.8426 32.5235 32.849 31.8193 33.0027C30.5129 33.283 29.3767 34.0826 28.6719 35.2177C28.2785 35.8407 28.0862 36.5138 27.9968 37.2415C24.7195 36.8369 21.2753 36.2245 17.9942 35.7294C17.8814 35.4981 17.7888 35.2587 17.692 35.0202C16.3802 31.7918 15.1009 28.4696 13.1524 25.562C12.4219 24.472 11.4633 23.4423 10.1484 23.1132Z" fill="#FEFEFE"/>
<path d="M33.2328 18.8986C33.7442 18.8574 33.9902 19.129 33.8899 19.6255C33.8395 19.8751 32.9178 20.1938 32.6967 20.2879L30.7817 21.0925C26.7122 22.7849 22.6941 24.6592 18.6095 26.3353C18.0346 26.4063 17.6494 25.6463 18.1766 25.385C18.5853 25.1824 19.0443 25.0022 19.4663 24.8215L22.1771 23.6738L27.9569 21.1591L31.7135 19.5637C32.2253 19.3415 32.7279 19.1397 33.2328 18.8986Z" fill="#DB4431"/>
<path d="M36.0977 24.7561C36.2439 24.7486 36.3133 24.7434 36.4041 24.8749C36.4378 25.0477 36.2965 25.2026 36.1467 25.2651C30.9884 27.4163 25.9708 29.8132 20.9264 32.2169C20.6024 32.3202 20.531 31.8748 20.8129 31.7313C21.1068 31.5818 21.4169 31.4621 21.7158 31.3202L24.3704 30.0572C28.2362 28.196 32.1465 26.4284 36.0977 24.7561Z" fill="black"/>
<path d="M34.8599 21.7353C34.9816 21.7274 35.0657 21.7406 35.1411 21.8459C35.1527 21.9334 35.1619 21.902 35.1393 21.9781C35.1103 22.0755 34.9628 22.2129 34.8723 22.2497C34.3223 22.4734 33.764 22.7142 33.2194 22.9488L29.6714 24.496L19.5109 28.9962C19.0885 28.9577 19.1801 28.5992 19.48 28.4523C19.6316 28.3782 19.8019 28.3297 19.9593 28.2614L21.3998 27.6344C22.5043 27.1594 23.6052 26.6501 24.7117 26.1677L34.8599 21.7353Z" fill="black"/>
<path d="M8.25059 36.4512C8.38635 36.4956 8.42215 36.6408 8.48532 36.7653C8.8476 37.4791 9.31565 38.1026 10.0453 38.4688C10.2244 38.5587 10.4605 38.656 10.6147 38.7873C10.669 38.9354 10.3156 39.0577 10.1851 39.1306C9.99874 39.235 9.81909 39.351 9.64717 39.4778C8.77044 40.1246 8.56741 40.5965 8.15286 41.5519L8.07206 41.5644C7.96829 41.512 7.84735 41.1903 7.79631 41.0801C7.47393 40.3849 7.00237 39.7596 6.38801 39.2968C6.20368 39.158 5.88422 39.0332 5.77881 38.8325C5.80127 38.6886 6.23872 38.5095 6.39745 38.4214C7.41065 37.8594 7.64854 37.2904 8.25059 36.4512Z" fill="black"/>
<path d="M8.25312 36.7578C8.38561 36.9123 8.48375 37.1683 8.61436 37.3537C9.10549 38.0511 9.59146 38.4926 10.3701 38.8255C9.10502 39.5894 8.71402 39.8935 8.11373 41.2077L8.08807 41.2371L8.04699 41.2129C7.86541 40.7507 7.46639 40.2023 7.16814 39.8114C6.87271 39.4241 6.4308 39.1151 6.03857 38.8316C7.31639 37.9803 7.35477 38.1199 8.25312 36.7578Z" fill="#F7F7F7"/>
<path d="M42.8656 13.75C42.9925 13.8218 43.4572 14.4232 43.5971 14.5807C44.0509 15.092 44.5213 15.4467 45.0274 15.888C44.9317 15.9741 44.7887 16.0704 44.683 16.1471C44.1689 16.5203 43.7446 16.9793 43.3974 17.5103C43.3117 17.6414 43.222 17.8996 43.0768 17.9443L42.9953 17.8782C42.6708 17.1541 42.4045 16.699 41.6605 16.3574C41.4514 16.2614 40.876 16.1089 40.8042 15.9175C40.9071 15.6555 41.9757 15.4246 42.335 14.9397C42.704 14.4419 42.6402 14.2385 42.8656 13.75Z" fill="black"/>
<path d="M42.9471 14.0586C43.5104 14.7314 44.0452 15.3436 44.7586 15.8686C44.23 16.2593 43.8004 16.65 43.4279 17.1896C43.3782 17.2615 43.1428 17.5851 43.0853 17.5941L43.02 17.4802C42.5643 16.5668 41.9857 16.2219 41.0273 15.929C42.1323 15.4668 42.5583 15.2038 42.9471 14.0586Z" fill="#F7F7F7"/>
<path d="M13.5146 40.3877C13.6382 40.3975 13.5918 40.3732 13.6742 40.4345C14.8271 43.1151 16.1121 45.818 17.2944 48.5039C17.5288 49.0428 17.7681 49.5795 18.0122 50.1141C18.1164 50.342 18.5593 51.2227 18.5302 51.4319C18.4531 51.4111 18.4778 51.4208 18.4102 51.3792C18.0035 50.5398 13.521 40.5569 13.5146 40.3877Z" fill="black"/>
</g>
<defs>
<clipPath id="clip0_812_3592">
<rect width="60" height="60" fill="white"/>
</clipPath>
</defs>
</svg>
