<svg width="60" height="60" viewBox="0 0 60 60" fill="none" xmlns="http://www.w3.org/2000/svg">
<g clip-path="url(#clip0_812_3613)">
<path d="M0 0H60V60H0V0Z" fill="#F7F7F7"/>
<path d="M25.7591 20.4083C26.1093 20.3878 26.4985 20.3858 26.85 20.3922C27.6576 20.4068 28.4892 20.361 29.2944 20.3871C29.2991 20.6627 29.3009 20.9383 29.2997 21.214L31.5153 21.2142C31.8392 21.2145 32.4774 21.1997 32.7826 21.2363C32.8066 21.7735 32.7942 22.3678 32.7933 22.9095L36.9935 22.9071C37.6523 22.9066 38.5961 22.8791 39.2334 22.9155C39.2692 23.2823 39.2679 23.7035 39.275 24.0766C40.1871 23.9921 41.2237 23.9728 42.1509 23.9176C42.8317 23.877 43.8417 23.8012 44.5029 23.8194C44.6283 24.9071 44.6574 26.3481 44.7159 27.4675L45.0541 33.618L45.5662 41.7013C45.6582 43.0704 45.7707 44.479 45.8349 45.8465C46.6755 45.8438 47.6124 45.8606 48.4452 45.8279C48.3743 45.1978 48.1988 44.3729 48.0823 43.7328L47.3908 39.9434L45.3535 28.5702C45.2585 28.0262 44.7159 25.3323 44.7719 24.9903C44.9691 24.8601 47.6962 24.45 48.1418 24.392C48.3158 24.9509 48.564 26.421 48.6799 27.0317L49.6688 32.308L51.2775 40.7224C51.4661 41.6922 51.6442 42.6641 51.8116 43.6378C51.8731 43.984 52.0717 44.9696 52.0485 45.2812C51.8427 45.421 49.9826 45.7306 49.56 45.8374L52.7321 45.8598C53.2284 45.8612 53.7411 45.8372 54.2328 45.8679C55.082 45.921 54.9478 46.8395 54.9479 47.4371C54.948 48.0315 54.6098 48.2995 54.0399 48.2996C53.1004 48.2998 52.1626 48.2942 51.2239 48.2943L45.0683 48.2868L27.6705 48.255L12.8336 48.2565L8.04313 48.2554C7.38636 48.2559 6.40972 48.2907 5.78272 48.2623C5.5731 48.2545 5.37605 48.1603 5.2383 48.0021C5.04903 47.7836 5.01898 47.5125 5.02008 47.2361C5.02251 46.6277 4.98918 46.1445 5.64525 45.8986C5.09138 44.287 4.70804 42.775 4.78401 41.0482C4.8861 38.2215 6.13438 35.5581 8.24159 33.6712C8.69704 33.2561 10.5604 31.8563 11.0956 31.8818C11.4036 30.3893 11.8729 28.7808 12.2162 27.28C12.3439 26.7222 12.5758 25.4999 12.7409 25.0298C13.5628 25.2464 14.3799 25.4219 15.2051 25.6184C15.5491 25.7004 16.1598 25.8283 16.4674 25.95C16.3113 26.8244 16.0588 27.7255 15.8549 28.592L14.3212 34.8848C13.7461 37.3087 13.1559 39.7292 12.5507 42.1458C12.2393 43.3877 11.9525 44.6522 11.5761 45.8764L16.7706 45.8853L16.7708 32.3734L16.7686 27.0069C16.7726 26.2857 16.7697 25.5567 16.7769 24.835C16.783 24.7429 16.7842 24.6345 16.8565 24.5666C16.9316 24.4963 17.0676 24.4514 17.1689 24.4452C17.5692 24.4204 17.9822 24.4428 18.3842 24.4403C19.0158 24.433 19.6475 24.4311 20.2792 24.4346C20.5646 24.4356 21.3498 24.3938 21.5703 24.5578C21.6809 24.9726 21.6409 26.3586 21.64 26.8807L21.632 30.7366L21.6259 45.8849L22.2819 45.884L22.2955 22.2989C22.6827 22.2593 23.1982 22.2749 23.597 22.2761L25.7558 22.2831C25.7555 21.6908 25.7394 20.992 25.7591 20.4083Z" fill="black"/>
<path d="M5.64525 45.899C5.09138 44.2874 4.70804 42.7754 4.78401 41.0486C4.8861 38.2219 6.13438 35.5585 8.24159 33.6716C8.69704 33.2565 10.5604 31.8567 11.0956 31.8822L7.96339 45.1306C8.2195 45.2233 8.9262 45.3471 9.22116 45.4063L11.4818 45.8641C10.1493 45.9373 8.68767 45.8514 7.34862 45.8781C6.88362 45.8873 6.07731 45.8427 5.64525 45.899Z" fill="#F7F7F7"/>
<path d="M32.7881 25.6211C33.4699 25.5885 34.2793 25.6034 34.9713 25.6008L39.0211 25.6011L39.0213 36.858L39.0195 40.6317C39.0209 41.519 39.0359 42.4613 39.0033 43.3453C36.9823 43.3946 34.8216 43.3562 32.7895 43.3522L32.7881 25.6211Z" fill="#F7F7F7"/>
<path d="M35.6845 37.6325C36.816 37.4818 37.8536 38.2815 37.9961 39.4141C38.1386 40.5466 37.3314 41.5785 36.1979 41.7128C35.0759 41.8457 34.0567 41.0485 33.9157 39.9274C33.7747 38.8064 34.5645 37.7816 35.6845 37.6325Z" fill="black"/>
<path d="M35.8322 37.8442C36.833 37.7758 37.7016 38.5275 37.7777 39.5278C37.8538 40.5282 37.1089 41.4026 36.1093 41.4865C35.0985 41.5714 34.2122 40.8164 34.1352 39.805C34.0583 38.7936 34.8202 37.9132 35.8322 37.8442Z" fill="#F7F7F7"/>
<path d="M35.6955 27.9634C36.8164 27.7987 37.8581 28.5751 38.0207 29.6964C38.1833 30.8175 37.405 31.8578 36.2835 32.0183C35.1649 32.1783 34.128 31.4025 33.9658 30.2843C33.8037 29.166 34.5776 28.1276 35.6955 27.9634Z" fill="black"/>
<path d="M35.6962 28.204C36.6855 28.0413 37.6194 28.7116 37.7817 29.701C37.944 30.6905 37.2732 31.624 36.2837 31.7858C35.2949 31.9475 34.3622 31.2773 34.2 30.2886C34.0378 29.2999 34.7075 28.3668 35.6962 28.204Z" fill="#F7F7F7"/>
<path d="M43.4737 24.1103C43.759 24.0804 44.019 24.0719 44.3047 24.0615C44.5834 29.5065 44.8962 34.9495 45.2429 40.3905C45.2791 40.9754 45.6239 45.6765 45.5595 45.8323L45.4836 45.841C45.083 45.8572 44.6806 45.833 44.2795 45.8335C43.3412 45.8347 42.3911 45.8151 41.4543 45.8487C41.1692 45.8619 40.8838 45.8691 40.5984 45.8704L39.499 24.2972C39.7977 24.2828 40.0964 24.2666 40.3949 24.2486C40.6108 24.2207 41.1684 24.2111 41.4155 24.2014C42.1019 24.1791 42.788 24.1488 43.4737 24.1103Z" fill="#DB4431"/>
<path d="M39.499 24.2977C39.7977 24.2833 40.0964 24.2671 40.3949 24.249L41.0642 37.6714C41.173 39.663 41.2646 41.6555 41.339 43.6487C41.3708 44.3647 41.4339 45.1439 41.4543 45.8492C41.1692 45.8623 40.8838 45.8695 40.5984 45.8709L39.499 24.2977Z" fill="#F7F7F7"/>
<path d="M43.4736 24.1103C43.759 24.0804 44.019 24.0719 44.3047 24.0615C44.5834 29.5065 44.8961 34.9495 45.2428 40.3905C45.2791 40.9754 45.6238 45.6765 45.5595 45.8323L45.4836 45.841C45.2867 45.8176 44.9191 45.8268 44.7092 45.8259C44.6583 44.6108 44.5165 43.3329 44.4497 42.1045L43.7781 29.2502C43.6874 27.5392 43.5449 25.8168 43.4736 24.1103Z" fill="#F7F7F7"/>
<path d="M5.29136 46.7727C5.27769 46.5711 5.27998 46.4319 5.43762 46.287C5.57359 46.162 5.77532 46.0999 5.95661 46.0988C6.41048 46.0957 6.86405 46.1107 7.31786 46.1107L10.4433 46.107L20.8598 46.1135L54.3378 46.0918C54.3961 46.1289 54.4511 46.171 54.5022 46.2176C54.6717 46.3714 54.6926 46.5046 54.7063 46.72C54.7178 47.3296 54.8983 48.038 54.0722 48.0332L18.1264 47.9907L9.91679 47.9812C8.53843 47.9835 7.15298 47.9885 5.77411 47.9908C5.65213 47.991 5.51953 47.9532 5.4289 47.8678C5.29645 47.7429 5.28094 47.542 5.2823 47.3708L5.29136 46.7727Z" fill="#DB4431"/>
<path d="M5.29136 46.7727C5.27768 46.5711 5.27998 46.4319 5.43762 46.287C5.57358 46.162 5.77532 46.0999 5.95661 46.0988C6.41047 46.0957 6.86405 46.1107 7.31786 46.1107L10.4433 46.107L20.8598 46.1135L54.3378 46.0918C54.3961 46.1289 54.4511 46.171 54.5022 46.2176C54.6717 46.3714 54.6926 46.5046 54.7063 46.72C53.49 46.7607 52.0621 46.7216 50.8282 46.7153L42.8781 46.6706L18.3376 46.6984L9.63717 46.6977L7.15239 46.7011C6.58127 46.7027 5.84427 46.6895 5.29136 46.7727Z" fill="#F7F7F7"/>
<path d="M29.2991 21.4502L32.5655 21.4572C32.5831 22.387 32.5596 23.3635 32.5569 24.2973L32.5648 28.3893L32.5619 45.8235L32.5377 45.8616C32.3621 45.8931 31.7203 45.8791 31.5147 45.879L29.3096 45.876L29.2988 38.2142L29.2991 21.4502Z" fill="#F7F7F7"/>
<path d="M25.9878 20.6365C26.9871 20.6188 28.0687 20.6264 29.068 20.6378L29.0723 37.1514L29.0793 43.1893C29.0778 44.0058 29.1161 45.0748 29.0787 45.8698C28.062 45.886 27.0041 45.8706 25.9841 45.8703L25.9668 33.5644L25.9878 20.6365Z" fill="#F7F7F7"/>
<path d="M27.484 39.7433C27.5926 39.7189 27.7008 39.7857 27.7277 39.8937C27.7545 40.0016 27.6902 40.1113 27.5829 40.1406C27.5112 40.1602 27.4346 40.1394 27.3827 40.0863C27.3307 40.0333 27.3116 39.9562 27.3326 39.8851C27.3536 39.8139 27.4116 39.7597 27.484 39.7433Z" fill="black"/>
<path d="M27.4102 30.7313C27.5029 30.6711 27.627 30.6981 27.6864 30.7913C27.7459 30.8845 27.7181 31.0083 27.6245 31.0671C27.5318 31.1253 27.4095 31.0978 27.3506 31.0055C27.2918 30.9133 27.3184 30.7908 27.4102 30.7313Z" fill="black"/>
<path d="M27.4748 24.714C27.5797 24.6834 27.6895 24.744 27.7194 24.8491C27.7494 24.9541 27.6881 25.0635 27.5828 25.0928C27.4785 25.1219 27.3703 25.0612 27.3406 24.9571C27.3109 24.8529 27.3708 24.7444 27.4748 24.714Z" fill="black"/>
<path d="M27.4278 36.7582C27.4893 36.7231 27.5648 36.7239 27.6255 36.7602C27.6862 36.7965 27.7226 36.8628 27.7206 36.9335C27.7187 37.0042 27.6788 37.0684 27.6162 37.1014C27.5217 37.1512 27.4047 37.1161 27.3533 37.0224C27.3019 36.9288 27.335 36.8112 27.4278 36.7582Z" fill="black"/>
<path d="M27.4566 33.7367C27.5239 33.7097 27.6006 33.7222 27.656 33.769C27.7112 33.816 27.7361 33.8896 27.7204 33.9604C27.7047 34.0312 27.6512 34.0875 27.5813 34.1066C27.4813 34.1341 27.3773 34.0788 27.3442 33.9805C27.3112 33.8823 27.3605 33.7754 27.4566 33.7367Z" fill="black"/>
<path d="M27.5162 27.7034C27.6202 27.6975 27.7105 27.7748 27.7205 27.8786C27.7306 27.9824 27.6569 28.0756 27.5536 28.0897C27.483 28.0994 27.4128 28.0697 27.3707 28.0122C27.3285 27.9548 27.3212 27.879 27.3515 27.8145C27.3819 27.7501 27.445 27.7075 27.5162 27.7034Z" fill="black"/>
<path d="M27.447 42.8225C27.5125 42.7921 27.5895 42.8011 27.6462 42.8456C27.703 42.8903 27.7299 42.9629 27.7158 43.0337C27.7017 43.1045 27.6491 43.1615 27.5796 43.181C27.4835 43.208 27.3826 43.1567 27.3479 43.063C27.3132 42.9692 27.3563 42.8646 27.447 42.8225Z" fill="black"/>
<path d="M22.5269 22.5132L24.6079 22.508C24.962 22.506 25.408 22.4896 25.7496 22.515L25.7485 45.8744L25.0186 45.8773L22.5246 45.8913C22.4849 43.2371 22.5072 40.5349 22.5076 37.879L22.5269 22.5132Z" fill="#DB4431"/>
<path d="M25.7503 22.5156L25.7491 45.875L25.0192 45.8778C24.9787 45.1907 25.0147 44.07 25.0153 43.3562L25.0181 38.3217L25.0153 22.5258C25.2672 22.5271 25.4989 22.5266 25.7503 22.5156Z" fill="#F7F7F7"/>
<path d="M47.8219 24.7084C47.9451 24.6923 47.902 24.6731 47.9759 24.7269C48.0414 24.9482 48.0988 25.3165 48.1451 25.554L48.5062 27.4796C48.949 29.7481 49.3787 32.0192 49.7951 34.2928L51.2263 41.7559C51.4022 42.711 51.7187 44.2034 51.8156 45.1268C50.9409 45.3401 49.8048 45.5153 48.903 45.6828L48.6824 45.7382C48.4475 44.5316 48.2561 43.3096 48.0323 42.0988L45.818 29.9166C45.5299 28.3157 45.2792 26.7545 44.9648 25.1482C45.8944 24.9767 46.8848 24.8366 47.8219 24.7084Z" fill="#F7F7F7"/>
<path d="M11.3659 31.7773C12.4631 32.0414 13.5633 32.2925 14.6663 32.5306C14.4733 33.3867 14.2237 34.2714 14.0163 35.1314L11.9957 43.4685C11.8482 43.5146 9.09711 42.8307 8.75879 42.7382C9.08527 41.5631 9.38299 40.0723 9.66811 38.8623L11.3659 31.7773Z" fill="#F7F7F7"/>
<path d="M39.263 24.334C39.3026 24.4132 39.447 28.2682 39.4704 28.7275L40.358 45.8573C39.9894 45.8654 39.6206 45.8677 39.252 45.8643L39.2652 32.2852L39.2663 27.1511C39.2648 26.2151 39.2449 25.2693 39.263 24.334Z" fill="#F7F7F7"/>
<path d="M19.0089 29.6547C19.5066 29.6065 20.1405 29.8884 20.2172 30.4332C20.3035 31.046 20.2344 31.746 20.2475 32.3731C20.2609 33.0118 20.2476 33.6842 20.2227 34.3231C20.1784 34.8949 19.8936 35.213 19.3459 35.3313C18.3183 35.3835 18.0764 34.6392 18.105 33.7777C18.1169 33.087 18.085 32.3908 18.1037 31.7006C18.128 30.8054 17.9068 29.9504 19.0089 29.6547Z" fill="#F7F7F7"/>
<path d="M32.7861 44.7666L39.0091 44.7798C39.0178 45.1393 39.0195 45.4988 39.0141 45.8583L32.7875 45.8716L32.7861 44.7666Z" fill="#F7F7F7"/>
<path d="M32.7861 23.1422C33.478 23.1262 34.2338 23.1411 34.9292 23.1413L39.0223 23.1463C39.0302 23.4691 39.0279 23.8065 39.0304 24.1306C36.9806 24.165 34.8412 24.1435 32.7894 24.1307L32.7861 23.1422Z" fill="#F7F7F7"/>
<path d="M32.7861 24.3709C33.464 24.3515 34.2417 24.3709 34.9257 24.372L39.0197 24.3768C39.0199 24.7027 39.0183 25.0286 39.0151 25.3545C37.0131 25.4107 34.8066 25.3696 32.7871 25.3712L32.7861 24.3709Z" fill="#F7F7F7"/>
<path d="M33.362 43.5791L39.0061 43.5864C39.0128 43.8951 39.0046 44.2337 39.0025 44.5448L38.5146 44.5436L32.7823 44.5495L32.7822 43.5816L33.362 43.5791Z" fill="#F7F7F7"/>
<path d="M11.8827 29.5977C12.8641 29.7646 14.2744 30.0935 15.2236 30.3444L14.8784 31.6541C14.8423 31.6574 11.7911 30.9226 11.5811 30.8663C11.677 30.4423 11.7776 30.0194 11.8827 29.5977Z" fill="#F7F7F7"/>
<path d="M8.5426 43.6416C8.75981 43.667 9.31896 43.803 9.549 43.8522C10.293 44.0085 11.0349 44.1749 11.7744 44.3514L11.4294 45.6309C10.3664 45.3785 9.29564 45.16 8.21875 44.9757C8.32217 44.5299 8.43016 44.0852 8.5426 43.6416Z" fill="#F7F7F7"/>
<path d="M12.5008 27.0684C13.5709 27.3395 14.7466 27.579 15.8242 27.807C15.7206 28.2153 15.62 28.6246 15.5225 29.0345C14.4082 28.7083 13.3192 28.5432 12.2227 28.2586C12.3008 27.8695 12.4073 27.4565 12.5008 27.0684Z" fill="#F7F7F7"/>
<path d="M12.904 25.3408C13.3856 25.4346 13.874 25.569 14.3544 25.6788C14.9682 25.8192 15.5897 25.9479 16.1988 26.1051C16.1228 26.4689 16.0397 26.8312 15.9496 27.1918C14.9203 26.9585 13.6595 26.641 12.6406 26.4694C12.724 26.095 12.8001 25.7089 12.904 25.3408Z" fill="#F7F7F7"/>
<path d="M18.9893 38.983C19.5551 38.8737 20.1022 39.2444 20.2105 39.8105C20.3187 40.3766 19.947 40.923 19.3807 41.0302C18.8159 41.1371 18.2712 40.7665 18.1633 40.202C18.0553 39.6373 18.4249 39.092 18.9893 38.983Z" fill="#F7F7F7"/>
<path d="M18.2592 26.837C18.497 26.8272 20.153 26.8036 20.2775 26.8567C20.3201 26.9304 20.3001 26.9805 20.286 27.0665C20.0038 27.0682 18.451 27.0969 18.2717 27.0451C18.2157 26.9522 18.2351 26.9771 18.2592 26.837Z" fill="#F7F7F7"/>
<path d="M18.4341 43.7838C18.7041 43.7839 20.0329 43.7581 20.1966 43.8443C20.2313 44.0201 20.0738 44.023 19.958 44.0282C19.6549 44.028 18.3396 44.0863 18.1748 43.9123L18.188 43.8433C18.2855 43.7662 18.2804 43.7922 18.4341 43.7838Z" fill="#F7F7F7"/>
</g>
<defs>
<clipPath id="clip0_812_3613">
<rect width="60" height="60" fill="white"/>
</clipPath>
</defs>
</svg>
