<svg width="100" height="20" viewBox="0 0 100 20" fill="none" xmlns="http://www.w3.org/2000/svg">
<g clip-path="url(#clip0_2187_5641)">
<path d="M96.5706 3.94922L93.1586 7.75523V3.94922H90.6895V13.5571H93.1586V9.51206L96.8108 13.5571H100L95.5083 8.52299L99.6752 3.94922H96.5706Z" fill="#EF3124"/>
<path d="M86.3356 7.53255H82.9236V3.94922H80.4531V13.5571H82.9236V9.76889H86.3356V13.5571H88.8048V3.94922H86.3356V7.53255Z" fill="#EF3124"/>
<mask id="mask0_2187_5641" style="mask-type:luminance" maskUnits="userSpaceOnUse" x="0" y="0" width="100" height="20">
<path d="M100 0H0V20H100V0Z" fill="white"/>
</mask>
<g mask="url(#mask0_2187_5641)">
<path d="M14.6613 9.15414C14.6023 10.9465 14.3703 11.3044 13.3574 11.3044V13.5571H13.7349C16.2589 13.5571 16.8655 12.2593 16.9588 9.37545L17.0618 6.18419H19.428V13.5571H21.8971V3.94922H14.8329L14.6613 9.15414Z" fill="#EF3124"/>
<path d="M28.0352 6.86725H26.2523V3.94922H23.7832V13.5571H28.0695C30.7623 13.5571 31.7217 11.8167 31.7217 10.1774C31.7217 8.06124 30.3835 6.86589 28.0352 6.86589M27.8472 11.4397H26.2523V8.9984H27.8472C28.705 8.9984 29.2183 9.37408 29.2183 10.176C29.2183 11.0462 28.7214 11.4397 27.8472 11.4397Z" fill="#EF3124"/>
<path d="M39.762 3.7271V0.160156H37.2929V3.7271C34.4642 3.96617 32.5605 5.96343 32.5605 8.74486C32.5605 11.5263 34.4642 13.5413 37.2929 13.7804V17.3992H39.762V13.7804C42.5907 13.5591 44.4944 11.544 44.4944 8.74486C44.4944 5.94568 42.5907 3.94841 39.762 3.7271ZM37.2929 11.4593C35.9218 11.2708 35.064 10.2476 35.064 8.74622C35.064 7.24486 35.9218 6.22027 37.2929 6.03311V11.4607V11.4593ZM39.762 11.4593V6.03174C41.1331 6.2189 41.991 7.24349 41.991 8.74486C41.991 10.2462 41.1331 11.2708 39.762 11.458" fill="#EF3124"/>
<path d="M53.7542 10.6085V7.38313C53.7542 5.02794 52.2459 3.54297 49.7081 3.54297C47.1704 3.54297 45.6963 5.11401 45.5755 6.75198H48.079C48.1641 6.39406 48.5415 5.77931 49.7081 5.77931C50.6689 5.77931 51.2851 6.2233 51.2851 7.38313H48.8325C46.6379 7.38313 45.334 8.52658 45.334 10.4378C45.334 12.349 46.76 13.7998 48.8146 13.7998C50.3216 13.7998 51.1589 13.0908 51.5239 12.5539C51.8492 13.2028 52.5698 13.5607 53.5127 13.5607H54.3705V11.3421C53.9244 11.3421 53.7529 11.1372 53.7529 10.6085M51.2838 9.97739C51.2838 11.0867 50.4946 11.7178 49.4666 11.7178C48.5744 11.7178 47.8717 11.3941 47.8717 10.4378C47.8717 9.48149 48.6431 9.34625 49.3115 9.34625H51.2838V9.97739Z" fill="#EF3124"/>
<path d="M64.3349 5.31453H61.5749V2.60141H67.9707V0.160156H58.9863V13.5577H64.3363C67.3023 13.5577 69.0001 12.0905 69.0001 9.39376C69.0001 6.85141 67.3023 5.31453 64.3363 5.31453M64.2169 11.1342H61.5762V7.65196H64.2169C65.588 7.65196 66.3607 8.28311 66.3607 9.3924C66.3607 10.5017 65.5894 11.1328 64.2169 11.1328" fill="#EF3124"/>
<path d="M78.4476 10.6085V7.38313C78.4476 5.02794 76.9392 3.54297 74.4015 3.54297C71.8637 3.54297 70.3897 5.11401 70.2689 6.75198H72.7723C72.8574 6.39406 73.2349 5.77931 74.4015 5.77931C75.3622 5.77931 75.9785 6.2233 75.9785 7.38313H73.5258C71.3312 7.38313 70.0273 8.52658 70.0273 10.4378C70.0273 12.349 71.4534 13.7998 73.508 13.7998C75.015 13.7998 75.8522 13.0908 76.2173 12.5539C76.5426 13.2028 77.2631 13.5607 78.206 13.5607H79.0639V11.3421C78.6178 11.3421 78.4462 11.1372 78.4462 10.6085M75.9771 9.97739C75.9771 11.0867 75.1879 11.7178 74.1599 11.7178C73.2678 11.7178 72.5651 11.3941 72.5651 10.4378C72.5651 9.48149 73.3364 9.34625 74.0048 9.34625H75.9771V9.97739Z" fill="#EF3124"/>
<path d="M13.2034 17.2695H0V20.0004H13.2034V17.2695Z" fill="#EF3124"/>
<path d="M9.00113 2C8.6237 0.882514 8.18999 0 6.70358 0C5.21717 0 4.75463 0.878415 4.35936 2L0.273438 13.5587H2.98274L3.92565 10.8115H9.13838L10.0127 13.5587H12.8935L9.00113 2ZM4.71483 8.49044L6.56633 3.0123H6.63495L8.38351 8.49044H4.71346H4.71483Z" fill="#EF3124"/>
</g>
</g>
<defs>
<clipPath id="clip0_2187_5641">
<rect width="100" height="20" fill="white"/>
</clipPath>
</defs>
</svg>
