<svg width="95" height="20" viewBox="0 0 95 20" fill="none" xmlns="http://www.w3.org/2000/svg">
<g clip-path="url(#clip0_2187_5694)">
<path fill-rule="evenodd" clip-rule="evenodd" d="M10.0605 0C4.5125 0 0 4.4896 0 10.0095C0 15.5198 4.5125 20.0095 10.0605 20.0095C15.599 20.0095 20.1115 15.5198 20.1115 10.0095C20.102 4.4896 15.599 0 10.0605 0ZM10.0605 19.4991C4.788 19.4991 0.5035 15.2363 0.5035 10C0.5035 4.76371 4.788 0.500945 10.0605 0.500945C15.3235 0.500945 19.608 4.76371 19.608 10.0095C19.5985 15.2457 15.3235 19.4991 10.0605 19.4991Z" fill="#476BF0"/>
<path fill-rule="evenodd" clip-rule="evenodd" d="M5.92844 4.01818C8.36044 2.94068 11.3244 3.01629 12.9109 3.71572C13.4144 3.94257 13.7469 4.08434 13.8989 4.35844C12.2459 3.91421 11.5429 3.8386 10.1559 3.8764C8.18944 3.91421 5.57694 4.68926 4.57944 5.27527L4.14244 5.82347C5.58644 4.97281 8.26544 4.42461 9.75694 4.37735C11.4194 4.35844 12.7114 4.50967 13.8989 4.935C13.8324 5.23746 13.6804 5.38869 13.4239 5.53992C8.68344 4.71761 5.88094 5.69115 3.34444 7.33576L3.15444 7.87451C5.97594 5.94635 9.44344 5.41705 12.7779 5.99361C11.5809 6.40948 10.1559 6.504 8.95894 6.7781C7.93294 7.0144 7.39144 7.08056 6.03294 7.53425C4.65544 7.98793 3.83844 8.45107 3.32544 9.03708C3.07844 9.32064 2.89794 9.642 2.85044 9.98226C2.83144 10.1902 2.84094 10.3792 2.90744 10.5588C2.96444 10.7195 3.08794 10.8802 3.23044 11.0409C3.06894 11.315 2.92644 11.6741 3.16394 12.09C3.26844 12.2885 3.53444 12.4775 3.79094 12.6666L3.71494 12.8745C3.67694 13.1203 3.64844 13.4038 3.80994 13.6496C4.08544 14.0938 4.42744 14.3773 4.95944 14.6609C5.04494 15.0201 5.16844 15.3131 5.44394 15.5683C6.03294 16.107 7.36294 17.1562 9.71894 17.3169C11.4859 17.4303 12.7494 16.901 13.2339 16.6647L13.8134 16.3622C12.8254 16.7498 11.1629 16.986 9.80444 16.8726C7.82844 16.7119 6.06144 15.4265 5.84294 15.0579C5.90944 15.1051 6.00444 15.1429 6.08994 15.1713C8.40794 16.2772 11.3909 16.8821 15.2099 15.332L15.5234 15.0295C12.0464 16.107 9.00644 16.0692 5.73844 14.3679C5.77644 14.2072 5.84294 14.0654 5.99494 13.952C6.83094 14.3206 7.63844 14.6231 8.60744 14.8216C9.74744 15.0295 11.0489 15.0768 12.1224 15.0295C13.2054 14.9823 15.3429 14.453 16.3499 13.9237C16.4449 13.8386 16.4924 13.7063 16.5779 13.6118C14.6019 14.3301 12.2554 14.6609 10.8399 14.5569C9.45294 14.453 8.22744 14.2923 6.59344 13.555C6.90694 13.4322 7.22994 13.3282 7.55294 13.2337C8.62644 13.555 9.71894 13.7535 11.0014 13.8102C12.2839 13.867 15.2669 13.3944 17.1479 12.2601C17.2049 12.0995 17.2619 11.9199 17.2619 11.9199C17.2619 11.9199 14.6494 13.3093 11.6854 13.3093C10.2984 13.3093 9.45294 13.1108 8.82594 12.9596C10.2224 12.7044 11.9704 12.4964 13.9464 11.9955C14.9439 11.7403 16.1789 11.1637 16.7394 10.6722C17.2144 10.2469 17.5849 9.68926 17.4614 9.12215C17.4329 8.97092 17.2239 8.61175 16.9674 8.48888C17.2144 8.17697 17.1859 7.91232 17.1574 7.67602C17.1289 7.49644 17.0529 7.3074 16.9484 7.12782C16.7774 6.90098 16.5684 6.71194 16.3214 6.57016C16.3689 6.32442 16.3404 6.07867 16.2264 5.85183C15.9794 5.43595 15.5424 5.07678 14.7824 4.69871C14.7444 4.54748 14.6494 4.34899 14.4879 4.15051C13.5379 3.21478 11.9799 2.76109 10.6594 2.74219C10.5834 2.74219 10.5169 2.74219 10.4409 2.74219C8.90194 2.74219 7.66694 3.08245 6.90694 3.44162C6.53644 3.63066 6.23244 3.81024 5.92844 4.01818ZM14.7064 5.28472C15.0294 5.49266 15.4094 5.80457 15.4474 6.12593C15.0959 5.99361 14.7254 5.86128 14.3644 5.76676C14.4784 5.64389 14.6589 5.4454 14.7064 5.28472ZM12.9584 6.73085C13.3574 6.57962 13.6234 6.41894 13.8514 6.2299C14.3739 6.37168 14.8584 6.54181 15.2574 6.71194C15.1909 6.81591 14.7919 7.17508 14.6684 7.17508C14.6589 7.17508 14.6589 7.17508 14.6494 7.17508C14.0984 7.02385 13.6139 6.84427 12.9584 6.73085ZM16.0839 7.19398C16.3974 7.45863 16.4924 7.64767 16.3404 7.93122C16.1314 7.77999 15.9129 7.70438 15.6659 7.58151C15.8179 7.46809 15.9604 7.34521 16.0839 7.19398ZM6.43194 8.25258C7.88544 7.82725 9.58594 7.49644 11.1154 7.31686C12.1699 7.18453 12.7304 7.3074 13.7279 7.57206C11.1629 8.25258 8.62644 8.46998 6.20394 9.17886C4.25644 9.74597 3.73394 10.4549 3.73394 10.4549C2.86944 9.27338 5.86194 8.43217 6.43194 8.25258ZM7.79994 9.67981C9.94694 9.21667 11.9514 8.93311 12.7684 8.72517C13.7659 8.47943 14.4689 8.25258 14.9534 8.01629C14.9724 7.97848 15.7704 8.36601 15.8464 8.45107C15.5804 8.66846 15.2099 8.8575 14.8014 8.99928C13.5854 9.44351 11.3624 9.8972 10.1844 10.0768C8.99694 10.2753 8.00894 10.4265 6.69794 10.7668C5.93794 10.9653 5.42494 11.2015 5.05444 11.4378C4.77894 11.2772 4.61744 11.2299 4.36094 11.022C5.27294 10.2564 7.12544 9.83103 7.79994 9.67981ZM7.25844 11.5513C9.30094 11.0503 11.1059 10.9653 13.5949 10.2942C14.7919 9.98226 15.6659 9.642 16.2074 9.22612C16.2834 9.15051 16.3689 9.09379 16.4544 9.02763C17.1764 10.1335 14.4689 10.9936 12.6164 11.3906C11.5904 11.5985 10.1749 11.8537 9.70944 11.9293C8.50294 12.1278 8.10394 12.2318 7.26794 12.4775C6.84994 12.3169 6.43194 12.1373 6.05194 11.9482C6.44144 11.7876 6.85944 11.6552 7.25844 11.5513ZM4.42744 11.9199C4.34194 11.986 4.23744 12.0617 4.16144 12.1373C3.98094 12.0333 3.79094 11.8065 3.88594 11.5891C4.06644 11.7119 4.20894 11.8065 4.42744 11.9199ZM5.27294 12.3547C5.62444 12.5153 5.98544 12.6666 6.31794 12.8178C6.08994 12.9029 5.87144 13.0068 5.67194 13.1297C5.39644 12.9785 5.12094 12.8273 4.84544 12.6666C4.95944 12.5626 5.11144 12.4586 5.27294 12.3547ZM5.13994 13.5645C5.05444 13.6779 4.99744 13.7724 4.96894 13.8859C4.67444 13.6401 4.54144 13.4416 4.55094 13.2242C4.74094 13.3566 4.94044 13.4605 5.13994 13.5645Z" fill="#476BF0"/>
<path d="M35.1793 8.34698L35.5403 10.8706H34.8088L35.1793 8.34698ZM32.3103 14.122H34.2673L34.5048 12.6948H35.8538L36.0913 14.122H38.0483L36.3953 5.86115H33.9633L32.3103 14.122ZM46.4273 7.6759H46.8928C47.3298 7.6759 47.6053 7.9311 47.6053 8.62108C47.6053 9.519 47.1398 9.58516 46.8928 9.58516H46.4273V7.6759ZM44.4893 14.122H46.4178V11.3999H47.0733C48.9828 11.3999 49.5718 9.69858 49.5718 8.61163C49.5718 7.54357 48.8973 5.86115 47.0733 5.86115H44.4988L44.4893 14.122ZM59.2048 12.2222C58.5303 12.2222 58.1693 11.4377 58.1693 9.97269C58.1693 8.50766 58.5208 7.72316 59.2048 7.72316C59.8888 7.72316 60.2403 8.50766 60.2403 9.97269C60.2403 11.4377 59.8888 12.2222 59.2048 12.2222ZM59.2048 14.226C61.4944 14.226 62.2639 12.1088 62.2639 9.98214C62.2639 7.85548 61.4944 5.73828 59.2048 5.73828C56.9153 5.73828 56.1458 7.85548 56.1458 9.98214C56.1458 12.0993 56.9153 14.226 59.2048 14.226ZM63.2138 14.122H65.1423V9.07476L66.3108 10.5303L67.4793 9.07476V14.1126H69.3889V5.86115H67.7548L66.3013 7.80822L64.8478 5.86115H63.2138V14.122ZM31.9968 9.39613H29.1943V10.9179H30.2203C30.1443 11.8158 29.8498 12.2695 29.3273 12.2695C28.6528 12.2695 28.1683 11.485 28.1683 10.0199C28.1683 9.92543 28.1683 9.83091 28.1778 9.74584C28.2348 8.46985 28.6433 7.6759 29.5458 7.6759C30.1823 7.6759 30.5433 7.81768 31.0753 8.09178L31.6453 6.39045C31.1608 6.03129 30.3248 5.78554 29.7548 5.78554C27.5508 5.78554 26.2303 7.35454 26.1448 9.75529C26.1448 9.84981 26.1353 9.93488 26.1448 10.0294C26.1448 12.1466 26.9903 14.2733 29.2798 14.2733C31.5693 14.2733 32.0253 12.1561 32.0253 10.0294C32.0063 9.92543 32.0063 9.48119 31.9968 9.39613ZM38.6848 5.87061V7.77987H40.8983L38.6183 14.1409H43.5678V12.2128H41.3543L43.4538 5.87061H38.6848ZM52.2318 7.6759H52.6878C53.1248 7.6759 53.4003 7.9311 53.4003 8.62108C53.4003 9.519 52.9348 9.58516 52.6878 9.58516H52.2223C52.2318 9.57571 52.2318 7.6759 52.2318 7.6759ZM55.9273 14.122L54.2648 10.7288C54.9393 10.2279 55.3763 9.22599 55.3763 8.52656C55.3763 7.45851 54.7018 5.84225 52.8778 5.8517H50.3033V14.1126H52.2318V11.2865L52.6498 11.277L53.7139 14.1126L55.9273 14.122ZM73.1128 12.2222H72.5618V10.795H73.0558C73.6163 10.7761 73.8918 11.0691 73.8918 11.5228C73.8918 11.8441 73.6733 12.2222 73.1128 12.2222ZM73.6923 8.37533C73.6923 8.96134 73.1223 9.08422 72.8088 9.08422H72.5618V7.70425H72.7708C72.9513 7.70425 73.6923 7.68535 73.6923 8.37533ZM74.6708 9.7931C74.6708 9.7931 75.6208 9.2449 75.6208 7.95C75.6208 6.9103 74.8893 5.87061 73.3028 5.87061H70.6333V14.1315H73.3693C74.7658 14.1315 75.9058 13.4226 75.9153 11.7496C75.9153 10.5303 75.1838 10.0767 74.6708 9.7931ZM82.8503 14.122H84.7408V10.0767L84.7978 10.398L86.5839 14.1126H88.1989V5.86115H86.3083V9.82146L86.2608 9.519L84.4464 5.86115H82.8503V14.122ZM89.3578 14.122H91.2484V10.8044H91.7043L92.7874 14.122H95.0103L93.3288 9.78365L94.8014 5.86115H92.7494L91.6664 8.83847H91.2579V5.86115H89.3674L89.3578 14.122ZM79.2309 8.36588L79.5918 10.8895H78.8603L79.2309 8.36588ZM76.3618 14.1315H78.3189L78.5564 12.7043H79.9053L80.1428 14.1315H82.1093L80.4564 5.87061H78.0243L76.3618 14.1315Z" fill="#476BF0"/>
</g>
<defs>
<clipPath id="clip0_2187_5694">
<rect width="95" height="20" fill="white"/>
</clipPath>
</defs>
</svg>
