<svg width="100" height="20" viewBox="0 0 100 20" fill="none" xmlns="http://www.w3.org/2000/svg">
<g clip-path="url(#clip0_2187_5698)">
<path fill-rule="evenodd" clip-rule="evenodd" d="M0 10.1324C0 4.70237 4.41424 0.297829 9.86252 0.292969V3.84818C6.38357 3.85307 3.56675 6.66469 3.56675 10.1324C3.56675 13.605 6.39089 16.4203 9.87592 16.4203C13.3378 16.4203 16.1827 13.6317 16.1827 10.1093L19.7506 10.113C19.7506 15.5685 15.3315 19.9755 9.87592 19.9755C4.41911 19.9755 0 15.5685 0 10.1324Z" fill="#1A1A1A"/>
<path fill-rule="evenodd" clip-rule="evenodd" d="M5.51758 10.134C5.51758 7.72334 7.48079 5.76953 9.89767 5.76953C12.3157 5.76953 14.279 7.72334 14.279 10.134C14.279 12.5458 12.3157 14.4985 9.89767 14.4985C7.48079 14.4985 5.51758 12.5458 5.51758 10.134Z" fill="#1A1A1A"/>
<path fill-rule="evenodd" clip-rule="evenodd" d="M12.9375 4.60726C12.9375 3.22453 14.0625 2.10547 15.4486 2.10547C16.8384 2.10547 17.9622 3.22453 17.9622 4.60726C17.9622 5.98875 16.8384 7.11024 15.4486 7.11024C14.0625 7.11024 12.9375 5.98875 12.9375 4.60726Z" fill="#1A1A1A"/>
<path fill-rule="evenodd" clip-rule="evenodd" d="M90.0583 7.0845L89.7535 8.57781C89.0379 11.8256 88.772 12.8718 88.1513 16.1014L88.0134 16.218L86.0379 16.2751L85.9405 16.1415L86.7367 12.8147L86.9698 11.7248C86.121 11.7066 85.2711 11.692 84.4223 11.692C83.7589 11.692 83.2542 11.6993 82.7383 11.7138C82.4468 13.0224 82.2042 14.1731 81.8322 16.1014L81.6946 16.218L79.7153 16.2751L79.6191 16.1415L80.414 12.8147L80.7274 11.3651C81.2494 9.08327 81.3472 8.58146 81.658 6.47457L81.7946 6.34092C82.7029 6.22304 82.9175 6.18539 83.8481 5.99219L83.9481 6.12584L83.737 7.0845L83.4357 8.57781L83.1201 9.99092C83.8322 10.0091 84.5456 10.0201 85.2625 10.0201C86.0185 10.0201 86.516 10.0055 87.3574 9.98971C87.6293 8.75279 87.7392 8.0772 87.9768 6.47457L88.1134 6.34092C89.0242 6.22304 89.2367 6.18539 90.1695 5.99219L90.2656 6.12584L90.0583 7.0845Z" fill="#1A1A1A"/>
<path fill-rule="evenodd" clip-rule="evenodd" d="M68.2593 12.0291C67.83 13.7034 66.6386 16.5964 62.9755 16.5964C60.3832 16.5964 58.959 15.2562 58.959 12.6135C58.959 12.2721 58.9857 11.8918 59.0431 11.4932C59.0564 11.3936 59.0698 11.2988 59.0832 11.1968C59.7892 6.81896 61.694 2.66956 65.8717 2.62825C66.4278 2.62096 67.558 2.56386 68.3265 2.38281L68.0472 4.13128C67.2727 4.32931 66.0472 4.43261 65.3329 4.43623C64.445 4.44597 63.8316 4.78255 63.4061 5.18835C63.1953 5.38883 63.0306 5.60997 62.9048 5.81045C62.7794 6.00972 62.6867 6.19197 62.6195 6.32928C63.1781 6.15553 63.7889 6.04616 64.4768 6.04616C67.029 6.04616 68.5507 7.46534 68.5507 9.96956C68.5507 10.65 68.4348 11.3486 68.2593 12.0291ZM66.2316 11.4264C66.3682 10.8638 66.4644 10.3025 66.4644 9.75813C66.4644 7.79581 65.1975 7.46534 64.4768 7.46534C61.4163 7.46534 61.0259 12.204 61.0259 12.9221C61.0259 14.4774 61.9612 15.1566 63.016 15.1566C65.1013 15.1566 65.8803 13.0217 66.2316 11.4264Z" fill="#1A1A1A"/>
<path fill-rule="evenodd" clip-rule="evenodd" d="M93.4026 10.2388C93.8669 9.8366 94.1367 9.58387 94.7755 8.96784C95.4536 8.3105 97.1033 6.60943 97.4131 6.28016L97.6265 6.16593H99.8593L99.9166 6.34092C99.7227 6.51346 99.624 6.5912 98.8472 7.24733C98.5361 7.50127 98.3459 7.69327 97.9778 8.02133L95.4536 10.3409L98.4619 16.0455L98.3459 16.1974L96.1912 16.2581L96.0351 16.1415C95.5303 14.941 95.3962 14.6737 94.6988 13.2594L93.3402 10.5146C92.9122 12.4162 92.6488 13.6142 92.1685 16.1014L92.0345 16.218L90.0539 16.2751L89.959 16.1415L90.7539 12.8147L91.065 11.3651C91.5867 9.08327 91.6845 8.58146 91.994 6.47457L92.1306 6.34092C93.044 6.22304 93.2548 6.18539 94.1876 5.99219L94.2854 6.12584L94.0768 7.0845L93.7733 8.57781L93.4026 10.2388Z" fill="#1A1A1A"/>
<path fill-rule="evenodd" clip-rule="evenodd" d="M79.9636 6.20109L79.8658 6.04557L77.1748 6.02734C75.3821 6.02734 72.869 6.14277 71.0547 8.25938C70.2362 9.22655 69.4961 10.8936 69.4961 12.4233C69.4961 14.8449 71.1142 16.2434 73.1018 16.2434C74.7566 16.2434 75.6174 15.5253 75.948 15.2556L75.8114 16.0296L75.9079 16.1681L77.7394 16.128L77.8783 15.9919C78.2662 13.6821 78.405 12.9482 79.0869 9.96166L79.9636 6.20109ZM76.2378 13.7622C76.0241 13.9323 75.8107 14.1304 75.5951 14.2628C75.0904 14.5726 74.427 14.7099 73.9012 14.7099C72.1257 14.7099 71.6197 13.2179 71.6197 12.2883C71.6197 12.1924 71.6588 9.69058 73.705 8.29814C74.856 7.52293 76.1232 7.48404 76.7655 7.48404C77.0582 7.48404 77.3486 7.50226 77.6423 7.50226L76.2378 13.7622Z" fill="#1A1A1A"/>
<path fill-rule="evenodd" clip-rule="evenodd" d="M29.285 14.3955C30.7702 14.3955 31.4641 12.8536 31.9152 10.8694C32.2324 9.47212 32.5761 7.42355 30.7861 7.42355C29.2594 7.42355 28.5838 8.88282 28.1339 10.8694C27.7132 12.7126 27.6181 14.3955 29.285 14.3955ZM28.5954 16.5435C26.4822 16.5435 23.4398 15.8752 24.5422 11.0113C24.9543 9.18514 26.2201 5.31641 31.4269 5.31641C36.4898 5.31641 35.7363 9.45123 35.4254 10.9105C34.4914 15.0222 31.9707 16.5435 28.5954 16.5435Z" fill="#1A1A1A"/>
<path fill-rule="evenodd" clip-rule="evenodd" d="M40.9729 16.2968C39.9952 16.2968 38.3891 16.2968 37.7146 16.3175L37.6003 16.1972C37.7866 15.5472 38.2439 13.8048 38.7267 11.676C39.1159 9.95309 39.4621 8.43547 39.5974 7.74411C38.7793 7.76357 37.5197 7.76357 36.9038 7.78544L36.793 7.64328C36.9551 7.11716 37.1831 6.20709 37.3258 5.66033L37.5124 5.55582C38.0563 5.57649 40.1267 5.59712 41.7923 5.59712C43.807 5.59712 45.7678 5.55582 46.1786 5.53516L46.3175 5.63966C46.1678 6.12205 45.9032 7.11716 45.7678 7.62262L45.5751 7.74411C44.7704 7.72589 44.1592 7.72589 42.9962 7.72589C42.8962 8.16817 42.5815 9.46827 42.0583 11.7769C41.6643 13.5229 41.3401 15.1219 41.1509 16.134L40.9729 16.2968Z" fill="#1A1A1A"/>
<path fill-rule="evenodd" clip-rule="evenodd" d="M52.2731 7.98713C51.6196 7.98713 50.8855 8.00659 50.5588 8.00659C50.4575 8.4537 50.06 10.1159 49.6941 11.7355C49.2613 13.6407 48.8772 15.4257 48.7285 16.1729L48.5371 16.2968C47.5406 16.2968 46.2604 16.2968 45.2374 16.3175L45.125 16.1972C45.3349 15.3637 45.8677 13.0964 46.3798 10.8449C46.8932 8.57763 47.3384 6.34805 47.4823 5.71865L47.653 5.57649C48.7527 5.57649 49.8613 5.61779 52.5868 5.61779C54.7218 5.61779 56.79 5.55582 57.8935 5.53516L57.9861 5.66033C57.8435 6.20709 57.2301 8.81944 56.6425 11.4111C56.168 13.501 55.7339 15.5848 55.6218 16.1729L55.4718 16.2968C54.5973 16.2968 52.9916 16.2968 52.1537 16.3175L52.0635 16.1729C52.2428 15.4658 52.6355 13.8254 53.0963 11.7963C53.4451 10.2568 53.7976 8.61652 53.9365 8.00659C53.6097 8.00659 52.8842 7.98713 52.2731 7.98713Z" fill="#1A1A1A"/>
</g>
<defs>
<clipPath id="clip0_2187_5698">
<rect width="100" height="20" fill="white"/>
</clipPath>
</defs>
</svg>
