<svg width="153" height="20" viewBox="0 0 153 20" fill="none" xmlns="http://www.w3.org/2000/svg">
<g clip-path="url(#clip0_2187_5709)">
<path d="M30.1257 3.84766C32.2489 3.84766 33.9689 4.78978 34.6945 5.48965L33.4851 6.97013C32.8939 6.43177 31.577 5.70499 30.1257 5.70499C27.4651 5.70499 25.7988 7.53541 25.7988 10.0388C25.7988 12.5421 27.3845 14.3726 30.1526 14.3726C31.7651 14.3726 33.1626 13.5112 33.7539 12.919L34.9095 14.4533C34.1839 15.207 32.3564 16.2299 30.1257 16.2299C26.202 16.2299 23.7832 13.5919 23.7832 10.0119C23.7832 6.48561 26.2826 3.84766 30.1257 3.84766Z" fill="#213A8B"/>
<path d="M42.2209 3.84766C45.849 3.84766 48.4828 6.48561 48.4828 10.0657C48.4828 13.6458 45.849 16.2837 42.2209 16.2837C38.5927 16.2837 35.959 13.6458 35.959 10.0657C35.959 6.48561 38.5927 3.84766 42.2209 3.84766ZM42.2209 14.3995C44.6665 14.3995 46.494 12.5421 46.494 10.0657C46.494 7.56233 44.6934 5.73191 42.2209 5.73191C39.7753 5.73191 37.9477 7.58924 37.9477 10.0657C37.9477 12.5421 39.7753 14.3995 42.2209 14.3995Z" fill="#213A8B"/>
<path d="M60.9529 12.5425C60.9529 14.2922 59.8241 15.988 56.9485 15.988H50.6328V4.11719H56.5722C58.991 4.11719 60.3616 5.59767 60.3616 7.2935C60.3616 8.23563 59.9316 9.097 58.8835 9.79686C59.9316 10.1468 60.9529 10.9274 60.9529 12.5425ZM52.5678 5.97452V9.15083L56.3303 9.12392C57.6741 9.12392 58.3728 8.37021 58.3728 7.48192C58.3728 6.67439 57.7816 5.97452 56.5991 5.97452H52.5678ZM57.056 14.1306C58.4266 14.1306 58.9641 13.3769 58.9641 12.5425C58.9641 11.6542 58.346 10.9005 57.1097 10.9005H52.5947V14.1306H57.056Z" fill="#213A8B"/>
<path d="M68.746 9.87762L73.9867 15.988H71.4067L67.026 10.7928H64.7685V15.988H62.8066V4.11719H64.7685V9.01624H67.026L71.2992 4.11719H73.9061L68.746 9.87762Z" fill="#213A8B"/>
<path d="M80.008 3.84766C83.6361 3.84766 86.2699 6.48561 86.2699 10.0657C86.2699 13.6458 83.6361 16.2837 80.008 16.2837C76.3799 16.2837 73.7461 13.6458 73.7461 10.0657C73.7461 6.48561 76.3799 3.84766 80.008 3.84766ZM80.008 14.3995C82.4536 14.3995 84.2811 12.5421 84.2811 10.0657C84.2811 7.56233 82.4805 5.73191 80.008 5.73191C77.5624 5.73191 75.7349 7.58924 75.7349 10.0657C75.7349 12.5421 77.5624 14.3995 80.008 14.3995Z" fill="#213A8B"/>
<path d="M99.4114 4.11719H101.293V15.988H99.3308V7.15891L95.4339 12.381H94.2514L90.3545 7.15891V15.988H88.3926V4.11719H90.2738L94.8426 10.2006L99.4114 4.11719Z" fill="#213A8B"/>
<path d="M110.214 8.96241C112.821 8.96241 114.245 10.4967 114.245 12.4617C114.245 14.4267 112.821 15.988 110.348 15.988H103.898V4.11719H113.143V5.97452H105.86V8.96241H110.214ZM110.268 14.1306C111.612 14.1306 112.23 13.3769 112.23 12.4887C112.23 11.6004 111.612 10.8467 110.268 10.8467H105.86V14.1306H110.268Z" fill="#213A8B"/>
<path d="M125.076 15.988L123.786 13.027H118.169L116.879 15.988H114.756L119.916 4.11719H122.066L127.226 15.988H125.076ZM118.948 11.2504H123.033L120.991 6.51288L118.948 11.2504Z" fill="#213A8B"/>
<path d="M137.465 4.11719H139.427V15.988H137.465V10.9005H130.612V15.988H128.65V4.11719H130.612V9.04316H137.465V4.11719Z" fill="#213A8B"/>
<path d="M147.975 9.87762L153.242 15.988H150.635L146.255 10.7928H143.997V15.988H142.035V4.11719H143.997V9.01624H146.255L150.528 4.11719H153.135L147.975 9.87762Z" fill="#213A8B"/>
<path d="M0.322266 10.0664C0.322266 15.5038 4.72978 19.9183 10.1854 19.9183C10.3198 19.9183 10.4542 19.9183 10.5886 19.9183V16.1767H10.1854C6.79917 16.1767 4.08478 13.4311 4.08478 10.0664C4.08478 6.70163 6.82604 3.95601 10.1854 3.95601H10.5886V0.1875C10.4542 0.1875 10.3198 0.1875 10.1854 0.1875C4.72978 0.1875 0.322266 4.60204 0.322266 10.0664Z" fill="#DA5155"/>
<path d="M12.1483 0.378906V5.52023H10.1864C7.66016 5.52023 5.64453 7.53907 5.64453 10.0693C5.64453 12.5727 7.68704 14.6185 10.1864 14.6185H12.1483V19.7598C16.6365 18.8446 20.0227 14.8607 20.0227 10.0963C20.0227 5.27796 16.6365 1.29411 12.1483 0.378906Z" fill="#213A8B"/>
</g>
<defs>
<clipPath id="clip0_2187_5709">
<rect width="153" height="20" fill="white"/>
</clipPath>
</defs>
</svg>
