<svg width="65" height="20" viewBox="0 0 65 20" fill="none" xmlns="http://www.w3.org/2000/svg">
<g clip-path="url(#clip0_2187_5682)">
<path d="M0 0H19.9429V10.0586C19.9429 12.6371 18.5713 15.0199 16.3447 16.3093L9.97147 20L3.59829 16.3093C1.37164 15.0199 0 12.6371 0 10.0586V0Z" fill="#FFDD2D"/>
<path fill-rule="evenodd" clip-rule="evenodd" d="M5.47266 5.29297V8.42139C5.89924 7.93831 6.67483 7.61135 7.56162 7.61135H8.52531V11.2481C8.52531 12.2157 8.26318 13.0625 7.87424 13.5284H12.0661C11.678 13.0621 11.4164 12.2163 11.4164 11.25V7.61135H12.3802C13.267 7.61135 14.0425 7.93831 14.4691 8.42139V5.29297H5.47266Z" fill="#0f0f0f"/>
<path d="M24.6445 13.5275V5.29297H32.9847V7.17498H27.1315V8.35159H30.0287C32.0815 8.35159 33.6064 8.82209 33.6064 10.9394C33.6064 13.057 32.0815 13.5275 30.0287 13.5275H24.6445ZM27.1315 10.2336V11.6451H30.0404C30.8851 11.6451 31.0843 11.4807 31.0843 10.9394C31.0843 10.3983 30.8851 10.2336 30.0404 10.2336H27.1315Z" fill="#0f0f0f"/>
<path d="M47.3737 10.4689V13.5275H44.8867V5.29297H47.3737V8.29278H51.4438V5.29297H53.9308V13.5275H51.4438V10.4689H47.3737Z" fill="#0f0f0f"/>
<path d="M57.9381 10.4217V13.5275H55.4512V5.29297H57.9381V8.36328H59.4277L62.0201 5.29297H64.8352L61.5861 9.13954V9.2926L64.9995 13.5275H61.9145L59.4161 10.4217H57.9381Z" fill="#0f0f0f"/>
<path d="M40.9286 12.3158H37.0459L36.6119 13.5275H34.0078L37.2571 5.29297H40.8465L44.084 13.5275H41.3626L40.9286 12.3158ZM40.26 10.4338L39.1105 7.18703H38.8992L37.7263 10.4338H40.26Z" fill="#0f0f0f"/>
</g>
<defs>
<clipPath id="clip0_2187_5682">
<rect width="65" height="20" fill="white"/>
</clipPath>
</defs>
</svg>
