<svg width="55" height="20" viewBox="0 0 55 20" fill="none" xmlns="http://www.w3.org/2000/svg">
<g clip-path="url(#clip0_2187_5656)">
<path d="M15.8438 2.55774H2.83491L3.77206 0H16.781L15.8438 2.55774ZM15.3752 3.83661H2.36047L1.42331 6.39435H14.4322L15.3752 3.83661ZM13.9695 7.6616H0.954735L0.0175781 10.2193H13.0148L13.9695 7.6616Z" fill="#009FDF"/>
<path d="M46.8395 16.621H49.1824C49.5154 16.6605 49.8531 16.618 50.1657 16.4974C50.4782 16.3767 50.7561 16.1816 50.9747 15.9292C51.2961 15.5118 51.458 14.9948 51.4316 14.4702C51.4536 14.1363 51.3918 13.8022 51.2518 13.4979C51.1117 13.1935 50.8978 12.9284 50.6292 12.7263C50.1943 12.4438 49.6771 12.313 49.159 12.3542H46.8395V16.621ZM43.7645 19.1962V3.8381H53.8331L52.9486 6.41328H46.8395V9.81391H49.3289C51.3379 9.81391 52.3805 10.2906 53.1009 10.901C53.616 11.3536 54.0211 11.9162 54.2859 12.5464C54.5506 13.1766 54.6682 13.8582 54.6297 14.5399C54.6692 15.2741 54.5233 16.0064 54.2052 16.6703C53.887 17.3342 53.4068 17.9088 52.8081 18.3417C51.8416 19.0043 50.8283 19.1904 48.7666 19.1904L43.7645 19.1962ZM34.8498 19.1962V6.40747H30.3749V3.8381H42.7981L41.9136 6.41328H37.9541V19.202L34.8498 19.1962ZM22.45 9.98831H24.2072C24.5666 10.0127 24.9276 9.98526 25.2791 9.90692C25.6446 9.79104 25.9596 9.55536 26.1724 9.2385C26.3853 8.92165 26.4833 8.54243 26.4505 8.16301C26.4993 7.786 26.407 7.40434 26.191 7.0904C25.9751 6.77646 25.6506 6.55207 25.2791 6.45979C24.8953 6.37137 24.5011 6.33616 24.1076 6.35515H22.45V9.98831ZM22.45 12.6449V16.6733H24.5938C25.1846 16.7403 25.7786 16.5778 26.2514 16.2199C26.4693 16.0195 26.64 15.774 26.7513 15.5007C26.8627 15.2274 26.912 14.9331 26.8957 14.6387C26.905 14.1685 26.7612 13.7077 26.4857 13.325C26.0288 12.7437 25.4665 12.6332 24.5059 12.6332L22.45 12.6449ZM27.4053 11.023V11.0753C27.9275 11.2749 28.4155 11.5533 28.852 11.9008C29.2932 12.2642 29.6419 12.7257 29.8699 13.2479C30.0978 13.77 30.1986 14.3381 30.164 14.9061C30.164 17.0047 29.0394 18.5219 27.1944 18.9753C26.459 19.1537 25.7015 19.2261 24.9452 19.1904H19.375V3.8381H24.3302C25.1172 3.80955 25.9047 3.88184 26.6731 4.05318C28.4654 4.52985 29.6427 5.75641 29.6427 7.69215C29.6574 8.15367 29.5771 8.61331 29.407 9.04305C29.2368 9.47279 28.9802 9.86364 28.6528 10.1918C28.3052 10.5421 27.8912 10.8206 27.4345 11.0114L27.4053 11.023Z" fill="#0A2973"/>
</g>
<defs>
<clipPath id="clip0_2187_5656">
<rect width="55" height="20" fill="white"/>
</clipPath>
</defs>
</svg>
