<svg width="67" height="20" viewBox="0 0 67 20" fill="none" xmlns="http://www.w3.org/2000/svg">
<mask id="mask0_2187_5753" style="mask-type:luminance" maskUnits="userSpaceOnUse" x="0" y="0" width="67" height="20">
<path d="M67 0H0V20H67V0Z" fill="white"/>
</mask>
<g mask="url(#mask0_2187_5753)">
<path d="M0.0996094 19.65H9.80571V10.0781C7.78002 13.8915 3.99069 16.3704 0.0996094 17.3215C0.111942 18.0424 0.0996094 19.65 0.0996094 19.65Z" fill="#08787C"/>
<path d="M3.20312 14.835C5.47093 13.6406 7.35316 11.8326 8.63275 9.61952C8.63275 9.61952 8.63275 8.51508 8.63275 8.49052C6.59829 7.82097 4.74361 6.69941 3.20929 5.21094C3.20929 7.83402 3.20929 14.835 3.20929 14.835" fill="#08787C"/>
<path d="M3.72656 0.373324V4.02415C4.4691 4.75699 5.28885 5.40807 6.17157 5.96614V2.04534C5.29464 1.58415 4.47594 1.02081 3.73273 0.367188" fill="#08787C"/>
<path d="M17.0822 3.71123C17.0841 3.81393 17.0769 3.91659 17.0607 4.01802C17.0467 4.12386 17.0052 4.22424 16.9403 4.30925C16.8754 4.39426 16.7894 4.46096 16.6907 4.50275C16.3837 4.62119 16.0503 4.65511 15.7256 4.60092V3.10684C16.0767 3.03226 16.4425 3.06983 16.7708 3.21422C16.8672 3.25738 16.9482 3.32852 17.0033 3.41831C17.0583 3.5081 17.0847 3.61234 17.0791 3.71736M18.1213 3.45045C18.0926 3.20927 17.9926 2.982 17.834 2.7974C17.6753 2.61281 17.4652 2.4792 17.2302 2.41349C16.9585 2.32795 16.6764 2.27945 16.3916 2.2693C16.1941 2.25991 15.9962 2.26606 15.7996 2.28771C15.773 2.28467 15.7461 2.28467 15.7194 2.28771V1.1403H16.6444L17.6804 1.28756L17.7205 0.367188H14.5447L14.6711 1.52993V4.12846L14.5293 5.35564H14.7112C14.7112 5.35564 15.149 5.35564 15.3556 5.35564C15.4666 5.35564 15.5807 5.35563 15.6886 5.37098C15.8458 5.37098 15.9969 5.38938 16.1604 5.38938H16.2714C16.777 5.4032 17.2722 5.24402 17.6742 4.9384C17.874 4.75114 18.0199 4.51422 18.0968 4.25211C18.1738 3.99 18.1791 3.71219 18.1121 3.44739" fill="#111138"/>
<path d="M21.3056 3.00949C21.1391 3.00949 20.9727 3.00949 20.8 3.00949C20.6273 3.00949 20.4639 3.00949 20.3036 3.00949C20.4023 2.77019 20.5009 2.53703 20.6119 2.29467L20.837 1.76391L21.3056 3.00949ZM21.614 0.941711L21.4567 0.328125H20.4053L20.282 0.87115L19.0117 4.14462L18.4629 5.32884L19.5667 5.34418L19.7578 4.45142L20.023 3.77034H21.6047L21.9655 4.63549L22.1628 5.33191H23.5873L23.1063 4.51584L21.614 0.941711Z" fill="#111138"/>
<path d="M32.4545 5.34308L33.9036 5.32774L31.5973 2.72614L33.7556 0.351562H32.4853L32.1061 0.882316C32.1061 0.882316 31.1287 1.94688 30.5983 2.53285V1.25047L30.7463 0.36997H29.4143L29.4945 1.23819L29.5099 4.30612L29.4082 5.3308H30.7371L30.5921 4.31839V3.09122L32.4421 5.33387L32.4545 5.34308Z" fill="#111138"/>
<path d="M28.1924 3.85264C28.1924 3.5213 28.2109 1.27865 28.1924 1.27865L28.3065 0.382812H26.99L27.0979 1.24797V2.2972H25.2479C25.2156 1.72497 25.2622 1.15104 25.3866 0.591431L25.436 0.388948H24.067L24.0916 0.573025C24.0916 0.637448 24.178 1.32773 24.1904 1.64986C24.2058 2.31868 24.1904 2.99975 24.1904 3.66549V3.81275C24.1904 4.09807 24.1225 4.96323 24.0948 5.11969L24.0547 5.31297H25.3774L25.3527 5.13503C25.3527 5.02151 25.325 4.908 25.3127 4.79142C25.2787 4.53371 25.251 4.28828 25.2325 4.04285C25.214 3.79741 25.2325 3.53357 25.2325 3.28507V3.1102H27.1318V3.48141C27.1676 4.02898 27.1229 4.57881 26.9992 5.11355L26.9406 5.3191H28.3312L28.2972 5.12276C28.2238 4.70754 28.1887 4.2865 28.1924 3.86491" fill="#111138"/>
<path d="M44.1573 7.79399L44.1973 7.59766H41.3731L41.3946 7.78171C41.4995 8.62232 41.5673 9.41382 41.6136 10.1962C41.6475 10.7576 41.6413 11.3435 41.6321 11.8989C41.6321 12.0983 41.6321 12.2977 41.6321 12.5124H36.3474C36.3196 10.9785 36.3011 9.37704 36.705 7.81855L36.7574 7.61299H33.8438L33.8684 7.79705C33.8684 7.79705 34.0873 9.69304 34.115 10.5858C34.1675 12.3008 34.149 14.0525 34.1397 15.7491V16.1479C34.1397 16.8873 33.9609 19.1361 33.8838 19.5227L33.8438 19.7159H36.6557L36.6341 19.5349C36.5971 19.2282 36.5632 18.9489 36.5231 18.6575C36.443 18.0163 36.3566 17.3598 36.3227 16.7063C36.2887 16.0528 36.2949 15.3902 36.3042 14.749C36.3042 14.5127 36.3042 14.2795 36.3042 14.0433H41.6783C41.6783 14.4452 41.6783 14.8502 41.6783 15.246C41.6999 16.7217 41.7184 18.1145 41.333 19.5104L41.2744 19.722H44.1973L44.1573 19.5288C43.9681 18.4469 43.8752 17.3504 43.8797 16.2523C43.8797 15.3564 43.8797 11.3896 43.9198 10.2882C43.9348 9.45199 44.0142 8.6181 44.1573 7.79399Z" fill="#111138"/>
<path d="M26.9213 18.2481V13.953C28.2717 13.9929 30.8432 14.1923 30.874 14.1923H31.0497V12.2319L26.9213 12.4651V9.09036C28.1546 9.07191 30.4578 9.05969 31.6602 9.43397L31.8514 9.48919L31.8791 9.29591C31.9262 8.78591 31.9345 8.27314 31.9038 7.76191V7.60547H24.4238L24.4516 7.79569C24.6575 9.37602 24.7308 10.9707 24.6705 12.5632C24.6705 12.9252 24.6705 13.2842 24.6705 13.6524C24.6951 15.9625 24.4362 19.5029 24.4362 19.5366V19.7146L31.8576 19.7483V19.5888C31.8761 19.193 31.91 18.1376 31.9254 17.9904L31.9562 17.7664L31.7312 17.8125C30.1556 18.1222 28.5519 18.2682 26.9459 18.2481" fill="#111138"/>
<path d="M20.582 12.9348L20.6838 12.8734C21.359 12.4193 22.1299 11.7506 22.173 10.6123C22.2378 9.03851 21.3744 7.9279 19.8051 7.54445C18.3919 7.23301 16.9223 7.28473 15.5348 7.69473C14.7979 7.90029 14.6776 7.96779 14.6992 8.13962C14.7393 8.4464 14.804 8.81456 14.8657 9.16429C14.9119 9.41584 14.9582 9.67356 14.9921 9.92206C14.9991 9.96651 15.0184 10.0081 15.0478 10.0422C15.0772 10.0763 15.1156 10.1017 15.1586 10.1153C15.2022 10.1279 15.2484 10.1286 15.2923 10.1172C15.3363 10.1059 15.3764 10.083 15.4084 10.0509L15.5008 9.95584C15.8636 9.58184 16.3048 9.29201 16.7929 9.10695C17.2811 8.9219 17.8042 8.84618 18.3251 8.88512C18.6688 8.88334 19.0032 8.99584 19.2753 9.20484C19.5473 9.4139 19.7414 9.70734 19.8267 10.0387C20.024 10.959 19.6941 11.7444 18.9819 12.0604C18.5918 12.2225 18.1841 12.3388 17.767 12.4071C17.3076 12.4868 16.3981 12.5513 16.3857 12.5513H16.2254L16.2963 14.0852H16.4566C16.4566 14.0852 17.2737 14.0485 17.952 14.0485C18.2604 14.0485 19.2347 14.119 19.7342 14.4166C19.9484 14.5387 20.1347 14.7042 20.2807 14.9024C20.4267 15.1006 20.5294 15.327 20.582 15.5671C20.7146 16.2543 20.8349 17.8956 19.0404 18.2852C17.4988 18.6227 16.2162 18.2852 15.2727 17.2728L15.0137 16.9967L14.915 16.8955C14.8863 16.8646 14.8491 16.8426 14.8081 16.8322C14.7671 16.8219 14.7238 16.8236 14.6838 16.8372C14.6443 16.8511 14.6096 16.8757 14.5835 16.9083C14.5574 16.9408 14.5408 16.9799 14.5358 17.0212L14.4895 17.3986C14.4433 17.7698 14.4032 18.1196 14.3446 18.4632C14.3145 18.5928 14.3314 18.7288 14.3924 18.8473C14.4533 18.9657 14.5543 19.059 14.6776 19.1105C15.7348 19.6833 16.921 19.979 18.1247 19.9695C18.3621 19.9695 18.6026 19.9695 18.8431 19.9388C19.8036 19.8773 20.7227 19.5275 21.4793 18.9356C22.5492 18.0643 23.0209 17.0059 22.9161 15.791C22.7897 14.4074 21.9911 13.4563 20.5697 12.9593" fill="#111138"/>
<path d="M56.1558 14.4408V12.959C56.1558 11.241 56.1374 9.46769 56.4489 7.8018L56.483 7.60547H53.5722L53.6061 7.8018C53.7048 8.31725 53.7911 8.86641 53.862 9.43702C53.8792 9.50019 53.8797 9.56669 53.8635 9.63008C53.8473 9.69353 53.815 9.75169 53.7696 9.79902C52.8446 10.7839 51.9381 11.784 51.0655 12.7535C50.2639 13.6401 49.4437 14.5482 48.5989 15.4471C48.6174 14.6862 48.5989 13.9315 48.5989 13.1921C48.5588 11.3514 48.5249 9.58119 48.9905 7.81714L49.0429 7.61158H46.0645L46.1262 7.8233C46.3591 8.71391 46.4548 9.63452 46.4098 10.5537V11.4588C46.4098 13.0387 46.4098 14.6709 46.4098 16.2724C46.4098 16.5116 46.4098 16.7601 46.4098 16.9933C46.4318 17.4422 46.4246 17.8921 46.3882 18.3401C46.3513 18.6119 46.2988 18.8812 46.2309 19.147C46.2032 19.2728 46.1755 19.4047 46.1446 19.5305L46.1045 19.7299H48.9874L48.9596 19.5397C48.898 19.147 48.8579 18.7574 48.8147 18.3739C48.7931 18.1499 48.7716 17.9321 48.7408 17.7081C48.7332 17.6057 48.764 17.5041 48.8271 17.4228C49.6442 16.5424 50.455 15.6496 51.232 14.7783C52.1169 13.7996 53.0326 12.7811 53.9638 11.784V13.4499C53.9638 13.9898 53.9638 14.5329 53.9638 15.0605C53.9638 15.8705 53.9823 16.708 53.9484 17.5332C53.9145 17.9934 53.8548 18.4512 53.7696 18.9046C53.7356 19.1163 53.6955 19.328 53.6647 19.5397L53.637 19.7299H56.4953L56.4489 19.5489C56.1407 17.9444 56.1408 16.1742 56.1558 14.4592" fill="#111138"/>
<path d="M63.5032 9.21725C63.5009 9.18353 63.5009 9.14975 63.5032 9.11603L67.1781 9.58542L66.947 7.58203H57.7618L57.5586 9.58542L61.4926 9.11603V16.7644L61.1135 19.7218H63.8884L63.54 16.8134C63.5495 16.7644 63.5121 11.7207 63.5032 9.21725Z" fill="#111138"/>
</g>
</svg>
