<svg width="18" height="19" viewBox="0 0 18 19" fill="none" xmlns="http://www.w3.org/2000/svg">
<path d="M11.739 0C12.6033 0 13.3043 0.708882 13.3043 1.58333V5H12.5095L12.5216 1.58333C12.5216 1.14611 12.1712 0.791667 11.739 0.791667H1.56521C1.1331 0.791667 0.782603 1.14611 0.782603 1.58333V16.625C0.782603 17.0622 1.1331 17.4167 1.56521 17.4167H11.739C12.1712 17.4167 12.5216 17.0622 12.5216 16.625V14H13.3043V16.625C13.3043 17.4995 12.6033 18.2083 11.739 18.2083H1.56521L1.40548 18.1999C0.616279 18.1189 0 17.4449 0 16.625V1.58333C0 0.708882 0.700983 0 1.56521 0H11.739Z" fill="#505050"/>
<path d="M13.8798 12.518C13.8385 12.4763 13.8155 12.4197 13.8155 12.3606C13.8155 12.3017 13.8385 12.245 13.8798 12.2033L16.145 9.91145H10.2201C10.1618 9.91145 10.1057 9.88802 10.0645 9.84622C10.0232 9.8045 10 9.74782 10 9.68876C10 9.6297 10.0232 9.5731 10.0645 9.53137C10.1057 9.48957 10.1618 9.46614 10.2201 9.46614H16.145L13.8798 7.17425C13.8409 7.13205 13.8198 7.07622 13.8208 7.01854C13.8217 6.96086 13.8449 6.90582 13.8852 6.86503C13.9255 6.82423 13.9799 6.80086 14.0369 6.79984C14.094 6.79883 14.1492 6.82023 14.1909 6.85956L16.8322 9.53145C16.8734 9.57317 16.8966 9.62978 16.8966 9.68876C16.8966 9.74782 16.8734 9.80434 16.8322 9.84614L14.1909 12.518C14.1496 12.5597 14.0937 12.5831 14.0354 12.5831C13.977 12.5831 13.921 12.5597 13.8798 12.518Z" stroke="#505050" stroke-width="0.5"/>
</svg>
