<svg width="20" height="20" viewBox="0 0 20 20" fill="none" xmlns="http://www.w3.org/2000/svg">
<path d="M18.5938 8.75H16.2883L12.8586 5.32031C12.7572 5.21854 12.6366 5.13785 12.5039 5.08287C12.3711 5.0279 12.2288 4.99974 12.0852 5H3.30313C3.12308 4.99995 2.9458 5.04435 2.78703 5.12925C2.62825 5.21416 2.4929 5.33695 2.39297 5.48672L0.0781262 8.9586C0.0269785 9.0357 -0.000204759 9.12622 1.16132e-06 9.21875V12.9688C1.16132e-06 13.2588 0.115235 13.537 0.320353 13.7421C0.525471 13.9473 0.803671 14.0625 1.09375 14.0625H2.54688C2.65446 14.5923 2.94191 15.0687 3.36051 15.4108C3.7791 15.7529 4.30312 15.9399 4.84375 15.9399C5.38439 15.9399 5.9084 15.7529 6.327 15.4108C6.7456 15.0687 7.03304 14.5923 7.14063 14.0625H12.5469C12.6545 14.5923 12.9419 15.0687 13.3605 15.4108C13.7791 15.7529 14.3031 15.9399 14.8438 15.9399C15.3844 15.9399 15.9084 15.7529 16.327 15.4108C16.7456 15.0687 17.033 14.5923 17.1406 14.0625H18.5938C18.8838 14.0625 19.162 13.9473 19.3671 13.7421C19.5723 13.537 19.6875 13.2588 19.6875 12.9688V9.84375C19.6875 9.55367 19.5723 9.27547 19.3671 9.07035C19.162 8.86524 18.8838 8.75 18.5938 8.75ZM3.17344 6.00703C3.18768 5.98568 3.20697 5.96817 3.22958 5.95604C3.2522 5.94392 3.27746 5.93755 3.30313 5.9375H12.0852C12.1265 5.93768 12.1661 5.95425 12.1953 5.9836L14.9625 8.75H1.34453L3.17344 6.00703ZM4.84375 15C4.56562 15 4.29374 14.9175 4.06248 14.763C3.83122 14.6085 3.65098 14.3889 3.54455 14.1319C3.43811 13.8749 3.41026 13.5922 3.46452 13.3194C3.51878 13.0466 3.65271 12.7961 3.84938 12.5994C4.04605 12.4027 4.29662 12.2688 4.56941 12.2145C4.84219 12.1603 5.12494 12.1881 5.3819 12.2945C5.63886 12.401 5.85848 12.5812 6.01301 12.8125C6.16753 13.0437 6.25 13.3156 6.25 13.5938C6.25 13.9667 6.10184 14.3244 5.83812 14.5881C5.5744 14.8518 5.21671 15 4.84375 15ZM14.8438 15C14.5656 15 14.2937 14.9175 14.0625 14.763C13.8312 14.6085 13.651 14.3889 13.5445 14.1319C13.4381 13.8749 13.4103 13.5922 13.4645 13.3194C13.5188 13.0466 13.6527 12.7961 13.8494 12.5994C14.046 12.4027 14.2966 12.2688 14.5694 12.2145C14.8422 12.1603 15.1249 12.1881 15.3819 12.2945C15.6389 12.401 15.8585 12.5812 16.013 12.8125C16.1675 13.0437 16.25 13.3156 16.25 13.5938C16.25 13.9667 16.1018 14.3244 15.8381 14.5881C15.5744 14.8518 15.2167 15 14.8438 15ZM18.75 12.9688C18.75 13.0102 18.7335 13.0499 18.7042 13.0792C18.6749 13.1085 18.6352 13.125 18.5938 13.125H17.1406C17.033 12.5952 16.7456 12.1188 16.327 11.7767C15.9084 11.4346 15.3844 11.2477 14.8438 11.2477C14.3031 11.2477 13.7791 11.4346 13.3605 11.7767C12.9419 12.1188 12.6545 12.5952 12.5469 13.125H7.14063C7.03304 12.5952 6.7456 12.1188 6.327 11.7767C5.9084 11.4346 5.38439 11.2477 4.84375 11.2477C4.30312 11.2477 3.7791 11.4346 3.36051 11.7767C2.94191 12.1188 2.65446 12.5952 2.54688 13.125H1.09375C1.05231 13.125 1.01257 13.1085 0.983266 13.0792C0.953963 13.0499 0.937501 13.0102 0.937501 12.9688V9.6875H18.5938C18.6352 9.6875 18.6749 9.70396 18.7042 9.73327C18.7335 9.76257 18.75 9.80231 18.75 9.84375V12.9688Z" fill="#343330"/>
</svg>
