<svg width="311" height="269" viewBox="0 0 311 269" fill="none" xmlns="http://www.w3.org/2000/svg">
<g clip-path="url(#clip0_904_3586)">
<path d="M-10.1514 -32.3535H322.073V300.429H-10.1514V-32.3535Z" fill="#F7F7F7"/>
<path d="M222.835 0.322804L225.227 0.255859C225.051 22.7512 225.109 45.2475 225.401 67.7415C225.416 72.2871 224.987 104.405 225.748 106.345C227.425 104.507 228.69 104.164 229.975 101.976C231.997 98.5314 231.193 95.4343 231.774 91.6967C232.197 88.9766 233.032 86.1707 233.837 83.5361C234.051 82.8338 234.596 80.841 235.024 80.3333L235.222 80.413C235.394 81.5043 233.016 88.9317 232.687 90.8193C231.961 94.9927 232.685 99.5892 230.159 103.118C229.113 104.58 227.781 105.404 226.461 106.538C227.459 107.791 228.616 108.721 229.985 109.548C230.822 113.89 232.345 122.142 236.018 124.996C238.464 126.897 245.128 126.071 248.452 126.034C249.78 130.199 251.696 136.378 253.248 140.43C262.065 136.419 270.269 134.314 279.868 133.338C278.651 127.903 276.939 121.174 275.453 115.678C275.207 114.766 273.036 112.844 272.551 111.895C270.611 108.883 269.313 106.158 267.831 102.912C266.656 104.356 265.932 105.295 264.254 106.199L263.893 106.044L264.115 106.269L264.036 106.303L263.822 106.157C264.678 104.776 266.136 103.802 267.044 102.58C268.56 100.538 269.36 97.2282 268.77 94.7753C267.574 89.7959 261.672 89.858 259.613 94.1715C258.952 95.5569 258.796 96.4483 258.768 97.9617C255.343 97.226 251.875 94.1747 250.027 91.2996C249.513 90.5102 249.066 89.6795 248.688 88.8164C243.752 88.2958 240.477 86.8057 237.208 82.943C233.81 78.9291 233.26 73.9504 237.852 70.486C238.167 70.2485 238.213 70.113 238.028 69.7899C237.656 69.7629 237.474 69.8513 237.154 70.1458C235.366 71.7915 234.099 73.6536 233.99 76.1508C233.862 79.0932 234.78 79.8774 233.535 82.7567C230.935 81.7467 229.706 80.2882 228.642 77.9928C224.293 68.62 234.194 60.5029 243.058 61.3394C244.019 61.43 245.154 61.431 246.117 61.3615C247.907 60.939 249.646 60.029 251.361 59.3362C259.394 56.0909 272.047 56.5891 276.006 65.9538C276.122 66.233 276.227 66.5167 276.32 66.8043C290.82 69.0532 292.17 84.6956 286.315 95.4984C283.015 101.586 277.478 107.077 277.096 114.124C277.076 114.711 277.169 115.315 276.845 115.759L276.462 115.9C276.634 118.046 277.327 120.018 277.819 122.097C278.67 125.699 279.871 129.625 280.581 133.236C282.326 133.224 284.464 133.153 286.177 133.266C288.312 136.15 292.17 145.958 293.818 149.561C295.722 153.726 298.319 159.593 299.844 163.855C309.689 191.369 312.214 217.757 310.736 246.703C310.502 251.706 310.157 256.703 309.699 261.69C309.589 262.974 309.409 267.436 308.972 268.451L308.601 268.563L293.539 268.577C290.976 268.578 287.297 268.473 284.852 268.688L284.157 268.789C282.952 268.347 255.913 268.491 253.393 268.651C253.117 268.72 252.958 268.696 252.666 268.698C251.646 268.491 245.043 268.587 243.731 268.591L223.603 268.614L222.858 268.647C221.489 268.407 218.217 268.451 216.727 268.448L206.351 268.462L205.499 268.517C202.167 268.381 198.471 268.474 195.119 268.498L179.691 268.55L124.448 268.481C117.543 268.465 109.838 268.719 103.059 268.563L102.237 268.597C99.0132 268.593 95.6276 268.54 92.418 268.656C87.6938 268.802 82.6404 268.519 77.7968 268.621C77.0873 268.669 76.1815 268.646 75.4554 268.649C74.7199 268.702 73.2268 268.648 72.4349 268.644C71.3833 268.685 70.3315 268.705 69.2794 268.706L19.5377 268.712C19.5022 267.521 20.6495 261.597 20.9363 260.09L24.356 242.451C23.3885 241.74 23.5689 239.945 23.5362 238.799C23.3989 233.958 22.9963 229.151 22.8127 224.31C21.1853 224.386 19.3359 224.436 17.7211 224.336C15.969 224.234 13.2935 224.321 11.4814 224.326L-0.267741 224.372L-0.231403 223.525C-0.136213 222.662 -0.196721 221.183 -0.209082 220.27C-0.402188 203.685 -0.15104 186.964 -0.291392 170.349C-0.426521 169.414 -0.405984 167.421 -0.423828 166.404L-0.344178 165.469C-0.152111 162.8 -0.259694 159.229 -0.274456 156.498C3.21754 156.209 6.84219 155.675 10.3524 155.345C19.0808 154.527 27.8051 153.579 36.575 153.526C37.1152 152.824 40.6831 147.222 40.9452 146.582C40.5403 146.518 40.1364 146.446 39.7344 146.366C38.7812 146.175 37.5097 145.894 36.7473 145.324C30.1748 140.41 31.6961 127.199 33.3037 120.461C32.7807 119.771 32.7551 119.29 32.735 118.419C32.6107 112.975 32.6344 107.468 32.638 102.023L32.649 74.8691L32.6837 0.626015C33.3089 0.52527 34.0337 0.497322 34.6722 0.455074C34.9408 4.8664 34.7634 11.1519 34.7783 15.7033C38.2504 15.5255 42.4 15.6237 45.925 15.6217L66.13 15.625L128.982 15.532C128.72 11.1763 128.968 5.03571 128.863 0.3995C129.566 0.345878 130.278 0.380326 130.984 0.395275C131.11 5.34054 130.984 10.681 131.22 15.5203C134.104 15.4303 136.982 15.5444 139.869 15.5554L155.476 15.5759L188.277 15.6077C199.792 15.7455 211.31 15.7254 222.825 15.5476L222.835 0.322804Z" fill="black"/>
<path d="M222.836 0.322804L225.228 0.255859C225.051 22.7512 225.11 45.2475 225.402 67.7415C225.416 72.2871 224.987 104.405 225.748 106.345C225.759 106.457 225.807 106.899 225.799 106.994C225.13 108.435 225.378 121.237 225.361 123.895C225.209 134.718 225.191 145.542 225.309 156.365C225.321 157.892 225.688 159.144 223.753 159.001C223.317 158.607 223.188 158.386 223.174 157.758C223.005 149.934 223.254 142.062 223.09 134.244C218.521 134.198 186.566 133.875 184.858 134.751C184.16 134.283 182.605 132.952 181.879 132.369C179.957 131.161 176.039 126.985 173.926 128.048C172.64 129.469 173.562 130.639 174.465 131.892C175.095 132.552 175.718 133.219 176.334 133.893C172.87 134.404 163.738 134.186 159.927 134.175L131.118 134.178C131.032 136.56 131.02 138.977 131.059 141.36C131.162 147.655 130.969 153.99 131.123 160.281C130.369 160.058 129.609 159.856 128.844 159.676C125.171 158.54 120.196 157.606 116.383 156.969C99.3041 154.116 81.2481 153.504 63.9176 153.575C63.7875 154.382 63.3972 157.308 63.0569 157.789C63.2168 158.15 63.6519 159.035 63.7531 159.342C59.1117 154.943 55.5007 151.238 49.1391 149.063C47.3735 148.46 43.5091 147.431 42.0936 146.65L40.9454 146.582C40.5405 146.518 40.1366 146.446 39.7346 146.366C38.7814 146.175 37.5099 145.894 36.7475 145.324C30.175 140.41 31.6963 127.199 33.3039 120.461C32.7809 119.771 32.7553 119.29 32.7352 118.419C32.6109 112.975 32.6346 107.468 32.6382 102.023L32.6492 74.8691L32.6839 0.626015C33.3091 0.52527 34.0339 0.497322 34.6724 0.455074C34.941 4.8664 34.7636 11.1519 34.7785 15.7033C38.2506 15.5255 42.4002 15.6237 45.9252 15.6217L66.1303 15.625L128.982 15.532C128.72 11.1763 128.968 5.03571 128.863 0.3995C129.566 0.345878 130.278 0.380326 130.985 0.395275C131.11 5.34054 130.984 10.681 131.22 15.5203C134.104 15.4303 136.982 15.5444 139.87 15.5554L155.477 15.5759L188.277 15.6077C199.792 15.7455 211.31 15.7254 222.825 15.5476L222.836 0.322804Z" fill="#F3EFEE"/>
<path d="M34.784 76.8399C63.3764 76.0004 92.3494 77.1194 120.973 76.7073C123.535 76.6706 126.243 76.6784 128.806 76.7385L128.709 109.192C128.713 116.825 128.93 124.482 128.851 132.093C124.675 132.095 87.1733 132.4 86.6461 132.02C86.6231 132.004 86.6065 131.98 86.5867 131.96L85.9356 134.074C84.9801 136.241 84.1985 138.035 81.7945 139.006C79.259 140.03 75.2015 139.568 72.5921 139.029C67.8579 143.012 65.2173 147.534 63.9176 153.575C63.7875 154.382 63.3972 157.308 63.0569 157.789C63.2168 158.149 63.6519 159.034 63.7531 159.341C59.1117 154.942 55.5007 151.237 49.1391 149.063C47.3735 148.46 43.5091 147.431 42.0936 146.65L40.9454 146.582C40.5405 146.518 40.1366 146.446 39.7346 146.366C38.7814 146.175 37.5099 145.894 36.7475 145.324C30.175 140.41 31.6963 127.198 33.3039 120.461C33.8298 118.125 34.552 115.821 35.0669 113.468C34.9615 113.359 34.8557 113.249 34.7503 113.139C34.4249 110.018 34.5764 104.447 34.6335 101.486C34.773 93.271 34.8233 85.0555 34.784 76.8399Z" fill="#FFFEFE"/>
<path d="M35.0669 113.467C39.4634 96.9222 46.9229 83.8582 66.2866 85.2309C72.9938 85.7064 78.0858 87.1178 82.5043 92.4131C83.1013 93.2844 83.562 94.0201 84.1019 94.9294C85.0775 97.0503 85.859 98.9514 86.5608 101.196C87.4738 104.849 87.8839 108.609 87.7791 112.373C87.7437 113.871 87.5276 116.076 87.588 117.473C87.67 118.355 87.7602 119.333 88.1557 120.118C89.555 122.897 92.3789 123.831 88.0269 125.557C87.6253 127.708 87.1448 129.844 86.5867 131.959L85.9356 134.073C84.9801 136.24 84.1986 138.034 81.7945 139.005C79.259 140.029 75.2016 139.567 72.5921 139.028C67.8579 143.011 65.2173 147.533 63.9176 153.574C63.7875 154.381 63.3972 157.307 63.0569 157.788C63.2168 158.148 63.6519 159.033 63.7531 159.34C59.1117 154.941 55.5007 151.236 49.1391 149.062C47.3735 148.459 43.5091 147.43 42.0936 146.649L40.9454 146.581C40.5405 146.517 40.1366 146.445 39.7346 146.365C38.7814 146.174 37.5099 145.893 36.7475 145.323C30.175 140.409 31.6963 127.197 33.3039 120.46C33.8298 118.124 34.552 115.82 35.0669 113.467Z" fill="black"/>
<path d="M83.4791 95.8838C85.8657 101.66 87.2215 106.056 87.0577 112.469C87.0058 114.51 86.6661 117.133 86.9853 119.115C87.1755 120.294 88.9621 122.697 89.6428 123.694C89.5954 123.811 89.5481 123.927 89.5007 124.044C88.8275 124.547 88.261 124.613 87.4314 124.788C86.805 128.471 85.6785 135.196 82.6804 137.634C80.3613 139.52 75.0363 138.958 72.2623 138.135C66.8173 142.858 63.5823 148.685 62.926 155.964C62.8565 156.735 62.8475 157.027 63.0574 157.788C63.2173 158.149 63.6524 159.034 63.7536 159.341C59.1122 154.942 55.5012 151.237 49.1396 149.063C47.374 148.459 43.5096 147.43 42.0941 146.65C37.7765 142.423 36.0261 138.68 35.836 132.477C35.7471 129.568 37.163 121.05 38.3212 118.378L38.5765 118.227L38.5655 118.232C38.84 118.967 37.9913 122.395 37.7697 123.3C35.8039 131.325 35.7393 141.096 43.1946 146.57L55.4185 146.522C51.2536 140.878 50.7332 132.363 51.5943 125.597C51.7163 124.639 51.9583 123.795 52.3159 122.896L52.322 123.188C52.4304 129.456 51.0197 134.845 53.443 141.067C54.3069 143.285 54.5418 144.625 56.274 146.435C59.4996 146.421 62.901 146.252 65.8521 144.796C58.8578 137.533 61.443 132.758 63.5087 123.985C61.6253 123.418 60.7685 123.133 59.5408 121.208C57.1935 117.528 60.3941 109.048 65.4952 110.274C66.8682 110.604 68.1562 112.687 68.9943 113.89C74.2469 108.837 80.8853 102.704 83.4791 95.8838Z" fill="#FFFEFE"/>
<path d="M83.3415 109.369C84.1802 109.3 84.894 109.146 85.5257 109.743L85.5837 109.659L85.4306 109.526L85.5166 109.766C85.0289 110.133 82.6687 110.452 81.6785 110.785L81.4608 110.86C80.6503 111.174 80.3243 111.373 79.4538 111.323L79.2627 111.076C80.1393 110 82.0201 109.661 83.3415 109.369Z" fill="black"/>
<path d="M83.5693 115.752C84.0024 115.8 84.0134 115.759 84.3301 116.042C84.6399 116.959 84.5666 117.639 84.1701 118.528C83.5728 118.364 83.822 118.513 83.3954 118.064C83.0998 117.161 83.2072 116.636 83.5693 115.752Z" fill="black"/>
<path d="M82.5039 92.4141C93.8213 93.012 106.477 92.8053 115.021 101.919C119.107 106.277 120.102 111.275 120.251 117.077C118.017 117.025 115.783 116.989 113.55 116.968C112.408 106.507 100.123 107.527 99.1784 117.236C95.314 117.274 91.4503 117.353 87.5875 117.474C87.5272 116.077 87.7433 113.872 87.7786 112.374C87.8834 108.61 87.4733 104.85 86.5604 101.197C85.8586 98.9524 85.077 97.0512 84.1014 94.9304C83.5616 94.0211 83.1009 93.2853 82.5039 92.4141Z" fill="#FDA49A"/>
<path d="M84.1016 94.9301C85.7805 93.6087 91.5435 94.3484 93.835 94.6259C95.0186 94.7692 96.2005 94.9268 97.3805 95.0988C98.1978 97.3268 98.9359 99.9202 99.5134 102.23C95.6691 102.121 90.4206 101.616 86.5605 101.197C85.8587 98.9521 85.0771 97.0509 84.1016 94.9301Z" fill="#FFFEFE"/>
<path d="M105.691 111.875C108.339 111.535 110.77 113.39 111.143 116.038C111.517 118.686 109.696 121.143 107.057 121.551C105.32 121.82 103.573 121.132 102.484 119.75C101.395 118.368 101.132 116.507 101.796 114.876C102.46 113.246 103.948 112.1 105.691 111.875Z" fill="#FDA49A"/>
<path d="M105.505 113.265C107.385 113.151 109.065 113.53 109.764 115.563C110.054 116.399 109.993 117.316 109.595 118.106C109.044 119.196 108.156 119.697 107.042 120.043C102.173 120.407 101.259 115.498 105.505 113.265Z" fill="#FFFEFE"/>
<path d="M130.953 76.8209C140.207 76.5267 149.9 76.6704 159.201 76.6759L200.738 76.6535C208.022 76.6541 215.878 76.7929 223.115 76.5586L223.134 132.156C213.633 132.494 203.608 132.055 194.075 132.231C190.628 132.295 185.08 131.9 181.879 132.368C179.957 131.16 176.038 126.984 173.925 128.047C172.639 129.468 173.561 130.639 174.465 131.891C173.065 132.516 135.533 132.17 131.16 132.081L130.953 76.8209Z" fill="#FFFEFE"/>
<path d="M174.338 92.8331C180.396 92.2783 188.434 92.9273 194.588 93.1889C198.279 93.6042 202.147 97.2051 204.979 99.3305C210.29 103.316 218.883 109.457 215.078 117.169C212.875 117.298 209.654 117.182 207.376 117.168C207.221 116.213 207.042 115.503 206.68 114.618C204.701 109.773 198.094 109.47 195.237 113.655C194.384 114.905 194.174 115.717 193.789 117.143L178.266 117.133L157.343 117.156C156.955 115.722 156.646 114.73 155.731 113.495C152.693 109.393 146.433 110.038 144.087 114.499C143.5 115.614 143.462 116.01 143.28 117.263L137.418 117.302C136.906 116.069 136.573 115.351 136.472 113.982C136.317 111.862 137.025 109.769 138.433 108.179C142.7 103.391 152.849 103.205 158.582 101.097C159.206 100.867 160.64 99.0516 161.177 98.4601C164.784 94.4898 169.123 93.2133 174.338 92.8331Z" fill="#DB4431" fill-opacity="0.2"/>
<path d="M173.736 93.9705C175.414 93.8496 177.451 93.9016 179.158 93.9026C179.171 96.6006 179.158 99.2986 179.117 101.996C174.683 102.031 170.25 102.039 165.816 102.021C163.883 102.027 162.018 102.042 160.085 101.951C164.078 96.6922 166.846 94.4212 173.736 93.9705Z" fill="#FFFEFE"/>
<path d="M180.295 93.8986C183.058 93.8788 187.945 93.573 190.288 94.5645C193.278 95.8303 195.624 98.9902 196.797 101.939C191.96 102.207 185.206 102.009 180.288 102.015L180.295 93.8986Z" fill="#FFFEFE"/>
<path d="M149.276 112.848C150.974 112.506 152.724 113.107 153.856 114.421C154.987 115.734 155.324 117.556 154.737 119.189C154.151 120.821 152.732 122.01 151.024 122.3C148.439 122.739 145.981 121.018 145.504 118.436C145.027 115.854 146.706 113.366 149.276 112.848Z" fill="#F8D9D5"/>
<path d="M149.504 113.903C150.258 113.879 150.758 113.843 151.458 114.145C152.482 114.579 153.281 115.419 153.664 116.465C154.557 118.937 153.032 120.231 150.917 120.977C145.751 121.348 144.882 115.874 149.504 113.903Z" fill="#FFFEFE"/>
<path d="M199.658 112.728C202.252 112.178 204.798 113.842 205.34 116.442C205.881 119.041 204.213 121.587 201.617 122.123C199.03 122.656 196.5 120.993 195.96 118.404C195.421 115.814 197.075 113.276 199.658 112.728Z" fill="#F8D9D5"/>
<path d="M199.743 113.995C201.621 113.497 203.548 114.607 204.062 116.483C204.576 118.359 203.485 120.299 201.617 120.831C199.725 121.37 197.757 120.26 197.237 118.36C196.716 116.46 197.842 114.499 199.743 113.995Z" fill="#FFFEFE"/>
<path d="M85.936 134.073C99.965 134.338 114.713 134.014 128.838 134.053L128.844 159.676C125.171 158.539 120.197 157.605 116.383 156.968C99.3045 154.115 81.2485 153.503 63.918 153.574C65.2177 147.533 67.8583 143.011 72.5925 139.028C75.2019 139.567 79.2594 140.029 81.7948 139.005C84.1989 138.034 84.9805 136.24 85.936 134.073Z" fill="#FFFEFE"/>
<path d="M34.861 17.7659C46.3636 17.959 58.1943 17.7594 69.7251 17.7432L128.85 17.8576L128.729 49.5977C128.655 57.8464 128.65 66.0958 128.715 74.3445C127.192 74.5203 121.381 74.3799 119.551 74.3806L99.7801 74.3809L34.7663 74.43C34.6459 69.6336 34.7403 64.5134 34.7572 59.693L34.7922 37.3364L34.778 24.6881C34.7731 22.8655 34.6732 19.4737 34.861 17.7659Z" fill="#FFFEFE"/>
<path d="M73.9656 36.4399C74.5879 36.4181 75.2101 36.4019 75.8327 36.3911C83.5346 36.2654 92.226 36.3476 99.9155 37.1633C104.39 38.8431 109.462 42.9688 113.275 45.5082C118.799 49.187 121.07 54.275 121.101 60.4607C118.461 60.4717 115.82 60.4604 113.18 60.4263C112.339 50.5078 99.5044 51.8285 99.1008 60.4769L86.451 60.4474L60.2432 60.434C60.0371 58.9752 59.8665 57.9193 59.0538 56.622C58.0516 55.012 56.4281 53.8899 54.5694 53.5226C49.9319 52.6432 46.7404 55.8846 46.0668 60.269L38.8432 60.2628C38.6884 48.3681 51.3055 46.0662 60.7743 45.2466C65.1944 42.1677 67.7172 36.8916 73.9656 36.4399Z" fill="#DB4431" fill-opacity="0.2"/>
<path d="M74.2677 37.4197C76.9362 37.3255 79.7033 37.3573 82.3812 37.3547C82.4244 40.0505 82.4185 42.7468 82.364 45.4422C78.6713 45.5108 74.742 45.4455 71.0392 45.4286C68.263 45.437 65.1396 45.5131 62.3926 45.3766C65.6824 41.909 69.4455 37.8701 74.2677 37.4197Z" fill="#FFFEFE"/>
<path d="M83.3799 37.373C87.6664 37.4029 91.9522 37.5099 96.2348 37.6941C97.4242 39.6047 99.0658 43.3547 100.063 45.5116C98.2596 45.6114 96.0375 45.5051 94.1905 45.495L83.4188 45.459L83.3799 37.373Z" fill="#FFFEFE"/>
<path d="M105.572 55.6506C108.206 55.3315 110.601 57.207 110.927 59.8442C111.252 62.4811 109.387 64.8853 106.755 65.2191C104.113 65.5545 101.701 63.6764 101.374 61.0291C101.047 58.3814 102.928 55.971 105.572 55.6506Z" fill="#F8D9D5"/>
<path d="M105.252 56.9416C107.15 56.4586 109.088 57.5743 109.626 59.4605C110.165 61.3467 109.109 63.32 107.243 63.915C105.985 64.3164 104.609 64.0005 103.652 63.0909C102.694 62.1813 102.306 60.8222 102.639 59.5427C102.972 58.2636 103.973 57.2669 105.252 56.9416Z" fill="#FFFEFE"/>
<path d="M51.9404 55.8396C53.608 55.4123 55.3766 55.918 56.5676 57.163C57.7583 58.408 58.1872 60.1993 57.6898 61.8502C57.1921 63.5008 55.845 64.7549 54.1654 65.1319C51.6218 65.7022 49.0919 64.1222 48.4842 61.5834C47.8762 59.0446 49.4153 56.487 51.9404 55.8396Z" fill="#F8D9D5"/>
<path d="M52.6431 56.8045C54.6352 56.5367 56.4708 57.926 56.7576 59.9188C57.0448 61.9116 55.676 63.764 53.6894 64.0711C51.675 64.3828 49.7939 62.988 49.5029 60.9672C49.2119 58.9462 50.6228 57.0759 52.6431 56.8045Z" fill="#FFFEFE"/>
<path d="M139.91 17.7728L222.808 17.8196C222.958 20.737 222.883 23.7768 222.888 26.7114C222.907 32.0821 222.896 37.4528 222.857 42.8235C222.869 53.3347 222.939 63.846 223.069 74.3563C220.455 74.4693 217.413 74.4024 214.766 74.4053L130.914 74.3732C130.759 66.6509 131.07 58.4565 131.122 50.7089L131.202 17.8134C134.105 17.7783 137.007 17.7647 139.91 17.7728Z" fill="#FFFEFE"/>
<path d="M168.487 36.2612C173.888 36.0067 180.343 36.3782 185.833 36.3102C189.007 36.2712 193.428 36.1669 196.491 36.6281C197.978 36.852 201.252 38.8991 202.546 39.8812C208.184 44.1596 215.02 49.0522 216.534 56.4387C216.698 57.2408 216.894 59.3987 216.322 59.8764C215.293 60.7356 210.649 60.4217 209.119 60.423C208.932 58.6359 208.934 57.5437 207.811 55.9119C206.796 54.4563 205.24 53.4693 203.493 53.171C198.499 52.2949 195.574 55.7907 194.841 60.3583C191.429 60.2348 186.945 60.3977 183.458 60.4302C174.469 60.4744 165.481 60.4724 156.492 60.4243C156.232 59.1471 156.041 58.3158 155.418 57.1878C152.525 51.9553 144.949 52.6211 142.609 57.9778C142.221 58.8676 142.071 59.632 141.866 60.567C140.18 60.5563 136.281 60.8897 135.079 60.1513C133.208 59.0028 135.16 53.8788 136.106 52.4856C139.441 47.5742 146.126 46.6866 151.533 45.7799C152.917 45.5476 154.662 45.8998 155.976 45.2073C158.667 43.521 161.06 40.9516 163.697 39.1145C165.286 38.0073 166.547 36.6537 168.487 36.2612Z" fill="#DB4431" fill-opacity="0.36"/>
<path d="M168.832 37.4076C172.197 37.2912 175.75 37.3556 179.13 37.3657C179.152 39.7738 178.862 43.1978 178.722 45.6384L168.371 45.6261C164.819 45.6345 161.268 45.6189 157.717 45.5793C159.892 43.6313 166.217 37.9536 168.832 37.4076Z" fill="#FFFEFE"/>
<path d="M182.642 37.2681C185.481 37.2584 189.3 37.1397 192.031 37.374C193.587 39.8537 195.025 43.0398 196.458 45.7102L194.091 45.7794L179.911 45.743C179.929 42.9309 180.243 40.1497 180.313 37.3204L182.642 37.2681Z" fill="#FFFEFE"/>
<path d="M201.413 55.4288C204.045 55.069 206.473 56.9071 206.845 59.5421C207.217 62.1767 205.394 64.6176 202.766 65.0037C200.118 65.3924 197.661 63.5507 197.286 60.8972C196.911 58.2438 198.762 55.7911 201.413 55.4288Z" fill="#F2BAB4"/>
<path d="M201.421 56.4473C203.406 56.1263 205.285 57.4515 205.652 59.4326C206.019 61.4137 204.74 63.3259 202.772 63.74C201.457 64.0162 200.095 63.5576 199.214 62.5411C198.334 61.5246 198.071 60.1102 198.53 58.8447C198.988 57.5793 200.094 56.6618 201.421 56.4473Z" fill="#FFFEFE"/>
<path d="M147.923 56.106C150.393 55.4249 152.951 56.857 153.665 59.3214C154.379 61.7854 152.985 64.3674 150.535 65.1168C148.919 65.6108 147.164 65.1958 145.94 64.0304C144.715 62.8647 144.212 61.1296 144.623 59.4884C145.034 57.8476 146.295 56.5551 147.923 56.106Z" fill="#F2BAB4"/>
<path d="M149.064 56.9761C151.019 56.9199 152.66 58.4434 152.75 60.4008C152.841 62.3585 151.35 64.0279 149.397 64.1537C148.103 64.2369 146.865 63.6142 146.159 62.5249C145.453 61.4355 145.388 60.0495 145.99 58.899C146.593 57.7489 147.768 57.0138 149.064 56.9761Z" fill="#FFFEFE"/>
<path d="M223.604 268.613C223.789 260.121 224.29 251.843 224.775 243.461C226.457 214.368 230.146 184.984 242.877 158.419C245.504 152.938 248.371 147.047 252.113 142.224C253.031 141.053 256.889 139.675 258.439 139.091C266.535 136.044 276.64 133.632 285.33 133.907C285.499 133.912 285.668 133.919 285.836 133.927C287.252 136.42 288.484 139.212 289.61 141.851C292.677 149.04 296.11 156.086 298.824 163.419C307.825 187.744 310.926 212.631 310.248 238.469C309.982 247.087 309.484 255.697 308.753 264.288C308.676 265.226 308.337 267.928 308.601 268.563L293.539 268.576C290.977 268.578 287.297 268.472 284.853 268.687L284.157 268.788C282.953 268.346 255.914 268.49 253.393 268.65C253.117 268.719 252.958 268.695 252.666 268.698C251.647 268.49 245.044 268.586 243.731 268.59L223.604 268.613Z" fill="black"/>
<path d="M284.157 268.789C284.001 267.435 284.479 261.955 284.592 260.344C284.915 255.767 285.171 251.186 285.36 246.602C285.955 232.647 285.981 218.672 285.437 204.715C285.312 201.347 285.159 197.981 284.977 194.617C284.914 193.409 284.533 190.285 285.062 189.33L285.274 189.326C285.681 190.403 285.89 197.341 285.966 199.054C286.666 214.23 286.75 229.428 286.217 244.611C285.921 252.767 285.352 260.568 284.853 268.688L284.157 268.789Z" fill="black"/>
<path d="M252.666 268.698C252.229 247.479 251.021 226.283 249.044 205.152C248.784 202.498 248.501 199.846 248.195 197.197C248.093 196.355 247.529 193.951 247.91 193.395L248.282 193.403C248.655 193.842 249.002 198.053 249.102 198.901C250.673 212.912 251.786 226.97 252.438 241.054C252.81 247.621 253.07 254.195 253.217 260.771C253.275 263.226 253.436 266.239 253.393 268.651C253.117 268.719 252.958 268.695 252.666 268.698Z" fill="black"/>
<path d="M280.964 145.481C282.463 145.369 286.859 145.209 288.122 145.554L288.22 145.772L288.063 145.539L288.249 145.758C287.411 146.279 284.275 146.062 283.208 146.104C272.525 146.522 261.225 148.372 251.65 153.389C250.467 154.051 248.356 155.74 247.283 155.995L247.14 155.76C247.351 155.212 249.659 153.643 250.246 153.312C259.478 148.106 270.517 146.162 280.964 145.481Z" fill="black"/>
<path d="M42.0934 146.65C43.5089 147.431 47.3733 148.459 49.1389 149.063C55.5005 151.237 59.1115 154.942 63.7529 159.341C64.3654 160.041 64.8664 160.536 65.2891 161.369C65.5071 161.886 65.425 161.867 65.8098 162.201C66.0833 163.194 66.6144 165.376 67.4109 166C67.6932 167.055 71.0245 171.938 72.0562 173.669C78.5284 184.528 85.5782 196.886 85.0883 209.969C85.0552 210.845 86.046 219.055 86.2261 219.559C86.2478 220.527 86.1404 222.397 86.7987 223.077C86.983 223.267 87.5679 223.254 87.9018 223.288C87.2591 223.336 87.0709 223.225 86.7049 223.566L86.7166 224.007C88.2155 238.74 90.6777 253.825 92.418 268.656C87.6938 268.801 82.6404 268.518 77.7968 268.62C77.0873 268.668 76.1815 268.646 75.4554 268.649C74.7199 268.702 73.2268 268.648 72.4348 268.644C71.3833 268.684 70.3315 268.705 69.2794 268.705L19.5377 268.711C19.5022 267.52 20.6495 261.597 20.9363 260.09L24.356 242.45C23.3885 241.74 23.5689 239.945 23.5362 238.799C23.3989 233.957 22.9963 229.151 22.8127 224.309C21.1853 224.385 19.3359 224.436 17.7211 224.336C15.969 224.233 13.2935 224.32 11.4814 224.325L-0.267741 224.371L-0.231403 223.524C-0.136213 222.662 -0.196721 221.182 -0.209082 220.27C-0.402188 203.685 -0.15104 186.963 -0.291392 170.349C-0.426521 169.414 -0.405984 167.42 -0.423828 166.404L-0.344178 165.469C-0.152111 162.799 -0.259694 159.228 -0.274456 156.498C3.21754 156.209 6.84219 155.674 10.3524 155.345C19.0808 154.527 27.8051 153.579 36.575 153.526C37.1152 152.823 40.683 147.222 40.9452 146.582L42.0934 146.65Z" fill="#FEA79C"/>
<path d="M41.0473 214.28C40.79 203.465 39.1464 173.145 46.4781 165.458C49.0119 162.801 52.876 161.051 56.5483 161.005C59.8154 160.964 63.0796 162.437 65.3737 164.738C71.0702 170.454 72.6236 181.535 72.5727 189.248C72.5068 199.247 70.9378 209.059 69.6268 218.941C72.0951 224.149 72.3147 230.599 72.219 236.32C74.7483 236.536 77.6225 236.723 80.1006 237.109C79.4164 241.849 78.8106 246.618 77.6144 251.262C77.388 252.141 76.9805 253.593 76.9844 254.447C77.0045 259.156 77.8185 263.902 77.7971 268.62C77.0875 268.668 76.1817 268.646 75.4556 268.649C74.7201 268.702 73.227 268.647 72.4351 268.643C71.3836 268.684 70.3318 268.704 69.2796 268.705L19.5379 268.711C19.5024 267.52 20.6497 261.596 20.9365 260.09L24.3562 242.45C24.7264 240.493 25.7925 234.331 26.4709 232.833C26.8895 232.436 26.9647 232.475 27.707 232.51C29.7267 232.605 31.9069 232.758 33.9067 233.037C35.15 227.008 36.6411 218.625 41.0473 214.28Z" fill="black"/>
<path d="M41.6253 233.449C42.0513 226.873 41.8521 220.571 41.7194 213.987C41.5487 204.087 41.2823 193.88 42.0934 184.027C42.5097 178.969 43.1174 170.963 46.1249 166.951C50.6447 160.923 60.5738 159.596 65.4919 165.949C72.7756 175.359 72.2756 188.397 71.3863 199.633C70.2161 211.515 68.2474 223.937 66.048 235.545L65.3511 235.58C60.749 235.403 55.1787 234.518 50.522 234.109C48.0637 233.893 43.8019 233.787 41.6253 233.449Z" fill="#FEA79C"/>
<path d="M26.4709 232.833C27.2574 233.471 33.1657 233.784 35.1344 234.21L35.1477 234.486L35.4673 234.608L35.611 234.16C39.1247 234.923 46.565 235.486 50.3139 235.843C54.7464 236.266 60.8737 236.935 65.2575 237.057L65.2715 237.714L65.4684 237.909L65.7173 237.198C70.3162 237.4 74.227 237.669 78.7584 238.253C77.8221 241.154 68.5759 267.452 69.1709 268.633L69.2796 268.705L19.5379 268.711C19.5024 267.52 20.6497 261.597 20.9365 260.09L24.3562 242.45C24.7264 240.494 25.7925 234.332 26.4709 232.833Z" fill="white"/>
<path d="M35.1471 234.485L35.4667 234.608C34.9995 236.397 35.6584 235.707 36.2268 237.233C36.3147 237.642 36.0873 238.622 35.744 238.854C34.0693 239.99 32.6629 238.6 33.06 236.827C33.836 235.524 34.5449 236.944 35.1471 234.485Z" fill="#FFFEFE"/>
<path d="M65.2715 237.714L65.4685 237.909C65.278 238.627 65.2053 238.348 65.4383 238.852C65.9632 238.998 66.361 239.043 66.7458 239.416C67.0011 240.204 66.714 240.965 66.0619 241.453C65.4201 241.933 63.9864 242.253 63.8025 241.146C63.5789 239.8 64.5399 238.72 65.2715 237.714Z" fill="#FFFEFE"/>
<path d="M41.0769 216.791C41.2313 222.327 41.17 227.867 40.8929 233.399C39.4667 233.341 37.2829 232.807 36.0575 233.22C35.8745 233.282 35.708 233.902 35.6114 234.159L35.4676 234.608L35.1481 234.485L35.1348 234.209C36.6622 228.423 38.3697 222.085 41.0769 216.791Z" fill="#FEA79C"/>
<path d="M74.9237 263.483C75.0356 265.077 75.1375 267.117 75.4561 268.649C74.7206 268.702 73.2275 268.648 72.4355 268.644C73.4776 266.763 74.1998 265.522 74.9237 263.483Z" fill="#FBADCE"/>
<path d="M65.3512 235.581L66.0481 235.546C65.9485 236.09 65.8606 236.668 65.7175 237.198L65.4687 237.909L65.2718 237.715L65.2578 237.057L65.3512 235.581Z" fill="#FE6A87"/>
<path d="M68.9445 222.724C70.4009 224.263 70.1348 233.675 70.1377 236.17C69.3964 236.11 68.6479 236.009 67.9085 235.919C67.2694 235.872 67.2811 235.884 66.6916 235.649C66.6796 234.834 67.3408 231.954 67.5354 230.915C68.0214 228.187 68.4909 225.457 68.9445 222.724Z" fill="#FEA79C"/>
<path d="M-0.274456 156.498C3.21754 156.209 6.84219 155.675 10.3524 155.345C19.0808 154.527 27.8051 153.579 36.575 153.526C35.4301 155.431 34.3653 157.403 33.2469 159.321C32.9533 159.825 32.0121 161.564 31.7029 161.93C31.567 162.333 31.5686 162.446 31.3272 162.789C30.4224 164.345 29.9896 165.737 29.2709 166.98C28.6659 169.366 27.1212 172.236 26.2978 174.676C22.1591 186.937 21.4923 199.665 22.2002 212.495C22.2598 213.581 22.6407 219.658 22.4431 220.124C21.9435 220.27 21.9198 220.266 21.3962 220.292C22.3601 220.411 22.6741 220.31 22.7011 221.574C22.715 222.232 22.6365 222.898 22.6388 223.561L22.7374 223.978C22.0895 224.469 18.8131 224.306 17.7211 224.336C15.969 224.234 13.2935 224.321 11.4814 224.326L-0.267741 224.372L-0.231403 223.525C-0.136213 222.662 -0.196721 221.183 -0.209082 220.27C-0.402188 203.685 -0.15104 186.964 -0.291392 170.349C-0.426521 169.414 -0.405984 167.421 -0.423828 166.404L-0.344178 165.469C-0.152111 162.8 -0.259694 159.229 -0.274456 156.498Z" fill="black"/>
<path d="M-0.274456 156.498C3.21754 156.209 6.84219 155.675 10.3524 155.345C19.0808 154.527 27.8051 153.579 36.575 153.526C35.4301 155.431 34.3653 157.403 33.2469 159.321C32.9533 159.825 32.0121 161.564 31.7029 161.93C31.567 162.333 31.5686 162.446 31.3272 162.789C30.4224 164.345 29.9896 165.737 29.2709 166.98C19.2638 167.742 9.60638 168.417 -0.291392 170.349C-0.426521 169.414 -0.405984 167.421 -0.423828 166.404L-0.344178 165.469C-0.152111 162.8 -0.259694 159.229 -0.274456 156.498Z" fill="#DB4431"/>
<path d="M-0.423828 166.404C1.92326 165.796 7.21656 165.097 9.64135 164.806C16.721 163.957 24.2233 163.093 31.3272 162.788C30.4224 164.344 29.9896 165.737 29.2709 166.979C19.2638 167.741 9.60638 168.417 -0.291392 170.348C-0.426521 169.414 -0.405984 167.42 -0.423828 166.404Z" fill="#DB4431"/>
<path d="M31.7029 161.93C31.567 162.332 31.5686 162.445 31.3272 162.788C24.2233 163.093 16.721 163.957 9.64135 164.806C7.21656 165.097 1.92326 165.796 -0.423828 166.403L-0.344178 165.468C3.06281 165.062 6.57979 164.387 10.0905 163.969C17.2833 163.173 24.4884 162.493 31.7029 161.93Z" fill="black"/>
<path d="M-0.208919 220.269C4.82133 220.21 9.85194 220.187 14.8826 220.199C16.3606 220.201 20.1698 220.117 21.3963 220.291C22.3602 220.41 22.6743 220.31 22.7012 221.574C22.7152 222.231 22.6367 222.897 22.6389 223.56L22.7376 223.977C22.0897 224.468 18.8133 224.306 17.7213 224.336C15.9692 224.233 13.2936 224.32 11.4815 224.325L-0.267578 224.371L-0.231241 223.524C-0.13605 222.661 -0.196558 221.182 -0.208919 220.269Z" fill="#DB4431"/>
<path d="M-0.231241 223.523C7.39517 223.638 15.0266 223.486 22.6389 223.56L22.7376 223.976C22.0897 224.468 18.8133 224.305 17.7213 224.335C15.9692 224.232 13.2936 224.319 11.4815 224.324L-0.267578 224.37L-0.231241 223.523Z" fill="black"/>
<path d="M90.2891 162.864C97.9721 163.301 108.666 164.417 116.151 165.871C144.068 171.054 169.674 184.836 189.397 205.295C190.921 206.878 194.398 210.636 195.547 212.294C196.284 213.356 198.509 219.047 199.014 220.457C200.139 223.593 202.123 227.337 203.058 230.298C203.408 231.405 203.996 237.1 204.133 238.357C205.244 248.37 205.701 258.444 205.5 268.517C202.168 268.381 198.471 268.474 195.12 268.497L179.691 268.549L124.449 268.481C117.544 268.465 109.839 268.718 103.06 268.563C103.076 264.209 102.864 259.399 102.626 255.036C102.023 244.039 101.548 234.381 97.6282 224.062L168.51 224.212C170.991 227.732 173.3 229.928 177.487 231.31C183.205 233.197 193.642 230.867 195.511 224.426C196.478 224.418 197.023 224.495 197.88 224.047L197.819 223.853C197.127 223.452 196.596 223.543 195.782 223.545C195.173 221.84 194.791 221.239 193.739 219.771C195.47 219.901 196.363 220.219 198.009 220.73C197.088 219.649 195.977 218.657 195.058 217.588C173.062 192.015 142.796 173.721 109.216 168.914C105.105 168.326 100.334 167.694 96.1059 167.64L102.326 219.654C123.61 219.438 145.371 219.677 166.688 219.695C167.001 221.057 167.461 222.21 168.011 223.487C163.697 223.536 159.141 223.407 154.794 223.398L118.725 223.395C111.513 223.388 104.369 223.268 97.1529 223.394C94.7589 203.23 92.4712 183.053 90.2891 162.864Z" fill="#DB4431"/>
<path d="M112.798 239.846C117.13 239.808 122.05 239.603 126.302 240.04C127.8 240.194 129.166 243.247 126.139 244.516C123.777 244.658 114.573 244.901 112.744 244.291C112.048 244.058 111.385 243.671 111.064 242.981C110.847 242.516 110.89 242.012 111.057 241.54C111.404 240.562 111.884 240.259 112.798 239.846Z" fill="black"/>
<path d="M225.798 106.993C226.978 108.308 228.006 109.128 229.435 110.172C230.114 114.473 231.872 122.909 235.619 125.594C238.393 127.581 244.409 126.714 247.784 126.716C248.4 128.144 248.954 129.753 249.401 131.252C250.34 134.399 251.563 137.573 252.416 140.734C250.471 142.635 248.828 145.481 247.467 147.859C236.555 166.932 230.315 188.412 227.22 210.088C222.656 200.501 217.75 191.082 212.509 181.849C210.324 178.022 208.608 174.535 205.867 171.059C204.505 169.332 203.179 164.534 202.47 162.34L198.875 151.257C198.32 149.564 197.11 145.518 196.1 144.204C193.511 140.835 188.235 137.488 184.857 134.751C186.566 133.875 218.52 134.198 223.089 134.243C223.254 142.061 223.004 149.934 223.173 157.757C223.187 158.385 223.316 158.606 223.753 159.001C225.687 159.144 225.32 157.891 225.309 156.364C225.191 145.541 225.208 134.717 225.361 123.895C225.377 121.237 225.13 108.435 225.798 106.993Z" fill="#FFFEFE"/>
<path d="M176.334 133.893C177.924 135.614 179.621 137.394 181.169 139.143L181.116 139.301C180.877 140.049 180.86 140.283 180.795 141.067C179.22 143.202 176.844 142.641 177.536 147.385C177.566 147.591 177.599 147.797 177.633 148.002C176.478 148.771 176.133 149.399 175.697 150.727C176.224 152.64 178.541 159.245 180.062 160.658C182.435 162.863 183.294 164.871 185.237 167.442C186.353 168.812 187.838 170.041 188.748 171.585C189.985 174.013 191.23 179.105 191.626 181.811C189.431 182.943 186.309 184.653 184.088 185.474C181.659 184.331 175.923 180.119 173.06 178.44C160.448 171.05 145.414 163.609 131.123 160.281C130.969 153.99 131.162 147.655 131.059 141.36C131.019 138.977 131.031 136.559 131.118 134.178L159.927 134.174C163.738 134.186 172.87 134.403 176.334 133.893Z" fill="#FFFEFE"/>
<path d="M63.9174 153.575C81.2479 153.504 99.3039 154.115 116.382 156.968C120.196 157.606 125.171 158.539 128.843 159.676C129.609 159.856 130.369 160.057 131.123 160.28C145.414 163.609 160.448 171.049 173.06 178.44C175.924 180.118 181.659 184.33 184.088 185.474C185.187 188.715 187.046 191.491 188.382 194.498C190.569 199.42 193.226 205.341 194.944 210.401C192.403 207.166 189.098 203.807 186.18 200.94C177.389 192.345 167.387 185.087 156.493 179.398C135.301 168.157 118.131 164.397 94.6427 162.453C84.8774 161.68 75.0842 161.318 65.2891 161.369C64.8664 160.536 64.3654 160.041 63.7529 159.341C63.6517 159.034 63.2166 158.149 63.0566 157.788C63.397 157.307 63.7873 154.382 63.9174 153.575Z" fill="#DB4431"/>
<path d="M65.8105 162.202C71.8652 161.841 83.1177 162.427 89.3664 162.812C90.3183 167.944 90.7702 174.904 91.399 180.272L96.3298 223.275C94.6677 223.301 89.3482 223.481 87.9025 223.289C87.5687 223.254 86.9837 223.268 86.7994 223.077C86.1412 222.398 86.2485 220.528 86.2268 219.559C86.0467 219.055 85.0559 210.845 85.089 209.97C85.5789 196.886 78.5292 184.529 72.057 173.67C71.0252 171.938 67.6939 167.056 67.4116 166.001C66.6152 165.377 66.084 163.194 65.8105 162.202Z" fill="#DB4431"/>
<path d="M67.4111 166C73.5232 166.028 78.7454 166.223 84.8575 166.537C85.481 171.261 85.8963 176.47 86.3791 181.241L88.6722 203.743C89.1751 208.96 89.6092 214.173 90.3197 219.367C88.9577 219.475 87.5925 219.538 86.2263 219.559C86.0462 219.054 85.0554 210.845 85.0885 209.969C85.5784 196.885 78.5287 184.528 72.0564 173.669C71.0247 171.938 67.6934 167.055 67.4111 166Z" fill="black"/>
<path d="M86.7168 224.007C89.9216 224.134 93.3668 224.062 96.5908 224.048C101.684 234.352 102.259 256.808 102.238 268.596C99.0133 268.593 95.6278 268.539 92.4182 268.656C90.6779 253.825 88.2157 238.74 86.7168 224.007Z" fill="#DB4431"/>
<path d="M204.101 231.73C208.583 238.648 214.28 246.044 222.786 247.878C223.098 247.945 223.412 248.008 223.726 248.068C223.185 254.719 222.996 261.975 222.858 268.646C221.489 268.406 218.217 268.45 216.727 268.447L206.351 268.461C206.409 255.316 205.882 244.777 204.101 231.73Z" fill="#DB4431"/>
<path d="M206.871 173.815C206.882 173.824 206.893 173.832 206.902 173.842C209.16 176.296 226.57 209.033 226.772 211.594C226.982 214.245 225.856 220.48 225.553 223.525C224.747 231.414 224.139 239.321 223.731 247.241C218.737 246.406 215.635 244.246 212.078 240.745C204.635 233.396 201.444 224.797 197.729 215.32C194.894 208.086 192.278 200.743 188.873 193.75C187.595 191.125 186.313 188.577 185.17 185.886C192.652 182.328 199.901 178.296 206.871 173.815Z" fill="black"/>
<path d="M191.917 188.13C192.441 187.897 193.05 187.965 193.51 188.307C193.971 188.65 194.212 189.214 194.141 189.784C194.07 190.354 193.699 190.842 193.169 191.061C192.364 191.394 191.441 191.017 191.098 190.215C190.756 189.413 191.12 188.484 191.917 188.13Z" fill="black"/>
<path d="M192.217 188.748C192.646 188.573 193.138 188.76 193.343 189.176C193.548 189.592 193.397 190.096 192.997 190.331C192.712 190.498 192.357 190.492 192.078 190.314C191.799 190.137 191.642 189.818 191.671 189.489C191.701 189.159 191.912 188.873 192.217 188.748Z" fill="#FFFEFE"/>
<path d="M174.584 128.419C174.801 128.439 174.78 128.43 175.029 128.496C176.937 129.003 182.155 133.519 183.919 134.913C186.997 137.343 192.484 141.094 194.881 143.885C197.368 146.78 201.874 163.677 203.709 168.421C204.341 170.059 205.434 171.644 206.249 173.215C201.458 176.446 197.459 178.871 192.324 181.43C191.862 178.877 190.634 172.594 189.067 170.686C186.629 167.717 184.763 165.782 182.74 162.229C182.844 161.103 183.214 159.87 183.506 158.763C183.806 157.512 185.261 152.37 186.028 151.642C187.166 152.667 186.198 160.001 188.139 162.049C188.887 162.837 189.789 165.205 191.238 165.636C191.288 165.563 191.338 165.489 191.387 165.417C190.85 164.325 188.93 162.085 188.424 161.069C187.245 158.706 187.377 155.375 187.426 152.864C187.303 152.687 187.185 152.506 187.073 152.321C186.774 151.819 186.421 150.89 186.092 150.292C184.919 148.158 182.556 143.888 183.185 141.39C183.584 140.892 183.339 141.042 183.925 140.89C187.102 141.539 191.53 153.643 193.525 153.693L193.627 153.421C193.13 152.317 191.97 150.653 191.298 149.546C189.721 146.95 188.291 144.177 186.453 141.765C185.463 140.468 184.749 140.121 183.183 139.93C181.099 137.694 175.71 132.796 174.13 130.052C173.877 129.613 174.312 128.866 174.584 128.419Z" fill="#FFFEFE"/>
<path d="M176.348 210.788C178.947 210.518 181.776 211.213 184.059 212.439C187.805 214.452 193.63 219.232 194.947 223.374C194.767 224.124 194.521 225.143 194.126 225.793C192.524 228.422 188.904 229.888 186.064 230.635C185.72 230.714 185.374 230.787 185.028 230.854C177.186 232.341 169.239 227.455 167.477 219.428C166.36 214.342 172.036 211.375 176.348 210.788Z" fill="#DB4431"/>
<path d="M180.389 142.434C181.341 145.821 182.844 148.755 183.803 152.094C184.246 153.635 184.067 155.8 182.131 156.136C180.819 154.436 178.067 147.832 178.417 145.459C178.647 143.906 179.216 143.335 180.389 142.434Z" fill="#FFFEFE"/>
<path d="M274.513 72.7383C275.591 73.5189 276.116 76.0677 276.419 77.3196C277.908 83.4731 276.131 94.22 272.61 99.4607L272.432 99.3164C272.395 99.0177 274.552 93.9054 274.812 93.0738C275.568 90.6972 276.066 88.2449 276.294 85.7607C276.563 82.7591 276.373 79.7342 275.73 76.7902C275.445 75.487 274.404 73.7207 274.513 72.7383Z" fill="#FFFEFE"/>
<path d="M177.899 148.767C178.696 150.029 180.789 155.724 180.221 156.981L179.734 156.822C178.444 155.301 176.681 152.64 176.704 150.571C176.713 149.763 177.338 149.248 177.899 148.767Z" fill="#FFFEFE"/>
<path d="M271.616 68.0996L271.607 68.3021C271.295 68.7187 270.848 68.8233 270.36 69.0398C264.037 71.8415 261.831 75.3942 259.47 81.5487C258.92 80.4275 260.502 77.4666 261.104 76.3701C263.418 72.1531 266.981 69.3664 271.616 68.0996Z" fill="#FFFEFE"/>
<path d="M248.929 74.9297C249.196 75.0496 249.061 74.9619 249.31 75.2277C249.291 79.0381 249.871 82.7767 252.285 85.8387C252.967 86.7025 254.118 87.8751 254.593 88.7704C250.938 88.1039 247.996 78.4307 248.929 74.9297Z" fill="#FFFEFE"/>
<path d="M181.36 141.968L181.987 142.048C182.449 142.57 182.247 143.597 182.471 144.461C182.793 145.707 183.868 147.461 183.858 148.621C182.763 147.133 181.477 143.864 181.36 141.968Z" fill="#FFFEFE"/>
<path d="M-0.267838 224.371L11.4813 224.325C13.2934 224.32 15.9689 224.233 17.721 224.336C19.3358 224.436 21.1852 224.385 22.8126 224.309C22.9962 229.151 23.3988 233.957 23.5361 238.799C23.5688 239.945 23.3885 241.74 24.3559 242.45L20.9362 260.09C20.6494 261.597 19.5021 267.52 19.5376 268.711C12.9802 268.802 6.19312 268.687 -0.391221 268.694C-0.435085 253.92 -0.393979 239.145 -0.267838 224.371Z" fill="#DB4431"/>
<path d="M237.428 96.2168C239.054 96.5197 238.574 99.1936 238.184 100.282C236.475 99.9031 237.054 97.3575 237.428 96.2168Z" fill="black"/>
<path d="M239.152 112.4C239.546 112.659 239.431 112.485 239.526 112.93C238.566 114.406 236.365 114.397 234.876 113.844C234.708 113.217 234.64 113.448 234.832 112.998C236.88 113.696 237.442 113.512 239.152 112.4Z" fill="black"/>
<path d="M82.5445 128.976C82.15 129.235 82.2649 129.06 82.1705 129.505C83.1301 130.981 85.3318 130.972 86.8206 130.419C86.988 129.792 87.0562 130.024 86.8647 129.573C84.8159 130.272 84.2543 130.087 82.5445 128.976Z" fill="black"/>
</g>
<defs>
<clipPath id="clip0_904_3586">
<rect width="311" height="269" fill="white"/>
</clipPath>
</defs>
</svg>
