<svg width="269" height="269" viewBox="0 0 269 269" fill="none" xmlns="http://www.w3.org/2000/svg">
<g clip-path="url(#clip0_904_3710)">
<path d="M0 0H268.999V195.661V196.339V268.999H0V215.178V214.642V0Z" fill="#1B1A1B"/>
<path d="M0 0H268.999V195.661C267.928 195.38 265.902 194.601 264.76 194.189L256.982 191.386C248.202 188.277 239.438 185.121 230.692 181.917C231.051 179.498 232.002 176.568 232.417 173.746C234.146 161.985 233.855 150.015 231.558 138.352C226.793 114.374 212.727 93.2577 192.437 79.6207L192.434 74.2291C192.43 70.6788 192.549 68.0679 189.971 65.2313C186.207 61.0902 180.926 62.4399 175.769 62.2794C172.612 62.5072 167.875 62.3574 164.563 62.3656L143.022 62.4265L113.074 62.5135C108.859 62.5192 103.733 62.6924 99.6469 62.5481C93.2272 62.7115 86.7938 62.5342 80.3783 62.6254C75.3761 62.6963 67.8204 61.448 65.3889 67.2181C64.0208 67.8653 63.5737 68.3618 62.7517 69.643C59.5618 70.408 59.9469 71.185 59.5166 73.3746C59.4142 73.895 56.0806 74.9838 55.9887 76.2219C54.8961 78.6251 55.2999 81.3894 55.2631 83.9943C55.2066 87.9841 55.3692 92.0146 55.2697 96.0065C54.0946 97.6242 52.6356 99.2153 51.4301 100.837C49.6656 103.211 48.0889 105.692 46.5721 108.229C34.7403 128.102 30.1891 151.471 33.6985 174.331C34.7598 181.023 36.141 187.707 38.7015 194.005C39.002 194.744 39.3023 195.488 39.561 196.242C29.105 201.145 18.6599 206.096 8.16484 210.911C5.4314 212.166 2.76623 213.452 0 214.642V0Z" fill="#F7F7F7"/>
<path d="M99.6465 62.5477C100.372 61.8644 108.921 59.1615 110.373 58.7801C125.177 54.8901 139.266 55.2345 154.1 58.7381C156.109 59.1983 158.093 59.7621 160.044 60.4275C161.117 60.7979 164.31 62.0662 165.172 62.1515C168.388 62.4704 172.577 61.9427 175.768 62.2789C172.611 62.5067 167.875 62.357 164.562 62.3651L143.022 62.426L113.073 62.513C108.859 62.5188 103.733 62.6919 99.6465 62.5477Z" fill="#F7F7F7"/>
<path d="M268.999 196.34V269H0V215.178C2.02204 215.561 6.90614 217.499 9.11724 218.293L30.0097 225.929L101.989 252.185L123.72 260.204C125.869 260.982 130.014 262.67 132.063 263.218L174.558 242.398L232.299 214.411L256.984 202.355C260.933 200.398 265.048 198.204 268.999 196.34Z" fill="#F7F7F7"/>
<path d="M192.437 79.6211C212.728 93.2581 226.793 114.374 231.558 138.353C233.855 150.016 234.146 161.985 232.418 173.746C232.002 176.569 231.052 179.498 230.692 181.918C227.164 180.45 221.526 178.607 217.852 177.335C219.216 169.835 220.618 162.343 222.058 154.858C222.624 151.899 223.185 148.939 223.785 145.988C223.945 145.203 223.506 144.872 222.76 145.009C218.173 145.856 213.454 146.571 208.907 147.602C209.4 143.498 210.392 139.398 210.994 135.31C211.069 134.803 210.98 134.69 210.675 134.319C210.016 133.978 202.482 135.651 201.151 135.897C201.38 134.401 202.626 127.442 202.506 126.4L202.241 126.206C200.809 125.937 193.037 127.651 191.102 128.03C191.455 125.388 191.837 122.749 192.248 120.115C192.487 118.564 192.777 116.962 192.879 115.393C192.888 115.264 192.68 114.887 192.584 114.783C192.325 114.506 192.447 114.077 192.386 113.725C192.424 110.086 192.403 106.423 192.405 102.787L192.437 79.6211Z" fill="#F7F7F7"/>
<path d="M39.5606 196.243C39.3018 195.488 39.0016 194.745 38.701 194.005C36.1406 187.708 34.7593 181.023 33.698 174.331C30.1887 151.471 34.7399 128.102 46.5716 108.23C48.0884 105.692 49.6651 103.212 51.4297 100.838C52.6352 99.2157 54.0942 97.6245 55.2692 96.0068C55.0798 106.717 55.2655 117.664 55.264 128.386L55.2219 188.856C53.3116 189.947 50.5494 191.105 48.504 192.047L39.5606 196.243Z" fill="#F7F7F7"/>
<path d="M59.6983 74.6272C59.9389 74.6111 60.1796 74.5991 60.4205 74.5912C68.2666 74.3855 77.0813 74.5883 84.9808 74.5888L132.928 74.5872L157.991 74.5602L165.316 74.5426C166.609 74.5402 168.664 74.4924 169.899 74.6364C172.21 74.9287 174.364 75.9611 176.04 77.5791C180.383 81.7672 179.214 87.0048 179.363 92.4602C179.39 93.4285 179.357 94.4186 179.355 95.3898C179.324 102.541 179.348 109.692 179.427 116.842C171.805 118.38 102.116 130.745 101.282 131.455C100.438 132.174 99.5727 139.392 99.3573 140.764C98.7897 140.817 98.181 140.904 97.6112 140.975C96.0752 141.298 94.4103 141.255 92.8436 141.242L86.4225 141.182C81.6275 141.138 78.3034 141.077 74.6464 144.665C70.3064 148.923 70.867 153.512 70.8789 158.958L70.8944 172.016L70.8219 219.156C67.3706 219.057 63.8239 219.22 60.4494 219.197C57.2219 219.175 56.1997 218.01 56.1924 215.065C56.174 207.842 56.2029 200.292 56.2087 193.114L56.1926 150.106L56.1987 96.062C56.2284 90.506 56.2302 84.9513 56.18 79.3956C56.1564 76.7849 57.3406 75.4704 59.6983 74.6272Z" fill="#F7F7F7"/>
<path d="M82.4011 102.202C83.4532 102.186 84.1698 102.589 84.6445 103.545C84.6537 104.111 84.7238 103.855 84.4191 104.339C83.9644 104.662 83.5018 104.564 82.9128 104.547L80.3623 104.549C80.759 103.198 81.054 102.661 82.4011 102.202Z" fill="#F7F7F7"/>
<path d="M217.629 178.29C225.789 181.016 234.281 184.241 242.395 187.197L267.279 196.076C265.713 197.007 263.709 197.911 262.071 198.767C257.767 201.019 253.368 203.007 249.018 205.171C233.78 212.712 218.482 220.134 203.128 227.434L154.215 251.297C147.058 254.79 139.074 259.032 131.879 262.19C129.036 261.317 124.717 259.574 121.843 258.519L99.8597 250.42L32.4783 225.825C22.4819 221.999 12.2538 218.565 2.28418 214.737C3.48793 214.023 6.94478 212.496 8.3435 211.845L20.4209 206.257L55.2137 189.988C55.4864 196.239 55.1712 202.968 55.2838 209.252C55.3282 211.72 55.1467 214.53 55.4034 216.989C55.5218 217.7 55.9566 218.391 56.4526 218.877C58.07 220.464 60.8916 220.035 63.0625 220.028L70.8779 220.003C71.2058 222.351 71.9363 224.497 73.9367 225.989C75.0359 226.817 76.3633 227.286 77.7385 227.333C79.2487 227.376 83.5669 226.397 85.2586 226.083C89.4877 225.315 93.7232 224.582 97.9644 223.884C97.9686 226.315 97.9583 228.745 97.9336 231.175C97.9258 232.591 97.8622 234.051 98.0448 235.486C98.5047 239.099 101.652 242.427 105.453 242.198C106.992 242.105 108.742 241.665 110.28 241.39C112.073 241.07 113.882 240.709 115.679 240.371C122.988 239.005 130.291 237.599 137.585 236.155L183.285 227.449C191.964 225.8 200.836 223.978 209.522 222.467C210.354 216.855 211.672 210.575 212.699 204.907C214.252 196.019 215.896 187.145 217.629 178.29Z" fill="#F7F7F7"/>
<path d="M202.093 149.906L202.263 149.923C202.536 150.483 201.043 157.477 200.832 158.615L197.949 174.187L188.159 225.585L128.881 236.953L128.633 236.942C128.411 236.341 129.397 232.134 129.559 231.171C130.627 224.976 131.743 218.79 132.908 212.613L138.059 185.094C139.483 177.16 140.981 169.239 142.551 161.333C162.217 157.285 182.348 153.765 202.093 149.906Z" fill="#F7F7F7"/>
<path d="M141.159 161.596L141.363 161.597C141.612 162.076 139.919 169.923 139.68 171.201L135.986 191.204L127.563 237.152C121.048 238.552 114.231 239.741 107.663 240.989L107.491 240.975C107.173 240.326 112.463 212.983 112.893 210.663L121.138 165.556C127.471 164.155 134.758 162.794 141.159 161.596Z" fill="#F7F7F7"/>
<path d="M222.429 145.964L222.69 145.992C222.835 146.462 220.47 158.188 220.212 159.543L212.639 199.885L209.723 215.976C209.362 217.866 209.062 219.811 208.633 221.678L189.469 225.329L189.279 225.283C189.152 224.962 189.28 224.485 189.345 224.124L203.455 149.566L222.429 145.964Z" fill="#F7F7F7"/>
<path d="M191.062 115.629C191.453 115.559 191.433 115.561 191.828 115.62C192.002 115.966 190.303 126.931 190.129 128.192C187.934 128.652 185.7 129.146 183.488 129.511C182.503 129.674 181.652 129.41 180.724 129.581L100.866 144.463C100.367 144.586 100.329 144.591 99.8147 144.607L99.7217 144.479C100.075 140.829 101.064 135.758 101.731 132.11L161.232 121.147L178.903 117.904C182.84 117.158 187.134 116.249 191.062 115.629Z" fill="#F7F7F7"/>
<path d="M186.25 124.689C186.451 124.691 186.342 124.668 186.566 124.799L186.464 124.957C185.631 125.293 183.788 125.532 182.829 125.697C181.21 125.977 179.594 126.278 177.982 126.6C168.89 128.363 159.217 130.306 150.13 131.802C149.943 131.705 150.031 131.778 149.897 131.55C150.267 131.241 153.13 130.876 153.843 130.748L161.711 129.287C169.866 127.75 178.085 126.131 186.25 124.689Z" fill="#1B1A1B"/>
<path d="M135.996 133.881C136.388 133.812 136.372 133.793 136.752 133.891L136.722 134.047C136.062 134.361 129.04 135.58 127.859 135.799L105.7 139.958C105.314 140.029 105.311 140.066 104.952 139.935L104.976 139.755C105.612 139.404 117.449 137.362 118.867 137.103L135.996 133.881Z" fill="#1B1A1B"/>
<path d="M186.897 120.88L187.252 120.921L187.217 121.083C186.546 121.415 181.437 122.305 180.21 122.542L157.424 126.84L157.139 126.766L157.277 126.566C158.119 126.194 165.075 124.976 166.351 124.738L186.897 120.88Z" fill="#1B1A1B"/>
<path d="M129.794 131.256C130.392 131.193 130.141 131.127 130.61 131.332L130.527 131.499C128.922 131.906 125.839 132.342 124.023 132.692L106.969 135.946C106.539 136.041 106.494 136.092 106.077 135.943L105.988 135.754C106.353 135.522 127.704 131.614 129.794 131.256Z" fill="#1B1A1B"/>
<path d="M119.113 142.05C119.118 142.055 119.125 142.058 119.128 142.064C119.476 142.931 117.431 153.173 117.094 154.914C115.157 155.244 113.221 155.584 111.287 155.935C107.568 156.602 104.511 156.975 101.657 159.747C99.947 161.408 98.534 163.955 98.1161 166.301C97.7869 168.15 97.9141 170.915 97.9274 172.858C97.9558 175.918 97.9674 178.978 97.9621 182.038L97.9361 223.02C92.4009 223.828 85.9044 225.096 80.3731 226.135L80.215 226.067C80.0702 225.765 80.1443 225.587 80.2008 225.249C82.5012 212.257 84.8854 199.279 87.3532 186.317C89.7802 173.107 92.1185 159.881 94.3674 146.639C95.4437 146.306 100.94 145.324 102.397 145.081C107.855 144.174 113.692 142.84 119.113 142.05Z" fill="#F7F7F7"/>
<path d="M209.695 135.187L209.921 135.232C210.013 135.575 208.041 146.51 207.853 147.81C205.186 148.234 202.175 148.959 199.464 149.481L179.026 153.415C160.854 156.892 142.443 160.302 124.323 164.023L124.075 164.009C123.789 163.267 125.927 152.25 126.3 150.79C154.127 145.742 181.926 140.541 209.695 135.187Z" fill="#F7F7F7"/>
<path d="M160.627 152.808C160.693 152.892 160.653 152.828 160.664 153.032C159.477 153.714 132.465 158.637 129.41 159.134L129.317 158.924C129.634 158.559 132.039 158.29 132.65 158.171C135.151 157.669 137.655 157.182 140.161 156.71L160.627 152.808Z" fill="#1B1A1B"/>
<path d="M203.545 144.779C203.929 144.747 203.777 144.69 204.066 144.841C203.545 145.335 194.657 146.813 193.278 147.071L173.989 150.731C173.604 150.775 173.745 150.803 173.399 150.668L173.445 150.501C173.911 150.25 178.23 149.53 179.151 149.351C187.27 147.763 195.402 146.239 203.545 144.779Z" fill="#1B1A1B"/>
<path d="M204.451 140.448L204.73 140.469L204.743 140.649C204.026 141.156 182.662 145.103 180.144 145.479L179.927 145.47L179.877 145.301C180.537 144.868 201.907 140.904 204.451 140.448Z" fill="#1B1A1B"/>
<path d="M151.637 150.425C151.835 150.433 151.729 150.405 151.935 150.567C151.466 151.062 146.192 151.929 145.228 152.114L130.589 154.865C130.434 154.87 130.366 154.838 130.209 154.801L130.206 154.617C130.759 154.168 149.162 150.944 151.637 150.425Z" fill="#1B1A1B"/>
<path d="M123.534 156.204C123.91 156.154 123.801 156.162 124.181 156.209C124.369 156.724 123.283 163.219 123.164 164.365C122.122 164.483 121.423 164.631 120.456 165.026C120.126 166.154 119.589 169.737 119.354 171.046L116.997 184.227L109.325 225.248C107.294 225.652 104.907 226.007 102.967 226.562C102.779 230.854 102.432 235.822 104.343 239.678C103.916 239.412 103.473 239.078 103.062 238.781C100.333 236.238 100.531 234.256 100.567 230.789C100.583 229.296 100.586 227.748 100.59 226.251L100.6 209.189L100.535 181.215L100.55 172.815C100.556 171.229 100.515 169.144 100.65 167.587C100.801 166.006 101.341 164.487 102.223 163.166C104.802 159.22 109.377 158.906 113.612 158.105C116.926 157.506 120.234 156.872 123.534 156.204Z" fill="#DB4431"/>
<path d="M73.5437 215.244C73.4034 211.185 73.4914 206.551 73.4914 202.459L73.4898 178.438L73.5101 161.94C73.5156 158.968 73.452 155.896 73.6291 152.906C73.8692 148.847 77.6882 144.525 81.7613 143.968C85.0011 143.526 88.6689 143.9 91.9736 143.811C92.8617 143.787 98.6006 143.653 98.9421 144.105L98.8514 144.503C97.9462 145.534 95.0056 145.153 94.0725 145.92C93.2001 146.636 92.8323 150.783 92.6264 151.955L90.5148 163.771C87.7452 179.366 84.8797 194.943 81.9192 210.502C80.0183 210.95 77.6514 211.16 75.837 211.745C75.7884 212.663 75.8029 213.761 75.7905 214.693C75.9092 217.48 75.345 220.589 76.7289 222.822C77.2682 223.692 77.9141 224.307 78.3484 225C73.3763 223.419 73.2324 219.782 73.5437 215.244Z" fill="#DB4431"/>
<path d="M75.5922 218.234C75.578 217.288 75.47 215.526 75.7905 214.692C75.9092 217.48 75.345 220.589 76.7289 222.821C77.2682 223.691 77.9141 224.306 78.3484 225C73.3763 223.418 73.2324 219.781 73.5437 215.244C73.8618 215.923 73.7578 217.412 73.7509 218.247L75.5922 218.234Z" fill="#DB4431"/>
<path d="M181.188 130.472C181.528 130.405 181.504 130.401 181.841 130.477C182.003 131.155 180.63 138.578 180.41 139.834C174.234 141.137 167.503 142.258 161.264 143.386L141.544 147.074L131.231 148.958C129.714 149.237 126.94 149.677 125.536 150.097C125.161 151.343 125.054 152.29 124.859 153.569C122.898 153.852 120.861 154.224 118.9 154.555C118.527 154.627 118.463 154.688 118.125 154.553C118.023 153.769 120.069 143.322 120.341 141.83C124.042 141.226 128.14 140.313 131.881 139.622L163.873 133.752C169.604 132.682 175.462 131.412 181.188 130.472Z" fill="#F7F7F7"/>
<path d="M62.4094 70.6966C62.6555 70.6832 62.878 70.6732 63.1255 70.6719L139.272 70.674L163.221 70.7026L170.521 70.6968C174.708 70.6934 177.76 70.3911 180.948 73.5875C182.26 74.8831 183.149 76.5457 183.497 78.3562C183.93 80.4977 183.756 88.611 183.752 91.1957L183.751 116.062L181.533 116.411L180.346 116.619L180.319 95.0928C180.318 93.7289 180.343 92.3547 180.317 90.9918C180.235 86.6658 180.835 82.5872 178.281 78.791C176.622 76.3151 174.075 74.5703 171.167 73.9172C169.272 73.4885 163.973 73.6629 161.719 73.6676L144.752 73.6905L76.5686 73.7081C72.1927 73.7047 65.5013 73.7312 60.9507 73.6351C60.6777 73.6293 60.5514 73.3191 60.4395 73.1021C60.456 71.9628 61.3431 71.0189 62.4094 70.6966Z" fill="#F7F7F7"/>
<path d="M137.796 67.1819L174.442 67.1138C178.486 67.0873 181.793 66.7017 184.9 69.787C187.791 72.6593 187.439 76.0715 187.438 79.7915L187.432 87.4007L187.438 115.399C186.614 115.502 185.456 115.757 184.616 115.917C184.486 107.503 184.674 98.9824 184.607 90.5741C184.583 87.6161 184.8 80.4748 184.27 77.9319C183.893 76.0688 182.966 74.3618 181.609 73.0308C177.799 69.2196 173.727 69.9165 168.769 69.9126L159.561 69.8897L63.9326 69.8774C64.0837 69.3714 64.2594 69.0189 64.4801 68.5371C65.3378 68.0882 66.7613 67.4769 67.7023 67.4272C70.1968 67.2954 72.7944 67.3269 75.2939 67.3179L89.4111 67.2728L137.796 67.1819Z" fill="#DB4431"/>
<path d="M178.16 64.6886C181.776 64.5762 185.298 63.9489 188.134 66.8099C190.537 69.2338 190.087 71.7567 190.085 74.9132L190.08 82.9464L190.075 114.884L188.131 115.275C188.012 105.849 188.202 96.062 188.219 86.6026L188.224 79.8564C188.235 76.0292 188.561 72.109 185.59 69.1678C182.327 65.9383 178.468 66.3515 174.273 66.3959C171.789 66.4195 169.305 66.4219 166.821 66.4027C154.406 66.3455 141.99 66.3683 129.574 66.4715L68.5283 66.5911C71.1802 64.7525 72.2972 65.0777 75.3831 65.0651L82.2901 65.0401L105.083 64.9532L178.16 64.6886Z" fill="#BF311F"/>
<path d="M201.455 127.066L201.527 127.115C201.603 127.392 200.322 135.139 200.171 136.118C198.607 136.356 196.719 136.815 195.109 137.114L181.696 139.609C181.683 139.598 181.665 139.59 181.655 139.575C181.219 138.864 182.673 131.945 182.908 130.599C188.637 129.38 195.685 127.961 201.455 127.066Z" fill="#F7F7F7"/>
<path d="M113.96 98.0337C116.537 97.9598 119.295 97.9404 121.857 98.1665C127.135 98.6323 129.004 104.845 125.757 109.2C124.467 110.93 123.092 111.648 121.242 112.331C118.169 113.378 112.307 112.893 108.789 113.058C109.384 110.434 110.228 107.676 110.896 105.056C111.489 102.73 112.059 100.33 112.764 98.0493L113.96 98.0337ZM122.071 103.145C121.28 101.416 118.429 101.765 116.865 101.811C116.222 104.281 115.594 106.755 114.98 109.234C116.65 109.294 118.461 109.443 120.025 108.729C121.769 107.681 123.049 105.282 122.071 103.145Z" fill="#DB4431"/>
<path d="M104.794 98.0307C106.362 97.9555 108.457 97.9763 110.027 98.0486C109.452 100.64 108.745 103.054 108.053 105.602C107.374 108.103 106.722 110.563 106.012 113.058C105.146 113.031 101.558 113.097 101.099 113.016C99.4808 110.706 98.0775 108.15 96.4261 105.86C95.7316 108.188 95.0965 110.688 94.4581 113.044C92.7045 113.027 90.7101 112.965 88.9775 113.043C90.3048 108.181 91.5457 102.832 93.0414 98.0714C94.7542 98.0816 96.467 98.0671 98.1795 98.028L98.293 98.0454C98.704 98.493 99.5142 99.8372 99.8922 100.43L102.873 105.142C103.554 103.001 104.133 100.29 104.794 98.0307Z" fill="#DB4431"/>
<path d="M148.428 97.9834C150.434 98.0016 152.489 98.0062 154.493 97.9883C156.355 97.9716 157.532 98.1097 159.029 98.6924C159.816 98.9984 160.494 99.5526 160.896 100.294C161.704 101.779 161.841 103.12 161.449 104.781C161.126 106.148 160.349 107.39 159.24 108.253C157.846 109.338 156.544 109.699 154.447 109.911C154.041 110 151.226 109.971 150.618 109.982L149.806 113.044C148.103 113.038 146.4 113.043 144.697 113.058C146.008 108.055 147.251 103.03 148.428 97.9834ZM157.039 104.373C157.517 101.211 153.693 101.773 152.097 101.818L150.889 106.733C152.408 106.764 154.155 106.935 155.563 106.289C156.149 105.88 156.907 105.245 157.039 104.373Z" fill="#DB4431"/>
<path d="M132.382 98.0093L145.936 97.9834C145.58 99.2571 145.211 100.566 144.983 101.872L136.773 101.956L136.304 103.605C138.813 103.622 141.322 103.624 143.831 103.61C143.539 104.922 143.279 106.128 142.892 107.413C140.7 107.387 138.509 107.394 136.318 107.435C135.963 107.428 135.646 107.374 135.346 107.555C135.05 107.882 134.986 108.558 134.882 109.053L143.324 109.051C143.046 110.27 142.585 111.835 142.25 113.058C138.241 112.84 132.69 113.004 128.601 113.025C129.785 108.142 131.084 102.829 132.382 98.0093Z" fill="#DB4431"/>
<path d="M84.3299 97.9834L90.2162 97.9962C88.7848 102.914 87.5184 108.086 86.1378 113.058C84.2264 113.021 82.215 112.979 80.3105 113.048C81.6906 108.098 82.9918 102.96 84.3299 97.9834Z" fill="#DB4431"/>
</g>
<defs>
<clipPath id="clip0_904_3710">
<rect width="269" height="269" fill="white"/>
</clipPath>
</defs>
</svg>
