<svg width="162" height="110" viewBox="0 0 162 110" fill="none" xmlns="http://www.w3.org/2000/svg">
<rect width="162" height="110" rx="12" fill="#F7F7F7"/>
<g clip-path="url(#clip0_476_3865)">
<path d="M28 0H138V56.2458V63.8571V110H28V76.7954V73.9V0Z" fill="#F3E4E2"/>
<path d="M28 0H138V56.2458C137.705 55.5821 137.587 54.0663 137.439 53.3039C137.145 51.8303 136.724 50.3848 136.183 48.9832C135.825 48.0594 135.404 47.0094 134.957 46.1314C132.735 41.84 129.395 38.2283 125.29 35.6772C123.276 34.4298 120.937 33.3127 118.742 32.4013C101.475 25.2308 83.3063 14.3861 64.2321 22.1532C60.9123 23.5406 57.8 25.3799 54.9835 27.619C47.3559 33.6831 40.7088 43.3458 36.2539 51.9469C34.6201 55.1674 33.1103 58.4493 31.7276 61.7854C30.3678 65.0248 29.0973 68.4708 28.4549 71.9288C28.3759 72.3535 28.189 73.6436 28 73.9V0Z" fill="#F7F7F7"/>
<path d="M138 63.8571V110H28V76.7955C28.0178 76.8226 28.0366 76.8492 28.0534 76.877C28.2827 77.2573 28.29 77.9468 28.4101 78.3877C29.0104 80.5908 30.486 82.1771 32.6876 82.8539C34.9627 83.5535 39.6816 82.9318 42.1266 82.6351C42.6851 82.5673 43.7772 82.5467 44.266 82.2994C44.3612 82.2513 44.3723 82.217 44.4314 82.1339C46.4804 82.9102 47.3933 82.8459 49.3467 83.2919C49.2765 83.8642 49.6168 85.0722 49.8476 85.6223C51.5191 89.6073 56.756 91.0324 60.1647 88.3073C61.4402 87.2877 61.9211 86.3445 62.5405 84.8829C62.8786 84.981 63.263 85.0579 63.6144 85.0606C66.6481 85.0838 69.6858 85.0407 72.7185 85.0352L89.9009 85.0389L98.626 85.0313C99.3255 85.0296 101.747 85.0797 102.265 84.9957C102.463 84.8447 102.503 84.157 102.579 83.8088C102.722 84.4624 102.833 85.046 103.103 85.6685C104.581 89.0961 108.549 90.5714 111.94 89.0773C113.832 88.2436 114.867 86.8612 115.587 84.9869C117.116 84.9274 119.715 84.9454 121.249 85.0054C121.517 84.1985 122.074 82.9976 122.42 82.1863C123.864 82.6784 127.677 83.4741 129.262 83.0734C130.25 82.703 131.228 81.3302 131.764 80.5236C134.65 76.1807 136.706 71.1019 137.553 65.9551C137.638 65.4408 137.773 64.2824 138 63.8571Z" fill="#F7F7F7"/>
<path d="M36.5503 90.1541L132.223 90.1581C132.949 90.1594 137.48 90.1082 137.635 90.2632C137.377 90.4821 135.347 90.3906 134.886 90.391L129.541 90.3972L59.7068 90.3996L37.6956 90.3925L31.2602 90.3952C30.8716 90.3953 28.5876 90.4705 28.4402 90.2782C28.9162 90.0857 35.4763 90.157 36.5503 90.1541Z" fill="#010000"/>
<path d="M44.4314 82.1339C43.497 81.6379 42.9175 81.1263 42.6097 80.0431C42.3014 78.9578 42.2389 77.829 42.2278 76.7035C42.2123 75.1289 42.2526 73.4262 42.9275 71.9658C43.4348 70.8679 45.0359 70.5324 46.0633 70.1231C47.3502 69.6495 48.6677 69.2014 49.9247 68.641C50.871 68.2093 51.9621 67.5448 52.8621 67.0114C56.8307 64.6595 59.4908 62.4662 64.0255 61.134C65.2609 60.7678 66.5308 60.5295 67.815 60.4227C69.1059 60.3152 70.5496 60.3472 71.8596 60.3472L77.9668 60.3531L82.7449 60.3473C85.2581 60.3527 86.5565 60.257 88.8255 61.5394C93.7368 64.315 98.5264 67.2703 103.356 70.1824C107.242 70.2908 111.361 70.894 115.17 71.6163C117.569 72.0713 119.977 72.5923 121.981 74.0524C122.264 74.2578 122.745 74.4104 122.985 74.7251C124.766 77.0501 123.358 79.9662 122.42 82.1863C122.074 82.9975 121.517 84.1985 121.249 85.0054C119.715 84.9454 117.116 84.9274 115.587 84.9869C114.867 86.8612 113.832 88.2436 111.94 89.0773C108.549 90.5713 104.581 89.0961 103.103 85.6685C102.833 85.046 102.722 84.4623 102.579 83.8088C102.503 84.1569 102.463 84.8446 102.265 84.9957C101.747 85.0797 99.3255 85.0295 98.626 85.0312L89.9009 85.0389L72.7185 85.0352C69.6859 85.0407 66.6481 85.0838 63.6144 85.0606C63.263 85.0579 62.8786 84.981 62.5405 84.8829C61.9211 86.3445 61.4403 87.2876 60.1647 88.3073C56.756 91.0324 51.5191 89.6073 49.8476 85.6223C49.6169 85.0722 49.2765 83.8642 49.3467 83.2919C47.3933 82.8458 46.4805 82.9102 44.4314 82.1339Z" fill="#010000"/>
<path d="M49.3467 83.2918C49.5279 83.1156 49.5326 82.6049 49.5694 82.336C49.642 81.7653 49.7718 81.2032 49.9567 80.6584C50.831 78.0997 53.4405 76.3407 56.132 76.3614C60.1137 76.3919 63.1938 80.3717 62.3783 84.208C62.3006 84.5732 62.345 84.5692 62.5405 84.8829C61.9211 86.3444 61.4403 87.2876 60.1647 88.3072C56.756 91.0323 51.5191 89.6073 49.8476 85.6222C49.6169 85.0721 49.2765 83.8642 49.3467 83.2918Z" fill="#D9D9D9"/>
<path d="M55.5202 78.066C58.2326 77.8002 60.6474 79.7826 60.9148 82.4949C61.1823 85.2072 59.2014 87.6231 56.4893 87.8923C53.7747 88.1617 51.3562 86.1786 51.0885 83.464C50.8208 80.7493 52.8053 78.3321 55.5202 78.066Z" fill="#F7F7F7"/>
<path d="M55.5848 80.6282C56.8787 80.4006 58.111 81.2681 58.3334 82.5628C58.5559 83.8575 57.6836 85.0865 56.388 85.3038C55.0996 85.5199 53.8789 84.6536 53.6578 83.366C53.4365 82.0785 54.2981 80.8544 55.5848 80.6282Z" fill="#010000"/>
<path d="M55.5892 80.8485C56.7519 80.6183 57.8816 81.3725 58.1148 82.5346C58.3479 83.6967 57.5965 84.8282 56.4349 85.0643C55.2693 85.3011 54.1329 84.5465 53.8989 83.3803C53.665 82.2141 54.4224 81.0795 55.5892 80.8485Z" fill="#F7F7F7"/>
<path d="M55.6583 70.2628L88.0947 70.2747L96.4902 70.3023C99.6335 70.3053 102.692 70.2962 105.832 70.5686C105.824 72.3258 105.767 74.4622 105.855 76.1966C103.505 77.671 102.286 78.8985 101.87 81.7787C101.73 82.7202 101.658 83.8508 101.574 84.8112L63.619 84.8402C63.696 84.2102 63.7564 83.4815 63.7475 82.8545C63.7141 80.7784 62.8452 78.8032 61.3376 77.3756C59.4904 75.6035 57.5333 75.1429 55.079 75.2005C55.0718 73.5338 54.7963 71.7211 55.6583 70.2628Z" fill="#F7F7F7"/>
<path d="M70.335 82.3632C70.9052 82.3306 71.6907 82.3529 72.2853 82.3515L76.0616 82.348L87.2882 82.3452L93.0905 82.3466C93.6953 82.3479 94.4493 82.3191 95.0515 82.3659C95.1685 82.375 95.1536 82.4095 95.2345 82.5303C94.6138 82.5891 93.3312 82.554 92.6788 82.5543L87.9618 82.5583L74.6979 82.5657C74.2085 82.5657 70.6778 82.622 70.3969 82.5295L70.335 82.3632Z" fill="#010000"/>
<path d="M77.2986 72.162C77.5296 72.3823 79.0599 79.4715 79.2809 80.3373C79.345 80.5885 79.428 80.9564 79.2742 81.1907C79.0846 80.9648 78.9266 79.9814 78.8524 79.6535L78.1031 76.3894L77.4565 73.682C77.3633 73.294 77.2623 72.8836 77.1736 72.4928C77.1338 72.3177 77.1954 72.2964 77.2986 72.162Z" fill="#010000"/>
<path d="M63.3069 72.4024C63.8684 72.3465 64.5531 72.3771 65.1267 72.3701C65.5689 72.3646 66.5201 72.259 66.7563 72.6608C66.7539 72.8526 66.7241 72.8603 66.608 73.0134C66.0894 73.0983 64.0649 73.0579 63.423 73.0071C63.308 72.998 63.2491 72.8878 63.1912 72.8004C63.1765 72.597 63.2041 72.575 63.3069 72.4024Z" fill="#F7F7F7"/>
<path d="M82.6152 72.3545C83.3418 72.2844 84.4823 72.3372 85.2309 72.3299C85.4706 72.3275 85.6702 72.3973 85.8193 72.5862C85.8448 72.7736 85.8042 72.8096 85.7097 72.9737C84.8722 73.0098 83.9841 72.9896 83.1428 72.9958C82.8653 72.9978 82.6244 72.9494 82.4747 72.7085C82.49 72.4846 82.4783 72.561 82.6152 72.3545Z" fill="#F7F7F7"/>
<path d="M106.056 70.5742C109.986 71.01 118.292 71.7641 121.445 73.977C120.192 73.8578 117.714 73.5225 116.538 74.1591C116.06 74.4182 116.352 75.2317 116.671 75.4903C118.042 76.8425 120.288 77.9018 122.2 78.1202C123.984 78.3239 122.683 75.1989 122.454 74.5324C123.18 75.1189 123.488 75.9393 123.581 76.8472C123.646 77.4835 123.607 78.126 123.465 78.7497C123.234 79.7866 122.52 81.3636 122.09 82.3689C121.786 83.0806 121.383 84.078 121.05 84.7619L115.648 84.7542C115.893 83.5693 115.944 81.5342 115.28 80.5076C116.412 83.3295 115.444 86.5588 112.947 88.2934C110.45 90.0278 107.086 89.8078 104.837 87.7627C102.587 85.7177 102.048 82.3899 103.538 79.7395C102.697 80.886 102.616 82.5365 102.368 83.8885C102.316 84.1734 102.343 84.664 102.098 84.8163C101.896 84.8141 101.915 84.8492 101.798 84.7455C101.785 84.1629 101.878 83.6014 101.925 83.0163C102.084 81.0114 102.437 79.4644 103.865 77.9685C107.982 73.654 115.115 75.7094 116.376 81.5045C116.419 81.6985 116.475 82.3629 116.66 82.4306C116.798 82.2212 116.69 81.8411 116.65 81.5984C115.995 77.6695 111.792 74.7335 107.885 75.5529C107.262 75.6836 106.697 75.9016 106.102 76.1431C105.996 74.3996 106.068 72.3443 106.056 70.5742Z" fill="#D9D9D9"/>
<path d="M106.056 70.5742C109.986 71.01 118.292 71.7641 121.445 73.977C120.192 73.8578 117.714 73.5225 116.538 74.1591C116.06 74.4182 116.352 75.2317 116.671 75.4903C118.042 76.8425 120.288 77.9018 122.2 78.1202C123.984 78.3239 122.683 75.1989 122.454 74.5324C123.18 75.1189 123.488 75.9393 123.581 76.8472C123.646 77.4835 123.607 78.126 123.465 78.7497C123.234 79.7866 122.52 81.3636 122.09 82.3689C121.786 83.0806 121.383 84.078 121.05 84.7619L115.648 84.7542C115.893 83.5693 115.944 81.5342 115.28 80.5076C114.346 78.177 112.157 76.5894 109.651 76.4255C107.145 76.2616 104.768 77.5503 103.538 79.7395C102.697 80.886 102.616 82.5365 102.368 83.8885C102.316 84.1734 102.343 84.664 102.098 84.8163C101.896 84.8141 101.915 84.8492 101.798 84.7455C101.785 84.1629 101.878 83.6014 101.925 83.0163C102.084 81.0114 102.437 79.4644 103.865 77.9685C107.982 73.654 115.115 75.7094 116.376 81.5045C116.419 81.6985 116.475 82.3629 116.66 82.4306C116.798 82.2212 116.69 81.8411 116.65 81.5984C115.995 77.6695 111.792 74.7335 107.885 75.5529C107.262 75.6836 106.697 75.9016 106.102 76.1431C105.996 74.3996 106.068 72.3443 106.056 70.5742Z" fill="#F3E4E2"/>
<path d="M108.934 78.2153C111.585 78.0384 113.876 80.0465 114.048 82.6976C114.22 85.3486 112.207 87.6359 109.556 87.8029C106.912 87.9696 104.632 85.9637 104.46 83.3196C104.289 80.6755 106.29 78.3918 108.934 78.2153Z" fill="#F7F7F7"/>
<path d="M108.894 80.5655C110.207 80.3697 111.431 81.2731 111.63 82.5853C111.83 83.8975 110.931 85.1238 109.619 85.3274C108.302 85.5318 107.069 84.6275 106.869 83.3098C106.668 81.992 107.576 80.7621 108.894 80.5655Z" fill="#010000"/>
<path d="M108.974 80.792C110.17 80.6347 111.264 81.4811 111.413 82.6775C111.562 83.8739 110.708 84.9624 109.51 85.1024C108.325 85.241 107.25 84.3973 107.103 83.2131C106.955 82.0289 107.791 80.9478 108.974 80.792Z" fill="#F7F7F7"/>
<path d="M70.2288 61.4711C72.4847 61.4542 74.7407 61.4535 76.9966 61.469L76.9927 70.0186L62.8182 70.0244L55.8276 70.0278C56.5055 68.9169 57.7689 67.3993 58.6701 66.4557C59.2548 65.8434 60.4564 64.7285 61.1449 64.2515C63.0784 62.9119 65.642 61.9056 67.9701 61.5781C68.6612 61.4809 69.5298 61.4822 70.2288 61.4711Z" fill="#F7F7F7"/>
<path d="M77.2323 61.4628C78.5926 61.4225 80.073 61.461 81.4518 61.452C82.4535 61.5553 84.6382 61.271 85.5456 61.6063C87.6267 62.3752 90.4556 64.2353 92.2958 65.3813L96.4521 67.9359L98.6237 69.2825C98.9526 69.4841 99.6178 69.8567 99.8829 70.0906L77.2562 70.0447C77.1928 67.345 77.1939 64.1514 77.2323 61.4628Z" fill="#F7F7F7"/>
<path d="M47.9487 70.4944L52.2633 70.4769C53.2247 70.4747 54.308 70.4466 55.2567 70.5352C54.5986 72.14 54.8207 73.5591 54.8557 75.2769C53.7539 75.3956 52.3291 76.0532 51.4735 76.7394C49.5528 78.2797 48.4997 80.4713 48.1912 82.8644C47.4819 82.7409 46.8348 82.6239 46.1334 82.4643C45.1901 82.216 44.29 81.9638 43.5605 81.264C42.3401 80.0931 42.4335 77.1527 42.4536 75.5121C44.2884 75.2084 46.1251 74.0162 47.5738 72.8841C47.9225 72.6117 48.6071 72.0972 48.6214 71.6184C48.6252 71.4874 48.5628 71.3719 48.4695 71.2832C48.0785 70.9112 45.1076 70.9681 44.4158 70.9304C45.7941 70.4468 46.5015 70.5104 47.9487 70.4944Z" fill="#F3E4E2"/>
<path d="M68.2863 60.6128C69.0798 60.5414 70.2722 60.573 71.0941 60.5736L75.7233 60.5792L81.7126 60.5838C82.8939 60.5849 85.6545 60.4741 86.6788 60.8499C88.8549 61.648 91.2024 63.184 93.2269 64.3943C96.4151 66.3003 99.7548 68.1738 102.867 70.1859C102.339 70.155 100.719 70.2054 100.397 70.0668C99.6362 69.7386 98.5354 68.9308 97.7899 68.4711L92.7504 65.3742C91.6383 64.6805 90.5176 64.0007 89.3883 63.3351C85.3535 60.9241 85.6384 61.2211 80.9188 61.2316L73.5968 61.2313C71.33 61.2306 68.6715 61.0882 66.523 61.6215C64.8709 62.0316 62.4791 62.9987 61.0797 63.9998C59.086 65.426 56.6595 68.1737 55.3851 70.2696C52.3914 70.1624 49.2762 70.2944 46.2755 70.3021C47.8853 69.5754 49.5058 69.2167 51.1812 68.2728C56.9524 65.0211 61.3296 61.0381 68.2863 60.6128Z" fill="#F7F7F7"/>
<path d="M55.3671 75.4298C57.9643 75.1758 60.4272 76.435 61.9911 78.4704C63.5333 80.4776 63.6939 82.4037 63.4061 84.8199C63.0603 84.7649 62.5383 84.7585 62.6044 84.3221C62.8184 82.9089 62.7626 81.5997 62.1597 80.2617C61.3615 78.4905 60.0062 77.2616 58.199 76.567C57.6461 76.3656 57.0681 76.2416 56.4812 76.1987C54.8775 76.0815 52.9211 76.7073 51.7346 77.7823C50.1393 79.2277 49.3946 80.899 49.2552 83.0078C48.9891 82.9787 48.7094 82.9334 48.4432 82.8953C48.5717 81.1821 49.3349 79.4057 50.4166 78.0805C51.648 76.573 53.4298 75.619 55.3671 75.4298Z" fill="#F3E4E2"/>
<path d="M118.006 74.0365C119.004 73.9746 121.195 74.0582 122.075 74.4042C122.552 75.1354 122.953 76.3685 122.926 77.2574C122.9 78.1188 122.091 77.8553 121.524 77.7499C120.762 77.5785 120.021 77.3265 119.312 76.9982C118.2 76.4711 114.5 74.2647 118.006 74.0365Z" fill="#F7F7F7"/>
<path d="M44.2269 71.1262C44.7629 71.1099 47.8884 71.1622 48.1898 71.4286C48.3042 71.5299 48.2995 71.5772 48.3173 71.7206C48.1088 72.3838 46.0865 73.6837 45.4318 74.0802C44.2819 74.699 43.7413 74.941 42.4733 75.3103C42.5603 73.9277 42.6504 71.6234 44.2269 71.1262Z" fill="#F7F7F7"/>
<circle cx="61" cy="70" r="3" fill="#DB4431"/>
<circle cx="102" cy="80" r="3" fill="#DB4431"/>
<circle cx="86" cy="61" r="3" fill="#DB4431"/>
</g>
<defs>
<clipPath id="clip0_476_3865">
<rect width="110" height="110" fill="white" transform="translate(28)"/>
</clipPath>
</defs>
</svg>
