<svg width="273" height="273" viewBox="0 0 273 273" fill="none" xmlns="http://www.w3.org/2000/svg">
<g clip-path="url(#clip0_842_3558)">
<path d="M0 0H273V273H0V0Z" fill="#F7F7F7"/>
<path d="M2.25732 192.072C4.59675 188.125 7.08318 184.284 9.48379 180.379C18.3148 166.108 27.2633 151.911 36.3283 137.788L76.2044 74.8806L104.107 30.7679C106.441 27.1005 108.745 23.4139 111.019 19.7089C112.353 17.528 113.673 15.2542 115.085 13.1287C115.686 12.2243 116.907 11.6313 117.96 11.4818C118.671 11.3809 119.8 11.8886 120.45 12.2441C123.836 14.0935 127.109 16.2391 130.436 18.1654C141.816 24.8268 153.113 31.6285 164.324 38.5687L183.649 50.4695C187.268 52.6855 192.201 55.4589 195.478 57.8802C196.164 57.1889 202.4 54.5754 203.398 54.3331C204.585 54.6338 205.184 54.774 205.817 55.9383C207.071 58.2428 208.004 60.7219 209.102 63.1045C209.572 64.1229 210.062 65.1909 210.465 66.2272C211.652 66.9185 213.817 71.6891 214.523 73.1194L219.436 83.0946L232.551 110.211C234.815 114.897 237.133 119.514 239.047 124.362C239.777 126.212 240.907 128.339 241.376 130.246C241.118 131.055 241.036 131.367 240.593 132.119C238.507 133.467 236.442 134.234 234.226 135.279C230.799 136.896 227.197 138.383 223.776 139.978L242.884 139.661C245.484 139.624 248.078 139.519 250.676 139.548C251.62 139.395 252.193 140.511 252.508 141.361C253.868 145.034 255.191 148.966 256.539 152.624C256.859 153.493 256.859 162.542 256.492 163.245C256.037 163.631 255.569 163.618 254.997 163.729C254.739 169.603 255.101 175.675 254.843 181.563C254.782 182.959 253.427 182.766 252.394 182.753C253.58 184.72 254.278 185.968 255.65 187.854C255.774 188.938 255.759 190.03 255.752 191.12C255.736 193.621 255.848 196.125 255.783 198.626C255.22 198.96 254.934 199.133 254.337 199.384L254.321 211.036C254.321 211.93 254.51 218.3 253.932 218.422C251.609 218.91 247.901 218.704 245.448 218.695C240.357 218.653 235.267 218.654 230.176 218.699L188.704 218.84C182.269 218.837 175.813 218.876 169.377 218.889C168.458 218.891 167.66 218.57 166.888 219.105C166.704 219.5 166.739 219.651 166.745 220.083C166.951 222.96 167.07 225.982 166.993 228.882C166.959 230.203 166.231 230.565 166.607 232.092C166.968 233.552 166.916 238.413 166.721 239.75C166.6 240.591 166.366 241.412 166.027 242.191C164.126 246.592 158.919 249.72 154.532 251.246C142.303 255.479 127.415 255.583 115.459 250.404C111.141 248.534 105.287 244.481 105.257 239.324C105.226 233.806 105.01 227.819 105.215 222.31C105.178 220.658 105.126 218.907 105.207 217.262C105.475 211.806 105.326 206.312 105.34 200.842C105.203 200.843 104.52 200.86 104.455 200.951C102.12 204.166 99.905 207.555 97.6818 210.845C102.829 220.106 103.153 232.285 94.4133 239.65C93.3205 240.571 91.9648 241.32 90.9109 242.256C88.6238 244.287 86.3633 246.381 83.769 248.024C78.0549 251.608 70.5637 252.124 64.1263 250.548C54.643 248.135 46.4338 241.761 41.4268 233.385C37.6554 227.077 36.4288 221.113 38.1796 214.002L2.25732 192.072Z" fill="#1B1A1B"/>
<path d="M105.302 200.239L126.06 200.322C129.254 200.341 132.992 200.248 136.117 200.361C133.749 200.973 131.076 200.324 129.156 200.727L129.126 200.942L129.898 201.203C130.268 201.327 130.409 201.334 130.633 201.657C130.589 202.172 130.389 202.236 130.038 202.745C130.517 202.988 131.245 202.544 132.172 202.86C134.578 202.755 137.277 202.574 139.671 202.73C148.9 203.332 165.826 207.365 166.201 218.808L166.205 218.957C166.317 219.181 166.686 219.878 166.745 220.082C166.951 222.96 167.071 225.982 166.994 228.882C166.959 230.203 166.231 230.565 166.608 232.092C166.968 233.552 166.917 238.413 166.722 239.75C166.6 240.59 166.367 241.411 166.027 242.19C164.127 246.591 158.919 249.72 154.533 251.245C142.303 255.479 127.416 255.582 115.46 250.404C111.141 248.534 105.287 244.48 105.258 239.323C105.226 233.805 105.011 227.818 105.215 222.31C105.179 220.657 105.126 218.906 105.207 217.261C105.476 211.806 105.326 206.312 105.34 200.842C105.103 200.623 105.126 200.76 104.902 200.435C105.171 200.383 105.329 200.401 105.6 200.436L105.302 200.239Z" fill="#FEFEFE"/>
<path d="M166.205 218.957C166.317 219.18 166.685 219.877 166.745 220.082C166.951 222.96 167.071 225.981 166.994 228.881C166.959 230.203 166.231 230.565 166.608 232.092C166.968 233.551 166.917 238.413 166.722 239.749C166.6 240.59 166.367 241.411 166.027 242.19C164.126 246.591 158.919 249.719 154.532 251.245C142.303 255.478 127.415 255.582 115.46 250.404C111.141 248.533 105.287 244.48 105.258 239.323C105.226 233.805 105.011 227.818 105.215 222.31C105.421 221.957 105.399 221.425 105.422 221.015L105.493 221.336L105.745 221.117C106.09 221.612 105.729 221.966 105.849 222.899L106.019 221.681L106.159 221.278C106.331 221.461 106.488 221.576 106.697 221.714C106.983 222.177 107.281 222.633 107.592 223.08C116.608 235.817 149.51 235.611 161.149 226.545C163.833 224.454 165.651 222.363 166.205 218.957Z" fill="#1B1A1B"/>
<path d="M106.019 221.681C107.914 224.935 109.761 226.731 113.077 228.644C126.423 236.343 157.821 236.395 166.241 221.757C166.424 226.698 167.076 230.841 163.45 234.589C157.148 240.886 146.348 243.092 137.671 243.324C128.307 243.575 116.462 241.721 109.258 235.391C104.531 231.238 106.388 227.905 105.849 222.899L106.019 221.681Z" fill="#FEFEFE"/>
<path d="M105.866 232.038C106.298 232.404 106.793 233.622 107.203 234.12C118.564 247.921 156.963 247.372 166.069 232.17C166.184 234.822 166.502 238.73 165.751 241.175C165.213 242.63 164.38 243.958 163.304 245.076C152.317 256.604 120.325 256.327 108.923 245.375C104.995 241.602 105.878 236.951 105.866 232.038Z" fill="#FEFEFE"/>
<path d="M105.302 200.239L126.06 200.322C129.254 200.341 132.992 200.248 136.117 200.361C133.749 200.973 131.076 200.324 129.156 200.727L129.126 200.942L129.898 201.203C130.268 201.327 130.409 201.334 130.633 201.657C130.589 202.172 130.389 202.236 130.038 202.745C130.517 202.988 131.245 202.544 132.172 202.86C125.686 203.632 119.526 204.978 113.714 208.132C108.648 210.882 103.844 215.52 106.697 221.714C106.488 221.576 106.331 221.462 106.159 221.278L106.02 221.681L105.849 222.9C105.729 221.966 106.09 221.613 105.745 221.117L105.493 221.336L105.422 221.016C105.399 221.425 105.421 221.957 105.215 222.31C105.179 220.657 105.126 218.906 105.207 217.261C105.476 211.806 105.326 206.312 105.34 200.842C105.103 200.623 105.126 200.76 104.902 200.435C105.171 200.383 105.329 200.401 105.6 200.436L105.302 200.239Z" fill="#1B1A1B"/>
<path d="M133.781 207.204C139.351 206.512 146.172 207.872 150.558 211.469C153.994 214.288 155.218 218.797 151.928 222.332C148.09 226.458 143.099 227.386 137.747 227.756C132.189 228.148 125.702 226.97 121.241 223.526C117.71 220.801 116.202 216.646 119.482 212.955C123.036 208.955 128.647 207.567 133.781 207.204Z" fill="#DB4431"/>
<path d="M135.729 208.919C136.306 208.935 136.184 208.853 136.624 209.114C136.652 209.215 136.814 209.794 136.915 209.816C139.289 210.326 141.119 210.308 143.428 211.22C142.992 212.057 142.672 212.606 142.161 213.4C140.175 212.785 139.091 212.432 136.989 212.235C137.155 213.454 137.264 214.414 137.335 215.64C142.127 215.856 150.457 219.473 142.229 223.785C141.395 224.222 139.259 224.243 138.8 224.586C138.77 224.99 138.769 225.083 138.668 225.487C138.062 225.835 136.391 225.766 135.949 225.083C135.579 224.51 135.331 224.598 134.716 224.557C132.164 224.302 128.729 223.428 127.433 220.93C127.237 220.551 127.24 220.254 127.389 219.871C128.213 219.705 130.417 219.898 131.325 219.947C132.249 222.214 134.157 222.28 136.306 222.534C136.18 221.009 135.861 219.115 135.66 217.559C133.866 217.37 126.25 216.597 127.76 213.001C128.728 210.696 132.193 210.825 134.207 210.127C134.338 209.841 134.405 209.64 134.507 209.345C134.85 208.98 135.216 208.998 135.729 208.919Z" fill="#FEFEFE"/>
<path d="M137.784 218.017C139.535 218.252 143.014 219.243 140.992 221.551L140.943 221.574C140.067 222.002 139.451 222.114 138.504 222.343C138.214 220.959 138.004 219.423 137.784 218.017Z" fill="#DB4431"/>
<path d="M134.017 212.362C134.486 212.345 134.302 212.267 134.645 212.471C135.068 213.31 135.188 214.369 135.374 215.319C134.416 215.294 134.103 215.281 133.167 215.085C132.558 214.915 132.031 214.765 131.664 214.233C131.475 212.958 133.069 212.608 134.017 212.362Z" fill="#DB4431"/>
<path d="M109.175 193.529C111.663 192.369 114.278 191.19 116.728 189.97C119.786 188.447 121.475 188.732 124.787 188.732L133.106 188.733L161.803 188.67L230.437 188.392C238.552 188.38 246.892 188.203 254.985 188.311C255.075 191.357 255.076 195.223 255.016 198.286C252.782 198.505 249.743 198.479 247.439 198.523L233.514 198.811C212.763 199.408 192.006 199.78 171.247 199.924L147.553 200.176C144.284 200.221 139.201 200.135 136.117 200.36C132.992 200.248 129.254 200.34 126.059 200.322L105.301 200.239L105.073 200.013C105.594 198.85 108.351 194.795 109.175 193.529Z" fill="#FEFEFE"/>
<path d="M195.478 57.8801C196.164 57.1888 202.4 54.5753 203.399 54.333C204.586 54.6337 205.185 54.774 205.818 55.9382C207.071 58.2427 208.005 60.7218 209.103 63.1045C209.572 64.1229 210.063 65.1909 210.465 66.2272C210.367 66.2965 210.212 66.3722 210.102 66.4317L209.985 66.0805L209.792 66.0054C209.733 66.1048 209.673 66.2042 209.614 66.3037C202.405 69.0715 195.065 72.5896 187.995 75.5788C185.498 76.6345 184.966 76.8443 183.45 77.4714C184.15 76.0381 194.722 59.1457 195.781 58.1547L195.478 57.8801Z" fill="#FEFEFE"/>
<path d="M195.478 57.8801C196.164 57.1888 202.4 54.5753 203.399 54.333C204.586 54.6337 205.185 54.774 205.818 55.9382C207.071 58.2427 208.005 60.7218 209.103 63.1045C209.572 64.1229 210.063 65.1909 210.465 66.2272C210.367 66.2965 210.212 66.3722 210.102 66.4317L209.985 66.0805L209.792 66.0054C207.937 63.49 206.624 57.3533 204.423 55.2816C203.381 54.3007 197.485 57.6765 195.781 58.1547L195.478 57.8801Z" fill="#1B1A1B"/>
<path d="M3.15479 191.76C6.73034 186.451 10.1968 180.531 13.5811 175.065C18.6601 166.887 23.7822 158.736 28.947 150.612L90.067 54.29L106.76 27.8402L112.502 18.6889C113.503 17.0706 114.43 15.3785 115.492 13.8084C117.082 11.4585 118.846 12.1057 120.893 13.3333C123.23 14.735 125.63 16.0779 127.989 17.4464C126.973 19.4277 125.049 22.2895 123.825 24.2307L115.918 36.7655L86.1896 83.485L79.6437 93.8143C78.0393 96.3278 76.1878 98.7978 75.0942 101.541C81.2369 93.4344 88.2856 88.3183 98.6457 86.8104C106.7 85.6381 115.774 87.7699 122.299 92.6929C129.148 97.8978 133.663 105.598 134.862 114.115C135.666 120.013 134.969 125.793 132.759 131.262C132.592 131.675 131.921 133.17 132.303 133.482C133.296 132.793 140.123 121.548 141.231 119.831C152.221 102.931 163.079 85.9444 173.803 68.8737C176.98 63.865 180.353 58.9846 183.354 53.8598C183.734 53.2111 184.17 52.559 184.518 51.8957C187.72 53.5057 191.792 56.1914 194.729 58.196C191.903 63.1839 187.639 69.4487 184.5 74.3427L172.46 93.4549L137.439 148.222L110.205 190.724C107.022 195.619 103.951 200.581 100.558 205.334C99.6255 206.64 98.204 209.015 97.2871 210.141C95.3695 206.705 92.765 202.954 89.9004 200.225L89.75 200.309C89.6354 200.09 89.4994 199.931 89.3349 199.748C88.9769 199.294 87.9699 198.483 87.5141 198.1C83.7512 194.939 80.4201 193.526 76.1064 191.562C74.6804 188.029 73.706 186.358 71.4748 183.311C77.2352 174.002 83.4793 164.941 89.2782 155.653C90.4235 153.818 91.8223 151.916 92.7048 149.948C102.843 153.088 113.868 151.259 122.45 145.014C123.236 144.453 125.757 142.07 126.319 142.021C126.61 141.724 126.692 141.7 126.781 141.295L126.608 141.12L126.137 141.139C124.125 142.702 122.822 143.98 120.61 145.432C101.364 158.061 74.9622 147.453 70.7448 124.58C69.7021 118.927 70.0922 115.138 71.3823 109.604C71.2644 109.076 71.5302 108.985 71.2708 108.532L70.6075 108.396C58.824 126.6 47.1388 144.867 35.5529 163.197C29.6639 172.495 23.6351 181.7 17.9333 191.12C17.2801 192.199 16.5685 193.254 15.9312 194.342C22.6774 198.573 29.6836 202.555 36.4945 206.7C37.7673 207.474 39.0971 208.244 40.4074 208.954L39.79 210.17C32.4747 206.088 25.3788 201.576 18.1475 197.349C17.2947 196.85 16.3384 196.323 15.5173 195.784C15.0758 196.458 14.355 197.629 13.8832 198.226C10.9863 196.701 6.04237 193.606 3.15479 191.76Z" fill="#FEFEFE"/>
<path d="M92.7046 149.948C102.843 153.088 113.868 151.259 122.45 145.014C123.236 144.453 125.757 142.071 126.319 142.021C123.285 145.978 119.585 152.424 116.825 156.798L97.9777 186.162C95.2504 190.401 92.2381 195.79 89.3348 199.749C88.9767 199.294 87.9698 198.484 87.5139 198.101C83.7511 194.939 80.4199 193.526 76.1063 191.562C74.6802 188.03 73.7058 186.359 71.4746 183.312C77.2351 174.002 83.4791 164.942 89.278 155.653C90.4233 153.818 91.8222 151.916 92.7046 149.948Z" fill="#DB4431"/>
<path d="M126.137 141.14C126.798 140.413 128.435 138.51 129.096 138.046L129.221 138.128C128.894 139.4 124.668 145.587 123.764 147.006C118.58 155.214 113.332 163.383 108.021 171.511L89.9004 200.225L89.7501 200.309C89.6354 200.091 89.4995 199.932 89.335 199.749C92.2383 195.79 95.2506 190.401 97.9779 186.162L116.825 156.798C119.585 152.424 123.285 145.978 126.319 142.021C126.61 141.724 126.692 141.7 126.781 141.295L126.608 141.12L126.137 141.14Z" fill="#1B1A1B"/>
<path d="M70.6074 108.396C71.5061 106.899 72.5736 105.217 73.6286 103.821C72.8114 105.782 72.0327 107.578 71.3822 109.604C71.2643 109.076 71.5301 108.986 71.2707 108.532L70.6074 108.396Z" fill="#1B1A1B"/>
<path d="M97.4591 106.394C99.0403 106.288 99.6015 106.407 100.965 107.12C100.667 108.304 100.414 109.112 100.006 110.265C97.0416 110.027 95.96 110.037 93.99 112.357C95.6472 113.674 99.1669 115.786 101.008 116.864C102.227 114.761 103.617 112.987 105.883 111.932C109.495 110.236 113.636 112.266 115.058 115.865C116.296 119.002 115.694 121.9 114.461 124.9C115.599 125.687 116.99 126.167 118.016 127.115C117.47 127.993 117.03 128.774 116.536 129.683C115.377 129.205 114.061 128.22 112.966 127.509C111.155 129.948 109.988 131.14 106.929 131.841C105.287 131.938 104.543 131.896 103.001 131.331C103.327 129.775 103.605 129.275 104.395 127.87C106.902 128.589 109.067 127.875 110.502 125.635C107.914 124.067 104.939 122.067 102.362 120.633C100.795 122.756 99.149 124.84 96.4798 125.588C94.8418 126.046 93.0873 125.812 91.6271 124.939C87.386 122.401 88.0944 116.958 90.3211 113.324C88.8593 112.699 88.0528 112.28 86.8638 111.258C87.2962 110.16 87.5241 109.714 88.1147 108.676C89.3837 109.362 90.6111 110.173 91.8276 110.952C93.4395 108.737 94.6965 107.045 97.4591 106.394Z" fill="#1B1A1B"/>
<path d="M107.63 115.05C113.186 114.403 113.113 122.474 111.43 123.36C110.777 123.136 110.166 122.664 109.583 122.27C107.686 121.141 105.19 119.748 103.453 118.488C104.614 116.815 105.758 115.826 107.63 115.05Z" fill="#FEFEFE"/>
<path d="M92.7188 114.665C93.6232 114.983 98.8381 118.345 99.8552 119.023C99.1954 119.989 98.6603 120.425 97.7675 121.136C95.6904 122.489 93.0737 122.937 91.9468 120.103C91.2243 118.285 91.9588 116.353 92.7188 114.665Z" fill="#FEFEFE"/>
<path d="M63.7349 190.674C63.7707 190.668 63.8064 190.662 63.8418 190.657C72.0822 189.867 80.1669 193.196 86.571 198.264C97.3347 206.783 106.074 224.374 96.3518 236.723C92.9347 241.063 87.4625 243.165 82.1123 243.754C73.9484 244.839 64.8771 241.278 58.5989 236.232C51.4782 230.508 46.4456 222.788 45.4509 213.574C44.8228 207.756 45.8542 202.57 49.6261 197.995C53.2628 193.488 58.0433 191.272 63.7349 190.674Z" fill="#FEFEFE"/>
<path d="M68.8631 200.395L69.0822 200.368C74.8293 199.713 80.4274 202.34 84.812 205.854C83.8893 206.742 82.9671 207.859 82.1193 208.835C79.899 207.179 77.0829 206.303 74.4385 207.605C73.1426 208.229 72.1583 209.356 71.7152 210.724C70.9028 213.2 71.7573 216.367 72.9269 218.599C71.5851 219.776 70.5704 220.791 69.4085 222.132C68.9548 222.655 68.0806 223.806 67.6628 224.168C67.341 223.998 67.2005 223.843 67.0305 223.49C66.3496 222.055 66.0566 220.33 66.8105 218.864C67.0902 218.32 68.2326 216.593 67.6284 216.084C64.5345 213.477 62.8672 218.054 62.9205 220.568C62.9741 223.089 63.7462 224.695 65.4956 226.499C64.8744 227.301 64.6113 227.69 64.1042 228.568C64.7204 229.134 64.9422 229.246 65.6473 229.641L66.7734 227.756C67.4501 228.17 68.1262 228.58 68.8367 228.935C70.5229 229.778 72.4825 229.886 74.2511 229.233C75.7539 228.7 76.9675 227.566 77.6001 226.102C78.8452 223.277 77.5148 220.367 76.5153 217.697C78.0459 216.601 80.0371 214.158 81.5274 212.715L81.7381 212.743C82.2947 213.318 82.3566 214.024 82.4619 214.789C82.4366 216.467 81.4059 216.991 81.713 218.333C81.8066 218.664 82.154 219.102 82.4928 219.17C84.463 219.562 85.4161 217.426 85.5995 215.906C85.9088 213.345 85.1495 211.862 83.6733 209.981C84.5608 209.009 85.278 208.202 86.1021 207.163C91.1827 213.177 92.7687 222.284 88.1085 229.004C85.8277 232.246 82.3502 234.445 78.4442 235.117C68.6767 236.782 58.9615 228.967 56.2731 219.916C53.3258 209.994 58.8471 201.928 68.8631 200.395Z" fill="#DB4431"/>
<path d="M73.6562 220.318C75.6205 223.492 74.1358 226.781 69.9342 225.948C69.6033 225.811 69.1504 225.558 68.8203 225.385C70.5116 223.767 72.0731 222.04 73.6562 220.318Z" fill="#DB4431"/>
<path d="M76.6554 210.498C77.5227 210.41 79.5555 210.295 79.9911 211.159C79.9242 211.901 77.8922 213.809 77.2075 214.562C76.7458 215.126 76.2358 215.704 75.7591 216.26C74.8172 214.021 74.2853 211.967 76.6554 210.498Z" fill="#DB4431"/>
<path d="M235.983 119.535L236.214 119.639C236.788 120.649 237.656 122.818 238.121 123.951C238.943 125.949 240.186 128.344 240.678 130.401L240.635 130.516C240.251 131.53 239.891 131.953 238.905 132.41C237.008 133.291 235.083 134.144 233.178 135.005L221.175 140.399L187.897 155.554L125.952 184.655C121.7 186.651 117.763 188.766 113.453 190.745C112.275 191.288 111.103 191.845 109.938 192.415L116.745 181.797C117.432 180.713 121.855 173.37 122.438 173.1C133.922 167.783 145.243 162.037 156.784 156.84C161.299 154.808 165.786 152.779 170.273 150.704L204.92 134.492C210.869 131.741 216.785 128.918 222.665 126.023C227.264 123.814 231.425 121.911 235.983 119.535Z" fill="#FEFEFE"/>
<path d="M70.7353 109.28C70.7939 110.023 69.7561 114.306 69.6419 115.662C69.0898 123.037 70.9478 130.393 74.9361 136.622C76.1148 138.437 77.2852 139.799 78.6763 141.435C76.4368 144.565 73.7913 148.953 71.6809 152.253C66.9994 159.697 62.2488 167.097 57.4297 174.452C52.3494 172.852 46.9336 172.64 41.7434 173.837C32.952 175.945 26.3433 181.897 21.6984 189.434C20.5625 191.459 19.6212 193.079 18.782 195.26C18.0736 194.931 17.4894 194.519 16.8364 194.093C28.243 175.777 39.7906 157.548 51.4781 139.41C57.82 129.317 64.2393 119.274 70.7353 109.28Z" fill="#DB4431"/>
<path d="M79.5327 95.4244C80.9988 92.6531 84.2294 87.8348 85.9938 85.0088L102.253 59.4604L115.984 37.9291C117.585 35.4166 121.119 29.4325 122.819 27.3301C122.533 29.26 121.386 31.673 120.956 33.8242C119.305 42.0926 120.317 51.0763 125.248 58.0948C125.862 58.9666 127.646 61.4649 128.74 61.5785C127.714 63.5458 126.176 65.786 124.978 67.7152C122.175 72.2226 119.321 76.6983 116.418 81.1415C115.523 82.5075 113.387 86.1051 112.412 87.1856C109.393 86.3709 106.852 85.9262 103.703 85.8627C94.7029 85.7523 86.021 89.1867 79.5327 95.4244Z" fill="#DB4431"/>
<path d="M177.259 62.0127C176.606 63.5726 174.361 66.8241 173.352 68.3773C171.416 71.3835 169.51 74.4086 167.634 77.4521C162.393 85.8981 156.917 94.2064 151.594 102.602L140.37 119.994C138.123 123.473 136.185 126.716 133.81 130.176C137.771 117.468 135.903 106.315 127.017 96.155C130.308 90.8262 134.012 85.4384 137.387 80.1304C138.612 78.2037 141.542 73.3153 142.828 71.6986C150.13 75.4475 161.83 74.0058 168.426 69.3408C169.672 68.4597 170.924 67.514 172.159 66.6633C173.906 65.4609 175.629 63.0356 177.259 62.0127Z" fill="#DB4431"/>
<path d="M167.455 125.427L187.036 116.443C187.224 116.672 187.417 116.896 187.617 117.115C192.25 122.176 199.211 125.803 205.909 127.083C208.653 127.607 211.517 127.765 214.307 127.886C214.326 128.267 214.338 128.854 214.391 129.213C213.215 129.945 210.07 131.279 208.634 131.966C203.859 134.255 199.069 136.512 194.264 138.736C181.002 144.929 167.666 151.432 154.251 157.261C164.841 149.455 169.195 138.419 167.455 125.427Z" fill="#DB4431"/>
<path d="M160.892 112.846C161.909 113.431 164.178 117.346 164.694 118.48C167.092 123.749 167.77 130.239 166.837 135.93C165.514 144.343 160.857 151.868 153.917 156.806C148.051 160.997 140.168 163.201 133.003 162.02C131.807 161.868 130.918 161.679 129.736 161.418C133.115 156.274 136.366 150.878 139.762 145.809C145.645 144.761 147.809 139.949 147.106 134.428C149.32 133.813 150.967 133.575 153.255 132.754C153.009 131.708 152.708 130.682 152.414 129.65C151.553 129.883 150.599 130.091 149.725 130.3C153.092 124.679 157.295 118.401 160.892 112.846Z" fill="#FEFEFE"/>
<path d="M252.079 152.69C253.375 152.659 254.785 152.502 255.844 153.282C256.235 154.066 256.043 161.359 256.031 162.932C254.169 163.063 251.87 163.047 249.928 163.122L230.648 163.694L187.627 165.096C182.297 165.281 177.006 165.337 171.658 165.58C170.289 165.637 168.897 165.671 167.538 165.831C172.64 163.349 177.682 160.982 182.878 158.666C185.998 157.274 189.572 155.311 192.8 154.194C193.618 153.911 197.138 153.904 198.247 153.878L207.097 153.666L252.079 152.69Z" fill="#FEFEFE"/>
<path d="M249.843 182.682L251.528 182.665C252.505 184.069 253.452 185.938 254.519 187.51C239.253 187.915 223.715 187.641 208.435 187.717C180.728 187.997 153.021 188.125 125.313 188.102C123.578 188.106 121.88 188.095 120.147 188.195C122.494 187.047 126.1 185.005 128.548 184.437C129.039 184.324 132.273 184.267 132.973 184.248C135.99 184.169 139.009 184.117 142.027 184.093L166.846 183.812L218.073 183.056C228.617 182.909 239.321 182.995 249.843 182.682Z" fill="#FEFEFE"/>
<path d="M192.546 200.284L204.857 200.179C204.974 205.998 204.908 212.292 204.858 218.122L186.721 218.12L174.538 218.164C174.621 212.273 174.487 206.374 174.578 200.514L192.546 200.284Z" fill="#FEFEFE"/>
<path d="M45.4444 203.691C45.5881 204.089 44.9486 205.976 44.8542 206.557C44.6668 207.713 44.5716 208.813 44.55 209.985C44.4919 214.18 45.2965 218.342 46.9142 222.213C50.5869 231.05 58.3933 238.518 67.2119 242.179C73.893 244.952 82.4397 245.663 89.218 242.801C87.0108 244.927 84.6991 246.745 81.991 248.195C63.3049 257.534 37.6554 238.988 38.0974 218.812C38.2062 213.835 41.7651 206.964 45.4444 203.691Z" fill="#FEFEFE"/>
<path d="M201.072 165.368C202.404 165.29 203.85 165.288 205.192 165.261C205.245 167.274 205.137 169.799 205.107 171.856C205.052 175.432 205.032 179.008 205.049 182.585L178.358 182.938L174.543 183.005C174.631 177.404 174.664 171.802 174.642 166.199C183.235 165.771 192.454 165.568 201.072 165.368Z" fill="#FEFEFE"/>
<path d="M181.729 80.0852C183.943 79.8687 186.941 77.9436 189.423 77.2451C183.25 83.3943 179.716 89.34 179.689 98.357C179.685 99.5757 179.744 100.794 179.866 102.006L168.629 107.05C167.18 107.691 164.545 108.941 163.162 109.398L177.019 87.597C178.094 85.8939 179.156 84.1821 180.203 82.462C180.466 82.036 181.473 80.3793 181.729 80.0852Z" fill="#DB4431"/>
<path d="M126.977 20.6143C128.846 21.5022 131.858 23.4283 133.73 24.5604L145.703 31.8233L176.278 50.6011C178.224 51.8169 180.285 52.9686 182.205 54.1867C180.676 57.0542 179.128 59.3697 177.259 62.0122C175.629 63.0352 173.906 65.4605 172.159 66.6628C170.924 67.5136 169.672 68.4592 168.426 69.3403C161.83 74.0053 150.13 75.4471 142.828 71.6981C143.159 71.1815 143.177 70.9535 143.729 71.1113C145.022 71.4803 146.302 71.86 147.622 72.1239C151.832 72.9365 156.172 72.7907 160.318 71.6968C169.889 69.0716 175.629 62.8755 180.375 54.5674L145.749 33.3974C141.811 30.9372 137.855 28.5057 133.881 26.1033C131.893 24.9013 129.424 23.367 127.389 22.3108C125.346 25.5502 123.863 27.9904 122.733 31.7047C120.026 40.6028 121.114 50.6734 126.682 58.2755C127.336 59.1681 128.367 60.3006 128.874 61.2511L128.74 61.5785C127.646 61.4649 125.862 58.9666 125.247 58.0948C120.316 51.0762 119.304 42.0926 120.956 33.8242C121.386 31.673 122.532 29.26 122.818 27.33C123.999 25.2369 125.6 22.6163 126.977 20.6143Z" fill="#FEFEFE"/>
<path d="M182.72 78.4749C186.386 77.1051 190.689 75.0235 194.221 73.6134C196.337 72.7691 209.181 66.6895 210.284 66.962L210.321 67.2209C209.554 67.9778 208.257 68.1095 208.228 68.8304C210.393 72.8312 212.105 76.5567 214.108 80.5931L226.704 106.188L231.207 115.341C231.751 116.424 232.706 118.442 233.308 119.428C233.895 119.28 234.16 119.155 234.733 119.269C234.655 119.776 232.17 120.832 231.591 121.083C225.786 123.6 220.173 126.67 214.391 129.212C214.338 128.854 214.326 128.266 214.307 127.885C219.139 125.126 226.677 121.762 231.688 119.516C230.567 116.421 227.343 110.476 225.777 107.227L210.815 76.8244C209.602 74.3223 208.258 71.8667 207.108 69.3396C201.236 72.0266 195.341 74.662 189.423 77.2448C186.941 77.9433 183.943 79.8685 181.729 80.0849C182.039 79.5603 182.368 78.9647 182.72 78.4749Z" fill="#FEFEFE"/>
<path d="M209.966 146.384C218.092 149.368 225.326 150.184 233.972 150.785C236.461 150.958 239.396 150.91 241.787 151.13L241.957 151.147L241.782 151.162C240.738 151.249 238.918 151.033 238.205 151.396L238.107 151.65C238.432 152.191 239.517 152.188 240.134 152.261C238.863 152.416 236.283 152.399 234.898 152.429C231.257 152.514 227.616 152.58 223.975 152.628C214.144 152.906 204.312 153.125 194.478 153.284C195.278 152.866 196.155 152.489 196.986 152.134C201.333 150.279 205.614 148.215 209.966 146.384Z" fill="#DB4431"/>
<path d="M129.522 161.75C133.618 163.386 139.586 162.972 143.838 162.14C140.555 163.844 136.659 165.64 133.297 167.285C129.814 168.934 126.322 170.563 122.821 172.171C124.998 168.661 127.232 165.187 129.522 161.75Z" fill="#DB4431"/>
<path d="M228.88 140.52C227.432 140.337 225.521 140.658 224.092 140.339C224.793 139.983 226.172 140.298 226.991 140.375C230.776 140.73 236.127 139.555 239.75 140.349C242.536 140.413 245.487 140.257 248.293 140.241C249.838 143.93 250.851 148.146 252.482 151.971C248.781 152.253 243.929 152.208 240.134 152.261C239.517 152.188 238.432 152.19 238.107 151.65L238.205 151.396C238.918 151.032 240.738 151.249 241.782 151.162L241.957 151.146C244.753 151.013 247.518 151.227 250.594 151.033C249.539 147.558 248.493 144.509 247.27 141.097C238.113 141.111 228.637 141.806 219.479 141.909C223.986 139.751 224.094 140.952 228.88 140.52Z" fill="white"/>
<path d="M228.88 140.52C227.432 140.337 225.521 140.658 224.092 140.339C224.793 139.983 226.172 140.298 226.991 140.375C230.776 140.73 236.127 139.555 239.75 140.349C236.961 140.412 231.546 140.685 228.88 140.52Z" fill="#1B1A1B"/>
</g>
<defs>
<clipPath id="clip0_842_3558">
<rect width="273" height="273" fill="white"/>
</clipPath>
</defs>
</svg>
