<svg width="273" height="273" viewBox="0 0 273 273" fill="none" xmlns="http://www.w3.org/2000/svg">
<g clip-path="url(#clip0_842_3602)">
<path d="M0 0H273V273H170.863H169.761H0V0Z" fill="#F7F7F7"/>
<path d="M129.74 36.7139C156.08 34.9551 182.029 43.8097 201.799 61.3028C222.322 79.1915 234.809 104.567 236.461 131.742C237.787 158.043 228.707 183.81 211.185 203.47C207.991 206.985 204.535 210.252 200.845 213.242C183.703 227.458 162.433 235.767 140.194 236.938C114.337 238.131 89.0459 229.124 69.7634 211.856C49.7801 194.016 37.7561 168.929 36.3665 142.177C35.5374 125.954 38.6334 109.769 45.3921 94.9972C46.4289 92.7346 47.2919 91.0003 48.506 88.8873C49.0197 87.9933 51.5983 83.8597 51.8084 83.2918C52.437 82.6069 54.8681 78.878 55.709 77.7196C57.5238 75.2186 59.5062 73.0138 61.322 70.612C63.5055 68.3485 65.2581 66.1091 67.6629 63.887C80.8783 51.6745 93.9551 44.8287 111.005 39.851C115.061 38.7376 119.293 37.8954 123.463 37.3217C125.5 37.0413 127.696 36.9815 129.74 36.7139Z" fill="#FEFEFF"/>
<path d="M133.029 40.0409C186.495 38.2152 231.317 80.0791 233.14 133.545C234.964 187.011 193.098 231.831 139.632 233.653C86.1692 235.475 41.3516 193.612 39.5281 140.148C37.7045 86.6855 79.5658 41.8663 133.029 40.0409Z" fill="#1B1A1B"/>
<path d="M131.169 51.9526C177.941 49.1135 218.163 84.7198 221.018 131.491C223.873 178.262 188.281 218.496 141.511 221.367C94.7176 224.24 54.4599 188.627 51.6033 141.833C48.7469 95.0386 84.3742 54.793 131.169 51.9526Z" fill="#DB4431"/>
<path d="M133.148 56.6013C177.378 54.7942 214.694 89.192 216.486 133.422C218.278 177.652 183.868 214.956 139.638 216.734C95.428 218.511 58.1451 184.12 56.3536 139.911C54.562 95.7021 88.94 58.4075 133.148 56.6013Z" fill="#1B1A1B"/>
<path d="M132.671 57.7685C176.195 55.6984 213.166 89.2838 215.273 132.806C217.379 176.329 183.824 213.328 140.303 215.47C96.7314 217.615 59.6796 184.013 57.5706 140.439C55.4617 96.8651 89.0954 59.8411 132.671 57.7685Z" fill="#FEFEFF"/>
<path d="M163.821 82.132C164.914 82.2477 165.786 82.5223 166.299 83.5828C165.828 84.112 165.324 87.503 165.497 88.2569C159.633 99.8269 153.217 111.344 147.251 122.891C146.2 124.952 145.129 127.002 144.037 129.042C143.172 130.644 142.004 132.671 141.29 134.324C141.909 135.967 142.263 136.841 142.153 138.639C141.054 138.399 138.91 137.221 138.007 137.748C137.665 138.877 139.981 140.22 140.617 140.918C137.616 144.322 133.099 143.393 131.147 139.38C127.435 138.703 122.962 137.593 119.185 136.798C114.491 135.846 109.805 134.848 105.13 133.805C103.57 133.46 99.7117 132.78 98.3704 132.065C96.0633 130.836 96.119 126.867 99.2923 126.135C100.754 125.952 104.575 127.029 106.288 127.392C110.372 128.228 114.45 129.095 118.521 129.993C122.815 130.929 128.594 131.928 132.748 133.054L132.959 132.867C133.998 131.855 134.577 131.666 136.025 131.531C136.88 129.764 137.933 127.856 138.853 126.105C139.09 125.421 140.793 122.258 141.197 121.43C143.469 116.761 146.068 112.18 148.468 107.592L155.785 93.6201C156.631 91.9845 158.74 87.6365 159.595 86.3392C160.415 84.4154 161.443 82.0717 163.821 82.132Z" fill="#1B1A1B"/>
<path d="M99.2925 126.135C100.754 125.951 104.575 127.029 106.288 127.392C110.372 128.228 114.45 129.095 118.521 129.993C122.815 130.929 128.594 131.927 132.748 133.053C132.756 133.045 132.537 133.319 132.459 133.312C126.778 132.854 121.219 131.212 115.669 130.033C111.245 129.092 107.214 128.848 102.871 127.169L103.09 127.166C101.811 126.622 99.69 126.355 99.2925 126.135Z" fill="#1B1A1B"/>
<path d="M138.853 126.104C139.001 128.335 137.635 130.318 136.548 132.186C135.2 132.52 133.947 132.624 132.959 132.867C133.998 131.855 134.578 131.666 136.026 131.53C136.88 129.763 137.933 127.856 138.853 126.104Z" fill="#1B1A1B"/>
<path d="M159.595 86.3392C160.416 84.4154 161.443 82.0717 163.821 82.132L163.637 82.2389C162.723 82.7638 162.427 83.0814 161.632 83.7991L161.331 83.6634C160.979 84.3083 160.223 85.7783 159.818 86.2944L159.595 86.3392Z" fill="#1B1A1B"/>
<path d="M135.533 135.497C136.065 135.257 136.686 135.322 137.157 135.666C137.628 136.011 137.877 136.583 137.809 137.162C137.741 137.742 137.366 138.241 136.828 138.467C136.011 138.811 135.069 138.434 134.715 137.621C134.36 136.808 134.725 135.862 135.533 135.497Z" fill="#FEFEFF"/>
<path d="M140.618 140.919C139.981 140.22 137.665 138.877 138.007 137.749C138.91 137.221 141.054 138.4 142.153 138.639C150.274 142.249 158.551 146.233 166.632 149.984L176.145 154.434C177.733 155.163 182.886 157.199 184.165 158.637C184.745 159.289 183.757 161.478 182.34 160.535C177.293 158.281 172.365 155.823 167.39 153.434L147.064 143.905C146.1 143.448 141.019 140.708 140.618 140.919Z" fill="#DB4431"/>
<path d="M164.175 187.688C165.216 188.778 170.324 199.743 171.373 201.763C170.118 202.375 168.867 202.995 167.62 203.624L167.461 203.623C166.737 203.034 161.202 191.147 160.616 189.672C161.871 188.898 162.874 188.36 164.175 187.688Z" fill="#1B1A1B"/>
<path d="M62.5928 130.151C67.8686 130.757 73.1489 131.323 78.4332 131.85C78.2213 133.202 78.0946 134.752 77.9512 136.126C76.3905 136.132 73.921 135.747 72.3027 135.545C68.9483 135.111 65.5897 134.712 62.2271 134.347C62.2358 133.179 62.4254 131.304 62.5928 130.151Z" fill="#1B1A1B"/>
<path d="M138.302 62.7021L142.361 62.8493C142.374 64.7251 142.221 66.9934 142.148 68.8932C142.039 72.3603 141.908 75.8267 141.755 79.292L137.699 79.136L138.123 67.3781C138.18 65.9006 138.165 64.1506 138.302 62.7021Z" fill="#1B1A1B"/>
<path d="M174.218 74.0215C175.173 74.7019 176.557 75.7525 177.528 76.3332C174.874 80.0395 171.609 85.0212 169.305 88.965C168.349 88.4857 166.808 87.3356 166.049 87.419C165.749 87.6246 165.659 87.9194 165.497 88.2575C165.325 87.5035 165.828 84.1126 166.299 83.5834C166.533 84.0988 166.589 84.2827 166.643 84.8458L166.886 85.0129C168.419 82.3483 172.346 76.5318 174.218 74.0215Z" fill="#1B1A1B"/>
<path d="M75.3203 94.7139C79.634 97.1365 84.1393 100.276 88.5211 102.704C88.0812 103.627 86.9157 105.384 86.3358 106.315C85.4134 105.904 82.7929 104.216 81.8342 103.624L73.1553 98.2535L75.3203 94.7139Z" fill="#1B1A1B"/>
<path d="M105.105 69.8584C105.452 70.2316 107.171 73.4964 107.519 74.1403L112.509 83.3778C111.2 83.9816 110.144 84.5676 108.915 85.3088C108.475 84.5937 108.003 83.6945 107.62 82.9429C105.688 79.1537 103.396 75.5565 101.311 71.8667C102.579 71.2045 103.844 70.535 105.105 69.8584Z" fill="#1B1A1B"/>
<path d="M130.928 194.443C132.268 194.619 133.564 194.73 134.917 194.927C134.849 199.568 134.268 205.505 133.957 210.275C132.663 210.214 131.242 210.053 129.943 209.934C129.963 208.108 130.175 205.726 130.294 203.872C130.484 200.728 130.696 197.585 130.928 194.443Z" fill="#1B1A1B"/>
<path d="M195.244 137.899C199.364 138.014 206.381 138.797 210.48 139.289C210.347 140.591 210.251 141.897 210.192 143.205C205.24 142.824 199.809 142.183 194.919 141.929C194.989 140.583 195.098 139.239 195.244 137.899Z" fill="#1B1A1B"/>
<path d="M103.323 185.018C103.994 185.39 106.05 186.89 106.773 187.395C105.396 189.028 99.7451 198.703 98.7416 199.208C97.4596 198.728 96.3654 198.123 95.1606 197.487C95.4539 196.931 95.7978 196.401 96.1431 195.876C98.5262 192.253 100.8 188.546 103.323 185.018Z" fill="#1B1A1B"/>
<path d="M187.153 167.268C188.229 168.053 189.332 168.796 190.457 169.509C193.392 171.368 196.21 173.405 199.184 175.204C198.708 176.385 197.733 177.822 197.015 178.868C195.712 178.179 192.605 175.998 191.264 175.078C189.383 173.787 186.671 172.074 184.968 170.705C185.795 169.569 186.451 168.477 187.153 167.268Z" fill="#1B1A1B"/>
<path d="M82.5626 161.703L82.6708 161.741C83.2731 162.562 84.4186 164.256 84.8108 165.148C80.6924 167.407 76.5238 170.073 72.3053 172.403L72.1702 172.434C71.6852 172.213 70.4437 169.651 70.0981 169.001C73.3432 166.809 79.0205 163.771 82.5626 161.703Z" fill="#1B1A1B"/>
<path d="M200.451 101.426C201.145 101.547 202.406 103.935 202.807 104.62C201.524 105.508 199.366 106.668 197.951 107.508C195.531 108.945 192.985 110.542 190.536 111.896C190.323 111.971 190.45 111.955 190.154 111.869C189.296 110.657 188.859 109.809 188.307 108.433C188.939 108.033 189.653 107.63 190.309 107.261C193.63 105.39 196.973 102.977 200.451 101.426Z" fill="#1B1A1B"/>
<path d="M120.575 23.8877C124.132 21.5727 127.662 19.2171 131.165 16.8213C132.723 15.7654 134.808 14.2292 136.374 13.3008C137.92 14.6811 139.28 16.2088 140.752 17.6569C142.932 19.8012 145.039 22.0049 147.182 24.1814C151.577 28.6451 156.233 32.8574 160.557 37.3955C160.976 37.8354 161.429 38.2464 161.812 38.7186C164.783 39.2539 168.259 40.524 171.127 41.5784C189.679 48.3965 203.852 59.7135 216.269 74.7837L216.438 74.6975C218.689 73.544 221.042 71.2299 223.719 72.0083C226.214 72.6906 227.543 75.4704 228.775 77.5201C229.938 79.4527 231.096 81.5713 232.277 83.4733C234.221 86.6042 237.159 90.5603 232.814 93.3015C231.524 94.116 230.207 94.8081 228.897 95.5554C230.864 100.55 232.679 104.799 234.149 110.045C238.574 125.83 239.128 145.013 234.828 160.89C235.611 163.104 236.238 165.303 236.98 167.515C238.204 171.163 239.485 174.81 240.748 178.446L244.225 188.468C244.722 189.913 245.405 191.677 245.822 193.113C242.967 195.283 240.087 197.419 237.183 199.522C235.55 200.699 232.627 202.668 231.299 203.987C233.143 207.492 235.339 210.894 237.386 214.293C239.101 217.142 240.748 220.106 242.525 222.901C239.391 226.863 236.023 230.633 232.438 234.192C222.041 244.758 210.215 253.816 197.306 261.102C193.215 263.446 188.123 266.162 183.77 267.961C179.554 269.854 175.246 271.536 170.863 273H169.762C167.959 271.027 166.391 268.678 164.834 266.499L157.075 255.641C155.819 253.881 154.05 251.224 152.717 249.609C152.293 249.584 152.257 249.705 151.813 249.952L141.799 256.595C140.151 257.713 138.361 258.841 136.805 260.058C135.294 258.863 131.437 254.831 129.941 253.339C125.361 248.742 120.719 244.208 116.015 239.738C115.296 239.067 111.94 235.701 111.445 235.459C110.116 234.81 106.183 233.849 104.5 233.3C101.701 232.397 98.9439 231.368 96.2382 230.216C77.334 221.984 61.3576 208.233 50.4027 190.766C39.1526 172.804 33.8257 151.763 35.1736 130.612C35.5655 124.506 36.5168 118.927 37.8287 112.942C35.8838 107.442 34.1608 101.315 32.3794 95.7183C30.7638 90.6422 28.6059 84.9505 27.2041 79.8816C30.3305 77.7213 33.4738 75.5851 36.6333 73.473C38.2126 72.4154 40.7656 70.8241 42.1042 69.6897C42.4497 70.0046 42.5417 70.3018 42.7376 70.7263C45.0693 74.3568 47.2587 78.114 49.5331 81.7833C49.8135 82.2357 50.0908 82.7905 50.3928 83.2165C51.0159 83.2477 50.8221 83.4381 51.4862 83.4639L51.6411 83.1486L51.8082 83.2917C51.5981 83.8596 49.0196 87.9932 48.5058 88.8871C47.2917 91.0002 46.4287 92.7345 45.3919 94.9971C38.6333 109.769 35.5373 125.954 36.3664 142.177C37.7559 168.929 49.7799 194.016 69.7633 211.856C89.0458 229.124 114.337 238.131 140.194 236.938C162.433 235.767 183.702 227.458 200.845 213.242C204.535 210.252 207.991 206.985 211.185 203.47C228.707 183.81 237.787 158.043 236.461 131.742C234.809 104.567 222.322 79.1914 201.799 61.3027C182.029 43.8096 156.08 34.955 129.74 36.7138C129.984 36.0369 129.913 36.0659 129.584 35.5239L129.405 35.5268C128.881 35.043 127.741 33.4354 127.246 32.803C125.219 30.21 123.386 27.6469 121.587 24.8919L121.462 24.8921C121.038 24.71 120.838 24.2887 120.575 23.8877Z" fill="#1B1A1B"/>
<path d="M144.475 237.946C147.519 237.447 150.603 237.127 153.63 236.498C155.937 236.019 158.207 235.377 160.523 234.898C162.058 236.545 164.952 240.942 166.466 243.003C172.272 250.902 177.945 258.898 183.48 266.988C183.733 267.358 183.735 267.524 183.77 267.961C179.554 269.854 175.246 271.536 170.863 273H169.761C167.959 271.027 166.391 268.678 164.834 266.499L157.074 255.641C155.819 253.881 154.05 251.224 152.717 249.609C152.293 249.584 152.257 249.705 151.813 249.952C152.023 249.269 151.972 249.508 151.632 248.678L151.736 248.488C151.549 247.619 145.432 239.634 144.475 237.946Z" fill="#1B1A1B"/>
<path d="M212.723 203.411C214.93 200.964 216.824 198.451 218.81 195.854C219.573 194.857 222.209 190.509 222.798 190.071C223.669 191.879 225.385 194.55 226.505 196.315C227.804 198.362 229.274 200.872 230.633 202.852C230.777 203.302 231.072 203.542 231.298 203.988C233.143 207.492 235.339 210.894 237.385 214.294C239.1 217.143 240.748 220.107 242.525 222.902C239.391 226.863 236.023 230.634 232.438 234.193C231.827 233.769 230.84 231.851 230.414 231.133C229.488 229.556 228.523 228.002 227.52 226.473L212.723 203.411Z" fill="#1B1A1B"/>
<path d="M42.7376 70.7266C45.0693 74.3571 47.2587 78.1144 49.533 81.7836C49.8135 82.236 50.0908 82.7908 50.3928 83.2168C44.5815 92.4695 41.4438 100.378 38.3875 110.715C36.4706 104.174 34.14 97.4768 32.0773 90.964C30.993 87.5406 29.5944 83.8564 28.6733 80.4082C33.2834 77.0815 38.0825 74.0116 42.7376 70.7266Z" fill="#FEFEFF"/>
<path d="M234.217 163.252C237.209 172.978 241.471 183.164 244.328 192.771C239.717 196.068 235.152 199.429 230.633 202.852C229.274 200.872 227.804 198.362 226.505 196.315C225.385 194.55 223.669 191.879 222.798 190.071C227.967 181.024 231.558 173.482 234.217 163.252Z" fill="#FEFEFF"/>
<path d="M121.587 24.8922C126.486 21.6502 131.327 18.3204 136.107 14.9043C137.901 16.5498 139.692 18.3436 141.402 20.0845C147.309 26.1017 153.468 31.923 159.308 37.9996C157.432 37.5512 154.936 36.9012 153.081 36.589C145.738 35.3536 136.991 34.8305 129.584 35.5242L129.405 35.5272C128.881 35.0433 127.741 33.4357 127.246 32.8033C125.219 30.2103 123.386 27.6472 121.587 24.8922Z" fill="#FEFEFF"/>
<path d="M114.289 236.026C121.352 237.257 127.689 238.477 134.95 238.366C138.222 238.316 141.208 238.151 144.475 237.946C145.432 239.634 151.549 247.619 151.737 248.489L151.633 248.679C150.491 249.286 148.311 250.791 147.123 251.566L136.906 258.369C131.19 253.271 125.987 247.268 120.323 242.081C118.375 240.298 115.873 238.084 114.289 236.026Z" fill="#FEFEFF"/>
<path d="M230.896 83.835C231.528 84.2882 232.435 86.108 232.842 86.8769L226.405 90.3782L226.265 90.3552C225.838 89.8628 224.941 88.1296 224.581 87.4749C226.828 86.1573 228.447 84.8864 230.896 83.835Z" fill="#FEFEFF"/>
<path d="M226.079 75.5703C226.775 76.2485 227.53 77.7514 227.974 78.6178C225.704 79.8319 224.024 81.0236 221.568 82.1071C221.177 81.7205 219.981 79.7826 219.617 79.2089C221.891 78.0193 223.876 76.8705 226.079 75.5703Z" fill="#FEFEFF"/>
<path d="M228.591 79.7236C229.202 80.3616 229.942 81.9399 230.332 82.744C228.144 83.9143 226.14 85.1023 224.005 86.3647C223.345 85.3164 222.709 84.2529 222.099 83.1753C224.223 82.1329 226.485 80.8514 228.591 79.7236Z" fill="#FEFEFF"/>
<path d="M233.376 87.9697L233.566 88.1289C234.053 89.3779 233.774 90.3233 233.38 91.5576C232.333 92.0698 228.999 94.2434 228.294 94.3228L228.09 94.0328C227.638 93.1447 227.26 92.3335 226.854 91.423C228.622 90.3577 231.513 88.8844 233.376 87.9697Z" fill="#FEFEFF"/>
<path d="M222.096 73.083C222.976 73.1681 224.082 73.3544 224.793 73.894C225.289 74.8911 223.937 75.456 223.188 75.8914C222.053 76.5523 220.891 77.1868 219.743 77.8277L218.913 78.2841C218.288 77.3878 217.798 76.6728 217.251 75.7314C218.424 74.862 220.754 73.6386 222.096 73.083Z" fill="#FEFEFF"/>
<path d="M39.7967 39.6254C53.2819 25.9461 71.3628 13.5777 88.8743 5.54395C89.1516 6.24607 93.1103 11.4537 93.9786 12.6522L106.443 29.9557C108.398 32.6631 110.679 35.5088 112.479 38.291C111.542 38.6462 110.742 38.6947 111.005 39.8517C93.9549 44.8294 80.8781 51.6752 67.6627 63.8877C65.2579 66.1099 63.5053 68.3493 61.3218 70.6127C59.506 73.0146 57.5236 75.2194 55.7088 77.7203C54.8679 78.8787 52.4368 82.6077 51.8081 83.2926L51.641 83.1494L51.4861 83.4648C50.822 83.4389 51.0158 83.2486 50.3928 83.2174C50.0907 82.7914 49.8134 82.2366 49.533 81.7842C47.2586 78.1149 45.0693 74.3577 42.7376 70.7271C42.5416 70.3027 42.4496 70.0054 42.1041 69.6906C38.4453 63.0738 34.02 56.7497 30.3057 50.2007C30.7762 49.6651 31.2676 49.0359 31.7064 48.471C34.1778 45.2904 36.9739 42.4903 39.7967 39.6254Z" fill="#1B1A1B"/>
<path d="M39.7967 39.625C40.444 40.047 41.1513 41.3664 41.6205 42.0655C42.6637 43.6192 43.7219 45.1628 44.7952 46.6958C49.0296 52.6914 53.3107 58.6993 57.4964 64.725C58.3204 65.9114 60.9646 69.1066 61.437 70.056C61.4005 70.2258 61.3466 70.4447 61.3218 70.6124C59.506 73.0142 57.5236 75.219 55.7088 77.72C54.8679 78.8783 52.4368 82.6073 51.8081 83.2922L51.641 83.149L51.4861 83.4644C50.822 83.4386 51.0158 83.2482 50.3928 83.217C50.0907 82.791 49.8134 82.2362 49.533 81.7838C47.2586 78.1145 45.0693 74.3573 42.7376 70.7267C42.5416 70.3023 42.4496 70.005 42.1041 69.6902C38.4453 63.0734 34.02 56.7493 30.3057 50.2003C30.7762 49.6647 31.2676 49.0355 31.7064 48.4706C34.1778 45.29 36.9739 42.4899 39.7967 39.625Z" fill="#1B1A1B"/>
<path d="M88.8745 5.54371C91.2851 4.41279 93.7117 3.31642 96.1535 2.2549C98.2802 1.31313 102.445 -1.247 104.188 1.22221C107.876 6.44584 111.707 11.5595 115.419 16.7633C116.553 18.3344 117.695 19.8993 118.846 21.4578C119.21 21.9543 120.326 23.4322 120.575 23.8884C120.838 24.2893 121.038 24.7106 121.462 24.8927L121.587 24.8925C123.387 27.6475 125.219 30.2107 127.246 32.8036C127.741 33.436 128.881 35.0436 129.405 35.5275L129.584 35.5246C129.913 36.0666 129.984 36.0375 129.74 36.7144C127.696 36.9821 125.5 37.0418 123.463 37.3223C119.293 37.896 115.061 38.7382 111.005 39.8515C110.742 38.6944 111.542 38.6459 112.479 38.2908C110.68 35.5086 108.398 32.6629 106.443 29.9555L93.9789 12.652C93.1106 11.4534 89.1518 6.24584 88.8745 5.54371Z" fill="#1B1A1B"/>
</g>
<defs>
<clipPath id="clip0_842_3602">
<rect width="273" height="273" fill="white"/>
</clipPath>
</defs>
</svg>
