<svg width="273" height="273" viewBox="0 0 273 273" fill="none" xmlns="http://www.w3.org/2000/svg">
<path d="M92.877 7.97871C93.8197 5.22132 96.8033 3.73952 99.5641 4.6576L240.763 51.612C243.758 52.608 245.228 55.9884 243.915 58.864L215.972 120.112C215.109 122.003 213.225 123.216 211.149 123.216L60.9037 123.216C57.2658 123.216 54.7081 119.629 55.8871 116.181L92.877 7.97871Z" fill="#1B1A1B"/>
<path d="M241.731 92H45.5256C39.6683 92 34.9199 96.7578 34.9199 102.627V252.731C34.9199 258.6 39.6683 263.358 45.5256 263.358H241.731C247.589 263.358 252.337 258.6 252.337 252.731V102.627C252.337 96.7578 247.589 92 241.731 92Z" fill="#1B1A1B"/>
<path d="M80.2465 10.8507C81.0712 8.43803 83.6813 7.14166 86.0968 7.94488L227.295 54.8992C229.916 55.7706 231.202 58.7278 230.054 61.244L202.111 122.492C201.356 124.147 199.707 125.209 197.892 125.209L47.646 125.209C44.4629 125.209 42.2247 122.071 43.2558 119.053L80.2465 10.8507Z" fill="white" stroke="#1B1A1B"/>
<path d="M217.144 62.253L153.743 231.946L24.1064 183.317L87.5065 13.625L217.144 62.253ZM152.966 230.236L210.238 76.9453C200.37 72.7944 194.582 63.753 196.695 56.0009L106.668 22.231C103.127 29.256 93.1244 32.1395 83.201 28.9378L25.8128 182.539L152.966 230.236ZM64.0902 100.527C76.54 67.2051 113.591 50.3053 146.847 62.7795C180.104 75.2542 196.971 112.38 184.521 145.702C172.071 179.024 135.019 195.924 101.763 183.449C68.5072 170.974 51.6405 133.849 64.0902 100.527Z" fill="#1B1A1B"/>
<path d="M111.096 90.4272L115.567 80.8196C116.521 78.7711 117.738 77.1771 119.218 76.0378C120.711 74.8726 122.371 74.2276 124.198 74.1028C126.038 73.9521 127.953 74.3421 129.945 75.2727C131.856 76.1656 133.324 77.341 134.349 78.7988C135.387 80.2307 135.938 81.8617 136.003 83.6921C136.042 85.5096 135.585 87.4428 134.631 89.4913L128.132 103.455L124.257 101.644L130.629 87.9526C131.522 86.0337 131.729 84.3937 131.248 83.0327C130.741 81.6589 129.545 80.5319 127.661 79.6516C125.723 78.746 124.068 78.5723 122.694 79.1301C121.332 79.6619 120.199 80.9002 119.294 82.8451L117.013 87.7462L141.436 99.1591L139.354 103.632L111.096 90.4272ZM131.483 105.021L141.458 83.5888L143.476 84.532L133.501 105.964L131.483 105.021Z" fill="#DB4431"/>
<path d="M228.476 99.3066L32.27 99.3066C26.7787 99.3066 22.3271 103.767 22.3271 109.269L22.3271 259.374C22.3271 264.876 26.7787 269.337 32.27 269.337H228.476C233.967 269.337 238.419 264.876 238.419 259.374V109.269C238.419 103.767 233.967 99.3066 228.476 99.3066Z" fill="#F3F1F2" stroke="#1B1A1B"/>
<path d="M239.08 134.508H21.6631V235.463H239.08V134.508Z" fill="white" stroke="#1B1A1B"/>
<path d="M119.102 191.627C123.862 191.627 127.72 187.761 127.72 182.993C127.72 178.224 123.862 174.358 119.102 174.358C114.343 174.358 110.485 178.224 110.485 182.993C110.485 187.761 114.343 191.627 119.102 191.627Z" fill="#1B1A1B"/>
<path d="M239.08 163.731H119.103C108.486 163.731 99.8799 172.355 99.8799 182.993C99.8799 193.63 108.486 202.254 119.103 202.254H238.441" stroke="#1B1A1B"/>
</svg>
