<svg width="1535" height="733" viewBox="0 0 1535 733" fill="none" xmlns="http://www.w3.org/2000/svg">
<path d="M1264.53 2.29765C1345.55 -1.35517 1453.87 -0.344934 1535 3.16812C1505.25 129.194 1468.71 246.541 1432.96 370.483C1397.88 492.093 1364.16 611.696 1327.46 732.995C1282.72 731.68 1097.23 734.901 1073.55 730.949C989.886 618.659 917.356 494.355 831.997 383.023C796.103 496.21 763.275 617.757 730.277 732.322C639.637 731.528 536.551 728.485 447 732.303C515.602 495.88 579.741 235.78 657.049 4.27977C745.58 4.77529 834.112 4.07032 922.625 2.17086L928.492 3.01574C949.737 24.7802 991.617 90.1435 1011.15 118.966L1165.24 348.083C1200.4 243.994 1230.33 112.149 1264.53 2.29765Z" fill="#DB4431" fill-opacity="0.3"/>
<path d="M207.345 0L511 0.622061C437.156 239.772 371.831 491.253 300.611 733C202.006 731.209 98.2431 729.158 0 732.511C71.1939 491.825 138.316 242.013 207.345 0Z" fill="#DB4431" fill-opacity="0.3"/>
</svg>
