<svg width="310" height="124" viewBox="0 0 310 124" fill="none" xmlns="http://www.w3.org/2000/svg">
<path d="M85.5167 16.9883C87.6955 17.0227 93.1011 19.4788 94.975 20.8824C105.079 18.6076 115.39 17.3767 125.746 17.2089C144.243 16.809 161.487 19.1705 179 25.4847C187.678 28.6134 195.664 32.7097 203.807 36.9756C207.513 38.89 211.165 40.9066 214.759 43.0226C217.189 44.4283 220.887 46.7541 223.354 47.8063C224.252 48.1893 229.481 48.0276 230.788 48.0618C234.057 48.1473 237.76 48.0222 241.05 48.2126C250.802 48.777 260.702 50.8008 270.038 53.6227C274.56 54.9896 281.323 56.6704 284.674 60.0451C289.286 64.691 290.013 70.7455 289.913 77.0147C289.842 81.4251 290.074 86.8152 289.649 91.254C289.46 92.0575 288.905 93.0523 288.272 93.5859C283.183 97.8742 274.408 96.8978 268.167 96.8836C265.832 104.088 258.531 109.685 251.289 111.332C261.967 110.889 272.936 111.405 283.64 111.166C286.518 111.102 289.698 111.059 292.557 111.148C292.815 111.538 292.703 111.366 292.698 111.972C292.237 112.273 290.542 112.164 289.882 112.167C286.51 112.183 283.137 112.193 279.764 112.204L229.397 112.123L133.612 112.139C122.47 112.152 31.6781 112.561 30.6858 112.098C30.5759 111.737 30.5838 111.864 30.6846 111.477C31.5355 111.029 33.2763 111.208 34.2662 111.193C44.8692 111.028 55.7507 111.527 66.3255 111.167C55.9272 108.256 50.2975 100.793 48.5522 90.401C47.6331 90.8009 47.2008 90.7453 46.2221 90.5996C39.5468 89.6066 32.9869 88.2986 26.7939 85.5378C20.3576 82.6684 18.5315 78.0328 18.3491 71.2969C18.2524 67.7284 18.2356 64.7085 20.2361 61.5611C21.3323 59.8383 22.8562 58.5733 23.8356 56.784C25.353 53.9643 26.4659 50.9553 27.8175 48.0548C28.809 45.927 30.337 45.5893 32.441 45.0906C36.8316 44.0549 41.6753 43.4848 45.9315 41.9377C50.2745 40.3591 54.7964 37.9665 58.95 35.9128C64.101 33.3476 69.3029 30.886 74.5532 28.53C78.7473 26.6473 83.021 24.7632 87.4115 23.3805C86.4776 21.0719 84.8232 19.3413 85.5167 16.9883Z" fill="#1E1E1E"/>
<path d="M123.851 18.1919C124.176 18.1746 124.501 18.1598 124.825 18.1471C147.205 17.2998 169.47 21.7308 189.814 31.0806C198.684 35.0708 207.236 40.031 215.73 44.7513C217.85 45.929 220.956 48.0323 223.17 48.8068C224.505 49.2738 229.125 49.0915 230.715 49.0936C233.868 49.0686 237.021 49.1133 240.171 49.2273C251.949 49.714 262.535 52.164 273.719 55.8664C276.325 56.7289 280.448 57.8978 282.432 59.7255C276.746 59.6172 269.63 58.8763 264.619 61.3941C266.181 62.6679 267.776 63.7393 269.327 65.1044C271.378 66.9094 274.552 70.6236 277.309 71.0504C280.833 71.5964 285.023 71.3999 288.637 71.4268C289.257 75.7087 288.866 80.6681 288.832 84.9938C288.815 87.2483 289.343 91.383 287.502 92.8969C283.252 96.3925 275.639 95.8853 270.403 95.8762C272.223 85.3484 269.911 76.086 261.114 69.3664C250.697 61.4089 235.188 63.7269 227.535 74.3251C222.816 80.8588 222.256 88.3365 223.627 96.0567C204.536 95.7281 185.038 96.0639 165.921 96.0869L95.8185 96.1244C96.1285 87.4617 96.3005 80.6433 90.3911 73.4642C81.6645 62.8629 66.3831 61.4543 55.8794 70.3313C49.6058 75.6337 47.9163 81.808 47.2154 89.6599C45.1753 89.4447 42.1637 88.9852 40.1675 88.5079C33.4492 86.9019 25.2703 85.5083 21.1499 79.4879C23.6843 79.477 26.0843 79.9253 28.5652 79.237C30.1661 78.793 33.5355 75.2664 32.8564 73.612C31.8317 73.0643 21.517 73.0676 19.4959 72.9969C19.2078 70.7663 19.1827 67.7954 19.7092 65.6007C20.1956 63.7272 20.9715 62.1556 22.0645 60.5725C25.1726 60.4881 43.0958 60.8878 44.2883 60.2551C44.8381 59.5553 44.6909 58.8639 44.6434 57.9903C51.1265 57.8915 57.6104 57.8413 64.0944 57.8401C69.0265 57.8274 73.7068 57.6847 78.6202 58.1617C83.6162 58.6466 84.9013 59.2067 88.5738 62.5271C94.8928 68.1491 99.8631 76.5896 100.869 85.0395C101.273 88.4284 100.774 90.4341 105.026 90.4979C109.996 90.5722 114.978 90.5792 119.954 90.5952L154.553 90.5577C168.732 90.626 182.913 90.6194 197.092 90.5375L210.179 90.5085C211.37 90.5067 216.704 90.7376 217.337 90.1678C217.646 88.4762 217.504 79.8428 217.504 77.5206C217.576 68.6714 217.58 59.8219 217.517 50.9727C214.886 49.0622 211.589 47.1424 208.819 45.3202C196.603 37.2841 183.274 30.684 169.172 26.4057C144.202 18.9591 116.807 18.362 91.7483 25.6992C86.2046 27.3225 80.8217 29.859 75.6128 32.2945C70.2432 34.8051 64.9717 37.2884 59.7414 40.0815C61.2629 41.5609 65.6626 45.4526 67.3252 46.6203C69.8203 46.6424 72.3145 46.7128 74.8067 46.8316C75.8465 48.0411 77.1153 49.7814 78.1307 51.0673C79.9604 53.3677 81.8065 55.6554 83.6686 57.9296C78.4528 56.5693 71.1763 56.9438 65.6159 56.9335C58.5486 56.9063 51.4813 56.9257 44.4142 56.991C43.4055 54.6966 43.2363 52.157 42.2191 50.2729C40.7048 49.006 30.7297 49.5193 28.2071 49.5498C28.9969 47.756 29.1701 46.9867 31.1938 46.4456C36.0863 45.1376 41.6666 44.683 46.385 42.8387C53.2032 40.1737 59.7486 36.581 66.3561 33.4393C74.691 29.4606 84.5111 24.9129 93.3364 22.3601C102.08 19.8309 114.805 18.4657 123.851 18.1919Z" fill="white"/>
<path d="M281.425 75.7639C283.135 75.7131 285.694 75.6245 287.364 75.7878C287.652 79.0217 287.41 84.974 285.983 87.853C284.961 89.9149 283.753 90.557 281.751 91.2743C280.583 91.6341 277.688 92.5183 276.563 92.2513L276.429 92.0192C276.505 91.1809 277.24 89.6701 277.554 88.7034C277.989 87.3216 278.357 85.9196 278.655 84.5022C278.949 83.0627 279.167 81.6086 279.306 80.1462C279.404 79.1096 279.417 76.9174 279.727 76.0713C280.314 75.7857 280.774 75.8095 281.425 75.7639Z" fill="#1E1E1E"/>
<path d="M280.604 76.7632C282.484 76.7462 284.364 76.7468 286.245 76.7656C286.313 81.036 286.867 87.3206 282.61 89.7861C280.996 90.4139 279.577 90.7655 277.883 91.0923C279.664 85.155 280.096 82.9498 280.604 76.7632Z" fill="white"/>
<path d="M144.243 47.9395L189.511 49.5104C193.783 49.6501 198.056 49.7565 202.33 49.8291C207.146 49.9336 212.08 49.6673 216.527 51.7202C216.711 64.1176 216.387 76.9495 216.452 89.4268C209.755 89.526 202.766 89.4053 196.043 89.405L147.889 89.3936C147.03 81.5794 146.471 73.1201 145.75 65.237L144.775 54.2107C144.6 52.2598 144.279 49.83 144.243 47.9395Z" fill="white"/>
<path d="M152.487 54.2449C154.884 54.2014 162.258 53.2425 161.729 56.6735C161.551 57.8279 160.971 58.126 159.991 58.4268C157.676 58.4497 154.815 58.6072 152.569 58.3291C150.112 58.0253 149.692 55.1702 152.487 54.2449Z" fill="#1E1E1E"/>
<path d="M76.0945 46.777C82.1916 46.703 88.4809 46.937 94.607 46.9932C110.832 47.0775 127.056 47.3801 143.274 47.901C143.392 52.3059 143.978 57.3115 144.372 61.7576L146.829 89.4101C137.639 89.5252 128.125 89.3554 118.887 89.3838L109.453 89.4125C107.519 89.4173 105.557 89.4878 103.637 89.2698C102.123 89.0981 102.018 87.4383 101.985 86.233C101.857 81.6733 100.287 77.2493 98.1826 73.2379C95.8098 68.6737 92.5902 64.6006 88.6952 61.2361C88.186 60.7921 85.3 58.7498 85.0984 58.4182C82.5339 54.197 78.9795 50.7546 76.0945 46.777Z" fill="white"/>
<path d="M90.4345 52.7737C92.3787 52.7205 99.4463 52.0464 99.7826 54.3955C99.4563 55.462 98.9144 55.9411 97.8209 56.0593C95.3203 56.0656 91.4868 56.3208 89.051 55.7104C88.7522 55.6358 88.1927 55.0823 88.1773 54.7425C88.0971 52.9865 89.0543 52.9394 90.4345 52.7737Z" fill="#1E1E1E"/>
<path d="M92.9816 95.9824C93.5359 96.233 93.9567 96.8216 94.3696 97.2947C98.9612 97.5534 105.512 97.3297 110.245 97.3219L139.538 97.3185L225.75 97.288C228.972 104.946 234.019 108.897 241.879 111.157C236.535 111.38 229.902 111.175 224.475 111.15L124.391 111.187L91.4848 111.233C86.4922 111.251 81.0753 111.145 76.1414 111.317C85.1295 108.552 89.3276 104.431 92.9816 95.9824Z" fill="#1E1E1E"/>
<path d="M69.6484 70.9933C79.6374 70.0507 88.4978 77.3785 89.4309 87.354C90.3639 97.3293 83.0153 106.169 73.0242 107.089C63.0488 108.009 54.2132 100.685 53.2816 90.7249C52.3501 80.765 59.6748 71.9343 69.6484 70.9933Z" fill="white"/>
<path d="M82.3347 78.5254C83.4079 79.182 84.9516 82.4784 85.4181 83.6815C82.9992 84.9696 80.0545 86.0775 77.4304 86.8148C76.5549 87.0318 75.8956 87.3178 75.0833 86.9196C74.5478 86.1461 75.0624 85.4272 75.6101 84.7855C77.543 82.5195 79.941 80.2883 82.3347 78.5254Z" fill="#1E1E1E"/>
<path d="M73.5091 74.1323C75.7818 74.5474 77.2479 75.0298 79.2459 76.1728C77.817 78.5412 76.9355 80.562 75.2962 82.8703L73.4619 85.36L72.1281 84.9606C71.8695 80.6273 72.6058 78.2879 73.5091 74.1323Z" fill="#1E1E1E"/>
<path d="M85.2082 86.9414C85.6426 86.8789 85.7698 86.9012 86.2021 86.9257L86.3762 87.1594C86.4858 88.1987 86.3756 91.8382 85.7649 92.6565C84.5764 93.1668 79.8765 91.5785 78.625 91.1163C77.6193 90.7457 76.1946 90.3159 75.6987 89.3894C75.8244 87.3912 83.4378 87.0681 85.2082 86.9414Z" fill="#1E1E1E"/>
<path d="M56.5737 86.3711C59.0074 86.4346 61.6533 87.024 64.0068 87.6546C65.1472 87.9602 67.4125 88.3701 66.86 89.9133C66.4056 90.42 65.8308 90.4976 65.1526 90.7008C62.0105 91.539 59.7945 91.9066 56.5495 92.2793C56.3179 90.3163 56.3261 88.3323 56.5737 86.3711Z" fill="#1E1E1E"/>
<path d="M69.6419 74.0756L70.0845 74.0381L70.2873 74.2494C70.5991 76.3811 71.4907 83.2259 70.3833 84.9843C69.9092 85.2672 70.1638 85.2125 69.585 85.1097C68.9526 84.701 68.6632 84.052 68.2651 83.387C66.8122 81.082 65.5068 78.1876 64.5696 75.6233C66.1253 74.8754 67.9448 74.3697 69.6419 74.0756Z" fill="#1E1E1E"/>
<path d="M61.2805 78.2422C62.7572 79.1847 67.9309 84.6695 68.052 86.3197C67.5628 87.339 66.3694 86.7489 65.5048 86.4805C62.8837 85.576 60.1973 84.3288 57.6259 83.2357C58.5156 81.1055 59.4656 79.6493 61.2805 78.2422Z" fill="#1E1E1E"/>
<path d="M67.0635 91.5883C67.4792 91.5569 67.4495 91.5535 67.8058 91.7721C68.6051 93.3011 62.8567 99.1325 61.6416 100.326C61.0455 99.8656 60.664 99.4741 60.1318 98.9502C58.9975 97.6428 58.369 96.8551 57.5946 95.3143C58.9999 94.4909 65.4542 91.9341 67.0635 91.5883Z" fill="#1E1E1E"/>
<path d="M75.5321 91.5122C77.3576 91.3967 83.0639 94.7657 84.6323 95.8198C84.0335 97.0311 83.2785 97.9902 82.4254 99.0262C82.1905 99.3393 81.5423 100.001 81.2502 100.318C79.57 98.8971 75.1677 94.3854 74.5607 92.4892C74.7008 92.0122 75.105 91.8208 75.5321 91.5122Z" fill="#1E1E1E"/>
<path d="M72.8333 93.4746C75.0635 94.4703 77.5008 100.182 78.4078 102.409C77.7451 102.746 77.0158 103.068 76.338 103.384C75.2727 103.827 74.1777 104.255 73.1054 104.687C72.4984 101.904 72.0026 98.2323 72.0304 95.3712C72.0392 94.4661 72.183 94.0541 72.8333 93.4746Z" fill="#1E1E1E"/>
<path d="M69.4118 93.6495C70.0297 93.6065 70.1296 93.589 70.4947 93.904C71.105 95.6446 70.3261 102.234 70.0972 104.367C68.8139 104.099 67.9308 103.795 66.679 103.373C66.0333 103.109 64.8139 102.704 64.4915 102.125C65.0606 100.011 68.0592 95.3426 69.4118 93.6495Z" fill="#1E1E1E"/>
<path d="M245.753 71.1131C255.692 70.5482 264.212 78.1259 264.796 88.0492C265.38 97.9727 257.807 106.494 247.87 107.095C237.907 107.697 229.347 100.111 228.761 90.1628C228.176 80.2139 235.789 71.6793 245.753 71.1131Z" fill="white"/>
<path d="M257.416 78.8472L257.731 78.9288C259.06 80.1567 259.991 81.7643 260.634 83.4414C258.387 84.9691 255.657 85.9951 253.062 86.7378C252.399 86.8929 251.582 87.0277 250.901 87.1598C250.71 86.9419 250.274 86.2983 250.085 86.0329C252.586 82.4997 253.755 81.1379 257.416 78.8472Z" fill="#1E1E1E"/>
<path d="M235.771 78.6533C238.253 80.5203 240.614 81.9404 242.435 84.5588C243.015 85.3931 244.118 86.3166 243.232 87.2338C242.737 87.4019 242.503 87.2625 241.998 87.1017C238.15 85.9784 236.402 85.5008 233.04 83.3267C233.721 81.3739 234.304 80.1403 235.771 78.6533Z" fill="#1E1E1E"/>
<path d="M243.785 74.3695C244.292 74.3096 244.322 74.3099 244.83 74.3619C245.65 75.2912 247.13 84.6906 245.29 85.0572C244.732 84.845 244.425 84.3444 244.042 83.8665C242.837 82.4585 239.322 77.7642 239.949 75.9568C240.774 74.9913 242.565 74.5748 243.785 74.3695Z" fill="#1E1E1E"/>
<path d="M231.74 86.8985C233.954 86.7779 241.881 87.2616 242.86 89.3235L242.697 89.7171C242.165 90.1953 241.653 90.263 240.954 90.4604C237.707 91.4498 235.189 92.2082 231.772 91.9262C231.606 90.1125 231.576 88.7162 231.74 86.8985Z" fill="#1E1E1E"/>
<path d="M260.761 86.7914L261.987 86.7881C262.045 88.1015 262.16 89.528 261.962 90.8245C261.592 93.2462 259.183 92.2359 257.611 91.8747C256.37 91.5899 255.119 91.2051 253.904 90.8176C252.921 90.4875 251.043 90.207 251.4 88.9395C252.803 87.5338 258.801 86.8975 260.761 86.7914Z" fill="#1E1E1E"/>
<path d="M243.194 91.2812C243.929 92.0847 243.01 93.2549 242.46 93.9628C240.783 96.1209 238.851 98.6317 236.471 100.054C235.919 99.5582 235.464 98.9609 234.99 98.3862C234.253 97.4023 233.702 96.6517 233.061 95.61C237.159 93.2026 238.793 92.7537 243.194 91.2812Z" fill="#1E1E1E"/>
<path d="M248.332 74.2017C250.305 74.4982 251.943 74.822 253.666 75.85C252.765 78.557 252.043 80.7982 250.165 82.9526C249.482 83.7374 249.107 84.5004 248.359 85.2993C247.933 85.2521 248.129 85.3319 247.805 84.9495C247.436 82.2749 247.434 76.698 248.332 74.2017Z" fill="#1E1E1E"/>
<path d="M250.591 91.4941C253.832 92.1888 257.516 94.0373 260.422 95.5684C259.969 96.6596 259.439 97.286 258.697 98.1647C258.149 98.8231 257.882 99.1856 257.212 99.7357C255.409 100.196 251.384 94.8498 250.783 93.2649C250.412 92.284 250.327 92.4717 250.591 91.4941Z" fill="#1E1E1E"/>
<path d="M247.681 93.1299L248.316 93.2496C249.956 94.4101 252.883 100.295 253.288 102.489C253.117 102.886 252.701 103.021 252.291 103.24C250.764 103.831 249.691 103.972 248.068 104.148C247.04 100.544 247.415 96.8027 247.681 93.1299Z" fill="#1E1E1E"/>
<path d="M244.943 93.3516C245.302 93.3634 245.413 93.3866 245.769 93.4555C246.63 94.5583 245.711 102.47 244.534 103.82C243.781 104.139 242.611 103.645 241.815 103.39C241.167 103.121 240.434 102.712 239.802 102.383C240.715 98.9185 242.691 96.113 244.943 93.3516Z" fill="#1E1E1E"/>
<path d="M127.101 23.1687C129.238 23.1427 131.172 23.1327 133.305 23.2204C133.61 25.3742 133.778 27.681 134.036 29.865L136.001 46.7908C125.604 46.577 115.246 46.1577 104.822 46.0616L97.0756 45.9543C96.6351 44.0708 96.3593 40.6222 96.1646 38.6531L95.0699 27.5827C107.352 24.477 114.36 23.5928 127.101 23.1687Z" fill="white"/>
<path d="M144.848 24.0254C156.935 25.6321 167.689 28.1604 178.981 32.9728C185.629 35.8068 191.456 38.8781 197.827 42.2189C196.284 42.5475 193.569 42.78 191.905 42.9738C191.629 43.0539 191.004 43.2211 190.826 43.4039C189.933 44.3196 190.232 47.3697 190.249 48.7058C176.034 48.0876 161.816 47.5432 147.596 47.0722C146.655 41.2492 146.22 35.2476 145.37 29.4016C145.129 27.7402 144.871 25.6913 144.848 24.0254Z" fill="white"/>
<path d="M29.6369 50.5209C31.4756 50.4587 39.6779 50.3758 41.1147 50.7023C41.7822 51.4257 43.9673 58.4745 43.4599 59.2801C42.3428 59.5382 38.9111 59.4723 37.5969 59.4787L23.2196 59.5146C25.1654 56.6994 26.4325 53.6916 27.816 50.5844L29.6369 50.5209Z" fill="white"/>
<path d="M276.061 60.6547C278.203 60.6081 281.986 60.5891 284.038 60.9204C285.553 62.3732 288.977 68.0266 288.279 70.0468C287.499 70.7097 280.585 70.3754 279.209 70.3412C275.335 70.116 273.202 67.0976 270.384 64.7099C268.969 63.5104 267.966 62.7033 266.464 61.6184C269.647 60.4778 272.718 60.6773 276.061 60.6547Z" fill="white"/>
<path d="M19.7144 74.0703C23.818 74.1692 27.9798 74.1175 32.0682 74.3442C31.3777 75.4862 31.0698 75.901 30.1887 76.8876C27.3698 79.3132 24.4434 78.5584 20.7161 78.4027C20.2274 76.8372 19.9169 75.6906 19.7144 74.0703Z" fill="white"/>
<path d="M86.2765 18.1113C87.9794 18.4381 92.3266 20.2376 93.7495 21.1372L92.2982 21.5998C91.0388 21.9601 89.8043 22.402 88.6024 22.9226C87.7762 21.6273 86.6062 19.5653 86.2765 18.1113Z" fill="white"/>
</svg>
