<svg width="129" height="25" viewBox="0 0 129 25" fill="none" xmlns="http://www.w3.org/2000/svg">
<path fill-rule="evenodd" clip-rule="evenodd" d="M53.3594 0.083212C57.4453 -0.0393009 61.8198 -0.070989 65.8828 0.303915C74.2521 1.0763 77.2161 11.3804 72.0674 18.6018C70.0214 21.4716 67.841 22.6616 64.9072 23.7941C60.0336 25.5306 50.7381 24.7268 45.1602 25.0002C46.103 20.6478 47.4423 16.0741 48.501 11.7297C49.4414 7.87131 50.3471 3.89219 51.4639 0.110556L53.3594 0.083212ZM66.2207 8.55977C64.9659 5.69324 60.445 6.27249 57.9658 6.34884C56.9459 10.4445 55.9496 14.5479 54.9775 18.6584C57.6257 18.7577 60.4974 19.0066 62.9775 17.8225C65.7431 16.0848 67.7716 12.1038 66.2207 8.55977Z" fill="white"/>
<path d="M38.8256 0.0783642C41.3113 -0.0462198 44.6346 -0.0117644 47.1236 0.108053C46.2109 4.40631 45.09 8.4086 43.9931 12.6358C42.9168 16.7835 41.8822 20.8626 40.7563 24.9997C39.3838 24.9549 33.6932 25.0647 32.9664 24.9299C30.3998 21.1001 28.1746 16.8606 25.5559 13.0635C24.4547 16.9239 23.4475 21.0694 22.4352 24.9767C19.6544 24.9497 16.4918 24.8459 13.7444 24.9761C15.8491 16.9126 17.8168 8.04156 20.1886 0.145967C22.9047 0.162867 25.6208 0.138823 28.3363 0.0740398L28.5163 0.102856C29.1681 0.845159 30.4529 3.07446 31.0522 4.05748L35.7795 11.8718C36.8583 8.32171 37.7766 3.82498 38.8256 0.0783642Z" fill="white"/>
<path d="M108.018 0C111.199 0.0301079 114.456 0.0374821 117.635 0.0078125C120.871 -0.022509 122.8 0.255742 125.526 1.47461C126.302 1.8214 126.963 2.39051 127.395 3.12207C129.259 6.28271 129.414 8.95023 128.299 12.6533C127.902 13.9723 127.176 15.1783 126.18 16.1299C123.547 18.6453 121.39 19.3768 117.562 19.7822C116.918 19.9304 112.455 19.8811 111.49 19.8994L110.202 24.9766C107.502 24.9672 104.801 24.9753 102.102 25C104.179 16.7035 106.152 8.36921 108.018 0ZM121.671 10.5977C122.43 5.35313 116.367 6.28565 113.835 6.36035L111.919 14.5117C114.327 14.5628 117.099 14.846 119.332 13.7754C120.261 13.0965 121.461 12.0443 121.671 10.5977Z" fill="white"/>
<path d="M82.5719 0.0429127L104.065 0C103.5 2.11229 102.916 4.28274 102.553 6.44949L89.5353 6.58866L88.7918 9.32258C92.7704 9.35133 96.7491 9.35415 100.728 9.33128C100.264 11.508 99.8527 13.5066 99.2381 15.6392C95.7631 15.5958 92.2879 15.6076 88.8133 15.6743C88.2505 15.6629 87.7484 15.5745 87.2722 15.8738C86.8033 16.417 86.7021 17.5374 86.5372 18.3589L99.9234 18.3546C99.482 20.3769 98.7512 22.9717 98.2207 24.9999C91.8638 24.6381 83.06 24.911 76.5758 24.9463C78.4533 16.8469 80.5133 8.03687 82.5719 0.0429127Z" fill="white"/>
<path d="M6.37366 0L15.7079 0.0212162C13.4379 8.17771 11.4299 16.7548 9.24062 24.9999C6.20955 24.9388 3.01994 24.8688 0 24.9832C2.18846 16.7743 4.25176 8.25417 6.37366 0Z" fill="white"/>
</svg>
