<svg width="49" height="9" viewBox="0 0 49 9" fill="none" xmlns="http://www.w3.org/2000/svg">
<path d="M20.2686 0.0305176C21.8205 -0.0135847 23.4821 -0.0253467 25.0254 0.109619C28.2043 0.387755 29.3297 4.09686 27.374 6.69653C26.597 7.72944 25.7694 8.15802 24.6553 8.56567C22.8042 9.19083 19.2732 8.90187 17.1543 9.00024C17.5124 7.43346 18.0207 5.78681 18.4229 4.2229C18.7801 2.83386 19.1236 1.40071 19.5479 0.0393066L20.2686 0.0305176ZM25.1533 3.0813C24.6765 2.04964 22.9592 2.25792 22.0176 2.2854C21.6302 3.75986 21.2521 5.23724 20.8828 6.71704C21.8887 6.7528 22.9798 6.84257 23.9219 6.41626C24.9724 5.79071 25.7424 4.35713 25.1533 3.0813Z" fill="#DB4431"/>
<path d="M14.7477 0.0282111C15.6919 -0.0166391 16.9542 -0.00423519 17.8996 0.038899C17.5529 1.58627 17.1272 3.02709 16.7105 4.54888C16.3017 6.04204 15.9087 7.51055 15.481 8.99989C14.9597 8.98375 12.7981 9.0233 12.5221 8.97478C11.5472 7.59605 10.702 6.06981 9.70723 4.70285C9.28895 6.09259 8.90639 7.58497 8.52185 8.99163C7.46558 8.98188 6.26428 8.94452 5.2207 8.9914C6.02015 6.08853 6.76759 2.89496 7.66849 0.0525481C8.70019 0.0586322 9.73188 0.0499764 10.7634 0.0266543L10.8317 0.037028C11.0793 0.304257 11.5674 1.1068 11.795 1.46069L13.5906 4.27385C14.0004 2.99582 14.3492 1.37699 14.7477 0.0282111Z" fill="#DB4431"/>
<path d="M41.0303 0C42.2386 0.0108368 43.4762 0.0136116 44.6836 0.00292969C45.5984 -0.00517539 46.2382 0.0480321 46.9326 0.256836C47.7396 0.499482 48.4478 1.0614 48.7607 1.84375C48.941 2.29448 49.0158 2.73517 48.9971 3.20508C48.9408 4.61391 48.0786 5.95945 46.8184 6.5918C46.2116 6.89616 45.5548 7.0308 44.6553 7.12109C44.4105 7.17443 42.715 7.15746 42.3486 7.16406L41.8594 8.99121C40.8338 8.98783 39.8078 8.99112 38.7822 9C39.5715 6.01324 40.3215 3.01292 41.0303 0ZM46.2158 3.81543C46.5041 1.92732 44.2011 2.26317 43.2393 2.29004L42.5117 5.22461C43.4266 5.24299 44.4799 5.34446 45.3281 4.95898C45.681 4.71463 46.1361 4.3359 46.2158 3.81543Z" fill="#DB4431"/>
<path d="M31.3645 0.0154486L39.5284 0C39.3141 0.760425 39.092 1.54179 38.9544 2.32182L34.0095 2.37192L33.7271 3.35613C35.2383 3.36648 36.7496 3.3675 38.2609 3.35926C38.0848 4.1429 37.9285 4.86239 37.6951 5.63011C36.3751 5.61451 35.0551 5.61874 33.7353 5.64273C33.5215 5.63866 33.3308 5.60682 33.1499 5.71456C32.9718 5.91012 32.9333 6.31346 32.8707 6.60922L37.9554 6.60766C37.7877 7.3357 37.5101 8.2698 37.3086 8.99996C34.894 8.86972 31.5499 8.96797 29.0869 8.98067C29.8001 6.0649 30.5826 2.89327 31.3645 0.0154486Z" fill="#DB4431"/>
<path d="M2.421 0L5.96655 0.00763782C5.10433 2.94398 4.34158 6.03173 3.51 8.99996C2.35867 8.97797 1.14711 8.95279 0 8.99395C0.831277 6.03875 1.61501 2.9715 2.421 0Z" fill="#DB4431"/>
</svg>
