<svg width="70" height="56" viewBox="0 0 70 56" fill="none" xmlns="http://www.w3.org/2000/svg">
<path d="M50.2449 4.44702L55.58 5.17592L53.3864 10.0935L58.4597 10.3518L56.2661 15.2694L61.3394 15.5277L58.884 19.9748L64.2191 20.7037L61.502 24.6802L66.837 25.4091L14.1367 54.7297L16.3302 49.8121L11.5188 50.0243L13.7124 45.1067L8.6391 44.8484L11.0945 40.4013L5.7594 39.6724L8.21475 35.2254L2.8797 34.4965L5.07327 29.5789L0 29.3205L52.7003 0L50.2449 4.44702Z" fill="#343330"/>
<path d="M52.3648 5.62085L57.6999 6.34976L55.5063 11.2673L60.5796 11.5256L58.386 16.4433L63.4592 16.7016L61.0039 21.1486L66.3389 21.8775L63.6219 25.854L68.9568 26.5829L16.2565 55.9035L18.4501 50.9859L13.6386 51.1981L15.8322 46.2805L10.759 46.0222L13.2143 41.5751L7.87927 40.8463L10.3346 36.3992L4.99957 35.6703L7.19313 30.7528L2.11987 30.4944L54.8202 1.17383L52.3648 5.62085Z" fill="#DB4431"/>
<path d="M25.1339 38.7693L20.4615 30.027L23.8235 28.0793C24.4412 27.7213 25.0075 27.5182 25.522 27.4697C26.0367 27.4213 26.4883 27.5063 26.8771 27.7245C27.2643 27.94 27.5749 28.2669 27.8092 28.7051C27.9917 29.0466 28.0866 29.3848 28.0938 29.7198C28.0994 30.052 28.0316 30.3671 27.8903 30.6651C27.7501 30.9588 27.552 31.2244 27.296 31.4622L27.3417 31.5475C27.6691 31.3765 28.0185 31.297 28.3901 31.3091C28.7644 31.3196 29.1227 31.4307 29.4649 31.6424C29.8057 31.8512 30.0909 32.1705 30.3205 32.6002C30.5684 33.064 30.679 33.5423 30.6523 34.0348C30.6267 34.5229 30.4557 34.9966 30.1391 35.4558C29.8226 35.915 29.3499 36.3267 28.7213 36.6909L25.1339 38.7693ZM26.1015 36.2297L27.5488 35.3912C28.0435 35.1046 28.3518 34.7973 28.4737 34.4695C28.5941 34.1389 28.5661 33.8085 28.3897 33.4784C28.2604 33.2366 28.0904 33.0555 27.8794 32.9355C27.6684 32.8155 27.431 32.7629 27.167 32.778C26.9057 32.7915 26.633 32.8805 26.3487 33.0452L24.8605 33.9075L26.1015 36.2297ZM24.192 32.6567L25.508 31.8943C25.7513 31.7533 25.9437 31.5841 26.0851 31.3866C26.2278 31.1847 26.3097 30.9696 26.3308 30.7412C26.3547 30.5112 26.3049 30.2809 26.1817 30.0505C26.013 29.7345 25.7688 29.5424 25.4495 29.474C25.1329 29.404 24.7777 29.4831 24.3842 29.711L23.0353 30.4926L24.192 32.6567Z" fill="white"/>
<path d="M35.6725 32.8314C35.0247 33.2067 34.3941 33.3931 33.7807 33.3908C33.1685 33.3839 32.6021 33.2014 32.0814 32.8435C31.5592 32.4826 31.1134 31.9564 30.7438 31.2648C30.3833 30.5904 30.1927 29.9257 30.1719 29.2706C30.1511 28.6155 30.2929 28.0134 30.5973 27.4644C30.9043 26.9137 31.3668 26.4595 31.9845 26.1016C32.4 25.8609 32.8239 25.7066 33.2565 25.6386C33.6903 25.5662 34.115 25.5904 34.5303 25.7112C34.9485 25.8306 35.3445 26.0557 35.7184 26.387C36.0908 26.7155 36.426 27.1585 36.7241 27.7162L36.9911 28.2157L31.6735 31.2965L31.0711 30.1695L34.7447 28.0413C34.6047 27.7795 34.4262 27.5792 34.2089 27.4404C33.9915 27.3017 33.7554 27.2317 33.5005 27.2303C33.2469 27.2245 32.9929 27.2952 32.7387 27.4425C32.4735 27.5961 32.2727 27.7963 32.1361 28.0431C32.0009 28.2855 31.9328 28.5467 31.932 28.8267C31.9298 29.1038 31.9965 29.3726 32.1321 29.6331L32.7048 30.7045C32.8782 31.029 33.0854 31.276 33.3264 31.4457C33.5703 31.6138 33.8329 31.7001 34.1145 31.7046C34.3961 31.7093 34.6833 31.6268 34.9757 31.4574C35.1698 31.3449 35.3322 31.2136 35.4631 31.0632C35.5939 30.9129 35.6863 30.7475 35.7403 30.5672C35.7942 30.3868 35.8071 30.1967 35.7791 29.9968L37.4537 29.1719C37.5877 29.6236 37.6083 30.0738 37.5152 30.5227C37.4235 30.9673 37.223 31.389 36.9137 31.7881C36.6056 32.1828 36.1918 32.5305 35.6725 32.8314Z" fill="white"/>
<path d="M42.369 22.6456L40.8248 23.6745C40.7215 23.548 40.5943 23.454 40.4432 23.3925C40.2907 23.328 40.1224 23.3044 39.9382 23.3216C39.7554 23.3344 39.5628 23.3994 39.3604 23.5165C39.0899 23.6733 38.8936 23.8654 38.7716 24.0925C38.6482 24.3169 38.6388 24.5272 38.7438 24.7236C38.8275 24.8801 38.9583 24.9776 39.1363 25.0161C39.3145 25.0545 39.5672 25.0218 39.8946 24.9178L41.1621 24.4965C41.8444 24.2728 42.4134 24.2188 42.8692 24.3349C43.3249 24.451 43.6791 24.7453 43.9316 25.2177C44.1613 25.6473 44.2412 26.0949 44.1713 26.5603C44.1041 27.0241 43.9087 27.469 43.5851 27.8949C43.2628 28.3165 42.8282 28.6857 42.2816 29.0023C41.448 29.4853 40.6872 29.6894 39.9993 29.6146C39.3126 29.5354 38.7596 29.2072 38.3403 28.6303L40.008 27.5411C40.2013 27.7757 40.4351 27.9049 40.7091 27.9287C40.9816 27.9497 41.2737 27.87 41.5854 27.6894C41.8914 27.5121 42.1048 27.3084 42.2252 27.0784C42.3469 26.8439 42.3567 26.6277 42.2544 26.4297C42.1635 26.2663 42.0242 26.1699 41.8368 26.1406C41.6478 26.1085 41.4014 26.1431 41.0976 26.2445L39.8862 26.6502C39.2028 26.8784 38.6263 26.9217 38.1568 26.7799C37.69 26.6366 37.3258 26.3203 37.0642 25.8309C36.8392 25.4097 36.7546 24.9834 36.8105 24.5522C36.8692 24.1195 37.0539 23.705 37.3648 23.3087C37.6783 22.9109 38.1043 22.556 38.6428 22.2441C39.4382 21.7832 40.1577 21.5956 40.8013 21.6813C41.4475 21.7653 41.97 22.0867 42.369 22.6456Z" fill="white"/>
<path d="M45.9628 18.1151L46.6928 19.4812L42.9005 21.6783L42.1704 20.3122L45.9628 18.1151ZM42.1918 18.2426L43.9384 17.2307L47.2053 23.3434C47.2951 23.5113 47.3896 23.6281 47.489 23.6934C47.5869 23.756 47.6894 23.7805 47.7967 23.7668C47.9066 23.7515 48.0205 23.7098 48.138 23.6417C48.2199 23.5943 48.2981 23.5397 48.3725 23.4778C48.4454 23.4133 48.5014 23.3641 48.5406 23.3302L49.5385 24.5243C49.4662 24.6033 49.3607 24.7074 49.222 24.8362C49.0847 24.9679 48.9049 25.1037 48.6827 25.2437C48.2709 25.5046 47.8707 25.66 47.4821 25.71C47.0964 25.7583 46.7407 25.6923 46.4152 25.5119C46.0897 25.3315 45.8134 25.0257 45.5865 24.5944L42.1918 18.2426Z" fill="white"/>
</svg>
