<svg width="168" height="203" viewBox="0 0 168 203" fill="none" xmlns="http://www.w3.org/2000/svg">
<path d="M154.5 9.52465V175.418C154.5 177.818 154.364 180.246 153.626 182.529C147.667 200.975 124.298 200.459 114 196.526L41.5664 197.377C33.2473 197.475 23.3215 195.774 17.8264 189.527C11.2773 182.082 10.5 172.918 10.5 163.002V154.525H29C28.1667 114.025 27 30.6244 29 21.0244C30.8157 12.3091 38.2633 7.05533 42.7382 5.0387C43.5611 4.66787 44.4356 4.52098 45.3381 4.5138C81.7799 4.2238 146.52 3.62873 160.892 3.21518C161.681 3.032 162.549 2.95674 163.5 3.02465C164.296 3.08152 163.303 3.1458 160.892 3.21518C157.031 4.11095 155.053 7.58748 154.5 9.52465Z" fill="#32323C"/>
<path d="M29 154.525H10.5V163.002C10.5 172.918 11.2773 182.082 17.8264 189.527C23.3215 195.774 33.2473 197.475 41.5664 197.377L114 196.526M29 154.525H91.5C90.6667 159.025 91 167.524 91.5 170.024C91.8578 171.813 98 192.024 114 196.526M29 154.525C28.1667 114.025 27 30.6244 29 21.0244C30.8157 12.3091 38.2633 7.05533 42.7382 5.0387C43.5611 4.66787 44.4356 4.52098 45.3381 4.5138C87.8941 4.17515 169.041 3.42046 163.5 3.02465C157.9 2.62465 155.167 7.19132 154.5 9.52465V175.418C154.5 177.818 154.364 180.246 153.626 182.529C147.667 200.975 124.298 200.459 114 196.526" stroke="black"/>
<path d="M144.5 9.52454V175.418C144.5 177.817 144.364 180.246 143.626 182.529C137.667 200.975 114.298 200.459 104 196.526L31.5664 197.377C23.2473 197.474 13.3215 195.774 7.82638 189.527C1.27733 182.082 0.5 172.918 0.5 163.002V154.525H19C18.1667 114.024 17 30.6243 19 21.0243C20.8157 12.309 28.2633 7.05522 32.7382 5.03858C33.5611 4.66776 34.4356 4.52092 35.3382 4.51355C73.8627 4.19912 143.938 3.21353 152.826 3.0479C153.046 3.0335 153.27 3.02558 153.5 3.02454C154.015 3.02222 153.755 3.03057 152.826 3.0479C147.667 3.38559 145.139 7.28664 144.5 9.52454Z" fill="white"/>
<path d="M19 154.525H0.5V163.002C0.5 172.918 1.27733 182.082 7.82638 189.527C13.3215 195.774 23.2473 197.474 31.5664 197.377L104 196.526M19 154.525H81.5C80.6667 159.025 81 167.524 81.5 170.024C81.8578 171.813 88 192.024 104 196.526M19 154.525C18.1667 114.024 17 30.6243 19 21.0243C20.8157 12.309 28.2633 7.05522 32.7382 5.03858C33.5611 4.66776 34.4356 4.52092 35.3382 4.51355C77.8921 4.16623 158.942 3.00002 153.5 3.02454C147.886 3.04984 145.167 7.19121 144.5 9.52454V175.418C144.5 177.817 144.364 180.246 143.626 182.529C137.667 200.975 114.298 200.459 104 196.526" stroke="black"/>
<rect x="33.5" y="49" width="89" height="9" rx="4" fill="#DEDEDE"/>
<rect x="64.5" y="74.0244" width="62" height="9" rx="4" fill="#DEDEDE"/>
<rect x="42.5" y="99.0244" width="62" height="9" rx="4" fill="#DEDEDE"/>
<rect x="67.5" y="121" width="62" height="9" rx="4" fill="#DEDEDE"/>
<path d="M30.5 151C30.5 149.343 31.8431 148 33.5 148H89C90.933 148 92.5 149.567 92.5 151.5C92.5 153.433 90.933 155 89 155H82L82.125 154H33.5C31.8431 154 30.5 152.657 30.5 151Z" fill="#DEDEDE"/>
</svg>
