<svg width="53" height="46" viewBox="0 0 53 46" fill="none" xmlns="http://www.w3.org/2000/svg">
<path d="M49.4291 23.5413C46.2478 35.6222 26.0281 40.7543 25.1703 40.9603C24.9438 41.0163 24.7075 41.0146 24.4826 40.9554C24.2577 40.8962 24.0512 40.7812 23.8817 40.6209C23.2366 40.0192 8.16693 25.5942 11.3482 13.5134C12.0984 10.6773 13.9261 8.25027 16.4303 6.76464C18.9346 5.27901 21.9108 4.85615 24.7062 5.58883C28.2167 6.51328 30.8868 8.85522 32.1206 11.9502C34.7187 9.86428 38.196 9.14114 41.7065 10.0656C44.5002 10.8047 46.8822 12.6385 48.3299 15.1649C49.7777 17.6912 50.173 20.7036 49.4291 23.5413Z" fill="#343330"/>
<path d="M43.989 22.1087C40.8077 34.1896 20.588 39.3217 19.7302 39.5277C19.5037 39.5837 19.2674 39.582 19.0425 39.5228C18.8176 39.4635 18.6112 39.3486 18.4416 39.1883C17.7965 38.5866 2.72686 24.1616 5.90815 12.0808C6.65834 9.24473 8.48605 6.81765 10.9903 5.33202C13.4945 3.84639 16.4708 3.42353 19.2661 4.15621C22.7767 5.08066 25.4468 7.4226 26.6806 10.5176C29.2787 8.43166 32.7559 7.70853 36.2665 8.63298C39.0601 9.37206 41.4421 11.2059 42.8899 13.7322C44.3376 16.2586 44.7329 19.271 43.989 22.1087Z" fill="#DB4431"/>
<path d="M38.8717 17.8353C39.2003 21.3035 36.3942 24.7649 36.0072 24.8054C35.6202 24.846 37.0983 21.5236 36.7697 18.0554C36.441 14.5871 34.4487 12.7261 34.8357 12.6856C35.2227 12.6451 38.543 14.367 38.8717 17.8353Z" fill="white"/>
</svg>
