<svg width="162" height="62" viewBox="0 0 162 62" fill="none" xmlns="http://www.w3.org/2000/svg">
<g clip-path="url(#clip0_355_1007)">
<rect width="162" height="62" rx="12" fill="#F7F7F7"/>
<path d="M152.429 35.5413C149.248 47.6222 129.028 52.7543 128.17 52.9603C127.944 53.0163 127.707 53.0146 127.483 52.9554C127.258 52.8962 127.051 52.7812 126.882 52.6209C126.237 52.0192 111.167 37.5942 114.348 25.5134C115.098 22.6773 116.926 20.2503 119.43 18.7646C121.935 17.279 124.911 16.8561 127.706 17.5888C131.217 18.5133 133.887 20.8552 135.121 23.9502C137.719 21.8643 141.196 21.1411 144.707 22.0656C147.5 22.8047 149.882 24.6385 151.33 27.1649C152.778 29.6912 153.173 32.7036 152.429 35.5413Z" fill="#343330"/>
<path d="M146.989 34.1087C143.808 46.1896 123.588 51.3217 122.73 51.5277C122.504 51.5837 122.267 51.582 122.043 51.5228C121.818 51.4635 121.611 51.3486 121.442 51.1883C120.797 50.5866 105.727 36.1616 108.908 24.0808C109.658 21.2447 111.486 18.8177 113.99 17.332C116.494 15.8464 119.471 15.4235 122.266 16.1562C125.777 17.0807 128.447 19.4226 129.681 22.5176C132.279 20.4317 135.756 19.7085 139.266 20.633C142.06 21.3721 144.442 23.2059 145.89 25.7322C147.338 28.2586 147.733 31.271 146.989 34.1087Z" fill="#DB4431"/>
<path d="M141.872 29.8353C142.2 33.3035 139.394 36.7649 139.007 36.8054C138.62 36.846 140.098 33.5236 139.77 30.0554C139.441 26.5871 137.449 24.7261 137.836 24.6856C138.223 24.6451 141.543 26.367 141.872 29.8353Z" fill="white"/>
<path d="M9.067 15.3H10.057V21.394L14.325 15.3H15.205V23H14.215V16.906L9.947 23H9.067V15.3ZM18.9445 23.22C18.4165 23.22 17.9692 23.121 17.6025 22.923C17.2358 22.725 16.9278 22.45 16.6785 22.098L17.2615 21.515C17.4448 21.8303 17.6648 22.065 17.9215 22.219C18.1855 22.373 18.5082 22.45 18.8895 22.45C19.2928 22.45 19.6265 22.362 19.8905 22.186C20.1618 22.01 20.2975 21.7387 20.2975 21.372C20.2975 21.13 20.2278 20.932 20.0885 20.778C19.9492 20.624 19.7328 20.514 19.4395 20.448C19.1462 20.382 18.7685 20.3637 18.3065 20.393V19.744C18.9445 19.7073 19.3845 19.623 19.6265 19.491C19.8758 19.3517 20.0005 19.1317 20.0005 18.831C20.0005 18.6037 19.9492 18.435 19.8465 18.325C19.7512 18.215 19.6265 18.1417 19.4725 18.105C19.3258 18.0683 19.1755 18.05 19.0215 18.05C18.6182 18.05 18.2845 18.127 18.0205 18.281C17.7638 18.4277 17.5402 18.6183 17.3495 18.853L16.7665 18.27C16.9938 17.9767 17.3018 17.7383 17.6905 17.555C18.0865 17.3717 18.5558 17.28 19.0985 17.28C19.5752 17.28 19.9492 17.3497 20.2205 17.489C20.4992 17.6283 20.6935 17.808 20.8035 18.028C20.9208 18.2407 20.9795 18.468 20.9795 18.71C20.9795 19.1207 20.8512 19.4397 20.5945 19.667C20.3452 19.887 19.9822 19.997 19.5055 19.997C19.8795 19.997 20.1985 20.052 20.4625 20.162C20.7265 20.2647 20.9282 20.4187 21.0675 20.624C21.2068 20.822 21.2765 21.0677 21.2765 21.361C21.2765 21.6983 21.1848 22.01 21.0015 22.296C20.8255 22.5747 20.5652 22.7983 20.2205 22.967C19.8758 23.1357 19.4505 23.22 18.9445 23.22ZM24.9628 23.22C24.0534 23.22 23.3751 22.9157 22.9278 22.307C22.4878 21.6983 22.2678 20.7193 22.2678 19.37C22.2678 18.5707 22.3521 17.9107 22.5208 17.39C22.6968 16.8693 22.9901 16.466 23.4008 16.18C23.8114 15.894 24.3724 15.7033 25.0838 15.608C25.3771 15.5713 25.7108 15.498 26.0848 15.388C26.4661 15.2707 26.7998 15.0837 27.0858 14.827V15.729C26.9171 15.8757 26.6641 16.0113 26.3268 16.136C25.9894 16.2533 25.6044 16.334 25.1718 16.378C24.6071 16.4367 24.1598 16.5723 23.8298 16.785C23.5071 16.9903 23.2761 17.291 23.1368 17.687C22.9974 18.083 22.9278 18.5963 22.9278 19.227C23.0964 18.7943 23.3861 18.4387 23.7968 18.16C24.2148 17.874 24.7098 17.731 25.2818 17.731C25.9784 17.731 26.5321 17.962 26.9428 18.424C27.3608 18.8787 27.5698 19.5497 27.5698 20.437C27.5698 21.3243 27.3461 22.01 26.8988 22.494C26.4588 22.978 25.8134 23.22 24.9628 23.22ZM24.9518 22.45C25.4871 22.45 25.8904 22.263 26.1618 21.889C26.4404 21.515 26.5798 21.0163 26.5798 20.393C26.5798 19.777 26.4441 19.3077 26.1728 18.985C25.9088 18.6623 25.5091 18.501 24.9738 18.501C24.4311 18.501 24.0131 18.6623 23.7198 18.985C23.4264 19.3077 23.2798 19.7843 23.2798 20.415C23.2798 21.031 23.4228 21.526 23.7088 21.9C24.0021 22.2667 24.4164 22.45 24.9518 22.45ZM28.9671 17.5H29.9571V25.2H28.9671V17.5ZM31.7611 23.22C31.3211 23.22 30.9471 23.0807 30.6391 22.802C30.3385 22.5233 30.1075 22.153 29.9461 21.691C29.7921 21.229 29.7151 20.7303 29.7151 20.195C29.7151 19.6523 29.7958 19.161 29.9571 18.721C30.1258 18.281 30.3678 17.9327 30.6831 17.676C30.9985 17.412 31.3798 17.28 31.8271 17.28C32.3625 17.28 32.8098 17.4047 33.1691 17.654C33.5285 17.9033 33.7998 18.248 33.9831 18.688C34.1738 19.1207 34.2691 19.623 34.2691 20.195C34.2691 20.767 34.1665 21.2803 33.9611 21.735C33.7631 22.1897 33.4771 22.5527 33.1031 22.824C32.7291 23.088 32.2818 23.22 31.7611 23.22ZM31.6621 22.45C32.1608 22.45 32.5531 22.2447 32.8391 21.834C33.1325 21.4233 33.2791 20.8733 33.2791 20.184C33.2791 19.5093 33.1361 18.985 32.8501 18.611C32.5715 18.237 32.1791 18.05 31.6731 18.05C31.3431 18.05 31.0461 18.1417 30.7821 18.325C30.5255 18.5083 30.3238 18.7613 30.1771 19.084C30.0305 19.3993 29.9571 19.7623 29.9571 20.173C29.9571 20.5983 30.0268 20.9833 30.1661 21.328C30.3128 21.6727 30.5145 21.9477 30.7711 22.153C31.0278 22.351 31.3248 22.45 31.6621 22.45ZM37.4776 23.22C36.9716 23.22 36.5353 23.0917 36.1686 22.835C35.8019 22.5783 35.5196 22.2227 35.3216 21.768C35.1236 21.3133 35.0246 20.7927 35.0246 20.206C35.0246 19.6487 35.1163 19.15 35.2996 18.71C35.4829 18.27 35.7469 17.9217 36.0916 17.665C36.4436 17.4083 36.8726 17.28 37.3786 17.28C38.0899 17.28 38.6326 17.5403 39.0066 18.061C39.3879 18.5743 39.5786 19.3113 39.5786 20.272C39.5786 21.2033 39.3989 21.9293 39.0396 22.45C38.6803 22.9633 38.1596 23.22 37.4776 23.22ZM37.6206 22.45C37.9653 22.45 38.2659 22.351 38.5226 22.153C38.7793 21.955 38.9773 21.6873 39.1166 21.35C39.2633 21.0127 39.3366 20.6313 39.3366 20.206C39.3366 19.7807 39.2633 19.4067 39.1166 19.084C38.9699 18.7613 38.7646 18.5083 38.5006 18.325C38.2366 18.1417 37.9323 18.05 37.5876 18.05C37.0963 18.05 36.7113 18.2407 36.4326 18.622C36.1539 18.996 36.0146 19.513 36.0146 20.173C36.0146 20.8623 36.1576 21.416 36.4436 21.834C36.7369 22.2447 37.1293 22.45 37.6206 22.45ZM39.3366 23V17.5H40.3266V23H39.3366ZM42.1163 17.5H43.1063V19.755H45.8893V17.5H46.8793V23H45.8893V20.635H43.1063V23H42.1163V17.5ZM48.6368 17.5H49.6268V19.755H52.4098V17.5H53.3998V23H52.4098V20.635H49.6268V23H48.6368V17.5ZM57.3903 23.22C56.833 23.22 56.36 23.1027 55.9713 22.868C55.5827 22.6333 55.2857 22.2923 55.0803 21.845C54.8823 21.3903 54.7833 20.8403 54.7833 20.195C54.7833 19.5863 54.8823 19.0657 55.0803 18.633C55.2857 18.193 55.5827 17.8593 55.9713 17.632C56.3673 17.3973 56.844 17.28 57.4013 17.28C58.3033 17.28 58.9817 17.5367 59.4363 18.05C59.8983 18.5633 60.1293 19.2783 60.1293 20.195C60.1293 21.163 59.8983 21.911 59.4363 22.439C58.9743 22.9597 58.2923 23.22 57.3903 23.22ZM57.4123 22.45C57.999 22.45 58.4317 22.2667 58.7103 21.9C58.9963 21.5333 59.1393 20.9723 59.1393 20.217C59.1393 19.4983 58.9963 18.9593 58.7103 18.6C58.4317 18.2333 58.0063 18.05 57.4343 18.05C56.8697 18.05 56.4517 18.226 56.1803 18.578C55.909 18.9227 55.7733 19.4617 55.7733 20.195C55.7733 20.943 55.909 21.5077 56.1803 21.889C56.4517 22.263 56.8623 22.45 57.4123 22.45ZM63.7277 23.22C63.2144 23.22 62.7634 23.11 62.3747 22.89C61.9934 22.6627 61.6927 22.329 61.4727 21.889C61.2601 21.4417 61.1537 20.8917 61.1537 20.239C61.1537 19.271 61.3774 18.5377 61.8247 18.039C62.2721 17.533 62.8917 17.28 63.6837 17.28C64.2264 17.28 64.6884 17.401 65.0697 17.643C65.4511 17.8777 65.7334 18.226 65.9167 18.688C66.1074 19.15 66.1807 19.7183 66.1367 20.393H62.1437C62.1437 20.987 62.2721 21.4783 62.5287 21.867C62.7927 22.2557 63.1961 22.45 63.7387 22.45C64.0541 22.45 64.3437 22.3803 64.6077 22.241C64.8717 22.1017 65.0991 21.9037 65.2897 21.647L65.8727 22.23C65.6527 22.5233 65.3594 22.7617 64.9927 22.945C64.6334 23.1283 64.2117 23.22 63.7277 23.22ZM62.1877 19.744H65.1137C65.0624 19.1793 64.9121 18.7577 64.6627 18.479C64.4134 18.193 64.0871 18.05 63.6837 18.05C63.2804 18.05 62.9431 18.193 62.6717 18.479C62.4004 18.7577 62.2391 19.1793 62.1877 19.744Z" fill="#989898"/>
</g>
<defs>
<clipPath id="clip0_355_1007">
<rect width="162" height="62" rx="12" fill="white"/>
</clipPath>
</defs>
</svg>
