<svg width="335" height="95" viewBox="0 0 335 95" fill="none" xmlns="http://www.w3.org/2000/svg">
<g clip-path="url(#clip0_495_2479)">
<rect width="335" height="95" rx="12" fill="#DB4431"/>
<path d="M290.968 86.3354L273.917 55.165C272.039 51.7314 273.39 47.4115 276.899 45.63L317.192 25.1717C320.622 23.4298 324.802 24.7882 326.525 28.2052L361.094 85.781C361.706 86.7997 361.299 88.1239 360.222 88.6244L307.518 113.101C306.558 113.547 305.417 113.168 304.915 112.236L290.968 86.3354Z" fill="white" stroke="#323338"/>
<path d="M317.805 42.511L305.559 49.2368C304.576 49.7768 304.213 51.008 304.748 51.9868C305.283 52.9655 306.514 53.3212 307.497 52.7812L319.744 46.0554C320.727 45.5154 321.09 44.2842 320.555 43.3054C320.019 42.3266 318.788 41.971 317.805 42.511Z" fill="#D9D9D9"/>
<path d="M327.971 48.2921L310.16 58.0745C309.176 58.6145 308.813 59.8457 309.349 60.8244C309.884 61.8032 311.115 62.1589 312.098 61.6189L329.91 51.8365C330.893 51.2965 331.256 50.0653 330.721 49.0865C330.185 48.1078 328.954 47.7521 327.971 48.2921Z" fill="#D9D9D9"/>
<path d="M326.558 64.5457L300.234 79.0032C298.781 79.8013 298.037 81.2417 298.572 82.2204C299.107 83.1992 300.719 83.3456 302.172 82.5476L328.496 68.0901C329.949 67.292 330.693 65.8516 330.158 64.8729C329.623 63.8941 328.011 63.7477 326.558 64.5457Z" fill="#D9D9D9"/>
<path d="M296.545 50.5963L286.255 56.2726C285.694 56.5823 285.487 57.2862 285.794 57.8449L293.853 72.5137C294.159 73.0725 294.863 73.2744 295.425 72.9648L305.715 67.2884C306.276 66.9788 306.482 66.2749 306.176 65.7162L298.117 51.0473C297.81 50.4886 297.107 50.2867 296.545 50.5963Z" fill="#D9D9D9"/>
<path d="M319.068 7.75682L322.595 1.30875C322.984 0.598456 322.704 -0.295197 321.978 -0.663717L313.643 -4.89583C312.933 -5.25617 312.069 -4.97517 311.712 -4.26831L305.469 6.12988C304.858 7.14861 305.264 8.4728 306.341 8.9733L314.288 12.664C315.248 13.1099 316.39 12.7304 316.892 11.7983L319.068 7.75682Z" fill="white" stroke="#323338" stroke-width="0.5"/>
<path d="M313.516 -1.30894L316.049 0.0824002C316.253 0.19411 316.328 0.448803 316.217 0.651273C316.106 0.853743 315.852 0.927319 315.648 0.81561L313.115 -0.575732C312.912 -0.687442 312.837 -0.942135 312.947 -1.1446C313.058 -1.34708 313.313 -1.42065 313.516 -1.30894Z" fill="#D9D9D9"/>
<path d="M311.703 0.0463046L318.292 3.6647C318.655 3.86444 318.86 4.1905 318.75 4.39297C318.639 4.59544 318.254 4.59765 317.891 4.39791L311.302 0.779514C310.939 0.579771 310.734 0.253711 310.844 0.0512409C310.955 -0.151229 311.34 -0.153439 311.703 0.0463046Z" fill="#D9D9D9"/>
<path d="M311.83 2.60779L317.276 5.59853C317.576 5.76362 317.73 6.0616 317.619 6.26407C317.509 6.46654 317.175 6.49683 316.875 6.33174L311.429 3.341C311.129 3.1759 310.975 2.87793 311.085 2.67546C311.196 2.47299 311.53 2.44269 311.83 2.60779Z" fill="#D9D9D9"/>
<path d="M233.111 10.2025L250.364 -6.48045C258.024 -0.785811 267.546 9.2488 258.863 13.2798L258.863 13.8178C258.78 18.7668 256.457 30.7503 253.581 33.5308C251.762 35.2893 247.19 35.0735 244.726 34.4428C244.777 31.3588 244.9 26.8496 245.101 22.9514L233.111 10.2025Z" fill="white"/>
<path d="M245.101 22.9514C245.331 18.5088 245.664 14.8597 246.113 15.0179C252.245 15.121 256.329 14.4559 258.863 13.2798M245.101 22.9514C244.9 26.8496 244.777 31.3588 244.726 34.4428C247.19 35.0735 251.762 35.2893 253.581 33.5308C256.457 30.7503 258.78 18.7668 258.863 13.8178L258.863 13.2798M245.101 22.9514L233.111 10.2025L250.364 -6.48045C258.024 -0.785811 267.546 9.2488 258.863 13.2798" stroke="#323338"/>
<rect x="239" y="10.3547" width="13.3782" height="2" rx="1" transform="rotate(-44.9167 239 10.3547)" fill="#D9D9D9"/>
<rect x="246" y="9.44604" width="13.3782" height="2" rx="1" transform="rotate(-44.9167 246 9.44604)" fill="#D9D9D9"/>
<path d="M247 14.5L255.768 6.6329C256.164 6.27811 256.768 6.2949 257.143 6.6711C257.547 7.07623 257.529 7.73722 257.103 8.11954L250 14.5L247 14.5Z" fill="#D9D9D9"/>
</g>
<defs>
<clipPath id="clip0_495_2479">
<rect width="335" height="95" rx="12" fill="white"/>
</clipPath>
</defs>
</svg>
