<svg width="52" height="51" viewBox="0 0 52 51" fill="none" xmlns="http://www.w3.org/2000/svg">
<g clip-path="url(#clip0_495_2094)">
<path d="M12.3305 13.693L15.4726 18.9795L21.8389 28.8572C22.6142 30.0602 24.1772 30.488 25.4626 29.849L40.2171 22.5146C41.7459 21.7546 42.2441 19.8255 41.273 18.4272L39.7158 16.185L34.7969 8.3836L31.4129 2.4754C30.6343 1.11603 28.885 0.656793 27.533 1.45677L13.313 9.86989C11.9819 10.6574 11.5426 12.3672 12.3305 13.693Z" fill="#32353C"/>
<path d="M27.8397 8.20306L17.8256 13.8429C17.4317 14.0648 17.2932 14.5621 17.5164 14.9538C17.7395 15.3455 18.2398 15.4831 18.6338 15.2613L28.6479 9.62144C29.0418 9.39957 29.1803 8.90219 28.9571 8.51052C28.734 8.11885 28.2337 7.98119 27.8397 8.20306Z" fill="#32353C"/>
<path d="M30.8848 12.6279L20.8707 18.2677C20.4767 18.4896 20.3383 18.9869 20.5614 19.3786C20.7846 19.7703 21.2849 19.9079 21.6788 19.6861L31.6929 14.0462C32.0869 13.8244 32.2253 13.327 32.0022 12.9353C31.779 12.5437 31.2787 12.406 30.8848 12.6279Z" fill="#32353C"/>
<path d="M32.2902 18.4496L22.2761 24.0895C21.8821 24.3113 21.7437 24.8087 21.9668 25.2004C22.19 25.5921 22.6903 25.7297 23.0842 25.5079L33.0983 19.868C33.4923 19.6462 33.6307 19.1488 33.4076 18.7571C33.1844 18.3654 32.6841 18.2278 32.2902 18.4496Z" fill="#32353C"/>
<path d="M4.93692 18.7313L5.04914 19.4452H15.1212L13.4816 15.3699H9.61671L7.52285 15.5118C5.87801 15.6233 4.6824 17.1118 4.93692 18.7313Z" fill="white" stroke="#080717"/>
<path d="M47.914 26.4314L46.6258 45.2944L45.4546 34.5821L47.0942 26.4314H47.914Z" fill="#F3F1F2" stroke="#080717"/>
<path d="M49.5537 13.5068L50.3461 13.7971C51.1804 14.1027 51.6838 14.949 51.5512 15.823L49.5537 28.9931H49.887C50.1526 28.9931 50.3653 29.2125 50.3552 29.4766L49.656 47.8454C49.5989 49.3466 48.3581 50.5342 46.8473 50.5342H45.8059L47.0942 27.0137L49.5537 13.5068Z" fill="#32353C"/>
<path d="M8.69992 13.8095L11.842 19.0959L18.2083 28.9736C18.9836 30.1767 20.5467 30.6045 21.832 29.9655L36.5864 22.631C38.1153 21.8711 38.6135 19.942 37.6424 18.5437L36.0852 16.3014L31.1663 8.50006L27.7823 2.59186C27.0037 1.23249 25.2544 0.773248 23.9024 1.57323L9.68242 9.98634C8.35131 10.7739 7.91194 12.4836 8.69992 13.8095Z" fill="white" stroke="#080717"/>
<path d="M24.2091 8.31952L14.195 13.9593C13.8011 14.1812 13.6626 14.6786 13.8858 15.0703C14.1089 15.4619 14.6092 15.5996 15.0032 15.3777L25.0173 9.7379C25.4112 9.51602 25.5497 9.01865 25.3265 8.62697C25.1034 8.2353 24.6031 8.09765 24.2091 8.31952Z" fill="#D9D9D9"/>
<path d="M27.2542 12.7443L17.2401 18.3842C16.8461 18.606 16.7076 19.1034 16.9308 19.4951C17.154 19.8867 17.6542 20.0244 18.0482 19.8025L28.0623 14.1627C28.4563 13.9408 28.5947 13.4435 28.3716 13.0518C28.1484 12.6601 27.6481 12.5225 27.2542 12.7443Z" fill="#D9D9D9"/>
<path d="M28.6596 18.5661L18.6455 24.2059C18.2515 24.4278 18.113 24.9252 18.3362 25.3169C18.5594 25.7085 19.0596 25.8462 19.4536 25.6243L29.4677 19.9845C29.8617 19.7626 30.0001 19.2652 29.777 18.8736C29.5538 18.4819 29.0535 18.3442 28.6596 18.5661Z" fill="#D9D9D9"/>
<path d="M25.9184 10.0722L23.7039 24.2387C23.6819 24.3808 23.6707 24.5242 23.6707 24.6679V29.096C23.6707 30.5019 24.7212 31.6889 26.1238 31.8677L42.9458 34.0142C44.4208 34.2023 45.788 33.2159 46.0651 31.7634L49.3807 14.3912C49.6702 12.8741 48.6672 11.4112 47.1412 11.1243L29.218 7.7555C27.6573 7.46214 26.1624 8.51184 25.9184 10.0722Z" fill="white" stroke="#080717"/>
<path d="M43.0714 16.8221L37.4991 15.9607C37.0517 15.8915 36.6326 16.196 36.563 16.6408C36.4934 17.0856 36.7997 17.5023 37.2471 17.5715L42.8195 18.4329C43.2669 18.502 43.686 18.1975 43.7555 17.7527C43.8251 17.3079 43.5188 16.8912 43.0714 16.8221Z" fill="#D9D9D9"/>
<path d="M44.9011 21.1725L36.7964 19.9197C36.349 19.8505 35.9299 20.155 35.8604 20.5998C35.7908 21.0446 36.0971 21.4613 36.5445 21.5304L44.6492 22.7833C45.0966 22.8525 45.5157 22.5479 45.5852 22.1031C45.6548 21.6583 45.3485 21.2417 44.9011 21.1725Z" fill="#D9D9D9"/>
<path d="M34.2812 14.178L29.5927 13.4621C29.3369 13.423 29.0978 13.5975 29.0585 13.8517L28.0273 20.5269C27.988 20.7811 28.1635 21.0189 28.4192 21.0579L33.1077 21.7739C33.3634 21.8129 33.6026 21.6385 33.6419 21.3842L34.6731 14.7091C34.7124 14.4548 34.5369 14.217 34.2812 14.178Z" fill="#D9D9D9"/>
<path d="M18.1663 19.3289H2.58973H1.90159C0.898841 19.3289 0.122996 20.2026 0.247372 21.1919L2.70949 48.2247C2.84064 49.6645 4.05472 50.7672 5.50885 50.7672H43.6978C45.2503 50.7672 46.5086 49.516 46.5086 47.9727V45.9932L44.8366 26.7723C44.7223 25.4598 43.6174 24.4521 42.2924 24.4521H20.6258V21.7741C20.6258 20.4236 19.5246 19.3289 18.1663 19.3289Z" fill="#F3F1F2" stroke="#080717"/>
<path d="M4.34648 23.9863C4.86394 23.9863 5.28342 23.5693 5.28342 23.0548C5.28342 22.5403 4.86394 22.1233 4.34648 22.1233C3.82903 22.1233 3.40955 22.5403 3.40955 23.0548C3.40955 23.5693 3.82903 23.9863 4.34648 23.9863Z" fill="white"/>
<path d="M7.15727 23.9863C7.67473 23.9863 8.09421 23.5693 8.09421 23.0548C8.09421 22.5403 7.67473 22.1233 7.15727 22.1233C6.63982 22.1233 6.22034 22.5403 6.22034 23.0548C6.22034 23.5693 6.63982 23.9863 7.15727 23.9863Z" fill="white"/>
<path d="M10.2023 23.9863C10.7198 23.9863 11.1393 23.5693 11.1393 23.0548C11.1393 22.5403 10.7198 22.1233 10.2023 22.1233C9.68486 22.1233 9.26538 22.5403 9.26538 23.0548C9.26538 23.5693 9.68486 23.9863 10.2023 23.9863Z" fill="white"/>
<path d="M20.5959 35.2489C21.6418 35.2112 22.7617 35.1944 23.8025 35.2773C25.9466 35.4476 26.725 37.9375 25.4206 39.6964C24.9024 40.3955 24.3464 40.688 23.5975 40.9681C22.353 41.3983 19.9718 41.2222 18.5442 41.2995C18.7773 40.2436 19.1114 39.1331 19.3742 38.0788C19.6076 37.1427 19.8319 36.1772 20.1106 35.2589L20.5959 35.2489ZM23.9048 37.2761C23.5781 36.5842 22.4218 36.7335 21.7872 36.757C21.5339 37.7509 21.2866 38.747 21.0455 39.7444C21.7237 39.763 22.4593 39.8173 23.092 39.5255C23.7966 39.0993 24.3084 38.1315 23.9048 37.2761Z" fill="#DB4431"/>
<path d="M16.875 35.2764C17.5111 35.2414 18.362 35.2431 18.9994 35.267C18.7739 36.3099 18.4946 37.2814 18.2218 38.3075C17.9541 39.314 17.697 40.3039 17.4166 41.3081C17.0651 41.2999 15.6085 41.3379 15.4221 41.3067C14.7578 40.3843 14.18 39.3619 13.5024 38.4477C13.2278 39.3848 12.9778 40.3906 12.7261 41.3391C12.0141 41.3379 11.2042 41.319 10.5011 41.3561C11.0246 39.399 11.5115 37.2467 12.1037 35.3297C12.7991 35.3285 13.4944 35.3173 14.1895 35.2962L14.2357 35.3029C14.4039 35.4813 14.7371 36.0188 14.8924 36.2556L16.1175 38.1386C16.387 37.2768 16.6135 36.186 16.875 35.2764Z" fill="#DB4431"/>
<path d="M34.589 35.1202C35.4036 35.1212 36.2375 35.1163 37.0515 35.1028C37.8898 35.089 38.3861 35.1542 39.0998 35.4533C39.2818 35.5294 39.4395 35.6563 39.5456 35.8217C40.0405 36.5937 40.0862 37.2441 39.8021 38.1551C39.7044 38.4683 39.5264 38.7527 39.2851 38.9762C38.6087 39.6022 38.057 39.7855 37.0702 39.8921C36.9055 39.9291 35.7629 39.9261 35.5161 39.9326L35.1959 41.165C34.5044 41.168 33.8129 41.1753 33.1219 41.1864C33.638 39.173 34.1273 37.1507 34.589 35.1202ZM38.1048 37.6595C38.2892 36.388 36.7385 36.6258 36.0904 36.6488L35.6154 38.6269C36.2321 38.6344 36.9423 38.6975 37.512 38.4338C37.7485 38.2676 38.0537 38.0105 38.1048 37.6595Z" fill="#DB4431"/>
<path d="M28.0746 35.181L33.577 35.1279C33.4365 35.6407 33.291 36.1675 33.2025 36.6931L29.8698 36.7525L29.6848 37.4162C30.7032 37.4152 31.7219 37.408 32.7404 37.3945C32.6258 37.9227 32.5244 38.4075 32.3712 38.9252C31.4814 38.9215 30.5917 38.9313 29.7023 38.9543C29.5581 38.9527 29.4295 38.9324 29.3081 39.0058C29.1891 39.1383 29.1652 39.4098 29.1247 39.6092L32.5518 39.5815C32.4426 40.0721 32.2604 40.7021 32.1285 41.1941C30.5004 41.1191 28.2468 41.2028 26.5868 41.2242C27.0522 39.2589 27.5628 37.1211 28.0746 35.181Z" fill="#DB4431"/>
<path d="M8.56657 35.3219L10.9563 35.3086C10.3907 37.2885 9.89287 39.3697 9.34807 41.3708C8.57195 41.362 7.75523 41.3515 6.9823 41.385C7.52696 39.3928 8.039 37.3253 8.56657 35.3219Z" fill="#DB4431"/>
</g>
<defs>
<clipPath id="clip0_495_2094">
<rect width="52" height="51" fill="white"/>
</clipPath>
</defs>
</svg>
