<svg width="75" height="78" viewBox="0 0 75 78" fill="none" xmlns="http://www.w3.org/2000/svg">
<g clip-path="url(#clip0_495_2038)">
<path d="M13.9977 19.8321C13.8464 19.2038 14.2271 18.5739 14.851 18.4202L46.7597 10.5596C47.4365 10.3929 48.1118 10.8532 48.2081 11.5473L50.2621 26.3296C50.3255 26.786 50.1181 27.2358 49.7308 27.4809L21.7052 45.2133C21.0266 45.6426 20.124 45.2719 19.9348 44.4862L13.9977 19.8321Z" fill="#323338"/>
<path d="M51.7323 18.0178L15.1337 41.1746C14.0411 41.8659 13.7199 43.3184 14.4161 44.4189L32.2243 72.5641C32.9206 73.6646 34.3708 73.9963 35.4634 73.305L72.062 50.1482C73.1546 49.4569 73.4758 48.0044 72.7795 46.9039L54.9714 18.7586C54.2751 17.6582 52.8249 17.3265 51.7323 18.0178Z" fill="#323338"/>
<path d="M11.9826 21.861C11.8502 21.3113 12.1833 20.7601 12.7291 20.6256L44.6378 12.7651C45.23 12.6192 45.8207 13.0219 45.9051 13.6292L47.9592 28.4115C48.0148 28.8108 47.8331 29.2045 47.4946 29.4187L19.4688 47.1513C18.8751 47.5269 18.0853 47.2027 17.9197 46.5152L11.9826 21.861Z" fill="white" stroke="black"/>
<path d="M43.6171 15.3424L51.9229 54.6434L21.9724 60.8254L13.6665 21.5247L43.6171 15.3424ZM51.5753 54.4145L44.0721 18.9123C41.7388 19.2987 39.5865 18.2865 39.061 16.5836L18.2617 20.8768C18.4347 22.6119 16.9109 24.3332 14.68 24.904L22.1983 60.4781L51.5753 54.4145ZM19.6085 40.5829C17.9775 32.8655 22.8838 25.3238 30.567 23.7378C38.2504 22.1518 45.8011 27.1223 47.4322 34.8398C49.0631 42.5572 44.1566 50.0989 36.4733 51.6849C28.7902 53.2707 21.2395 48.3003 19.6085 40.5829Z" fill="#323338"/>
<path d="M27.1782 33.141L26.8725 30.8118C26.8074 30.3152 26.8453 29.8726 26.9862 29.4843C27.1264 29.0896 27.3595 28.7728 27.6856 28.5337C28.0108 28.2884 28.4144 28.1354 28.8963 28.0748C29.3587 28.0167 29.772 28.0639 30.1362 28.2162C30.4996 28.3623 30.7959 28.603 31.0253 28.9385C31.2481 29.2747 31.3922 29.6912 31.4573 30.1878L31.9017 33.5732L30.964 33.691L30.5283 30.3716C30.4672 29.9064 30.3111 29.5746 30.06 29.3761C29.8024 29.1784 29.4457 29.1082 28.9898 29.1654C28.5209 29.2244 28.1915 29.3872 28.0014 29.6539C27.8105 29.9143 27.746 30.2803 27.8079 30.7518L27.9639 31.94L33.8736 31.1974L34.0159 32.2819L27.1782 33.141ZM32.7124 33.4713L32.0305 28.2754L32.5189 28.214L33.2009 33.41L32.7124 33.4713Z" fill="#DB4431"/>
<path d="M50.1261 20.9524L13.5275 44.1092C12.5032 44.7573 12.202 46.1191 12.8548 47.1508L30.663 75.296C31.3157 76.3277 32.6753 76.6387 33.6996 75.9906L70.2982 52.8338C71.3225 52.1857 71.6237 50.824 70.9709 49.7923L53.1628 21.647C52.51 20.6153 51.1504 20.3043 50.1261 20.9524Z" fill="#F3F1F2" stroke="black"/>
<path d="M56.2807 26.3012L15.7255 51.9614L27.7026 70.891L68.2579 45.2308L56.2807 26.3012Z" fill="white" stroke="black"/>
<path d="M40.6777 51.1714C41.5654 50.6097 41.8265 49.4295 41.2607 48.5354C40.695 47.6412 39.5167 47.3717 38.629 47.9334C37.7413 48.4951 37.4802 49.6753 38.046 50.5694C38.6117 51.4636 39.79 51.7331 40.6777 51.1714Z" fill="#D9D9D9"/>
<path d="M59.7478 31.7807L37.3683 45.9407C35.388 47.1937 34.8057 49.8265 36.0677 51.821C37.3297 53.8156 39.9582 54.4168 41.9385 53.1639L64.1989 39.0792" stroke="black"/>
</g>
<defs>
<clipPath id="clip0_495_2038">
<rect width="51.2103" height="59.2433" fill="white" transform="translate(0 27.3813) rotate(-32.3225)"/>
</clipPath>
</defs>
</svg>
