<svg width="18" height="20" viewBox="0 0 18 20" fill="none" xmlns="http://www.w3.org/2000/svg">
<path d="M1.52329 18.3969L1.52264 3.46293C1.52235 1.54985 2.4384 0.83469 4.3859 0.834473L5.57104 0.835002H13.9046V3.50609C16.9728 5.29546 17.3505 9.70203 14.7791 12.1278C14.5095 12.3822 14.2311 12.5585 13.939 12.7873V19.1891C13.6292 18.9391 13.2871 18.5855 12.9985 18.31C12.6509 17.9782 12.2893 17.6614 11.9467 17.3242L11.2221 16.6345C11.053 16.4762 10.8489 16.2963 10.6931 16.1314C10.5904 16.2426 10.4539 16.37 10.34 16.4727C9.64882 17.0965 8.98358 17.7819 8.28709 18.3969C7.56793 18.4152 6.76353 18.3971 6.03395 18.3971L1.52329 18.3969ZM3.78674 1.66558C2.62062 1.80463 2.42571 2.55169 2.42699 3.48361L2.42738 17.5448H7.92487C8.85825 16.6932 9.75025 15.7672 10.6931 14.94C11.1583 15.4251 11.7396 15.9305 12.2347 16.4028C12.4493 16.6073 12.8667 16.9492 13.0251 17.176C13.0072 16.7889 13.0252 16.2738 13.0252 15.8748L13.0251 13.2512C12.825 13.3428 12.6203 13.4085 12.4108 13.4778C8.85257 14.556 5.10082 11.9894 4.95306 8.41797C4.78324 4.31176 9.04284 1.38942 13.0251 3.03128C13.0251 2.59898 13.0373 2.09281 13.0251 1.66558L4.10521 1.6647C4.02037 1.66446 3.86595 1.65923 3.78674 1.66558ZM10.601 3.43931C7.88897 3.50467 5.74457 5.65797 5.80852 8.25159C5.87252 10.8453 8.12072 12.8994 10.8329 12.8424C13.5513 12.7853 15.7053 10.6293 15.6412 8.02982C15.5771 5.43025 13.3192 3.37381 10.601 3.43931Z" fill="#DB4431" stroke="#DB4431" stroke-width="0.5"/>
<path d="M10.2864 5.98715C10.2872 5.71234 10.279 5.42413 10.2864 5.15088H11.1649V5.98715H12.5673V6.82247L11.1008 6.82304C10.8417 6.822 10.5624 6.81086 10.308 6.83083C9.80936 6.86989 9.75563 7.59012 10.2474 7.736C10.9402 7.80802 11.5376 7.58172 12.1238 8.08434C13.0445 8.87376 12.5565 10.2658 11.1649 10.2909V11.1169V11.2537H10.2864V10.2909H9.00299V9.45794L11.2891 9.46025C11.7828 9.43881 11.8539 8.75796 11.3815 8.61454C10.8172 8.47012 10.2087 8.79858 9.56724 8.33444C8.57998 7.62006 9.006 6.16198 10.2864 5.98715Z" fill="#DB4431"/>
</svg>
