<svg width="200" height="111" viewBox="0 0 200 111" fill="none" xmlns="http://www.w3.org/2000/svg">
<rect width="199.503" height="110.6" rx="8" fill="white"/>
<path d="M107.599 28.9022C107.727 29.0299 107.829 29.1815 107.898 29.3485C107.967 29.5154 108.003 29.6943 108.003 29.875C108.003 30.0557 107.967 30.2346 107.898 30.4015C107.829 30.5685 107.727 30.7201 107.599 30.8478L97.9743 40.4728C97.8466 40.6007 97.6949 40.7021 97.528 40.7713C97.3611 40.8405 97.1822 40.8761 97.0015 40.8761C96.8208 40.8761 96.6419 40.8405 96.4749 40.7713C96.308 40.7021 96.1564 40.6007 96.0287 40.4728L91.9037 36.3478C91.6457 36.0898 91.5007 35.7399 91.5007 35.375C91.5007 35.0101 91.6457 34.6602 91.9037 34.4022C92.1617 34.1442 92.5116 33.9992 92.8765 33.9992C93.2413 33.9992 93.5913 34.1442 93.8493 34.4022L97.0015 37.5561L105.654 28.9022C105.781 28.7743 105.933 28.6729 106.1 28.6037C106.267 28.5345 106.446 28.4989 106.626 28.4989C106.807 28.4989 106.986 28.5345 107.153 28.6037C107.32 28.6729 107.472 28.7743 107.599 28.9022ZM117.626 34C117.626 37.5353 116.578 40.9913 114.614 43.9308C112.65 46.8703 109.858 49.1614 106.592 50.5143C103.326 51.8673 99.7316 52.2212 96.2642 51.5315C92.7968 50.8418 89.6118 49.1394 87.1119 46.6395C84.6121 44.1397 82.9096 40.9547 82.2199 37.4872C81.5302 34.0198 81.8842 30.4258 83.2371 27.1595C84.59 23.8933 86.8811 21.1016 89.8207 19.1375C92.7602 17.1734 96.2161 16.125 99.7515 16.125C104.491 16.13 109.034 18.0149 112.385 21.366C115.737 24.7171 117.621 29.2608 117.626 34ZM114.876 34C114.876 31.0086 113.989 28.0843 112.327 25.597C110.665 23.1097 108.303 21.1711 105.54 20.0263C102.776 18.8815 99.7347 18.582 96.8007 19.1656C93.8668 19.7492 91.1718 21.1897 89.0565 23.305C86.9412 25.4203 85.5007 28.1153 84.9171 31.0493C84.3335 33.9832 84.633 37.0244 85.7778 39.7881C86.9226 42.5518 88.8612 44.914 91.3485 46.576C93.8358 48.2379 96.76 49.125 99.7515 49.125C103.761 49.1204 107.606 47.5255 110.441 44.69C113.277 41.8545 114.872 38.01 114.876 34Z" fill="#4CB542"/>
<path d="M22.0412 68H25.4572C26.0638 68 26.5818 68.098 27.0112 68.294C27.4405 68.4807 27.7672 68.756 27.9912 69.12C28.2245 69.484 28.3412 69.9227 28.3412 70.436C28.3412 71.1453 28.1125 71.682 27.6552 72.046C27.1978 72.41 26.5258 72.592 25.6392 72.592C26.3578 72.592 26.9645 72.6853 27.4592 72.872C27.9632 73.0587 28.3412 73.334 28.5932 73.698C28.8545 74.062 28.9852 74.5147 28.9852 75.056C28.9852 75.6253 28.8452 76.1153 28.5652 76.526C28.2945 76.9367 27.9212 77.254 27.4452 77.478C26.9692 77.6927 26.4185 77.8 25.7932 77.8H22.0412V68ZM25.3872 76.68C26.2272 76.68 26.8245 76.526 27.1792 76.218C27.5338 75.9007 27.7112 75.462 27.7112 74.902C27.7112 74.342 27.5338 73.9173 27.1792 73.628C26.8338 73.3293 26.2412 73.18 25.4012 73.18H22.2092V72.116H25.2472C25.8725 72.116 26.3298 71.9713 26.6192 71.682C26.9178 71.3927 27.0672 71.0053 27.0672 70.52C27.0672 70.0347 26.9225 69.68 26.6332 69.456C26.3438 69.232 25.8818 69.12 25.2472 69.12H23.3012V76.68H25.3872Z" fill="#1E1E1E"/>
<path d="M33.2382 78.08C32.5942 78.08 32.0389 77.9167 31.5722 77.59C31.1055 77.2633 30.7462 76.8107 30.4942 76.232C30.2422 75.6533 30.1162 74.9907 30.1162 74.244C30.1162 73.5347 30.2329 72.9 30.4662 72.34C30.6995 71.78 31.0355 71.3367 31.4742 71.01C31.9222 70.6833 32.4682 70.52 33.1122 70.52C34.0175 70.52 34.7082 70.8513 35.1842 71.514C35.6695 72.1673 35.9122 73.1053 35.9122 74.328C35.9122 75.5133 35.6835 76.4373 35.2262 77.1C34.7689 77.7533 34.1062 78.08 33.2382 78.08ZM33.4202 77.1C33.8589 77.1 34.2415 76.974 34.5682 76.722C34.8949 76.47 35.1469 76.1293 35.3242 75.7C35.5109 75.2707 35.6042 74.7853 35.6042 74.244C35.6042 73.7027 35.5109 73.2267 35.3242 72.816C35.1375 72.4053 34.8762 72.0833 34.5402 71.85C34.2042 71.6167 33.8169 71.5 33.3782 71.5C32.7529 71.5 32.2629 71.7427 31.9082 72.228C31.5535 72.704 31.3762 73.362 31.3762 74.202C31.3762 75.0793 31.5582 75.784 31.9222 76.316C32.2955 76.8387 32.7949 77.1 33.4202 77.1ZM35.6042 77.8V70.8H36.8642V77.8H35.6042Z" fill="#1E1E1E"/>
<path d="M39.1421 70.8H40.4021V76.68H43.4121V70.8H44.6721V76.68H47.6681V70.8H48.9281V77.8H39.1421V70.8Z" fill="#1E1E1E"/>
<path d="M53.6093 78.08C52.9653 78.08 52.41 77.9167 51.9433 77.59C51.4766 77.2633 51.1173 76.8107 50.8653 76.232C50.6133 75.6533 50.4873 74.9907 50.4873 74.244C50.4873 73.5347 50.604 72.9 50.8373 72.34C51.0706 71.78 51.4066 71.3367 51.8453 71.01C52.2933 70.6833 52.8393 70.52 53.4833 70.52C54.3886 70.52 55.0793 70.8513 55.5553 71.514C56.0406 72.1673 56.2833 73.1053 56.2833 74.328C56.2833 75.5133 56.0546 76.4373 55.5973 77.1C55.14 77.7533 54.4773 78.08 53.6093 78.08ZM53.7913 77.1C54.23 77.1 54.6126 76.974 54.9393 76.722C55.266 76.47 55.518 76.1293 55.6953 75.7C55.882 75.2707 55.9753 74.7853 55.9753 74.244C55.9753 73.7027 55.882 73.2267 55.6953 72.816C55.5086 72.4053 55.2473 72.0833 54.9113 71.85C54.5753 71.6167 54.188 71.5 53.7493 71.5C53.124 71.5 52.634 71.7427 52.2793 72.228C51.9246 72.704 51.7473 73.362 51.7473 74.202C51.7473 75.0793 51.9293 75.784 52.2933 76.316C52.6666 76.8387 53.166 77.1 53.7913 77.1ZM55.9753 77.8V70.8H57.2353V77.8H55.9753Z" fill="#1E1E1E"/>
<path d="M64.7346 78.08C64.0626 78.08 63.4933 77.954 63.0266 77.702C62.5599 77.45 62.1679 77.1 61.8506 76.652L62.5926 75.91C62.8259 76.3113 63.1059 76.61 63.4326 76.806C63.7686 77.002 64.1793 77.1 64.6646 77.1C65.1779 77.1 65.6026 76.988 65.9386 76.764C66.2839 76.54 66.4566 76.1947 66.4566 75.728C66.4566 75.42 66.3679 75.168 66.1906 74.972C66.0133 74.776 65.7379 74.636 65.3646 74.552C64.9913 74.468 64.5106 74.4447 63.9226 74.482V73.656C64.7346 73.6093 65.2946 73.502 65.6026 73.334C65.9199 73.1567 66.0786 72.8767 66.0786 72.494C66.0786 72.2047 66.0133 71.99 65.8826 71.85C65.7613 71.71 65.6026 71.6167 65.4066 71.57C65.2199 71.5233 65.0286 71.5 64.8326 71.5C64.3193 71.5 63.8946 71.598 63.5586 71.794C63.2319 71.9807 62.9473 72.2233 62.7046 72.522L61.9626 71.78C62.2519 71.4067 62.6439 71.1033 63.1386 70.87C63.6426 70.6367 64.2399 70.52 64.9306 70.52C65.5373 70.52 66.0133 70.6087 66.3586 70.786C66.7133 70.9633 66.9606 71.192 67.1006 71.472C67.2499 71.7427 67.3246 72.032 67.3246 72.34C67.3246 72.8627 67.1613 73.2687 66.8346 73.558C66.5173 73.838 66.0553 73.978 65.4486 73.978C65.9246 73.978 66.3306 74.048 66.6666 74.188C67.0026 74.3187 67.2593 74.5147 67.4366 74.776C67.6139 75.028 67.7026 75.3407 67.7026 75.714C67.7026 76.1433 67.5859 76.54 67.3526 76.904C67.1286 77.2587 66.7973 77.5433 66.3586 77.758C65.9199 77.9727 65.3786 78.08 64.7346 78.08Z" fill="#1E1E1E"/>
<path d="M71.8202 78.08C71.1762 78.08 70.6209 77.9167 70.1542 77.59C69.6876 77.2633 69.3282 76.8107 69.0762 76.232C68.8242 75.6533 68.6982 74.9907 68.6982 74.244C68.6982 73.5347 68.8149 72.9 69.0482 72.34C69.2816 71.78 69.6176 71.3367 70.0562 71.01C70.5042 70.6833 71.0502 70.52 71.6942 70.52C72.5996 70.52 73.2902 70.8513 73.7662 71.514C74.2516 72.1673 74.4942 73.1053 74.4942 74.328C74.4942 75.5133 74.2656 76.4373 73.8082 77.1C73.3509 77.7533 72.6882 78.08 71.8202 78.08ZM72.0022 77.1C72.4409 77.1 72.8236 76.974 73.1502 76.722C73.4769 76.47 73.7289 76.1293 73.9062 75.7C74.0929 75.2707 74.1862 74.7853 74.1862 74.244C74.1862 73.7027 74.0929 73.2267 73.9062 72.816C73.7196 72.4053 73.4582 72.0833 73.1222 71.85C72.7862 71.6167 72.3989 71.5 71.9602 71.5C71.3349 71.5 70.8449 71.7427 70.4902 72.228C70.1356 72.704 69.9582 73.362 69.9582 74.202C69.9582 75.0793 70.1402 75.784 70.5042 76.316C70.8776 76.8387 71.3769 77.1 72.0022 77.1ZM74.1862 77.8V70.8H75.4462V77.8H74.1862Z" fill="#1E1E1E"/>
<path d="M78.5221 74.916C78.1208 74.6827 77.8081 74.3933 77.5841 74.048C77.3601 73.7027 77.2481 73.3013 77.2481 72.844C77.2481 72.1907 77.4768 71.6867 77.9341 71.332C78.3914 70.9773 79.0728 70.8 79.9781 70.8H83.0441V77.8H81.7841V75.252H79.6701L78.5221 77.8H77.1221L78.5221 74.916ZM81.7841 71.78H80.2021C79.6141 71.78 79.1848 71.8733 78.9141 72.06C78.6434 72.2467 78.5081 72.5547 78.5081 72.984C78.5081 73.4133 78.6434 73.7353 78.9141 73.95C79.1941 74.1647 79.6234 74.272 80.2021 74.272H81.7841V71.78Z" fill="#1E1E1E"/>
<path d="M85.2846 70.8H88.2106C89.1066 70.8 89.7413 70.926 90.1146 71.178C90.4973 71.43 90.6886 71.85 90.6886 72.438C90.6886 72.9233 90.558 73.2873 90.2966 73.53C90.0446 73.7727 89.606 73.9593 88.9806 74.09C89.7086 74.1273 90.2453 74.2953 90.5906 74.594C90.936 74.8927 91.1086 75.3313 91.1086 75.91C91.1086 76.33 91.0153 76.68 90.8286 76.96C90.642 77.24 90.3526 77.45 89.9606 77.59C89.5686 77.73 89.06 77.8 88.4346 77.8H85.2846V70.8ZM87.9726 73.824C88.43 73.824 88.7846 73.7353 89.0366 73.558C89.298 73.3807 89.4286 73.1147 89.4286 72.76C89.4286 72.4147 89.3026 72.1673 89.0506 72.018C88.808 71.8593 88.458 71.78 88.0006 71.78H86.5446V73.824H87.9726ZM88.2386 76.82C88.78 76.82 89.1813 76.7267 89.4426 76.54C89.7133 76.3533 89.8486 76.078 89.8486 75.714C89.8486 75.3407 89.7133 75.0793 89.4426 74.93C89.172 74.7713 88.766 74.692 88.2246 74.692H86.5446V76.82H88.2386Z" fill="#1E1E1E"/>
<path d="M92.7625 70.8H94.0225V77.8H92.7625V70.8ZM92.8605 73.614H96.4725L97.7745 70.8H99.1045L97.3405 74.118L99.3005 77.8H97.8725L96.4165 74.524H92.9585L92.8605 73.614Z" fill="#1E1E1E"/>
<path d="M102.855 78.08C102.211 78.08 101.656 77.9167 101.189 77.59C100.723 77.2633 100.363 76.8107 100.111 76.232C99.8594 75.6533 99.7334 74.9907 99.7334 74.244C99.7334 73.5347 99.8501 72.9 100.083 72.34C100.317 71.78 100.653 71.3367 101.091 71.01C101.539 70.6833 102.085 70.52 102.729 70.52C103.635 70.52 104.325 70.8513 104.801 71.514C105.287 72.1673 105.529 73.1053 105.529 74.328C105.529 75.5133 105.301 76.4373 104.843 77.1C104.386 77.7533 103.723 78.08 102.855 78.08ZM103.037 77.1C103.476 77.1 103.859 76.974 104.185 76.722C104.512 76.47 104.764 76.1293 104.941 75.7C105.128 75.2707 105.221 74.7853 105.221 74.244C105.221 73.7027 105.128 73.2267 104.941 72.816C104.755 72.4053 104.493 72.0833 104.157 71.85C103.821 71.6167 103.434 71.5 102.995 71.5C102.37 71.5 101.88 71.7427 101.525 72.228C101.171 72.704 100.993 73.362 100.993 74.202C100.993 75.0793 101.175 75.784 101.539 76.316C101.913 76.8387 102.412 77.1 103.037 77.1ZM105.221 77.8V70.8H106.481V77.8H105.221Z" fill="#1E1E1E"/>
<path d="M111.699 70.8H112.959V73.67H116.501V70.8H117.761V77.8H116.501V74.79H112.959V77.8H111.699V70.8Z" fill="#1E1E1E"/>
<path d="M122.434 78.08C121.79 78.08 121.234 77.9167 120.768 77.59C120.301 77.2633 119.942 76.8107 119.69 76.232C119.438 75.6533 119.312 74.9907 119.312 74.244C119.312 73.5347 119.428 72.9 119.662 72.34C119.895 71.78 120.231 71.3367 120.67 71.01C121.118 70.6833 121.664 70.52 122.308 70.52C123.213 70.52 123.904 70.8513 124.38 71.514C124.865 72.1673 125.108 73.1053 125.108 74.328C125.108 75.5133 124.879 76.4373 124.422 77.1C123.964 77.7533 123.302 78.08 122.434 78.08ZM122.616 77.1C123.054 77.1 123.437 76.974 123.764 76.722C124.09 76.47 124.342 76.1293 124.52 75.7C124.706 75.2707 124.8 74.7853 124.8 74.244C124.8 73.7027 124.706 73.2267 124.52 72.816C124.333 72.4053 124.072 72.0833 123.736 71.85C123.4 71.6167 123.012 71.5 122.574 71.5C121.948 71.5 121.458 71.7427 121.104 72.228C120.749 72.704 120.572 73.362 120.572 74.202C120.572 75.0793 120.754 75.784 121.118 76.316C121.491 76.8387 121.99 77.1 122.616 77.1ZM124.8 77.8V70.8H126.06V77.8H124.8Z" fill="#1E1E1E"/>
<path d="M134.119 78.08C133.409 78.08 132.807 77.9307 132.313 77.632C131.818 77.3333 131.44 76.8993 131.179 76.33C130.927 75.7513 130.801 75.0513 130.801 74.23C130.801 73.4553 130.927 72.7927 131.179 72.242C131.44 71.682 131.818 71.2573 132.313 70.968C132.817 70.6693 133.423 70.52 134.133 70.52C135.281 70.52 136.144 70.8467 136.723 71.5C137.311 72.1533 137.605 73.0633 137.605 74.23C137.605 75.462 137.311 76.414 136.723 77.086C136.135 77.7487 135.267 78.08 134.119 78.08ZM134.147 77.1C134.893 77.1 135.444 76.8667 135.799 76.4C136.163 75.9333 136.345 75.2193 136.345 74.258C136.345 73.3433 136.163 72.6573 135.799 72.2C135.444 71.7333 134.903 71.5 134.175 71.5C133.456 71.5 132.924 71.724 132.579 72.172C132.233 72.6107 132.061 73.2967 132.061 74.23C132.061 75.182 132.233 75.9007 132.579 76.386C132.924 76.862 133.447 77.1 134.147 77.1Z" fill="#1E1E1E"/>
<path d="M139.371 70.8H140.631V76.68H144.257V70.8H145.517V76.708C145.871 76.708 146.156 76.7407 146.371 76.806C146.595 76.862 146.767 76.9833 146.889 77.17C147.01 77.3567 147.094 77.632 147.141 77.996C147.187 78.3693 147.211 78.864 147.211 79.48H146.147C146.147 79.2373 146.151 79.0133 146.161 78.808C146.17 78.612 146.156 78.4347 146.119 78.276C146.091 78.1267 146.021 78.01 145.909 77.926C145.806 77.842 145.638 77.8 145.405 77.8H139.371V70.8Z" fill="#1E1E1E"/>
<path d="M151.646 78.08C150.992 78.08 150.418 77.94 149.924 77.66C149.438 77.3707 149.056 76.946 148.776 76.386C148.505 75.8167 148.37 75.1167 148.37 74.286C148.37 73.054 148.654 72.1207 149.224 71.486C149.793 70.842 150.582 70.52 151.59 70.52C152.28 70.52 152.868 70.674 153.354 70.982C153.839 71.2807 154.198 71.724 154.432 72.312C154.674 72.9 154.768 73.6233 154.712 74.482H149.63C149.63 75.238 149.793 75.8633 150.12 76.358C150.456 76.8527 150.969 77.1 151.66 77.1C152.061 77.1 152.43 77.0113 152.766 76.834C153.102 76.6567 153.391 76.4047 153.634 76.078L154.376 76.82C154.096 77.1933 153.722 77.4967 153.256 77.73C152.798 77.9633 152.262 78.08 151.646 78.08ZM149.686 73.656H153.41C153.344 72.9373 153.153 72.4007 152.836 72.046C152.518 71.682 152.103 71.5 151.59 71.5C151.076 71.5 150.647 71.682 150.302 72.046C149.956 72.4007 149.751 72.9373 149.686 73.656Z" fill="#1E1E1E"/>
<path d="M156.529 70.8H157.789V73.67H161.331V70.8H162.591V77.8H161.331V74.79H157.789V77.8H156.529V70.8Z" fill="#1E1E1E"/>
<path d="M164.8 70.8H166.06V77.8H164.8V70.8ZM164.898 73.614H168.51L169.812 70.8H171.142L169.378 74.118L171.338 77.8H169.91L168.454 74.524H164.996L164.898 73.614Z" fill="#1E1E1E"/>
<path d="M172.849 79.704C173.026 79.7693 173.213 79.8207 173.409 79.858C173.614 79.8953 173.778 79.914 173.899 79.914C174.104 79.914 174.277 79.8627 174.417 79.76C174.566 79.6573 174.692 79.508 174.795 79.312C174.907 79.1253 175.01 78.892 175.103 78.612L177.651 70.8H178.981L176.195 78.892C176.046 79.3213 175.882 79.6853 175.705 79.984C175.528 80.2827 175.313 80.5067 175.061 80.656C174.809 80.8147 174.492 80.894 174.109 80.894C173.848 80.894 173.638 80.88 173.479 80.852C173.32 80.824 173.171 80.7867 173.031 80.74C172.9 80.6933 172.737 80.6373 172.541 80.572L172.849 79.704ZM172.177 70.8H173.507L175.775 77.8H174.585L172.177 70.8Z" fill="#1E1E1E"/>
<path d="M19.122 96.08C18.478 96.08 17.9227 95.9167 17.456 95.59C16.9893 95.2633 16.63 94.8107 16.378 94.232C16.126 93.6533 16 92.9907 16 92.244C16 91.5347 16.1167 90.9 16.35 90.34C16.5833 89.78 16.9193 89.3367 17.358 89.01C17.806 88.6833 18.352 88.52 18.996 88.52C19.9013 88.52 20.592 88.8513 21.068 89.514C21.5533 90.1673 21.796 91.1053 21.796 92.328C21.796 93.5133 21.5673 94.4373 21.11 95.1C20.6527 95.7533 19.99 96.08 19.122 96.08ZM19.304 95.1C19.7427 95.1 20.1253 94.974 20.452 94.722C20.7787 94.47 21.0307 94.1293 21.208 93.7C21.3947 93.2707 21.488 92.7853 21.488 92.244C21.488 91.7027 21.3947 91.2267 21.208 90.816C21.0213 90.4053 20.76 90.0833 20.424 89.85C20.088 89.6167 19.7007 89.5 19.262 89.5C18.6367 89.5 18.1467 89.7427 17.792 90.228C17.4373 90.704 17.26 91.362 17.26 92.202C17.26 93.0793 17.442 93.784 17.806 94.316C18.1793 94.8387 18.6787 95.1 19.304 95.1ZM21.488 95.8V88.8H22.748V95.8H21.488Z" fill="#1E1E1E"/>
<path d="M25.0258 88.8H27.9518C28.8478 88.8 29.4825 88.926 29.8558 89.178C30.2385 89.43 30.4298 89.85 30.4298 90.438C30.4298 90.9233 30.2992 91.2873 30.0378 91.53C29.7858 91.7727 29.3472 91.9593 28.7218 92.09C29.4498 92.1273 29.9865 92.2953 30.3318 92.594C30.6772 92.8927 30.8498 93.3313 30.8498 93.91C30.8498 94.33 30.7565 94.68 30.5698 94.96C30.3832 95.24 30.0938 95.45 29.7018 95.59C29.3098 95.73 28.8012 95.8 28.1758 95.8H25.0258V88.8ZM27.7138 91.824C28.1712 91.824 28.5258 91.7353 28.7778 91.558C29.0392 91.3807 29.1698 91.1147 29.1698 90.76C29.1698 90.4147 29.0438 90.1673 28.7918 90.018C28.5492 89.8593 28.1992 89.78 27.7418 89.78H26.2858V91.824H27.7138ZM27.9798 94.82C28.5212 94.82 28.9225 94.7267 29.1838 94.54C29.4545 94.3533 29.5898 94.078 29.5898 93.714C29.5898 93.3407 29.4545 93.0793 29.1838 92.93C28.9132 92.7713 28.5072 92.692 27.9658 92.692H26.2858V94.82H27.9798Z" fill="#1E1E1E"/>
<path d="M34.4637 89.78H31.9997V88.8H38.1737V89.78H35.7237V95.8H34.4637V89.78Z" fill="#1E1E1E"/>
<path d="M42.7292 96.08C42.0198 96.08 41.4178 95.9307 40.9232 95.632C40.4285 95.3333 40.0505 94.8993 39.7892 94.33C39.5372 93.7513 39.4112 93.0513 39.4112 92.23C39.4112 91.4553 39.5372 90.7927 39.7892 90.242C40.0505 89.682 40.4285 89.2573 40.9232 88.968C41.4272 88.6693 42.0338 88.52 42.7432 88.52C43.8912 88.52 44.7545 88.8467 45.3332 89.5C45.9212 90.1533 46.2152 91.0633 46.2152 92.23C46.2152 93.462 45.9212 94.414 45.3332 95.086C44.7452 95.7487 43.8772 96.08 42.7292 96.08ZM42.7572 95.1C43.5038 95.1 44.0545 94.8667 44.4092 94.4C44.7732 93.9333 44.9552 93.2193 44.9552 92.258C44.9552 91.3433 44.7732 90.6573 44.4092 90.2C44.0545 89.7333 43.5132 89.5 42.7852 89.5C42.0665 89.5 41.5345 89.724 41.1892 90.172C40.8438 90.6107 40.6712 91.2967 40.6712 92.23C40.6712 93.182 40.8438 93.9007 41.1892 94.386C41.5345 94.862 42.0572 95.1 42.7572 95.1Z" fill="#1E1E1E"/>
<path d="M47.9809 88.8H49.1149L51.6769 93.224L54.2389 88.8H55.3869V95.8H54.1969V90.788L52.1809 94.26H51.1869L49.1709 90.788V95.8H47.9809V88.8Z" fill="#1E1E1E"/>
<path d="M60.4753 96.08C59.7659 96.08 59.1639 95.9307 58.6693 95.632C58.1746 95.3333 57.7966 94.8993 57.5353 94.33C57.2833 93.7513 57.1573 93.0513 57.1573 92.23C57.1573 91.4553 57.2833 90.7927 57.5353 90.242C57.7966 89.682 58.1746 89.2573 58.6693 88.968C59.1733 88.6693 59.7799 88.52 60.4893 88.52C61.6373 88.52 62.5006 88.8467 63.0793 89.5C63.6673 90.1533 63.9613 91.0633 63.9613 92.23C63.9613 93.462 63.6673 94.414 63.0793 95.086C62.4913 95.7487 61.6233 96.08 60.4753 96.08ZM60.5033 95.1C61.2499 95.1 61.8006 94.8667 62.1553 94.4C62.5193 93.9333 62.7013 93.2193 62.7013 92.258C62.7013 91.3433 62.5193 90.6573 62.1553 90.2C61.8006 89.7333 61.2593 89.5 60.5313 89.5C59.8126 89.5 59.2806 89.724 58.9353 90.172C58.5899 90.6107 58.4173 91.2967 58.4173 92.23C58.4173 93.182 58.5899 93.9007 58.9353 94.386C59.2806 94.862 59.8033 95.1 60.5033 95.1Z" fill="#1E1E1E"/>
<path d="M68.737 96.08C67.5797 96.08 66.7163 95.6927 66.147 94.918C65.587 94.1433 65.307 92.8973 65.307 91.18C65.307 90.1627 65.4144 89.3227 65.629 88.66C65.853 87.9973 66.2263 87.484 66.749 87.12C67.2717 86.756 67.9857 86.5133 68.891 86.392C69.2643 86.3453 69.689 86.252 70.165 86.112C70.6503 85.9627 71.075 85.7247 71.439 85.398V86.546C71.2243 86.7327 70.9023 86.9053 70.473 87.064C70.0437 87.2133 69.5537 87.316 69.003 87.372C68.2844 87.4467 67.715 87.6193 67.295 87.89C66.8844 88.1513 66.5904 88.534 66.413 89.038C66.2357 89.542 66.147 90.1953 66.147 90.998C66.3617 90.4473 66.7304 89.9947 67.253 89.64C67.785 89.276 68.415 89.094 69.143 89.094C70.0297 89.094 70.7343 89.388 71.257 89.976C71.789 90.5547 72.055 91.4087 72.055 92.538C72.055 93.6673 71.7703 94.54 71.201 95.156C70.641 95.772 69.8197 96.08 68.737 96.08ZM68.723 95.1C69.4043 95.1 69.9177 94.862 70.263 94.386C70.6177 93.91 70.795 93.2753 70.795 92.482C70.795 91.698 70.6223 91.1007 70.277 90.69C69.941 90.2793 69.4323 90.074 68.751 90.074C68.0603 90.074 67.5283 90.2793 67.155 90.69C66.7817 91.1007 66.595 91.7073 66.595 92.51C66.595 93.294 66.777 93.924 67.141 94.4C67.5143 94.8667 68.0417 95.1 68.723 95.1Z" fill="#1E1E1E"/>
<path d="M73.8755 88.8H75.1355V94.022L78.9295 88.8H80.1615V95.8H78.9015V90.564L75.0935 95.8H73.8755V88.8Z" fill="#1E1E1E"/>
<path d="M81.8047 95.058C81.8794 95.0673 81.9447 95.0767 82.0007 95.086C82.0567 95.0953 82.1127 95.1 82.1687 95.1C82.4487 95.1 82.6494 94.8993 82.7707 94.498C82.9014 94.0873 82.9807 93.4247 83.0087 92.51C83.0367 91.586 83.0507 90.3493 83.0507 88.8H88.3847V95.8H87.1247V89.92H84.3107C84.3107 91.18 84.2827 92.2113 84.2267 93.014C84.1707 93.8167 84.068 94.442 83.9187 94.89C83.7694 95.3287 83.55 95.6367 83.2607 95.814C82.9807 95.9913 82.6074 96.08 82.1407 96.08C82.0754 96.08 81.9914 96.0707 81.8887 96.052C81.786 96.0427 81.6834 96.0333 81.5807 96.024L81.8047 95.058Z" fill="#1E1E1E"/>
<path d="M91.4625 92.916C91.0612 92.6827 90.7485 92.3933 90.5245 92.048C90.3005 91.7027 90.1885 91.3013 90.1885 90.844C90.1885 90.1907 90.4172 89.6867 90.8745 89.332C91.3319 88.9773 92.0132 88.8 92.9185 88.8H95.9845V95.8H94.7245V93.252H92.6105L91.4625 95.8H90.0625L91.4625 92.916ZM94.7245 89.78H93.1425C92.5545 89.78 92.1252 89.8733 91.8545 90.06C91.5838 90.2467 91.4485 90.5547 91.4485 90.984C91.4485 91.4133 91.5838 91.7353 91.8545 91.95C92.1345 92.1647 92.5639 92.272 93.1425 92.272H94.7245V89.78Z" fill="#1E1E1E"/>
<path d="M104.007 96.08C103.297 96.08 102.695 95.9307 102.201 95.632C101.706 95.3333 101.328 94.8993 101.067 94.33C100.815 93.7513 100.689 93.0513 100.689 92.23C100.689 91.4553 100.815 90.7927 101.067 90.242C101.328 89.682 101.706 89.2573 102.201 88.968C102.705 88.6693 103.311 88.52 104.021 88.52C105.169 88.52 106.032 88.8467 106.611 89.5C107.199 90.1533 107.493 91.0633 107.493 92.23C107.493 93.462 107.199 94.414 106.611 95.086C106.023 95.7487 105.155 96.08 104.007 96.08ZM104.035 95.1C104.781 95.1 105.332 94.8667 105.687 94.4C106.051 93.9333 106.233 93.2193 106.233 92.258C106.233 91.3433 106.051 90.6573 105.687 90.2C105.332 89.7333 104.791 89.5 104.063 89.5C103.344 89.5 102.812 89.724 102.467 90.172C102.121 90.6107 101.949 91.2967 101.949 92.23C101.949 93.182 102.121 93.9007 102.467 94.386C102.812 94.862 103.335 95.1 104.035 95.1Z" fill="#1E1E1E"/>
<path d="M111.19 89.78H108.726V88.8H114.9V89.78H112.45V95.8H111.19V89.78Z" fill="#1E1E1E"/>
<path d="M116.754 88.8H122.886V95.8H121.626V89.92H118.014V95.8H116.754V88.8Z" fill="#1E1E1E"/>
<path d="M125.226 88.8H126.486V98.6H125.226V88.8ZM128.782 96.08C128.222 96.08 127.746 95.9027 127.354 95.548C126.971 95.1933 126.677 94.722 126.472 94.134C126.276 93.546 126.178 92.9113 126.178 92.23C126.178 91.5393 126.281 90.914 126.486 90.354C126.701 89.794 127.009 89.3507 127.41 89.024C127.811 88.688 128.297 88.52 128.866 88.52C129.547 88.52 130.117 88.6787 130.574 88.996C131.031 89.3133 131.377 89.752 131.61 90.312C131.853 90.8627 131.974 91.502 131.974 92.23C131.974 92.958 131.843 93.6113 131.582 94.19C131.33 94.7687 130.966 95.2307 130.49 95.576C130.014 95.912 129.445 96.08 128.782 96.08ZM128.656 95.1C129.291 95.1 129.79 94.8387 130.154 94.316C130.527 93.7933 130.714 93.0933 130.714 92.216C130.714 91.3573 130.532 90.69 130.168 90.214C129.813 89.738 129.314 89.5 128.67 89.5C128.25 89.5 127.872 89.6167 127.536 89.85C127.209 90.0833 126.953 90.4053 126.766 90.816C126.579 91.2173 126.486 91.6793 126.486 92.202C126.486 92.7433 126.575 93.2333 126.752 93.672C126.939 94.1107 127.195 94.4607 127.522 94.722C127.849 94.974 128.227 95.1 128.656 95.1Z" fill="#1E1E1E"/>
<path d="M136.058 96.08C135.414 96.08 134.858 95.9167 134.392 95.59C133.925 95.2633 133.566 94.8107 133.314 94.232C133.062 93.6533 132.936 92.9907 132.936 92.244C132.936 91.5347 133.052 90.9 133.286 90.34C133.519 89.78 133.855 89.3367 134.294 89.01C134.742 88.6833 135.288 88.52 135.932 88.52C136.837 88.52 137.528 88.8513 138.004 89.514C138.489 90.1673 138.732 91.1053 138.732 92.328C138.732 93.5133 138.503 94.4373 138.046 95.1C137.588 95.7533 136.926 96.08 136.058 96.08ZM136.24 95.1C136.678 95.1 137.061 94.974 137.388 94.722C137.714 94.47 137.966 94.1293 138.144 93.7C138.33 93.2707 138.424 92.7853 138.424 92.244C138.424 91.7027 138.33 91.2267 138.144 90.816C137.957 90.4053 137.696 90.0833 137.36 89.85C137.024 89.6167 136.636 89.5 136.198 89.5C135.572 89.5 135.082 89.7427 134.728 90.228C134.373 90.704 134.196 91.362 134.196 92.202C134.196 93.0793 134.378 93.784 134.742 94.316C135.115 94.8387 135.614 95.1 136.24 95.1ZM138.424 95.8V88.8H139.684V95.8H138.424Z" fill="#1E1E1E"/>
<path d="M141.961 88.8H144.887C145.783 88.8 146.418 88.926 146.791 89.178C147.174 89.43 147.365 89.85 147.365 90.438C147.365 90.9233 147.235 91.2873 146.973 91.53C146.721 91.7727 146.283 91.9593 145.657 92.09C146.385 92.1273 146.922 92.2953 147.267 92.594C147.613 92.8927 147.785 93.3313 147.785 93.91C147.785 94.33 147.692 94.68 147.505 94.96C147.319 95.24 147.029 95.45 146.637 95.59C146.245 95.73 145.737 95.8 145.111 95.8H141.961V88.8ZM144.649 91.824C145.107 91.824 145.461 91.7353 145.713 91.558C145.975 91.3807 146.105 91.1147 146.105 90.76C146.105 90.4147 145.979 90.1673 145.727 90.018C145.485 89.8593 145.135 89.78 144.677 89.78H143.221V91.824H144.649ZM144.915 94.82C145.457 94.82 145.858 94.7267 146.119 94.54C146.39 94.3533 146.525 94.078 146.525 93.714C146.525 93.3407 146.39 93.0793 146.119 92.93C145.849 92.7713 145.443 92.692 144.901 92.692H143.221V94.82H144.915Z" fill="#1E1E1E"/>
<path d="M148.865 95.058C148.94 95.0673 149.005 95.0767 149.061 95.086C149.117 95.0953 149.173 95.1 149.229 95.1C149.509 95.1 149.71 94.8993 149.831 94.498C149.962 94.0873 150.041 93.4247 150.069 92.51C150.097 91.586 150.111 90.3493 150.111 88.8H155.445V95.8H154.185V89.92H151.371C151.371 91.18 151.343 92.2113 151.287 93.014C151.231 93.8167 151.129 94.442 150.979 94.89C150.83 95.3287 150.611 95.6367 150.321 95.814C150.041 95.9913 149.668 96.08 149.201 96.08C149.136 96.08 149.052 96.0707 148.949 96.052C148.847 96.0427 148.744 96.0333 148.641 96.024L148.865 95.058Z" fill="#1E1E1E"/>
<path d="M160.539 96.08C159.886 96.08 159.312 95.94 158.817 95.66C158.332 95.3707 157.949 94.946 157.669 94.386C157.398 93.8167 157.263 93.1167 157.263 92.286C157.263 91.054 157.548 90.1207 158.117 89.486C158.686 88.842 159.475 88.52 160.483 88.52C161.174 88.52 161.762 88.674 162.247 88.982C162.732 89.2807 163.092 89.724 163.325 90.312C163.568 90.9 163.661 91.6233 163.605 92.482H158.523C158.523 93.238 158.686 93.8633 159.013 94.358C159.349 94.8527 159.862 95.1 160.553 95.1C160.954 95.1 161.323 95.0113 161.659 94.834C161.995 94.6567 162.284 94.4047 162.527 94.078L163.269 94.82C162.989 95.1933 162.616 95.4967 162.149 95.73C161.692 95.9633 161.155 96.08 160.539 96.08ZM158.579 91.656H162.303C162.238 90.9373 162.046 90.4007 161.729 90.046C161.412 89.682 160.996 89.5 160.483 89.5C159.97 89.5 159.54 89.682 159.195 90.046C158.85 90.4007 158.644 90.9373 158.579 91.656Z" fill="#1E1E1E"/>
<path d="M165.422 88.8H166.682V91.67H170.224V88.8H171.484V95.8H170.224V92.79H166.682V95.8H165.422V88.8Z" fill="#1E1E1E"/>
<path d="M176.157 96.08C175.513 96.08 174.958 95.9167 174.491 95.59C174.024 95.2633 173.665 94.8107 173.413 94.232C173.161 93.6533 173.035 92.9907 173.035 92.244C173.035 91.5347 173.152 90.9 173.385 90.34C173.618 89.78 173.954 89.3367 174.393 89.01C174.841 88.6833 175.387 88.52 176.031 88.52C176.936 88.52 177.627 88.8513 178.103 89.514C178.588 90.1673 178.831 91.1053 178.831 92.328C178.831 93.5133 178.602 94.4373 178.145 95.1C177.688 95.7533 177.025 96.08 176.157 96.08ZM176.339 95.1C176.778 95.1 177.16 94.974 177.487 94.722C177.814 94.47 178.066 94.1293 178.243 93.7C178.43 93.2707 178.523 92.7853 178.523 92.244C178.523 91.7027 178.43 91.2267 178.243 90.816C178.056 90.4053 177.795 90.0833 177.459 89.85C177.123 89.6167 176.736 89.5 176.297 89.5C175.672 89.5 175.182 89.7427 174.827 90.228C174.472 90.704 174.295 91.362 174.295 92.202C174.295 93.0793 174.477 93.784 174.841 94.316C175.214 94.8387 175.714 95.1 176.339 95.1ZM178.523 95.8V88.8H179.783V95.8H178.523Z" fill="#1E1E1E"/>
<path d="M181.949 85.3H183.503L183.279 92.314H182.173L181.949 85.3ZM182.747 96.08C182.523 96.08 182.341 96.01 182.201 95.87C182.07 95.73 182.005 95.562 182.005 95.366C182.005 95.17 182.07 95.0067 182.201 94.876C182.341 94.7453 182.523 94.68 182.747 94.68C182.962 94.68 183.139 94.7453 183.279 94.876C183.419 95.0067 183.489 95.17 183.489 95.366C183.489 95.562 183.419 95.73 183.279 95.87C183.139 96.01 182.962 96.08 182.747 96.08Z" fill="#1E1E1E"/>
</svg>
