<svg width="58" height="95" viewBox="0 0 58 95" fill="none" xmlns="http://www.w3.org/2000/svg">
<path d="M20.0166 50.9403C29.9044 46.5142 36.8981 42.2088 40.9979 38.0241C45.0977 33.759 47.1476 29.1317 47.1476 24.1423C47.1476 19.0724 45.4997 15.4108 42.2037 13.1576C38.9882 10.8238 34.8884 9.65692 29.9044 9.65692C25.483 9.65692 21.4234 10.7031 17.7256 12.7954C14.0277 14.8073 10.4103 17.7044 6.87318 21.4867L0 14.6061C3.61746 10.0191 8.079 6.43795 13.3846 3.86277C18.6902 1.28759 24.4782 0 30.7484 0C36.2148 0 40.9577 0.965692 44.9771 2.89708C49.0769 4.82846 52.2523 7.48411 54.5031 10.864C56.8344 14.1635 58 18.0263 58 22.4523C58 26.3151 57.1559 29.8962 55.4678 33.1957C53.7796 36.4147 51.569 39.3117 48.8358 41.8869C46.1026 44.4621 43.1282 46.6349 39.9127 48.4053C36.7775 50.1758 33.763 51.5438 30.869 52.5095V62.4079H20.0166V50.9403ZM26.1663 95C24.3174 95 22.79 94.3964 21.5842 93.1893C20.4588 91.9822 19.896 90.4934 19.896 88.723C19.896 87.033 20.4588 85.6247 21.5842 84.4981C22.79 83.291 24.3174 82.6874 26.1663 82.6874C27.9349 82.6874 29.422 83.291 30.6279 84.4981C31.9141 85.6247 32.5572 87.033 32.5572 88.723C32.5572 90.4934 31.9141 91.9822 30.6279 93.1893C29.422 94.3964 27.9349 95 26.1663 95Z" fill="#1E1E1E"/>
</svg>
